<?xml version="1.0" encoding="utf-8"?>
<!-- Generator: Adobe Illustrator 16.0.0, SVG Export Plug-In . SVG Version: 6.00 Build 0)  -->
<!DOCTYPE svg PUBLIC "-//W3C//DTD SVG 1.1//EN" "http://www.w3.org/Graphics/SVG/1.1/DTD/svg11.dtd">
<svg version="1.1" id="Layer_1" xmlns="http://www.w3.org/2000/svg" xmlns:xlink="http://www.w3.org/1999/xlink" x="0px" y="0px"
	 width="45.738px" height="42.844px" viewBox="0 0 45.738 42.844" enable-background="new 0 0 45.738 42.844" xml:space="preserve">
<g>
	<path fill="#FFFFFF" d="M39.377,9.269v2.707c0,0.366-0.135,0.684-0.402,0.951s-0.585,0.401-0.951,0.401H8.254
		c-0.367,0-0.684-0.134-0.951-0.401c-0.268-0.268-0.402-0.585-0.402-0.951V9.269c0-0.366,0.134-0.684,0.402-0.951
		C7.571,8.05,7.887,7.916,8.254,7.916h29.77c0.366,0,0.684,0.134,0.951,0.401S39.377,8.902,39.377,9.269z M39.377,20.094V22.8
		c0,0.367-0.135,0.685-0.402,0.952s-0.585,0.401-0.951,0.401H8.254c-0.367,0-0.684-0.134-0.951-0.401
		c-0.268-0.268-0.402-0.585-0.402-0.952v-2.706c0-0.366,0.134-0.684,0.402-0.951c0.268-0.268,0.584-0.401,0.951-0.401h29.77
		c0.366,0,0.684,0.134,0.951,0.401S39.377,19.728,39.377,20.094z M39.377,30.919v2.706c0,0.367-0.135,0.685-0.402,0.952
		s-0.585,0.401-0.951,0.401H8.254c-0.367,0-0.684-0.134-0.951-0.401c-0.268-0.268-0.402-0.585-0.402-0.952v-2.706
		c0-0.366,0.134-0.684,0.402-0.951c0.268-0.268,0.584-0.401,0.951-0.401h29.77c0.366,0,0.684,0.134,0.951,0.401
		S39.377,30.553,39.377,30.919z"/>
</g>
</svg>
