<?xml version="1.0" encoding="utf-8"?>
<!-- Generator: Adobe Illustrator 16.0.0, SVG Export Plug-In . SVG Version: 6.00 Build 0)  -->
<!DOCTYPE svg PUBLIC "-//W3C//DTD SVG 1.1//EN" "http://www.w3.org/Graphics/SVG/1.1/DTD/svg11.dtd">
<svg version="1.1" id="Layer_1" xmlns="http://www.w3.org/2000/svg" xmlns:xlink="http://www.w3.org/1999/xlink" x="0px" y="0px"
	 width="55.144px" height="41.25px" viewBox="1.481 0.636 55.144 41.25" enable-background="new 1.481 0.636 55.144 41.25"
	 xml:space="preserve">
<g>
	<path fill="none" d="M-2.856,46.026h61.442V-5.292H-2.856V46.026z M53.656,15.789c2.709,6.704,2.632,14.599,1.652,16.546l0,0
		c-0.02,0.041-0.041,0.083-0.062,0.12c-0.123,0.204-0.268,0.404-0.429,0.599l0,0c-0.304,0.367-0.669,0.706-1.072,1
		c-0.091,0.711-0.612,1.62-1.136,1.554c-0.017,0.219-0.053,0.493-0.13,0.781l0,0c0.333,0.662-0.722,1.865-1.515,2.035
		c-0.235,0.383-0.621,0.879-1.132,1.114c-0.587,0.688-1.844,1.041-2.124,0.316v-0.002c-0.408,0.222-0.981,0.364-1.604,0.002
		c-0.236,0.096-0.482,0.142-0.707,0.109c-0.734,0.444-2.182,1.139-2.738,0.113c0,0-2.559,1.702-3.804,0.532
		c0,0-1.147,0.371-2.09,0.164c-0.572,0.213-1.349,0.287-2.336-0.09c0,0-1.659,1.364-2.767,0.268c0,0-2.074,1.185-3.526-0.544
		c0,0-2.144,1.521-3.734-0.346c0,0-2.145,1.175-3.111-0.347c0,0-2.144,1.384-3.389-0.69c0,0-2.282,1.451-3.181-0.347
		c0,0-2.628,1.384-3.458-0.553c0,0-2.352,1.383-2.835-0.553c0,0-2.899,1.137-3.175-1.076c0,0-0.974,0.937-2.08-0.237
		c-1.107-1.177-0.761-2.282-0.484-2.905c0,0-1.731-1.521-0.278-3.389c0,0-2.35-2.42,0.416-3.872c0,0-2.074-2.006,0.208-3.458
		c0,0-1.278-2.352,0.501-3.043c0,0-0.571-2.42,1.435-2.835c0,0-0.761-2.628,1.797-3.319c0,0-0.968-2.005,1.453-2.628
		c0,0-0.042-1.385,1.127-2c0.652-0.952,1.718-2.169,3.368-3.187c0.022-0.015,0.047-0.028,0.069-0.042
		c0.074-0.045,0.149-0.09,0.228-0.136c0.043-0.024,0.089-0.05,0.133-0.076c0.064-0.035,0.128-0.071,0.195-0.108
		c0.05-0.027,0.104-0.056,0.156-0.084c0.064-0.036,0.131-0.069,0.197-0.105c0.057-0.028,0.114-0.059,0.173-0.088
		c0.068-0.035,0.138-0.07,0.209-0.105c0.061-0.03,0.121-0.059,0.183-0.089c0.074-0.036,0.15-0.072,0.229-0.109
		c0.062-0.028,0.123-0.058,0.187-0.088c0.083-0.037,0.168-0.076,0.254-0.113c0.062-0.027,0.122-0.056,0.186-0.084
		c0.104-0.046,0.213-0.091,0.321-0.138c0.047-0.021,0.092-0.04,0.141-0.061c0.119-0.05,0.241-0.099,0.364-0.148
		c0.036-0.016,0.07-0.03,0.107-0.044c0.063-0.025,0.129-0.052,0.194-0.076c0.103-0.041,0.204-0.081,0.311-0.121
		c0.075-0.029,0.153-0.058,0.23-0.087c0.003-0.001,0.005-0.002,0.008-0.003c0.094-0.035,0.189-0.07,0.285-0.105
		c0.084-0.03,0.168-0.06,0.252-0.09c0.098-0.034,0.196-0.069,0.296-0.104c0.087-0.03,0.174-0.06,0.262-0.09
		c0.103-0.034,0.204-0.067,0.307-0.101c0.089-0.03,0.178-0.06,0.269-0.088c0.108-0.035,0.218-0.068,0.327-0.103
		c0.089-0.027,0.176-0.055,0.265-0.081c0.069-0.021,0.141-0.043,0.21-0.063c0.003,0,0.006-0.001,0.008-0.001
		c1.342-0.397,2.81-0.754,4.366-1.033l0,0c0.002,0,0.003-0.001,0.004-0.001c0.104-0.019,0.205-0.037,0.309-0.055
		c0.15-0.025,0.302-0.05,0.452-0.074c0.088-0.014,0.175-0.028,0.263-0.042c0.236-0.036,0.475-0.07,0.714-0.104
		c0.063-0.008,0.128-0.016,0.19-0.022c0.183-0.024,0.363-0.048,0.548-0.068c0.094-0.011,0.19-0.021,0.286-0.03
		c0.154-0.017,0.308-0.033,0.463-0.049c0.104-0.01,0.207-0.018,0.311-0.026c0.15-0.014,0.301-0.026,0.452-0.038
		c0.105-0.007,0.211-0.015,0.316-0.022c0.152-0.01,0.306-0.019,0.46-0.027c0.104-0.005,0.208-0.011,0.312-0.016
		c0.161-0.007,0.323-0.012,0.485-0.018c0.097-0.003,0.193-0.007,0.291-0.01c0.186-0.004,0.372-0.006,0.559-0.007
		c0.074-0.001,0.147-0.003,0.223-0.004c0.019,0,0.038,0,0.057,0c0.155,0,0.312,0.004,0.468,0.006c0.101,0.001,0.2,0.001,0.301,0.004
		c0.19,0.004,0.382,0.012,0.572,0.019c0.64,0.025,1.283,0.067,1.93,0.132C42.661,2.304,50.89,8.943,53.656,15.789z"/>
	<path fill="#BFE3E8" d="M43.56,20.629c0,0,0.042,0.044,0.103,0.116c-0.009-0.074-0.019-0.148-0.027-0.222
		C43.609,20.559,43.587,20.594,43.56,20.629z"/>
	<path fill="#BFE3E8" d="M52.003,34.922c-0.151,0.042-0.302,0.074-0.454,0.101c-0.177,0.693-0.671,1.34-1.178,1.218
		c-0.408-0.099-0.469-0.687-0.34-1.286c-0.083-0.024-0.166-0.048-0.248-0.079c-0.021-0.008-0.043-0.022-0.064-0.03
		c-0.37,0.833-2.008,1.794-2.355,1.551c-0.588-0.408-0.029-2.091,0.967-2.495c-0.142-0.127-0.282-0.261-0.424-0.402
		c-0.366,0.689-1.009,1.359-1.441,1.343c-0.651-0.027-0.341-1.745,0.434-2.478c-0.204-0.252-0.4-0.51-0.589-0.768
		c0.032,1.021-0.263,2.074-0.951,2c-1.109-0.119-0.832-3.032-0.155-3.694c-0.226-0.392-0.41-0.749-0.537-1.043
		c-0.189-0.44-0.328-1.479-0.465-2.82c-0.134,0.348-0.376,0.717-0.779,1.092c0,0,1.244,2.559-0.483,3.872
		c0,0,1.382,1.937-0.416,3.319c0,0,1.521,2.144-0.83,3.527c0,0-0.415,2.903-3.734,2.074c0,0-0.398,0.558-1.19,0.851
		c0.942,0.207,2.09-0.164,2.09-0.164c1.245,1.17,3.804-0.532,3.804-0.532c0.557,1.025,2.004,0.331,2.738-0.113
		c-0.155-0.021-0.301-0.076-0.426-0.179c-0.475-0.389,1.007-2.313,1.975-1.624c0.647,0.461-0.038,1.368-0.842,1.693
		c0.622,0.362,1.195,0.22,1.604-0.002c-0.409-1.071,2.008-2.08,2.33-1.451c0.205,0.402,0.074,0.808-0.206,1.137
		c0.511-0.235,0.896-0.731,1.132-1.114c-0.276,0.06-0.521-0.005-0.664-0.263c-0.553-1.001,1.784-2.555,2.179-1.772
		c0.077-0.288,0.113-0.562,0.13-0.781c-0.023-0.003-0.045-0.001-0.066-0.006C52.163,35.491,52.012,35.23,52.003,34.922z
		 M42.212,38.014c-0.035-0.871,1.75-1.437,2.127-0.813C44.912,38.144,42.245,38.886,42.212,38.014z M42.626,39.977
		c-0.647-0.506,1.228-2.279,1.984-1.815C45.367,38.626,43.49,40.654,42.626,39.977z M43.768,36.258
		c-0.562-0.612,1.104-2.998,2.112-1.867C46.533,35.123,44.339,36.88,43.768,36.258z M45.323,37.917
		c-0.972-0.09,0.312-2.641,1.072-2.523C47.156,35.51,46.81,38.056,45.323,37.917z M47.328,37.923
		c-0.362-0.583,2.345-2.245,2.711-1.489C50.405,37.192,47.847,38.758,47.328,37.923z"/>
	<path fill="#BFE3E8" d="M42.038,14.751c0,0,0.192,0.09,0.424,0.271c-0.116-0.293-0.241-0.557-0.375-0.79
		C42.081,14.395,42.069,14.567,42.038,14.751z"/>
	<path fill="#BFE3E8" d="M42.938,17.518c0,0,0.098,0.028,0.238,0.092c-0.028-0.14-0.058-0.277-0.087-0.413
		C43.049,17.301,42.999,17.406,42.938,17.518z"/>
	<path fill="#BFE3E8" d="M43.938,23.309c-0.086,0.121-0.184,0.242-0.31,0.363c0,0,0.205,0.197,0.395,0.529
		C43.996,23.909,43.968,23.612,43.938,23.309z"/>
	<path fill="#BFE3E8" d="M28.692,4.171c0,0,0.026-0.003,0.064-0.008c-0.026-0.006-0.054-0.009-0.08-0.014
		C28.683,4.157,28.688,4.163,28.692,4.171z"/>
	<path fill="#BFE3E8" d="M38.028,9.565c0,0,0.331-0.054,0.739,0.004c-0.274-0.312-0.563-0.618-0.87-0.918
		C37.998,8.9,38.052,9.198,38.028,9.565z"/>
	<path fill="#BFE3E8" d="M35.884,7.49c0,0,0.424,0.001,0.896,0.167c-0.382-0.31-0.785-0.609-1.218-0.895
		C35.688,6.972,35.8,7.208,35.884,7.49z"/>
	<path fill="#BFE3E8" d="M32.074,5.027c0.126,0.169,0.225,0.364,0.282,0.597c0,0,0.428-0.104,0.992-0.079
		c-0.367-0.166-0.746-0.327-1.146-0.474C32.16,5.054,32.116,5.043,32.074,5.027z"/>
	<path fill="#BFE3E8" d="M40.31,11.778c0,0,0.093,0.022,0.232,0.076c-0.075-0.108-0.15-0.217-0.228-0.326
		C40.313,11.612,40.316,11.689,40.31,11.778z"/>
	<path fill="#846538" d="M47.363,36.396c0.348,0.243,1.985-0.718,2.355-1.551c-0.446-0.188-0.916-0.521-1.389-0.944
		C47.334,34.305,46.775,35.988,47.363,36.396z"/>
	<path fill="#846538" d="M46.396,35.394c-0.761-0.117-2.044,2.434-1.072,2.523C46.81,38.056,47.156,35.51,46.396,35.394z"/>
	<path fill="#1D1D1B" d="M46.465,34.841c0.433,0.017,1.075-0.653,1.441-1.343c-0.346-0.347-0.684-0.733-1.008-1.135
		C46.124,33.096,45.813,34.814,46.465,34.841z"/>
	<path fill="#846538" d="M45.358,33.596c0.688,0.074,0.983-0.979,0.951-2c-0.425-0.585-0.805-1.171-1.106-1.694
		C44.526,30.564,44.249,33.477,45.358,33.596z"/>
	<path fill="#1D1D1B" d="M45.88,34.391c-1.008-1.131-2.675,1.255-2.112,1.867C44.339,36.88,46.533,35.123,45.88,34.391z"/>
	<path fill="#1D1D1B" d="M47.328,37.923c0.519,0.835,3.077-0.731,2.711-1.489C49.673,35.678,46.966,37.34,47.328,37.923z"/>
	<path fill="#846538" d="M46.948,38.161c-0.968-0.689-2.449,1.235-1.975,1.624c0.125,0.103,0.271,0.157,0.426,0.179
		c0.225,0.032,0.471-0.014,0.707-0.109C46.91,39.53,47.596,38.622,46.948,38.161z"/>
	<path fill="#1D1D1B" d="M44.61,38.161c-0.757-0.464-2.632,1.31-1.984,1.815C43.49,40.654,45.367,38.626,44.61,38.161z"/>
	<path fill="#846538" d="M50.04,38.402c-0.322-0.629-2.739,0.38-2.33,1.451v0.002c0.28,0.725,1.537,0.371,2.124-0.316
		C50.114,39.209,50.245,38.804,50.04,38.402z"/>
	<path fill="#1D1D1B" d="M50.371,36.24c0.507,0.122,1.001-0.524,1.178-1.218c-0.515,0.088-1.029,0.073-1.518-0.068
		C49.902,35.554,49.963,36.142,50.371,36.24z"/>
	<path fill="#1D1D1B" d="M50.302,38.161c0.144,0.258,0.388,0.322,0.664,0.263c0.793-0.17,1.848-1.373,1.515-2.035l0,0
		C52.086,35.607,49.749,37.16,50.302,38.161z"/>
	<path fill="#846538" d="M44.339,37.2c-0.377-0.623-2.162-0.058-2.127,0.813C42.245,38.886,44.912,38.144,44.339,37.2z"/>
	<path fill="#846538" d="M52.003,34.922c0.009,0.308,0.16,0.569,0.541,0.68c0.021,0.005,0.043,0.003,0.066,0.006
		c0.523,0.066,1.045-0.843,1.136-1.554C53.215,34.443,52.617,34.748,52.003,34.922z"/>
	<path fill="#FF9C0D" d="M33.602,1.406c-0.646-0.064-1.29-0.106-1.93-0.132c0.066,0.004,0.133,0.005,0.2,0.008
		c-0.064,0.003-0.723,0.04-1.657,0.114c3.289,0.115,7.861,1.083,11.35,2.835c0.599,0.101,1.178,0.227,1.717,0.363
		c0.971,0.558,1.901,1.172,2.783,1.83c-0.883-0.495-1.771-0.86-2.638-1.125c4.414,2.812,7.605,6.909,8.707,10.282
		c0.262,0.798,0.219,1.455-0.02,1.972c0.918,1.373,2.259,3.062,3.246,4.225c0.137,0.746,0.246,1.482,0.332,2.198
		c-0.969-0.869-2.354-2.653-4.305-5.569c-1.34,0.947-3.751,0.681-4.602-0.834c-0.608-1.082-1.527-2.717-2.615-4.473
		c-0.363-0.04-0.605-0.048-0.681-0.077c-0.093-0.037-0.259-0.004-0.452,0.063c1.646,2.865,2.567,6.02,2.526,9.272
		c-0.002,0.158-0.004,0.312-0.008,0.464l0,0c2.205,0.95,4.78,4.93,6.577,7.143c1.067,1.312,2.325,2.014,3.175,2.37
		c0.979-1.947,1.057-9.842-1.652-16.546C50.89,8.943,42.661,2.304,33.602,1.406z"/>
	<path fill="#FF9C0D" d="M16.554,3.807c0.075-0.029,0.153-0.058,0.23-0.087C16.707,3.749,16.629,3.778,16.554,3.807z"/>
	<path fill="#FF9C0D" d="M18.193,3.228c0.089-0.03,0.178-0.06,0.269-0.088C18.371,3.168,18.282,3.198,18.193,3.228z"/>
	<path fill="#FF9C0D" d="M17.077,3.612c0.084-0.03,0.168-0.06,0.252-0.09C17.245,3.552,17.161,3.581,17.077,3.612z"/>
	<path fill="#FF9C0D" d="M16.049,4.004c0.063-0.025,0.129-0.052,0.194-0.076C16.178,3.952,16.112,3.979,16.049,4.004z"/>
	<path fill="#FF9C0D" d="M17.625,3.418c0.087-0.03,0.174-0.06,0.262-0.09C17.799,3.359,17.712,3.388,17.625,3.418z"/>
	<path fill="#FF9C0D" d="M15.437,4.257c0.047-0.021,0.092-0.04,0.141-0.061C15.528,4.217,15.483,4.237,15.437,4.257z"/>
	<path fill="#FF9C0D" d="M14.078,4.878c0.061-0.03,0.121-0.059,0.183-0.089C14.199,4.82,14.139,4.848,14.078,4.878z"/>
	<path fill="#FF9C0D" d="M13.696,5.072c0.057-0.028,0.114-0.059,0.173-0.088C13.811,5.013,13.753,5.043,13.696,5.072z"/>
	<path fill="#FF9C0D" d="M14.93,4.479c0.062-0.027,0.122-0.056,0.186-0.084C15.052,4.423,14.991,4.451,14.93,4.479z"/>
	<path fill="#FF9C0D" d="M14.489,4.68c0.062-0.028,0.123-0.058,0.187-0.088C14.612,4.622,14.551,4.652,14.489,4.68z"/>
	<path fill="#FF9C0D" d="M23.642,1.858c0.104-0.019,0.205-0.037,0.309-0.055C23.847,1.821,23.745,1.839,23.642,1.858z"/>
	<path fill="#FF9C0D" d="M27.629,1.349c0.105-0.007,0.211-0.015,0.316-0.022C27.84,1.334,27.734,1.342,27.629,1.349z"/>
	<path fill="#FF9C0D" d="M29.202,1.266c0.097-0.003,0.193-0.007,0.291-0.01C29.396,1.259,29.299,1.263,29.202,1.266z"/>
	<path fill="#FF9C0D" d="M18.789,3.037c0.089-0.027,0.176-0.055,0.265-0.081C18.965,2.983,18.878,3.01,18.789,3.037z"/>
	<path fill="#FF9C0D" d="M30.799,1.251c0.101,0.001,0.2,0.001,0.301,0.004C30.999,1.252,30.899,1.252,30.799,1.251z"/>
	<path fill="#FF9C0D" d="M30.052,1.249c0.074-0.001,0.147-0.003,0.223-0.004C30.199,1.246,30.126,1.248,30.052,1.249z"/>
	<path fill="#FF9C0D" d="M28.405,1.299c0.104-0.005,0.208-0.011,0.312-0.016C28.613,1.288,28.509,1.294,28.405,1.299z"/>
	<path fill="#FF9C0D" d="M24.402,1.729c0.088-0.014,0.175-0.028,0.263-0.042C24.577,1.7,24.49,1.715,24.402,1.729z"/>
	<path fill="#FF9C0D" d="M26.866,1.413c0.104-0.01,0.207-0.018,0.311-0.026C27.073,1.396,26.97,1.404,26.866,1.413z"/>
	<path fill="#FF9C0D" d="M13.343,5.261c0.05-0.027,0.104-0.056,0.156-0.084C13.446,5.205,13.393,5.234,13.343,5.261z"/>
	<path fill="#FF9C0D" d="M25.379,1.583c0.063-0.008,0.128-0.016,0.19-0.022C25.507,1.568,25.442,1.575,25.379,1.583z"/>
	<path fill="#FF9C0D" d="M26.117,1.492c0.094-0.011,0.19-0.021,0.286-0.03C26.308,1.472,26.211,1.482,26.117,1.492z"/>
	<path fill="#FF9C0D" d="M12.718,5.623c0.022-0.015,0.047-0.028,0.069-0.042C12.765,5.595,12.74,5.609,12.718,5.623
		C11.068,6.641,10.002,7.858,9.35,8.81l0,0C10.002,7.858,11.068,6.641,12.718,5.623z"/>
	<path fill="#FF9C0D" d="M13.015,5.446c0.043-0.024,0.089-0.05,0.133-0.076C13.104,5.396,13.058,5.421,13.015,5.446z"/>
	<path fill="#FF9C0D" d="M35.042,5.039L35.042,5.039c0.369-0.294,0.804-0.514,1.282-0.676C32.578,2.852,25.695,2.183,26.8,1.75
		c-1.172,0.16-2.281,0.362-2.986,0.614c0,0-0.003,0.003-0.005,0.004C27.659,2.393,31.621,3.177,35.042,5.039z"/>
	<path fill="#FF9C0D" d="M32.073,5.027C32.074,5.027,32.074,5.027,32.073,5.027c0.043,0.017,0.087,0.027,0.13,0.044
		c0.399,0.146,0.778,0.308,1.146,0.474c0.001,0,0.001,0,0.002,0c-0.369-0.166-0.748-0.327-1.147-0.474
		C32.159,5.054,32.116,5.043,32.073,5.027z"/>
	<path fill="#FF9C0D" d="M28.677,4.15c0.026,0.005,0.054,0.008,0.08,0.014l0,0C28.73,4.157,28.704,4.155,28.677,4.15L28.677,4.15z"
		/>
	<path fill="#FF9C0D" d="M50.613,29.135c-0.761-1.867-4.148-4.771-5.087-5.326l0,0c-0.146,3.621-0.557,5.566,0.604,7.536
		c-0.659-0.936-1.19-1.854-1.464-2.486c-0.189-0.44-0.327-1.479-0.465-2.82l0,0c0.137,1.341,0.275,2.38,0.465,2.82
		c0.127,0.294,0.312,0.651,0.537,1.043c0.302,0.523,0.682,1.109,1.106,1.694c0.188,0.258,0.385,0.516,0.589,0.768
		c0.324,0.401,0.662,0.788,1.008,1.135c0.142,0.142,0.282,0.275,0.424,0.402c0.473,0.424,0.942,0.756,1.389,0.944
		c0.021,0.008,0.043,0.022,0.064,0.03c0.082,0.031,0.165,0.055,0.248,0.079c0.488,0.142,1.003,0.156,1.518,0.068
		c0.152-0.026,0.303-0.059,0.454-0.101c0.614-0.174,1.212-0.479,1.743-0.868c0.403-0.294,0.769-0.633,1.072-1
		C53.013,32.625,51.302,30.825,50.613,29.135z M47.229,32.761c0.199,0.208,0.351,0.378,0.468,0.519
		C47.539,33.113,47.383,32.94,47.229,32.761z"/>
	<path fill="#FF9C0D" d="M42.626,12.396l0.003-0.001c0.354-0.059,0.698-0.088,1.036-0.1c-1.926-3.021-4.272-6.202-6.36-7.458
		c-0.961,0.151-1.589,0.381-1.704,0.52C35.6,5.359,35.599,5.36,35.598,5.362c1.057,0.624,2.061,1.349,2.983,2.198
		C40.169,9.022,41.532,10.651,42.626,12.396z"/>
	<path fill="#FF9C0D" d="M22.468,2.386L22.468,2.386c0.148-0.102,0.57-0.302,1.17-0.527c-1.557,0.279-3.024,0.636-4.366,1.033
		C20.357,2.614,21.44,2.426,22.468,2.386z"/>
	<path fill="#FF9C0D" d="M35.562,6.763c0.433,0.285,0.836,0.585,1.218,0.895h0.001C36.398,7.348,35.994,7.048,35.562,6.763
		L35.562,6.763z"/>
	<path fill="#FF9C0D" d="M43.635,20.524c0.009,0.073,0.019,0.147,0.027,0.222c0.001,0,0.001,0,0.001,0
		C43.653,20.671,43.645,20.597,43.635,20.524L43.635,20.524z"/>
	<path fill="#FF9C0D" d="M43.09,17.197c0.029,0.136,0.059,0.273,0.087,0.413v0.001C43.148,17.47,43.119,17.332,43.09,17.197
		L43.09,17.197z"/>
	<path fill="#FF9C0D" d="M40.314,11.528c0.077,0.109,0.152,0.218,0.228,0.326v0.001C40.467,11.745,40.392,11.636,40.314,11.528
		L40.314,11.528z"/>
	<path fill="#FF9C0D" d="M44.023,24.201C44.024,24.201,44.024,24.201,44.023,24.201c-0.021-0.225-0.042-0.456-0.064-0.688
		c-0.007-0.067-0.014-0.137-0.021-0.205l0,0C43.968,23.612,43.996,23.909,44.023,24.201z"/>
	<path fill="#FF9C0D" d="M37.897,8.651c0.307,0.3,0.596,0.606,0.87,0.918c0.001,0,0.001,0,0.001,0
		C38.493,9.257,38.204,8.949,37.897,8.651C37.897,8.65,37.897,8.65,37.897,8.651z"/>
	<path fill="#FF9C0D" d="M42.087,14.232c0.134,0.233,0.259,0.497,0.375,0.79c0,0,0,0,0,0.001
		C42.346,14.729,42.221,14.465,42.087,14.232C42.087,14.232,42.087,14.232,42.087,14.232z"/>
	<path fill="#FFB24D" d="M37.305,4.837c2.088,1.256,4.435,4.437,6.36,7.458c4.114-0.134,6.99,3.039,8.332,5.084
		c0.037,0.057,0.078,0.116,0.117,0.174c0.238-0.517,0.281-1.174,0.02-1.972c-1.102-3.373-4.293-7.47-8.707-10.282
		C41.012,4.56,38.768,4.607,37.305,4.837z"/>
	<path fill="#FFB24D" d="M44.171,13.1c1.088,1.756,2.007,3.391,2.615,4.473c0.851,1.515,3.262,1.781,4.602,0.834
		c-0.206-0.308-0.417-0.625-0.636-0.958C48.37,13.822,45.48,13.245,44.171,13.1z"/>
	<path fill="#FFB24D" d="M26.8,1.75c-1.104,0.433,5.778,1.102,9.524,2.613c1.506-0.512,3.454-0.434,5.24-0.133
		c-3.488-1.752-8.061-2.72-11.35-2.835C29.249,1.473,27.992,1.589,26.8,1.75z"/>
	<path fill="#DD820A" d="M9.35,8.81c0.285-0.149,0.638-0.255,1.085-0.282c0,0,0.622-2.489,3.596-1.936c0,0,0.41-1.408,1.891-1.685
		c-0.03-0.255-0.026-0.544,0.02-0.859c-0.123,0.05-0.245,0.099-0.364,0.148c-0.049,0.021-0.094,0.04-0.141,0.061
		c-0.108,0.047-0.217,0.092-0.321,0.138c-0.063,0.028-0.124,0.057-0.186,0.084c-0.086,0.037-0.171,0.076-0.254,0.113
		c-0.063,0.03-0.125,0.06-0.187,0.088c-0.078,0.037-0.154,0.073-0.229,0.109c-0.062,0.03-0.122,0.059-0.183,0.089
		c-0.071,0.035-0.141,0.07-0.209,0.105c-0.059,0.029-0.116,0.06-0.173,0.088c-0.066,0.036-0.133,0.069-0.197,0.105
		c-0.053,0.028-0.106,0.057-0.156,0.084c-0.067,0.037-0.131,0.073-0.195,0.108c-0.044,0.026-0.09,0.052-0.133,0.076
		c-0.078,0.046-0.153,0.091-0.228,0.136c-0.022,0.014-0.047,0.027-0.069,0.042C11.068,6.641,10.002,7.858,9.35,8.81z"/>
	<path fill="#DD820A" d="M16.768,4.88c0.121,0.011,0.244,0.026,0.376,0.051c0,0,1.313-2.351,3.527-1.036c0,0,0.55-0.602,1.448-0.876
		c0.021-0.237,0.108-0.468,0.349-0.633c-1.027,0.04-2.11,0.228-3.196,0.506c-0.002,0-0.005,0.001-0.008,0.001
		c-0.069,0.021-0.141,0.042-0.21,0.063c-0.089,0.026-0.176,0.054-0.265,0.081C18.68,3.072,18.57,3.105,18.462,3.14
		c-0.091,0.028-0.18,0.058-0.269,0.088c-0.103,0.033-0.204,0.066-0.307,0.101c-0.088,0.03-0.175,0.06-0.262,0.09
		c-0.1,0.034-0.198,0.069-0.296,0.104c-0.084,0.03-0.168,0.06-0.252,0.09c-0.096,0.035-0.191,0.07-0.285,0.105
		C16.783,3.94,16.769,4.402,16.768,4.88z"/>
	<path fill="#DD820A" d="M23.809,2.368c-0.029,0.022-0.302,0.235-0.544,0.531c0.495,0.045,1.04,0.216,1.624,0.596
		c0,0,2.605-1.316,3.788,0.654c0.027,0.005,0.054,0.008,0.08,0.014c0.379-0.048,2.48-0.253,3.316,0.863
		c0.043,0.017,0.086,0.027,0.13,0.044c0.399,0.146,0.778,0.308,1.147,0.474c0.42,0.02,0.916,0.11,1.37,0.375
		c0.153-0.51,0.32-0.88,0.321-0.88C31.621,3.177,27.659,2.393,23.809,2.368z"/>
	<path fill="#DD820A" d="M38.581,7.56c-0.923-0.85-1.927-1.574-2.983-2.198c-0.226,0.273-0.39,0.635-0.479,0.859
		c0.162,0.147,0.312,0.326,0.442,0.542c0.433,0.285,0.837,0.585,1.219,0.895c0.428,0.151,0.893,0.442,1.117,0.992
		c0.307,0.3,0.596,0.607,0.871,0.919c0.678,0.094,1.563,0.501,1.546,1.959c0.077,0.108,0.152,0.218,0.228,0.327
		c0.322,0.123,0.904,0.426,1.257,1.068c0.426-0.363,0.816-0.522,0.827-0.527C41.532,10.651,40.169,9.022,38.581,7.56z"/>
	<path fill="#DD820A" d="M44.201,26.038c0.138,1.341,0.275,2.38,0.465,2.82c0.273,0.633,0.805,1.551,1.464,2.486
		c-1.16-1.97-0.75-3.915-0.604-7.536c-0.555-0.327-1.162-0.34-1.567-0.295c0.022,0.231,0.044,0.463,0.065,0.688
		C44.271,24.632,44.489,25.289,44.201,26.038z"/>
	<path fill="#DD820A" d="M42.087,14.231c0.134,0.234,0.259,0.498,0.375,0.792c0.459,0.358,1.066,1.078,0.628,2.174
		c0.029,0.136,0.059,0.273,0.087,0.414c0.552,0.25,1.77,1.055,0.458,2.913c0.01,0.073,0.019,0.147,0.028,0.222
		c0.285,0.341,1.029,1.405,0.325,2.49c0.692-0.367,1.566-0.413,1.568-0.413c0.004-0.152,0.006-0.306,0.008-0.464
		c0.041-3.253-0.88-6.407-2.526-9.272c-0.332,0.115-0.74,0.33-1.004,0.477C42.075,13.763,42.093,13.987,42.087,14.231z"/>
	<path fill="#DD820A" d="M47.697,33.28c-0.117-0.141-0.269-0.311-0.468-0.519C47.383,32.94,47.539,33.113,47.697,33.28z"/>
	<path fill="#FFDFB8" d="M52.134,29.965c-1.797-2.213-4.372-6.192-6.577-7.143l0,0c-0.002,0-0.876,0.046-1.568,0.413
		c-0.017,0.025-0.032,0.049-0.05,0.073c0.007,0.068,0.014,0.138,0.021,0.205c0.405-0.045,1.013-0.032,1.567,0.295l0,0
		c0.938,0.555,4.326,3.459,5.087,5.326c0.688,1.69,2.399,3.49,4.205,3.919l0,0c0.161-0.194,0.306-0.395,0.429-0.599
		c0.021-0.037,0.042-0.079,0.062-0.12l0,0C54.459,31.979,53.201,31.278,52.134,29.965z"/>
	<path fill="#FFDFB8" d="M43.665,12.295c-0.338,0.012-0.682,0.041-1.036,0.1l-0.003,0.001c-0.011,0.005-0.401,0.164-0.827,0.527
		c0.102,0.185,0.185,0.396,0.235,0.64c0.264-0.146,0.672-0.361,1.004-0.477c0.193-0.067,0.359-0.101,0.452-0.063
		c0.075,0.029,0.317,0.037,0.681,0.077c1.31,0.146,4.199,0.722,6.581,4.349c0.219,0.333,0.43,0.65,0.636,0.958
		c1.951,2.916,3.336,4.7,4.305,5.569c-0.086-0.716-0.195-1.452-0.332-2.198c-0.987-1.163-2.328-2.852-3.246-4.225
		c-0.039-0.058-0.08-0.117-0.117-0.174C50.655,15.334,47.779,12.161,43.665,12.295z"/>
	<path fill="#FFDFB8" d="M36.324,4.364c-0.479,0.162-0.913,0.382-1.282,0.676l0,0c-0.001,0-0.168,0.37-0.321,0.88
		C34.86,6,34.991,6.104,35.119,6.221c0.089-0.225,0.253-0.586,0.479-0.859c0.001-0.002,0.002-0.003,0.003-0.005
		c0.115-0.139,0.743-0.368,1.704-0.52c1.463-0.23,3.707-0.277,6.122,0.462c0.866,0.265,1.755,0.63,2.638,1.125
		c-0.882-0.658-1.812-1.272-2.783-1.83c-0.539-0.137-1.118-0.263-1.717-0.363C39.778,3.93,37.83,3.852,36.324,4.364z"/>
	<path fill="#FFDFB8" d="M22.468,2.386L22.468,2.386c-0.24,0.165-0.327,0.396-0.349,0.633c0.337-0.102,0.722-0.158,1.146-0.119
		c0.242-0.296,0.515-0.509,0.544-0.531c0.002-0.001,0.005-0.004,0.005-0.004C24.519,2.113,25.628,1.91,26.8,1.75
		c1.192-0.161,2.449-0.277,3.415-0.354c0.935-0.074,1.593-0.111,1.657-0.114c-0.067-0.003-0.134-0.004-0.2-0.008
		c-0.19-0.007-0.382-0.015-0.572-0.019c-0.101-0.003-0.2-0.003-0.301-0.004c-0.155-0.002-0.312-0.006-0.468-0.006
		c-0.019,0-0.038,0-0.057,0c-0.075,0.001-0.148,0.003-0.223,0.004c-0.187,0.001-0.373,0.003-0.559,0.007
		c-0.098,0.003-0.194,0.007-0.291,0.01c-0.162,0.006-0.324,0.011-0.485,0.018c-0.104,0.005-0.208,0.011-0.312,0.016
		c-0.154,0.009-0.308,0.018-0.46,0.027c-0.105,0.008-0.211,0.016-0.316,0.022c-0.151,0.012-0.302,0.024-0.452,0.038
		c-0.104,0.009-0.207,0.017-0.311,0.026c-0.155,0.016-0.309,0.032-0.463,0.049c-0.096,0.01-0.192,0.02-0.286,0.03
		c-0.185,0.021-0.365,0.044-0.548,0.068c-0.062,0.007-0.127,0.015-0.19,0.022c-0.239,0.033-0.478,0.067-0.714,0.104
		C24.577,1.7,24.49,1.715,24.402,1.729c-0.15,0.024-0.302,0.049-0.452,0.074c-0.104,0.018-0.205,0.036-0.309,0.055
		c-0.001,0-0.002,0.001-0.004,0.001l0,0C23.038,2.084,22.616,2.284,22.468,2.386z"/>
	<path fill="#FFDFB8" d="M15.922,4.907c0.249-0.047,0.532-0.058,0.846-0.027c0.001-0.479,0.016-0.94,0.024-1.163
		c-0.003,0.001-0.005,0.002-0.008,0.003c-0.077,0.029-0.155,0.058-0.23,0.087c-0.106,0.04-0.208,0.08-0.311,0.121
		c-0.065,0.024-0.131,0.051-0.194,0.076c-0.037,0.014-0.071,0.028-0.107,0.044C15.896,4.364,15.892,4.653,15.922,4.907z"/>
	<path fill="#D9F3F9" d="M6.504,35.279c-0.016-0.068-0.035-0.131-0.044-0.207c0,0-0.079,0.073-0.213,0.152
		c0.075,0.024,0.155,0.044,0.243,0.053C6.494,35.278,6.499,35.278,6.504,35.279z"/>
	<path fill="#D9F3F9" d="M37.958,39.923c3.319,0.829,3.734-2.074,3.734-2.074c2.352-1.384,0.83-3.527,0.83-3.527
		c1.798-1.383,0.416-3.319,0.416-3.319c1.728-1.313,0.483-3.872,0.483-3.872c0.403-0.375,0.646-0.744,0.779-1.092l0,0
		c0.288-0.749,0.069-1.406-0.177-1.837c0,0,0,0-0.001,0c-0.189-0.332-0.395-0.529-0.395-0.529c0.126-0.121,0.224-0.242,0.31-0.363
		l0,0c0.018-0.024,0.033-0.048,0.05-0.073c0.704-1.085-0.04-2.149-0.325-2.49c0,0,0,0-0.001,0c-0.061-0.072-0.103-0.116-0.103-0.116
		c0.027-0.035,0.05-0.07,0.075-0.105l0,0c1.312-1.858,0.094-2.663-0.458-2.913V17.61c-0.141-0.063-0.238-0.092-0.238-0.092
		c0.061-0.111,0.11-0.217,0.151-0.321l0,0c0.438-1.096-0.169-1.815-0.628-2.174c0-0.001,0-0.001,0-0.001
		c-0.231-0.181-0.424-0.271-0.424-0.271c0.031-0.185,0.043-0.356,0.049-0.52c0,0,0,0,0-0.001c0.006-0.244-0.012-0.468-0.053-0.668
		c-0.051-0.244-0.134-0.455-0.235-0.64c-0.353-0.643-0.935-0.945-1.257-1.068v-0.001c-0.14-0.054-0.232-0.076-0.232-0.076
		c0.007-0.089,0.004-0.166,0.005-0.25l0,0c0.018-1.458-0.868-1.865-1.546-1.959c0,0,0,0-0.001,0
		c-0.408-0.058-0.739-0.004-0.739-0.004c0.023-0.366-0.03-0.665-0.131-0.914c0-0.001,0-0.001,0-0.001
		c-0.225-0.55-0.689-0.841-1.117-0.992h-0.001c-0.472-0.166-0.896-0.167-0.896-0.167c-0.084-0.282-0.195-0.519-0.322-0.728l0,0
		c-0.131-0.216-0.28-0.395-0.442-0.542C34.991,6.104,34.86,6,34.721,5.919c-0.454-0.265-0.95-0.355-1.37-0.375
		c-0.001,0-0.001,0-0.002,0c-0.564-0.025-0.992,0.079-0.992,0.079c-0.058-0.232-0.156-0.428-0.282-0.597c0,0,0,0-0.001,0
		c-0.836-1.116-2.938-0.911-3.316-0.863l0,0c-0.038,0.005-0.064,0.008-0.064,0.008c-0.005-0.008-0.01-0.014-0.016-0.021l0,0
		c-1.183-1.971-3.788-0.654-3.788-0.654c-0.584-0.38-1.129-0.551-1.624-0.596c-0.424-0.039-0.809,0.018-1.146,0.119
		c-0.898,0.274-1.448,0.876-1.448,0.876c-2.214-1.314-3.527,1.036-3.527,1.036c-0.132-0.024-0.255-0.04-0.376-0.051
		c-0.313-0.03-0.597-0.02-0.846,0.027c-1.48,0.276-1.891,1.685-1.891,1.685c-2.974-0.554-3.596,1.936-3.596,1.936
		C9.988,8.555,9.635,8.66,9.35,8.81l0,0c-1.169,0.615-1.127,2-1.127,2c-2.42,0.623-1.453,2.628-1.453,2.628
		c-2.558,0.691-1.797,3.319-1.797,3.319c-2.006,0.415-1.435,2.835-1.435,2.835c-1.78,0.691-0.501,3.043-0.501,3.043
		c-2.282,1.452-0.208,3.458-0.208,3.458c-2.766,1.452-0.416,3.872-0.416,3.872c-1.454,1.867,0.278,3.389,0.278,3.389
		c-0.276,0.623-0.623,1.729,0.484,2.905c1.106,1.174,2.08,0.237,2.08,0.237c0.276,2.213,3.175,1.076,3.175,1.076
		c0.484,1.936,2.835,0.553,2.835,0.553c0.83,1.937,3.458,0.553,3.458,0.553c0.898,1.798,3.181,0.347,3.181,0.347
		c1.245,2.074,3.389,0.69,3.389,0.69c0.967,1.521,3.111,0.347,3.111,0.347c1.591,1.866,3.734,0.346,3.734,0.346
		c1.452,1.729,3.526,0.544,3.526,0.544c1.107,1.097,2.767-0.268,2.767-0.268c0.987,0.377,1.764,0.303,2.336,0.09
		C37.56,40.481,37.958,39.923,37.958,39.923z M33.646,38.974c0,0-1.546,1.271-2.578,0.248c0,0-1.932,1.104-3.286-0.506
		c0,0-1.646,1.161-3.059,0.073c-0.128,0.113-0.23,0.246-0.284,0.408c0,0,0.014-0.228,0.159-0.504
		c-0.1-0.088-0.198-0.187-0.295-0.299c0,0-1.998,1.095-2.899-0.322c0,0-1.998,1.289-3.158-0.646c0,0-2.126,1.354-2.964-0.321
		c0,0-2.448,1.289-3.222-0.516c0,0-2.19,1.288-2.642-0.516c0,0-2.162,0.842-2.799-0.462c-0.205-0.021-0.43-0.121-0.604-0.281
		c-0.363,0.128-0.908,0.142-1.495-0.48c-1.03-1.097-0.708-2.128-0.451-2.707c0,0-1.614-1.417-0.258-3.157
		c0,0-2.189-2.256,0.387-3.608c0,0-0.832-0.805-0.804-1.74c-0.084,0.058-0.169,0.128-0.251,0.232c0,0,0.012-0.072,0.045-0.206
		c0.031-0.105,0.118-0.247,0.257-0.365c0.104-0.388,0.381-0.783,0.945-1.143c0,0-1.19-2.191,0.469-2.835
		c0,0-0.533-2.255,1.336-2.643c0,0-0.595-2.075,1.174-2.906c0.061-0.09,0.128-0.178,0.218-0.264
		c0.058-0.058,0.126-0.109,0.197-0.158c-0.157-0.519-0.326-1.759,1.439-2.213c0,0-0.064-1.998,2.061-2.127
		c0,0,0.581-2.319,3.351-1.804c0,0,0.581-1.997,2.9-1.546c0,0,1.225-2.19,3.286-0.967c0,0,1.675-1.839,3.931-0.372
		c0,0,2.448-1.239,3.543,0.629c0,0,2.965-0.45,3.416,1.354c0,0,2.577-0.645,3.285,1.739c0,0,2.128,0,1.998,1.933
		c0,0,2.319-0.387,2.127,2.062c0,0,1.997,0.451,1.61,2.771c0,0,1.805,0.838,0.838,2.577c0,0,1.934,0.555,0.885,2.431
		c0.04,0.007,0.078,0.014,0.124,0.021c0,0-0.021,0.036-0.079,0.09c-0.034,0.038-0.096,0.069-0.17,0.096
		c-0.055,0.085-0.113,0.172-0.18,0.262c0,0,1.482,1.482,0.064,2.836c0,0,1.609,1.546-0.193,3.222c0,0,1.159,2.383-0.451,3.608
		c0,0,0.219,0.311,0.358,0.764c0.005-0.003,0.01-0.006,0.014-0.009c0,0-0.002,0.011-0.008,0.028c0.194,0.642,0.222,1.562-0.751,2.31
		c0,0,1.418,1.997-0.773,3.285c0,0-0.387,2.708-3.479,1.934C36.932,38.265,35.836,39.812,33.646,38.974z"/>
	<path fill="#FFFFFF" d="M40.276,19.115C40.278,19.115,40.279,19.116,40.276,19.115C40.277,19.115,40.276,19.115,40.276,19.115z"/>
	<path fill="#FFFFFF" d="M40.411,36.331c2.191-1.288,0.773-3.285,0.773-3.285c0.973-0.748,0.945-1.668,0.751-2.31
		c-0.007,0.025-0.021,0.067-0.046,0.13c-0.036,0.11-0.137,0.245-0.315,0.383c-0.186,0.107-0.471,0.224-0.787,0.134
		c-0.284-0.065-0.561-0.287-0.689-0.592c-0.499,0.053-1.089-0.091-1.499-0.506c0.004-0.009,0.135,0.081,0.375,0.152
		c0.238,0.076,0.587,0.126,0.971,0.063c0.386-0.054,0.792-0.234,1.138-0.497c0.344-0.269,0.611-0.63,0.788-1.015
		c0,0,0,0.1-0.026,0.295c-0.042,0.188-0.128,0.479-0.374,0.778c-0.243,0.292-0.647,0.594-1.189,0.699
		c-0.04,0.009-0.081,0.014-0.122,0.02c0.022,0.017,0.049,0.037,0.08,0.06c0.046,0.048,0.126,0.074,0.203,0.113
		c0.074,0.047,0.171,0.062,0.266,0.088c0.393,0.099,0.839-0.061,1.223-0.325c-0.14-0.453-0.358-0.764-0.358-0.764
		c1.61-1.226,0.451-3.608,0.451-3.608c1.803-1.676,0.193-3.222,0.193-3.222c1.418-1.354-0.064-2.836-0.064-2.836
		c0.066-0.09,0.125-0.177,0.18-0.262c-0.044,0.016-0.088,0.031-0.146,0.039c-0.147,0.008-0.347-0.025-0.508-0.162
		c-0.162-0.128-0.304-0.346-0.303-0.602c0,0,0.043,0.038,0.111,0.098c0.071,0.056,0.171,0.125,0.286,0.188
		c0.116,0.061,0.244,0.121,0.375,0.158c0.098,0.039,0.198,0.056,0.309,0.073c1.049-1.876-0.885-2.431-0.885-2.431
		c0.967-1.739-0.838-2.577-0.838-2.577c0.387-2.319-1.61-2.771-1.61-2.771c0.192-2.449-2.127-2.062-2.127-2.062
		c0.13-1.933-1.998-1.933-1.998-1.933c-0.708-2.384-3.285-1.739-3.285-1.739c-0.451-1.805-3.416-1.354-3.416-1.354
		c-1.095-1.868-3.543-0.629-3.543-0.629c-2.256-1.467-3.931,0.372-3.931,0.372c-2.062-1.224-3.286,0.967-3.286,0.967
		c-2.319-0.451-2.9,1.546-2.9,1.546c-2.77-0.516-3.351,1.804-3.351,1.804c-2.125,0.129-2.061,2.127-2.061,2.127
		c-1.766,0.454-1.597,1.694-1.439,2.213c0.246-0.168,0.558-0.276,0.872-0.294c0.406-0.02,0.804,0.094,1.097,0.282
		c0,0-0.087,0.003-0.239-0.006c-0.155,0.002-0.375-0.009-0.646,0.021c-0.269,0.033-0.588,0.095-0.912,0.272
		c-0.327,0.171-0.641,0.493-0.872,0.979c0,0,0.004-0.032,0.011-0.09c0.009-0.058,0.015-0.145,0.048-0.247
		c0.034-0.139,0.106-0.317,0.226-0.497c-1.77,0.831-1.174,2.906-1.174,2.906c-1.869,0.388-1.336,2.643-1.336,2.643
		c-1.659,0.644-0.469,2.835-0.469,2.835c-0.564,0.359-0.841,0.755-0.945,1.143c0.026-0.022,0.051-0.045,0.082-0.065
		c0.392-0.262,1.018-0.179,1.318,0.134c0,0-0.058,0.009-0.151,0.014c-0.093-0.001-0.228,0.016-0.383,0.016
		c-0.155,0.021-0.339,0.02-0.535,0.074c-0.118,0.029-0.25,0.077-0.382,0.167c-0.028,0.936,0.804,1.74,0.804,1.74
		c-2.577,1.353-0.387,3.608-0.387,3.608c-1.355,1.74,0.258,3.157,0.258,3.157c-0.258,0.579-0.58,1.61,0.451,2.707
		c0.586,0.622,1.132,0.608,1.495,0.48c-0.117-0.108-0.21-0.243-0.255-0.403C5.764,34.922,5.824,35,5.95,35.084
		c0.075,0.052,0.178,0.102,0.296,0.14c0.135-0.079,0.213-0.152,0.213-0.152c0.009,0.076,0.029,0.139,0.044,0.207
		c0.458,0.053,1.006-0.112,1.417-0.421c-0.006-0.017-0.02,0.301-0.442,0.575c-0.205,0.127-0.507,0.229-0.858,0.18H6.619
		c0.637,1.304,2.799,0.462,2.799,0.462c0.451,1.804,2.642,0.516,2.642,0.516c0.773,1.805,3.222,0.516,3.222,0.516
		c0.838,1.675,2.964,0.321,2.964,0.321c1.16,1.935,3.158,0.646,3.158,0.646c0.901,1.417,2.899,0.322,2.899,0.322
		c0.097,0.112,0.195,0.211,0.295,0.299c0.22-0.415,0.739-0.941,1.984-0.983c0,0,0.416-1.521,2.456-1.278
		c0,0,0.622-1.557,2.385-1.314c0,0,0.242-2.267,2.075-2.032c0,0-0.034-1.961,1.937-1.884c0,0,0.023-1.34,1.239-1.651
		c0,0-0.79-1.314,0.316-1.866c0,0-1.521-1.661-0.068-3.527c0,0-0.796,2.528,0.863,3.495c0,0-1.158,1.104-0.527,2.175
		c0,0-1.306,0.519-1.27,1.625c0,0-2.11,0.416-1.902,2.248c0,0-2.282,0-2.109,2.005c0,0-2.109-0.449-2.662,1.245
		c0,0-1.937-0.346-2.455,1.244c0,0-1.467,0.003-2.137,0.596c1.412,1.088,3.059-0.073,3.059-0.073
		c1.354,1.61,3.286,0.506,3.286,0.506c1.032,1.022,2.578-0.248,2.578-0.248c2.19,0.838,3.286-0.709,3.286-0.709
		C40.024,39.039,40.411,36.331,40.411,36.331z M40.869,18.969c0.456,0.122,0.947,0.097,1.357-0.093c0,0-0.019,0.019-0.056,0.056
		c-0.041,0.032-0.093,0.1-0.185,0.151c-0.176,0.118-0.487,0.238-0.905,0.23c-0.21,0.002-0.439-0.05-0.683-0.138
		c-0.096-0.049-0.118-0.06-0.122-0.061c-0.067,0.075-0.184,0.187-0.292,0.273c-0.222,0.182-0.491,0.372-0.833,0.431
		c-0.338,0.069-0.701-0.038-0.97-0.255c0,0,0.04,0.014,0.112,0.035c0.073,0.016,0.171,0.076,0.306,0.071
		c0.262,0.044,0.623-0.059,0.947-0.331c0.083-0.067,0.168-0.135,0.247-0.219c0.087-0.081,0.151-0.151,0.251-0.265l0.127-0.136
		l0.031-0.034l0.042,0.021l0.082,0.043l0.211,0.109C40.647,18.898,40.752,18.948,40.869,18.969z M37.106,12.129
		c0.304-0.01,0.634-0.089,0.935-0.235s0.563-0.368,0.789-0.614c-0.013-0.016-0.002,0.362-0.467,0.776
		c-0.23,0.193-0.589,0.37-1.021,0.381c-0.428,0.021-0.927-0.134-1.304-0.479c0,0,0.028,0.01,0.081,0.027
		c0.052,0.019,0.126,0.045,0.224,0.066C36.533,12.102,36.805,12.145,37.106,12.129z M34.389,11.501
		c-0.184,0.183-0.493,0.339-0.854,0.343c-0.357,0.014-0.76-0.11-1.097-0.372c0,0,0.099,0.023,0.263,0.044
		c0.161,0.022,0.389,0.042,0.637,0.022c0.249-0.017,0.515-0.078,0.748-0.199c0.232-0.123,0.428-0.315,0.594-0.54
		C34.663,10.785,34.755,11.108,34.389,11.501z M32.263,6.711c0,0-0.027,0.082-0.098,0.231c-0.076,0.144-0.19,0.359-0.407,0.593
		c-0.211,0.227-0.544,0.496-1.021,0.573c-0.204,0.037-0.418,0.017-0.628-0.046c-0.008,0.033-0.024,0.086-0.054,0.163
		C30,8.35,29.907,8.534,29.729,8.728c-0.179,0.189-0.451,0.401-0.838,0.485c-0.191,0.042-0.413,0.035-0.621-0.036
		c-0.208-0.072-0.395-0.215-0.525-0.396c0.002-0.005,0.092,0.058,0.253,0.113c0.16,0.06,0.392,0.097,0.642,0.047
		c0.498-0.089,1.009-0.507,1.446-0.886c-0.273-0.086-0.536-0.243-0.754-0.453c0,0,0.031,0.012,0.086,0.033
		c0.058,0.02,0.135,0.06,0.237,0.087c0.2,0.067,0.491,0.139,0.807,0.104c0.315-0.026,0.642-0.178,0.942-0.396
		C31.704,7.211,31.987,6.945,32.263,6.711z M21.157,6.698c0,0-0.067,0.023-0.189,0.054c-0.121,0.028-0.295,0.069-0.516,0.123
		c-0.217,0.053-0.479,0.107-0.752,0.217c-0.266,0.106-0.561,0.294-0.651,0.746c0.006,0-0.035-0.1-0.022-0.282
		c0.002-0.18,0.112-0.455,0.356-0.643C19.872,6.536,20.633,6.495,21.157,6.698z M9.675,11.857c-0.194,0.041-0.428,0.073-0.67,0.145
		c-0.236,0.067-0.487,0.214-0.606,0.606c0.005,0-0.026-0.089-0.013-0.25c0.003-0.156,0.104-0.408,0.336-0.565
		c0.226-0.163,0.519-0.221,0.795-0.233c0.278-0.009,0.544,0.039,0.78,0.119c0,0-0.055,0.028-0.163,0.064
		C10.028,11.778,9.87,11.819,9.675,11.857z M6.732,19.37c0.181,0.047,0.438,0.107,0.723,0.122c0.286,0.02,0.593-0.021,0.84-0.175
		c0.195-0.125,0.354-0.319,0.488-0.532c-0.02,0-0.038,0.005-0.058,0.005c-0.312,0.004-0.648-0.088-0.982-0.267
		c0,0,0.089-0.002,0.236-0.007c0.146-0.006,0.349-0.009,0.569-0.032c0.458-0.029,0.889-0.211,1.236-0.566
		c0,0-0.003,0.058-0.032,0.169c-0.018,0.053-0.03,0.131-0.076,0.202c-0.049,0.067-0.108,0.153-0.189,0.234
		c-0.146,0.114-0.357,0.224-0.604,0.254c-0.001,0.02-0.002,0.037-0.003,0.061c-0.021,0.142-0.056,0.37-0.251,0.603
		c-0.185,0.235-0.572,0.42-0.983,0.381c-0.415-0.025-0.835-0.225-1.206-0.534C6.439,19.287,6.549,19.323,6.732,19.37z M5.403,26.924
		c-0.395,0.045-0.905-0.108-1.17-0.509c0.003-0.006,0.092,0.065,0.26,0.127c0.165,0.064,0.408,0.111,0.679,0.085
		c0.553-0.042,1.158-0.388,1.501-0.892C6.66,25.72,6.728,26.077,6.324,26.5C6.126,26.697,5.808,26.889,5.403,26.924z M5.822,26.967
		c0,0,0.093,0.039,0.248,0.105c0.152,0.059,0.377,0.107,0.624,0.097c0.507-0.011,1.035-0.343,1.432-0.745
		c0,0-0.01,0.065-0.052,0.191c-0.025,0.061-0.042,0.148-0.1,0.227c-0.056,0.079-0.123,0.175-0.211,0.27
		c-0.195,0.163-0.484,0.36-0.869,0.361C6.521,27.494,6.078,27.326,5.822,26.967z M10.766,33.61
		c-0.206,0.145-0.531,0.231-0.877,0.172c-0.285-0.049-0.582-0.199-0.816-0.438c-0.244,0.098-0.53,0.164-0.849,0.158
		c-0.479-0.006-1.052-0.139-1.506-0.521c0,0,0.033,0.012,0.094,0.032c0.058,0.024,0.146,0.051,0.257,0.077
		c0.221,0.055,0.537,0.102,0.896,0.097c0.718,0.001,1.602-0.239,2.027-0.883c0,0-0.008,0.09-0.065,0.26
		c-0.065,0.163-0.213,0.405-0.506,0.604c-0.07,0.047-0.15,0.092-0.235,0.132c0.146,0.055,0.347,0.115,0.575,0.145
		c0.237,0.032,0.499,0.018,0.742-0.054c0.24-0.076,0.465-0.219,0.667-0.398C11.155,32.975,11.183,33.297,10.766,33.61z
		 M14.271,35.532c-0.229,0.018-0.506,0.107-0.79,0.315c-0.28,0.207-0.595,0.492-0.795,0.96c0.008,0.001-0.012-0.124,0.041-0.322
		c0.048-0.199,0.162-0.473,0.385-0.727c0.216-0.253,0.555-0.491,0.966-0.528c0.418-0.043,0.812,0.225,0.944,0.523
		C15.021,35.779,14.742,35.519,14.271,35.532z M21.567,36.104c-0.021,0.066-0.037,0.155-0.083,0.246
		c-0.05,0.088-0.11,0.191-0.188,0.304c-0.096,0.095-0.2,0.213-0.342,0.302c-0.074,0.041-0.152,0.083-0.235,0.123
		c-0.081,0.043-0.18,0.051-0.274,0.076c-0.381,0.074-0.837-0.021-1.2-0.294c-0.048,0.05-0.101,0.097-0.163,0.137
		c-0.07,0.039-0.145,0.078-0.224,0.116c-0.079,0.034-0.172,0.042-0.263,0.06c-0.37,0.048-0.786-0.099-1.092-0.39
		c0,0,0.097,0.024,0.257,0.062c0.076,0.027,0.174,0.031,0.279,0.041c0.104,0.021,0.219,0.006,0.338-0.004
		c0.492-0.032,0.914-0.45,1.225-0.912c0,0,0.004,0.066-0.013,0.194c-0.011,0.062-0.019,0.146-0.048,0.235
		c-0.037,0.087-0.086,0.188-0.149,0.299c-0.043,0.049-0.089,0.103-0.141,0.156c0.039,0.006,0.131,0.021,0.262,0.042
		c0.174,0.024,0.419,0.035,0.68-0.014c0.536-0.083,1.033-0.521,1.417-0.985C21.61,35.899,21.603,35.97,21.567,36.104z M26.742,35.09
		c-0.041,0.108-0.129,0.251-0.273,0.417c-0.157,0.146-0.38,0.331-0.702,0.388c-0.314,0.068-0.699,0.004-1.007-0.22
		c0,0,0.089,0.004,0.233,0.012c0.143,0.004,0.341-0.008,0.547-0.061c0.422-0.098,0.84-0.432,1.26-0.702
		C26.8,34.924,26.786,34.984,26.742,35.09z M36.092,27.06c-1.384-0.068-1.729,1.938-1.729,1.938
		c-2.489-0.83-2.903,2.074-2.903,2.074c-1.729-0.83-2.906,1.452-2.906,1.452c-1.797-1.037-2.558,0.968-2.558,0.968
		c-1.591-1.106-3.084,0.692-3.084,0.692c-1.149-1.729-2.656,0-2.656,0c-1.037-1.937-2.835-0.899-2.835-0.899
		c-0.484-0.969-2.213-0.346-2.213-0.346c-0.761-1.798-2.42-0.691-2.42-0.691c0.346-1.245-0.831-1.591-0.831-1.591
		c0.691-1.521-1.729-2.835-1.729-2.835c0.83-0.968-0.83-1.799-0.83-1.799c1.521-1.036,0-2.351,0-2.351
		c1.798-0.761,0.623-2.282,0.623-2.282c1.245-0.968,0-2.005,0-2.005c2.075-0.346,1.59-2.767,1.59-2.767
		c1.936,0.069,1.798-2.144,1.798-2.144c1.867,0.484,2.352-1.867,2.352-1.867c1.798,1.314,2.767-1.384,2.767-1.384
		c1.382,1.384,2.488-0.552,2.488-0.552c0.899,1.175,2.798,0,2.798,0c0.794,1.313,2.734,0,2.734,0
		c0.208,1.313,2.697,0.968,2.697,0.968c-0.208,1.384,1.383,1.451,1.383,1.451c-0.138,1.453,2.421,1.66,2.421,1.66
		c-0.416,1.591,1.59,2.144,1.59,2.144c-0.69,2.005,1.798,3.39,1.798,3.39c-1.451,0.898,0.277,3.457,0.277,3.457
		C34.846,24.502,36.092,27.06,36.092,27.06z M37.12,16.159c-0.467,0.015-0.955-0.288-1.213-0.738c0,0,0.024,0.019,0.071,0.052
		c0.047,0.031,0.109,0.085,0.198,0.131c0.17,0.104,0.429,0.22,0.728,0.233c0.298,0.022,0.622-0.072,0.898-0.262
		c0.217-0.156,0.404-0.365,0.562-0.589c-0.343-0.049-0.695-0.229-0.94-0.537c0,0,0.097,0.04,0.257,0.106
		c0.075,0.042,0.179,0.056,0.287,0.085c0.105,0.038,0.229,0.036,0.356,0.046c0.524,0.039,1.062-0.297,1.475-0.711
		c0,0-0.014,0.066-0.06,0.195c-0.024,0.061-0.049,0.147-0.104,0.229c-0.058,0.081-0.13,0.173-0.219,0.274
		c-0.204,0.161-0.514,0.36-0.91,0.331c-0.014,0-0.027-0.005-0.042-0.006c-0.023,0.156-0.093,0.396-0.314,0.681
		C37.952,15.914,37.589,16.164,37.12,16.159z M33.883,37.954c-0.206,0.211-0.538,0.433-0.983,0.463
		c-0.218,0.019-0.464-0.034-0.674-0.16c-0.213-0.127-0.375-0.331-0.465-0.563c0.005-0.006,0.079,0.092,0.234,0.201
		c0.15,0.113,0.393,0.219,0.677,0.213c0.283,0.004,0.596-0.111,0.876-0.283c0.278-0.177,0.521-0.415,0.716-0.68
		C34.252,37.131,34.299,37.502,33.883,37.954z M35.453,35.873c-0.337-0.033-0.684-0.148-1.091-0.27c0,0,0.1-0.021,0.267-0.035
		s0.402-0.02,0.661-0.021s0.539-0.003,0.804-0.049c0.262-0.044,0.505-0.147,0.733-0.299c-0.008-0.019-0.035,0.312-0.502,0.552
		c-0.053,0.025-0.111,0.047-0.172,0.065c0.138,0.094,0.337,0.192,0.575,0.239c0.255,0.054,0.547,0.041,0.802-0.063
		c0.253-0.104,0.459-0.314,0.605-0.572c0,0,0.006,0.068-0.003,0.209c-0.027,0.131-0.083,0.354-0.305,0.544
		c-0.213,0.185-0.581,0.313-0.969,0.23c-0.311-0.053-0.637-0.254-0.832-0.558C35.853,35.884,35.657,35.897,35.453,35.873z"/>
	<path fill="#729AA0" d="M26.859,38.194c0.519-1.59,2.455-1.244,2.455-1.244c0.553-1.694,2.662-1.245,2.662-1.245
		c-0.173-2.005,2.109-2.005,2.109-2.005c-0.208-1.832,1.902-2.248,1.902-2.248c-0.036-1.106,1.27-1.625,1.27-1.625
		c-0.631-1.071,0.527-2.175,0.527-2.175c-1.659-0.967-0.863-3.495-0.863-3.495c-1.453,1.866,0.068,3.527,0.068,3.527
		c-1.106,0.552-0.316,1.866-0.316,1.866c-1.216,0.312-1.239,1.651-1.239,1.651c-1.971-0.077-1.937,1.884-1.937,1.884
		c-1.833-0.234-2.075,2.032-2.075,2.032c-1.763-0.242-2.385,1.314-2.385,1.314c-2.04-0.243-2.456,1.278-2.456,1.278
		c-1.245,0.042-1.765,0.568-1.984,0.983c-0.146,0.276-0.159,0.504-0.159,0.504c0.054-0.162,0.156-0.295,0.284-0.408
		C25.393,38.197,26.859,38.194,26.859,38.194z"/>
	<path fill="#85C2CC" d="M35.909,35.617c0.006-0.004,0.072,0.082,0.214,0.18c0.009,0.007,0.021,0.014,0.03,0.021
		c0.061-0.019,0.119-0.04,0.172-0.065c0.467-0.239,0.494-0.57,0.502-0.552c-0.229,0.151-0.472,0.255-0.733,0.299
		c-0.265,0.046-0.545,0.048-0.804,0.049s-0.494,0.006-0.661,0.021s-0.267,0.035-0.267,0.035c0.407,0.121,0.754,0.236,1.091,0.27
		c0.204,0.023,0.399,0.011,0.574-0.026C35.979,35.776,35.939,35.7,35.909,35.617z"/>
	<path fill="#85C2CC" d="M35.909,35.617c0.03,0.083,0.07,0.158,0.118,0.229c0.195,0.304,0.521,0.505,0.832,0.558
		c0.388,0.083,0.756-0.046,0.969-0.23c0.222-0.189,0.277-0.413,0.305-0.544c0.009-0.141,0.003-0.209,0.003-0.209
		c-0.146,0.258-0.353,0.468-0.605,0.572c-0.255,0.104-0.547,0.117-0.802,0.063c-0.238-0.047-0.438-0.146-0.575-0.239
		c-0.01-0.007-0.021-0.014-0.03-0.021C35.981,35.699,35.915,35.614,35.909,35.617z"/>
	<path fill="#85C2CC" d="M33.548,37.824c-0.28,0.172-0.593,0.287-0.876,0.283c-0.284,0.006-0.526-0.1-0.677-0.213
		c-0.155-0.109-0.229-0.207-0.234-0.201c0.09,0.232,0.252,0.437,0.465,0.563c0.21,0.126,0.456,0.179,0.674,0.16
		c0.445-0.03,0.777-0.252,0.983-0.463c0.416-0.452,0.369-0.823,0.381-0.81C34.068,37.409,33.826,37.648,33.548,37.824z"/>
	<path fill="#85C2CC" d="M40.158,30.781c0.041-0.006,0.082-0.011,0.122-0.02c0.542-0.105,0.946-0.407,1.189-0.699
		c0.246-0.299,0.332-0.591,0.374-0.778c0.026-0.195,0.026-0.295,0.026-0.295c-0.177,0.385-0.444,0.746-0.788,1.015
		c-0.346,0.263-0.752,0.443-1.138,0.497c-0.384,0.062-0.732,0.013-0.971-0.063c-0.24-0.071-0.371-0.161-0.375-0.152
		c0.41,0.415,1,0.559,1.499,0.506c-0.012-0.029-0.03-0.054-0.039-0.083C40.059,30.708,40.095,30.735,40.158,30.781z"/>
	<path fill="#85C2CC" d="M40.707,31.042c-0.095-0.026-0.191-0.041-0.266-0.088c-0.077-0.039-0.157-0.065-0.203-0.113
		c-0.031-0.022-0.058-0.043-0.08-0.06c-0.063-0.047-0.1-0.073-0.1-0.073c0.009,0.029,0.027,0.054,0.039,0.083
		c0.129,0.305,0.405,0.526,0.689,0.592c0.316,0.09,0.602-0.026,0.787-0.134c0.179-0.138,0.279-0.272,0.315-0.383
		c0.025-0.062,0.039-0.104,0.046-0.13c0.006-0.018,0.008-0.028,0.008-0.028c-0.004,0.003-0.009,0.006-0.014,0.009
		C41.546,30.982,41.1,31.141,40.707,31.042z"/>
	<path fill="#85C2CC" d="M19.252,36.856c0.052-0.054,0.098-0.107,0.141-0.156c0.063-0.111,0.112-0.212,0.149-0.299
		c0.029-0.09,0.037-0.173,0.048-0.235c0.017-0.128,0.013-0.194,0.013-0.194c-0.311,0.462-0.732,0.88-1.225,0.912
		c-0.119,0.01-0.233,0.025-0.338,0.004c-0.105-0.01-0.203-0.014-0.279-0.041c-0.16-0.038-0.257-0.062-0.257-0.062
		c0.306,0.291,0.722,0.438,1.092,0.39c0.091-0.018,0.184-0.025,0.263-0.06c0.079-0.038,0.153-0.077,0.224-0.116
		c0.062-0.04,0.115-0.087,0.163-0.137c-0.005-0.003-0.01-0.005-0.015-0.01C19.23,36.851,19.239,36.853,19.252,36.856z"/>
	<path fill="#85C2CC" d="M20.193,36.884c-0.261,0.049-0.506,0.038-0.68,0.014c-0.131-0.021-0.223-0.036-0.262-0.042
		c-0.013-0.003-0.021-0.005-0.021-0.005c0.005,0.005,0.01,0.007,0.015,0.01c0.363,0.272,0.819,0.368,1.2,0.294
		c0.095-0.025,0.193-0.033,0.274-0.076c0.083-0.04,0.161-0.082,0.235-0.123c0.142-0.089,0.246-0.207,0.342-0.302
		c0.077-0.112,0.138-0.216,0.188-0.304c0.046-0.091,0.062-0.18,0.083-0.246c0.035-0.134,0.043-0.205,0.043-0.205
		C21.227,36.363,20.729,36.801,20.193,36.884z"/>
	<path fill="#85C2CC" d="M25.54,35.626c-0.206,0.053-0.404,0.064-0.547,0.061c-0.145-0.008-0.233-0.012-0.233-0.012
		c0.308,0.224,0.692,0.288,1.007,0.22c0.322-0.057,0.545-0.241,0.702-0.388c0.145-0.166,0.232-0.309,0.273-0.417
		c0.044-0.106,0.058-0.166,0.058-0.166C26.38,35.195,25.962,35.529,25.54,35.626z"/>
	<path fill="#85C2CC" d="M14.078,35.231c-0.411,0.037-0.75,0.275-0.966,0.528c-0.223,0.254-0.337,0.527-0.385,0.727
		c-0.053,0.198-0.033,0.323-0.041,0.322c0.2-0.468,0.515-0.753,0.795-0.96c0.284-0.208,0.561-0.298,0.79-0.315
		c0.471-0.014,0.749,0.246,0.751,0.222C14.89,35.455,14.496,35.188,14.078,35.231z"/>
	<path fill="#85C2CC" d="M8.996,33.22c0.04,0.019,0.098,0.045,0.171,0.072c0.006,0.003,0.013,0.005,0.019,0.007
		c0.085-0.04,0.165-0.085,0.235-0.132c0.293-0.198,0.44-0.44,0.506-0.604c0.057-0.17,0.065-0.26,0.065-0.26
		c-0.426,0.644-1.31,0.884-2.027,0.883c-0.359,0.005-0.675-0.042-0.896-0.097c-0.112-0.026-0.2-0.053-0.257-0.077
		c-0.061-0.021-0.094-0.032-0.094-0.032c0.454,0.382,1.026,0.515,1.506,0.521c0.319,0.006,0.605-0.061,0.849-0.158
		c-0.048-0.049-0.097-0.096-0.138-0.152C8.934,33.191,8.956,33.2,8.996,33.22z"/>
	<path fill="#85C2CC" d="M9.761,33.444c-0.229-0.029-0.43-0.09-0.575-0.145c-0.006-0.002-0.013-0.004-0.019-0.007
		c-0.074-0.027-0.131-0.054-0.171-0.072c-0.04-0.02-0.062-0.029-0.062-0.029c0.042,0.057,0.09,0.104,0.138,0.152
		c0.234,0.239,0.532,0.39,0.816,0.438c0.346,0.06,0.671-0.027,0.877-0.172c0.417-0.312,0.39-0.635,0.404-0.618
		c-0.202,0.18-0.427,0.322-0.667,0.398C10.26,33.461,9.998,33.476,9.761,33.444z"/>
	<path fill="#85C2CC" d="M7.479,35.433c0.422-0.274,0.436-0.592,0.442-0.575c-0.411,0.309-0.958,0.474-1.417,0.421
		c-0.005-0.001-0.01-0.001-0.015-0.002c-0.088-0.009-0.168-0.028-0.243-0.053c-0.119-0.038-0.221-0.088-0.296-0.14
		C5.824,35,5.764,34.922,5.76,34.928c0.045,0.16,0.139,0.295,0.255,0.403c0.174,0.16,0.399,0.26,0.604,0.281H6.62
		C6.971,35.662,7.274,35.56,7.479,35.433z"/>
	<path fill="#85C2CC" d="M7.763,27.112c0.088-0.095,0.155-0.19,0.211-0.27c0.057-0.078,0.075-0.166,0.1-0.227
		c0.042-0.126,0.052-0.191,0.052-0.191c-0.397,0.402-0.925,0.734-1.432,0.745c-0.247,0.011-0.471-0.038-0.624-0.097
		c-0.155-0.066-0.248-0.105-0.248-0.105c0.255,0.359,0.699,0.527,1.072,0.506C7.279,27.472,7.568,27.275,7.763,27.112z"/>
	<path fill="#85C2CC" d="M6.672,25.736c-0.343,0.504-0.948,0.85-1.501,0.892c-0.271,0.026-0.514-0.021-0.679-0.085
		c-0.167-0.062-0.257-0.133-0.26-0.127c0.266,0.4,0.775,0.554,1.17,0.509c0.405-0.035,0.723-0.228,0.92-0.424
		C6.728,26.077,6.66,25.72,6.672,25.736z"/>
	<path fill="#85C2CC" d="M8.628,19.441c0.195-0.232,0.231-0.461,0.251-0.603c0.001-0.023,0.002-0.041,0.003-0.061
		c-0.032,0.004-0.066,0.007-0.1,0.008c-0.134,0.213-0.293,0.407-0.488,0.532c-0.248,0.153-0.555,0.194-0.84,0.175
		c-0.285-0.015-0.542-0.075-0.723-0.122c-0.183-0.048-0.293-0.083-0.293-0.083c0.371,0.31,0.791,0.509,1.206,0.534
		C8.056,19.861,8.444,19.676,8.628,19.441z"/>
	<path fill="#85C2CC" d="M9.487,18.524c0.081-0.081,0.14-0.167,0.189-0.234c0.046-0.071,0.058-0.149,0.076-0.202
		c0.029-0.111,0.032-0.169,0.032-0.169c-0.347,0.355-0.778,0.537-1.236,0.566c-0.22,0.023-0.422,0.026-0.569,0.032
		c-0.146,0.005-0.236,0.007-0.236,0.007c0.333,0.179,0.67,0.271,0.982,0.267c0.02,0,0.038-0.005,0.058-0.005
		c0.033-0.001,0.067-0.004,0.1-0.008C9.13,18.747,9.342,18.638,9.487,18.524z"/>
	<path fill="#85C2CC" d="M7.097,14.517c-0.007,0.058-0.011,0.09-0.011,0.09c0.231-0.486,0.545-0.809,0.872-0.979
		c0.323-0.178,0.643-0.239,0.912-0.272c0.271-0.03,0.491-0.02,0.646-0.021c0.152,0.009,0.239,0.006,0.239,0.006
		c-0.293-0.188-0.69-0.302-1.097-0.282c-0.314,0.018-0.626,0.126-0.872,0.294c-0.071,0.049-0.139,0.101-0.197,0.158
		c-0.089,0.086-0.157,0.174-0.218,0.264c-0.119,0.18-0.192,0.358-0.226,0.497C7.112,14.372,7.106,14.459,7.097,14.517z"/>
	<path fill="#85C2CC" d="M10.297,11.678c-0.236-0.08-0.502-0.128-0.78-0.119c-0.276,0.013-0.569,0.07-0.795,0.233
		c-0.232,0.157-0.333,0.409-0.336,0.565c-0.013,0.161,0.018,0.25,0.013,0.25c0.119-0.393,0.37-0.539,0.606-0.606
		c0.242-0.071,0.476-0.104,0.67-0.145c0.195-0.038,0.353-0.079,0.459-0.114C10.242,11.706,10.297,11.678,10.297,11.678z"/>
	<path fill="#85C2CC" d="M4.312,23.397c0.156,0,0.291-0.017,0.383-0.016c0.094-0.005,0.151-0.014,0.151-0.014
		c-0.3-0.312-0.927-0.396-1.318-0.134c-0.031,0.021-0.056,0.043-0.082,0.065c-0.14,0.118-0.227,0.26-0.257,0.365
		c-0.033,0.134-0.045,0.206-0.045,0.206c0.082-0.104,0.167-0.175,0.251-0.232c0.132-0.09,0.264-0.138,0.382-0.167
		C3.973,23.416,4.157,23.418,4.312,23.397z"/>
	<path fill="#85C2CC" d="M19.026,7.556c-0.013,0.183,0.028,0.282,0.022,0.282c0.091-0.452,0.386-0.64,0.651-0.746
		c0.272-0.109,0.535-0.164,0.752-0.217c0.221-0.054,0.395-0.095,0.516-0.123c0.122-0.03,0.189-0.054,0.189-0.054
		c-0.524-0.203-1.285-0.162-1.774,0.215C19.139,7.101,19.028,7.376,19.026,7.556z"/>
	<path fill="#85C2CC" d="M28.639,8.941c-0.25,0.05-0.481,0.013-0.642-0.047c-0.161-0.056-0.251-0.118-0.253-0.113
		c0.131,0.182,0.317,0.324,0.525,0.396c0.208,0.071,0.43,0.078,0.621,0.036c0.387-0.084,0.659-0.296,0.838-0.485
		C29.907,8.534,30,8.35,30.055,8.226c0.029-0.077,0.046-0.13,0.054-0.163c-0.008-0.003-0.016-0.005-0.023-0.008
		C29.647,8.434,29.137,8.852,28.639,8.941z"/>
	<path fill="#85C2CC" d="M30.461,7.825c-0.315,0.035-0.606-0.036-0.807-0.104c-0.103-0.027-0.18-0.067-0.237-0.087
		c-0.055-0.021-0.086-0.033-0.086-0.033c0.218,0.21,0.48,0.367,0.754,0.453c0.008,0.003,0.016,0.005,0.023,0.008
		c0.21,0.062,0.424,0.083,0.628,0.046c0.478-0.077,0.811-0.347,1.021-0.573c0.217-0.233,0.331-0.449,0.407-0.593
		c0.07-0.149,0.098-0.231,0.098-0.231c-0.275,0.233-0.559,0.5-0.859,0.719C31.103,7.648,30.776,7.799,30.461,7.825z"/>
	<path fill="#85C2CC" d="M34.085,11.339c-0.233,0.121-0.499,0.183-0.748,0.199c-0.248,0.02-0.476,0-0.637-0.022
		c-0.164-0.021-0.263-0.044-0.263-0.044c0.337,0.262,0.739,0.386,1.097,0.372c0.361-0.004,0.671-0.16,0.854-0.343
		c0.366-0.394,0.274-0.716,0.29-0.702C34.513,11.024,34.317,11.216,34.085,11.339z"/>
	<path fill="#85C2CC" d="M36.343,12.052c-0.098-0.021-0.172-0.048-0.224-0.066c-0.053-0.018-0.081-0.027-0.081-0.027
		c0.377,0.345,0.876,0.499,1.304,0.479c0.433-0.011,0.791-0.188,1.021-0.381c0.465-0.414,0.454-0.792,0.467-0.776
		c-0.226,0.246-0.488,0.468-0.789,0.614s-0.631,0.226-0.935,0.235C36.805,12.145,36.533,12.102,36.343,12.052z"/>
	<path fill="#85C2CC" d="M38.465,15c0.015,0.001,0.028,0.006,0.042,0.006c0.396,0.029,0.706-0.17,0.91-0.331
		c0.089-0.102,0.161-0.193,0.219-0.274c0.055-0.082,0.079-0.169,0.104-0.229c0.046-0.129,0.06-0.195,0.06-0.195
		c-0.412,0.414-0.95,0.75-1.475,0.711c-0.127-0.01-0.251-0.008-0.356-0.046c-0.108-0.029-0.212-0.043-0.287-0.085
		c-0.16-0.066-0.257-0.106-0.257-0.106c0.245,0.309,0.598,0.488,0.94,0.537c0.041-0.059,0.081-0.116,0.117-0.176
		C38.474,14.805,38.483,14.878,38.465,15z"/>
	<path fill="#85C2CC" d="M38.15,15.681c0.222-0.285,0.291-0.524,0.314-0.681c0.019-0.122,0.009-0.195,0.017-0.189
		c-0.036,0.06-0.076,0.117-0.117,0.176c-0.157,0.224-0.345,0.433-0.562,0.589c-0.276,0.189-0.601,0.284-0.898,0.262
		c-0.299-0.014-0.558-0.129-0.728-0.233c-0.089-0.046-0.151-0.1-0.198-0.131c-0.047-0.033-0.071-0.052-0.071-0.052
		c0.258,0.45,0.746,0.753,1.213,0.738C37.589,16.164,37.952,15.914,38.15,15.681z"/>
	<path fill="#85C2CC" d="M40.327,18.751l-0.082-0.043l-0.042-0.021l-0.031,0.034l-0.127,0.136c-0.1,0.113-0.164,0.184-0.251,0.265
		c-0.079,0.084-0.164,0.151-0.247,0.219c-0.324,0.272-0.686,0.375-0.947,0.331c-0.135,0.005-0.232-0.056-0.306-0.071
		c-0.072-0.021-0.112-0.035-0.112-0.035c0.269,0.217,0.632,0.324,0.97,0.255c0.342-0.059,0.611-0.249,0.833-0.431
		c0.108-0.087,0.225-0.198,0.292-0.273c0.004,0.001,0.026,0.012,0.122,0.061c0.243,0.088,0.473,0.14,0.683,0.138
		c0.418,0.008,0.729-0.112,0.905-0.23c0.092-0.052,0.144-0.119,0.185-0.151c0.037-0.037,0.056-0.056,0.056-0.056
		c-0.41,0.189-0.901,0.215-1.357,0.093c-0.117-0.021-0.222-0.071-0.331-0.108L40.327,18.751z M40.276,19.115
		C40.276,19.115,40.277,19.115,40.276,19.115C40.279,19.116,40.278,19.115,40.276,19.115z"/>
	<path fill="#85C2CC" d="M41.772,19.587c-0.115-0.063-0.215-0.133-0.286-0.188c-0.068-0.06-0.111-0.098-0.111-0.098
		c-0.001,0.256,0.141,0.474,0.303,0.602c0.161,0.137,0.36,0.17,0.508,0.162c0.058-0.008,0.102-0.023,0.146-0.039
		c0.074-0.026,0.136-0.058,0.17-0.096c0.059-0.054,0.079-0.09,0.079-0.09c-0.046-0.008-0.084-0.015-0.124-0.021
		c-0.11-0.018-0.211-0.034-0.309-0.073C42.017,19.708,41.889,19.648,41.772,19.587z"/>
	<path fill="#1E2B2D" d="M36.437,20.284c0,0-2.488-1.385-1.798-3.39c0,0-2.006-0.553-1.59-2.144c0,0-2.559-0.207-2.421-1.66
		c0,0-1.591-0.067-1.383-1.451c0,0-2.489,0.346-2.697-0.968c0,0-1.94,1.313-2.734,0c0,0-1.898,1.175-2.798,0
		c0,0-1.106,1.936-2.488,0.552c0,0-0.969,2.698-2.767,1.384c0,0-0.484,2.352-2.352,1.867c0,0,0.138,2.213-1.798,2.144
		c0,0,0.484,2.421-1.59,2.767c0,0,1.245,1.037,0,2.005c0,0,1.175,1.521-0.623,2.282c0,0,1.521,1.314,0,2.351
		c0,0,1.66,0.831,0.83,1.799c0,0,2.42,1.313,1.729,2.835c0,0,1.176,0.346,0.831,1.591c0,0,1.659-1.106,2.42,0.691
		c0,0,1.729-0.623,2.213,0.346c0,0,1.798-1.037,2.835,0.899c0,0,1.507-1.729,2.656,0c0,0,1.493-1.799,3.084-0.692
		c0,0,0.761-2.005,2.558-0.968c0,0,1.177-2.282,2.906-1.452c0,0,0.414-2.904,2.903-2.074c0,0,0.346-2.006,1.729-1.938
		c0,0-1.246-2.558,0.622-3.318C36.714,23.741,34.985,21.183,36.437,20.284z M12.303,18.04c0.208-1.345,4.633-4.465,5.324-4.396
		c0.692,0.069,5.602,6.984,5.429,7.713c-0.141,0.592-2.312,2.215-3.789,2.772c-0.34,0.127-0.645,0.2-0.879,0.188
		C17.419,24.274,12.095,19.385,12.303,18.04z M14.234,30.644c-1.591,0-5.12-5.773-2.831-8.512c1.314-1.571,3.457,0,4.947,2.089
		C17.542,25.892,16.351,30.644,14.234,30.644z M31.458,28.944c-1.288,0.837-2.69,1.655-4.151,2.278
		c-0.031,0.014-0.062,0.029-0.093,0.042c-0.043,0.018-0.09,0.034-0.134,0.052c-0.045,0.019-0.092,0.035-0.137,0.053l0,0
		c-0.725,0.291-1.462,0.527-2.205,0.691c0,0.001,0,0.001,0,0.001c-0.089,0.02-0.176,0.046-0.266,0.063
		c-0.28,0.055-0.565,0.112-0.853,0.168l0,0c-1.699,0.332-3.479,0.623-5.182,0.319c-0.133-0.023-0.265-0.052-0.396-0.082
		c-1-0.237-1.155-0.559-1.131-1.568c0.006-0.256,0.018-0.514,0.038-0.772c0.058-0.777,0.182-1.559,0.399-2.298
		c0.217-0.733,0.624-1.392,1.059-2.008c0.19-0.27,0.38-0.457,0.579-0.609c0.332-0.256,0.694-0.414,1.148-0.701
		c0.178-0.113,0.359-0.22,0.541-0.323c0.051-0.029,0.102-0.057,0.154-0.085c1.747-0.963,3.645-1.465,5.524-1.088
		c-0.002-0.002-0.003-0.003-0.004-0.005c0.1,0.021,0.2,0.041,0.3,0.065c0.013,0.004,0.026,0.008,0.039,0.012
		c0.142,0.036,0.283,0.079,0.423,0.124c0.049,0.017,0.096,0.034,0.144,0.051c0.112,0.041,0.223,0.084,0.335,0.131
		c0.047,0.02,0.095,0.04,0.143,0.061c0.147,0.066,0.296,0.138,0.443,0.216c0.005,0.003,0.01,0.004,0.015,0.007
		c1.453,0.784,2.544,1.378,3.612,2.702c0.285,0.354,0.84,0.943,0.764,1.451C32.491,28.404,31.861,28.68,31.458,28.944z
		 M32.909,24.229c-0.565-0.179-0.975-0.614-1.516-0.815c-0.642-0.239-1.134,0.138-1.717-0.243c-0.441-0.288-0.671-0.749-1.175-0.968
		c-0.559-0.241-1.166-0.163-1.762-0.274c-0.718-0.133-1.001-0.747-1.644-1.075c-0.554-0.282-1.13-0.468-1.606-0.896
		c-0.817-0.733-1.589-1.957-2.217-2.854c-0.667-0.952-2.21-2.814-2.071-4.005c0.133-1.139,1.366-1.419,2.295-1.316
		c1.162,0.129,2.35,0.15,3.531,0.271c1.226,0.126,2.622,0.083,3.664,0.899c1.024,0.803,2.171,1.903,2.889,2.975
		c0.753,1.125,1.352,2.251,2.16,3.319c0.695,0.918,1.388,2.165,1.384,3.318C35.121,23.794,34.07,24.596,32.909,24.229z"/>
	<path fill="#FF6957" d="M26.65,23.137c0.013,0.004,0.026,0.008,0.039,0.012C26.677,23.145,26.663,23.141,26.65,23.137z"/>
	<path fill="#FF6957" d="M26.52,30.09c-0.84,0.39-1.706,0.704-2.583,0.896c0.269,0.327,0.536,0.682,0.802,1.073
		c0.743-0.164,1.48-0.4,2.205-0.691C26.844,30.916,26.7,30.49,26.52,30.09z"/>
	<path fill="#FF6957" d="M32.567,27.891c0.076-0.508-0.479-1.098-0.764-1.451c-1.068-1.324-2.159-1.918-3.612-2.702
		c-0.005-0.003-0.01-0.004-0.015-0.007c0.005,0.003,0.01,0.004,0.014,0.007c0.101,0.054,0.193,0.105,0.29,0.158
		c0.552,0.759,1.005,1.643,1.349,2.522c0.244,0.295,0.634,0.74,0.575,1.129c-0.016,0.1-0.057,0.189-0.114,0.27
		c0.165,0.62,0.27,1.198,0.302,1.673c-0.156,0.097-0.317,0.191-0.477,0.286c-0.005-0.525-0.106-1.057-0.271-1.577
		c-0.124,0.076-0.248,0.147-0.354,0.216c-0.752,0.489-1.554,0.968-2.384,1.39c0.287,0.812,0.298,1.355,0.299,1.375
		c-0.033,0.014-0.065,0.029-0.099,0.043c1.461-0.623,2.863-1.441,4.151-2.278C31.861,28.68,32.491,28.404,32.567,27.891z"/>
	<path fill="#FF6957" d="M18.438,31.368c-0.823-0.194-0.952-0.459-0.932-1.29c0.009-0.35,0.035-0.704,0.075-1.057
		c-0.172,0.076-0.348,0.162-0.529,0.26c0.069-0.472,0.164-0.939,0.298-1.391c0.02-0.064,0.047-0.125,0.069-0.189
		c0.125-0.01,0.264-0.017,0.413-0.017c0.013-0.046,0.021-0.093,0.034-0.138c0.179-0.604,0.514-1.146,0.873-1.653
		c0.418-0.593,0.826-0.702,1.423-1.079c0.012-0.009,0.024-0.016,0.037-0.023c-0.085-0.039-0.166-0.076-0.241-0.111
		c0.058-0.035,0.116-0.069,0.177-0.107c0.179-0.113,0.359-0.22,0.541-0.323c-0.182,0.104-0.363,0.21-0.541,0.323
		c-0.454,0.287-0.816,0.445-1.148,0.701c-0.199,0.152-0.389,0.34-0.579,0.609c-0.435,0.616-0.842,1.274-1.059,2.008
		c-0.218,0.739-0.342,1.521-0.399,2.298c-0.021,0.259-0.032,0.517-0.038,0.772c-0.024,1.01,0.131,1.331,1.131,1.568
		c0.132,0.03,0.264,0.059,0.396,0.082c1.702,0.304,3.482,0.013,5.182-0.319c-0.111-0.294-0.267-0.7-0.48-1.139
		C21.599,31.455,19.973,31.733,18.438,31.368z"/>
	<path fill="#FF6957" d="M21.169,24.25c1.797-0.876,3.758-1.133,5.629-0.124c0.385,0.206,0.733,0.397,1.064,0.598
		c-0.641-0.804-1.237-1.398-1.508-1.647c-1.88-0.377-3.777,0.125-5.524,1.088c0.018-0.012,0.038-0.021,0.058-0.03
		C20.982,24.172,21.076,24.212,21.169,24.25z"/>
	<path fill="#FF6957" d="M27.112,23.273c0.049,0.017,0.096,0.034,0.144,0.051C27.208,23.307,27.161,23.289,27.112,23.273z"/>
	<path fill="#FF6957" d="M27.214,31.264c-0.043,0.018-0.09,0.034-0.134,0.052C27.124,31.298,27.171,31.281,27.214,31.264z"/>
	<path fill="#FF6957" d="M27.591,23.454c0.047,0.02,0.095,0.04,0.143,0.061C27.686,23.494,27.638,23.474,27.591,23.454z"/>
	<path fill="#FF9A92" d="M18.739,25.894c-0.359,0.508-0.694,1.05-0.873,1.653c-0.013,0.045-0.021,0.092-0.034,0.138
		c1.4-0.01,3.785,0.479,6.104,3.302c0.877-0.192,1.743-0.507,2.583-0.896c-1.337-2.959-4.658-4.524-6.32-5.299
		c-0.013,0.008-0.025,0.015-0.037,0.023C19.565,25.192,19.157,25.301,18.739,25.894z"/>
	<path fill="#FF9A92" d="M18.438,31.368c1.535,0.364,3.161,0.087,4.702-0.215c-0.775-1.585-2.34-3.571-5.559-2.132
		c-0.04,0.353-0.066,0.707-0.075,1.057C17.485,30.909,17.614,31.174,18.438,31.368z"/>
	<path fill="#FF9A92" d="M26.798,24.126c-1.871-1.009-3.832-0.752-5.629,0.124c3.971,1.714,5.415,4.077,5.938,5.554
		c0.83-0.422,1.632-0.9,2.384-1.39c0.105-0.068,0.229-0.14,0.354-0.216c-0.411-1.296-1.227-2.529-1.981-3.475
		C27.531,24.524,27.183,24.332,26.798,24.126z"/>
	<path fill="#FF9A92" d="M30.404,27.547c0.059-0.389-0.331-0.834-0.575-1.129c0.187,0.476,0.34,0.948,0.461,1.398
		C30.348,27.737,30.389,27.647,30.404,27.547z"/>
	<path fill="#FFCDCC" d="M17.832,27.685c-0.149,0-0.288,0.007-0.413,0.017c-0.022,0.064-0.05,0.125-0.069,0.189
		c-0.134,0.451-0.229,0.919-0.298,1.391c0.182-0.098,0.357-0.184,0.529-0.26c3.219-1.439,4.783,0.547,5.559,2.132
		c0.214,0.438,0.369,0.845,0.48,1.139l0,0c0.287-0.056,0.572-0.113,0.853-0.168c0.09-0.018,0.177-0.044,0.266-0.063c0,0,0,0,0-0.001
		c-0.266-0.392-0.533-0.746-0.802-1.073C21.617,28.164,19.232,27.675,17.832,27.685z"/>
	<path fill="#FFCDCC" d="M27.106,29.804c-0.522-1.477-1.967-3.84-5.938-5.554c-0.093-0.038-0.187-0.078-0.281-0.116
		c-0.02,0.01-0.04,0.019-0.058,0.03c-0.053,0.028-0.104,0.056-0.154,0.085c-0.182,0.104-0.362,0.21-0.541,0.323
		c-0.061,0.038-0.119,0.072-0.177,0.107c0.075,0.035,0.156,0.072,0.241,0.111c1.662,0.774,4.983,2.34,6.32,5.299
		c0.181,0.4,0.324,0.826,0.424,1.278l0,0c0.045-0.018,0.092-0.034,0.137-0.053c0.044-0.018,0.091-0.034,0.134-0.052
		c0.031-0.013,0.062-0.028,0.093-0.042c0.033-0.014,0.065-0.029,0.099-0.043C27.404,31.159,27.394,30.616,27.106,29.804z"/>
	<path fill="#FFCDCC" d="M27.862,24.724c0.755,0.945,1.57,2.179,1.981,3.475c0.165,0.521,0.267,1.052,0.271,1.577
		c0.159-0.095,0.32-0.189,0.477-0.286c-0.032-0.475-0.137-1.053-0.302-1.673c-0.121-0.45-0.274-0.923-0.461-1.398
		c-0.344-0.88-0.797-1.764-1.349-2.522c-0.097-0.053-0.189-0.104-0.29-0.158c-0.004-0.003-0.009-0.004-0.014-0.007
		c-0.147-0.078-0.296-0.149-0.443-0.216c-0.048-0.021-0.096-0.041-0.143-0.061c-0.112-0.047-0.223-0.09-0.335-0.131
		c-0.048-0.017-0.095-0.034-0.144-0.051c-0.14-0.045-0.281-0.088-0.423-0.124c-0.013-0.004-0.026-0.008-0.039-0.012
		c-0.1-0.024-0.2-0.044-0.3-0.065c0.001,0.002,0.002,0.003,0.004,0.005C26.625,23.325,27.222,23.92,27.862,24.724z"/>
	<path fill="#E5DA15" d="M18.388,24.319c0.234,0.012,0.539-0.062,0.879-0.188c1.478-0.558,3.648-2.181,3.789-2.772
		c0.173-0.729-4.736-7.644-5.429-7.713c-0.691-0.069-5.116,3.051-5.324,4.396C12.095,19.385,17.419,24.274,18.388,24.319z
		 M12.789,17.649c0.155-1.01,3.478-3.352,3.996-3.299c0.52,0.052,4.203,5.241,4.073,5.788c-0.104,0.444-1.733,1.662-2.843,2.08
		c-0.256,0.097-0.484,0.15-0.659,0.142C16.63,22.326,12.633,18.656,12.789,17.649z"/>
	<path fill="#FFF13E" d="M18.016,22.218c1.109-0.418,2.738-1.636,2.843-2.08c0.13-0.547-3.554-5.736-4.073-5.788
		c-0.519-0.053-3.841,2.289-3.996,3.299c-0.156,1.008,3.841,4.678,4.567,4.711C17.531,22.368,17.76,22.315,18.016,22.218z"/>
	<path fill="#B7B17D" d="M16.351,24.221c-1.49-2.089-3.633-3.66-4.947-2.089c-2.29,2.738,1.24,8.512,2.831,8.512
		C16.351,30.644,17.542,25.892,16.351,24.221z M13.688,29.173c-1.234,0-3.972-4.479-2.196-6.604c1.019-1.219,2.682,0,3.837,1.621
		C16.254,25.486,15.329,29.173,13.688,29.173z"/>
	<path fill="#F7F2BA" d="M11.492,22.569c-1.776,2.125,0.961,6.604,2.196,6.604c1.642,0,2.566-3.688,1.642-4.983
		C14.174,22.569,12.511,21.35,11.492,22.569z"/>
	<path fill="#A0D179" d="M31.581,15.927c-0.718-1.071-1.864-2.172-2.889-2.975c-1.042-0.816-2.438-0.773-3.664-0.899
		c-1.182-0.121-2.369-0.143-3.531-0.271c-0.929-0.103-2.162,0.178-2.295,1.316c-0.139,1.19,1.404,3.053,2.071,4.005
		c0.628,0.896,1.399,2.12,2.217,2.854c0.477,0.429,1.053,0.614,1.606,0.896c0.643,0.328,0.926,0.942,1.644,1.075
		c0.596,0.111,1.203,0.033,1.762,0.274c0.504,0.219,0.733,0.68,1.175,0.968c0.583,0.381,1.075,0.004,1.717,0.243
		c0.541,0.201,0.95,0.637,1.516,0.815c1.161,0.367,2.212-0.435,2.216-1.664c0.004-1.153-0.688-2.4-1.384-3.318
		C32.933,18.178,32.334,17.052,31.581,15.927z M31.307,22.422c-0.444-0.141-0.766-0.481-1.188-0.64
		c-0.503-0.188-0.889,0.108-1.345-0.188c-0.347-0.228-0.526-0.588-0.921-0.76c-0.438-0.188-0.913-0.128-1.381-0.215
		c-0.562-0.105-0.784-0.586-1.288-0.843c-0.433-0.221-0.884-0.367-1.258-0.702c-0.641-0.575-1.245-1.534-1.736-2.235
		c-0.522-0.746-1.732-2.206-1.624-3.139c0.104-0.892,1.07-1.111,1.799-1.031c0.91,0.101,1.841,0.118,2.767,0.213
		c0.96,0.1,2.056,0.065,2.871,0.704c0.803,0.629,1.701,1.492,2.263,2.331c0.591,0.882,1.06,1.765,1.693,2.602
		c0.545,0.719,1.087,1.695,1.083,2.599C33.038,22.081,32.215,22.709,31.307,22.422z"/>
	<path fill="#C6EAA7" d="M30.265,15.917c-0.562-0.839-1.46-1.702-2.263-2.331c-0.815-0.639-1.911-0.604-2.871-0.704
		c-0.926-0.095-1.856-0.112-2.767-0.213c-0.729-0.08-1.694,0.14-1.799,1.031c-0.108,0.933,1.102,2.393,1.624,3.139
		c0.491,0.701,1.096,1.66,1.736,2.235c0.374,0.335,0.825,0.481,1.258,0.702c0.504,0.257,0.727,0.737,1.288,0.843
		c0.468,0.087,0.943,0.026,1.381,0.215c0.395,0.172,0.574,0.532,0.921,0.76c0.456,0.297,0.842,0.001,1.345,0.188
		c0.423,0.158,0.744,0.499,1.188,0.64c0.908,0.287,1.731-0.341,1.734-1.305c0.004-0.903-0.538-1.88-1.083-2.599
		C31.324,17.682,30.855,16.799,30.265,15.917z M23.793,17.008c-0.339-0.299-0.841-0.743-1.383-1.423
		c-0.262-0.347-0.568-0.732-0.716-1.299c-0.028-0.145-0.042-0.308,0.006-0.48c0.05-0.176,0.19-0.324,0.341-0.408
		c0.309-0.161,0.635-0.172,0.944-0.156c0.631,0.014,1.277,0.168,1.942,0.341c0.669,0.169,1.37,0.36,2.146,0.37
		c0,0-0.093,0.005-0.262,0.015c-0.086,0.004-0.191,0.015-0.313,0.015c-0.123-0.006-0.262-0.012-0.418-0.021
		c-0.311-0.023-0.681-0.074-1.093-0.146c-0.412-0.068-0.864-0.161-1.346-0.21c-0.241-0.033-0.488-0.037-0.741-0.04
		c-0.246,0.001-0.504,0.029-0.689,0.132c-0.088,0.054-0.153,0.115-0.179,0.207c-0.025,0.09-0.023,0.202-0.001,0.318
		c0.054,0.237,0.174,0.48,0.31,0.711c0.564,0.928,1.325,1.761,1.987,2.508C24.329,17.442,24.136,17.303,23.793,17.008z
		 M31.318,21.372c-0.079,0.097-0.208,0.156-0.317,0.167c-0.113,0.019-0.216,0.007-0.315-0.009c-0.199-0.036-0.379-0.102-0.557-0.175
		c-0.176-0.072-0.348-0.158-0.516-0.238c-0.172-0.075-0.346-0.152-0.521-0.229c-1.396-0.628-2.901-1.337-4.159-2.497
		c0,0,0.162,0.126,0.46,0.354c0.149,0.113,0.346,0.234,0.567,0.385c0.23,0.138,0.491,0.301,0.794,0.458
		c0.6,0.326,1.349,0.661,2.206,1.009c0.215,0.086,0.435,0.175,0.661,0.266c0.235,0.096,0.453,0.203,0.688,0.287
		c0.227,0.078,0.488,0.156,0.68,0.108c0.171-0.033,0.214-0.26,0.16-0.509c-0.271-1.012-0.913-2.019-1.775-2.816
		c-0.424-0.411-0.916-0.761-1.421-1.094l-0.39-0.234c-0.131-0.078-0.276-0.167-0.402-0.25l-0.778-0.506
		c-0.262-0.164-0.525-0.319-0.794-0.46c-0.268-0.135-0.55-0.266-0.817-0.305c-0.277-0.05-0.433,0.089-0.356,0.348
		c0.073,0.253,0.257,0.504,0.44,0.729c0.19,0.226,0.389,0.451,0.622,0.625l0.336,0.277c0.12,0.08,0.247,0.146,0.37,0.222
		c0.494,0.299,1.05,0.449,1.587,0.581c0,0-0.13-0.022-0.381-0.065c-0.256-0.033-0.625-0.135-1.094-0.321
		c-0.113-0.058-0.233-0.117-0.359-0.181c-0.062-0.033-0.129-0.063-0.193-0.101c-0.061-0.044-0.121-0.09-0.185-0.136
		c-0.126-0.094-0.26-0.191-0.396-0.295c-0.129-0.112-0.258-0.237-0.386-0.373c-0.128-0.135-0.255-0.282-0.373-0.449
		c-0.113-0.169-0.235-0.354-0.263-0.609c-0.012-0.062,0.005-0.135,0.017-0.202c0.032-0.065,0.062-0.139,0.118-0.184
		c0.099-0.109,0.259-0.147,0.386-0.153c0.264-0.003,0.495,0.081,0.726,0.168c0.917,0.37,1.758,1.026,2.767,1.593
		c0.986,0.631,2.004,1.479,2.707,2.689c0.099,0.144,0.156,0.312,0.236,0.47c0.08,0.161,0.15,0.318,0.21,0.489
		c0.062,0.17,0.117,0.348,0.146,0.541C31.473,20.934,31.487,21.171,31.318,21.372z"/>
	<path fill="#6D9947" d="M22.032,14.223c-0.022-0.116-0.024-0.229,0.001-0.318c0.025-0.092,0.091-0.153,0.179-0.207
		c0.186-0.103,0.443-0.131,0.689-0.132c0.253,0.003,0.5,0.007,0.741,0.04c0.481,0.049,0.934,0.142,1.346,0.21
		c0.412,0.071,0.782,0.122,1.093,0.146c0.156,0.009,0.295,0.015,0.418,0.021c0.122,0,0.228-0.011,0.313-0.015
		c0.169-0.01,0.262-0.015,0.262-0.015c-0.776-0.01-1.478-0.201-2.146-0.37c-0.665-0.173-1.312-0.327-1.942-0.341
		c-0.31-0.016-0.636-0.005-0.944,0.156c-0.15,0.084-0.291,0.232-0.341,0.408c-0.048,0.173-0.034,0.336-0.006,0.48
		c0.147,0.566,0.454,0.952,0.716,1.299c0.542,0.68,1.044,1.124,1.383,1.423c0.343,0.295,0.536,0.434,0.536,0.434
		c-0.662-0.747-1.423-1.58-1.987-2.508C22.206,14.703,22.086,14.46,22.032,14.223z"/>
	<path fill="#6D9947" d="M31.306,20.205c-0.06-0.171-0.13-0.328-0.21-0.489c-0.08-0.157-0.138-0.326-0.236-0.47
		c-0.703-1.211-1.721-2.059-2.707-2.689c-1.009-0.566-1.85-1.223-2.767-1.593c-0.23-0.087-0.462-0.171-0.726-0.168
		c-0.127,0.006-0.287,0.044-0.386,0.153c-0.057,0.045-0.086,0.118-0.118,0.184c-0.012,0.067-0.028,0.141-0.017,0.202
		c0.027,0.256,0.149,0.44,0.263,0.609c0.118,0.167,0.245,0.314,0.373,0.449c0.128,0.136,0.257,0.261,0.386,0.373
		c0.137,0.104,0.271,0.201,0.396,0.295c0.063,0.046,0.124,0.092,0.185,0.136c0.064,0.037,0.131,0.067,0.193,0.101
		c0.126,0.063,0.246,0.123,0.359,0.181c0.469,0.187,0.838,0.288,1.094,0.321c0.251,0.043,0.381,0.065,0.381,0.065
		c-0.537-0.132-1.093-0.282-1.587-0.581c-0.123-0.075-0.25-0.142-0.37-0.222l-0.336-0.277c-0.233-0.174-0.432-0.399-0.622-0.625
		c-0.184-0.225-0.367-0.476-0.44-0.729c-0.076-0.259,0.079-0.397,0.356-0.348c0.268,0.039,0.55,0.17,0.817,0.305
		c0.269,0.141,0.532,0.296,0.794,0.46l0.778,0.506c0.126,0.083,0.271,0.172,0.402,0.25l0.39,0.234
		c0.505,0.333,0.997,0.683,1.421,1.094c0.862,0.798,1.505,1.805,1.775,2.816c0.054,0.249,0.011,0.476-0.16,0.509
		c-0.191,0.048-0.453-0.03-0.68-0.108c-0.234-0.084-0.452-0.191-0.688-0.287c-0.227-0.091-0.446-0.18-0.661-0.266
		c-0.857-0.348-1.606-0.683-2.206-1.009c-0.303-0.157-0.563-0.32-0.794-0.458c-0.222-0.15-0.418-0.271-0.567-0.385
		c-0.298-0.229-0.46-0.354-0.46-0.354c1.258,1.16,2.764,1.869,4.159,2.497c0.176,0.077,0.35,0.154,0.521,0.229
		c0.168,0.08,0.34,0.166,0.516,0.238c0.178,0.073,0.357,0.139,0.557,0.175c0.1,0.016,0.202,0.027,0.315,0.009
		c0.109-0.011,0.238-0.07,0.317-0.167c0.169-0.201,0.154-0.438,0.133-0.626C31.423,20.553,31.368,20.375,31.306,20.205z"/>
</g>
</svg>
