<?xml version="1.0" encoding="utf-8"?>
<!-- Generator: Adobe Illustrator 16.0.0, SVG Export Plug-In . SVG Version: 6.00 Build 0)  -->
<!DOCTYPE svg PUBLIC "-//W3C//DTD SVG 1.1//EN" "http://www.w3.org/Graphics/SVG/1.1/DTD/svg11.dtd">
<svg version="1.1" id="Layer_1" xmlns="http://www.w3.org/2000/svg" xmlns:xlink="http://www.w3.org/1999/xlink" x="0px" y="0px"
	 width="45.734px" height="40.379px" viewBox="3.073 0 45.734 40.379" enable-background="new 3.073 0 45.734 40.379"
	 xml:space="preserve">
<path fill="#D9F3F9" d="M48.573,5.448c0,0,0.882,2.646-0.787,4.62c0,0,1.138,1.745-0.38,2.959c0,0,0.987,2.352-0.531,3.491
	c0,0,0.911,2.2-0.683,2.959c0,0,1.214,2.136-0.456,3.65c0,0,0.912,1.208-0.834,2.347c0,0,0.91,1.745,0,2.503
	c0,0,1.062,1.139-0.38,2.049c0,0,0.986,1.596-0.303,2.429c0,0,0.91,1.594-0.606,2.428c0,0,0.398,1.324-1.139,1.821
	c0,0-2.125,2.049-3.112,0.533c-0.986-1.52,1.411-23.256,1.957-25.553C41.868,9.385,46.25,6.065,48.573,5.448"/>
<path fill="#D9F3F9" d="M4.607,5.666c0,0-0.987,2.883,0.606,4.326c0,0-1.062,2.049,0,3.036c0,0-0.834,1.746,0.379,2.884
	c0,0-1.062,1.973,0.304,3.035c0,0-0.607,2.125,0.455,2.808c0,0-0.911,2.354,0.759,3.415c0,0-1.822,1.974,0.683,4.022
	c0,0-1.139,2.047,0.456,2.884c0,0-1.062,2.428,0.607,3.416c0,0-0.684,1.971,1.365,2.198c0,0,0.684,1.366,2.126,0.761
	c0,0,0.606,1.593,3.187,0.984c0,0,1.138,1.669,3.263,0.684c0,0,1.821,1.611,3.49,0.312c0,0,1.897,1.703,3.566,0.507
	c0,0,1.897,1.079,3.188-0.137c0,0,1.745,1.216,3.035-0.227c0,0,2.731,0.454,3.492-1.14c0,0,2.048,0.761,3.11-0.833
	c0,0,2.656-0.76,2.276-1.898c0,0,1.517-1.212,0.038-2.276c0,0,2.318-1.518,0.646-2.731c0,0,1.592-2.125-0.305-2.731
	c0,0,1.973-1.519,0.532-2.429c0,0,1.213-1.518-0.229-2.58c0,0,1.898-1.593,0.305-2.807c0,0,1.517-0.911,0.151-1.975
	c0,0,1.82-1.518-0.227-3.112c0,0,1.805-2.337,0-3.035c0,0,0.909-1.973-0.306-2.656c-1.213-0.683-14.19,3.87-20.716,0.987
	C14.32,8.475,6.2,2.783,4.607,5.666"/>
<path fill="#FFFFFF" d="M5.816,5.22c0,0-0.881,2.573,0.542,3.86c0,0-0.948,1.83,0,2.71c0,0-0.745,1.557,0.339,2.574
	c0,0-0.948,1.76,0.271,2.708c0,0-0.542,1.898,0.407,2.506c0,0-0.813,2.101,0.677,3.049c0,0-1.625,1.761,0.61,3.588
	c0,0-1.016,1.83,0.407,2.574c0,0-0.949,2.169,0.541,3.049c0,0-0.609,1.761,1.22,1.964c0,0,0.609,1.22,1.896,0.677
	c0,0,0.542,1.423,2.845,0.881c0,0,1.016,1.49,2.913,0.609c0,0,1.625,1.437,3.115,0.278c0,0,1.694,1.521,3.184,0.453
	c0,0,1.693,0.963,2.845-0.121c0,0,1.558,1.084,2.708-0.204c0,0,2.439,0.407,3.116-1.016c0,0,1.829,0.677,2.777-0.744
	c0,0,2.37-0.677,2.031-1.694c0,0,1.354-1.083,0.034-2.03c0,0,2.069-1.356,0.577-2.439c0,0,1.421-1.896-0.272-2.438
	c0,0,1.761-1.355,0.475-2.167c0,0,1.083-1.355-0.203-2.305c0,0,1.693-1.421,0.271-2.505c0,0,1.354-0.813,0.136-1.762
	c0,0,1.625-1.354-0.203-2.777c0,0,1.611-2.087,0-2.708c0,0,0.812-1.762-0.271-2.371C37.718,8.811,26.135,12.874,20.31,10.3
	C14.485,7.726,7.238,2.646,5.816,5.22"/>
<path fill="#85C2CC" d="M34.382,21.582c0.006-0.01,0.142,0.216,0.494,0.356c0.349,0.131,0.933,0.053,1.363-0.362
	c0.11-0.095,0.199-0.217,0.274-0.348c0.039-0.063,0.061-0.137,0.094-0.205l0.027-0.111l0.015-0.055l0.003-0.015l0.006-0.046
	l0.006-0.068l0.022-0.27l0.006-0.067l0.003-0.034c0-0.014,0.001-0.025,0.015-0.014l0.117,0.063l0.242,0.133
	c0.109,0.05,0.115,0.046,0.158,0.065c0.151,0.044,0.315,0.079,0.483,0.081c0.331,0.01,0.683-0.053,0.953-0.22
	c0.279-0.155,0.419-0.464,0.381-0.788c0,0,0.013,0.034,0.036,0.105c0.027,0.071,0.051,0.186,0.031,0.339
	c-0.02,0.322-0.402,0.738-0.997,0.863c-0.294,0.064-0.64,0.082-1.009-0.026c-0.132-0.05-0.079-0.028-0.091-0.033l0,0
	c0.005-0.021,0-0.006-0.004,0.011l-0.02,0.076c-0.018,0.052-0.026,0.105-0.05,0.155c-0.047,0.098-0.087,0.202-0.156,0.291
	c-0.246,0.373-0.666,0.65-1.149,0.724c-0.237,0.038-0.498,0.014-0.726-0.093C34.683,21.985,34.498,21.8,34.382,21.582"/>
<path fill="#85C2CC" d="M33.977,23.283c0.002-0.007,0.104,0.059,0.276,0.103c0.172,0.05,0.419,0.054,0.657-0.063
	c0.242-0.105,0.466-0.33,0.65-0.581c0.181-0.261,0.319-0.552,0.411-0.854c0,0,0.028,0.069,0.052,0.217
	c0.017,0.146,0.017,0.374-0.086,0.644c-0.104,0.266-0.309,0.588-0.691,0.791c-0.187,0.104-0.43,0.153-0.667,0.113
	C34.339,23.612,34.124,23.471,33.977,23.283"/>
<path fill="#85C2CC" d="M26.123,32.161c0,0,0.049,0.031,0.141,0.084c0.089,0.055,0.226,0.127,0.404,0.187
	c0.341,0.134,0.91,0.19,1.366-0.146c0.223-0.164,0.405-0.411,0.531-0.701c0.028-0.072,0.065-0.144,0.086-0.223l0.072-0.231
	l0.038-0.126c0.005-0.007,0.003-0.025,0.014-0.023l0.029,0.011l0.062,0.023c0.085,0.031,0.161,0.063,0.249,0.09l0.111,0.03
	c0.076,0.012,0.154,0.029,0.234,0.031c0.316,0.023,0.653-0.034,0.91-0.189c0.124-0.081,0.225-0.188,0.279-0.322
	c0.06-0.137,0.047-0.294,0.029-0.447c-0.015,0.002,0.103,0.12,0.104,0.424c-0.002,0.147-0.072,0.35-0.243,0.508
	c-0.169,0.16-0.411,0.278-0.697,0.338c-0.145,0.033-0.3,0.044-0.465,0.039c-0.083-0.006-0.166-0.015-0.253-0.029l-0.113-0.027
	l-0.002,0.002c-0.001,0.006,0.004-0.008-0.003,0.016c-0.024,0.088-0.066,0.175-0.103,0.263c-0.079,0.177-0.191,0.348-0.326,0.508
	c-0.28,0.318-0.729,0.549-1.205,0.523C26.901,32.746,26.459,32.505,26.123,32.161"/>
<path fill="#85C2CC" d="M31.984,27.493c0.004-0.009,0.101,0.058,0.277,0.079c0.173,0.028,0.418,0.009,0.673-0.093
	c0.517-0.206,1.041-0.679,1.216-1.267c0,0,0.028,0.067,0.049,0.216c0.009,0.145-0.012,0.378-0.157,0.632
	c-0.143,0.249-0.407,0.516-0.791,0.665c-0.192,0.072-0.416,0.108-0.647,0.085C32.373,27.785,32.133,27.68,31.984,27.493"/>
<path fill="#85C2CC" d="M30.326,31.133c0,0,0.12,0.031,0.316,0.084c0.197,0.051,0.469,0.129,0.774,0.184
	c0.303,0.05,0.641,0.068,0.952-0.018c0.312-0.082,0.607-0.265,0.877-0.468c0,0-0.025,0.076-0.098,0.215
	c-0.078,0.132-0.211,0.333-0.482,0.492c-0.264,0.17-0.674,0.248-1.097,0.155C31.147,31.687,30.735,31.45,30.326,31.133"/>
<path fill="#85C2CC" d="M34.995,28.856c0,0,0.036,0.01,0.101,0.029c0.065,0.019,0.156,0.052,0.276,0.067
	c0.233,0.044,0.568,0.051,0.913-0.065c0.348-0.107,0.684-0.354,0.948-0.668c0.259-0.323,0.442-0.711,0.559-1.101
	c-0.021-0.01,0.159,0.407-0.153,1.094c-0.161,0.325-0.478,0.707-0.982,0.904C36.162,29.326,35.478,29.254,34.995,28.856"/>
<path fill="#85C2CC" d="M36.642,26.578c0,0,0.074-0.005,0.195-0.013c0.116-0.014,0.271-0.058,0.419-0.146
	c0.079-0.034,0.144-0.109,0.222-0.156c0.056-0.074,0.144-0.124,0.192-0.209c0.135-0.147,0.199-0.322,0.293-0.521
	c0,0,0.029,0.04,0.062,0.138c0.043,0.098,0.048,0.257-0.008,0.452c-0.072,0.184-0.214,0.416-0.484,0.535
	C37.281,26.784,36.899,26.797,36.642,26.578"/>
<path fill="#85C2CC" d="M21.397,35.633c0.004-0.009,0.126,0.066,0.349,0.122c0.22,0.062,0.538,0.102,0.89,0.062
	c0.353-0.036,0.734-0.165,1.05-0.384c0.315-0.22,0.543-0.549,0.676-0.915c0,0,0.014,0.089,0.016,0.273
	c-0.021,0.174-0.071,0.462-0.306,0.744c-0.23,0.276-0.634,0.533-1.137,0.59C22.441,36.188,21.823,36.058,21.397,35.633"/>
<path fill="#85C2CC" d="M33.062,36.77c0.003-0.006,0.104,0.046,0.284,0.068c0.176,0.027,0.426,0.031,0.693-0.038
	c0.268-0.062,0.55-0.195,0.754-0.398c0.209-0.195,0.313-0.478,0.325-0.79c0,0,0.041,0.06,0.102,0.197
	c0.037,0.134,0.084,0.38-0.057,0.656c-0.136,0.27-0.441,0.535-0.846,0.619C33.93,37.182,33.406,37.112,33.062,36.77"/>
<path fill="#85C2CC" d="M37.209,33.807c0,0,0.039,0.002,0.107,0.006c0.035,0.001,0.077,0.003,0.125,0.006
	c0.05-0.005,0.104-0.01,0.167-0.016c0.244-0.031,0.579-0.135,0.918-0.331c0.336-0.196,0.687-0.479,0.912-0.835
	c0.246-0.347,0.283-0.774,0.124-1.17c0,0,0.073,0.063,0.193,0.225c0.1,0.164,0.209,0.484,0.088,0.874
	c-0.117,0.382-0.428,0.788-0.901,1.057c-0.23,0.141-0.509,0.244-0.808,0.292C37.838,33.963,37.497,33.954,37.209,33.807"/>
<path fill="#85C2CC" d="M39.225,33.149c0,0,0.047,0.114,0.1,0.316c0.052,0.198,0.116,0.49,0.081,0.843
	c-0.021,0.348-0.216,0.775-0.559,1.01c-0.335,0.245-0.73,0.327-1.069,0.318c0,0,0.069-0.051,0.198-0.127
	c0.128-0.078,0.318-0.189,0.521-0.352c0.204-0.162,0.405-0.377,0.53-0.709C39.156,34.119,39.195,33.668,39.225,33.149"/>
<path fill="#85C2CC" d="M15.477,27.893c0,0,0.038,0.013,0.106,0.038c0.067,0.027,0.162,0.071,0.291,0.089
	c0.25,0.057,0.613,0.051,0.982-0.101c0.753-0.281,1.463-1.116,1.528-1.986c0,0,0.04,0.094,0.074,0.297
	c0.023,0.201,0.011,0.521-0.164,0.888c-0.174,0.356-0.504,0.766-1.033,1.001c-0.258,0.125-0.572,0.188-0.894,0.163
	C16.047,28.257,15.72,28.122,15.477,27.893"/>
<path fill="#85C2CC" d="M17.525,27.777c0,0,0.037,0.015,0.103,0.04c0.068,0.023,0.158,0.073,0.283,0.104
	c0.238,0.081,0.592,0.157,0.965,0.09c0.375-0.055,0.74-0.282,1.001-0.624c0.259-0.342,0.431-0.77,0.557-1.178
	c-0.024-0.006,0.15,0.419-0.146,1.148c-0.148,0.348-0.494,0.78-1.062,0.926c-0.276,0.073-0.592,0.073-0.886-0.026
	C18.044,28.163,17.768,27.994,17.525,27.777"/>
<path fill="#85C2CC" d="M25.556,20.668c0.004-0.007,0.099,0.075,0.271,0.144c0.171,0.075,0.427,0.103,0.682-0.001
	c0.524-0.212,0.996-0.83,1.208-1.429c0,0,0.025,0.074,0.039,0.228c0.004,0.154-0.017,0.39-0.146,0.662
	c-0.129,0.264-0.363,0.581-0.77,0.77c-0.199,0.095-0.458,0.133-0.703,0.072C25.893,21.054,25.685,20.879,25.556,20.668"/>
<path fill="#85C2CC" d="M27.197,20.661c0.001-0.006,0.104,0.028,0.273,0.032c0.168,0.01,0.397-0.02,0.638-0.112
	c0.492-0.18,0.996-0.605,1.438-0.989c0,0-0.009,0.072-0.053,0.203c-0.045,0.126-0.135,0.311-0.305,0.51
	c-0.168,0.193-0.422,0.413-0.784,0.533C28.052,20.965,27.547,20.954,27.197,20.661"/>
<path fill="#85C2CC" d="M15.2,36.436c0,0,0.03,0.023,0.083,0.067c0.056,0.042,0.124,0.117,0.232,0.177
	c0.199,0.142,0.516,0.291,0.882,0.287c0.366,0.01,0.76-0.153,1.099-0.41c0.333-0.265,0.612-0.61,0.833-0.965
	c0,0-0.008,0.098-0.045,0.289c-0.055,0.182-0.146,0.463-0.387,0.759c-0.237,0.281-0.64,0.607-1.208,0.657
	c-0.278,0.027-0.589-0.029-0.853-0.188C15.571,36.952,15.356,36.712,15.2,36.436"/>
<path fill="#85C2CC" d="M19.926,38.885c0.005-0.006,0.093,0.107,0.272,0.228c0.174,0.131,0.463,0.228,0.778,0.158
	c0.318-0.054,0.64-0.276,0.91-0.542c0.265-0.276,0.473-0.611,0.597-0.966c0,0,0.02,0.087,0.024,0.265
	c-0.01,0.173-0.051,0.443-0.229,0.741c-0.175,0.289-0.486,0.624-0.978,0.775c-0.241,0.076-0.541,0.073-0.803-0.044
	C20.232,39.382,20.035,39.147,19.926,38.885"/>
<path fill="#85C2CC" d="M22.434,37.753c0.006-0.005,0.059,0.103,0.194,0.213c0.13,0.115,0.353,0.198,0.621,0.179
	c0.268-0.013,0.571-0.118,0.856-0.257c0.289-0.14,0.559-0.311,0.771-0.535c0,0-0.002,0.019-0.008,0.056
	c-0.009,0.034-0.012,0.096-0.044,0.161c-0.05,0.14-0.176,0.33-0.394,0.512c-0.218,0.177-0.534,0.358-0.953,0.39
	c-0.205,0.021-0.446-0.016-0.655-0.139C22.61,38.214,22.465,37.987,22.434,37.753"/>
<path fill="#85C2CC" d="M15.42,21.574c0,0,0.03,0.011,0.085,0.029c0.057,0.016,0.132,0.057,0.234,0.071
	c0.199,0.052,0.488,0.074,0.771-0.032c0.288-0.096,0.554-0.332,0.767-0.616c0.207-0.291,0.361-0.628,0.48-0.964
	c0,0,0.02,0.082,0.036,0.247c0.001,0.163-0.004,0.415-0.127,0.714c-0.123,0.289-0.366,0.654-0.811,0.85
	c-0.218,0.1-0.486,0.138-0.745,0.08C15.851,21.901,15.614,21.762,15.42,21.574"/>
<path fill="#85C2CC" d="M24.352,26.297c0,0,0.107,0.025,0.285,0.068c0.176,0.041,0.423,0.083,0.697,0.085
	c0.56,0.024,1.151-0.241,1.652-0.6c0,0-0.024,0.067-0.091,0.193c-0.035,0.062-0.074,0.144-0.141,0.222
	c-0.072,0.077-0.16,0.162-0.265,0.253c-0.228,0.148-0.562,0.31-0.963,0.276C25.132,26.778,24.702,26.609,24.352,26.297"/>
<path fill="#85C2CC" d="M8.599,16.062c0.005-0.004,0.083,0.088,0.238,0.195c0.152,0.108,0.388,0.219,0.67,0.25
	c0.574,0.077,1.27-0.188,1.83-0.506c0,0-0.031,0.073-0.117,0.198c-0.089,0.121-0.242,0.292-0.495,0.442
	c-0.25,0.144-0.612,0.277-1.043,0.229C9.255,16.841,8.772,16.536,8.599,16.062"/>
<path fill="#1D1D1B" d="M23.199,16.139c-0.813-0.077-1.211,0.515-0.57,1.038c0.683,0.556,1.455,0.794,2.278,0.953
	c0.327,0.062,0.59,0.237,0.779-0.137c0.133-0.265-0.128-0.733-0.315-0.915C24.938,16.656,23.773,16.193,23.199,16.139"/>
<path fill="#1D1D1B" d="M27.285,37.854c-0.472,0.546-0.25,1.135,0.455,0.942c0.75-0.206,1.317-0.642,1.853-1.153
	c0.211-0.202,0.472-0.304,0.299-0.632c-0.122-0.231-0.595-0.283-0.819-0.241C28.548,36.867,27.617,37.47,27.285,37.854"/>
<path fill="#1D1D1B" d="M31.317,25.026c-0.349,0.405-0.184,0.841,0.336,0.697c0.556-0.151,0.976-0.474,1.371-0.852
	c0.156-0.149,0.351-0.225,0.222-0.468c-0.091-0.171-0.44-0.209-0.606-0.179C32.25,24.299,31.563,24.744,31.317,25.026"/>
<path fill="#1D1D1B" d="M11.169,22.97c-0.174,0.609,0.219,0.997,0.708,0.585c0.521-0.443,0.813-0.996,1.051-1.602
	c0.094-0.238,0.265-0.414,0.006-0.611c-0.183-0.141-0.578-0.008-0.742,0.108C11.811,21.722,11.292,22.542,11.169,22.97"/>
<path fill="#1D1D1B" d="M46.462,18.771c-0.388,0.515-0.155,1.026,0.462,0.812c0.656-0.229,1.136-0.649,1.582-1.138
	c0.177-0.192,0.404-0.298,0.23-0.58c-0.123-0.199-0.547-0.217-0.745-0.166C47.53,17.817,46.736,18.409,46.462,18.771"/>
<path fill="#1D1D1B" d="M44.224,31.952c0.411,0.481,0.952,0.366,0.876-0.271c-0.081-0.678-0.383-1.226-0.758-1.757
	c-0.148-0.211-0.201-0.451-0.507-0.344c-0.218,0.078-0.324,0.479-0.318,0.68C43.532,30.729,43.933,31.615,44.224,31.952"/>
<path fill="#1D1D1B" d="M6.232,24.176c0.412,0.481,0.952,0.366,0.876-0.271c-0.081-0.677-0.382-1.226-0.757-1.756
	c-0.148-0.211-0.201-0.451-0.508-0.344c-0.217,0.076-0.323,0.479-0.316,0.679C5.541,22.952,5.942,23.838,6.232,24.176"/>
<path fill="#1D1D1B" d="M44.309,13.993c0.573,0.268,1.018-0.061,0.686-0.608c-0.354-0.585-0.855-0.959-1.415-1.289
	c-0.222-0.129-0.37-0.327-0.603-0.103c-0.168,0.16-0.1,0.569-0.01,0.75C43.174,13.163,43.905,13.805,44.309,13.993"/>
<path fill="#1D1D1B" d="M18.007,23.006c-0.443,0.535-0.217,1.1,0.458,0.897c0.719-0.215,1.256-0.645,1.761-1.15
	c0.2-0.199,0.45-0.302,0.275-0.614c-0.123-0.221-0.578-0.261-0.795-0.217C19.202,22.027,18.319,22.628,18.007,23.006"/>
<path fill="#1D1D1B" d="M10.611,31.139c-0.365,0.569-0.08,1.088,0.548,0.813c0.669-0.293,1.137-0.771,1.566-1.319
	c0.17-0.217,0.399-0.346,0.195-0.626c-0.146-0.198-0.59-0.184-0.794-0.114C11.653,30.054,10.869,30.736,10.611,31.139"/>
<path fill="#1D1D1B" d="M38.302,16.189c0.552,0.072,0.839-0.323,0.413-0.694c-0.454-0.396-0.974-0.576-1.533-0.703
	c-0.221-0.051-0.396-0.177-0.533,0.075c-0.099,0.178,0.069,0.504,0.192,0.631C37.127,15.795,37.911,16.14,38.302,16.189"/>
<path fill="#1D1D1B" d="M17.511,33.295c0.449-0.33,0.105-1.09-0.459-1.064c-0.601,0.027-1.103,0.257-1.594,0.552
	c-0.194,0.117-0.13,0.424-0.056,0.7c0.052,0.196,0.399,0.314,0.576,0.322C16.391,33.822,17.195,33.526,17.511,33.295"/>
<path fill="#1D1D1B" d="M44.973,23.511c0.556-0.021,0.696-0.845,0.215-1.14c-0.512-0.314-1.057-0.405-1.629-0.435
	c-0.225-0.015-0.346,0.275-0.438,0.546c-0.066,0.193,0.152,0.485,0.296,0.593C43.748,23.318,44.579,23.525,44.973,23.511"/>
<path fill="#1D1D1B" d="M9.648,15.461c0.517-0.211,0.368-1.031-0.185-1.144c-0.59-0.121-1.132-0.02-1.681,0.146
	c-0.217,0.065-0.23,0.379-0.225,0.666c0.003,0.202,0.31,0.403,0.48,0.454C8.433,15.699,9.285,15.61,9.648,15.461"/>
<path fill="#1D1D1B" d="M28.026,23.812c0.491-0.431,0.18-1.146-0.412-1.006c-0.63,0.151-1.17,0.489-1.704,0.894
	c-0.21,0.161-0.164,0.464-0.104,0.736c0.043,0.191,0.397,0.246,0.583,0.217C26.818,24.586,27.679,24.12,28.026,23.812"/>
<path fill="#D9F3F9" d="M28.283-1.012c0,0-1.593-1.442-2.731,0c0,0-1.821-1.593-3.415,0c0,0-2.959-1.442-4.25,0.607
	c0,0-2.124-1.214-3.491,0.303c0,0-2.731-1.138-4.174,0.987c0,0-1.821-0.304-2.579,0.986c0,0-2.504,0.379-2.201,2.353
	c0,0-1.518,0.607-1.29,2.124C4.38,7.867,6.2,7.563,6.2,7.563s0.152,2.58,2.808,2.58c0,0,0.987,2.201,3.491,1.594
	c0,0,1.139,1.593,2.733,0.607c0,0,1.669,2.277,3.946,0.986c0,0,1.214,1.855,3.946,0.396c0,0,0.91,1.957,3.642,0.212
	c0,0,1.745,2.276,4.098,0c0,0,2.656,1.441,3.945-0.456c0,0,2.126,0.531,3.339-1.139c0,0,2.429,0.684,3.796-1.366
	c0,0,3.187,0.759,3.717-2.125c0,0,2.809-0.076,2.05-1.745c1.67-0.987,0.759-4.099-1.29-3.946c0,0-0.53-2.733-3.188-1.594
	c0,0-1.138-2.428-3.491-1.214c0,0-1.624-2.461-3.672-1.095c0,0-1.867-1.789-4.296,0.033C31.774-0.708,30.181-2.226,28.283-1.012"/>
<path fill="#FFFFFF" d="M28.103-0.49c0,0-1.444-1.307-2.476,0c0,0-1.65-1.443-3.095,0c0,0-2.681-1.307-3.85,0.55
	c0,0-1.926-1.1-3.163,0.275c0,0-2.475-1.032-3.781,0.894c0,0-1.651-0.275-2.338,0.894c0,0-2.269,0.344-1.994,2.131
	c0,0-1.375,0.55-1.169,1.926c0.207,1.375,1.857,1.1,1.857,1.1s0.137,2.337,2.544,2.337c0,0,0.894,1.995,3.164,1.444
	c0,0,1.032,1.445,2.476,0.551c0,0,1.513,2.062,3.575,0.894c0,0,1.101,1.68,3.576,0.358c0,0,0.825,1.773,3.3,0.192
	c0,0,1.582,2.062,3.713,0c0,0,2.407,1.307,3.576-0.412c0,0,1.925,0.481,3.024-1.032c0,0,2.201,0.618,3.439-1.238
	c0,0,2.888,0.688,3.368-1.924c0,0,2.545-0.069,1.856-1.583c1.514-0.894,0.688-3.712-1.168-3.575c0,0-0.481-2.476-2.889-1.445
	c0,0-1.031-2.2-3.163-1.1c0,0-1.471-2.23-3.328-0.992c0,0-1.691-1.621-3.891,0.029C31.266-0.215,29.822-1.59,28.103-0.49"/>
<path fill="#FFFFFF" d="M28.103-0.49c0,0-1.444-1.307-2.476,0c0,0-1.65-1.443-3.095,0c0,0-2.681-1.307-3.85,0.55
	c0,0-1.926-1.1-3.163,0.275c0,0-2.475-1.032-3.781,0.894c0,0-1.651-0.275-2.338,0.894c0,0-2.269,0.344-1.994,2.131
	c0,0-1.375,0.55-1.169,1.926c0.207,1.375,1.857,1.1,1.857,1.1s0.137,2.337,2.544,2.337c0,0,0.894,1.995,3.164,1.444
	c0,0,1.032,1.445,2.476,0.551c0,0,1.513,2.062,3.575,0.894c0,0,1.101,1.68,3.576,0.358c0,0,0.825,1.773,3.3,0.192
	c0,0,1.582,2.062,3.713,0c0,0,2.407,1.307,3.576-0.412c0,0,1.925,0.481,3.024-1.032c0,0,2.201,0.618,3.439-1.238
	c0,0,2.888,0.688,3.368-1.924c0,0,2.545-0.069,1.856-1.583c1.514-0.894,0.688-3.712-1.168-3.575c0,0-0.481-2.476-2.889-1.445
	c0,0-1.031-2.2-3.163-1.1c0,0-1.471-2.23-3.328-0.992c0,0-1.691-1.621-3.891,0.029C31.266-0.215,29.822-1.59,28.103-0.49"/>
<path fill="#85C2CC" d="M28.463,11.228c0,0,0.035-0.062,0.1-0.172c0.07-0.109,0.188-0.259,0.373-0.41
	c0.363-0.299,1.052-0.571,1.834-0.407c0.19,0.049,0.389,0.112,0.571,0.219c0.093,0.05,0.183,0.109,0.266,0.179l0.064,0.051
	l0.017,0.013c-0.017-0.013-0.006-0.004-0.01-0.007h0.001h0.002v-0.004c0.063-0.094,0.118-0.197,0.201-0.28
	c0.147-0.179,0.347-0.31,0.551-0.41c0.845-0.388,1.846-0.097,2.343,0.479c0,0-0.039-0.024-0.114-0.068
	c-0.072-0.046-0.189-0.104-0.343-0.163c-0.302-0.112-0.796-0.226-1.368-0.076c-0.283,0.072-0.574,0.227-0.791,0.486
	c-0.061,0.06-0.098,0.139-0.148,0.211c-0.043,0.079-0.084,0.181-0.127,0.273l-0.064,0.141c-0.012,0.016-0.018,0.065-0.036,0.055
	l-0.053-0.058c-0.357-0.388-0.424-0.425-0.616-0.545c-0.354-0.206-0.811-0.307-1.297-0.256
	C29.34,10.539,28.817,10.754,28.463,11.228"/>
<path fill="#85C2CC" d="M33.979,12.497c0.011,0-0.033-0.113,0.005-0.31c0.031-0.195,0.188-0.467,0.464-0.641
	c0.535-0.357,1.436-0.374,1.915,0.066c0,0-0.074-0.005-0.213-0.015c-0.133-0.006-0.324-0.004-0.558,0.016
	c-0.233,0.023-0.514,0.059-0.819,0.152C34.483,11.867,34.116,12.017,33.979,12.497"/>
<path fill="#85C2CC" d="M38.954,10.142c0.01-0.002-0.069-0.105-0.101-0.322c-0.046-0.213,0.053-0.57,0.33-0.808
	c0.55-0.475,1.43-0.612,2.08-0.451c0,0-0.078,0.031-0.221,0.078C40.905,8.684,40.7,8.75,40.442,8.833
	c-0.254,0.083-0.563,0.178-0.885,0.333C39.401,9.249,39.242,9.347,39.12,9.5C38.997,9.649,38.935,9.879,38.954,10.142"/>
<path fill="#85C2CC" d="M9.531,5.689c0,0,0.035-0.002,0.097-0.007C9.691,5.675,9.784,5.667,9.9,5.68
	c0.23,0.015,0.566,0.098,0.885,0.316c0.322,0.212,0.609,0.562,0.769,0.965c0.163,0.4,0.18,0.856,0.061,1.213
	c0,0-0.025-0.092-0.062-0.25c-0.044-0.159-0.11-0.385-0.233-0.647c-0.125-0.261-0.294-0.569-0.57-0.865
	C10.476,6.117,10.095,5.824,9.531,5.689"/>
<path fill="#85C2CC" d="M13.613,10.735c0,0,0.023-0.029,0.067-0.083c0.023-0.026,0.052-0.06,0.084-0.098
	c0.041-0.031,0.085-0.066,0.137-0.105c0.21-0.15,0.574-0.271,0.988-0.257c0.413,0.005,0.87,0.138,1.267,0.377
	c0.395,0.229,0.737,0.617,0.815,1.029c0,0-0.017-0.019-0.05-0.055c-0.036-0.034-0.07-0.092-0.14-0.148
	c-0.124-0.125-0.33-0.271-0.606-0.423c-0.279-0.147-0.634-0.306-1.067-0.411c-0.216-0.053-0.452-0.085-0.707-0.082
	C14.148,10.487,13.866,10.541,13.613,10.735"/>
<path fill="#85C2CC" d="M18.106,11.909c0.004,0.003,0.035-0.103,0.149-0.249c0.109-0.146,0.324-0.329,0.628-0.407
	c0.3-0.083,0.671-0.049,0.979,0.12c0.311,0.16,0.537,0.472,0.58,0.768c0,0-0.056-0.047-0.156-0.131
	c-0.103-0.078-0.248-0.18-0.443-0.268c-0.196-0.082-0.439-0.165-0.734-0.173C18.817,11.556,18.462,11.618,18.106,11.909"/>
<path fill="#85C2CC" d="M12.023,11.243c0.005,0.009,0.098-0.124,0.323-0.261c0.219-0.144,0.577-0.288,1.009-0.306
	c0.428-0.023,0.928,0.085,1.338,0.369c0.418,0.269,0.687,0.76,0.686,1.186c0,0-0.052-0.086-0.15-0.246
	c-0.108-0.149-0.273-0.351-0.54-0.531c-0.266-0.175-0.625-0.348-1.08-0.421C13.159,10.959,12.603,10.944,12.023,11.243"/>
<path fill="#85C2CC" d="M9.507,2.527c0.005,0.002-0.003-0.104,0.051-0.272c0.049-0.167,0.179-0.401,0.414-0.581
	c0.23-0.185,0.555-0.298,0.878-0.306c0.324-0.009,0.649,0.098,0.866,0.282c0,0-0.073,0.003-0.195,0.003
	c-0.124,0.006-0.296,0.013-0.505,0.042c-0.208,0.032-0.454,0.075-0.719,0.182C10.034,1.984,9.738,2.153,9.507,2.527"/>
<path fill="#85C2CC" d="M20.335,0.123c0,0,0.088,0.01,0.233,0.027c0.142,0.009,0.337-0.001,0.548-0.051
	c0.432-0.094,0.895-0.367,1.342-0.594c0,0-0.017,0.06-0.068,0.165c-0.049,0.109-0.15,0.249-0.316,0.397
	c-0.172,0.137-0.413,0.293-0.735,0.334C21.027,0.451,20.619,0.392,20.335,0.123"/>
<path fill="#85C2CC" d="M25.053-0.591c0,0,0.015,0.026,0.042,0.074c0.024,0.048,0.063,0.116,0.128,0.185
	c0.123,0.145,0.34,0.292,0.627,0.372c0.579,0.163,1.36,0.122,1.999-0.026c0,0-0.05,0.065-0.176,0.16
	c-0.123,0.095-0.331,0.207-0.621,0.28c-0.288,0.068-0.667,0.101-1.086-0.022c-0.208-0.062-0.425-0.172-0.606-0.346
	C25.178-0.085,25.054-0.337,25.053-0.591"/>
<path fill="#85C2CC" d="M29.59,0.075c0,0,0.149,0.068,0.399,0.182c0.246,0.11,0.602,0.245,1.012,0.313
	c0.831,0.159,1.823-0.236,2.648-0.609c0,0-0.072,0.08-0.225,0.218c-0.075,0.069-0.171,0.153-0.29,0.249
	c-0.126,0.081-0.276,0.172-0.451,0.269c-0.174,0.094-0.393,0.152-0.626,0.227c-0.247,0.027-0.518,0.081-0.806,0.022
	C30.674,0.876,30.083,0.553,29.59,0.075"/>
<path fill="#85C2CC" d="M34.789,0.883c0.008-0.004,0.031,0.116,0.132,0.263c0.096,0.151,0.287,0.298,0.556,0.357
	c0.264,0.066,0.593,0.051,0.919,0.013c0.328-0.041,0.654-0.111,0.96-0.201c0,0-0.042,0.066-0.154,0.167
	c-0.109,0.101-0.294,0.225-0.562,0.322c-0.265,0.092-0.62,0.167-1.035,0.079c-0.204-0.042-0.428-0.145-0.597-0.324
	C34.836,1.38,34.762,1.121,34.789,0.883"/>
<path fill="#85C2CC" d="M36.837,0.596c0.007-0.003,0.033,0.081,0.125,0.178c0.087,0.099,0.232,0.203,0.423,0.273
	c0.385,0.14,0.887,0.169,1.333,0.042c0.001-0.016-0.083,0.273-0.529,0.4c-0.213,0.057-0.5,0.064-0.793-0.066
	c-0.146-0.063-0.29-0.168-0.4-0.312C36.883,0.969,36.815,0.777,36.837,0.596"/>
<path fill="#85C2CC" d="M39.844,2.125c0.007,0.004,0.015-0.12,0.117-0.3c0.092-0.183,0.345-0.415,0.696-0.468
	c0.698-0.117,1.518,0.333,1.805,0.93c0,0-0.07-0.037-0.197-0.105c-0.126-0.066-0.311-0.153-0.542-0.248
	c-0.233-0.091-0.517-0.199-0.847-0.244C40.554,1.642,40.154,1.701,39.844,2.125"/>
<path fill="#85C2CC" d="M42.519,8.64c0,0-0.016-0.037-0.046-0.102c-0.031-0.067-0.078-0.165-0.093-0.302
	c-0.05-0.267,0.011-0.678,0.256-1.048c0.236-0.371,0.634-0.714,1.126-0.855c0.24-0.077,0.512-0.088,0.754-0.018
	c0.251,0.054,0.438,0.241,0.563,0.41c0,0-0.1-0.052-0.266-0.122c-0.176-0.058-0.434-0.09-0.739-0.005
	c-0.305,0.085-0.668,0.266-0.998,0.59c-0.171,0.156-0.327,0.353-0.442,0.592C42.519,8.016,42.448,8.311,42.519,8.64"/>
<path fill="#85C2CC" d="M43.199,6.638c0.008,0-0.048-0.133-0.058-0.373c-0.013-0.237,0.022-0.586,0.206-0.94
	c0.174-0.352,0.536-0.714,1.021-0.799c0.489-0.074,0.94,0.181,1.163,0.488c0,0-0.095-0.028-0.248-0.089
	c-0.16-0.045-0.391-0.124-0.668-0.09c-0.271,0.032-0.577,0.173-0.847,0.478C43.499,5.61,43.261,6.05,43.199,6.638"/>
<path fill="#1E2B2D" d="M13.728,1.97c-2.613,1.024-4.499,2.1-3.277,3.719c1.222,1.619,3.714,4.543,6.074,5.054
	c2.359,0.51,10.953-0.287,11.746-0.633c0,0,10.618-0.647,11.627-1.471c1.013-0.824,0.905-4.344,0.426-5.429
	c0,0-9.669-2.742-13.336-2.125c0,0-4.288-0.973-7.061,0.041C19.926,1.126,19.084-0.129,13.728,1.97"/>
<path fill="#E2C342" d="M18.988,1.227c-2.34-0.484-7.627,2.163-8.082,3.13c-0.455,0.968,3.188,5.009,5.179,5.578
	c1.992,0.569,10.7-0.399,11.155-0.74C27.696,8.854,20.638,1.568,18.988,1.227"/>
<path fill="#F9E385" d="M20.196,2.524c-1.998-0.413-6.513,1.847-6.901,2.673c-0.39,0.827,2.722,4.277,4.423,4.764
	c1.7,0.486,9.137-0.34,9.526-0.633C27.632,9.038,21.605,2.816,20.196,2.524"/>
<path fill="#CCA271" d="M21.15,1.168c0.181,0.297,3.188,4.29,3.927,4.28c0.741-0.009,1.651-3.424,1.595-3.823
	S20.849,0.672,21.15,1.168"/>
<path fill="#FCDBAC" d="M21.791,1.644c0.139,0.228,2.446,3.291,3.013,3.283c0.568-0.006,1.267-2.626,1.224-2.933
	C25.984,1.688,21.561,1.262,21.791,1.644"/>
<path fill="#FF9C0D" d="M26.352,6.065c-0.49-1.222,0.83-4.382,1.286-4.61C28.094,1.227,39.135,2.86,39.647,3.21
	c0.514,0.35,0.569,4.334,0,4.847c-0.568,0.513-9.562,1.765-10.585,1.708C28.037,9.708,26.604,6.691,26.352,6.065"/>
<g>
	<defs>
		<path id="SVGID_1_" d="M27.638,1.455c-0.455,0.228-1.776,3.388-1.286,4.61c0.251,0.626,1.684,3.643,2.709,3.699
			c1.023,0.057,10.016-1.195,10.586-1.708c0.568-0.512,0.512-4.496,0-4.846c-0.479-0.328-10.17-1.778-11.794-1.778
			C27.742,1.433,27.668,1.44,27.638,1.455"/>
	</defs>
	<clipPath id="SVGID_2_">
		<use xlink:href="#SVGID_1_"  overflow="visible"/>
	</clipPath>
	<path clip-path="url(#SVGID_2_)" fill="#FFB655" d="M27.041,5.188c-0.352-0.876,0.595-3.142,0.922-3.305
		c0.325-0.164,8.242,1.008,8.609,1.259c0.366,0.251,0.407,3.107,0,3.474c-0.408,0.368-6.854,1.265-7.591,1.224
		C28.248,7.799,27.221,5.636,27.041,5.188"/>
	<path clip-path="url(#SVGID_2_)" fill="#FFD9AB" d="M27.012,2.22c0,0,1.377,2.422,2.938,3.901c1.559,1.48,2.812,3.044,3.096,3.855
		c0.285,0.812,0.739-0.268-0.228-1.436c-0.969-1.167-4.909-5.09-5.557-7.369C26.615-1.106,26.63,1.589,27.012,2.22"/>
	<path clip-path="url(#SVGID_2_)" fill="#FFD9AB" d="M26.102,4.873c0,0,4.031,3.624,4.662,5.737c0.631,2.113-1.02-1.302-1.76-1.984
		S25.834,5.373,26.102,4.873"/>
	<path clip-path="url(#SVGID_2_)" fill="#FFD9AB" d="M29.949,0.088c0,0,1.958,3.98,3.096,5.178c1.139,1.197,2.78,3.721,2.732,4.844
		c-0.049,1.124,0.684,0.451,0.228-0.802c-0.456-1.252-1.615-3.351-2.601-4.436c-0.985-1.085-2.136-3.134-2.271-4.329
		C30.996-0.651,29.908-1.394,29.949,0.088"/>
	<path clip-path="url(#SVGID_2_)" fill="#FFD9AB" d="M34.354,1.172c0,0,3.929,4.049,3.131,8.137c0,0,0.405,0.74,0.515-0.768
		c0.111-1.508-0.8-5.146-2.563-6.998C33.671-0.31,33.949,0.715,34.354,1.172"/>
	<path clip-path="url(#SVGID_2_)" fill="#FFD9AB" d="M38.523,2.537c0,0,1.864,2.959,2.149,4.723
		C40.955,9.024,38.875,3.731,38.523,2.537"/>
</g>
</svg>
