<?xml version="1.0" encoding="utf-8"?>
<!-- Generator: Adobe Illustrator 16.0.0, SVG Export Plug-In . SVG Version: 6.00 Build 0)  -->
<!DOCTYPE svg PUBLIC "-//W3C//DTD SVG 1.1//EN" "http://www.w3.org/Graphics/SVG/1.1/DTD/svg11.dtd">
<svg version="1.1" id="Layer_1" xmlns="http://www.w3.org/2000/svg" xmlns:xlink="http://www.w3.org/1999/xlink" x="0px" y="0px"
	 width="58px" height="101.283px" viewBox="0 0 58 101.283" enable-background="new 0 0 58 101.283" xml:space="preserve">
<g>
	<g>
		<path fill="#CA9B55" d="M47.559,1.286c4.359,0,6.562,6.268,10.283,7.607c0,0-4.414,3.325-12.049,0l-0.207-0.146l-0.014-0.011
			c0.004-0.002,0-0.002,0-0.002c0.271-0.252,0.432-0.573,0.432-0.921c0-0.824-0.902-1.489-2.012-1.489
			c-0.506,0-0.967,0.139-1.32,0.367L41.98,6.203C41.98,6.205,43.201,1.286,47.559,1.286z"/>
		<path fill="#CA9B55" d="M49.803,12.931c2.842,3.416,1.787,19.022,1.787,19.022l-4.916,4.681L46.248,26.36H19.9h-2.047h-5.759
			l0.417,10.292l-6.168-5.144c0,0-0.208-14.663,1.937-18.54c0.507-0.917,1.476-2.113,2.877-3.347
			c0.039-0.014,0.082-0.031,0.122-0.051l0.364-0.257c0.447,0.374,1.102,0.609,1.83,0.609c1.354,0,2.456-0.815,2.456-1.816
			c0-0.508-0.282-0.967-0.737-1.296l0.058-0.041c3.486-1.924,8.131-3.386,13.775-3.198c6.169,0.206,10.5,1.476,13.791,3.317
			c-0.514,0.331-0.838,0.822-0.838,1.367c0,1.002,1.098,1.817,2.457,1.817c0.783,0,1.475-0.271,1.928-0.69l0.014,0.013
			C47.658,10.497,48.771,11.698,49.803,12.931z"/>
		<path fill="#F3E9C7" d="M46.25,26.36l0.424,10.275l-0.039,0.016c-5.82,2.021-10.967,2.96-15.383,3.252
			c-1.537,0.103-2.981,0.127-4.34,0.087c-9.337-0.248-14.396-3.339-14.396-3.339L12.1,26.36h5.756h2.047H46.25z M41.744,33.208
			c0-1.104-0.533-2-1.186-2c-0.656,0-1.191,0.895-1.191,2c0,1.104,0.533,2.001,1.191,2.001
			C41.211,35.209,41.744,34.312,41.744,33.208z M20.946,33.208c0-1.104-0.532-2-1.187-2c-0.655,0-1.188,0.895-1.188,2
			c0,1.104,0.532,2.001,1.188,2.001C20.414,35.209,20.946,34.312,20.946,33.208z"/>
		<path fill="#EC6764" d="M46.891,8.253c0,0.425-0.197,0.816-0.525,1.124c-1.037-0.893-2.184-1.723-3.496-2.461L42.82,6.885
			c0.434-0.278,1-0.449,1.615-0.449C45.791,6.435,46.891,7.247,46.891,8.253z"/>
		<path fill="#EC6764" d="M46.365,9.377c0,0,0.002,0,0,0.004l-3.496-2.465C44.182,7.654,45.328,8.484,46.365,9.377z"/>
		<path fill="#EC6764" d="M42.869,6.916l3.496,2.465c-0.449,0.422-1.146,0.689-1.93,0.689c-1.355,0-2.455-0.815-2.455-1.817
			c0-0.544,0.324-1.034,0.84-1.367C42.838,6.897,42.852,6.906,42.869,6.916z"/>
		<path fill="#F3E9C7" d="M44.326,52.236c0,0,3.924,13.182,2.805,15.061c-1.109,1.877-3.02,2.656-3.924-0.061l-0.205,0.035
			l-0.008-0.004h-0.105l-2.801-14.248l4.068-1.115L44.326,52.236z"/>
		<path fill="#F4B29F" d="M43.002,67.273l3.92,11.943h-9.367c-0.084-0.016-0.164-0.023-0.252-0.023l-2.391,0.023H29h-1.419h-7.169
			l-2.394-0.023c-0.087,0-0.17,0.008-0.251,0.023H9.666l3.924-11.947h-0.029c0,0,0.012-0.086,0.038-0.246
			c0.207-1.434,1.326-8.803,2.875-14.037l-3.589-0.994l-0.637-0.178c3.617-4.088,5.067-5.377,6.381-5.51
			c0,0,0.147,0.058,0.419,0.145c-1.577,0.108-2.541,1.085-2.541,1.085c1.663,0.347,3.377,11.541,3.377,11.541h5.818
			c0.377-3.609-3.978-10.563-5.016-12.158c0.55,0.141,1.193,0.295,1.917,0.437c1.3,0.353,3.033,0.655,5.515,0.655
			c0.018,0,0.038,0,0.054,0c0.323,0.011,0.646,0.019,0.972,0.019c3.156,0,6.05-0.717,7.613-1.188
			c-0.859,1.234-5.787,8.496-5.402,12.238h5.818c0,0,1.713-11.195,3.381-11.542c0,0-0.973-1.146-2.809-1.021
			c0.102-0.033,0.166-0.062,0.199-0.07c0.002-0.006,0.002-0.006,0.002-0.006c1.832-0.223,3.078,0.707,6.535,5.376l-0.33,0.092
			l-4.068,1.113l2.803,14.248h0.105L43.002,67.273z"/>
		<path fill="#EC6764" d="M42.822,6.885l0.043,0.031c-0.014-0.01-0.031-0.019-0.045-0.028C42.82,6.885,42.822,6.885,42.822,6.885z"
			/>
		<path fill="#1E1E1E" d="M40.555,31.209c0.654,0,1.189,0.895,1.189,2c0,1.104-0.533,2.001-1.189,2.001
			c-0.652,0-1.186-0.897-1.186-2.001C39.369,32.104,39.902,31.209,40.555,31.209z"/>
		<path fill="#F3E9C7" d="M38.344,79.754c0.217,2.463,1.008,12.338-0.07,15.824c-0.424,1.371-2.322,3.869-4.857,4.635
			c-0.686,0.207-1.516-0.076-1.516-0.52V79.812c0-0.324,0.449-0.588,1.02-0.59l1.992-0.014h2.645
			C37.99,79.265,38.324,79.484,38.344,79.754z"/>
		<path fill="#07D39F" d="M37.748,46.513c1.836-0.127,2.811,1.021,2.811,1.021c-1.67,0.347-3.381,11.541-3.381,11.541h-5.818
			c-0.389-3.742,4.541-11.001,5.4-12.237C37.207,46.702,37.547,46.587,37.748,46.513z"/>
		<path fill="#F3E9C7" d="M37.965,46.435c0,0-0.002,0-0.014,0.003c0,0,0,0-0.004,0.007c-0.27,0.028-0.543,0.087-0.848,0.161
			c-0.068,0.018-0.141,0.034-0.209,0.052c-1.719,0.45-4.143,1.345-8.714,1.352c-2.089-0.068-4.008-0.345-5.572-0.655
			c-0.843-0.223-1.505-0.475-2.069-0.672c-0.04-0.062-0.063-0.095-0.063-0.095c-0.191-0.053-0.369-0.085-0.55-0.109
			c-0.461-0.142-0.867-0.213-1.289-0.174c0.378-0.804,6.837-1.806,7.268-2.231c0.431-0.427,0-3.417,0-3.417V40.65
			c1.533,0.045,3.164,0.02,4.893-0.099l0.012,0.104c0,0-0.434,2.989,0,3.417C31.24,44.497,37.605,45.634,37.965,46.435z"/>
		<path fill="#FEE400" d="M37.947,46.445c-0.033,0.008-0.096,0.035-0.199,0.07c-0.203,0.016-0.416,0.044-0.646,0.091
			C37.404,46.531,37.682,46.473,37.947,46.445z"/>
		<path fill="#FEE400" d="M37.557,79.217h-2.645l2.391-0.023C37.393,79.193,37.473,79.201,37.557,79.217z"/>
		<path fill="#07D39F" d="M37.1,46.606c0.232-0.047,0.443-0.076,0.648-0.091c-0.197,0.071-0.537,0.188-0.988,0.324
			c0.082-0.121,0.129-0.183,0.129-0.183C36.961,46.64,37.031,46.623,37.1,46.606z"/>
		<path fill="#FEE400" d="M36.889,46.657c0,0-0.047,0.062-0.129,0.183c-1.562,0.472-4.455,1.188-7.61,1.188
			c-0.329,0-0.651-0.008-0.974-0.019C32.748,48.003,35.172,47.108,36.889,46.657z"/>
		<path fill="#07D39F" d="M20.689,46.916c1.037,1.595,5.393,8.55,5.015,12.158h-5.818c0,0-1.714-11.194-3.377-11.541
			c0,0,0.963-0.977,2.542-1.085C19.401,46.559,19.959,46.73,20.689,46.916z"/>
		<path fill="#F3E9C7" d="M23.425,79.806v19.635c0,0.441-0.83,0.723-1.519,0.514c-2.532-0.756-4.423-3.223-4.848-4.576
			c-1.08-3.445-0.296-13.197-0.08-15.635c0.023-0.264,0.354-0.479,0.794-0.533h2.643l1.994,0.012
			C22.972,79.226,23.425,79.488,23.425,79.806z"/>
		<path fill="#FEE400" d="M22.607,47.355c-0.726-0.142-1.369-0.299-1.918-0.438c-0.064-0.102-0.114-0.179-0.154-0.235
			C21.099,46.879,21.762,47.131,22.607,47.355z"/>
		<path fill="#07D39F" d="M20.535,46.68c0.04,0.056,0.089,0.134,0.154,0.235c-0.731-0.188-1.288-0.358-1.638-0.468
			c0.271-0.021,0.561-0.015,0.87,0.027C20.116,46.531,20.32,46.604,20.535,46.68z"/>
		<path fill="#07D39F" d="M20.471,46.587c0,0,0.023,0.031,0.063,0.094c-0.214-0.077-0.42-0.148-0.615-0.204
			C20.102,46.502,20.28,46.533,20.471,46.587z"/>
		<path fill="#FEE400" d="M20.416,79.217h-2.644c0.079-0.016,0.161-0.023,0.252-0.023L20.416,79.217z"/>
		<path fill="#FEE400" d="M19.919,46.476c-0.31-0.041-0.597-0.047-0.871-0.027c-0.271-0.087-0.421-0.145-0.421-0.145v-0.002
			C19.055,46.262,19.458,46.333,19.919,46.476z"/>
		<path fill="#1E1E1E" d="M19.758,31.209c0.654,0,1.187,0.895,1.187,2c0,1.104-0.532,2.001-1.187,2.001
			c-0.655,0-1.188-0.897-1.188-2.001C18.57,32.104,19.103,31.209,19.758,31.209z"/>
		<path fill="#F3E9C7" d="M12.886,51.992l3.59,0.994C14.93,58.22,13.808,65.59,13.6,67.023h-0.002c-0.98,2.699-2.867,1.893-3.928,0
			c-1.064-1.896,3.208-15.018,3.208-15.018L12.886,51.992z"/>
		<path fill="#CA9B55" d="M15.931,6.229l-0.592,0.418c-0.019,0.011-0.035,0.02-0.054,0.03c-0.385-0.276-0.912-0.448-1.491-0.448
			c-1.182,0-2.139,0.708-2.139,1.583c0,0.379,0.181,0.729,0.486,1.003c-0.123,0.106-0.244,0.212-0.366,0.316
			C3.721,12.589-0.93,9.086-0.93,9.086C3.029,7.662,5.367,1,10.001,1C14.634,1,15.931,6.229,15.931,6.229z"/>
		<path fill="#EC6764" d="M15.193,6.809c0.455,0.329,0.737,0.788,0.737,1.295c0,1.001-1.102,1.816-2.455,1.816
			c-0.729,0-1.385-0.236-1.829-0.609L15.193,6.809z"/>
		<path fill="#CA9B55" d="M15.25,6.767l-0.057,0.042c0,0,0-0.002-0.005-0.006C15.211,6.789,15.233,6.779,15.25,6.767z"/>
		<path fill="#EC6764" d="M15.188,6.802c0.005,0.004,0.005,0.006,0.005,0.006l-3.546,2.504c-0.027-0.02-0.046-0.037-0.068-0.056
			C12.59,8.42,13.799,7.575,15.188,6.802z"/>
		<path fill="#EC6764" d="M13.476,6.288c0.666,0,1.272,0.197,1.713,0.514c-2.012,1.119-3.15,2.075-3.61,2.456
			c-0.351-0.315-0.559-0.717-0.559-1.154C11.02,7.1,12.119,6.288,13.476,6.288z"/>
		<path fill="#CA9B55" d="M11.58,9.259c0.022,0.019,0.042,0.037,0.068,0.055l-0.366,0.258c-0.041,0.02-0.083,0.038-0.122,0.052
			C11.298,9.502,11.437,9.38,11.58,9.259z"/>
		<path fill="none" stroke="#1E1E1E" stroke-linecap="round" stroke-linejoin="round" stroke-miterlimit="10" d="M42.869,6.916
			c-0.018-0.01-0.035-0.019-0.049-0.028c-3.295-1.842-7.623-3.111-13.792-3.318c-5.645-0.186-10.291,1.275-13.776,3.198
			c-0.023,0.012-0.041,0.023-0.062,0.036"/>
		<path fill="none" stroke="#1E1E1E" stroke-linecap="round" stroke-linejoin="round" stroke-miterlimit="10" d="M12.512,36.655
			v-0.003L12.094,26.36h5.76H19.9h26.35l0.428,10.275l4.914-4.681c0,0,1.057-15.608-1.789-19.023
			c-1.031-1.233-2.139-2.434-3.422-3.539"/>
		<path fill="none" stroke="#1E1E1E" stroke-linecap="round" stroke-linejoin="round" stroke-miterlimit="10" d="M11.159,9.621
			c-1.399,1.234-2.369,2.431-2.877,3.346c-2.145,3.877-1.937,18.541-1.937,18.541l6.169,5.143"/>
		<path fill="none" stroke="#1E1E1E" stroke-linecap="round" stroke-linejoin="round" stroke-miterlimit="10" d="M12.512,36.652
			c0,0,5.06,3.089,14.396,3.338c1.359,0.04,2.807,0.017,4.338-0.087c4.418-0.291,9.568-1.23,15.387-3.251"/>
		<path fill="none" stroke="#1E1E1E" stroke-linecap="round" stroke-linejoin="round" stroke-miterlimit="10" d="M18.63,46.304
			c0,0,0.149,0.058,0.422,0.145c0.349,0.108,0.907,0.28,1.638,0.468c0.548,0.141,1.193,0.295,1.918,0.437
			c1.561,0.312,3.48,0.588,5.57,0.655c0.326,0.011,0.647,0.019,0.971,0.019"/>
		<path fill="none" stroke="#1E1E1E" stroke-linecap="round" stroke-linejoin="round" stroke-miterlimit="10" d="M25.897,40.654
			c0,0,0.431,2.988,0,3.416c-0.429,0.426-6.887,1.43-7.268,2.232"/>
		<path fill="none" stroke="#1E1E1E" stroke-linecap="round" stroke-linejoin="round" stroke-miterlimit="10" d="M37.947,46.445
			c-0.033,0.008-0.096,0.035-0.199,0.07c-0.197,0.072-0.533,0.188-0.988,0.324c-1.557,0.472-4.449,1.188-7.61,1.188"/>
		<path fill="none" stroke="#1E1E1E" stroke-linecap="round" stroke-linejoin="round" stroke-miterlimit="10" d="M30.807,40.654
			c0,0-0.432,2.988,0,3.416c0.434,0.426,6.803,1.563,7.164,2.364c0,0-0.008,0-0.018,0.004"/>
		<path fill="none" stroke="#1E1E1E" stroke-linecap="round" stroke-linejoin="round" stroke-miterlimit="10" d="M20.416,79.211
			l-2.394-0.018c-0.089,0-0.171,0.008-0.251,0.018c-0.439,0.059-0.771,0.271-0.794,0.535c-0.215,2.438-1,12.191,0.081,15.635
			c0.421,1.354,2.316,3.818,4.847,4.574c0.689,0.211,1.518-0.07,1.518-0.512V79.806c0-0.322-0.45-0.582-1.015-0.584L20.416,79.211z"
			/>
		<path fill="none" stroke="#1E1E1E" stroke-linecap="round" stroke-linejoin="round" stroke-miterlimit="10" d="M37.557,79.211
			c0.432,0.059,0.768,0.273,0.791,0.543c0.213,2.465,1.006,12.338-0.076,15.826c-0.422,1.369-2.32,3.867-4.855,4.633
			c-0.686,0.209-1.518-0.076-1.518-0.52V79.812c0-0.324,0.453-0.588,1.018-0.59l1.996-0.014"/>
		<path fill="none" stroke="#1E1E1E" stroke-linecap="round" stroke-linejoin="round" stroke-miterlimit="10" d="M19.919,46.476
			c-0.461-0.144-0.866-0.214-1.289-0.174v0.002c-1.315,0.134-2.765,1.422-6.381,5.51l0.637,0.178l3.59,0.996
			C14.93,58.22,13.808,65.594,13.6,67.023c-0.024,0.16-0.036,0.246-0.036,0.246h0.032L9.668,79.217h8.104h2.644h7.174h1.415h5.91
			h2.646h9.365l-3.922-11.939L43,67.269h-0.109l-2.799-14.25l4.066-1.113l0.33-0.092c-3.457-4.668-4.703-5.599-6.533-5.376
			c0,0,0,0-0.006,0.007c-0.268,0.028-0.545,0.087-0.848,0.161"/>
		<path fill="none" stroke="#1E1E1E" stroke-linecap="round" stroke-linejoin="round" stroke-miterlimit="10" d="M36.889,46.657
			c-1.721,0.45-4.141,1.346-8.714,1.352c-0.019,0-0.04,0-0.053,0c-2.486,0-4.215-0.305-5.517-0.653
			c-0.845-0.225-1.507-0.477-2.072-0.674"/>
		<path fill="none" stroke="#1E1E1E" stroke-linecap="round" stroke-linejoin="round" stroke-miterlimit="10" d="M12.878,52.008
			c0,0-4.273,13.119-3.208,15.016c1.061,1.893,2.948,2.701,3.928,0"/>
		<path fill="none" stroke="#1E1E1E" stroke-linecap="round" stroke-linejoin="round" stroke-miterlimit="10" d="M44.326,52.236
			c0,0,3.924,13.182,2.805,15.061c-1.109,1.877-3.02,2.656-3.924-0.061"/>
		<path fill="none" stroke="#1E1E1E" stroke-linecap="round" stroke-linejoin="round" stroke-miterlimit="10" d="M41.98,6.205
			c0,0,1.184-4.918,5.42-4.918c4.238,0,6.379,6.267,9.994,7.607c0,0-3.738,3.812-11.156,0.488"/>
		
			<line fill="none" stroke="#1E1E1E" stroke-linecap="round" stroke-linejoin="round" stroke-miterlimit="10" x1="46.381" y1="9.393" x2="46.365" y2="9.38"/>
		<path fill="none" stroke="#1E1E1E" stroke-linecap="round" stroke-linejoin="round" stroke-miterlimit="10" d="M15.931,6.229
			c0,0-1.289-5.228-5.889-5.228c-4.602,0-6.925,6.662-10.857,8.086c0,0,4.49,3.683,12.488,0.225
			c0.033-0.013,0.096-0.163,0.131-0.181"/>
		
			<line fill="none" stroke="#1E1E1E" stroke-linecap="round" stroke-linejoin="round" stroke-miterlimit="10" x1="14.003" y1="26.209" x2="14.003" y2="21.969"/>
		
			<line fill="none" stroke="#1E1E1E" stroke-linecap="round" stroke-linejoin="round" stroke-miterlimit="10" x1="18.916" y1="26.209" x2="18.916" y2="21.969"/>
		
			<line fill="none" stroke="#1E1E1E" stroke-linecap="round" stroke-linejoin="round" stroke-miterlimit="10" x1="24.235" y1="26.209" x2="24.235" y2="21.969"/>
		
			<line fill="none" stroke="#1E1E1E" stroke-linecap="round" stroke-linejoin="round" stroke-miterlimit="10" x1="29.146" y1="26.209" x2="29.146" y2="21.969"/>
		
			<line fill="none" stroke="#1E1E1E" stroke-linecap="round" stroke-linejoin="round" stroke-miterlimit="10" x1="34.059" y1="26.209" x2="34.059" y2="21.969"/>
		
			<line fill="none" stroke="#1E1E1E" stroke-linecap="round" stroke-linejoin="round" stroke-miterlimit="10" x1="39.377" y1="26.209" x2="39.377" y2="21.969"/>
		
			<line fill="none" stroke="#1E1E1E" stroke-linecap="round" stroke-linejoin="round" stroke-miterlimit="10" x1="44.289" y1="26.209" x2="44.289" y2="21.969"/>
		<path fill="none" stroke="#1E1E1E" stroke-linecap="round" stroke-linejoin="round" stroke-miterlimit="10" d="M19.919,46.476
			c0.183,0.023,0.361,0.058,0.55,0.107c0,0,0.023,0.034,0.063,0.097c0.04,0.054,0.089,0.134,0.155,0.234
			c1.036,1.596,5.393,8.55,5.015,12.16h-5.818c0,0-1.714-11.196-3.378-11.542c0,0,0.964-0.977,2.542-1.085
			C19.322,46.429,19.611,46.435,19.919,46.476z"/>
		<path fill="none" stroke="#1E1E1E" stroke-linecap="round" stroke-linejoin="round" stroke-miterlimit="10" d="M36.889,46.657
			c0,0-0.047,0.062-0.129,0.183c-0.859,1.232-5.789,8.494-5.4,12.236h5.818c0,0,1.711-11.195,3.381-11.542
			c0,0-0.975-1.146-2.811-1.02c-0.205,0.016-0.416,0.044-0.648,0.091"/>
		<path fill="none" stroke="#1E1E1E" stroke-linecap="round" stroke-linejoin="round" stroke-miterlimit="10" d="M42.822,6.885
			c0.434-0.278,0.998-0.449,1.613-0.449c1.354,0,2.455,0.812,2.455,1.817c0,0.425-0.197,0.815-0.525,1.125c0,0,0.002,0,0,0.003
			c-0.451,0.422-1.146,0.689-1.93,0.689c-1.355,0-2.455-0.814-2.455-1.816c0-0.545,0.32-1.036,0.84-1.366
			C42.82,6.885,42.822,6.885,42.822,6.885z"/>
		<path fill="none" stroke="#1E1E1E" stroke-linecap="round" stroke-linejoin="round" stroke-miterlimit="10" d="M15.193,6.809
			c0.455,0.329,0.737,0.788,0.737,1.295c0,1.001-1.102,1.816-2.455,1.816c-0.729,0-1.385-0.236-1.829-0.609
			c-0.027-0.019-0.046-0.035-0.068-0.055C11.228,8.941,11.02,8.54,11.02,8.103c0-1.004,1.099-1.818,2.456-1.818
			c0.666,0,1.272,0.198,1.713,0.516C15.193,6.806,15.193,6.809,15.193,6.809z"/>
	</g>
</g>
</svg>
