<?xml version="1.0" encoding="utf-8"?>
<!-- Generator: Adobe Illustrator 16.0.0, SVG Export Plug-In . SVG Version: 6.00 Build 0)  -->
<!DOCTYPE svg PUBLIC "-//W3C//DTD SVG 1.1//EN" "http://www.w3.org/Graphics/SVG/1.1/DTD/svg11.dtd">
<svg version="1.1" id="Layer_1" xmlns="http://www.w3.org/2000/svg" xmlns:xlink="http://www.w3.org/1999/xlink" x="0px" y="0px"
	 width="58px" height="113.023px" viewBox="-54.667 0 58 113.023" enable-background="new -54.667 0 58 113.023"
	 xml:space="preserve">
<g>
	<g>
		<path fill="#CA9B55" d="M-9.423,1.396c4.438,0,6.681,8.625,10.469,10.469c0,0-4.495,4.575-12.266,0l-0.212-0.2l-0.014-0.015
			c0.004-0.004,0-0.004,0-0.004c0.277-0.346,0.439-0.788,0.439-1.266c0-1.134-0.918-2.049-2.047-2.049
			c-0.515,0-0.985,0.191-1.345,0.505l-0.704-0.673C-15.103,8.166-13.86,1.396-9.423,1.396z"/>
		<path fill="#CA9B55" d="M-8.579,15.655c2.37,3.851,1.491,21.445,1.491,21.445l-4.1,5.278l-0.355-11.584h-21.976h-1.707h-4.804
			l0.349,11.602l-5.145-5.799c0,0-0.174-16.53,1.615-20.901c0.423-1.033,1.231-2.382,2.4-3.773c0.032-0.016,0.068-0.036,0.102-0.058
			l0.303-0.29c0.373,0.421,0.919,0.687,1.527,0.687c1.129,0,2.048-0.918,2.048-2.047c0-0.574-0.236-1.09-0.615-1.461l0.048-0.047
			c2.908-2.169,6.782-3.817,11.49-3.606c5.145,0.233,8.755,1.664,11.502,3.741c-0.429,0.373-0.7,0.926-0.7,1.541
			c0,1.129,0.917,2.048,2.049,2.048c0.652,0,1.23-0.305,1.608-0.777l0.012,0.014C-10.366,12.911-9.44,14.265-8.579,15.655z"/>
		<path fill="#F3E9C7" d="M-11.542,30.794l0.355,11.584l-0.033,0.017c-4.855,2.28-9.148,3.337-12.83,3.666
			c-1.283,0.117-2.487,0.144-3.621,0.099c-7.787-0.279-12.006-3.765-12.006-3.765l-0.348-11.601h4.802h1.707H-11.542z M-15.3,38.514
			c0-1.245-0.444-2.253-0.989-2.253c-0.548,0-0.993,1.008-0.993,2.253s0.444,2.256,0.993,2.256
			C-15.744,40.77-15.3,39.759-15.3,38.514z M-32.646,38.514c0-1.245-0.444-2.253-0.99-2.253c-0.546,0-0.991,1.008-0.991,2.253
			s0.444,2.256,0.991,2.256C-33.09,40.77-32.646,39.759-32.646,38.514z"/>
		<path fill="#EC6764" d="M-11.007,10.381c0,0.479-0.166,0.92-0.439,1.267c-0.865-1.007-1.822-1.943-2.915-2.774l-0.041-0.035
			c0.362-0.314,0.833-0.506,1.347-0.506C-11.925,8.332-11.007,9.247-11.007,10.381z"/>
		<path fill="#EC6764" d="M-11.446,11.648c0,0,0.002,0,0,0.004l-2.915-2.778C-13.268,9.705-12.311,10.641-11.446,11.648z"/>
		<path fill="#EC6764" d="M-14.361,8.874l2.915,2.778c-0.375,0.476-0.957,0.777-1.608,0.777c-1.131,0-2.049-0.918-2.049-2.048
			c0-0.614,0.271-1.166,0.7-1.541C-14.389,8.852-14.376,8.862-14.361,8.874z"/>
		<path fill="#F3E9C7" d="M-14.04,57.746c0,0,2.904,13.182,2.075,15.06c-0.821,1.877-2.234,2.657-2.903-0.059l-0.152,0.035
			l-0.005-0.005h-0.078l-2.073-14.248l3.011-1.114L-14.04,57.746z"/>
		<path fill="#F4B29F" d="M-15.02,72.784l2.901,11.942h-6.93c-0.062-0.015-0.122-0.023-0.188-0.023l-1.768,0.023h-4.374h-1.049
			h-5.304l-1.771-0.023c-0.065,0-0.126,0.009-0.186,0.023h-5.993l2.903-11.947H-36.8c0,0,0.009-0.085,0.028-0.246
			c0.153-1.433,0.981-8.802,2.127-14.037l-2.656-0.993l-0.471-0.179c2.676-4.088,3.749-5.377,4.721-5.51
			c0,0,0.109,0.058,0.311,0.145c-1.167,0.108-1.88,1.085-1.88,1.085c1.231,0.346,2.499,11.541,2.499,11.541h4.304
			c0.279-3.61-2.943-10.564-3.711-12.158c0.407,0.14,0.883,0.294,1.419,0.436c0.962,0.353,2.244,0.655,4.08,0.655
			c0.013,0,0.028,0,0.04,0c0.239,0.011,0.478,0.019,0.72,0.019c2.334,0,4.476-0.717,5.631-1.189
			c-0.636,1.235-4.281,8.496-3.996,12.238h4.304c0,0,1.268-11.195,2.502-11.541c0,0-0.721-1.147-2.078-1.021
			c0.075-0.033,0.123-0.062,0.146-0.07c0.003-0.006,0.003-0.006,0.003-0.006c1.354-0.223,2.276,0.707,4.834,5.377l-0.244,0.091
			l-3.01,1.114l2.073,14.248h0.078L-15.02,72.784z"/>
		<path fill="#EC6764" d="M-14.401,8.839l0.037,0.035c-0.013-0.012-0.026-0.022-0.039-0.032
			C-14.403,8.839-14.401,8.839-14.401,8.839z"/>
		<path fill="#1E1E1E" d="M-16.292,36.261c0.547,0,0.992,1.008,0.992,2.253s-0.443,2.256-0.992,2.256
			c-0.544,0-0.989-1.011-0.989-2.256S-16.836,36.261-16.292,36.261z"/>
		<path fill="#F3E9C7" d="M-18.465,85.41c0.16,3.106,0.745,15.557-0.053,19.952c-0.314,1.728-1.718,4.877-3.593,5.843
			c-0.508,0.263-1.122-0.096-1.122-0.654V85.484c0-0.408,0.333-0.74,0.754-0.744l1.475-0.017h1.956
			C-18.726,84.796-18.481,85.07-18.465,85.41z"/>
		<path fill="#07D39F" d="M-18.906,52.023c1.358-0.127,2.079,1.021,2.079,1.021c-1.236,0.346-2.502,11.541-2.502,11.541h-4.304
			c-0.287-3.742,3.36-11.002,3.994-12.238C-19.306,52.213-19.054,52.097-18.906,52.023z"/>
		<path fill="#F3E9C7" d="M-18.746,51.945c0,0-0.002,0-0.01,0.003c0,0,0,0-0.003,0.007c-0.199,0.028-0.402,0.087-0.627,0.161
			c-0.052,0.018-0.104,0.034-0.155,0.052c-1.272,0.45-3.064,1.344-6.447,1.351c-1.545-0.068-2.965-0.344-4.122-0.655
			c-0.624-0.223-1.114-0.475-1.531-0.672c-0.03-0.062-0.047-0.095-0.047-0.095c-0.141-0.052-0.273-0.085-0.407-0.109
			c-0.341-0.142-0.642-0.213-0.954-0.174c0.28-0.803,5.059-1.805,5.377-2.231c0.319-0.427,0-3.417,0-3.417V46.16
			c1.134,0.045,2.341,0.019,3.62-0.099l0.009,0.104c0,0-0.32,2.989,0,3.417C-23.721,50.008-19.012,51.144-18.746,51.945z"/>
		<path fill="#FEE400" d="M-18.759,51.955c-0.024,0.008-0.07,0.035-0.147,0.07c-0.151,0.016-0.308,0.044-0.479,0.091
			C-19.161,52.042-18.956,51.983-18.759,51.955z"/>
		<path fill="#FEE400" d="M-19.048,84.727h-1.956l1.768-0.023C-19.17,84.703-19.109,84.712-19.048,84.727z"/>
		<path fill="#07D39F" d="M-19.386,52.116c0.172-0.047,0.327-0.076,0.479-0.091c-0.146,0.071-0.396,0.188-0.732,0.324
			c0.062-0.121,0.097-0.182,0.097-0.182C-19.489,52.15-19.437,52.134-19.386,52.116z"/>
		<path fill="#FEE400" d="M-19.542,52.168c0,0-0.035,0.061-0.097,0.182c-1.155,0.472-3.294,1.188-5.629,1.188
			c-0.243,0-0.481-0.008-0.72-0.019C-22.606,53.513-20.813,52.618-19.542,52.168z"/>
		<path fill="#07D39F" d="M-31.527,52.427c0.767,1.594,3.99,8.549,3.71,12.158h-4.304c0,0-1.268-11.195-2.499-11.541
			c0,0,0.713-0.977,1.881-1.085C-32.48,52.069-32.067,52.24-31.527,52.427z"/>
		<path fill="#F3E9C7" d="M-29.503,85.477v24.756c0,0.556-0.614,0.91-1.124,0.649c-1.873-0.955-3.272-4.066-3.586-5.773
			c-0.799-4.343-0.219-16.638-0.059-19.71c0.017-0.333,0.262-0.603,0.588-0.675h1.955l1.475,0.017
			C-29.838,84.746-29.503,85.074-29.503,85.477z"/>
		<path fill="#FEE400" d="M-30.108,52.865c-0.537-0.142-1.013-0.299-1.419-0.438c-0.047-0.102-0.085-0.179-0.114-0.236
			C-31.224,52.389-30.733,52.641-30.108,52.865z"/>
		<path fill="#07D39F" d="M-31.641,52.19c0.029,0.056,0.066,0.134,0.114,0.236c-0.541-0.188-0.953-0.359-1.212-0.468
			c0.201-0.021,0.415-0.015,0.644,0.027C-31.951,52.042-31.8,52.114-31.641,52.19z"/>
		<path fill="#07D39F" d="M-31.688,52.097c0,0,0.017,0.032,0.047,0.094c-0.159-0.077-0.311-0.148-0.455-0.204
			C-31.961,52.012-31.829,52.044-31.688,52.097z"/>
		<path fill="#FEE400" d="M-31.729,84.727h-1.956c0.058-0.015,0.119-0.023,0.186-0.023L-31.729,84.727z"/>
		<path fill="#FEE400" d="M-32.096,51.986c-0.229-0.041-0.442-0.047-0.644-0.027c-0.201-0.087-0.312-0.145-0.312-0.145v-0.002
			C-32.736,51.772-32.437,51.844-32.096,51.986z"/>
		<path fill="#1E1E1E" d="M-33.637,36.261c0.545,0,0.99,1.008,0.99,2.253s-0.444,2.256-0.99,2.256c-0.546,0-0.991-1.011-0.991-2.256
			S-34.183,36.261-33.637,36.261z"/>
		<path fill="#F3E9C7" d="M-37.3,57.503l2.656,0.993c-1.143,5.235-1.973,12.604-2.127,14.037h-0.002c-0.725,2.7-2.121,1.893-2.906,0
			c-0.788-1.896,2.373-15.017,2.373-15.017L-37.3,57.503z"/>
		<path fill="#CA9B55" d="M-36.829,8.166l-0.567,0.541c-0.019,0.014-0.034,0.026-0.052,0.039c-0.369-0.358-0.874-0.58-1.429-0.58
			c-1.131,0-2.048,0.916-2.048,2.049c0,0.49,0.173,0.943,0.466,1.298c-0.118,0.138-0.234,0.275-0.35,0.41
			c-7.714,4.476-12.169-0.058-12.169-0.058c3.792-1.844,6.031-10.469,10.47-10.469C-38.071,1.396-36.829,8.166-36.829,8.166z"/>
		<path fill="#EC6764" d="M-37.444,8.753c0.379,0.37,0.615,0.887,0.615,1.461c0,1.128-0.919,2.047-2.048,2.047
			c-0.608,0-1.155-0.266-1.525-0.687L-37.444,8.753z"/>
		<path fill="#CA9B55" d="M-37.396,8.706l-0.048,0.047c0,0,0-0.003-0.004-0.007C-37.429,8.731-37.411,8.72-37.396,8.706z"/>
		<path fill="#EC6764" d="M-37.448,8.746c0.004,0.004,0.004,0.007,0.004,0.007l-2.958,2.823c-0.022-0.022-0.038-0.042-0.057-0.063
			C-39.615,10.569-38.607,9.617-37.448,8.746z"/>
		<path fill="#EC6764" d="M-38.877,8.166c0.555,0,1.061,0.221,1.429,0.58c-1.161,0.872-2.167,1.824-3.011,2.768
			c-0.293-0.355-0.466-0.808-0.466-1.3C-40.925,9.082-40.008,8.166-38.877,8.166z"/>
		<path fill="#CA9B55" d="M-40.458,11.514c0.019,0.022,0.035,0.042,0.057,0.063l-0.305,0.29c-0.034,0.022-0.069,0.043-0.102,0.06
			C-40.693,11.789-40.577,11.651-40.458,11.514z"/>
		<path fill="none" stroke="#1E1E1E" stroke-linecap="round" stroke-linejoin="round" stroke-miterlimit="10" d="M-14.361,8.874
			c-0.016-0.012-0.03-0.022-0.042-0.032c-2.747-2.078-6.357-3.508-11.502-3.742c-4.708-0.209-8.583,1.438-11.49,3.606
			c-0.019,0.014-0.034,0.026-0.052,0.041"/>
		<path fill="none" stroke="#1E1E1E" stroke-linecap="round" stroke-linejoin="round" stroke-miterlimit="10" d="M-39.68,42.4
			v-0.004l-0.349-11.601h4.804h1.707h21.976l0.356,11.584l4.099-5.278c0,0,0.882-17.595-1.491-21.445
			c-0.861-1.391-1.786-2.744-2.854-3.99"/>
		<path fill="none" stroke="#1E1E1E" stroke-linecap="round" stroke-linejoin="round" stroke-miterlimit="10" d="M-40.809,11.923
			c-1.167,1.391-1.976,2.74-2.4,3.772c-1.789,4.371-1.615,20.902-1.615,20.902l5.145,5.798"/>
		<path fill="none" stroke="#1E1E1E" stroke-linecap="round" stroke-linejoin="round" stroke-miterlimit="10" d="M-39.68,42.396
			c0,0,4.219,3.484,12.006,3.764c1.134,0.045,2.341,0.019,3.62-0.099c3.684-0.328,7.978-1.386,12.832-3.665"/>
		<path fill="none" stroke="#1E1E1E" stroke-linecap="round" stroke-linejoin="round" stroke-miterlimit="10" d="M-33.05,51.814
			c0,0,0.11,0.058,0.312,0.145c0.258,0.108,0.671,0.28,1.212,0.468c0.406,0.14,0.883,0.294,1.419,0.436
			c1.155,0.312,2.575,0.588,4.121,0.655c0.241,0.011,0.479,0.019,0.719,0.019"/>
		<path fill="none" stroke="#1E1E1E" stroke-linecap="round" stroke-linejoin="round" stroke-miterlimit="10" d="M-27.674,46.164
			c0,0,0.319,2.988,0,3.416c-0.317,0.426-5.095,1.43-5.377,2.232"/>
		<path fill="none" stroke="#1E1E1E" stroke-linecap="round" stroke-linejoin="round" stroke-miterlimit="10" d="M-18.759,51.955
			c-0.024,0.008-0.07,0.035-0.147,0.07c-0.146,0.072-0.396,0.188-0.732,0.324c-1.152,0.472-3.292,1.188-5.629,1.188"/>
		<path fill="none" stroke="#1E1E1E" stroke-linecap="round" stroke-linejoin="round" stroke-miterlimit="10" d="M-24.042,46.164
			c0,0-0.319,2.988,0,3.416c0.321,0.426,5.033,1.563,5.3,2.364c0,0-0.006,0-0.013,0.004"/>
		<path fill="none" stroke="#1E1E1E" stroke-linecap="round" stroke-linejoin="round" stroke-miterlimit="10" d="M-31.729,84.727
			l-1.771-0.023c-0.066,0-0.127,0.009-0.186,0.023c-0.325,0.072-0.571,0.341-0.588,0.674c-0.159,3.071-0.739,15.37,0.06,19.71
			c0.312,1.707,1.714,4.816,3.586,5.771c0.51,0.263,1.123-0.09,1.123-0.647V85.477c0-0.406-0.333-0.732-0.751-0.736L-31.729,84.727z
			"/>
		<path fill="none" stroke="#1E1E1E" stroke-linecap="round" stroke-linejoin="round" stroke-miterlimit="10" d="M-19.048,84.727
			c0.319,0.072,0.567,0.344,0.585,0.684c0.159,3.106,0.744,15.557-0.056,19.952c-0.313,1.728-1.717,4.877-3.592,5.843
			c-0.508,0.263-1.123-0.096-1.123-0.654V85.484c0-0.408,0.335-0.74,0.754-0.744l1.475-0.017"/>
		<path fill="none" stroke="#1E1E1E" stroke-linecap="round" stroke-linejoin="round" stroke-miterlimit="10" d="M-32.096,51.986
			c-0.341-0.143-0.641-0.214-0.954-0.174v0.002c-0.973,0.134-2.045,1.422-4.721,5.51l0.471,0.179l2.656,0.996
			c-1.143,5.232-1.973,12.604-2.127,14.034c-0.018,0.16-0.027,0.246-0.027,0.246h0.024l-2.906,11.947h5.995h1.956h5.307h1.047h4.372
			h1.958h6.929l-2.901-11.938l-0.005-0.009h-0.08l-2.071-14.249l3.01-1.114l0.243-0.091c-2.558-4.669-3.478-5.6-4.834-5.377
			c0,0,0,0-0.004,0.007c-0.197,0.028-0.402,0.087-0.627,0.161"/>
		<path fill="none" stroke="#1E1E1E" stroke-linecap="round" stroke-linejoin="round" stroke-miterlimit="10" d="M-19.542,52.168
			c-1.272,0.45-3.064,1.345-6.447,1.351c-0.014,0-0.029,0-0.039,0c-1.839,0-3.118-0.304-4.081-0.653
			c-0.625-0.225-1.115-0.477-1.533-0.674"/>
		<path fill="none" stroke="#1E1E1E" stroke-linecap="round" stroke-linejoin="round" stroke-miterlimit="10" d="M-37.305,57.517
			c0,0-3.162,13.12-2.373,15.017c0.785,1.893,2.181,2.7,2.906,0"/>
		<path fill="none" stroke="#1E1E1E" stroke-linecap="round" stroke-linejoin="round" stroke-miterlimit="10" d="M-14.04,57.746
			c0,0,2.904,13.182,2.075,15.06c-0.821,1.877-2.234,2.657-2.903-0.059"/>
		<path fill="none" stroke="#1E1E1E" stroke-linecap="round" stroke-linejoin="round" stroke-miterlimit="10" d="M-15.103,8.166
			c0,0,1.242-6.769,5.679-6.769c4.438,0,6.682,8.625,10.469,10.469c0,0-4.495,4.575-12.267,0"/>
		
			<line fill="none" stroke="#1E1E1E" stroke-linecap="round" stroke-linejoin="round" stroke-miterlimit="10" x1="-11.434" y1="11.666" x2="-11.446" y2="11.651"/>
		<path fill="none" stroke="#1E1E1E" stroke-linecap="round" stroke-linejoin="round" stroke-miterlimit="10" d="M-36.829,8.166
			c0,0-1.243-6.769-5.68-6.769c-4.438,0-6.678,8.625-10.47,10.469c0,0,4.456,4.534,12.169,0.058
			c0.032-0.017,0.068-0.036,0.102-0.058"/>
		
			<line fill="none" stroke="#1E1E1E" stroke-linecap="round" stroke-linejoin="round" stroke-miterlimit="10" x1="-38.437" y1="30.624" x2="-38.437" y2="25.845"/>
		
			<line fill="none" stroke="#1E1E1E" stroke-linecap="round" stroke-linejoin="round" stroke-miterlimit="10" x1="-34.34" y1="30.624" x2="-34.34" y2="25.845"/>
		
			<line fill="none" stroke="#1E1E1E" stroke-linecap="round" stroke-linejoin="round" stroke-miterlimit="10" x1="-29.903" y1="30.624" x2="-29.903" y2="25.845"/>
		
			<line fill="none" stroke="#1E1E1E" stroke-linecap="round" stroke-linejoin="round" stroke-miterlimit="10" x1="-25.807" y1="30.624" x2="-25.807" y2="25.845"/>
		
			<line fill="none" stroke="#1E1E1E" stroke-linecap="round" stroke-linejoin="round" stroke-miterlimit="10" x1="-21.71" y1="30.624" x2="-21.71" y2="25.845"/>
		
			<line fill="none" stroke="#1E1E1E" stroke-linecap="round" stroke-linejoin="round" stroke-miterlimit="10" x1="-17.273" y1="30.624" x2="-17.273" y2="25.845"/>
		
			<line fill="none" stroke="#1E1E1E" stroke-linecap="round" stroke-linejoin="round" stroke-miterlimit="10" x1="-13.177" y1="30.624" x2="-13.177" y2="25.845"/>
		<path fill="none" stroke="#1E1E1E" stroke-linecap="round" stroke-linejoin="round" stroke-miterlimit="10" d="M-32.096,51.986
			c0.135,0.024,0.267,0.058,0.407,0.108c0,0,0.017,0.034,0.047,0.096c0.029,0.054,0.066,0.134,0.114,0.235
			c0.767,1.595,3.99,8.55,3.71,12.159h-4.304c0,0-1.268-11.196-2.499-11.541c0,0,0.713-0.977,1.881-1.085
			C-32.538,51.939-32.324,51.945-32.096,51.986z"/>
		<path fill="none" stroke="#1E1E1E" stroke-linecap="round" stroke-linejoin="round" stroke-miterlimit="10" d="M-19.542,52.168
			c0,0-0.035,0.061-0.097,0.182c-0.634,1.233-4.281,8.495-3.994,12.237h4.304c0,0,1.266-11.196,2.502-11.542
			c0,0-0.721-1.146-2.079-1.02c-0.152,0.016-0.309,0.044-0.48,0.091"/>
		<path fill="none" stroke="#1E1E1E" stroke-linecap="round" stroke-linejoin="round" stroke-miterlimit="10" d="M-14.401,8.839
			c0.362-0.314,0.833-0.506,1.347-0.506c1.128,0,2.047,0.915,2.047,2.049c0,0.479-0.166,0.919-0.439,1.268c0,0,0.002,0,0,0.003
			c-0.377,0.476-0.957,0.777-1.608,0.777c-1.131,0-2.049-0.918-2.049-2.047c0-0.615,0.268-1.167,0.7-1.54
			C-14.403,8.839-14.401,8.839-14.401,8.839z"/>
		<path fill="none" stroke="#1E1E1E" stroke-linecap="round" stroke-linejoin="round" stroke-miterlimit="10" d="M-37.444,8.753
			c0.379,0.37,0.615,0.887,0.615,1.461c0,1.128-0.919,2.047-2.048,2.047c-0.608,0-1.155-0.266-1.525-0.687
			c-0.022-0.021-0.038-0.04-0.057-0.062c-0.293-0.355-0.466-0.808-0.466-1.3c0-1.131,0.917-2.049,2.048-2.049
			c0.555,0,1.061,0.223,1.429,0.581C-37.444,8.75-37.444,8.753-37.444,8.753z"/>
	</g>
</g>
</svg>
