<?xml version="1.0" encoding="utf-8"?>
<!-- Generator: Adobe Illustrator 16.0.0, SVG Export Plug-In . SVG Version: 6.00 Build 0)  -->
<!DOCTYPE svg PUBLIC "-//W3C//DTD SVG 1.1//EN" "http://www.w3.org/Graphics/SVG/1.1/DTD/svg11.dtd">
<svg version="1.1" id="Layer_1" xmlns="http://www.w3.org/2000/svg" xmlns:xlink="http://www.w3.org/1999/xlink" x="0px" y="0px"
	 width="55.145px" height="50.02px" viewBox="0 -6.061 55.145 50.02" enable-background="new 0 -6.061 55.145 50.02"
	 xml:space="preserve">
<path fill="#FDEEE6" d="M55.145,31.073c0,6.691-6.372,12.116-14.233,12.116H14.42c-7.861,0-14.233-5.425-14.233-12.116v-6.88
	c0-6.691,6.372-12.116,14.233-12.116h26.491c7.861,0,14.233,5.425,14.233,12.116V31.073z"/>
<g>
	<g>
		<g>
			<g>
				<g>
					<ellipse fill="#FDF6F9" cx="27.378" cy="5.545" rx="27.377" ry="10.905"/>
				</g>
				<polygon fill="#FDEFE7" points="54.718,32.915 27.359,32.915 0,32.915 0,19.23 0,5.545 27.359,5.545 54.718,5.545 54.718,19.23 
									"/>
			</g>
		</g>
		<g>
			<g>
				<g>
					<ellipse fill="#FDF6F9" cx="27.378" cy="5.59" rx="27.294" ry="10.872"/>
				</g>
				<path fill="#FDEFE7" d="M0.191,5.845C0.257,5.818,27.259,5.802,27.36,5.802c0.101,0,27.103,0.016,27.168,0.042
					c0.066,0.026,0.107,13.524,0.107,13.564c0,0.035-0.03,13.528-0.081,13.552c-0.066,0.033-27.08,0.055-27.194,0.055
					c-0.115,0-27.128-0.021-27.195-0.055c-0.051-0.024-0.081-13.518-0.081-13.552C0.084,19.369,0.125,5.871,0.191,5.845z"/>
				<rect x="26.993" y="13.912" fill="#FDEFE7" width="0.73" height="0.365"/>
			</g>
		</g>
		<g>
			<g>
				<g>
					<ellipse fill="#FDF6F8" cx="27.377" cy="5.636" rx="27.211" ry="10.839"/>
				</g>
				<path fill="#FDEFE7" d="M0.381,6.146C0.513,6.093,27.158,6.061,27.36,6.061c0.202,0,26.846,0.032,26.979,0.085
					c0.132,0.053,0.214,13.362,0.214,13.442c0,0.069-0.061,13.369-0.162,13.419c-0.134,0.066-26.801,0.108-27.031,0.108
					S0.463,33.073,0.329,33.007c-0.102-0.05-0.162-13.35-0.162-13.419C0.167,19.507,0.249,6.198,0.381,6.146z"/>
				<rect x="26.628" y="13.819" fill="#FDEFE7" width="1.461" height="0.731"/>
			</g>
		</g>
		<g>
			<g>
				<g>
					<ellipse fill="#FDF5F8" cx="27.378" cy="5.681" rx="27.127" ry="10.806"/>
				</g>
				<path fill="#FDEFE7" d="M0.572,6.445C0.77,6.366,27.057,6.317,27.36,6.317c0.303,0,26.59,0.049,26.789,0.128
					s0.321,13.201,0.321,13.321c0,0.104-0.091,13.211-0.243,13.286c-0.201,0.1-26.522,0.163-26.867,0.163
					c-0.345,0-26.666-0.063-26.867-0.163C0.341,32.978,0.25,19.87,0.25,19.767C0.25,19.646,0.373,6.524,0.572,6.445z"/>
				<rect x="26.263" y="13.725" fill="#FDEFE7" width="2.191" height="1.096"/>
			</g>
		</g>
		<g>
			<g>
				<g>
					<ellipse fill="#FDF5F7" cx="27.378" cy="5.727" rx="27.044" ry="10.772"/>
				</g>
				<path fill="#FDEFE7" d="M0.761,6.746c0.265-0.105,26.195-0.171,26.599-0.171s26.334,0.065,26.599,0.171
					s0.429,13.039,0.429,13.199c0,0.139-0.122,13.054-0.324,13.153c-0.268,0.132-26.243,0.217-26.703,0.217
					S0.925,33.23,0.657,33.099c-0.203-0.1-0.324-13.015-0.324-13.153C0.333,19.785,0.497,6.852,0.761,6.746z"/>
				<rect x="25.898" y="13.632" fill="#FDEFE7" width="2.923" height="1.461"/>
			</g>
		</g>
		<g>
			<g>
				<g>
					<ellipse fill="#FDF5F7" cx="27.378" cy="5.772" rx="26.961" ry="10.74"/>
				</g>
				<path fill="#FDEFE7" d="M0.952,7.046c0.331-0.132,25.904-0.213,26.409-0.213c0.504,0,26.078,0.082,26.409,0.213
					c0.331,0.131,0.535,12.877,0.535,13.078c0,0.173-0.151,12.895-0.404,13.02c-0.336,0.166-25.965,0.271-26.54,0.271
					c-0.575,0-26.205-0.105-26.54-0.271c-0.253-0.124-0.405-12.847-0.405-13.02C0.416,19.923,0.621,7.178,0.952,7.046z"/>
				<rect x="25.532" y="13.539" fill="#FDEFE7" width="3.653" height="1.827"/>
			</g>
		</g>
		<g>
			<g>
				<g>
					<ellipse fill="#FDF5F7" cx="27.377" cy="5.818" rx="26.878" ry="10.706"/>
				</g>
				<path fill="#FDEFE7" d="M1.142,7.347c0.397-0.158,25.613-0.256,26.219-0.256c0.605,0,25.822,0.098,26.218,0.256
					c0.397,0.158,0.643,12.715,0.643,12.957c0,0.208-0.182,12.737-0.485,12.887c-0.402,0.198-25.686,0.325-26.375,0.325
					S1.387,33.389,0.986,33.19C0.681,33.04,0.5,20.511,0.5,20.303C0.5,20.062,0.745,7.504,1.142,7.347z"/>
				<rect x="25.167" y="13.446" fill="#FDEFE7" width="4.384" height="2.193"/>
			</g>
		</g>
		<g>
			<g>
				<g>
					<ellipse fill="#FDF5F6" cx="27.377" cy="5.863" rx="26.795" ry="10.673"/>
				</g>
				<path fill="#FDEFE7" d="M1.332,7.646c0.463-0.184,25.323-0.298,26.029-0.298S52.927,7.462,53.39,7.646
					c0.463,0.185,0.75,12.554,0.75,12.836c0,0.242-0.213,12.579-0.567,12.754c-0.469,0.231-25.406,0.38-26.211,0.38
					c-0.805,0-25.743-0.148-26.212-0.38c-0.354-0.175-0.567-12.512-0.567-12.754C0.583,20.201,0.869,7.831,1.332,7.646z"/>
				<rect x="24.802" y="13.353" fill="#FDEFE7" width="5.114" height="2.558"/>
			</g>
		</g>
		<g>
			<g>
				<g>
					<ellipse fill="#FDF5F6" cx="27.378" cy="5.909" rx="26.711" ry="10.64"/>
				</g>
				<path fill="#FDEFE7" d="M1.523,7.947c0.529-0.211,25.031-0.341,25.839-0.341c0.807,0,25.309,0.13,25.838,0.341
					s0.856,12.393,0.856,12.714c0,0.277-0.242,12.421-0.647,12.621c-0.536,0.265-25.128,0.434-26.047,0.434
					c-0.92,0-25.512-0.169-26.048-0.434c-0.405-0.199-0.647-12.344-0.647-12.621C0.667,20.34,0.994,8.158,1.523,7.947z"/>
				<rect x="24.437" y="13.259" fill="#FDEFE7" width="5.844" height="2.923"/>
			</g>
		</g>
		<g>
			<g>
				<g>
					<ellipse fill="#FDF4F6" cx="27.377" cy="5.954" rx="26.628" ry="10.607"/>
				</g>
				<path fill="#FDEFE7" d="M1.713,8.247c0.595-0.237,24.74-0.384,25.649-0.384S52.415,8.01,53.011,8.247
					c0.595,0.237,0.963,12.23,0.963,12.593c0,0.312-0.272,12.264-0.729,12.488c-0.603,0.298-24.849,0.488-25.883,0.488
					c-1.035,0-25.281-0.19-25.884-0.488C1.022,33.104,0.749,21.151,0.749,20.84C0.749,20.478,1.117,8.484,1.713,8.247z"/>
				<rect x="24.072" y="13.166" fill="#FDEFE7" width="6.575" height="3.289"/>
			</g>
		</g>
		<g>
			<g>
				<g>
					<ellipse fill="#FDF4F5" cx="27.378" cy="6" rx="26.545" ry="10.573"/>
				</g>
				<path fill="#FDEFE7" d="M1.904,8.548c0.662-0.264,24.449-0.427,25.459-0.427c1.009,0,24.797,0.163,25.458,0.427
					c0.662,0.263,1.071,12.069,1.071,12.471c0,0.347-0.304,12.105-0.81,12.355c-0.67,0.331-24.57,0.542-25.72,0.542
					c-1.15,0-25.05-0.211-25.72-0.542c-0.506-0.25-0.81-12.009-0.81-12.355C0.833,20.617,1.242,8.811,1.904,8.548z"/>
				<rect x="23.706" y="13.073" fill="#FDEFE7" width="7.306" height="3.654"/>
			</g>
		</g>
		<g>
			<g>
				<g>
					<ellipse fill="#FDF4F5" cx="27.378" cy="6.045" rx="26.462" ry="10.541"/>
				</g>
				<path fill="#FDEFE7" d="M2.094,8.848c0.728-0.29,24.158-0.469,25.269-0.469s24.541,0.179,25.269,0.469
					c0.728,0.29,1.178,11.908,1.178,12.35c0,0.381-0.334,11.948-0.891,12.223c-0.737,0.364-24.291,0.597-25.556,0.597
					c-1.265,0-24.819-0.232-25.556-0.597c-0.557-0.274-0.89-11.842-0.89-12.223C0.916,20.756,1.366,9.138,2.094,8.848z"/>
				<rect x="23.341" y="12.98" fill="#FDEFE7" width="8.037" height="4.02"/>
			</g>
		</g>
		<g>
			<g>
				<g>
					<ellipse fill="#FDF4F4" cx="27.378" cy="6.091" rx="26.378" ry="10.507"/>
				</g>
				<path fill="#FDEFE7" d="M2.284,9.148c0.794-0.316,23.867-0.512,25.079-0.512c1.211,0,24.285,0.196,25.079,0.512
					c0.793,0.316,1.284,11.746,1.284,12.228c0,0.416-0.363,11.79-0.972,12.09c-0.804,0.396-24.012,0.65-25.392,0.65
					c-1.38,0-24.588-0.254-25.392-0.65c-0.607-0.3-0.971-11.674-0.971-12.09C0.999,20.894,1.49,9.464,2.284,9.148z"/>
				<rect x="22.976" y="12.886" fill="#FDEFE7" width="8.767" height="4.386"/>
			</g>
		</g>
		<g>
			<g>
				<g>
					<ellipse fill="#FDF4F4" cx="27.378" cy="6.136" rx="26.295" ry="10.474"/>
				</g>
				<path fill="#FDEFE7" d="M2.474,9.448c0.86-0.343,23.577-0.555,24.889-0.555c1.312,0,24.029,0.212,24.888,0.555
					c0.86,0.342,1.393,11.584,1.393,12.107c0,0.449-0.395,11.631-1.053,11.956c-0.871,0.43-23.733,0.705-25.228,0.705
					c-1.495,0-24.357-0.275-25.229-0.705c-0.658-0.324-1.052-11.507-1.052-11.956C1.082,21.032,1.615,9.791,2.474,9.448z"/>
				<rect x="22.611" y="12.793" fill="#FDEFE7" width="9.498" height="4.751"/>
			</g>
		</g>
		<g>
			<g>
				<g>
					<ellipse fill="#FDF3F4" cx="27.378" cy="6.182" rx="26.211" ry="10.441"/>
				</g>
				<path fill="#FDEFE7" d="M2.665,9.748C3.591,9.379,25.95,9.151,27.364,9.151c1.413,0,23.772,0.228,24.699,0.597
					c0.926,0.369,1.498,11.423,1.498,11.986c0,0.484-0.424,11.474-1.133,11.824c-0.938,0.462-23.455,0.759-25.064,0.759
					c-1.61,0-24.126-0.296-25.064-0.759c-0.709-0.351-1.133-11.34-1.133-11.824C1.166,21.171,1.739,10.117,2.665,9.748z"/>
				<rect x="22.245" y="12.7" fill="#FDEFE7" width="10.229" height="5.116"/>
			</g>
		</g>
		<g>
			<g>
				<g>
					<ellipse fill="#FDF3F3" cx="27.378" cy="6.227" rx="26.128" ry="10.408"/>
				</g>
				<path fill="#FDEFE7" d="M2.855,10.049c0.992-0.395,22.994-0.64,24.508-0.64c1.515,0,23.517,0.245,24.509,0.64
					c0.992,0.396,1.606,11.262,1.606,11.864c0,0.52-0.455,11.315-1.215,11.69c-1.005,0.496-23.175,0.813-24.9,0.813
					c-1.725,0-23.896-0.317-24.9-0.812c-0.759-0.375-1.214-11.172-1.214-11.691C1.249,21.311,1.863,10.444,2.855,10.049z"/>
				<rect x="21.881" y="12.606" fill="#FDEFE7" width="10.958" height="5.482"/>
			</g>
		</g>
		<g>
			<g>
				<g>
					<ellipse fill="#FDF3F3" cx="27.378" cy="6.272" rx="26.046" ry="10.375"/>
				</g>
				<path fill="#FDEFE7" d="M3.046,10.349c1.059-0.421,22.704-0.682,24.319-0.682c1.614,0,23.261,0.261,24.318,0.682
					c1.059,0.421,1.714,11.1,1.714,11.743c0,0.555-0.485,11.158-1.296,11.559c-1.071,0.528-22.896,0.867-24.736,0.867
					c-1.84,0-23.665-0.338-24.737-0.867c-0.81-0.4-1.295-11.004-1.295-11.559C1.333,21.449,1.988,10.771,3.046,10.349z"/>
				<rect x="21.515" y="12.514" fill="#FDEFE7" width="11.689" height="5.848"/>
			</g>
		</g>
		<g>
			<g>
				<g>
					<ellipse fill="#FDF3F3" cx="27.378" cy="6.318" rx="25.962" ry="10.341"/>
				</g>
				<path fill="#FDEFE7" d="M3.236,10.649c1.125-0.448,22.413-0.725,24.129-0.725c1.716,0,23.004,0.277,24.128,0.725
					c1.125,0.448,1.82,10.938,1.82,11.622c0,0.588-0.516,10.999-1.376,11.424c-1.139,0.562-22.617,0.922-24.572,0.922
					S3.931,34.258,2.791,33.695c-0.86-0.424-1.376-10.836-1.376-11.424C1.415,21.587,2.111,11.098,3.236,10.649z"/>
				<rect x="21.15" y="12.42" fill="#FDEFE7" width="12.42" height="6.213"/>
			</g>
		</g>
		<g>
			<g>
				<g>
					<ellipse fill="#FDF3F2" cx="27.377" cy="6.363" rx="25.879" ry="10.309"/>
				</g>
				<path fill="#FDEFE7" d="M3.426,10.949c1.19-0.475,22.121-0.768,23.938-0.768s22.747,0.293,23.938,0.768
					c1.19,0.474,1.927,10.776,1.927,11.5c0,0.623-0.546,10.842-1.457,11.292c-1.206,0.595-22.339,0.977-24.408,0.977
					c-2.07,0-23.203-0.381-24.409-0.976c-0.911-0.45-1.457-10.67-1.457-11.293C1.499,21.726,2.235,11.423,3.426,10.949z"/>
				<rect x="20.784" y="12.327" fill="#FDEFE7" width="13.151" height="6.578"/>
			</g>
		</g>
		<g>
			<g>
				<g>
					<ellipse fill="#FDF3F2" cx="27.378" cy="6.409" rx="25.795" ry="10.275"/>
				</g>
				<path fill="#FDEFE7" d="M3.616,11.25c1.257-0.501,21.83-0.811,23.749-0.811s22.492,0.31,23.749,0.811
					c1.257,0.5,2.034,10.614,2.034,11.379c0,0.657-0.576,10.684-1.538,11.158c-1.273,0.629-22.06,1.03-24.245,1.03
					S4.393,34.416,3.12,33.787c-0.962-0.475-1.538-10.501-1.538-11.158C1.582,21.864,2.36,11.75,3.616,11.25z"/>
				<rect x="20.419" y="12.234" fill="#FDEFE7" width="13.881" height="6.943"/>
			</g>
		</g>
		<g>
			<g>
				<g>
					<ellipse fill="#FDF2F1" cx="27.378" cy="6.455" rx="25.712" ry="10.242"/>
				</g>
				<path fill="#FDEFE7" d="M3.807,11.55c1.323-0.526,21.54-0.853,23.559-0.853c2.019,0,22.235,0.326,23.559,0.853
					c1.323,0.527,2.142,10.454,2.142,11.258c0,0.692-0.606,10.526-1.619,11.026c-1.341,0.661-21.781,1.084-24.081,1.084
					S4.625,34.495,3.284,33.834c-1.012-0.5-1.619-10.334-1.619-11.026C1.666,22.004,2.484,12.077,3.807,11.55z"/>
				<rect x="20.054" y="12.141" fill="#FDEFE7" width="14.612" height="7.309"/>
			</g>
		</g>
		<g>
			<g>
				<g>
					<ellipse fill="#FDF2F1" cx="27.378" cy="6.5" rx="25.629" ry="10.209"/>
				</g>
				<path fill="#FDEFE7" d="M3.997,11.851c1.389-0.554,21.249-0.896,23.369-0.896s21.979,0.342,23.369,0.896
					c1.389,0.553,2.248,10.291,2.248,11.136c0,0.727-0.637,10.368-1.7,10.893c-1.407,0.694-21.502,1.139-23.917,1.139
					s-22.51-0.443-23.917-1.139c-1.063-0.524-1.7-10.166-1.7-10.893C1.748,22.142,2.608,12.404,3.997,11.851z"/>
				<rect x="19.689" y="12.047" fill="#FDEFE7" width="15.343" height="7.674"/>
			</g>
		</g>
		<g>
			<g>
				<g>
					<ellipse fill="#FDF2F1" cx="27.378" cy="6.545" rx="25.546" ry="10.176"/>
				</g>
				<path fill="#FDEFE7" d="M4.187,12.15c1.456-0.58,20.958-0.938,23.178-0.938s21.724,0.358,23.179,0.938
					c1.455,0.58,2.355,10.13,2.355,11.015c0,0.762-0.667,10.21-1.781,10.76c-1.474,0.728-21.223,1.193-23.753,1.193
					S5.087,34.652,3.613,33.926c-1.114-0.551-1.781-9.999-1.781-10.761C1.832,22.28,2.732,12.73,4.187,12.15z"/>
				<rect x="19.323" y="11.954" fill="#FDEFE7" width="16.074" height="8.04"/>
			</g>
		</g>
		<g>
			<g>
				<g>
					<ellipse fill="#FDF2F0" cx="27.378" cy="6.591" rx="25.462" ry="10.143"/>
				</g>
				<path fill="#FDEFE7" d="M4.378,12.451c1.521-0.606,20.667-0.981,22.989-0.981c2.321,0,21.467,0.375,22.988,0.981
					c1.521,0.606,2.462,9.968,2.462,10.893c0,0.797-0.697,10.053-1.861,10.627c-1.541,0.761-20.944,1.247-23.589,1.247
					c-2.646,0-22.049-0.486-23.59-1.247c-1.164-0.574-1.861-9.83-1.861-10.627C1.915,22.419,2.856,13.057,4.378,12.451z"/>
				<rect x="18.958" y="11.861" fill="#FDEFE7" width="16.804" height="8.405"/>
			</g>
		</g>
		<g>
			<g>
				<g>
					<ellipse fill="#FDF2F0" cx="27.379" cy="6.637" rx="25.379" ry="10.109"/>
				</g>
				<path fill="#FDEFE7" d="M4.569,12.751c1.588-0.632,20.375-1.023,22.798-1.023c2.422,0,21.21,0.392,22.798,1.023
					c1.588,0.633,2.569,9.808,2.569,10.772c0,0.83-0.728,9.895-1.942,10.494c-1.608,0.793-20.665,1.301-23.425,1.301
					S5.55,34.811,3.942,34.018c-1.215-0.6-1.942-9.664-1.942-10.494C1.999,22.559,2.981,13.384,4.569,12.751z"/>
				<rect x="18.593" y="11.768" fill="#FDEFE7" width="17.534" height="8.771"/>
			</g>
		</g>
		<g>
			<g>
				<g>
					<ellipse fill="#FDF1F0" cx="27.378" cy="6.682" rx="25.296" ry="10.076"/>
				</g>
				<path fill="#FDEFE7" d="M4.758,13.051c1.654-0.658,20.085-1.066,22.609-1.066s20.955,0.408,22.608,1.066
					c1.654,0.659,2.677,9.646,2.677,10.651c0,0.865-0.758,9.736-2.023,10.361c-1.675,0.826-20.386,1.355-23.261,1.355
					S5.781,34.891,4.105,34.063c-1.265-0.625-2.023-9.496-2.023-10.361C2.082,22.696,3.105,13.71,4.758,13.051z"/>
				<rect x="18.228" y="11.675" fill="#FDEFE7" width="18.265" height="9.136"/>
			</g>
		</g>
		<g>
			<g>
				<g>
					<ellipse fill="#FDF1EF" cx="27.378" cy="6.727" rx="25.212" ry="10.043"/>
				</g>
				<path fill="#FDEFE7" d="M4.948,13.352c1.72-0.686,19.794-1.109,22.419-1.109c2.624,0,20.698,0.424,22.418,1.109
					c1.72,0.685,2.784,9.483,2.784,10.529c0,0.899-0.788,9.578-2.105,10.228c-1.741,0.859-20.107,1.41-23.097,1.41
					c-2.99,0-21.356-0.55-23.098-1.409c-1.316-0.65-2.104-9.329-2.104-10.229C2.165,22.835,3.229,14.036,4.948,13.352z"/>
				<rect x="17.863" y="11.581" fill="#FDEFE7" width="18.995" height="9.502"/>
			</g>
		</g>
		<g>
			<g>
				<g>
					<ellipse fill="#FDF1EF" cx="27.378" cy="6.772" rx="25.129" ry="10.01"/>
				</g>
				<path fill="#FDEFE7" d="M5.139,13.651C6.925,12.94,24.642,12.5,27.367,12.5s20.442,0.44,22.229,1.151
					c1.786,0.712,2.891,9.322,2.891,10.408c0,0.935-0.818,9.421-2.186,10.096c-1.809,0.893-19.828,1.464-22.934,1.464
					c-3.105,0-21.125-0.571-22.934-1.464C3.067,33.48,2.248,24.994,2.248,24.06C2.248,22.974,3.353,14.363,5.139,13.651z"/>
				<rect x="17.497" y="11.488" fill="#FDEFE7" width="19.726" height="9.867"/>
			</g>
		</g>
		<g>
			<g>
				<g>
					<ellipse fill="#FDF1EE" cx="27.378" cy="6.818" rx="25.046" ry="9.977"/>
				</g>
				<path fill="#FDEFE7" d="M5.329,13.952c1.853-0.737,19.212-1.194,22.039-1.194c2.826,0,20.186,0.457,22.038,1.194
					c1.852,0.738,2.998,9.161,2.998,10.286c0,0.97-0.85,9.263-2.268,9.963c-1.876,0.926-19.549,1.518-22.769,1.518
					c-3.221,0-20.894-0.592-22.771-1.518c-1.417-0.699-2.266-8.993-2.266-9.963C2.332,23.113,3.478,14.69,5.329,13.952z"/>
				<rect x="17.132" y="11.396" fill="#FDEFE7" width="20.457" height="10.232"/>
			</g>
		</g>
		<g>
			<g>
				<g>
					<ellipse fill="#FDF1EE" cx="27.378" cy="6.863" rx="24.963" ry="9.944"/>
				</g>
				<path fill="#FDEFE7" d="M5.52,14.252c1.918-0.764,18.921-1.236,21.849-1.236c2.927,0,19.93,0.473,21.849,1.236
					c1.918,0.765,3.104,8.999,3.104,10.166c0,1.003-0.88,9.104-2.348,9.829c-1.943,0.958-19.271,1.572-22.605,1.572
					S6.705,35.206,4.762,34.247c-1.468-0.725-2.347-8.826-2.347-9.829C2.415,23.251,3.601,15.017,5.52,14.252z"/>
				<rect x="16.767" y="11.302" fill="#FDEFE7" width="21.188" height="10.598"/>
			</g>
		</g>
		<g>
			<g>
				<g>
					<ellipse fill="#FDF1EE" cx="27.378" cy="6.909" rx="24.88" ry="9.91"/>
				</g>
				<path fill="#FDEFE7" d="M5.71,14.553c1.984-0.791,18.63-1.28,21.658-1.28s19.673,0.489,21.658,1.28
					c1.984,0.79,3.212,8.837,3.212,10.043c0,1.039-0.91,8.947-2.429,9.696c-2.01,0.992-18.991,1.627-22.441,1.627
					S6.936,35.284,4.926,34.293c-1.519-0.75-2.428-8.658-2.428-9.697C2.498,23.39,3.725,15.343,5.71,14.553z"/>
				<rect x="16.402" y="11.208" fill="#FDEFE7" width="21.918" height="10.964"/>
			</g>
		</g>
		<g>
			<g>
				<g>
					<ellipse fill="#FDF0ED" cx="27.378" cy="6.955" rx="24.796" ry="9.877"/>
				</g>
				<path fill="#FDEFE7" d="M5.901,14.853c2.051-0.817,18.339-1.322,21.468-1.322c3.13,0,19.418,0.505,21.469,1.322
					s3.319,8.677,3.319,9.923c0,1.072-0.94,8.789-2.51,9.562c-2.077,1.025-18.713,1.682-22.278,1.682
					c-3.564,0-20.201-0.656-22.278-1.681c-1.568-0.774-2.509-8.491-2.509-9.563C2.581,23.529,3.85,15.669,5.901,14.853z"/>
				<rect x="16.036" y="11.115" fill="#FDEFE7" width="22.648" height="11.329"/>
			</g>
		</g>
		<g>
			<g>
				<g>
					<ellipse fill="#FDF0ED" cx="27.378" cy="7" rx="24.713" ry="9.844"/>
				</g>
				<path fill="#FDEFE7" d="M6.091,15.153c2.117-0.844,18.048-1.365,21.279-1.365c3.229,0,19.161,0.521,21.277,1.365
					c2.117,0.843,3.427,8.514,3.427,9.801c0,1.107-0.97,8.631-2.591,9.431c-2.144,1.058-18.434,1.734-22.113,1.734
					c-3.681,0-19.97-0.677-22.115-1.734c-1.62-0.8-2.59-8.323-2.59-9.431C2.665,23.667,3.974,15.996,6.091,15.153z"/>
				<rect x="15.671" y="11.021" fill="#FDEFE7" width="23.379" height="11.695"/>
			</g>
		</g>
		<g>
			<g>
				<g>
					<ellipse fill="#FDF0ED" cx="27.378" cy="7.045" rx="24.63" ry="9.811"/>
				</g>
				<path fill="#FDEFE7" d="M6.281,15.453c2.183-0.87,17.757-1.407,21.088-1.407s18.905,0.538,21.088,1.407
					c2.184,0.87,3.533,8.353,3.533,9.68c0,1.143-1,8.473-2.671,9.297c-2.211,1.092-18.155,1.79-21.95,1.79S7.63,35.521,5.419,34.431
					c-1.671-0.825-2.671-8.155-2.671-9.298C2.748,23.806,4.098,16.323,6.281,15.453z"/>
				<rect x="15.306" y="10.929" fill="#FDEFE7" width="24.11" height="12.06"/>
			</g>
		</g>
		<g>
			<g>
				<g>
					<ellipse fill="#FDF0EC" cx="27.378" cy="7.091" rx="24.547" ry="9.778"/>
				</g>
				<path fill="#FDEFE7" d="M6.471,15.754c2.25-0.896,17.466-1.45,20.898-1.45c3.433,0,18.649,0.554,20.898,1.45
					c2.249,0.896,3.641,8.19,3.641,9.559c0,1.176-1.031,8.314-2.753,9.164c-2.278,1.124-17.876,1.843-21.786,1.843
					S7.862,35.601,5.583,34.477c-1.721-0.85-2.752-7.988-2.752-9.164C2.831,23.944,4.222,16.649,6.471,15.754z"/>
				<rect x="14.941" y="10.836" fill="#FDEFE7" width="24.841" height="12.425"/>
			</g>
		</g>
		<g>
			<g>
				<g>
					<ellipse fill="#FDF0EC" cx="27.378" cy="7.137" rx="24.463" ry="9.744"/>
				</g>
				<path fill="#FDEFE7" d="M6.661,16.054c2.316-0.922,17.176-1.493,20.709-1.493c3.532,0,18.393,0.57,20.708,1.493
					s3.747,8.029,3.747,9.437c0,1.212-1.061,8.157-2.833,9.031C46.647,35.68,31.395,36.42,27.37,36.42
					c-4.025,0-19.278-0.74-21.623-1.897c-1.772-0.874-2.833-7.82-2.833-9.032C2.914,24.083,4.346,16.976,6.661,16.054z"/>
				<rect x="14.575" y="10.743" fill="#FDEFE7" width="25.571" height="12.791"/>
			</g>
		</g>
		<g>
			<g>
				<g>
					<ellipse fill="#FDF0EB" cx="27.378" cy="7.182" rx="24.38" ry="9.712"/>
				</g>
				<path fill="#FDEFE7" d="M6.852,16.354c2.382-0.949,16.884-1.536,20.519-1.536c3.634,0,18.137,0.587,20.518,1.536
					c2.382,0.948,3.854,7.867,3.854,9.315c0,1.246-1.091,7.998-2.914,8.898C46.416,35.758,31.51,36.52,27.37,36.52
					c-4.141,0-19.047-0.761-21.459-1.951c-1.822-0.899-2.914-7.652-2.914-8.898C2.997,24.222,4.47,17.303,6.852,16.354z"/>
				<rect x="14.21" y="10.649" fill="#FDEFE7" width="26.302" height="13.156"/>
			</g>
		</g>
		<g>
			<g>
				<g>
					<ellipse fill="#FDEFEB" cx="27.378" cy="7.228" rx="24.297" ry="9.678"/>
				</g>
				<path fill="#FDEFE7" d="M7.042,16.654c2.448-0.975,16.593-1.578,20.328-1.578c3.735,0,17.881,0.603,20.328,1.578
					c2.448,0.975,3.962,7.706,3.962,9.194c0,1.28-1.122,7.841-2.996,8.765c-2.479,1.224-17.039,2.007-21.294,2.007
					c-4.255,0-18.815-0.782-21.295-2.006c-1.873-0.925-2.995-7.485-2.995-8.766C3.081,24.36,4.594,17.629,7.042,16.654z"/>
				<rect x="13.845" y="10.556" fill="#FDEFE7" width="27.032" height="13.522"/>
			</g>
		</g>
		<g>
			<g>
				<g>
					<ellipse fill="#FDEFEB" cx="27.378" cy="7.273" rx="24.214" ry="9.645"/>
				</g>
				<path fill="#FDEFE7" d="M7.233,16.954c2.514-1.001,16.302-1.62,20.138-1.62c3.836,0,17.625,0.619,20.138,1.62
					c2.514,1.002,4.068,7.545,4.068,9.073c0,1.315-1.152,7.683-3.076,8.633c-2.546,1.256-16.761,2.061-21.13,2.061
					c-4.37,0-18.584-0.804-21.131-2.061c-1.924-0.949-3.075-7.317-3.075-8.633C3.164,24.499,4.719,17.956,7.233,16.954z"/>
				<rect x="13.48" y="10.463" fill="#FDEFE7" width="27.763" height="13.887"/>
			</g>
		</g>
		<g>
			<g>
				<g>
					<ellipse fill="#FDEFEA" cx="27.378" cy="7.318" rx="24.13" ry="9.612"/>
				</g>
				<path fill="#FDEFE7" d="M7.423,17.255c2.581-1.028,16.011-1.664,19.949-1.664c3.937,0,17.368,0.636,19.948,1.664
					c2.579,1.028,4.175,7.383,4.175,8.951c0,1.351-1.182,7.524-3.156,8.499c-2.613,1.29-16.482,2.115-20.967,2.115
					c-4.485,0-18.354-0.824-20.967-2.114c-1.975-0.975-3.157-7.149-3.157-8.5C3.247,24.638,4.843,18.283,7.423,17.255z"/>
				<rect x="13.115" y="10.369" fill="#FDEFE7" width="28.493" height="14.253"/>
			</g>
		</g>
		<g>
			<g>
				<g>
					<ellipse fill="#FDEFEA" cx="27.378" cy="7.364" rx="24.047" ry="9.578"/>
				</g>
				<path fill="#FDEFE7" d="M7.614,17.555c2.646-1.054,15.72-1.705,19.758-1.705c4.037,0,17.112,0.651,19.758,1.705
					c2.646,1.055,4.282,7.222,4.282,8.83c0,1.385-1.213,7.367-3.238,8.367c-2.68,1.322-16.203,2.169-20.802,2.169
					c-4.601,0-18.124-0.847-20.804-2.169C4.543,33.753,3.33,27.77,3.33,26.385C3.33,24.776,4.967,18.609,7.614,17.555z"/>
				<rect x="12.749" y="10.276" fill="#FDEFE7" width="29.224" height="14.618"/>
			</g>
		</g>
		<g>
			<g>
				<g>
					<ellipse fill="#FDEFEA" cx="27.378" cy="7.41" rx="23.964" ry="9.545"/>
				</g>
				<path fill="#FDEFE7" d="M7.803,17.855c2.712-1.081,15.429-1.749,19.568-1.749c4.138,0,16.856,0.668,19.568,1.749
					c2.713,1.08,4.391,7.06,4.391,8.709c0,1.418-1.244,7.209-3.32,8.232c-2.746,1.355-15.924,2.224-20.638,2.224
					c-4.715,0-17.892-0.867-20.64-2.222c-2.075-1.025-3.318-6.816-3.318-8.234C3.414,24.915,5.092,18.936,7.803,17.855z"/>
				<rect x="12.384" y="10.184" fill="#FDEFE7" width="29.954" height="14.983"/>
			</g>
		</g>
		<g>
			<g>
				<g>
					<ellipse fill="#FDEEE9" cx="27.378" cy="7.455" rx="23.88" ry="9.512"/>
				</g>
				<path fill="#FDEFE7" d="M7.993,18.155c2.779-1.106,15.139-1.791,19.379-1.791c4.239,0,16.6,0.685,19.378,1.791
					c2.778,1.107,4.496,6.898,4.496,8.587c0,1.455-1.273,7.052-3.399,8.102c-2.813,1.388-15.646,2.277-20.475,2.277
					c-4.831,0-17.661-0.889-20.476-2.277c-2.126-1.05-3.399-6.646-3.399-8.102C3.497,25.054,5.215,19.263,7.993,18.155z"/>
				<rect x="12.019" y="10.09" fill="#FDEFE7" width="30.685" height="15.35"/>
			</g>
		</g>
		<g>
			<g>
				<g>
					<ellipse fill="#FDEEE9" cx="27.378" cy="7.5" rx="23.798" ry="9.479"/>
				</g>
				<path fill="#FDEFE7" d="M8.184,18.456c2.845-1.134,14.847-1.834,19.188-1.834c4.34,0,16.343,0.7,19.188,1.834
					c2.844,1.133,4.604,6.736,4.604,8.466c0,1.488-1.304,6.893-3.481,7.968c-2.881,1.421-15.366,2.331-20.31,2.331
					c-4.946,0-17.431-0.909-20.312-2.33c-2.177-1.075-3.48-6.48-3.48-7.969C3.58,25.192,5.34,19.589,8.184,18.456z"/>
				<rect x="11.654" y="9.997" fill="#FDEFE7" width="31.416" height="15.714"/>
			</g>
		</g>
		<g>
			<g>
				<g>
					<ellipse fill="#FDEEE8" cx="27.378" cy="7.546" rx="23.714" ry="9.446"/>
				</g>
				<path fill="#FDEFE7" d="M8.374,18.756c2.911-1.159,14.557-1.876,18.999-1.876s16.087,0.717,18.999,1.876
					c2.91,1.16,4.711,6.575,4.711,8.345c0,1.522-1.334,6.735-3.562,7.835c-2.948,1.455-15.087,2.386-20.147,2.386
					c-5.061,0-17.2-0.931-20.148-2.386c-2.228-1.1-3.562-6.312-3.562-7.835C3.663,25.331,5.464,19.916,8.374,18.756z"/>
				<rect x="11.288" y="9.904" fill="#FDEFE7" width="32.146" height="16.08"/>
			</g>
		</g>
		<g>
			<g>
				<g>
					<ellipse fill="#FDEEE8" cx="27.378" cy="7.591" rx="23.631" ry="9.414"/>
				</g>
				<path fill="#FDEFE7" d="M8.565,19.057c2.977-1.187,14.266-1.92,18.809-1.92c4.542,0,15.831,0.733,18.808,1.92
					c2.977,1.186,4.818,6.413,4.818,8.223c0,1.558-1.364,6.577-3.644,7.702c-3.015,1.487-14.808,2.439-19.982,2.439
					c-5.175,0-16.969-0.951-19.984-2.438c-2.278-1.125-3.642-6.146-3.642-7.703C3.747,25.47,5.588,20.242,8.565,19.057z"/>
				<rect x="10.923" y="9.81" fill="#FDEFE7" width="32.877" height="16.446"/>
			</g>
		</g>
		<g>
			<g>
				<g>
					<ellipse fill="#FDEEE8" cx="27.378" cy="7.637" rx="23.548" ry="9.38"/>
				</g>
				<path fill="#FDEFE7" d="M8.756,19.356c3.043-1.212,13.974-1.962,18.618-1.962c4.643,0,15.575,0.75,18.618,1.962
					c3.043,1.212,4.925,6.252,4.925,8.103c0,1.592-1.395,6.418-3.724,7.568c-3.082,1.521-14.529,2.494-19.819,2.494
					c-5.291,0-16.738-0.973-19.82-2.494c-2.329-1.148-3.723-5.977-3.723-7.568C3.83,25.608,5.713,20.569,8.756,19.356z"/>
				<rect x="10.558" y="9.717" fill="#FDEFE7" width="33.607" height="16.811"/>
			</g>
		</g>
		<g>
			<g>
				<g>
					<ellipse fill="#FDEEE7" cx="27.378" cy="7.683" rx="23.464" ry="9.347"/>
				</g>
				<path fill="#FDEFE7" d="M8.946,19.657c3.109-1.239,13.684-2.005,18.428-2.005c4.744,0,15.319,0.766,18.428,2.005
					c3.108,1.238,5.032,6.09,5.032,7.979c0,1.627-1.425,6.262-3.806,7.437c-3.148,1.554-14.25,2.548-19.655,2.548
					c-5.405,0-16.507-0.993-19.656-2.547c-2.379-1.175-3.804-5.811-3.804-7.438C3.914,25.747,5.837,20.896,8.946,19.657z"/>
				<rect x="10.193" y="9.624" fill="#FDEFE7" width="34.338" height="17.176"/>
			</g>
		</g>
		<g>
			<g>
				<g>
					<ellipse fill="#FDEDE7" cx="27.378" cy="7.728" rx="23.381" ry="9.313"/>
				</g>
				<path fill="#FDEFE7" d="M9.136,19.957c3.176-1.265,13.393-2.047,18.238-2.047c4.845,0,15.062,0.782,18.237,2.047
					c3.176,1.265,5.14,5.929,5.14,7.859c0,1.661-1.455,6.104-3.886,7.303c-3.216,1.586-13.972,2.603-19.491,2.603
					c-5.521,0-16.276-1.015-19.492-2.603c-2.431-1.199-3.885-5.642-3.885-7.303C3.997,25.886,5.96,21.222,9.136,19.957z"/>
				<rect x="9.827" y="9.53" fill="#FDEFE7" width="35.068" height="17.542"/>
			</g>
		</g>
		<g>
			<g>
				<g>
					<ellipse fill="#FDEDE7" cx="27.378" cy="7.773" rx="23.298" ry="9.28"/>
				</g>
				<path fill="#FDEFE7" d="M9.326,20.257c3.242-1.291,13.102-2.089,18.048-2.089s14.807,0.798,18.048,2.089
					c3.242,1.292,5.246,5.768,5.246,7.738c0,1.696-1.485,5.945-3.967,7.17c-3.283,1.62-13.692,2.657-19.327,2.657
					c-5.636,0-16.045-1.037-19.328-2.656c-2.48-1.225-3.966-5.475-3.966-7.171C4.08,26.024,6.085,21.549,9.326,20.257z"/>
				<rect x="9.462" y="9.438" fill="#FDEFE7" width="35.799" height="17.907"/>
			</g>
		</g>
		<g>
			<g>
				<g>
					<ellipse fill="#FDEDE6" cx="27.378" cy="7.819" rx="23.215" ry="9.247"/>
				</g>
				<path fill="#FDEFE7" d="M9.517,20.558c3.308-1.317,12.811-2.132,17.857-2.132s14.551,0.815,17.858,2.132
					s5.354,5.605,5.354,7.616c0,1.73-1.517,5.787-4.048,7.037c-3.351,1.652-13.414,2.711-19.164,2.711S11.561,36.864,8.21,35.211
					c-2.531-1.249-4.047-5.307-4.047-7.037C4.163,26.163,6.209,21.875,9.517,20.558z"/>
				<rect x="9.097" y="9.344" fill="#FDEFE7" width="36.53" height="18.273"/>
			</g>
		</g>
		<g>
			<g>
				<g>
					<ellipse fill="#FDEDE6" cx="27.378" cy="7.864" rx="23.132" ry="9.214"/>
				</g>
				<path fill="#FDEFE7" d="M9.707,20.857c3.374-1.344,12.52-2.175,17.668-2.175c5.147,0,14.294,0.831,17.668,2.175
					c3.373,1.345,5.461,5.444,5.461,7.496c0,1.765-1.547,5.629-4.129,6.903c-3.418,1.686-13.136,2.766-19,2.766
					c-5.865,0-15.583-1.079-19.001-2.765c-2.582-1.274-4.127-5.14-4.127-6.904C4.247,26.302,6.333,22.202,9.707,20.857z"/>
				<rect x="8.732" y="9.251" fill="#FDEFE7" width="37.261" height="18.638"/>
			</g>
		</g>
		<g>
			<g>
				<g>
					<ellipse fill="#FDEDE5" cx="27.378" cy="7.91" rx="23.048" ry="9.181"/>
				</g>
				<path fill="#FDEFE7" d="M9.897,21.158c3.44-1.37,12.229-2.218,17.479-2.218s14.038,0.848,17.478,2.218
					c3.44,1.37,5.568,5.282,5.568,7.373c0,1.801-1.577,5.472-4.21,6.771c-3.484,1.719-12.856,2.819-18.836,2.819
					c-5.98,0-15.353-1.1-18.837-2.818c-2.632-1.3-4.208-4.972-4.208-6.772C4.33,26.44,6.457,22.528,9.897,21.158z"/>
				<rect x="8.366" y="9.158" fill="#FDEFE7" width="37.991" height="19.003"/>
			</g>
		</g>
		<g>
			<g>
				<g>
					<ellipse fill="#FDECE5" cx="27.378" cy="7.955" rx="22.965" ry="9.147"/>
				</g>
				<path fill="#FDEFE7" d="M10.088,21.458c3.506-1.396,11.938-2.26,17.288-2.26c5.351,0,13.782,0.864,17.288,2.26
					c3.506,1.397,5.675,5.121,5.675,7.253c0,1.834-1.607,5.313-4.291,6.638c-3.551,1.752-12.577,2.874-18.672,2.874
					S12.254,37.102,8.703,35.35c-2.683-1.325-4.29-4.805-4.29-6.639C4.413,26.579,6.581,22.855,10.088,21.458z"/>
				<rect x="8.001" y="9.064" fill="#FDEFE7" width="38.722" height="19.369"/>
			</g>
		</g>
		<g>
			<g>
				<g>
					<ellipse fill="#FDECE5" cx="27.378" cy="8" rx="22.882" ry="9.115"/>
				</g>
				<path fill="#FDEFE7" d="M10.278,21.759c3.572-1.423,11.646-2.303,17.098-2.303c5.451,0,13.526,0.88,17.098,2.303
					s5.782,4.959,5.782,7.131c0,1.868-1.638,5.155-4.372,6.505c-3.618,1.785-12.298,2.928-18.508,2.928s-14.89-1.142-18.509-2.927
					c-2.733-1.35-4.37-4.638-4.37-6.506C4.497,26.718,6.706,23.182,10.278,21.759z"/>
				<rect x="7.636" y="8.971" fill="#FDEFE7" width="39.452" height="19.734"/>
			</g>
		</g>
		<g>
			<g>
				<g>
					<ellipse fill="#FDECE4" cx="27.378" cy="8.046" rx="22.798" ry="9.082"/>
				</g>
				<path fill="#FDEFE7" d="M10.468,22.059c3.639-1.449,11.355-2.346,16.908-2.346c5.552,0,13.27,0.896,16.908,2.346
					c3.638,1.449,5.889,4.798,5.889,7.01c0,1.904-1.668,4.997-4.453,6.372c-3.685,1.818-12.019,2.982-18.344,2.982
					c-6.326,0-14.66-1.163-18.345-2.981c-2.784-1.375-4.451-4.469-4.451-6.373C4.58,26.856,6.83,23.508,10.468,22.059z"/>
				<rect x="7.271" y="8.878" fill="#FDEFE7" width="40.183" height="20.1"/>
			</g>
		</g>
		<g>
			<g>
				<g>
					<ellipse fill="#FDECE4" cx="27.378" cy="8.092" rx="22.715" ry="9.048"/>
				</g>
				<path fill="#FDEFE7" d="M10.658,22.359c3.705-1.476,11.064-2.389,16.718-2.389c5.653,0,13.013,0.913,16.717,2.389
					c3.705,1.476,5.996,4.636,5.996,6.888c0,1.938-1.697,4.84-4.533,6.239c-3.752,1.852-11.74,3.036-18.18,3.036
					c-6.441,0-14.429-1.184-18.181-3.035c-2.835-1.399-4.532-4.302-4.532-6.24C4.663,26.995,6.954,23.835,10.658,22.359z"/>
				<rect x="6.906" y="8.785" fill="#FDEFE7" width="40.914" height="20.465"/>
			</g>
		</g>
		<g>
			<g>
				<g>
					<ellipse fill="#FDECE4" cx="27.378" cy="8.137" rx="22.632" ry="9.015"/>
				</g>
				<path fill="#FDEFE7" d="M10.849,22.659c3.771-1.502,10.773-2.431,16.528-2.431c5.753,0,12.757,0.929,16.528,2.431
					s6.104,4.475,6.104,6.767c0,1.973-1.729,4.682-4.615,6.106c-3.818,1.884-11.461,3.091-18.016,3.091
					c-6.556,0-14.198-1.206-18.017-3.09c-2.885-1.425-4.613-4.135-4.613-6.107C4.746,27.134,7.078,24.161,10.849,22.659z"/>
				<rect x="6.54" y="8.691" fill="#FDEFE7" width="41.645" height="20.831"/>
			</g>
		</g>
		<g>
			<g>
				<g>
					<ellipse fill="#FDECE3" cx="27.378" cy="8.183" rx="22.549" ry="8.981"/>
				</g>
				<path fill="#FDEFE7" d="M11.039,22.96c3.837-1.528,10.482-2.474,16.338-2.474c5.854,0,12.501,0.945,16.338,2.474
					c3.836,1.528,6.21,4.312,6.21,6.646c0,2.007-1.759,4.523-4.696,5.973c-3.886,1.917-11.182,3.145-17.852,3.145
					c-6.67,0-13.967-1.227-17.854-3.144c-2.936-1.449-4.694-3.967-4.694-5.974C4.829,27.272,7.202,24.488,11.039,22.96z"/>
				<rect x="6.175" y="8.599" fill="#FDEFE7" width="42.375" height="21.196"/>
			</g>
		</g>
		<g>
			<g>
				<g>
					<ellipse fill="#FDEBE3" cx="27.378" cy="8.228" rx="22.465" ry="8.948"/>
				</g>
				<path fill="#FDEFE7" d="M11.229,23.26c3.903-1.555,10.192-2.516,16.148-2.516c5.956,0,12.245,0.961,16.148,2.516
					c3.902,1.555,6.316,4.151,6.316,6.523c0,2.043-1.788,4.366-4.776,5.841c-3.953,1.95-10.903,3.199-17.688,3.199
					c-6.786,0-13.736-1.248-17.69-3.198c-2.986-1.475-4.775-3.799-4.775-5.842C4.913,27.411,7.326,24.814,11.229,23.26z"/>
				<rect x="5.81" y="8.505" fill="#FDEFE7" width="43.105" height="21.562"/>
			</g>
		</g>
		<g>
			<g>
				<g>
					<ellipse fill="#FDEBE2" cx="27.378" cy="8.273" rx="22.382" ry="8.916"/>
				</g>
				<path fill="#FDEFE7" d="M11.42,23.561c3.969-1.581,9.9-2.56,15.958-2.56s11.989,0.979,15.958,2.56s6.425,3.989,6.425,6.402
					c0,2.076-1.819,4.208-4.858,5.707c-4.02,1.983-10.624,3.253-17.524,3.253c-6.9,0-13.505-1.269-17.526-3.252
					c-3.037-1.499-4.855-3.632-4.855-5.708C4.996,27.55,7.45,25.142,11.42,23.561z"/>
				<rect x="5.445" y="8.412" fill="#FDEFE7" width="43.836" height="21.927"/>
			</g>
		</g>
		<g>
			<g>
				<g>
					<ellipse fill="#FDEBE2" cx="27.378" cy="8.319" rx="22.299" ry="8.882"/>
				</g>
				<path fill="#FDEFE7" d="M49.677,30.142c0,4.905-9.983,8.882-22.299,8.882c-12.316,0-22.299-3.977-22.299-8.882
					c0-2.453,2.496-4.674,6.531-6.281c4.036-1.607,9.61-2.602,15.768-2.602c6.157,0,11.732,0.994,15.768,2.602
					S49.677,27.688,49.677,30.142z"/>
				<rect x="5.079" y="8.319" fill="#FDEFE7" width="44.566" height="22.292"/>
			</g>
		</g>
	</g>
	<g>
		<path fill="#FFF1EB" d="M54.718,5.102c0,5.144-12.185,9.314-27.213,9.314c-15.03,0-27.213-4.17-27.213-9.314
			s12.183-9.022,27.213-9.022C42.533-3.921,54.718-0.042,54.718,5.102z"/>
		<path fill="#FFF1EB" d="M54.607,5.107c0,5.123-12.134,9.271-27.1,9.271c-14.967,0-27.1-4.147-27.1-9.271
			c0-5.123,12.133-8.988,27.1-8.988C42.473-3.881,54.607-0.015,54.607,5.107z"/>
		<path fill="#FFF1EB" d="M54.496,5.114c0,5.101-12.084,9.227-26.988,9.227c-14.906,0-26.988-4.125-26.988-9.227
			S12.603-3.84,27.509-3.84C42.412-3.84,54.496,0.013,54.496,5.114z"/>
		<path fill="#FFF1EC" d="M54.386,5.12c0,5.08-12.034,9.183-26.876,9.183c-14.843,0-26.875-4.103-26.875-9.183S12.667-3.8,27.51-3.8
			C42.352-3.8,54.386,0.04,54.386,5.12z"/>
		<path fill="#FFF1EC" d="M54.276,5.125c0,5.059-11.983,9.14-26.764,9.14c-14.781,0-26.763-4.081-26.763-9.14
			c0-5.058,11.982-8.886,26.763-8.886C42.292-3.76,54.276,0.067,54.276,5.125z"/>
		<path fill="#FFF1EC" d="M54.164,5.132c0,5.036-11.933,9.095-26.651,9.095c-14.719,0-26.651-4.059-26.651-9.095
			c0-5.037,11.932-8.852,26.651-8.852C42.232-3.72,54.164,0.095,54.164,5.132z"/>
		<path fill="#FFF1EC" d="M54.053,5.138c0,5.015-11.882,9.052-26.538,9.052c-14.657,0-26.538-4.037-26.538-9.052
			S12.858-3.68,27.515-3.68C42.171-3.68,54.053,0.123,54.053,5.138z"/>
		<path fill="#FFF1EC" d="M53.943,5.144c0,4.994-11.832,9.008-26.426,9.008c-14.595,0-26.426-4.015-26.426-9.008
			c0-4.993,11.831-8.783,26.426-8.783C42.111-3.64,53.943,0.15,53.943,5.144z"/>
		<path fill="#FFF1ED" d="M53.832,5.15c0,4.972-11.781,8.964-26.313,8.964c-14.533,0-26.313-3.993-26.313-8.964
			c0-4.973,11.78-8.75,26.313-8.75C42.051-3.599,53.832,0.178,53.832,5.15z"/>
		<path fill="#FFF1ED" d="M53.721,5.156c0,4.951-11.731,8.921-26.201,8.921c-14.47,0-26.201-3.97-26.201-8.921
			S13.05-3.56,27.52-3.56C41.99-3.56,53.721,0.205,53.721,5.156z"/>
		<path fill="#FFF1ED" d="M53.611,5.162c0,4.929-11.681,8.877-26.089,8.877S1.433,10.091,1.433,5.162s11.68-8.681,26.088-8.681
			S53.611,0.233,53.611,5.162z"/>
		<path fill="#FFF2ED" d="M53.5,5.168c0,4.908-11.631,8.833-25.976,8.833c-14.347,0-25.976-3.925-25.976-8.833
			s11.629-8.647,25.976-8.647C41.869-3.479,53.5,0.261,53.5,5.168z"/>
		<path fill="#FFF2EE" d="M53.389,5.174c0,4.887-11.58,8.79-25.863,8.79c-14.285,0-25.864-3.903-25.864-8.79
			c0-4.886,11.58-8.613,25.864-8.613C41.809-3.439,53.389,0.288,53.389,5.174z"/>
		<path fill="#FFF2EE" d="M53.279,5.18c0,4.865-11.53,8.746-25.751,8.746c-14.222,0-25.751-3.881-25.751-8.746
			c0-4.864,11.529-8.579,25.751-8.579C41.748-3.399,53.279,0.315,53.279,5.18z"/>
		<path fill="#FFF2EE" d="M53.168,5.187c0,4.843-11.48,8.702-25.639,8.702c-14.161,0-25.639-3.859-25.639-8.702
			c0-4.843,11.479-8.545,25.639-8.545C41.688-3.358,53.168,0.343,53.168,5.187z"/>
		<path fill="#FFF2EE" d="M53.057,5.192c0,4.822-11.43,8.659-25.526,8.659c-14.098,0-25.526-3.837-25.526-8.659
			c0-4.821,11.429-8.51,25.526-8.51C41.627-3.318,53.057,0.371,53.057,5.192z"/>
		<path fill="#FEF2EE" d="M52.947,5.199c0,4.8-11.379,8.614-25.414,8.614c-14.036,0-25.414-3.814-25.414-8.614
			c0-4.801,11.378-8.477,25.414-8.477C41.568-3.278,52.947,0.398,52.947,5.199z"/>
		<path fill="#FEF2EF" d="M52.835,5.205c0,4.779-11.329,8.571-25.301,8.571c-13.974,0-25.301-3.792-25.301-8.571
			S13.56-3.238,27.534-3.238C41.506-3.238,52.835,0.426,52.835,5.205z"/>
		<path fill="#FEF2EF" d="M52.725,5.21c0,4.758-11.278,8.528-25.189,8.528c-13.912,0-25.189-3.771-25.189-8.528
			c0-4.757,11.278-8.408,25.189-8.408C41.447-3.198,52.725,0.453,52.725,5.21z"/>
		<path fill="#FEF2EF" d="M52.615,5.217c0,4.735-11.229,8.483-25.077,8.483C13.688,13.7,2.46,9.952,2.46,5.217
			c0-4.736,11.228-8.374,25.077-8.374C41.386-3.157,52.615,0.48,52.615,5.217z"/>
		<path fill="#FEF2EF" d="M52.503,5.223c0,4.715-11.177,8.44-24.964,8.44c-13.788,0-24.964-3.726-24.964-8.44
			c0-4.714,11.177-8.34,24.964-8.34C41.326-3.117,52.503,0.509,52.503,5.223z"/>
		<path fill="#FEF2EF" d="M52.393,5.229c0,4.693-11.128,8.396-24.853,8.396S2.689,9.921,2.689,5.229S13.816-3.077,27.54-3.077
			S52.393,0.536,52.393,5.229z"/>
		<path fill="#FEF2F0" d="M52.281,5.234c0,4.671-11.076,8.353-24.739,8.353c-13.664,0-24.74-3.681-24.74-8.353
			s11.076-8.271,24.74-8.271C41.205-3.037,52.281,0.563,52.281,5.234z"/>
		<path fill="#FEF2F0" d="M52.171,5.241c0,4.65-11.026,8.309-24.627,8.309c-13.602,0-24.627-3.659-24.627-8.309
			s11.025-8.238,24.627-8.238C41.145-2.997,52.171,0.591,52.171,5.241z"/>
		<path fill="#FEF2F0" d="M52.061,5.247c0,4.628-10.977,8.265-24.515,8.265c-13.539,0-24.515-3.637-24.515-8.265
			c0-4.629,10.976-8.203,24.515-8.203C41.084-2.956,52.061,0.618,52.061,5.247z"/>
		<path fill="#FEF2F0" d="M51.949,5.253c0,4.607-10.926,8.222-24.402,8.222S3.145,9.86,3.145,5.253
			c0-4.607,10.926-8.169,24.402-8.169S51.949,0.646,51.949,5.253z"/>
		<path fill="#FEF2F1" d="M51.839,5.259c0,4.585-10.876,8.178-24.291,8.178S3.259,9.844,3.259,5.259
			c0-4.586,10.875-8.135,24.29-8.135S51.839,0.673,51.839,5.259z"/>
		<path fill="#FEF2F1" d="M51.728,5.265c0,4.564-10.825,8.135-24.177,8.135S3.373,9.829,3.373,5.265
			c0-4.563,10.825-8.101,24.177-8.101S51.728,0.701,51.728,5.265z"/>
		<path fill="#FEF2F1" d="M51.617,5.271c0,4.542-10.774,8.091-24.065,8.091S3.488,9.813,3.488,5.271
			c0-4.543,10.774-8.067,24.065-8.067S51.617,0.729,51.617,5.271z"/>
		<path fill="#FEF2F1" d="M51.507,5.277c0,4.521-10.725,8.047-23.953,8.047S3.602,9.798,3.602,5.277
			c0-4.521,10.724-8.033,23.952-8.033S51.507,0.756,51.507,5.277z"/>
		<path fill="#FEF2F1" d="M51.396,5.283c0,4.5-10.674,8.003-23.84,8.003c-13.166,0-23.84-3.504-23.84-8.003
			c0-4.499,10.674-7.999,23.84-7.999C40.722-2.716,51.396,0.784,51.396,5.283z"/>
		<path fill="#FEF3F2" d="M51.285,5.289c0,4.478-10.624,7.96-23.728,7.96c-13.104,0-23.729-3.482-23.729-7.96
			c0-4.478,10.624-7.964,23.729-7.964C40.661-2.675,51.285,0.812,51.285,5.289z"/>
		<path fill="#FEF3F2" d="M51.174,5.295c0,4.457-10.573,7.916-23.615,7.916c-13.042,0-23.615-3.459-23.615-7.916
			s10.573-7.93,23.615-7.93C40.601-2.635,51.174,0.839,51.174,5.295z"/>
		<path fill="#FEF3F2" d="M51.064,5.302c0,4.435-10.522,7.872-23.503,7.872c-12.979,0-23.502-3.437-23.502-7.872
			c0-4.436,10.523-7.896,23.502-7.896C40.541-2.595,51.064,0.866,51.064,5.302z"/>
		<path fill="#FEF3F2" d="M50.953,5.308c0,4.413-10.474,7.828-23.391,7.828c-12.918,0-23.391-3.415-23.391-7.828
			c0-4.414,10.473-7.862,23.391-7.862C40.48-2.555,50.953,0.894,50.953,5.308z"/>
		<path fill="#FEF3F2" d="M50.842,5.313c0,4.392-10.422,7.785-23.278,7.785c-12.855,0-23.277-3.394-23.277-7.785
			c0-4.393,10.422-7.828,23.277-7.828C40.42-2.515,50.842,0.921,50.842,5.313z"/>
		<path fill="#FEF3F3" d="M50.732,5.319c0,4.371-10.372,7.741-23.166,7.741S4.401,9.69,4.401,5.319s10.372-7.794,23.166-7.794
			S50.732,0.949,50.732,5.319z"/>
		<path fill="#FEF3F3" d="M50.621,5.326c0,4.349-10.322,7.697-23.054,7.697S4.515,9.675,4.515,5.326s10.321-7.76,23.053-7.76
			S50.621,0.977,50.621,5.326z"/>
		<path fill="#FEF3F3" d="M50.51,5.332c0,4.328-10.271,7.654-22.94,7.654c-12.669,0-22.941-3.326-22.941-7.654
			S14.9-2.394,27.57-2.394C40.239-2.394,50.51,1.004,50.51,5.332z"/>
		<path fill="#FEF3F3" d="M50.399,5.338c0,4.306-10.221,7.61-22.828,7.61S4.743,9.644,4.743,5.338
			c0-4.307,10.221-7.691,22.828-7.691S50.399,1.031,50.399,5.338z"/>
		<path fill="#FEF3F4" d="M50.288,5.344c0,4.284-10.171,7.566-22.716,7.566S4.857,9.628,4.857,5.344
			c0-4.285,10.171-7.657,22.716-7.657S50.288,1.059,50.288,5.344z"/>
		<path fill="#FEF3F4" d="M50.178,5.35c0,4.263-10.121,7.522-22.604,7.522c-12.483,0-22.604-3.259-22.604-7.522
			s10.121-7.623,22.604-7.623C40.057-2.273,50.178,1.086,50.178,5.35z"/>
		<path fill="#FEF3F4" d="M50.067,5.355c0,4.242-10.069,7.479-22.491,7.479c-12.42,0-22.491-3.237-22.491-7.479
			c0-4.242,10.07-7.589,22.491-7.589C39.997-2.233,50.067,1.114,50.067,5.355z"/>
		<path fill="#FEF3F4" d="M49.956,5.362c0,4.22-10.02,7.435-22.378,7.435S5.199,9.582,5.199,5.362s10.02-7.555,22.378-7.555
			S49.956,1.142,49.956,5.362z"/>
		<path fill="#FEF3F4" d="M49.846,5.368c0,4.199-9.97,7.392-22.267,7.392c-12.296,0-22.266-3.193-22.266-7.392
			s9.969-7.521,22.266-7.521C39.876-2.153,49.846,1.169,49.846,5.368z"/>
		<path fill="#FEF3F5" d="M49.735,5.374c0,4.177-9.918,7.348-22.154,7.348c-12.234,0-22.153-3.171-22.153-7.348
			c0-4.178,9.919-7.487,22.153-7.487C39.817-2.113,49.735,1.196,49.735,5.374z"/>
		<path fill="#FDF3F5" d="M49.624,5.38c0,4.156-9.869,7.305-22.042,7.305S5.542,9.536,5.542,5.38c0-4.156,9.869-7.453,22.041-7.453
			S49.624,1.224,49.624,5.38z"/>
		<path fill="#FDF3F5" d="M49.514,5.386c0,4.134-9.818,7.261-21.93,7.261c-12.11,0-21.929-3.126-21.929-7.261
			s9.819-7.418,21.929-7.418C39.696-2.032,49.514,1.251,49.514,5.386z"/>
		<path fill="#FDF3F5" d="M49.403,5.392c0,4.113-9.768,7.217-21.816,7.217c-12.048,0-21.816-3.104-21.816-7.217
			c0-4.112,9.769-7.384,21.816-7.384C39.635-1.992,49.403,1.279,49.403,5.392z"/>
		<path fill="#FDF3F5" d="M49.291,5.398c0,4.091-9.717,7.173-21.703,7.173S5.884,9.489,5.884,5.398s9.718-7.35,21.704-7.35
			S49.291,1.307,49.291,5.398z"/>
		<path fill="#FDF3F6" d="M49.181,5.404c0,4.07-9.667,7.13-21.592,7.13c-11.923,0-21.591-3.06-21.591-7.13
			c0-4.07,9.667-7.315,21.591-7.315C39.514-1.912,49.181,1.334,49.181,5.404z"/>
		<path fill="#FDF4F6" d="M49.071,5.41c0,4.048-9.617,7.086-21.479,7.086c-11.861,0-21.479-3.038-21.479-7.086
			s9.618-7.281,21.479-7.281C39.453-1.871,49.071,1.362,49.071,5.41z"/>
		<path fill="#FDF4F6" d="M48.96,5.417c0,4.026-9.567,7.042-21.367,7.042S6.226,9.443,6.226,5.417c0-4.027,9.567-7.248,21.367-7.248
			S48.96,1.39,48.96,5.417z"/>
		<path fill="#FDF4F6" d="M48.849,5.422c0,4.005-9.517,6.999-21.254,6.999c-11.738,0-21.255-2.993-21.255-6.999
			s9.517-7.213,21.255-7.213C39.332-1.791,48.849,1.417,48.849,5.422z"/>
		<path fill="#FDF4F7" d="M48.739,5.429c0,3.983-9.466,6.954-21.142,6.954c-11.676,0-21.142-2.971-21.142-6.954
			c0-3.984,9.466-7.18,21.142-7.18C39.273-1.751,48.739,1.445,48.739,5.429z"/>
		<path fill="#FDF4F7" d="M48.627,5.435c0,3.962-9.415,6.911-21.029,6.911S6.569,9.396,6.569,5.435c0-3.962,9.416-7.146,21.03-7.146
			S48.627,1.472,48.627,5.435z"/>
		<path fill="#FDF4F7" d="M48.517,5.44c0,3.941-9.365,6.868-20.917,6.868c-11.551,0-20.917-2.927-20.917-6.868
			S16.049-1.67,27.6-1.67C39.152-1.67,48.517,1.5,48.517,5.44z"/>
		<path fill="#FDF4F7" d="M48.406,5.447c0,3.919-9.314,6.824-20.805,6.824c-11.489,0-20.805-2.904-20.805-6.824
			S16.112-1.63,27.601-1.63C39.092-1.63,48.406,1.527,48.406,5.447z"/>
		<path fill="#FDF4F7" d="M48.295,5.453c0,3.898-9.265,6.78-20.692,6.78S6.911,9.351,6.911,5.453S16.176-1.59,27.603-1.59
			S48.295,1.555,48.295,5.453z"/>
		<path fill="#FDF4F8" d="M48.185,5.458c0,3.876-9.214,6.736-20.58,6.736c-11.365,0-20.58-2.86-20.58-6.736S16.24-1.55,27.605-1.55
			C38.971-1.55,48.185,1.582,48.185,5.458z"/>
		<path fill="#FDF4F8" d="M48.073,5.465c0,3.854-9.163,6.692-20.467,6.692c-11.303,0-20.468-2.838-20.468-6.692
			c0-3.855,9.165-6.975,20.468-6.975C38.91-1.51,48.073,1.61,48.073,5.465z"/>
		<path fill="#FDF4F8" d="M47.963,5.471c0,3.833-9.113,6.649-20.355,6.649c-11.241,0-20.355-2.815-20.355-6.649
			s9.114-6.94,20.355-6.94C38.85-1.47,47.963,1.637,47.963,5.471z"/>
	</g>
	<g>
		<g>
			<path fill="#FDF6F9" d="M54.755,4.657c0,0,0.001,0.057,0.004,0.166c0.003,0.055,0,0.122-0.005,0.202
				c-0.002,0.041-0.005,0.084-0.007,0.131c-0.007,0.046-0.012,0.096-0.019,0.148c-0.011,0.106-0.038,0.223-0.064,0.352
				c-0.033,0.127-0.069,0.267-0.123,0.414c-0.104,0.295-0.261,0.625-0.482,0.969C53.62,7.73,52.912,8.474,51.971,9.17
				c-0.94,0.697-2.102,1.364-3.434,1.953c-0.664,0.296-1.37,0.581-2.11,0.847c-0.742,0.266-1.521,0.509-2.327,0.739
				c-1.612,0.458-3.342,0.852-5.149,1.16c-0.903,0.158-1.827,0.291-2.764,0.407c-0.937,0.117-1.888,0.215-2.848,0.291
				c-1.922,0.157-3.876,0.229-5.84,0.233c-1.951-0.003-3.914-0.075-5.833-0.232c-0.96-0.076-1.911-0.173-2.849-0.29
				c-0.937-0.117-1.859-0.249-2.763-0.407c-1.808-0.311-3.539-0.697-5.151-1.156c-0.806-0.232-1.584-0.477-2.326-0.743
				c-0.741-0.266-1.446-0.551-2.111-0.848c-1.332-0.59-2.493-1.256-3.433-1.954C2.565,8.82,2.149,8.464,1.801,8.104
				C1.45,7.745,1.167,7.383,0.945,7.038C0.724,6.694,0.567,6.365,0.463,6.069C0.41,5.922,0.373,5.783,0.34,5.656
				C0.315,5.527,0.286,5.411,0.277,5.304C0.269,5.252,0.264,5.202,0.258,5.156c-0.003-0.046-0.006-0.09-0.008-0.13
				C0.245,4.944,0.244,4.877,0.246,4.822C0.248,4.713,0.25,4.657,0.25,4.657s0.005,0.056,0.015,0.165
				c0.003,0.055,0.013,0.121,0.027,0.2c0.006,0.04,0.014,0.082,0.02,0.128c0.011,0.045,0.022,0.093,0.034,0.144
				c0.09,0.409,0.324,0.992,0.805,1.622c0.476,0.633,1.216,1.29,2.165,1.908c0.476,0.31,1.007,0.606,1.583,0.89
				c0.576,0.285,1.196,0.561,1.858,0.818c1.323,0.517,2.808,0.968,4.401,1.363c1.594,0.395,3.302,0.721,5.081,0.986
				c0.891,0.131,1.798,0.247,2.72,0.346c0.922,0.097,1.858,0.179,2.803,0.246c1.89,0.129,3.812,0.198,5.743,0.195
				c1.921,0.003,3.85-0.065,5.738-0.194c0.943-0.067,1.879-0.148,2.802-0.246c0.922-0.099,1.83-0.214,2.721-0.345
				c1.778-0.268,3.488-0.587,5.082-0.983c0.798-0.197,1.565-0.414,2.302-0.64c0.736-0.225,1.437-0.47,2.1-0.727
				c0.662-0.257,1.282-0.533,1.858-0.817s1.107-0.581,1.582-0.891c0.949-0.62,1.689-1.275,2.166-1.909
				c0.479-0.631,0.715-1.214,0.804-1.623c0.012-0.051,0.023-0.099,0.033-0.144c0.007-0.046,0.014-0.088,0.021-0.127
				c0.015-0.079,0.023-0.146,0.027-0.2C54.75,4.713,54.755,4.657,54.755,4.657z"/>
		</g>
	</g>
	<g opacity="0.5">
		
			<image overflow="visible" width="830" height="733" xlink:href="F2220E219D0BF5ED.png"  transform="matrix(0.0236 0 0 0.0218 32.6682 19.9658)">
		</image>
	</g>
	<g opacity="0.5">
		
			<image overflow="visible" width="830" height="733" xlink:href="F2220E219D0BF5F3.png"  transform="matrix(0.0236 0 0 0.0218 1.3625 19.9658)">
		</image>
	</g>
	<g>
		<ellipse fill="#551B11" cx="11.553" cy="21.253" rx="4.384" ry="4.69"/>
		<g>
			<path fill="#FFFFFF" d="M9.785,18.504c-0.273-0.142-0.449-0.161-0.746-0.075c-0.592,0.188-0.479,0.558-0.371,1.072
				c0.141,0.739,1.088,2.087,1.885,2.166c0.93,0.088,1.12-1.542,1.211-2.172c0.033-0.366,0.066-0.733-0.162-1.05
				c-0.186-0.25-0.399-0.343-0.716-0.291c-0.411,0.057-0.382,0.422-0.686,0.56C10.053,18.781,10.019,18.63,9.785,18.504z"/>
		</g>
		<g>
			<path fill="#FFFFFF" d="M12.047,24.456c-0.292,0.5-1.239-0.171-0.532-0.378c-0.707,0.207-0.707-0.739,0-0.532
				c-0.707-0.207,0.24-0.878,0.532-0.378c-0.292-0.5,1.044-0.5,0.752,0c0.292-0.5,1.239,0.171,0.532,0.378
				c0.707-0.207,0.707,0.739,0,0.532c0.707,0.207-0.24,0.878-0.532,0.378C13.091,24.956,11.755,24.956,12.047,24.456z"/>
		</g>
	</g>
	<g opacity="0.5">
		<polygon fill="#F0687D" points="21.093,2.746 20.409,3.026 19.711,2.781 19.406,2.152 19.673,1.509 20.357,1.228 21.054,1.474 
			21.36,2.103 		"/>
		<polygon fill="#F0687D" points="13.869,3.645 13.186,3.926 12.487,3.68 12.182,3.051 12.45,2.408 13.132,2.127 13.831,2.374 
			14.136,3.002 		"/>
		<polygon fill="#F0687D" points="29.12,3.843 28.438,4.125 27.74,3.878 27.435,3.25 27.701,2.606 28.384,2.326 29.083,2.572 
			29.388,3.2 		"/>
		<polygon fill="#F0687D" points="38.988,5.642 38.305,5.923 37.607,5.677 37.302,5.048 37.569,4.405 38.252,4.125 38.95,4.371 
			39.255,4.999 		"/>
		<polygon fill="#F0687D" points="16.844,7.827 16.162,8.108 15.463,7.862 15.159,7.233 15.426,6.59 16.109,6.309 16.807,6.555 
			17.112,7.184 		"/>
		<polygon fill="#F0687D" points="25.613,8.727 24.93,9.007 24.231,8.761 23.927,8.132 24.194,7.489 24.876,7.208 25.575,7.454 
			25.879,8.083 		"/>
		<polygon fill="#F0687D" points="35.08,8.735 34.397,9.016 33.699,8.77 33.395,8.141 33.662,7.497 34.345,7.217 35.043,7.462 
			35.348,8.091 		"/>
		<polygon fill="#F0687D" points="34.105,1.969 33.421,2.25 32.723,2.004 32.418,1.375 32.685,0.732 33.367,0.452 34.067,0.698 
			34.371,1.326 		"/>
		<polygon fill="#F0687D" points="43.998,4.26 43.315,4.541 42.615,4.295 42.312,3.667 42.578,3.023 43.261,2.742 43.96,2.988 
			44.265,3.617 		"/>
	</g>
	<g>
		<g>
			<path fill="#551B11" d="M46.408,16.446c-2.305,2.42-5.393,4.08-8.386,5.679c-0.503,0.268-0.45,0.896,0,1.174
				c3.04,1.886,6.362,2.732,9.959,3.226c0.933,0.127,1.333-1.184,0.394-1.312c-3.476-0.477-6.667-1.265-9.607-3.088
				c0,0.392,0,0.782,0,1.174c3.096-1.652,6.304-3.388,8.686-5.891C48.078,16.751,47.037,15.785,46.408,16.446L46.408,16.446z"/>
		</g>
		<g>
			<path fill="#551B11" d="M38.839,23.673c2.183,0.001,4.204-0.163,6.344-0.585c0.931-0.185,0.536-1.496-0.394-1.312
				c-2.011,0.397-3.899,0.537-5.95,0.536C37.886,22.312,37.886,23.672,38.839,23.673L38.839,23.673z"/>
		</g>
	</g>
</g>
<g>
	<path fill="none" d="M15.938,33.154h21.43v-9.342h-21.43V33.154z M21.933,27.976c3.454,2.756,7.459,2.627,10.674-0.364
		c0.658-0.611,1.684,0.332,1.025,0.944c-1.679,1.562-3.9,2.884-6.381,2.849c-2.459-0.034-4.516-1.025-6.344-2.486
		C20.2,28.354,21.23,27.414,21.933,27.976z"/>
	<path fill="#551B11" d="M27.252,31.404c2.48,0.035,4.702-1.287,6.381-2.849c0.658-0.612-0.367-1.556-1.025-0.944
		c-3.215,2.991-7.221,3.12-10.674,0.364c-0.704-0.562-1.733,0.379-1.025,0.942C22.736,30.379,24.793,31.37,27.252,31.404z"/>
</g>
<g>
	<g>
		<path fill="#551B11" d="M49.859,34.065c0,0.921-0.478,1.858-1.432,2.812l-3.893,3.749c-0.075,0.075-0.167,0.112-0.274,0.112
			c-0.109,0-0.199-0.037-0.275-0.112l-3.899-3.761c-0.041-0.034-0.098-0.088-0.171-0.163s-0.188-0.212-0.348-0.409
			c-0.158-0.197-0.299-0.4-0.424-0.609c-0.125-0.208-0.237-0.461-0.335-0.756c-0.098-0.296-0.146-0.583-0.146-0.862
			c0-0.917,0.265-1.633,0.794-2.149c0.529-0.516,1.259-0.774,2.192-0.774c0.259,0,0.522,0.045,0.791,0.134
			c0.268,0.09,0.519,0.211,0.749,0.363c0.232,0.151,0.431,0.294,0.598,0.428c0.166,0.133,0.324,0.274,0.475,0.425
			c0.149-0.15,0.309-0.292,0.475-0.425c0.167-0.134,0.366-0.276,0.596-0.428c0.232-0.152,0.482-0.273,0.751-0.363
			c0.269-0.089,0.532-0.134,0.79-0.134c0.933,0,1.664,0.259,2.193,0.774C49.594,32.433,49.859,33.148,49.859,34.065z M49.059,34.065
			c0-0.337-0.045-0.635-0.135-0.894c-0.09-0.258-0.205-0.463-0.344-0.615c-0.14-0.152-0.31-0.275-0.509-0.372
			c-0.2-0.096-0.396-0.16-0.587-0.193c-0.192-0.034-0.396-0.05-0.613-0.05s-0.449,0.053-0.699,0.159s-0.48,0.239-0.69,0.4
			c-0.211,0.16-0.392,0.31-0.541,0.449s-0.274,0.269-0.374,0.385c-0.076,0.092-0.178,0.138-0.307,0.138s-0.231-0.046-0.307-0.138
			c-0.1-0.116-0.225-0.245-0.374-0.385c-0.151-0.14-0.33-0.289-0.541-0.449c-0.21-0.161-0.44-0.294-0.69-0.4s-0.483-0.159-0.7-0.159
			c-0.216,0-0.421,0.016-0.611,0.05c-0.192,0.033-0.388,0.098-0.588,0.193c-0.2,0.097-0.37,0.22-0.509,0.372
			c-0.14,0.152-0.254,0.357-0.344,0.615c-0.09,0.259-0.135,0.557-0.135,0.894c0,0.7,0.39,1.439,1.168,2.218l3.631,3.5l3.623-3.493
			C48.667,35.507,49.059,34.766,49.059,34.065z"/>
	</g>
</g>
</svg>
