<?xml version="1.0" encoding="utf-8"?>
<!-- Generator: Adobe Illustrator 16.0.0, SVG Export Plug-In . SVG Version: 6.00 Build 0)  -->
<!DOCTYPE svg PUBLIC "-//W3C//DTD SVG 1.1//EN" "http://www.w3.org/Graphics/SVG/1.1/DTD/svg11.dtd">
<svg version="1.1" id="Layer_1" xmlns="http://www.w3.org/2000/svg" xmlns:xlink="http://www.w3.org/1999/xlink" x="0px" y="0px"
	 width="25.667px" height="25px" viewBox="0 0 25.667 25" enable-background="new 0 0 25.667 25" xml:space="preserve">
<g>
	<path fill="#FFFFFF" d="M6.811,2.442c1.838-1.073,3.846-1.609,6.023-1.609c2.177,0,4.185,0.537,6.023,1.609
		c1.838,1.073,3.294,2.529,4.367,4.367c1.073,1.839,1.609,3.847,1.609,6.023c0,2.615-0.763,4.966-2.289,7.055
		c-1.526,2.089-3.498,3.534-5.914,4.336c-0.281,0.052-0.49,0.016-0.625-0.109c-0.136-0.125-0.203-0.281-0.203-0.469
		c0-0.031,0.002-0.43,0.008-1.195c0.005-0.766,0.008-1.466,0.008-2.102c0-1.01-0.271-1.75-0.812-2.219
		c0.594-0.062,1.127-0.156,1.602-0.281c0.474-0.125,0.963-0.328,1.469-0.609c0.505-0.281,0.927-0.627,1.266-1.039
		c0.338-0.411,0.614-0.958,0.828-1.641c0.213-0.682,0.32-1.466,0.32-2.352c0-1.239-0.412-2.312-1.234-3.219
		c0.385-0.948,0.344-2.01-0.125-3.188c-0.292-0.094-0.714-0.036-1.266,0.172c-0.552,0.208-1.031,0.438-1.438,0.688l-0.594,0.375
		c-0.969-0.271-1.969-0.406-3-0.406s-2.031,0.136-3,0.406C9.667,6.921,9.446,6.781,9.17,6.614C8.894,6.447,8.459,6.247,7.865,6.012
		S6.829,5.708,6.537,5.801c-0.469,1.177-0.511,2.24-0.125,3.188c-0.823,0.906-1.234,1.979-1.234,3.219
		c0,0.886,0.106,1.667,0.32,2.344c0.213,0.677,0.487,1.224,0.82,1.641c0.333,0.417,0.752,0.766,1.258,1.047
		c0.505,0.281,0.995,0.484,1.469,0.609c0.474,0.125,1.008,0.219,1.602,0.281c-0.406,0.375-0.662,0.912-0.766,1.609
		c-0.219,0.104-0.453,0.183-0.703,0.234c-0.25,0.052-0.547,0.078-0.891,0.078s-0.685-0.112-1.023-0.336
		c-0.339-0.224-0.628-0.549-0.867-0.977c-0.198-0.333-0.451-0.604-0.758-0.812c-0.308-0.208-0.565-0.333-0.773-0.375l-0.312-0.047
		c-0.219,0-0.37,0.023-0.453,0.07c-0.083,0.047-0.109,0.107-0.078,0.18C4.053,17.828,4.1,17.9,4.162,17.973
		c0.062,0.073,0.13,0.136,0.203,0.188l0.109,0.078c0.229,0.104,0.456,0.302,0.68,0.594c0.224,0.292,0.388,0.558,0.492,0.797
		l0.156,0.359c0.135,0.396,0.364,0.716,0.688,0.961c0.323,0.245,0.672,0.401,1.047,0.469c0.375,0.068,0.737,0.104,1.086,0.109
		c0.349,0.005,0.638-0.013,0.867-0.055l0.359-0.062c0,0.396,0.002,0.857,0.008,1.383c0.005,0.526,0.008,0.81,0.008,0.852
		c0,0.188-0.068,0.344-0.203,0.469c-0.136,0.125-0.344,0.161-0.625,0.109c-2.417-0.802-4.388-2.247-5.914-4.336
		c-1.526-2.088-2.289-4.44-2.289-7.055c0-2.177,0.536-4.185,1.609-6.023C3.516,4.971,4.972,3.515,6.811,2.442z M5.381,18.067
		c0.031-0.073-0.005-0.135-0.109-0.188c-0.104-0.031-0.172-0.021-0.203,0.031c-0.031,0.073,0.005,0.136,0.109,0.188
		C5.271,18.161,5.339,18.15,5.381,18.067z M5.865,18.598c0.073-0.052,0.062-0.135-0.031-0.25c-0.104-0.094-0.188-0.109-0.25-0.047
		c-0.073,0.052-0.062,0.136,0.031,0.25C5.719,18.656,5.803,18.671,5.865,18.598z M6.334,19.301c0.094-0.073,0.094-0.172,0-0.297
		c-0.083-0.135-0.172-0.167-0.266-0.094c-0.094,0.052-0.094,0.146,0,0.281C6.162,19.328,6.25,19.364,6.334,19.301z M6.99,19.958
		c0.083-0.083,0.062-0.182-0.062-0.297c-0.125-0.125-0.229-0.141-0.312-0.047c-0.094,0.083-0.073,0.183,0.062,0.297
		C6.803,20.036,6.907,20.051,6.99,19.958z M7.881,20.348c0.031-0.114-0.037-0.198-0.203-0.25c-0.156-0.042-0.255-0.005-0.297,0.109
		c-0.042,0.115,0.026,0.193,0.203,0.234C7.74,20.504,7.839,20.473,7.881,20.348z M8.865,20.426c0-0.135-0.089-0.192-0.266-0.172
		c-0.167,0-0.25,0.058-0.25,0.172c0,0.136,0.088,0.193,0.266,0.172C8.782,20.598,8.865,20.541,8.865,20.426z M9.771,20.27
		c-0.021-0.114-0.115-0.161-0.281-0.141c-0.167,0.031-0.24,0.109-0.219,0.234c0.021,0.125,0.114,0.167,0.281,0.125
		C9.719,20.447,9.792,20.375,9.771,20.27z"/>
</g>
</svg>
