<?xml version="1.0" encoding="utf-8"?>
<!-- Generator: Adobe Illustrator 16.0.0, SVG Export Plug-In . SVG Version: 6.00 Build 0)  -->
<!DOCTYPE svg PUBLIC "-//W3C//DTD SVG 1.1//EN" "http://www.w3.org/Graphics/SVG/1.1/DTD/svg11.dtd">
<svg version="1.1" id="Layer_1" xmlns="http://www.w3.org/2000/svg" xmlns:xlink="http://www.w3.org/1999/xlink" x="0px" y="0px"
	 width="57.339px" height="47.723px" viewBox="0 -6.061 57.339 47.723" enable-background="new 0 -6.061 57.339 47.723"
	 xml:space="preserve">
<g>
	<g>
		<path fill="#3C2C3E" d="M28.711-6.438c16.207-0.019,31.542,28.195,27.905,37.388C51.469,43.945,7.956,45.32,0.738,31.002
			C-3.705,22.188,12.718-6.419,28.711-6.438z"/>
		<path fill="#3D2C3F" d="M28.709-6.387c16.18-0.021,31.487,28.145,27.855,37.323c-5.14,12.974-48.579,14.35-55.784,0.056
			C-3.654,22.192,12.743-6.368,28.709-6.387z"/>
		<path fill="#3D2C41" d="M28.707-6.336C44.86-6.357,60.139,21.76,56.514,30.921c-5.132,12.952-48.497,14.328-55.69,0.06
			C-3.602,22.196,12.768-6.315,28.707-6.336z"/>
		<path fill="#3E2C42" d="M28.706-6.286C44.83-6.308,60.082,21.76,56.462,30.907C51.338,43.838,8.047,45.214,0.867,30.97
			C-3.551,22.201,12.794-6.264,28.706-6.286z"/>
		<path fill="#3F2C43" d="M28.704-6.234c16.097-0.022,31.32,27.996,27.706,37.127c-5.115,12.909-48.333,14.286-55.5,0.066
			C-3.499,22.206,12.819-6.211,28.704-6.234z"/>
		<path fill="#3F2C45" d="M28.702-6.183C44.772-6.207,59.968,21.764,56.36,30.879C51.251,43.767,8.108,45.143,0.955,30.948
			C-3.448,22.211,12.845-6.159,28.702-6.183z"/>
		<path fill="#402C46" d="M28.7-6.132c16.042-0.025,31.21,27.896,27.607,36.996c-5.1,12.865-48.17,14.243-55.311,0.073
			C-3.396,22.215,12.869-6.107,28.7-6.132z"/>
		<path fill="#412C47" d="M28.699-6.081c16.014-0.026,31.154,27.846,27.557,36.931C51.164,43.694,8.168,45.072,1.041,30.927
			C-3.345,22.219,12.895-6.055,28.699-6.081z"/>
		<path fill="#412C49" d="M28.698-6.03c15.986-0.027,31.1,27.797,27.507,36.866c-5.083,12.823-48.006,14.2-55.12,0.08
			C-3.293,22.224,12.921-6.003,28.698-6.03z"/>
		<path fill="#422C4A" d="M28.696-5.979C44.655-6.007,59.74,21.768,56.153,30.822c-5.075,12.8-47.925,14.179-55.024,0.083
			C-3.242,22.228,12.946-5.951,28.696-5.979z"/>
		<path fill="#432C4B" d="M28.694-5.928C44.625-5.957,59.683,21.77,56.102,30.808C51.034,43.587,8.259,44.965,1.171,30.895
			C-3.19,22.232,12.971-5.899,28.694-5.928z"/>
		<path fill="#432C4D" d="M28.692-5.876c15.905-0.03,30.935,27.648,27.358,36.67c-5.06,12.757-47.761,14.137-54.835,0.09
			C-3.139,22.237,12.997-5.847,28.692-5.876z"/>
		<path fill="#442C4E" d="M28.69-5.826c15.877-0.031,30.879,27.598,27.309,36.605c-5.052,12.735-47.68,14.115-54.74,0.094
			C-3.088,22.241,13.022-5.795,28.69-5.826z"/>
		<path fill="#452C4F" d="M28.688-5.775c15.851-0.031,30.824,27.548,27.26,36.541C50.904,43.479,8.349,44.859,1.302,30.862
			C-3.036,22.246,13.048-5.743,28.688-5.775z"/>
		<path fill="#452C51" d="M28.687-5.724c15.822-0.033,30.769,27.498,27.209,36.476c-5.036,12.691-47.517,14.071-54.551,0.1
			C-2.985,22.251,13.073-5.691,28.687-5.724z"/>
		<path fill="#462C52" d="M28.685-5.672c15.795-0.034,30.713,27.448,27.159,36.41C50.817,43.407,8.41,44.788,1.388,30.841
			C-2.933,22.256,13.098-5.639,28.685-5.672z"/>
		<path fill="#472C54" d="M28.684-5.621C44.45-5.656,59.341,21.777,55.793,30.724C50.774,43.371,8.44,44.753,1.432,30.83
			C-2.882,22.26,13.124-5.587,28.684-5.621z"/>
		<path fill="#472C55" d="M28.682-5.57c15.739-0.036,30.602,27.349,27.06,36.279C50.73,43.336,8.47,44.717,1.475,30.819
			C-2.83,22.264,13.149-5.535,28.682-5.57z"/>
		<path fill="#482C56" d="M28.68-5.52c15.712-0.037,30.547,27.299,27.01,36.215C50.686,43.3,8.5,44.682,1.518,30.809
			C-2.779,22.269,13.174-5.483,28.68-5.52z"/>
		<path fill="#492C58" d="M28.678-5.468c15.685-0.038,30.492,27.25,26.961,36.149C50.643,43.264,8.531,44.646,1.562,30.798
			C-2.727,22.273,13.199-5.431,28.678-5.468z"/>
		<path fill="#492C59" d="M28.676-5.417c15.658-0.038,30.437,27.199,26.911,36.084C50.6,43.229,8.561,44.611,1.605,30.787
			C-2.676,22.278,13.226-5.378,28.676-5.417z"/>
		<path fill="#4A2C5A" d="M28.674-5.366c15.63-0.04,30.382,27.149,26.861,36.018c-4.98,12.54-46.944,13.923-53.887,0.124
			C-2.625,22.282,13.25-5.327,28.674-5.366z"/>
		<path fill="#4B2C5C" d="M28.672-5.315c15.603-0.041,30.326,27.101,26.812,35.954c-4.972,12.518-46.863,13.9-53.792,0.127
			C-2.573,22.287,13.276-5.275,28.672-5.315z"/>
		<path fill="#4B2C5D" d="M28.671-5.264c15.574-0.042,30.271,27.05,26.761,35.888c-4.963,12.497-46.78,13.88-53.697,0.131
			C-2.522,22.291,13.301-5.223,28.671-5.264z"/>
		<path fill="#4C2C5E" d="M28.669-5.212c15.547-0.043,30.216,27,26.712,35.823C50.426,43.085,8.682,44.469,1.779,30.744
			C-2.47,22.296,13.327-5.17,28.669-5.212z"/>
		<path fill="#4D2C60" d="M28.667-5.162c15.521-0.043,30.16,26.95,26.663,35.758C50.381,43.049,8.711,44.433,1.822,30.733
			C-2.419,22.301,13.352-5.118,28.667-5.162z"/>
		<path fill="#4D2C61" d="M28.665-5.111c15.492-0.044,30.104,26.9,26.612,35.693C50.338,43.013,8.741,44.397,1.865,30.723
			C-2.368,22.305,13.377-5.066,28.665-5.111z"/>
		<path fill="#4E2C62" d="M28.664-5.06c15.464-0.045,30.049,26.851,26.562,35.628C50.294,42.978,8.772,44.361,1.908,30.712
			C-2.316,22.31,13.403-5.015,28.664-5.06z"/>
		<path fill="#4F2C64" d="M28.662-5.008C44.1-5.055,58.656,21.793,55.176,30.554C50.251,42.941,8.803,44.326,1.952,30.701
			C-2.264,22.314,13.429-4.962,28.662-5.008z"/>
		<path fill="#4F2C65" d="M28.66-4.957C44.07-5.005,58.6,21.794,55.123,30.54C50.207,42.905,8.832,44.291,1.995,30.69
			C-2.213,22.318,13.453-4.91,28.66-4.957z"/>
		<path fill="#502C66" d="M28.658-4.906C44.04-4.955,58.542,21.795,55.073,30.525C50.164,42.869,8.863,44.255,2.038,30.68
			C-2.162,22.322,13.479-4.858,28.658-4.906z"/>
		<path fill="#512D68" d="M28.657-4.855c15.354-0.049,29.828,26.651,26.363,35.367C50.12,42.834,8.893,44.22,2.082,30.669
			C-2.11,22.328,13.504-4.807,28.657-4.855z"/>
		<path fill="#522D69" d="M28.656-4.804c15.327-0.05,29.772,26.601,26.313,35.301C50.077,42.798,8.923,44.185,2.125,30.658
			C-2.058,22.332,13.53-4.754,28.656-4.804z"/>
		<path fill="#522D6A" d="M28.654-4.753c15.3-0.051,29.718,26.552,26.265,35.237C50.033,42.762,8.953,44.149,2.169,30.647
			C-2.008,22.337,13.555-4.702,28.654-4.753z"/>
		<path fill="#532D6C" d="M28.653-4.702C43.924-4.755,58.315,21.8,54.866,30.469C49.99,42.727,8.984,44.113,2.212,30.637
			C-1.956,22.341,13.581-4.65,28.653-4.702z"/>
		<path fill="#542D6D" d="M28.65-4.651c15.245-0.053,29.607,26.452,26.165,35.106C49.947,42.69,9.014,44.078,2.256,30.626
			C-1.905,22.346,13.606-4.598,28.65-4.651z"/>
		<path fill="#542D6E" d="M28.649-4.6C43.865-4.654,58.2,21.803,54.764,30.44c-4.861,12.214-45.72,13.602-52.465,0.175
			C-1.853,22.35,13.632-4.546,28.649-4.6z"/>
		<path fill="#552D70" d="M28.647-4.549c15.189-0.056,29.496,26.353,26.065,34.976C49.86,42.619,9.074,44.008,2.342,30.604
			C-1.802,22.354,13.656-4.494,28.647-4.549z"/>
		<path fill="#562D71" d="M28.645-4.498C43.807-4.554,58.086,21.805,54.66,30.413C49.816,42.582,9.105,43.972,2.385,30.594
			C-1.751,22.359,13.682-4.442,28.645-4.498z"/>
		<path fill="#562D72" d="M28.643-4.447C43.778-4.504,58.03,21.807,54.61,30.398C49.773,42.547,9.135,43.936,2.429,30.583
			C-1.699,22.363,13.707-4.39,28.643-4.447z"/>
		<path fill="#572D74" d="M28.642-4.396c15.106-0.059,29.331,26.203,25.916,34.78C49.729,42.511,9.165,43.9,2.472,30.572
			C-1.647,22.368,13.733-4.338,28.642-4.396z"/>
		<path fill="#582D75" d="M28.64-4.345c15.079-0.06,29.275,26.153,25.866,34.715c-4.82,12.104-45.311,13.495-51.99,0.191
			C-1.595,22.373,13.758-4.286,28.64-4.345z"/>
		<path fill="#582D76" d="M28.638-4.293c15.052-0.061,29.22,26.104,25.817,34.65C49.642,42.439,9.225,43.83,2.559,30.551
			C-1.545,22.377,13.783-4.234,28.638-4.293z"/>
		<path fill="#592D78" d="M28.636-4.242C43.66-4.304,57.801,21.811,54.403,30.342c-4.805,12.062-45.147,13.452-51.8,0.198
			C-1.493,22.382,13.809-4.182,28.636-4.242z"/>
		<path fill="#5A2D79" d="M28.634-4.191c14.997-0.062,29.11,26.004,25.718,34.52C49.555,42.367,9.285,43.759,2.646,30.529
			C-1.442,22.387,13.834-4.13,28.634-4.191z"/>
		<path fill="#5A2D7A" d="M28.633-4.141C43.602-4.204,57.688,21.813,54.3,30.313C49.512,42.332,9.316,43.723,2.689,30.519
			C-1.39,22.391,13.86-4.078,28.633-4.141z"/>
		<path fill="#5B2D7C" d="M28.631-4.089C43.573-4.153,57.63,21.815,54.248,30.3c-4.78,11.996-44.902,13.388-51.516,0.208
			C-1.339,22.396,13.885-4.025,28.631-4.089z"/>
		<path fill="#5C2D7D" d="M28.629-4.038c14.914-0.065,28.943,25.854,25.568,34.323C49.424,42.26,9.377,43.652,2.776,30.497
			C-1.287,22.399,13.911-3.974,28.629-4.038z"/>
		<path fill="#5C2D7F" d="M28.627-3.987c14.887-0.067,28.889,25.804,25.519,34.258C49.381,42.225,9.406,43.617,2.82,30.486
			C-1.236,22.404,13.936-3.922,28.627-3.987z"/>
		<path fill="#5D2D80" d="M28.626-3.937c14.858-0.067,28.833,25.755,25.468,34.194C49.338,42.188,9.437,43.581,2.863,30.476
			C-1.184,22.409,13.961-3.87,28.626-3.937z"/>
		<path fill="#5E2D81" d="M28.623-3.885c14.833-0.068,28.778,25.706,25.42,34.128C49.294,42.152,9.467,43.546,2.906,30.465
			C-1.133,22.413,13.987-3.817,28.623-3.885z"/>
		<path fill="#5E2D83" d="M28.622-3.834c14.804-0.069,28.723,25.655,25.369,34.063C49.25,42.116,9.497,43.51,2.949,30.454
			C-1.082,22.418,14.012-3.766,28.622-3.834z"/>
		<path fill="#5F2D84" d="M28.62-3.783c14.777-0.07,28.667,25.605,25.319,33.998C49.207,42.08,9.528,43.475,2.992,30.443
			C-1.03,22.422,14.037-3.713,28.62-3.783z"/>
		<path fill="#602D85" d="M28.618-3.731c14.75-0.071,28.612,25.556,25.271,33.933C49.164,42.045,9.558,43.439,3.036,30.433
			C-0.979,22.427,14.063-3.661,28.618-3.731z"/>
		<path fill="#602D87" d="M28.617-3.681c14.721-0.072,28.557,25.506,25.22,33.867C49.12,42.009,9.588,43.403,3.079,30.422
			C-0.927,22.432,14.088-3.609,28.617-3.681z"/>
		<path fill="#612D88" d="M28.615-3.63c14.694-0.073,28.501,25.456,25.17,33.803c-4.709,11.8-44.167,13.195-50.662,0.238
			C-0.876,22.436,14.114-3.558,28.615-3.63z"/>
		<path fill="#622D89" d="M28.614-3.579c14.667-0.074,28.446,25.407,25.12,33.737C49.033,41.937,9.648,43.333,3.166,30.4
			C-0.824,22.44,14.139-3.505,28.614-3.579z"/>
		<path fill="#622D8B" d="M28.612-3.527c14.64-0.076,28.391,25.356,25.071,33.672C48.99,41.901,9.679,43.297,3.21,30.39
			C-0.773,22.445,14.164-3.454,28.612-3.527z"/>
		<path fill="#632D8C" d="M28.61-3.476C43.222-3.552,56.946,21.83,53.631,30.13C48.947,41.865,9.709,43.262,3.253,30.379
			C-0.721,22.449,14.19-3.401,28.61-3.476z"/>
		<path fill="#642D8D" d="M28.608-3.426c14.585-0.077,28.281,25.257,24.972,33.542c-4.677,11.713-43.84,13.109-50.283,0.252
			C-0.67,22.454,14.215-3.349,28.608-3.426z"/>
		<path fill="#642D8F" d="M28.607-3.375c14.557-0.078,28.225,25.208,24.922,33.476C48.86,41.794,9.769,43.19,3.34,30.357
			C-0.618,22.458,14.24-3.297,28.607-3.375z"/>
		<path fill="#652D90" d="M28.605-3.323c14.529-0.079,28.17,25.157,24.872,33.411C48.816,41.758,9.8,43.155,3.383,30.347
			C-0.567,22.463,14.266-3.245,28.605-3.323z"/>
	</g>
	<g>
		<path fill="#FFFFFF" d="M28.475-2.125c6.947-0.009,13.708,6.093,18.342,13.182c4.634,7.088,7.141,15.164,5.582,19.104
			c-2.207,5.572-12.636,8.652-23.287,8.805c-10.652,0.153-21.525-2.621-24.619-8.76c-1.904-3.778,0.663-11.856,5.421-18.993
			C14.671,4.077,21.619-2.117,28.475-2.125z"/>
		<path fill="#FFFFFF" d="M10.184,10.998c0.885-1.308,1.844-2.583,2.863-3.792c4.456-5.286,10.06-9.299,15.6-9.266
			c6.885,0.031,13.581,6.086,18.177,13.117c4.634,7.088,7.141,15.164,5.582,19.104c-2.19,5.531-12.51,8.6-23.066,8.772
			c-4.524,0.077-9.093-0.376-13.087-1.395c-5.322-1.365-9.616-3.733-11.404-7.19c-0.169-0.418-0.285-0.893-0.348-1.416
			c-0.057-0.476-0.075-0.992-0.048-1.544c0.041-0.85,0.177-1.784,0.361-2.785c0.335-1.832,0.9-3.922,1.692-6.064
			c0.491-1.328,1.084-2.675,1.742-4.013C8.838,13.326,9.482,12.139,10.184,10.998z"/>
		<path fill="#FFFFFF" d="M10.454,10.783c0.884-1.289,1.841-2.545,2.857-3.733c4.438-5.198,10.007-9.119,15.507-9.046
			c6.822,0.071,13.455,6.08,18.013,13.053c4.634,7.088,7.141,15.164,5.582,19.104c-2.175,5.49-12.384,8.546-22.847,8.742
			c-4.49,0.087-9.028-0.35-13.002-1.346c-5.281-1.337-9.552-3.665-11.36-7.066c-0.124-0.413-0.199-0.884-0.22-1.405
			c-0.019-0.475-0.002-0.994,0.061-1.548c0.099-0.861,0.286-1.813,0.485-2.842c0.354-1.863,0.864-4.043,1.585-6.261
			c0.443-1.364,0.993-2.739,1.589-4.099C9.24,13.115,9.819,11.916,10.454,10.783z"/>
		<path fill="#FFFEFE" d="M10.725,10.569c0.883-1.271,1.837-2.506,2.851-3.674c4.423-5.11,9.955-8.927,15.414-8.826
			c6.761,0.125,13.328,6.073,17.849,12.988c4.634,7.088,7.141,15.165,5.582,19.104c-2.159,5.449-12.258,8.492-22.626,8.71
			c-4.455,0.099-8.962-0.322-12.918-1.296c-5.24-1.309-9.49-3.596-11.316-6.94c-0.079-0.409-0.113-0.877-0.092-1.396
			c0.019-0.474,0.07-0.995,0.169-1.551c0.156-0.874,0.399-1.843,0.61-2.899c0.377-1.893,0.829-4.165,1.477-6.458
			c0.396-1.399,0.902-2.804,1.437-4.185C9.642,12.903,10.154,11.692,10.725,10.569z"/>
		<path fill="#FFFEFE" d="M10.996,10.354c0.882-1.251,1.834-2.467,2.844-3.615c4.406-5.022,9.901-8.743,15.321-8.606
			C35.86-1.699,42.364,4.2,46.845,11.057c4.634,7.088,7.141,15.164,5.582,19.104c-2.143,5.409-12.132,8.438-22.405,8.679
			c-4.42,0.109-8.899-0.285-12.834-1.246c-5.201-1.27-9.426-3.527-11.272-6.816c-0.035-0.403-0.026-0.868,0.036-1.386
			c0.058-0.475,0.142-0.997,0.277-1.555c0.214-0.888,0.51-1.872,0.734-2.956c0.397-1.924,0.794-4.285,1.37-6.654
			c0.349-1.435,0.81-2.869,1.284-4.271C10.043,12.692,10.49,11.469,10.996,10.354z"/>
		<path fill="#FFFEFE" d="M11.266,10.14c0.882-1.232,1.832-2.428,2.839-3.556c4.39-4.934,9.848-8.559,15.229-8.387
			c6.634,0.213,13.075,6.061,17.519,12.859c4.635,7.088,7.142,15.164,5.582,19.104c-2.125,5.368-12.005,8.386-22.184,8.647
			c-4.386,0.12-8.835-0.256-12.75-1.196c-5.162-1.239-9.364-3.458-11.229-6.692c0.01-0.397,0.06-0.86,0.164-1.375
			c0.096-0.475,0.217-1,0.386-1.559c0.273-0.901,0.621-1.901,0.858-3.012c0.418-1.955,0.76-4.406,1.262-6.851
			c0.302-1.47,0.719-2.936,1.131-4.357C10.445,12.48,10.826,11.246,11.266,10.14z"/>
		<path fill="#FFFEFE" d="M11.536,9.925c0.881-1.213,1.829-2.389,2.832-3.497c4.374-4.846,9.796-8.375,15.137-8.167
			c6.571,0.257,12.948,6.054,17.354,12.794C51.493,18.145,54,26.221,52.442,30.16c-2.11,5.327-11.88,8.332-21.965,8.615
			c-4.351,0.132-8.77-0.227-12.666-1.146c-5.121-1.208-9.3-3.388-11.185-6.567c0.055-0.393,0.146-0.854,0.292-1.365
			c0.134-0.475,0.29-1.002,0.494-1.562c0.333-0.915,0.731-1.932,0.982-3.069c0.438-1.985,0.728-4.523,1.156-7.048
			c0.255-1.502,0.627-3,0.978-4.442C10.847,12.268,11.162,11.022,11.536,9.925z"/>
		<path fill="#FFFDFE" d="M11.807,9.71c0.879-1.193,1.826-2.349,2.826-3.438c4.357-4.758,9.743-8.191,15.044-7.946
			c6.509,0.301,12.821,6.048,17.189,12.73c4.634,7.088,7.141,15.164,5.582,19.104c-2.094,5.286-11.753,8.279-21.744,8.584
			c-4.316,0.143-8.705-0.197-12.582-1.097c-5.08-1.179-9.238-3.319-11.141-6.442c0.099-0.389,0.233-0.846,0.419-1.355
			c0.173-0.476,0.366-1.005,0.603-1.565c0.394-0.93,0.842-1.961,1.106-3.126c0.458-2.017,0.694-4.643,1.048-7.244
			c0.209-1.537,0.536-3.067,0.826-4.528C11.248,12.056,11.498,10.799,11.807,9.71z"/>
		<path fill="#FFFDFD" d="M12.078,9.496c0.878-1.174,1.822-2.311,2.82-3.378c4.341-4.67,9.69-8.008,14.951-7.727
			c6.445,0.344,12.695,6.042,17.024,12.666c4.635,7.088,7.142,15.164,5.582,19.104c-2.077,5.246-11.627,8.226-21.523,8.553
			c-4.282,0.154-8.64-0.168-12.497-1.047c-5.04-1.147-9.175-3.25-11.097-6.318c0.144-0.383,0.32-0.839,0.547-1.346
			c0.212-0.475,0.439-1.006,0.711-1.568c0.455-0.943,0.953-1.989,1.231-3.183c0.478-2.046,0.663-4.761,0.941-7.44
			c0.163-1.571,0.444-3.133,0.673-4.614C11.65,11.843,11.834,10.576,12.078,9.496z"/>
		<path fill="#FFFDFD" d="M12.348,9.281c0.878-1.156,1.819-2.272,2.814-3.32c4.325-4.582,9.637-7.824,14.858-7.506
			c6.384,0.388,12.568,6.036,16.861,12.602c4.633,7.088,7.141,15.164,5.581,19.104c-2.062,5.204-11.501,8.172-21.303,8.521
			c-4.247,0.165-8.575-0.139-12.413-0.997c-4.999-1.118-9.112-3.181-11.053-6.193c0.188-0.378,0.408-0.831,0.674-1.335
			c0.251-0.476,0.516-1.01,0.82-1.573c0.516-0.956,1.063-2.018,1.355-3.238c0.498-2.078,0.63-4.878,0.833-7.638
			c0.118-1.604,0.352-3.199,0.521-4.7C12.051,11.629,12.17,10.353,12.348,9.281z"/>
		<path fill="#FFFDFD" d="M12.619,9.066c0.876-1.136,1.816-2.233,2.807-3.26c4.309-4.494,9.583-7.641,14.766-7.287
			c6.319,0.432,12.442,6.029,16.696,12.537c4.634,7.088,7.141,15.164,5.582,19.104c-2.045,5.163-11.376,8.118-21.083,8.489
			c-4.212,0.176-8.51-0.11-12.329-0.948c-4.958-1.088-9.049-3.111-11.009-6.068c0.233-0.372,0.495-0.824,0.802-1.325
			c0.291-0.476,0.592-1.011,0.929-1.575c0.58-0.972,1.173-2.049,1.479-3.297c0.517-2.108,0.599-4.996,0.726-7.834
			c0.073-1.637,0.259-3.266,0.367-4.785C12.452,11.416,12.506,10.129,12.619,9.066z"/>
		<path fill="#FFFCFD" d="M12.889,8.852c0.876-1.118,1.813-2.194,2.802-3.202c4.292-4.406,9.53-7.457,14.672-7.066
			c6.257,0.475,12.315,6.023,16.532,12.473c4.633,7.088,7.14,15.164,5.581,19.103c-2.028,5.122-11.25,8.046-20.862,8.458
			c-4.178,0.179-8.445-0.081-12.245-0.898c-4.917-1.058-8.985-3.042-10.965-5.944c0.278-0.367,0.583-0.815,0.93-1.314
			c0.331-0.477,0.667-1.013,1.037-1.58c0.641-0.984,1.284-2.076,1.603-3.352c0.536-2.14,0.569-5.114,0.619-8.031
			c0.028-1.671,0.167-3.333,0.215-4.872C12.853,11.203,12.842,9.906,12.889,8.852z"/>
		<path fill="#FFFCFC" d="M13.159,8.637c0.875-1.098,1.811-2.154,2.795-3.142c4.276-4.318,9.477-7.274,14.581-6.847
			c6.193,0.518,12.188,6.017,16.366,12.409c4.634,7.088,7.141,15.164,5.582,19.104c-2.013,5.081-11.124,7.991-20.642,8.426
			c-4.144,0.189-8.38-0.052-12.161-0.849c-4.876-1.027-8.923-2.973-10.921-5.819c0.323-0.361,0.67-0.808,1.058-1.305
			c0.371-0.476,0.745-1.016,1.146-1.582c0.706-0.998,1.394-2.107,1.728-3.41c0.557-2.17,0.54-5.23,0.512-8.228
			c-0.016-1.704,0.074-3.4,0.062-4.958C13.253,10.99,13.177,9.683,13.159,8.637z"/>
		<path fill="#FFFCFC" d="M13.43,8.422c0.874-1.079,1.807-2.116,2.789-3.083c4.26-4.23,9.424-7.09,14.487-6.627
			c6.131,0.561,12.062,6.01,16.203,12.344c4.634,7.089,7.14,15.164,5.582,19.104c-1.997,5.04-10.999,7.937-20.422,8.395
			c-4.109,0.199-8.315-0.022-12.077-0.799c-4.835-0.997-8.86-2.904-10.876-5.695c0.367-0.356,0.759-0.8,1.185-1.294
			c0.411-0.477,0.821-1.017,1.254-1.586c0.769-1.012,1.504-2.137,1.852-3.467c0.575-2.2,0.51-5.348,0.404-8.424
			c-0.06-1.738-0.019-3.467-0.091-5.043C13.653,10.776,13.514,9.459,13.43,8.422z"/>
		<path fill="#FFFCFC" d="M13.701,8.208c0.873-1.06,1.807-2.075,2.783-3.024c4.253-4.132,9.37-6.908,14.395-6.407
			c6.066,0.604,11.936,6.004,16.037,12.279c4.634,7.088,7.141,15.164,5.582,19.104c-1.98,5-10.872,7.883-20.2,8.363
			c-4.075,0.21-8.251,0.006-11.994-0.749c-4.795-0.968-8.796-2.835-10.833-5.57c0.412-0.352,0.847-0.793,1.313-1.284
			c0.451-0.476,0.897-1.019,1.362-1.59c0.833-1.024,1.615-2.165,1.977-3.523c0.594-2.231,0.481-5.465,0.296-8.621
			c-0.104-1.77-0.113-3.534-0.244-5.129C14.053,10.563,13.85,9.236,13.701,8.208z"/>
		<path fill="#FFFBFC" d="M13.972,7.994c0.872-1.042,1.803-2.037,2.776-2.965c4.237-4.043,9.317-6.724,14.302-6.187
			c6.005,0.647,11.81,5.998,15.873,12.215c4.635,7.088,7.141,15.164,5.582,19.104c-1.964,4.959-10.746,7.827-19.979,8.331
			c-4.04,0.221-8.186,0.036-11.909-0.698c-4.754-0.938-8.733-2.767-10.789-5.446c0.457-0.347,0.936-0.784,1.441-1.274
			c0.491-0.476,0.975-1.02,1.471-1.593c0.897-1.036,1.725-2.194,2.1-3.58c0.613-2.263,0.453-5.582,0.189-8.817
			c-0.147-1.804-0.207-3.601-0.396-5.215C14.453,10.349,14.186,9.013,13.972,7.994z"/>
		<path fill="#FEFBFC" d="M14.242,7.779c0.871-1.021,1.8-1.997,2.771-2.906c4.22-3.955,9.263-6.542,14.21-5.968
			c5.94,0.689,11.682,5.992,15.708,12.151c4.634,7.088,7.141,15.164,5.581,19.103c-1.947,4.918-10.621,7.771-19.759,8.3
			c-4.006,0.231-8.121,0.065-11.825-0.648c-4.713-0.908-8.671-2.697-10.745-5.322c0.501-0.341,1.022-0.776,1.568-1.265
			c0.531-0.476,1.052-1.021,1.579-1.596c0.961-1.049,1.834-2.224,2.224-3.637c0.633-2.294,0.426-5.7,0.083-9.014
			c-0.19-1.837-0.3-3.668-0.549-5.302C14.853,10.136,14.522,8.79,14.242,7.779z"/>
		<path fill="#FEFBFB" d="M14.512,7.564c0.871-1.002,1.798-1.958,2.765-2.847c4.204-3.867,9.21-6.359,14.117-5.748
			c5.878,0.732,11.556,5.986,15.544,12.087c4.634,7.088,7.141,15.164,5.582,19.104c-1.932,4.877-10.495,7.717-19.539,8.268
			c-3.972,0.241-8.055,0.095-11.741-0.599c-4.672-0.879-8.607-2.628-10.701-5.196c0.546-0.337,1.112-0.77,1.696-1.255
			c0.571-0.475,1.128-1.022,1.688-1.601c1.026-1.061,1.945-2.253,2.348-3.692c0.651-2.325,0.398-5.817-0.025-9.211
			c-0.233-1.87-0.394-3.735-0.702-5.387C15.252,9.922,14.858,8.566,14.512,7.564z"/>
		<path fill="#FEFBFB" d="M14.783,7.35c0.87-0.983,1.794-1.918,2.758-2.788c4.188-3.777,9.156-6.176,14.023-5.528
			c5.814,0.774,11.43,5.979,15.38,12.022c4.634,7.089,7.141,15.165,5.582,19.104c-1.915,4.836-10.37,7.663-19.319,8.236
			c-3.937,0.252-7.99,0.123-11.656-0.549c-4.631-0.849-8.545-2.56-10.657-5.073c0.59-0.331,1.2-0.76,1.824-1.244
			c0.612-0.475,1.206-1.023,1.796-1.604c1.091-1.072,2.054-2.282,2.472-3.75c0.67-2.354,0.371-5.934-0.132-9.407
			c-0.276-1.903-0.489-3.803-0.855-5.473C15.651,9.709,15.194,8.343,14.783,7.35z"/>
		<path fill="#FEFAFB" d="M15.054,7.135c0.869-0.964,1.792-1.879,2.752-2.729c4.172-3.689,9.104-5.993,13.931-5.308
			c5.752,0.817,11.303,5.974,15.215,11.958c4.635,7.088,7.141,15.164,5.582,19.104c-1.898,4.795-10.242,7.609-19.098,8.205
			c-3.902,0.263-7.925,0.151-11.572-0.5c-4.59-0.82-8.482-2.489-10.613-4.947c0.635-0.326,1.288-0.752,1.952-1.234
			c0.652-0.474,1.283-1.024,1.905-1.607c1.156-1.083,2.165-2.312,2.597-3.807c0.689-2.386,0.343-6.051-0.24-9.604
			c-0.318-1.937-0.582-3.87-1.007-5.559C16.051,9.495,15.53,8.12,15.054,7.135z"/>
		<path fill="#FEFAFB" d="M15.324,6.921c0.868-0.945,1.789-1.84,2.746-2.669c4.156-3.601,9.05-5.811,13.839-5.088
			c5.688,0.859,11.176,5.966,15.05,11.893c4.634,7.089,7.141,15.164,5.582,19.104c-1.883,4.755-10.117,7.554-18.878,8.174
			c-3.867,0.273-7.86,0.18-11.488-0.45c-4.548-0.79-8.419-2.421-10.569-4.823c0.681-0.32,1.377-0.743,2.079-1.224
			c0.692-0.475,1.361-1.024,2.014-1.61c1.221-1.095,2.274-2.342,2.721-3.863c0.709-2.418,0.318-6.169-0.347-9.801
			c-0.361-1.971-0.678-3.937-1.161-5.645C16.449,9.283,15.866,7.896,15.324,6.921z"/>
		<path fill="#FEFAFB" d="M15.595,6.706c0.867-0.926,1.786-1.801,2.74-2.61c4.141-3.511,8.996-5.629,13.746-4.868
			c5.624,0.901,11.049,5.961,14.886,11.829c4.634,7.089,7.141,15.164,5.582,19.104c-1.867,4.714-9.991,7.5-18.657,8.143
			c-3.833,0.284-7.795,0.209-11.404-0.4c-4.508-0.761-8.355-2.352-10.525-4.699c0.725-0.315,1.464-0.735,2.207-1.214
			c0.732-0.473,1.437-1.025,2.122-1.614c1.286-1.106,2.385-2.371,2.845-3.92c0.728-2.448,0.292-6.287-0.454-9.998
			c-0.403-2.003-0.772-4.002-1.313-5.73C16.848,9.069,16.202,7.673,15.595,6.706z"/>
		<path fill="#FEFAFA" d="M15.865,6.491c0.866-0.907,1.783-1.762,2.733-2.552c4.124-3.423,8.942-5.446,13.653-4.647
			c5.561,0.942,10.923,5.954,14.721,11.765c4.634,7.088,7.141,15.164,5.582,19.104c-1.851,4.673-9.866,7.445-18.437,8.11
			c-3.798,0.295-7.73,0.237-11.32-0.351c-4.468-0.731-8.293-2.282-10.481-4.574c0.769-0.311,1.553-0.726,2.334-1.203
			c0.772-0.472,1.515-1.026,2.23-1.618c1.351-1.117,2.494-2.4,2.969-3.978c0.746-2.479,0.267-6.405-0.562-10.193
			c-0.445-2.037-0.867-4.07-1.466-5.816C17.247,8.855,16.537,7.45,15.865,6.491z"/>
		<path fill="#FEF9FA" d="M16.136,6.277c0.865-0.888,1.779-1.723,2.728-2.493c4.108-3.334,8.889-5.264,13.561-4.428
			c5.497,0.984,10.796,5.948,14.557,11.7c4.634,7.089,7.141,15.164,5.581,19.104c-1.834,4.632-9.739,7.393-18.216,8.079
			c-3.764,0.305-7.664,0.267-11.236-0.301c-4.426-0.702-8.23-2.213-10.437-4.45c0.813-0.305,1.641-0.718,2.462-1.193
			c0.813-0.472,1.592-1.026,2.339-1.621c1.416-1.128,2.605-2.43,3.094-4.033c0.765-2.511,0.24-6.523-0.669-10.391
			c-0.487-2.071-0.962-4.137-1.619-5.902C17.645,8.643,16.874,7.227,16.136,6.277z"/>
		<path fill="#FEF9FA" d="M16.406,6.062c0.864-0.869,1.777-1.684,2.722-2.434c4.091-3.246,8.835-5.082,13.468-4.208
			c5.434,1.025,10.67,5.942,14.393,11.636c4.633,7.089,7.141,15.164,5.581,19.104c-1.818,4.592-9.614,7.337-17.996,8.048
			c-3.729,0.316-7.599,0.295-11.151-0.251c-4.385-0.674-8.167-2.145-10.394-4.325c0.858-0.3,1.729-0.709,2.59-1.184
			c0.854-0.47,1.669-1.026,2.447-1.624c1.481-1.139,2.714-2.46,3.218-4.091c0.784-2.541,0.215-6.641-0.776-10.587
			c-0.529-2.105-1.057-4.204-1.771-5.988C18.044,8.43,17.21,7.003,16.406,6.062z"/>
		<path fill="#FEF9FA" d="M16.677,5.848c0.863-0.85,1.774-1.645,2.716-2.374c4.075-3.157,8.78-4.901,13.374-3.988
			c5.371,1.067,10.544,5.935,14.228,11.571c4.635,7.089,7.141,15.164,5.582,19.104c-1.803,4.551-9.488,7.282-17.775,8.016
			c-3.693,0.327-7.534,0.322-11.067-0.201c-4.344-0.645-8.104-2.074-10.349-4.2c0.903-0.295,1.817-0.7,2.718-1.174
			c0.893-0.469,1.747-1.026,2.555-1.628c1.545-1.149,2.824-2.489,3.342-4.147c0.803-2.572,0.19-6.759-0.884-10.784
			c-0.57-2.138-1.152-4.269-1.924-6.073C18.443,8.217,17.546,6.78,16.677,5.848z"/>
		<path fill="#FEF9F9" d="M16.948,5.633c0.862-0.83,1.771-1.605,2.709-2.315c4.059-3.069,8.728-4.718,13.282-3.768
			c5.307,1.107,10.417,5.929,14.063,11.507c4.633,7.088,7.141,15.164,5.581,19.104c-1.786,4.509-9.362,7.229-17.556,7.984
			c-3.659,0.338-7.468,0.352-10.982-0.151c-4.302-0.616-8.041-2.006-10.305-4.076c0.948-0.29,1.905-0.692,2.845-1.164
			c0.933-0.468,1.824-1.027,2.664-1.631c1.611-1.158,2.934-2.518,3.466-4.204c0.821-2.604,0.166-6.878-0.991-10.98
			c-0.612-2.171-1.247-4.336-2.077-6.16C18.841,8.003,17.881,6.557,16.948,5.633z"/>
		<path fill="#FEF8F9" d="M17.218,5.419c0.861-0.812,1.768-1.567,2.703-2.256c4.043-2.979,8.674-4.537,13.189-3.548
			c5.243,1.148,10.29,5.923,13.898,11.442c4.634,7.089,7.141,15.164,5.581,19.104c-1.77,4.469-9.236,7.174-17.334,7.952
			c-3.625,0.349-7.403,0.381-10.899-0.101c-4.261-0.587-7.978-1.938-10.261-3.952c0.992-0.284,1.993-0.683,2.973-1.153
			c0.973-0.467,1.901-1.027,2.772-1.635c1.676-1.168,3.043-2.548,3.59-4.261c0.84-2.635,0.142-6.997-1.098-11.177
			c-0.654-2.206-1.343-4.402-2.23-6.246C19.239,7.791,18.218,6.333,17.218,5.419z"/>
		<path fill="#FEF8F9" d="M17.49,5.204c0.86-0.792,1.764-1.528,2.696-2.197c4.026-2.892,8.62-4.355,13.097-3.328
			c5.18,1.189,10.163,5.916,13.733,11.378c4.635,7.089,7.142,15.164,5.582,19.104c-1.753,4.428-9.111,7.122-17.114,7.922
			c-3.591,0.358-7.337,0.408-10.814-0.052c-4.22-0.558-7.915-1.868-10.218-3.827c1.037-0.279,2.082-0.675,3.101-1.144
			c1.014-0.467,1.979-1.027,2.881-1.638c1.742-1.179,3.154-2.577,3.715-4.318c0.858-2.665,0.116-7.115-1.206-11.373
			c-0.695-2.24-1.438-4.469-2.383-6.332C19.636,7.579,18.554,6.11,17.49,5.204z"/>
		<path fill="#FEF8F9" d="M17.76,4.989c0.859-0.773,1.761-1.488,2.69-2.138c4.01-2.803,8.567-4.175,13.004-3.108
			c5.115,1.229,10.036,5.91,13.569,11.313c4.633,7.088,7.141,15.164,5.581,19.104c-1.737,4.387-8.984,7.067-16.894,7.89
			c-3.557,0.37-7.272,0.437-10.73-0.002c-4.179-0.53-7.852-1.799-10.173-3.702c1.082-0.274,2.169-0.666,3.228-1.134
			c1.054-0.466,2.056-1.027,2.989-1.642c1.806-1.188,3.264-2.606,3.839-4.375c0.877-2.696,0.092-7.233-1.313-11.57
			c-0.736-2.273-1.534-4.534-2.536-6.417C20.035,7.366,18.889,5.887,17.76,4.989z"/>
		<path fill="#FEF8F9" d="M18.03,4.774c0.859-0.754,1.759-1.45,2.685-2.079c3.993-2.715,8.512-3.993,12.911-2.888
			c5.053,1.27,9.91,5.903,13.405,11.249c4.634,7.089,7.14,15.165,5.581,19.104c-1.721,4.346-8.859,7.012-16.674,7.857
			c-3.521,0.381-7.206,0.465-10.646,0.049c-4.138-0.501-7.789-1.729-10.129-3.578c1.126-0.27,2.258-0.657,3.356-1.123
			c1.094-0.465,2.133-1.027,3.098-1.646c1.871-1.198,3.374-2.637,3.963-4.432c0.896-2.728,0.068-7.353-1.42-11.767
			c-0.778-2.308-1.629-4.6-2.688-6.503C20.433,7.153,19.225,5.663,18.03,4.774z"/>
		<path fill="#FEF7F8" d="M18.301,4.561c0.858-0.735,1.755-1.411,2.678-2.02c3.977-2.626,8.459-3.812,12.818-2.668
			c4.989,1.31,9.783,5.897,13.24,11.185c4.634,7.088,7.141,15.164,5.582,19.104c-1.705,4.305-8.733,6.959-16.453,7.826
			c-3.487,0.392-7.142,0.492-10.562,0.098c-4.096-0.473-7.726-1.66-10.085-3.453c1.171-0.264,2.346-0.647,3.484-1.113
			c1.133-0.464,2.21-1.027,3.207-1.648c1.937-1.208,3.483-2.665,4.087-4.488c0.915-2.759,0.042-7.471-1.528-11.963
			c-0.819-2.342-1.724-4.667-2.841-6.589C20.83,6.941,19.561,5.44,18.301,4.561z"/>
		<path fill="#FEF7F8" d="M18.572,4.346c0.856-0.716,1.752-1.372,2.671-1.961c3.96-2.538,8.405-3.632,12.726-2.448
			c4.926,1.349,9.657,5.891,13.076,11.12c4.633,7.089,7.14,15.164,5.581,19.104c-1.688,4.264-8.606,6.906-16.232,7.795
			c-3.452,0.402-7.076,0.521-10.478,0.147c-4.055-0.444-7.663-1.591-10.042-3.329c1.216-0.259,2.434-0.639,3.612-1.103
			c1.173-0.462,2.287-1.027,3.314-1.652c2.001-1.217,3.592-2.695,4.211-4.545c0.933-2.789,0.02-7.591-1.635-12.16
			c-0.86-2.376-1.82-4.731-2.994-6.674C21.229,6.729,19.898,5.217,18.572,4.346z"/>
		<path fill="#FEF7F8" d="M18.842,4.131c0.856-0.696,1.749-1.333,2.666-1.901c3.944-2.449,8.352-3.452,12.634-2.229
			c4.862,1.389,9.53,5.885,12.911,11.056c4.634,7.088,7.141,15.164,5.581,19.104c-1.672,4.223-8.481,6.853-16.012,7.764
			c-3.418,0.413-7.01,0.548-10.394,0.197c-4.014-0.416-7.601-1.522-9.998-3.204c1.261-0.254,2.522-0.63,3.739-1.093
			c1.214-0.461,2.364-1.028,3.423-1.656c2.067-1.227,3.703-2.725,4.336-4.602c0.952-2.82-0.005-7.71-1.742-12.356
			c-0.901-2.411-1.915-4.798-3.146-6.761C21.626,6.516,20.234,4.994,18.842,4.131z"/>
		<path fill="#FEF7F8" d="M19.112,3.917c0.855-0.677,1.746-1.293,2.66-1.843c3.927-2.362,8.298-3.271,12.541-2.008
			c4.799,1.428,9.403,5.878,12.746,10.991c4.634,7.089,7.141,15.164,5.582,19.104c-1.656,4.183-8.356,6.799-15.792,7.731
			c-3.383,0.425-6.944,0.576-10.31,0.247c-3.972-0.389-7.537-1.453-9.954-3.079c1.305-0.249,2.61-0.622,3.867-1.083
			c1.254-0.46,2.441-1.027,3.531-1.659c2.132-1.235,3.812-2.755,4.46-4.658c0.97-2.852-0.028-7.83-1.85-12.554
			c-0.942-2.445-2.011-4.864-3.299-6.846C22.025,6.304,20.57,4.771,19.112,3.917z"/>
		<path fill="#FEF6F8" d="M19.383,3.702c0.854-0.658,1.743-1.255,2.653-1.784c3.91-2.273,8.245-3.091,12.448-1.788
			c4.734,1.467,9.276,5.872,12.582,10.927c4.633,7.089,7.14,15.164,5.581,19.104c-1.64,4.142-8.23,6.745-15.571,7.7
			c-3.348,0.436-6.88,0.604-10.226,0.297c-3.931-0.361-7.474-1.384-9.91-2.955c1.351-0.243,2.698-0.613,3.996-1.073
			c1.293-0.459,2.518-1.026,3.64-1.662c2.196-1.245,3.921-2.784,4.583-4.715c0.988-2.883-0.053-7.95-1.957-12.75
			c-0.984-2.48-2.106-4.929-3.452-6.933C22.423,6.092,20.906,4.547,19.383,3.702z"/>
		<path fill="#FEF6F7" d="M19.653,3.487c0.853-0.639,1.74-1.215,2.648-1.725c3.893-2.185,8.191-2.911,12.354-1.568
			c4.673,1.506,9.151,5.866,12.417,10.862c4.635,7.089,7.141,15.164,5.582,19.104c-1.624,4.1-8.104,6.692-15.351,7.669
			c-3.313,0.446-6.814,0.632-10.142,0.347c-3.89-0.333-7.411-1.315-9.866-2.831c1.395-0.238,2.786-0.604,4.123-1.062
			c1.334-0.458,2.596-1.026,3.749-1.666c2.261-1.254,4.03-2.813,4.707-4.771c1.007-2.914-0.074-8.07-2.063-12.947
			c-1.025-2.513-2.202-4.995-3.604-7.018C22.821,5.88,21.241,4.323,19.653,3.487z"/>
		<path fill="#FEF6F7" d="M19.924,3.272c0.853-0.62,1.736-1.176,2.641-1.665c3.877-2.097,8.137-2.731,12.262-1.349
			c4.608,1.545,9.024,5.859,12.253,10.798c4.634,7.089,7.141,15.164,5.581,19.104c-1.607,4.06-7.978,6.639-15.13,7.637
			c-3.279,0.458-6.748,0.659-10.058,0.396c-3.848-0.306-7.348-1.245-9.821-2.706c1.439-0.233,2.874-0.596,4.25-1.053
			c1.374-0.457,2.673-1.025,3.857-1.669c2.327-1.265,4.141-2.843,4.833-4.828c1.025-2.945-0.1-8.189-2.172-13.144
			c-1.066-2.548-2.297-5.061-3.757-7.104C23.218,5.668,21.577,4.1,19.924,3.272z"/>
		<path fill="#FEF6F7" d="M20.195,3.058c0.852-0.601,1.733-1.137,2.635-1.606c3.861-2.008,8.085-2.552,12.17-1.128
			c4.545,1.583,8.897,5.853,12.088,10.733c4.634,7.088,7.141,15.164,5.582,19.104c-1.592,4.019-7.853,6.586-14.91,7.605
			c-3.245,0.469-6.683,0.687-9.973,0.446c-3.806-0.278-7.285-1.177-9.778-2.581c1.484-0.229,2.962-0.587,4.378-1.043
			c1.414-0.456,2.75-1.026,3.965-1.673c2.393-1.273,4.25-2.873,4.957-4.886c1.044-2.976-0.123-8.308-2.279-13.34
			c-1.106-2.583-2.392-5.125-3.91-7.189C23.616,5.456,21.913,3.877,20.195,3.058z"/>
		<path fill="#FEF5F7" d="M20.465,2.843c0.851-0.582,1.73-1.098,2.629-1.547c3.843-1.92,8.03-2.372,12.077-0.908
			c4.482,1.622,8.771,5.847,11.923,10.669c4.635,7.089,7.141,15.164,5.582,19.104c-1.575,3.978-7.727,6.532-14.689,7.574
			c-3.21,0.48-6.618,0.714-9.889,0.496c-3.766-0.25-7.222-1.107-9.734-2.457c1.528-0.223,3.05-0.577,4.506-1.032
			c1.454-0.455,2.827-1.026,4.074-1.677c2.457-1.281,4.36-2.902,5.08-4.941c1.062-3.009-0.146-8.429-2.387-13.537
			c-1.147-2.618-2.488-5.191-4.062-7.276C24.014,5.244,22.249,3.653,20.465,2.843z"/>
		<path fill="#FEF5F6" d="M20.736,2.629c0.85-0.563,1.728-1.06,2.623-1.488c3.827-1.832,7.978-2.193,11.985-0.688
			c4.419,1.66,8.644,5.84,11.759,10.604c4.634,7.089,7.141,15.164,5.581,19.104c-1.56,3.937-7.601,6.481-14.469,7.543
			c-3.176,0.491-6.552,0.74-9.805,0.545c-3.724-0.224-7.159-1.038-9.69-2.332c1.573-0.218,3.138-0.568,4.633-1.022
			c1.494-0.454,2.904-1.026,4.183-1.681c2.521-1.29,4.47-2.931,5.205-4.998c1.08-3.038-0.17-8.549-2.494-13.733
			c-1.188-2.652-2.583-5.256-4.215-7.361C24.412,5.032,22.585,3.431,20.736,2.629z"/>
		<path fill="#FEF5F6" d="M21.006,2.414c0.849-0.543,1.724-1.021,2.616-1.429c3.811-1.744,7.925-2.014,11.892-0.469
			c4.356,1.697,8.518,5.834,11.595,10.54c4.634,7.089,7.141,15.164,5.581,19.104c-1.542,3.896-7.475,6.427-14.248,7.511
			c-3.141,0.503-6.486,0.769-9.721,0.596c-3.682-0.196-7.096-0.97-9.646-2.208c1.617-0.213,3.226-0.559,4.761-1.012
			c1.534-0.452,2.981-1.025,4.291-1.684c2.587-1.3,4.579-2.962,5.328-5.056c1.099-3.07-0.192-8.67-2.6-13.93
			c-1.229-2.687-2.681-5.322-4.369-7.447C24.81,4.821,22.921,3.207,21.006,2.414z"/>
		<path fill="#FEF5F6" d="M21.277,2.199c0.848-0.524,1.721-0.981,2.61-1.37c3.794-1.656,7.871-1.835,11.799-0.249
			c4.294,1.735,8.391,5.827,11.43,10.476c4.635,7.089,7.141,15.164,5.582,19.104c-1.527,3.855-7.349,6.375-14.027,7.479
			c-3.107,0.514-6.422,0.795-9.638,0.646c-3.64-0.169-7.033-0.9-9.602-2.084c1.662-0.207,3.314-0.55,4.889-1.002
			c1.573-0.451,3.058-1.025,4.399-1.687c2.652-1.309,4.689-2.99,5.453-5.112c1.116-3.102-0.216-8.79-2.708-14.127
			c-1.271-2.721-2.775-5.387-4.521-7.533C25.208,4.609,23.258,2.984,21.277,2.199z"/>
		<path fill="#FEF4F6" d="M21.547,1.985c0.847-0.506,1.718-0.943,2.604-1.312c3.775-1.569,7.818-1.657,11.706-0.028
			c4.23,1.772,8.265,5.821,11.266,10.411c4.633,7.089,7.141,15.164,5.581,19.104c-1.511,3.814-7.223,6.322-13.808,7.448
			c-3.071,0.525-6.354,0.82-9.552,0.694c-3.6-0.142-6.971-0.83-9.559-1.959c1.707-0.202,3.402-0.542,5.017-0.992
			c1.613-0.45,3.134-1.023,4.507-1.689c2.716-1.317,4.799-3.021,5.577-5.169c1.135-3.133-0.24-8.91-2.815-14.323
			c-1.312-2.757-2.87-5.453-4.674-7.619C25.606,4.397,23.593,2.761,21.547,1.985z"/>
		<path fill="#FEF4F6" d="M21.818,1.771c0.846-0.486,1.715-0.904,2.598-1.252C28.175-0.963,32.181-0.96,36.03,0.71
			c4.168,1.809,8.138,5.815,11.101,10.347c4.634,7.089,7.141,15.164,5.581,19.104c-1.494,3.773-7.096,6.27-13.586,7.416
			c-3.038,0.536-6.29,0.849-9.469,0.745c-3.559-0.115-6.907-0.762-9.515-1.835c1.752-0.196,3.49-0.532,5.145-0.981
			c1.653-0.448,3.212-1.024,4.616-1.694c2.78-1.327,4.908-3.049,5.701-5.225c1.153-3.164-0.263-9.03-2.923-14.521
			c-1.353-2.791-2.966-5.517-4.827-7.705C26.004,4.186,23.929,2.537,21.818,1.771z"/>
		<path fill="#FEF4F5" d="M22.088,1.556c0.845-0.467,1.711-0.865,2.592-1.192c3.742-1.393,7.713-1.301,11.521,0.411
			c4.105,1.846,8.011,5.809,10.936,10.282c4.634,7.089,7.141,15.164,5.582,19.104c-1.479,3.732-6.971,6.217-13.367,7.385
			c-3.003,0.549-6.225,0.875-9.384,0.795c-3.516-0.089-6.844-0.693-9.47-1.71c1.796-0.192,3.577-0.523,5.271-0.972
			c1.693-0.447,3.289-1.023,4.725-1.697c2.847-1.336,5.017-3.08,5.825-5.283c1.172-3.194-0.286-9.15-3.03-14.716
			c-1.393-2.826-3.061-5.583-4.979-7.791C26.402,3.974,24.265,2.314,22.088,1.556z"/>
		<path fill="#FDF4F5" d="M22.359,1.341c0.844-0.448,1.708-0.826,2.585-1.134c3.726-1.306,7.661-1.124,11.429,0.63
			c4.044,1.883,7.885,5.803,10.771,10.219c4.635,7.089,7.141,15.164,5.582,19.104c-1.462,3.691-6.845,6.166-13.146,7.354
			c-2.969,0.56-6.159,0.899-9.301,0.844c-3.475-0.062-6.781-0.623-9.426-1.585c1.841-0.187,3.665-0.515,5.4-0.962
			c1.733-0.446,3.365-1.023,4.833-1.701c2.91-1.345,5.127-3.108,5.95-5.339c1.189-3.227-0.309-9.271-3.138-14.913
			c-1.435-2.86-3.157-5.648-5.133-7.876C26.799,3.763,24.601,2.091,22.359,1.341z"/>
		<path fill="#FDF3F5" d="M22.629,1.127c0.844-0.429,1.706-0.787,2.58-1.075c3.708-1.219,7.609-0.946,11.336,0.85
			c3.981,1.919,7.758,5.797,10.606,10.154c4.634,7.089,7.141,15.164,5.581,19.104c-1.445,3.65-6.719,6.114-12.925,7.322
			c-2.934,0.571-6.094,0.926-9.217,0.894c-3.433-0.036-6.718-0.555-9.382-1.461c1.885-0.182,3.754-0.506,5.527-0.951
			s3.443-1.022,4.941-1.704c2.976-1.354,5.237-3.14,6.074-5.396c1.208-3.258-0.331-9.392-3.244-15.109
			c-1.476-2.896-3.253-5.713-5.286-7.963C27.197,3.551,24.937,1.867,22.629,1.127z"/>
		<path fill="#FDF3F5" d="M22.9,0.913c0.843-0.41,1.702-0.749,2.573-1.016c3.692-1.131,7.558-0.768,11.243,1.07
			c3.921,1.955,7.632,5.791,10.442,10.09c4.634,7.089,7.141,15.164,5.581,19.104c-1.429,3.609-6.592,6.061-12.704,7.29
			c-2.899,0.583-6.028,0.952-9.133,0.943c-3.392-0.01-6.654-0.485-9.338-1.335c1.93-0.177,3.842-0.498,5.655-0.942
			s3.521-1.022,5.05-1.707c3.041-1.361,5.347-3.169,6.198-5.453c1.227-3.289-0.354-9.513-3.352-15.307
			c-1.516-2.931-3.349-5.778-5.438-8.048C27.596,3.339,25.273,1.644,22.9,0.913z"/>
		<path fill="#FDF3F5" d="M23.171,0.698c0.841-0.391,1.699-0.71,2.567-0.957c3.675-1.044,7.504-0.591,11.15,1.29
			c3.859,1.991,7.505,5.784,10.277,10.025c4.634,7.089,7.141,15.164,5.582,19.104c-1.413,3.568-6.467,6.009-12.484,7.259
			c-2.864,0.595-5.964,0.979-9.048,0.993c-3.351,0.017-6.592-0.416-9.294-1.211c1.975-0.172,3.929-0.488,5.783-0.932
			s3.597-1.022,5.158-1.712c3.105-1.371,5.456-3.197,6.323-5.509c1.245-3.32-0.379-9.633-3.46-15.503
			c-1.557-2.966-3.443-5.843-5.591-8.134C27.994,3.128,25.609,1.421,23.171,0.698z"/>
		<path fill="#FDF3F4" d="M23.441,0.483c0.841-0.371,1.696-0.67,2.562-0.897c3.657-0.957,7.452-0.415,11.058,1.51
			c3.798,2.027,7.378,5.777,10.113,9.961c4.634,7.089,7.141,15.164,5.581,19.104c-1.397,3.528-6.341,5.957-12.264,7.228
			c-2.829,0.606-5.897,1.004-8.964,1.043c-3.31,0.042-6.529-0.348-9.25-1.087c2.019-0.166,4.017-0.479,5.91-0.922
			c1.893-0.442,3.674-1.021,5.267-1.715c3.17-1.381,5.565-3.227,6.447-5.566c1.263-3.351-0.401-9.753-3.567-15.699
			c-1.598-3-3.538-5.908-5.743-8.22C28.391,2.917,25.945,1.198,23.441,0.483z"/>
		<path fill="#FDF2F4" d="M23.712,0.269c0.84-0.353,1.692-0.632,2.555-0.838c3.641-0.87,7.401-0.238,10.965,1.73
			c3.735,2.062,7.251,5.771,9.948,9.896c4.634,7.089,7.141,15.164,5.581,19.104c-1.381,3.487-6.214,5.904-12.044,7.195
			c-2.794,0.618-5.831,1.029-8.879,1.093c-3.267,0.067-6.466-0.277-9.207-0.962c2.065-0.161,4.105-0.471,6.039-0.912
			c1.933-0.44,3.751-1.021,5.376-1.718c3.234-1.388,5.674-3.257,6.57-5.623c1.281-3.381-0.426-9.874-3.675-15.896
			c-1.639-3.036-3.634-5.974-5.896-8.307C28.789,2.705,26.281,0.974,23.712,0.269z"/>
		<path fill="#FDF2F4" d="M23.982,0.054c0.838-0.333,1.689-0.593,2.549-0.779c3.624-0.782,7.35-0.062,10.873,1.95
			c3.674,2.098,7.124,5.765,9.783,9.832c4.634,7.089,7.141,15.164,5.582,19.104c-1.365,3.446-6.088,5.854-11.823,7.164
			c-2.76,0.63-5.767,1.055-8.796,1.143c-3.226,0.093-6.402-0.209-9.162-0.838c2.109-0.155,4.193-0.458,6.166-0.901
			c1.973-0.437,3.827-1.021,5.484-1.722c3.299-1.396,5.779-3.288,6.694-5.68c1.294-3.415-0.447-9.995-3.781-16.093
			c-1.68-3.071-3.729-6.038-6.049-8.392C29.188,2.493,26.617,0.751,23.982,0.054z"/>
		<path fill="#FDF2F4" d="M24.253-0.161c0.838-0.313,1.686-0.555,2.542-0.72c3.607-0.695,7.299,0.115,10.779,2.17
			c3.614,2.134,6.998,5.759,9.62,9.768c4.634,7.089,7.141,15.164,5.581,19.104c-1.349,3.405-5.962,5.801-11.604,7.132
			c-2.725,0.643-5.7,1.082-8.711,1.193c-3.185,0.118-6.339-0.14-9.118-0.714c2.153-0.15,4.281-0.449,6.293-0.891
			c2.013-0.437,3.904-1.02,5.592-1.725c3.365-1.405,5.891-3.318,6.819-5.737c1.312-3.446-0.469-10.117-3.888-16.29
			c-1.721-3.107-3.825-6.103-6.202-8.478C29.585,2.282,26.953,0.527,24.253-0.161z"/>
		<path fill="#FDF2F3" d="M24.523-0.375c0.837-0.295,1.683-0.517,2.537-0.661c3.59-0.608,7.247,0.291,10.687,2.39
			c3.554,2.168,6.872,5.752,9.455,9.703c4.634,7.089,7.141,15.164,5.581,19.104c-1.332,3.364-5.835,5.751-11.382,7.101
			c-2.69,0.654-5.637,1.105-8.628,1.242c-3.144,0.144-6.276-0.07-9.074-0.588c2.198-0.146,4.369-0.441,6.421-0.882
			c2.053-0.435,3.981-1.02,5.7-1.729c3.429-1.414,6-3.347,6.943-5.793c1.332-3.478-0.492-10.238-3.995-16.486
			c-1.761-3.141-3.921-6.168-6.354-8.563C29.984,2.07,27.289,0.304,24.523-0.375z"/>
		<path fill="#FDF1F3" d="M24.794-0.59c0.836-0.276,1.68-0.478,2.53-0.602c3.573-0.523,7.198,0.467,10.594,2.61
			c3.493,2.203,6.745,5.746,9.29,9.639c4.634,7.089,7.141,15.164,5.581,19.104c-1.315,3.323-5.708,5.7-11.161,7.069
			c-2.655,0.667-5.571,1.131-8.543,1.292c-3.104,0.169-6.214-0.001-9.031-0.464c2.243-0.141,4.458-0.433,6.549-0.871
			c2.093-0.435,4.059-1.02,5.81-1.732c3.492-1.422,6.109-3.377,7.067-5.85c1.35-3.509-0.517-10.359-4.104-16.683
			c-1.803-3.177-4.017-6.233-6.508-8.649C30.381,1.859,27.625,0.081,24.794-0.59z"/>
		<path fill="#FDF1F3" d="M25.065-0.805c0.834-0.257,1.676-0.438,2.523-0.542c3.557-0.437,7.147,0.643,10.502,2.83
			c3.434,2.238,6.618,5.74,9.125,9.574c4.635,7.089,7.142,15.164,5.582,19.104c-1.3,3.282-5.583,5.648-10.941,7.037
			c-2.62,0.679-5.506,1.156-8.459,1.343c-3.062,0.193-6.151,0.067-8.986-0.34c2.288-0.135,4.545-0.424,6.677-0.86
			c2.132-0.434,4.136-1.02,5.918-1.736c3.558-1.432,6.219-3.406,7.191-5.906c1.369-3.541-0.54-10.48-4.211-16.88
			c-1.842-3.211-4.115-6.294-6.66-8.735C30.775,1.652,27.961-0.143,25.065-0.805z"/>
		<path fill="#FDF1F3" d="M25.335-1.019c0.834-0.238,1.673-0.402,2.518-0.484c3.539-0.356,7.098,0.818,10.409,3.05
			c3.373,2.272,6.492,5.733,8.961,9.51c4.634,7.089,7.141,15.164,5.581,19.104c-1.283,3.242-5.455,5.598-10.721,7.006
			c-2.586,0.691-5.44,1.181-8.375,1.393c-3.021,0.218-6.088,0.136-8.942-0.216c2.333-0.13,4.633-0.416,6.805-0.851
			c2.172-0.433,4.212-1.018,6.026-1.739c3.622-1.44,6.329-3.436,7.315-5.964c1.388-3.57-0.562-10.6-4.318-17.076
			c-1.884-3.247-4.209-6.36-6.812-8.821C31.174,1.439,28.297-0.365,25.335-1.019z"/>
		<path fill="#FDF1F3" d="M25.606-1.234c0.833-0.218,1.67-0.363,2.512-0.424c3.522-0.269,7.048,0.994,10.316,3.27
			c3.314,2.307,6.365,5.727,8.796,9.445c4.634,7.089,7.141,15.164,5.581,19.104c-1.268,3.201-5.326,5.557-10.5,6.975
			c-2.55,0.708-5.375,1.204-8.29,1.441c-2.98,0.242-6.025,0.206-8.899-0.091c2.376-0.125,4.72-0.407,6.932-0.841
			c2.212-0.432,4.29-1.015,6.135-1.742c3.688-1.442,6.439-3.465,7.439-6.021c1.407-3.602-0.575-10.728-4.425-17.272
			c-1.92-3.285-4.305-6.425-6.966-8.907C31.573,1.228,28.633-0.589,25.606-1.234z"/>
		<path fill="#FDF0F2" d="M25.876-1.448c0.832-0.199,1.667-0.324,2.506-0.366c3.506-0.18,6.998,1.169,10.224,3.49
			c3.254,2.341,6.238,5.721,8.631,9.381c4.634,7.089,7.142,15.164,5.581,19.104c-1.251,3.16-5.2,5.503-10.279,6.943
			c-2.515,0.719-5.311,1.228-8.206,1.491c-2.938,0.268-5.962,0.274-8.855,0.033c2.421-0.119,4.808-0.398,7.06-0.83
			c2.252-0.431,4.366-1.015,6.243-1.746c3.753-1.453,6.549-3.495,7.564-6.077c1.425-3.633-0.602-10.848-4.532-17.469
			c-1.963-3.32-4.399-6.492-7.119-8.993C31.972,1.016,28.969-0.812,25.876-1.448z"/>
		<path fill="#FDF0F2" d="M26.147-1.663c0.832-0.181,1.664-0.285,2.499-0.307c3.49-0.092,6.953,1.338,10.131,3.709
			c3.2,2.371,6.112,5.714,8.468,9.316c4.634,7.089,7.141,15.164,5.581,19.104c-1.235,3.119-5.074,5.45-10.06,6.911
			c-2.48,0.73-5.246,1.248-8.122,1.542c-2.898,0.287-5.899,0.344-8.811,0.158c2.466-0.114,4.896-0.391,7.188-0.821
			c2.291-0.43,4.443-1.015,6.352-1.749c3.816-1.463,6.659-3.524,7.688-6.134c1.443-3.664-0.628-10.967-4.64-17.666
			c-2.005-3.354-4.493-6.557-7.271-9.079C32.37,0.803,29.305-1.036,26.147-1.663z"/>
		<path fill="#FDF0F2" d="M28.91-2.125c-0.832,0.001-1.663,0.086-2.493,0.248c3.224,0.619,6.353,2.468,9.188,5.01
			s5.377,5.776,7.424,9.165c4.094,6.776,6.21,14.167,4.747,17.863c-1.044,2.637-3.932,4.717-7.812,6.19
			c-1.94,0.737-4.129,1.323-6.46,1.753c-2.332,0.429-4.805,0.701-7.315,0.811c2.931,0.13,5.909,0.032,8.767-0.283
			s5.593-0.85,8.038-1.591c4.891-1.483,8.62-3.802,9.839-6.88c1.56-3.939-0.947-12.015-5.581-19.104
			c-2.317-3.544-5.165-6.842-8.303-9.252C35.811-0.606,32.384-2.129,28.91-2.125z"/>
	</g>
	<g>
		<path fill="#551B11" d="M28.048,29.869c-1.398,0-4.623-2.727-3.955-3.955c0.461-0.848,2.894,0,3.859,0c1.013,0,3.566-0.89,4.05,0
			C32.671,27.143,29.447,29.869,28.048,29.869z"/>
		<path fill="#F5A4B8" d="M28.033,28.731c-0.667,0-2.205-1.3-1.886-1.886c0.22-0.403,1.379,0,1.84,0c0.482,0,1.702-0.426,1.931,0
			C30.236,27.432,28.699,28.731,28.033,28.731z"/>
	</g>
	<g>
		<g opacity="0.5">
			
				<image overflow="visible" width="728" height="650" xlink:href="E91AF9BA77F7A233.png"  transform="matrix(0.0236 0 0 0.0236 31.6379 17.8496)">
			</image>
		</g>
		<g opacity="0.5">
			
				<image overflow="visible" width="728" height="650" xlink:href="E91AF9BA77F7A231.png"  transform="matrix(0.0236 0 0 0.0236 6.3596 17.8496)">
			</image>
		</g>
	</g>
	<g>
		<g>
			<ellipse fill="#551B11" cx="39.915" cy="19.653" rx="3.54" ry="4.112"/>
			<g>
				<path fill="#FFFFFF" d="M41.342,17.242c0.221-0.124,0.363-0.141,0.603-0.066c0.479,0.165,0.388,0.49,0.3,0.941
					c-0.113,0.647-0.879,1.831-1.522,1.899c-0.749,0.077-0.904-1.353-0.978-1.905c-0.026-0.321-0.054-0.643,0.132-0.921
					c0.149-0.219,0.321-0.3,0.578-0.255c0.329,0.05,0.306,0.37,0.552,0.491C41.126,17.485,41.154,17.353,41.342,17.242z"/>
			</g>
			<g>
				<path fill="#FFFFFF" d="M39.516,22.46c0.236,0.439,1.002-0.146,0.432-0.329c0.57,0.184,0.57-0.649,0-0.468
					c0.57-0.182-0.195-0.77-0.432-0.33c0.236-0.439-0.843-0.439-0.606,0c-0.236-0.439-1,0.148-0.43,0.33
					c-0.57-0.182-0.57,0.651,0,0.468c-0.57,0.184,0.193,0.769,0.43,0.329C38.673,22.899,39.752,22.899,39.516,22.46z"/>
			</g>
		</g>
		<g>
			<ellipse fill="#551B11" cx="15.27" cy="19.661" rx="3.54" ry="4.113"/>
			<g>
				<path fill="#FFFFFF" d="M13.843,17.249c-0.22-0.123-0.363-0.14-0.602-0.065c-0.477,0.166-0.388,0.489-0.3,0.94
					c0.115,0.648,0.879,1.831,1.522,1.899c0.75,0.077,0.903-1.353,0.978-1.904c0.026-0.321,0.053-0.643-0.131-0.92
					c-0.15-0.219-0.322-0.301-0.578-0.255c-0.332,0.05-0.309,0.37-0.555,0.491C14.059,17.493,14.031,17.36,13.843,17.249z"/>
			</g>
			<g>
				<path fill="#FFFFFF" d="M15.668,22.469c-0.236,0.439-1-0.148-0.43-0.33c-0.57,0.182-0.57-0.649,0-0.468
					c-0.57-0.182,0.193-0.771,0.43-0.332c-0.236-0.439,0.844-0.439,0.608,0c0.236-0.439,1,0.15,0.43,0.332
					c0.57-0.182,0.57,0.649,0,0.468c0.57,0.182-0.193,0.77-0.43,0.33C16.512,22.908,15.432,22.908,15.668,22.469z"/>
			</g>
		</g>
	</g>
	<g>
		<path fill="#F9C5C8" d="M40.554,7.82c-3.897,2.575-9.091,2.961-13.594,2.217c-2.313-0.382-4.844-1.146-6.508-2.874
			c-2.01-2.087-0.097-4.407,1.922-5.46c2.216-1.156,5.022-1.271,7.448-0.929c2.168,0.307,7.025,2.294,3.714,4.764
			c-1.955,1.456-5.83,1.432-7.748-0.051c-1.968-1.521,1.853-2.424,2.761-2.428c0.714-0.004,1.396,0.185,2.03,0.504
			c0.07,0.987-0.301,1.456-1.112,1.408c-0.133,0.016-2.166-0.208-1.562-0.762c0.409-0.372-0.198-0.975-0.604-0.604
			C26.768,4.095,26.6,4.952,27.37,5.368c1.162,0.628,2.568,0.617,3.721-0.027c0.669-0.374,1.037-1.335,0.511-1.972
			c-0.898-1.086-2.518-1.224-3.831-1.136c-1.973,0.133-4.498,1.913-2.586,3.859c1.902,1.936,5.965,1.519,8.181,0.529
			c2.241-0.999,2.846-3.392,0.955-5.03c-2.147-1.859-5.938-2.069-8.605-1.703c-2.576,0.354-5.634,1.383-6.737,3.982
			c-0.961,2.262,0.882,4.232,2.689,5.307c2.926,1.743,6.766,2.123,10.096,2.015c3.193-0.102,6.529-0.855,9.222-2.634
			C41.443,8.256,41.016,7.516,40.554,7.82L40.554,7.82z"/>
	</g>
	<path opacity="0.6" fill="#FFFFFF" d="M9.28,30.205C5.67,23.043,18.131,0.427,31.117-1.926c-0.73-0.13-1.468-0.2-2.207-0.199
		c-0.065,0-0.133,0.001-0.197,0.003c-0.08-0.001-0.158-0.003-0.238-0.003C14.763-2.108,0.683,22.648,4.492,30.205
		c3.046,6.044,13.631,8.826,24.122,8.765c0.756,0.001,1.511-0.013,2.263-0.04C21.261,38.562,12.082,35.763,9.28,30.205z"/>
</g>
<g>
	<rect x="23.77" y="4.807" fill="none" width="14.697" height="15.246"/>
	<text transform="matrix(1 0 0 1 23.7703 15.2026)" fill="#482C56" font-family="'FontAwesome'" font-size="11.8135"></text>
</g>
</svg>
