<?xml version="1.0" encoding="utf-8"?>
<!-- Generator: Adobe Illustrator 16.0.0, SVG Export Plug-In . SVG Version: 6.00 Build 0)  -->
<!DOCTYPE svg PUBLIC "-//W3C//DTD SVG 1.1//EN" "http://www.w3.org/Graphics/SVG/1.1/DTD/svg11.dtd">
<svg version="1.1" xmlns="http://www.w3.org/2000/svg" xmlns:xlink="http://www.w3.org/1999/xlink" x="0px" y="0px"
	 width="57.339px" height="47.723px" viewBox="0 0 57.339 47.723" enable-background="new 0 0 57.339 47.723" xml:space="preserve">
<g id="Layer_1">
	<g>
		<g>
			<path fill="#3C2C3E" d="M28.711-6.438C44.917-6.457,60.253,21.757,56.617,30.95C51.468,43.945,7.956,45.32,0.738,31.002
				C-3.705,22.188,12.718-6.419,28.711-6.438z"/>
			<path fill="#3D2C3F" d="M28.709-6.387c16.18-0.021,31.487,28.146,27.855,37.323C51.423,43.91,7.985,45.286,0.78,30.992
				C-3.654,22.192,12.743-6.368,28.709-6.387z"/>
			<path fill="#3D2C41" d="M28.707-6.336C44.86-6.357,60.139,21.76,56.514,30.921c-5.132,12.952-48.497,14.328-55.69,0.06
				C-3.602,22.196,12.768-6.315,28.707-6.336z"/>
			<path fill="#3E2C42" d="M28.706-6.286C44.83-6.308,60.082,21.76,56.462,30.907C51.337,43.838,8.047,45.214,0.867,30.97
				C-3.551,22.201,12.794-6.264,28.706-6.286z"/>
			<path fill="#3F2C43" d="M28.704-6.234C44.8-6.256,60.024,21.762,56.41,30.893c-5.115,12.909-48.333,14.286-55.5,0.066
				C-3.499,22.206,12.819-6.211,28.704-6.234z"/>
			<path fill="#3F2C45" d="M28.702-6.183c16.07-0.023,31.266,27.947,27.658,37.062C51.251,43.767,8.108,45.143,0.955,30.948
				C-3.448,22.211,12.845-6.159,28.702-6.183z"/>
			<path fill="#402C46" d="M28.7-6.132C44.742-6.157,59.91,21.764,56.307,30.865c-5.101,12.864-48.17,14.242-55.311,0.072
				C-3.396,22.215,12.869-6.107,28.7-6.132z"/>
			<path fill="#412C47" d="M28.699-6.081C44.712-6.107,59.853,21.765,56.255,30.85C51.164,43.694,8.168,45.073,1.041,30.927
				C-3.345,22.219,12.895-6.055,28.699-6.081z"/>
			<path fill="#412C49" d="M28.698-6.03c15.986-0.027,31.1,27.797,27.506,36.866c-5.082,12.823-48.005,14.2-55.12,0.08
				C-3.293,22.224,12.921-6.003,28.698-6.03z"/>
			<path fill="#422C4A" d="M28.696-5.979C44.655-6.007,59.74,21.768,56.153,30.823c-5.075,12.8-47.925,14.179-55.024,0.083
				C-3.242,22.228,12.946-5.951,28.696-5.979z"/>
			<path fill="#432C4B" d="M28.694-5.927C44.625-5.957,59.683,21.77,56.102,30.808C51.035,43.587,8.259,44.965,1.171,30.895
				C-3.19,22.232,12.971-5.899,28.694-5.927z"/>
			<path fill="#432C4D" d="M28.692-5.876c15.905-0.03,30.935,27.647,27.358,36.67C50.99,43.551,8.289,44.931,1.215,30.884
				C-3.139,22.237,12.997-5.847,28.692-5.876z"/>
			<path fill="#442C4E" d="M28.69-5.826C44.567-5.857,59.569,21.772,56,30.779C50.947,43.514,8.319,44.894,1.259,30.873
				C-3.088,22.241,13.022-5.795,28.69-5.826z"/>
			<path fill="#452C4F" d="M28.688-5.775c15.851-0.031,30.824,27.548,27.261,36.541c-5.045,12.713-47.6,14.093-54.647,0.096
				C-3.036,22.246,13.048-5.743,28.688-5.775z"/>
			<path fill="#452C51" d="M28.687-5.724c15.822-0.032,30.77,27.498,27.209,36.477c-5.036,12.69-47.517,14.071-54.551,0.1
				C-2.985,22.251,13.073-5.691,28.687-5.724z"/>
			<path fill="#462C52" d="M28.685-5.672C44.48-5.706,59.398,21.776,55.843,30.738C50.817,43.407,8.41,44.788,1.388,30.841
				C-2.933,22.256,13.098-5.639,28.685-5.672z"/>
			<path fill="#472C54" d="M28.684-5.621c15.767-0.035,30.657,27.397,27.108,36.345C50.774,43.371,8.44,44.753,1.432,30.83
				C-2.882,22.26,13.124-5.587,28.684-5.621z"/>
			<path fill="#472C55" d="M28.682-5.57c15.739-0.036,30.603,27.349,27.06,36.279C50.73,43.336,8.47,44.717,1.475,30.819
				C-2.83,22.264,13.149-5.535,28.682-5.57z"/>
			<path fill="#482C56" d="M28.68-5.52c15.712-0.037,30.547,27.299,27.01,36.215C50.686,43.3,8.5,44.682,1.518,30.809
				C-2.779,22.269,13.174-5.483,28.68-5.52z"/>
			<path fill="#492C58" d="M28.678-5.468c15.685-0.038,30.491,27.25,26.961,36.148C50.643,43.264,8.531,44.646,1.562,30.798
				C-2.727,22.273,13.199-5.431,28.678-5.468z"/>
			<path fill="#492C59" d="M28.676-5.417c15.658-0.038,30.437,27.199,26.912,36.084C50.6,43.229,8.561,44.611,1.605,30.787
				C-2.676,22.278,13.226-5.378,28.676-5.417z"/>
			<path fill="#4A2C5A" d="M28.674-5.366c15.63-0.04,30.382,27.149,26.861,36.018c-4.979,12.54-46.944,13.924-53.887,0.124
				C-2.625,22.282,13.25-5.327,28.674-5.366z"/>
			<path fill="#4B2C5C" d="M28.672-5.315c15.603-0.041,30.326,27.102,26.812,35.954c-4.972,12.519-46.863,13.9-53.792,0.127
				C-2.573,22.287,13.276-5.275,28.672-5.315z"/>
			<path fill="#4B2C5D" d="M28.671-5.264c15.575-0.042,30.271,27.051,26.761,35.889c-4.964,12.497-46.78,13.88-53.697,0.131
				C-2.522,22.291,13.301-5.223,28.671-5.264z"/>
			<path fill="#4C2C5E" d="M28.669-5.212c15.547-0.043,30.215,27,26.711,35.822C50.425,43.085,8.682,44.469,1.779,30.744
				C-2.47,22.296,13.327-5.17,28.669-5.212z"/>
			<path fill="#4D2C60" d="M28.667-5.162c15.521-0.043,30.161,26.95,26.663,35.758C50.38,43.049,8.711,44.433,1.822,30.733
				C-2.419,22.301,13.352-5.118,28.667-5.162z"/>
			<path fill="#4D2C61" d="M28.665-5.111c15.493-0.044,30.104,26.9,26.612,35.693C50.337,43.013,8.741,44.397,1.865,30.723
				C-2.368,22.305,13.377-5.066,28.665-5.111z"/>
			<path fill="#4E2C62" d="M28.664-5.06c15.464-0.045,30.048,26.852,26.562,35.628c-4.932,12.41-46.454,13.793-53.318,0.145
				C-2.316,22.31,13.403-5.015,28.664-5.06z"/>
			<path fill="#4F2C64" d="M28.662-5.008C44.1-5.055,58.656,21.793,55.175,30.554C50.251,42.941,8.803,44.326,1.952,30.701
				C-2.264,22.314,13.429-4.962,28.662-5.008z"/>
			<path fill="#4F2C65" d="M28.66-4.957C44.07-5.005,58.6,21.794,55.123,30.54C50.207,42.906,8.832,44.291,1.995,30.69
				C-2.213,22.318,13.453-4.91,28.66-4.957z"/>
			<path fill="#502C66" d="M28.658-4.906c15.382-0.049,29.884,26.701,26.416,35.431c-4.91,12.345-46.211,13.73-53.036,0.155
				C-2.162,22.323,13.479-4.858,28.658-4.906z"/>
			<path fill="#512D68" d="M28.657-4.855C44.011-4.904,58.485,21.796,55.02,30.512C50.121,42.834,8.893,44.22,2.082,30.669
				C-2.11,22.328,13.504-4.807,28.657-4.855z"/>
			<path fill="#522D69" d="M28.656-4.804c15.327-0.05,29.772,26.602,26.312,35.302C50.078,42.798,8.923,44.185,2.125,30.658
				C-2.058,22.332,13.53-4.754,28.656-4.804z"/>
			<path fill="#522D6A" d="M28.654-4.753c15.301-0.052,29.719,26.552,26.266,35.236c-4.887,12.278-45.966,13.665-52.75,0.163
				C-2.008,22.337,13.555-4.702,28.654-4.753z"/>
			<path fill="#532D6C" d="M28.653-4.702C43.923-4.755,58.315,21.8,54.867,30.469C49.99,42.727,8.984,44.113,2.212,30.637
				C-1.956,22.341,13.581-4.65,28.653-4.702z"/>
			<path fill="#542D6D" d="M28.65-4.651c15.245-0.053,29.607,26.452,26.165,35.106C49.947,42.69,9.014,44.078,2.256,30.626
				C-1.905,22.346,13.606-4.598,28.65-4.651z"/>
			<path fill="#542D6E" d="M28.649-4.6c15.216-0.054,29.552,26.403,26.115,35.04c-4.861,12.214-45.72,13.603-52.465,0.176
				C-1.853,22.35,13.632-4.546,28.649-4.6z"/>
			<path fill="#552D70" d="M28.647-4.549c15.188-0.057,29.496,26.353,26.065,34.976C49.86,42.619,9.074,44.008,2.342,30.604
				C-1.802,22.354,13.656-4.494,28.647-4.549z"/>
			<path fill="#562D71" d="M28.645-4.498c15.162-0.057,29.44,26.303,26.015,34.911C49.816,42.582,9.105,43.972,2.385,30.594
				C-1.751,22.359,13.682-4.442,28.645-4.498z"/>
			<path fill="#562D72" d="M28.643-4.447C43.778-4.504,58.03,21.807,54.61,30.398C49.773,42.547,9.135,43.936,2.429,30.583
				C-1.699,22.363,13.707-4.39,28.643-4.447z"/>
			<path fill="#572D74" d="M28.642-4.396c15.105-0.059,29.331,26.203,25.916,34.78C49.729,42.511,9.165,43.9,2.472,30.573
				C-1.647,22.368,13.733-4.338,28.642-4.396z"/>
			<path fill="#582D75" d="M28.64-4.344C43.718-4.405,57.916,21.808,54.505,30.37c-4.819,12.104-45.311,13.495-51.989,0.19
				C-1.595,22.373,13.758-4.286,28.64-4.344z"/>
			<path fill="#582D76" d="M28.638-4.293c15.052-0.062,29.22,26.104,25.816,34.649C49.642,42.439,9.225,43.83,2.559,30.551
				C-1.545,22.377,13.783-4.234,28.638-4.293z"/>
			<path fill="#592D78" d="M28.636-4.242C43.66-4.304,57.8,21.811,54.403,30.342c-4.805,12.062-45.147,13.452-51.8,0.198
				C-1.493,22.382,13.809-4.182,28.636-4.242z"/>
			<path fill="#5A2D79" d="M28.634-4.191c14.997-0.062,29.11,26.004,25.718,34.521c-4.797,12.038-45.067,13.43-51.706,0.199
				C-1.442,22.387,13.834-4.13,28.634-4.191z"/>
			<path fill="#5A2D7A" d="M28.633-4.141C43.602-4.204,57.688,21.813,54.3,30.313c-4.788,12.02-44.984,13.41-51.611,0.206
				C-1.39,22.391,13.86-4.078,28.633-4.141z"/>
			<path fill="#5B2D7C" d="M28.631-4.089c14.943-0.064,29,25.903,25.617,34.389C49.468,42.296,9.346,43.688,2.732,30.508
				C-1.339,22.396,13.885-4.025,28.631-4.089z"/>
			<path fill="#5C2D7D" d="M28.629-4.038c14.914-0.065,28.943,25.854,25.568,34.323C49.423,42.26,9.377,43.652,2.776,30.497
				C-1.287,22.399,13.911-3.974,28.629-4.038z"/>
			<path fill="#5C2D7F" d="M28.627-3.987c14.887-0.067,28.889,25.804,25.519,34.258C49.38,42.225,9.406,43.617,2.82,30.486
				C-1.236,22.404,13.936-3.922,28.627-3.987z"/>
			<path fill="#5D2D80" d="M28.626-3.937c14.858-0.066,28.833,25.755,25.467,34.194c-4.756,11.931-44.656,13.324-51.23,0.219
				C-1.184,22.409,13.961-3.87,28.626-3.937z"/>
			<path fill="#5E2D81" d="M28.623-3.885c14.833-0.068,28.778,25.705,25.419,34.128C49.294,42.152,9.467,43.546,2.906,30.465
				C-1.133,22.413,13.987-3.817,28.623-3.885z"/>
			<path fill="#5E2D83" d="M28.622-3.834c14.803-0.069,28.723,25.654,25.37,34.062C49.25,42.116,9.497,43.51,2.949,30.454
				C-1.082,22.418,14.012-3.766,28.622-3.834z"/>
			<path fill="#5F2D84" d="M28.62-3.783c14.777-0.07,28.667,25.605,25.319,33.998C49.207,42.08,9.528,43.475,2.992,30.443
				C-1.03,22.422,14.037-3.713,28.62-3.783z"/>
			<path fill="#602D85" d="M28.618-3.731c14.75-0.07,28.612,25.557,25.271,33.934c-4.726,11.843-44.331,13.236-50.853,0.23
				C-0.979,22.427,14.063-3.661,28.618-3.731z"/>
			<path fill="#602D87" d="M28.617-3.681c14.72-0.071,28.556,25.507,25.22,33.867c-4.717,11.823-44.25,13.217-50.758,0.236
				C-0.927,22.432,14.088-3.609,28.617-3.681z"/>
			<path fill="#612D88" d="M28.615-3.63c14.694-0.073,28.501,25.456,25.169,33.803c-4.709,11.8-44.167,13.195-50.662,0.238
				C-0.876,22.436,14.114-3.558,28.615-3.63z"/>
			<path fill="#622D89" d="M28.614-3.579c14.667-0.074,28.446,25.407,25.12,33.737C49.033,41.937,9.648,43.333,3.166,30.4
				C-0.824,22.44,14.139-3.505,28.614-3.579z"/>
			<path fill="#622D8B" d="M28.612-3.527c14.64-0.076,28.392,25.356,25.071,33.672C48.99,41.901,9.679,43.297,3.21,30.39
				C-0.773,22.445,14.164-3.454,28.612-3.527z"/>
			<path fill="#632D8C" d="M28.61-3.476C43.222-3.552,56.946,21.83,53.63,30.13C48.947,41.865,9.709,43.262,3.253,30.379
				C-0.721,22.449,14.19-3.401,28.61-3.476z"/>
			<path fill="#642D8D" d="M28.608-3.426C43.193-3.503,56.889,21.831,53.58,30.116C48.903,41.829,9.74,43.225,3.297,30.368
				C-0.67,22.454,14.215-3.349,28.608-3.426z"/>
			<path fill="#642D8F" d="M28.607-3.375c14.557-0.078,28.225,25.208,24.922,33.476C48.86,41.794,9.769,43.19,3.34,30.357
				C-0.618,22.458,14.24-3.297,28.607-3.375z"/>
			<path fill="#652D90" d="M28.605-3.323c14.529-0.079,28.17,25.157,24.872,33.411C48.816,41.758,9.8,43.156,3.383,30.347
				C-0.567,22.463,14.266-3.245,28.605-3.323z"/>
		</g>
		<g>
			<path fill="#FFFFFF" d="M28.475-2.125c6.946-0.009,13.708,6.093,18.342,13.182c4.634,7.088,7.142,15.164,5.582,19.104
				c-2.207,5.571-12.636,8.651-23.287,8.805c-10.652,0.153-21.525-2.621-24.619-8.76C2.589,26.428,5.156,18.35,9.914,11.213
				C14.671,4.077,21.619-2.117,28.475-2.125z"/>
			<path fill="#FFFFFF" d="M10.184,10.998c0.885-1.309,1.844-2.583,2.863-3.792c4.456-5.286,10.06-9.299,15.6-9.267
				c6.886,0.031,13.581,6.086,18.177,13.117c4.635,7.088,7.141,15.164,5.582,19.104c-2.189,5.53-12.51,8.6-23.066,8.771
				c-4.523,0.077-9.092-0.376-13.086-1.395c-5.322-1.365-9.616-3.733-11.404-7.19c-0.169-0.418-0.285-0.893-0.348-1.416
				c-0.057-0.476-0.075-0.992-0.048-1.544c0.041-0.85,0.177-1.784,0.361-2.785c0.335-1.832,0.9-3.922,1.692-6.063
				c0.491-1.328,1.084-2.675,1.742-4.014C8.838,13.326,9.482,12.139,10.184,10.998z"/>
			<path fill="#FFFFFF" d="M10.454,10.783c0.884-1.289,1.841-2.546,2.857-3.733c4.438-5.198,10.007-9.119,15.507-9.046
				c6.822,0.071,13.455,6.08,18.014,13.053c4.633,7.088,7.141,15.164,5.582,19.104c-2.176,5.489-12.385,8.546-22.848,8.741
				c-4.49,0.088-9.028-0.35-13.002-1.346c-5.281-1.337-9.552-3.665-11.36-7.065c-0.124-0.413-0.199-0.885-0.22-1.405
				c-0.019-0.476-0.002-0.994,0.061-1.548c0.099-0.861,0.286-1.813,0.485-2.843c0.354-1.862,0.864-4.043,1.585-6.261
				c0.443-1.364,0.993-2.739,1.589-4.099C9.24,13.115,9.819,11.916,10.454,10.783z"/>
			<path fill="#FFFEFE" d="M10.725,10.569c0.883-1.271,1.837-2.506,2.851-3.674c4.423-5.109,9.955-8.927,15.414-8.826
				c6.761,0.125,13.328,6.073,17.849,12.988c4.634,7.088,7.141,15.165,5.582,19.104c-2.159,5.448-12.258,8.491-22.627,8.71
				c-4.455,0.099-8.961-0.322-12.917-1.296c-5.24-1.31-9.49-3.597-11.316-6.94c-0.079-0.409-0.113-0.877-0.092-1.396
				c0.019-0.475,0.07-0.995,0.169-1.552c0.156-0.874,0.399-1.843,0.61-2.898c0.377-1.894,0.829-4.165,1.477-6.458
				c0.396-1.399,0.902-2.805,1.437-4.186C9.642,12.903,10.154,11.692,10.725,10.569z"/>
			<path fill="#FFFEFE" d="M10.996,10.354c0.882-1.251,1.834-2.467,2.844-3.614c4.406-5.022,9.901-8.743,15.321-8.606
				C35.86-1.699,42.364,4.2,46.845,11.057c4.634,7.088,7.141,15.164,5.582,19.104c-2.143,5.408-12.133,8.438-22.405,8.679
				c-4.42,0.109-8.899-0.285-12.834-1.246c-5.201-1.27-9.426-3.527-11.272-6.816c-0.035-0.402-0.026-0.867,0.036-1.386
				c0.058-0.475,0.142-0.997,0.277-1.555c0.214-0.888,0.51-1.872,0.734-2.956c0.397-1.924,0.794-4.285,1.37-6.654
				c0.349-1.435,0.81-2.869,1.284-4.271C10.043,12.692,10.49,11.469,10.996,10.354z"/>
			<path fill="#FFFEFE" d="M11.266,10.14c0.882-1.231,1.832-2.428,2.839-3.556c4.39-4.935,9.848-8.56,15.229-8.387
				c6.635,0.213,13.076,6.061,17.52,12.858c4.635,7.088,7.143,15.164,5.582,19.104c-2.125,5.367-12.005,8.386-22.184,8.646
				c-4.386,0.12-8.835-0.256-12.75-1.196c-5.162-1.238-9.364-3.458-11.229-6.691c0.01-0.397,0.06-0.86,0.164-1.375
				c0.096-0.476,0.217-1,0.386-1.56c0.273-0.9,0.621-1.9,0.858-3.012c0.418-1.955,0.76-4.406,1.262-6.851
				c0.302-1.471,0.719-2.937,1.131-4.357C10.445,12.48,10.826,11.246,11.266,10.14z"/>
			<path fill="#FFFEFE" d="M11.536,9.925c0.881-1.213,1.829-2.389,2.832-3.497c4.374-4.846,9.796-8.375,15.137-8.167
				c6.57,0.257,12.947,6.054,17.354,12.794c4.635,7.09,7.141,15.166,5.583,19.105c-2.11,5.326-11.88,8.332-21.965,8.614
				c-4.351,0.133-8.77-0.227-12.666-1.146c-5.121-1.208-9.3-3.388-11.185-6.567c0.055-0.393,0.146-0.854,0.292-1.364
				c0.134-0.476,0.29-1.003,0.494-1.562c0.333-0.915,0.731-1.932,0.982-3.069c0.438-1.984,0.728-4.522,1.156-7.048
				c0.255-1.502,0.627-3,0.978-4.441C10.847,12.268,11.162,11.022,11.536,9.925z"/>
			<path fill="#FFFDFE" d="M11.807,9.71c0.879-1.193,1.826-2.35,2.826-3.438c4.357-4.758,9.743-8.19,15.044-7.945
				c6.509,0.301,12.82,6.048,17.189,12.729c4.633,7.088,7.141,15.164,5.582,19.104c-2.095,5.285-11.754,8.278-21.744,8.584
				c-4.316,0.143-8.706-0.197-12.583-1.098c-5.08-1.179-9.238-3.318-11.141-6.441c0.099-0.39,0.233-0.847,0.419-1.355
				c0.173-0.476,0.366-1.005,0.603-1.564c0.394-0.931,0.842-1.961,1.106-3.126c0.458-2.018,0.694-4.644,1.048-7.244
				c0.209-1.537,0.536-3.067,0.826-4.528C11.248,12.056,11.498,10.799,11.807,9.71z"/>
			<path fill="#FFFDFD" d="M12.078,9.496c0.878-1.174,1.822-2.312,2.82-3.378c4.341-4.67,9.69-8.009,14.951-7.728
				c6.445,0.344,12.695,6.042,17.023,12.666c4.635,7.088,7.143,15.164,5.582,19.104c-2.076,5.246-11.627,8.226-21.522,8.553
				c-4.282,0.154-8.64-0.168-12.497-1.047c-5.04-1.147-9.175-3.25-11.097-6.318c0.144-0.383,0.32-0.839,0.547-1.346
				c0.212-0.476,0.439-1.006,0.711-1.568c0.455-0.942,0.953-1.989,1.231-3.183c0.478-2.046,0.663-4.761,0.941-7.44
				c0.163-1.57,0.444-3.133,0.673-4.613C11.65,11.843,11.834,10.576,12.078,9.496z"/>
			<path fill="#FFFDFD" d="M12.348,9.281c0.878-1.156,1.819-2.272,2.814-3.32c4.325-4.582,9.637-7.824,14.858-7.506
				c6.384,0.388,12.567,6.036,16.86,12.602c4.634,7.088,7.142,15.164,5.582,19.104C50.4,35.365,40.96,38.333,31.16,38.682
				c-4.248,0.165-8.576-0.139-12.414-0.997c-4.999-1.118-9.112-3.181-11.053-6.192c0.188-0.378,0.408-0.831,0.674-1.335
				c0.251-0.477,0.516-1.011,0.82-1.573c0.516-0.956,1.063-2.019,1.355-3.238c0.498-2.078,0.63-4.878,0.833-7.638
				c0.118-1.604,0.352-3.199,0.521-4.7C12.051,11.629,12.17,10.353,12.348,9.281z"/>
			<path fill="#FFFDFD" d="M12.619,9.066c0.876-1.136,1.816-2.232,2.807-3.26c4.309-4.494,9.583-7.641,14.766-7.287
				c6.319,0.433,12.442,6.029,16.696,12.537c4.634,7.088,7.141,15.164,5.582,19.104c-2.045,5.163-11.377,8.117-21.083,8.488
				c-4.212,0.177-8.51-0.109-12.329-0.947c-4.958-1.089-9.049-3.111-11.009-6.068c0.233-0.372,0.495-0.824,0.802-1.325
				c0.291-0.476,0.592-1.011,0.929-1.575c0.58-0.972,1.173-2.049,1.479-3.297c0.517-2.107,0.599-4.996,0.726-7.834
				c0.073-1.637,0.259-3.266,0.367-4.785C12.452,11.416,12.506,10.129,12.619,9.066z"/>
			<path fill="#FFFCFD" d="M12.889,8.852c0.876-1.118,1.813-2.193,2.802-3.202c4.292-4.405,9.53-7.457,14.672-7.065
				c6.258,0.475,12.315,6.022,16.532,12.473c4.633,7.088,7.14,15.164,5.581,19.104c-2.027,5.122-11.25,8.046-20.862,8.458
				c-4.178,0.179-8.445-0.081-12.245-0.898c-4.917-1.058-8.985-3.042-10.965-5.944c0.278-0.366,0.583-0.814,0.93-1.313
				c0.331-0.478,0.667-1.013,1.037-1.58c0.641-0.984,1.284-2.076,1.603-3.352c0.536-2.141,0.569-5.114,0.619-8.031
				c0.028-1.671,0.167-3.333,0.215-4.872C12.853,11.203,12.842,9.906,12.889,8.852z"/>
			<path fill="#FFFCFC" d="M13.159,8.637c0.875-1.098,1.811-2.154,2.795-3.142c4.276-4.318,9.477-7.274,14.581-6.848
				c6.193,0.519,12.188,6.018,16.366,12.409c4.634,7.088,7.142,15.164,5.582,19.104c-2.013,5.081-11.124,7.99-20.642,8.426
				c-4.145,0.188-8.38-0.052-12.161-0.85c-4.876-1.026-8.923-2.973-10.921-5.818c0.323-0.361,0.67-0.809,1.058-1.305
				c0.371-0.477,0.745-1.017,1.146-1.582c0.706-0.998,1.394-2.107,1.728-3.41c0.557-2.17,0.54-5.23,0.512-8.229
				c-0.016-1.704,0.074-3.399,0.062-4.958C13.253,10.99,13.177,9.683,13.159,8.637z"/>
			<path fill="#FFFCFC" d="M13.43,8.422c0.874-1.079,1.807-2.116,2.789-3.083c4.26-4.23,9.424-7.09,14.488-6.627
				c6.131,0.561,12.062,6.01,16.203,12.344c4.633,7.089,7.139,15.164,5.582,19.104c-1.998,5.04-11,7.937-20.423,8.395
				c-4.109,0.199-8.315-0.021-12.077-0.799c-4.835-0.997-8.86-2.904-10.876-5.695c0.367-0.355,0.759-0.8,1.185-1.294
				c0.411-0.477,0.821-1.017,1.254-1.586c0.769-1.012,1.504-2.137,1.852-3.467c0.575-2.2,0.51-5.348,0.404-8.424
				c-0.06-1.738-0.019-3.467-0.091-5.043C13.653,10.776,13.514,9.459,13.43,8.422z"/>
			<path fill="#FFFCFC" d="M13.701,8.208c0.873-1.061,1.807-2.075,2.783-3.024c4.253-4.132,9.37-6.908,14.395-6.407
				c6.066,0.604,11.937,6.005,16.037,12.279c4.635,7.088,7.142,15.164,5.582,19.104c-1.979,5-10.871,7.883-20.199,8.362
				c-4.075,0.21-8.251,0.006-11.994-0.749c-4.795-0.968-8.796-2.835-10.833-5.569c0.412-0.353,0.847-0.793,1.313-1.284
				c0.451-0.477,0.897-1.02,1.362-1.59c0.833-1.024,1.615-2.165,1.977-3.523c0.594-2.23,0.481-5.465,0.296-8.621
				c-0.104-1.77-0.113-3.534-0.244-5.129C14.053,10.563,13.85,9.236,13.701,8.208z"/>
			<path fill="#FFFBFC" d="M13.972,7.994c0.872-1.042,1.803-2.037,2.776-2.966c4.237-4.043,9.317-6.724,14.302-6.187
				C37.055-0.51,42.86,4.84,46.923,11.057c4.635,7.088,7.141,15.164,5.582,19.104c-1.965,4.959-10.746,7.826-19.979,8.331
				c-4.04,0.221-8.186,0.035-11.909-0.698c-4.754-0.938-8.733-2.768-10.789-5.446c0.457-0.347,0.936-0.784,1.441-1.273
				c0.491-0.477,0.975-1.021,1.471-1.594c0.897-1.036,1.725-2.193,2.1-3.58c0.613-2.263,0.453-5.582,0.189-8.816
				c-0.147-1.804-0.207-3.602-0.396-5.215C14.453,10.349,14.186,9.013,13.972,7.994z"/>
			<path fill="#FEFBFC" d="M14.242,7.779c0.871-1.021,1.8-1.996,2.771-2.905c4.22-3.955,9.263-6.542,14.21-5.968
				c5.94,0.688,11.682,5.991,15.708,12.15c4.634,7.088,7.141,15.164,5.581,19.104c-1.947,4.918-10.621,7.771-19.759,8.3
				c-4.006,0.23-8.122,0.064-11.825-0.648c-4.713-0.908-8.671-2.696-10.745-5.321c0.501-0.342,1.022-0.776,1.568-1.266
				c0.531-0.476,1.052-1.021,1.579-1.596c0.961-1.049,1.834-2.225,2.224-3.637c0.633-2.294,0.426-5.7,0.083-9.015
				c-0.19-1.837-0.3-3.668-0.549-5.302C14.853,10.136,14.522,8.79,14.242,7.779z"/>
			<path fill="#FEFBFB" d="M14.512,7.564c0.871-1.002,1.798-1.958,2.765-2.847c4.204-3.867,9.21-6.359,14.117-5.748
				c5.878,0.732,11.557,5.986,15.544,12.087c4.634,7.088,7.142,15.164,5.582,19.104c-1.933,4.877-10.495,7.717-19.539,8.268
				c-3.972,0.241-8.055,0.095-11.741-0.599c-4.672-0.879-8.607-2.628-10.701-5.196c0.546-0.337,1.112-0.771,1.696-1.255
				c0.571-0.476,1.128-1.022,1.688-1.602c1.026-1.061,1.945-2.253,2.348-3.691c0.651-2.325,0.398-5.817-0.025-9.211
				c-0.233-1.87-0.394-3.735-0.702-5.388C15.252,9.922,14.858,8.566,14.512,7.564z"/>
			<path fill="#FEFBFB" d="M14.783,7.35c0.87-0.982,1.794-1.918,2.758-2.788c4.188-3.776,9.156-6.176,14.023-5.527
				c5.814,0.773,11.43,5.979,15.38,12.021c4.634,7.089,7.142,15.165,5.582,19.104c-1.915,4.836-10.37,7.663-19.319,8.235
				c-3.937,0.252-7.99,0.123-11.656-0.549c-4.631-0.849-8.545-2.56-10.657-5.073c0.59-0.331,1.2-0.76,1.824-1.243
				c0.612-0.476,1.206-1.023,1.796-1.604c1.091-1.072,2.054-2.282,2.472-3.75c0.67-2.354,0.371-5.934-0.132-9.407
				c-0.276-1.902-0.489-3.803-0.855-5.473C15.651,9.709,15.194,8.343,14.783,7.35z"/>
			<path fill="#FEFAFB" d="M15.054,7.135c0.869-0.964,1.792-1.879,2.752-2.729c4.172-3.689,9.104-5.993,13.931-5.309
				c5.752,0.817,11.304,5.975,15.216,11.958c4.635,7.088,7.141,15.164,5.582,19.104c-1.898,4.795-10.242,7.608-19.099,8.205
				c-3.901,0.263-7.925,0.15-11.572-0.5c-4.59-0.82-8.482-2.489-10.613-4.947c0.635-0.326,1.288-0.752,1.952-1.234
				c0.652-0.474,1.283-1.023,1.905-1.606c1.156-1.083,2.165-2.312,2.597-3.808c0.689-2.386,0.343-6.051-0.24-9.604
				c-0.318-1.938-0.582-3.87-1.007-5.56C16.051,9.495,15.53,8.12,15.054,7.135z"/>
			<path fill="#FEFAFB" d="M15.324,6.921c0.868-0.945,1.789-1.84,2.746-2.669c4.156-3.602,9.05-5.812,13.84-5.088
				c5.688,0.858,11.176,5.966,15.049,11.893c4.635,7.089,7.142,15.164,5.582,19.104c-1.883,4.755-10.117,7.554-18.877,8.174
				c-3.867,0.272-7.86,0.18-11.489-0.45c-4.548-0.79-8.419-2.421-10.569-4.823c0.681-0.319,1.377-0.743,2.079-1.224
				c0.692-0.476,1.361-1.024,2.014-1.61c1.221-1.095,2.274-2.342,2.721-3.862c0.709-2.418,0.318-6.17-0.347-9.802
				c-0.361-1.971-0.678-3.937-1.161-5.645C16.449,9.283,15.866,7.896,15.324,6.921z"/>
			<path fill="#FEFAFB" d="M15.595,6.706c0.867-0.926,1.786-1.801,2.74-2.61c4.141-3.511,8.996-5.629,13.747-4.868
				c5.623,0.901,11.049,5.961,14.885,11.829c4.635,7.089,7.142,15.164,5.582,19.104c-1.866,4.714-9.99,7.5-18.656,8.143
				c-3.833,0.284-7.795,0.209-11.404-0.4c-4.508-0.761-8.355-2.352-10.525-4.698c0.725-0.315,1.464-0.735,2.207-1.214
				c0.732-0.474,1.437-1.025,2.122-1.614c1.286-1.106,2.385-2.371,2.845-3.92c0.728-2.448,0.292-6.287-0.454-9.998
				c-0.403-2.003-0.772-4.002-1.313-5.73C16.848,9.069,16.202,7.673,15.595,6.706z"/>
			<path fill="#FEFAFA" d="M15.865,6.491c0.866-0.907,1.783-1.763,2.733-2.553c4.124-3.423,8.942-5.445,13.653-4.646
				c5.561,0.941,10.922,5.954,14.721,11.765c4.634,7.088,7.141,15.164,5.582,19.104c-1.852,4.673-9.866,7.444-18.438,8.109
				c-3.798,0.295-7.729,0.237-11.32-0.351c-4.468-0.731-8.293-2.282-10.481-4.574c0.769-0.311,1.553-0.726,2.334-1.203
				c0.772-0.472,1.515-1.025,2.23-1.618c1.351-1.116,2.494-2.399,2.969-3.978c0.746-2.479,0.267-6.405-0.562-10.193
				c-0.445-2.037-0.867-4.069-1.466-5.815C17.247,8.855,16.537,7.45,15.865,6.491z"/>
			<path fill="#FEF9FA" d="M16.136,6.277c0.865-0.888,1.779-1.723,2.728-2.492c4.108-3.334,8.889-5.265,13.562-4.429
				c5.496,0.984,10.796,5.948,14.557,11.7c4.635,7.089,7.141,15.164,5.581,19.104c-1.834,4.632-9.739,7.393-18.216,8.079
				c-3.764,0.305-7.664,0.267-11.236-0.302c-4.426-0.702-8.23-2.213-10.437-4.45c0.813-0.305,1.641-0.718,2.462-1.192
				c0.813-0.472,1.592-1.026,2.339-1.621c1.416-1.128,2.605-2.43,3.094-4.033c0.765-2.511,0.24-6.522-0.669-10.391
				c-0.487-2.071-0.962-4.138-1.619-5.902C17.645,8.643,16.874,7.227,16.136,6.277z"/>
			<path fill="#FEF9FA" d="M16.406,6.062c0.864-0.869,1.777-1.684,2.722-2.434c4.091-3.246,8.835-5.082,13.468-4.208
				c5.434,1.024,10.67,5.941,14.393,11.636c4.634,7.089,7.142,15.164,5.581,19.104c-1.818,4.592-9.613,7.337-17.996,8.048
				c-3.729,0.315-7.599,0.295-11.151-0.251c-4.385-0.674-8.167-2.146-10.394-4.325c0.858-0.3,1.729-0.709,2.59-1.184
				c0.854-0.471,1.669-1.026,2.447-1.624c1.481-1.14,2.714-2.46,3.218-4.092c0.784-2.541,0.215-6.641-0.776-10.587
				c-0.529-2.104-1.057-4.204-1.771-5.987C18.044,8.43,17.21,7.003,16.406,6.062z"/>
			<path fill="#FEF9FA" d="M16.677,5.848c0.863-0.85,1.774-1.645,2.716-2.374c4.075-3.157,8.78-4.9,13.374-3.988
				c5.371,1.067,10.544,5.936,14.229,11.571c4.635,7.089,7.141,15.164,5.582,19.104c-1.804,4.551-9.488,7.281-17.775,8.016
				c-3.693,0.327-7.534,0.322-11.067-0.201c-4.344-0.645-8.104-2.074-10.349-4.2c0.903-0.295,1.817-0.699,2.718-1.174
				c0.893-0.469,1.747-1.025,2.555-1.628c1.545-1.148,2.824-2.489,3.342-4.146c0.803-2.572,0.19-6.76-0.884-10.784
				c-0.57-2.139-1.152-4.27-1.924-6.073C18.443,8.217,17.546,6.781,16.677,5.848z"/>
			<path fill="#FEF9F9" d="M16.948,5.633c0.862-0.83,1.771-1.605,2.709-2.315C23.716,0.249,28.385-1.4,32.939-0.45
				c5.307,1.107,10.417,5.929,14.062,11.507c4.633,7.088,7.142,15.164,5.582,19.104c-1.787,4.509-9.362,7.229-17.557,7.983
				c-3.658,0.338-7.468,0.353-10.982-0.15c-4.302-0.616-8.041-2.007-10.305-4.076c0.948-0.29,1.905-0.692,2.845-1.164
				c0.933-0.468,1.824-1.027,2.664-1.631c1.611-1.158,2.934-2.519,3.466-4.204c0.821-2.604,0.166-6.878-0.991-10.98
				c-0.612-2.171-1.247-4.336-2.077-6.16C18.841,8.003,17.881,6.557,16.948,5.633z"/>
			<path fill="#FEF8F9" d="M17.218,5.419c0.861-0.812,1.768-1.567,2.703-2.256c4.043-2.979,8.674-4.537,13.189-3.548
				c5.243,1.147,10.29,5.923,13.897,11.441c4.635,7.089,7.142,15.164,5.582,19.104c-1.771,4.469-9.236,7.174-17.334,7.951
				c-3.625,0.35-7.403,0.382-10.899-0.101c-4.261-0.587-7.978-1.938-10.261-3.952c0.992-0.284,1.993-0.683,2.973-1.152
				c0.973-0.468,1.901-1.027,2.772-1.636c1.676-1.168,3.043-2.548,3.59-4.261c0.84-2.635,0.142-6.997-1.098-11.177
				c-0.654-2.206-1.343-4.402-2.23-6.246C19.239,7.791,18.218,6.333,17.218,5.419z"/>
			<path fill="#FEF8F9" d="M17.49,5.204c0.86-0.792,1.764-1.528,2.696-2.197c4.026-2.892,8.62-4.355,13.097-3.328
				c5.18,1.189,10.163,5.916,13.733,11.378c4.635,7.089,7.142,15.164,5.582,19.104c-1.753,4.428-9.111,7.122-17.114,7.922
				c-3.591,0.357-7.337,0.408-10.814-0.052c-4.22-0.559-7.915-1.868-10.218-3.827c1.037-0.279,2.082-0.676,3.101-1.145
				c1.014-0.467,1.979-1.026,2.881-1.638c1.742-1.179,3.154-2.577,3.715-4.318c0.858-2.665,0.116-7.114-1.206-11.373
				c-0.695-2.239-1.438-4.469-2.383-6.332C19.636,7.579,18.554,6.11,17.49,5.204z"/>
			<path fill="#FEF8F9" d="M17.76,4.99c0.859-0.773,1.761-1.488,2.69-2.139c4.01-2.803,8.567-4.175,13.004-3.107
				c5.114,1.229,10.035,5.909,13.568,11.312c4.633,7.088,7.141,15.164,5.581,19.104c-1.737,4.387-8.983,7.066-16.894,7.89
				c-3.558,0.37-7.272,0.437-10.73-0.002c-4.179-0.53-7.852-1.799-10.173-3.702c1.082-0.273,2.169-0.666,3.228-1.134
				c1.054-0.466,2.056-1.027,2.989-1.643c1.806-1.188,3.264-2.605,3.839-4.375c0.877-2.695,0.092-7.232-1.313-11.569
				c-0.736-2.273-1.534-4.534-2.536-6.417C20.035,7.366,18.889,5.887,17.76,4.99z"/>
			<path fill="#FEF8F9" d="M18.03,4.774c0.859-0.754,1.759-1.449,2.685-2.079c3.993-2.715,8.512-3.992,12.912-2.888
				c5.053,1.271,9.91,5.903,13.404,11.249c4.635,7.089,7.141,15.165,5.581,19.104c-1.721,4.346-8.858,7.012-16.674,7.856
				c-3.521,0.381-7.206,0.465-10.646,0.049c-4.138-0.501-7.789-1.729-10.129-3.578c1.126-0.27,2.258-0.656,3.356-1.122
				c1.094-0.466,2.133-1.027,3.098-1.646c1.871-1.198,3.374-2.637,3.963-4.432c0.896-2.729,0.068-7.354-1.42-11.768
				c-0.778-2.308-1.629-4.6-2.688-6.503C20.433,7.153,19.225,5.663,18.03,4.774z"/>
			<path fill="#FEF7F8" d="M18.301,4.561c0.858-0.734,1.755-1.411,2.678-2.02c3.977-2.626,8.459-3.812,12.817-2.668
				c4.99,1.31,9.783,5.896,13.24,11.185c4.635,7.088,7.142,15.164,5.582,19.104c-1.705,4.305-8.732,6.959-16.453,7.825
				c-3.486,0.393-7.142,0.492-10.562,0.099c-4.096-0.474-7.726-1.66-10.085-3.453c1.171-0.264,2.346-0.647,3.484-1.113
				c1.133-0.464,2.21-1.026,3.207-1.647c1.937-1.208,3.483-2.665,4.087-4.488c0.915-2.759,0.042-7.471-1.528-11.963
				c-0.819-2.342-1.724-4.667-2.841-6.589C20.83,6.941,19.561,5.44,18.301,4.561z"/>
			<path fill="#FEF7F8" d="M18.572,4.346c0.856-0.716,1.752-1.372,2.671-1.961c3.96-2.538,8.405-3.632,12.725-2.448
				c4.927,1.35,9.658,5.892,13.076,11.12c4.634,7.089,7.141,15.164,5.582,19.104c-1.688,4.264-8.606,6.905-16.232,7.795
				c-3.452,0.401-7.076,0.521-10.478,0.146c-4.055-0.443-7.663-1.591-10.042-3.329c1.216-0.259,2.434-0.639,3.612-1.103
				c1.173-0.462,2.287-1.027,3.314-1.652c2.001-1.217,3.592-2.694,4.211-4.545c0.933-2.789,0.02-7.591-1.635-12.16
				c-0.86-2.376-1.82-4.73-2.994-6.674C21.229,6.729,19.898,5.217,18.572,4.346z"/>
			<path fill="#FEF7F8" d="M18.842,4.131c0.856-0.696,1.749-1.333,2.666-1.901c3.944-2.448,8.352-3.452,12.634-2.229
				c4.861,1.389,9.529,5.885,12.911,11.056c4.634,7.088,7.141,15.164,5.581,19.104c-1.672,4.223-8.481,6.853-16.012,7.764
				c-3.418,0.413-7.011,0.548-10.395,0.197c-4.014-0.416-7.601-1.522-9.998-3.204c1.261-0.254,2.522-0.63,3.739-1.093
				c1.214-0.461,2.364-1.028,3.423-1.656c2.067-1.228,3.703-2.726,4.336-4.603c0.952-2.819-0.005-7.71-1.742-12.355
				c-0.901-2.411-1.915-4.798-3.146-6.761C21.626,6.516,20.234,4.994,18.842,4.131z"/>
			<path fill="#FEF7F8" d="M19.112,3.917c0.855-0.677,1.746-1.293,2.66-1.843c3.927-2.362,8.298-3.271,12.541-2.009
				c4.799,1.429,9.403,5.878,12.746,10.991c4.634,7.089,7.142,15.164,5.582,19.104c-1.656,4.183-8.356,6.799-15.792,7.73
				c-3.383,0.425-6.944,0.576-10.31,0.247c-3.972-0.389-7.537-1.453-9.954-3.079c1.305-0.249,2.61-0.622,3.867-1.083
				c1.254-0.46,2.441-1.026,3.531-1.659c2.132-1.234,3.812-2.755,4.46-4.657c0.971-2.853-0.028-7.83-1.85-12.555
				c-0.942-2.444-2.011-4.863-3.299-6.846C22.025,6.304,20.57,4.771,19.112,3.917z"/>
			<path fill="#FEF6F8" d="M19.383,3.702c0.854-0.658,1.743-1.255,2.653-1.784c3.91-2.273,8.245-3.091,12.448-1.788
				c4.734,1.467,9.275,5.872,12.582,10.927c4.633,7.089,7.141,15.164,5.581,19.104c-1.64,4.142-8.229,6.745-15.571,7.699
				c-3.348,0.437-6.88,0.604-10.226,0.298c-3.931-0.361-7.474-1.385-9.91-2.955c1.351-0.243,2.698-0.613,3.996-1.073
				c1.293-0.459,2.518-1.026,3.64-1.662c2.196-1.245,3.921-2.784,4.583-4.715c0.988-2.883-0.053-7.95-1.957-12.75
				c-0.984-2.48-2.106-4.929-3.452-6.934C22.423,6.092,20.906,4.547,19.383,3.702z"/>
			<path fill="#FEF6F7" d="M19.653,3.487c0.853-0.639,1.74-1.215,2.648-1.725c3.893-2.185,8.191-2.911,12.354-1.568
				C39.328,1.7,43.806,6.06,47.072,11.056c4.635,7.089,7.141,15.164,5.582,19.104c-1.624,4.1-8.104,6.691-15.351,7.669
				c-3.313,0.445-6.814,0.632-10.142,0.347c-3.89-0.333-7.411-1.315-9.866-2.831c1.395-0.238,2.786-0.604,4.123-1.062
				c1.334-0.458,2.596-1.026,3.749-1.666c2.261-1.255,4.03-2.813,4.708-4.771c1.006-2.914-0.074-8.07-2.063-12.947
				c-1.025-2.513-2.202-4.995-3.604-7.018C22.821,5.88,21.241,4.323,19.653,3.487z"/>
			<path fill="#FEF6F7" d="M19.924,3.272c0.853-0.62,1.736-1.176,2.641-1.665c3.877-2.097,8.138-2.73,12.263-1.349
				c4.607,1.545,9.023,5.859,12.252,10.798c4.635,7.089,7.142,15.164,5.582,19.104c-1.607,4.06-7.979,6.639-15.131,7.637
				c-3.279,0.458-6.748,0.659-10.058,0.396c-3.848-0.306-7.348-1.244-9.821-2.706c1.439-0.232,2.874-0.596,4.25-1.053
				c1.374-0.457,2.673-1.024,3.857-1.669c2.327-1.265,4.141-2.843,4.833-4.828c1.025-2.944-0.1-8.188-2.171-13.144
				c-1.066-2.548-2.297-5.062-3.757-7.104C23.218,5.668,21.577,4.1,19.924,3.272z"/>
			<path fill="#FEF6F7" d="M20.195,3.058c0.852-0.601,1.733-1.137,2.635-1.605C26.691-0.556,30.916-1.1,35,0.324
				c4.545,1.583,8.897,5.853,12.088,10.732c4.635,7.088,7.142,15.164,5.582,19.104c-1.592,4.019-7.853,6.586-14.91,7.604
				c-3.244,0.469-6.682,0.688-9.972,0.446c-3.806-0.278-7.285-1.177-9.778-2.581c1.484-0.229,2.962-0.587,4.378-1.043
				c1.414-0.456,2.75-1.026,3.965-1.673c2.393-1.273,4.25-2.873,4.957-4.887c1.044-2.976-0.123-8.308-2.279-13.34
				c-1.106-2.583-2.392-5.125-3.91-7.188C23.616,5.456,21.913,3.877,20.195,3.058z"/>
			<path fill="#FEF5F7" d="M20.465,2.843c0.851-0.582,1.73-1.098,2.629-1.547c3.843-1.92,8.031-2.372,12.078-0.908
				c4.481,1.622,8.771,5.847,11.922,10.669c4.636,7.089,7.142,15.164,5.582,19.104c-1.574,3.978-7.727,6.531-14.688,7.573
				c-3.21,0.48-6.618,0.715-9.889,0.496c-3.766-0.25-7.222-1.106-9.734-2.457c1.528-0.223,3.05-0.576,4.506-1.031
				c1.454-0.455,2.827-1.026,4.074-1.678c2.457-1.28,4.36-2.901,5.08-4.94c1.062-3.009-0.146-8.43-2.387-13.537
				c-1.147-2.618-2.488-5.191-4.062-7.276C24.014,5.244,22.249,3.653,20.465,2.843z"/>
			<path fill="#FEF5F6" d="M20.736,2.629c0.85-0.563,1.728-1.061,2.623-1.488c3.827-1.832,7.979-2.192,11.984-0.688
				c4.42,1.659,8.645,5.84,11.76,10.604c4.634,7.089,7.141,15.164,5.581,19.104c-1.56,3.937-7.601,6.48-14.47,7.543
				c-3.176,0.49-6.551,0.739-9.804,0.545c-3.724-0.225-7.159-1.038-9.69-2.332c1.573-0.218,3.138-0.568,4.633-1.022
				c1.494-0.454,2.904-1.025,4.183-1.681c2.521-1.29,4.469-2.931,5.206-4.998c1.079-3.038-0.171-8.549-2.494-13.733
				c-1.188-2.651-2.583-5.256-4.215-7.36C24.412,5.032,22.585,3.431,20.736,2.629z"/>
			<path fill="#FEF5F6" d="M21.006,2.414c0.849-0.543,1.724-1.021,2.616-1.43c3.811-1.743,7.924-2.014,11.892-0.469
				c4.356,1.697,8.519,5.834,11.595,10.54c4.635,7.089,7.141,15.164,5.581,19.104c-1.542,3.896-7.476,6.427-14.248,7.511
				c-3.142,0.503-6.485,0.769-9.721,0.596c-3.682-0.196-7.096-0.97-9.646-2.208c1.617-0.213,3.226-0.559,4.761-1.012
				c1.534-0.452,2.981-1.025,4.291-1.685c2.587-1.3,4.58-2.962,5.328-5.056c1.1-3.07-0.191-8.67-2.6-13.93
				c-1.229-2.688-2.681-5.322-4.369-7.447C24.81,4.821,22.921,3.207,21.006,2.414z"/>
			<path fill="#FEF5F6" d="M21.277,2.199c0.848-0.524,1.721-0.981,2.61-1.37c3.794-1.656,7.87-1.835,11.799-0.249
				c4.294,1.734,8.392,5.827,11.431,10.476c4.635,7.089,7.141,15.164,5.582,19.104c-1.527,3.854-7.35,6.375-14.027,7.479
				c-3.107,0.514-6.422,0.795-9.638,0.646c-3.64-0.169-7.033-0.9-9.602-2.084c1.662-0.207,3.314-0.551,4.889-1.002
				c1.573-0.451,3.058-1.025,4.399-1.688c2.652-1.309,4.689-2.99,5.453-5.112c1.117-3.102-0.215-8.79-2.707-14.127
				c-1.271-2.721-2.775-5.387-4.521-7.532C25.208,4.609,23.258,2.984,21.277,2.199z"/>
			<path fill="#FEF4F6" d="M21.547,1.985c0.847-0.506,1.718-0.942,2.604-1.312c3.775-1.569,7.817-1.657,11.706-0.028
				c4.23,1.772,8.266,5.821,11.266,10.411c4.633,7.089,7.142,15.164,5.582,19.104c-1.512,3.813-7.224,6.321-13.809,7.447
				c-3.07,0.525-6.354,0.82-9.552,0.694c-3.6-0.142-6.971-0.83-9.559-1.959c1.707-0.202,3.402-0.542,5.017-0.992
				c1.613-0.45,3.134-1.022,4.507-1.688c2.716-1.317,4.799-3.021,5.577-5.169c1.135-3.134-0.24-8.91-2.815-14.323
				c-1.312-2.757-2.87-5.453-4.674-7.619C25.606,4.397,23.593,2.761,21.547,1.985z"/>
			<path fill="#FEF4F6" d="M21.818,1.771c0.846-0.485,1.715-0.903,2.598-1.252C28.175-0.963,32.181-0.96,36.03,0.71
				c4.169,1.809,8.138,5.814,11.101,10.347c4.635,7.089,7.142,15.164,5.582,19.104c-1.494,3.772-7.096,6.27-13.586,7.416
				c-3.039,0.535-6.291,0.849-9.469,0.745c-3.56-0.115-6.908-0.763-9.516-1.836c1.752-0.195,3.49-0.531,5.145-0.98
				c1.653-0.448,3.212-1.024,4.616-1.694c2.78-1.327,4.908-3.049,5.701-5.225c1.153-3.164-0.263-9.03-2.923-14.521
				c-1.354-2.791-2.967-5.517-4.827-7.705C26.004,4.186,23.929,2.537,21.818,1.771z"/>
			<path fill="#FEF4F5" d="M22.088,1.556c0.845-0.467,1.711-0.865,2.592-1.191c3.742-1.394,7.713-1.302,11.521,0.41
				c4.105,1.847,8.012,5.81,10.937,10.282c4.634,7.089,7.141,15.164,5.581,19.104c-1.479,3.731-6.971,6.217-13.366,7.385
				c-3.003,0.549-6.226,0.875-9.384,0.795c-3.516-0.089-6.844-0.693-9.47-1.71c1.796-0.192,3.577-0.523,5.271-0.972
				c1.693-0.447,3.289-1.023,4.725-1.697c2.848-1.336,5.018-3.08,5.825-5.283c1.173-3.194-0.286-9.15-3.03-14.716
				c-1.393-2.826-3.061-5.583-4.979-7.791C26.402,3.974,24.265,2.314,22.088,1.556z"/>
			<path fill="#FDF4F5" d="M22.359,1.341c0.844-0.448,1.708-0.826,2.585-1.134c3.726-1.307,7.661-1.124,11.429,0.63
				c4.045,1.883,7.885,5.803,10.771,10.219c4.635,7.089,7.141,15.164,5.582,19.104c-1.462,3.69-6.846,6.166-13.146,7.354
				c-2.969,0.561-6.158,0.899-9.301,0.844c-3.475-0.062-6.781-0.623-9.426-1.585c1.841-0.187,3.665-0.515,5.4-0.962
				c1.733-0.445,3.366-1.022,4.833-1.701c2.91-1.345,5.127-3.107,5.951-5.339c1.188-3.227-0.31-9.271-3.139-14.913
				c-1.436-2.859-3.156-5.647-5.133-7.876C26.799,3.763,24.601,2.091,22.359,1.341z"/>
			<path fill="#FDF3F5" d="M22.629,1.127c0.844-0.429,1.706-0.787,2.58-1.075c3.708-1.219,7.609-0.946,11.335,0.85
				c3.981,1.919,7.759,5.798,10.606,10.154c4.634,7.089,7.142,15.164,5.581,19.104c-1.445,3.649-6.719,6.113-12.925,7.321
				c-2.935,0.571-6.095,0.927-9.218,0.895c-3.432-0.036-6.717-0.556-9.381-1.461c1.885-0.183,3.754-0.506,5.527-0.951
				s3.443-1.022,4.94-1.704c2.977-1.354,5.238-3.14,6.074-5.396c1.209-3.259-0.33-9.393-3.244-15.109
				c-1.476-2.896-3.252-5.713-5.285-7.963C27.197,3.551,24.937,1.867,22.629,1.127z"/>
			<path fill="#FDF3F5" d="M22.9,0.913c0.843-0.41,1.702-0.749,2.573-1.017c3.692-1.131,7.558-0.768,11.243,1.07
				c3.921,1.955,7.632,5.791,10.441,10.09c4.635,7.089,7.141,15.164,5.581,19.104c-1.429,3.608-6.592,6.061-12.704,7.29
				c-2.898,0.583-6.027,0.951-9.133,0.942c-3.392-0.01-6.654-0.484-9.338-1.335c1.93-0.177,3.842-0.498,5.655-0.941
				c1.813-0.444,3.521-1.022,5.05-1.707c3.041-1.361,5.348-3.169,6.197-5.453c1.228-3.289-0.354-9.514-3.352-15.308
				c-1.516-2.931-3.349-5.777-5.438-8.048C27.596,3.339,25.273,1.644,22.9,0.913z"/>
			<path fill="#FDF3F5" d="M23.171,0.698c0.841-0.392,1.699-0.711,2.567-0.957c3.676-1.044,7.504-0.592,11.15,1.29
				c3.859,1.99,7.505,5.783,10.277,10.024c4.633,7.089,7.141,15.164,5.582,19.104c-1.414,3.567-6.468,6.009-12.484,7.259
				c-2.864,0.595-5.965,0.979-9.049,0.993c-3.351,0.017-6.591-0.416-9.293-1.211c1.975-0.173,3.929-0.488,5.783-0.933
				c1.854-0.443,3.596-1.021,5.158-1.712c3.104-1.371,5.456-3.197,6.323-5.509c1.245-3.32-0.379-9.633-3.46-15.503
				c-1.558-2.966-3.442-5.843-5.591-8.134C27.994,3.128,25.609,1.421,23.171,0.698z"/>
			<path fill="#FDF3F4" d="M23.441,0.483c0.841-0.371,1.696-0.67,2.562-0.896c3.657-0.957,7.452-0.415,11.058,1.51
				c3.798,2.027,7.378,5.777,10.112,9.961c4.635,7.089,7.142,15.164,5.582,19.104c-1.397,3.527-6.342,5.957-12.264,7.228
				c-2.83,0.606-5.898,1.004-8.965,1.043c-3.31,0.042-6.529-0.348-9.25-1.087c2.019-0.166,4.017-0.479,5.91-0.922
				c1.893-0.442,3.674-1.021,5.268-1.715c3.17-1.381,5.564-3.228,6.446-5.566c1.263-3.351-0.401-9.753-3.567-15.699
				c-1.598-3-3.537-5.907-5.742-8.22C28.391,2.917,25.945,1.198,23.441,0.483z"/>
			<path fill="#FDF2F4" d="M23.712,0.269c0.84-0.353,1.692-0.632,2.555-0.838c3.641-0.87,7.4-0.238,10.965,1.73
				c3.734,2.062,7.251,5.771,9.948,9.896c4.634,7.089,7.141,15.164,5.581,19.104c-1.381,3.486-6.215,5.903-12.045,7.194
				c-2.793,0.618-5.83,1.029-8.879,1.094c-3.267,0.066-6.465-0.277-9.207-0.963c2.065-0.16,4.105-0.471,6.039-0.911
				c1.933-0.44,3.751-1.021,5.376-1.719c3.233-1.388,5.674-3.257,6.57-5.623c1.28-3.381-0.427-9.874-3.676-15.896
				c-1.639-3.036-3.634-5.974-5.896-8.307C28.789,2.705,26.281,0.974,23.712,0.269z"/>
			<path fill="#FDF2F4" d="M23.982,0.054c0.838-0.333,1.689-0.593,2.549-0.779c3.624-0.781,7.349-0.062,10.873,1.95
				c3.674,2.099,7.124,5.766,9.783,9.832c4.634,7.089,7.141,15.164,5.582,19.104c-1.365,3.445-6.088,5.854-11.823,7.164
				c-2.76,0.63-5.767,1.055-8.796,1.143c-3.226,0.093-6.402-0.209-9.162-0.838c2.109-0.155,4.193-0.458,6.166-0.901
				c1.973-0.437,3.827-1.021,5.484-1.722c3.299-1.396,5.779-3.288,6.693-5.68c1.295-3.415-0.447-9.995-3.781-16.094
				c-1.68-3.07-3.729-6.038-6.049-8.392C29.188,2.493,26.617,0.751,23.982,0.054z"/>
			<path fill="#FDF2F4" d="M24.253-0.161c0.838-0.313,1.686-0.555,2.542-0.72c3.607-0.695,7.298,0.114,10.779,2.17
				c3.614,2.134,6.998,5.759,9.62,9.768c4.634,7.089,7.142,15.164,5.581,19.104c-1.35,3.404-5.962,5.801-11.604,7.132
				c-2.726,0.643-5.7,1.082-8.711,1.192c-3.186,0.118-6.339-0.14-9.119-0.714c2.153-0.149,4.281-0.448,6.292-0.891
				c2.014-0.438,3.904-1.021,5.593-1.725c3.364-1.405,5.892-3.318,6.819-5.737c1.312-3.446-0.469-10.117-3.889-16.29
				c-1.721-3.107-3.824-6.104-6.201-8.479C29.585,2.282,26.953,0.527,24.253-0.161z"/>
			<path fill="#FDF2F3" d="M24.523-0.375c0.837-0.295,1.683-0.518,2.537-0.661c3.59-0.608,7.247,0.291,10.688,2.39
				c3.553,2.168,6.871,5.752,9.455,9.703c4.633,7.089,7.141,15.164,5.58,19.104c-1.332,3.363-5.834,5.751-11.382,7.101
				c-2.69,0.654-5.637,1.105-8.628,1.242c-3.145,0.144-6.276-0.07-9.074-0.588c2.198-0.146,4.369-0.441,6.421-0.882
				c2.053-0.436,3.98-1.021,5.699-1.729c3.43-1.414,6-3.347,6.943-5.793c1.332-3.478-0.492-10.238-3.995-16.486
				c-1.761-3.141-3.921-6.168-6.354-8.562C29.984,2.07,27.289,0.304,24.523-0.375z"/>
			<path fill="#FDF1F3" d="M24.794-0.59c0.836-0.276,1.68-0.479,2.53-0.603c3.573-0.522,7.198,0.467,10.593,2.61
				c3.494,2.203,6.746,5.746,9.291,9.639c4.633,7.089,7.141,15.164,5.58,19.104c-1.314,3.322-5.707,5.699-11.16,7.068
				c-2.655,0.667-5.571,1.131-8.543,1.292c-3.104,0.169-6.214-0.001-9.031-0.464c2.243-0.141,4.458-0.433,6.549-0.871
				c2.093-0.435,4.059-1.02,5.811-1.731c3.491-1.422,6.108-3.377,7.066-5.851c1.35-3.509-0.518-10.358-4.104-16.683
				c-1.803-3.177-4.018-6.233-6.508-8.649C30.38,1.859,27.625,0.081,24.794-0.59z"/>
			<path fill="#FDF1F3" d="M25.065-0.805c0.834-0.257,1.676-0.438,2.523-0.542c3.557-0.437,7.147,0.644,10.501,2.83
				c3.435,2.238,6.619,5.74,9.125,9.574c4.636,7.089,7.143,15.164,5.582,19.104c-1.299,3.281-5.582,5.647-10.94,7.037
				c-2.62,0.679-5.506,1.155-8.459,1.343c-3.062,0.192-6.151,0.066-8.986-0.34c2.288-0.136,4.545-0.425,6.676-0.86
				c2.133-0.434,4.137-1.021,5.918-1.736c3.559-1.432,6.22-3.405,7.191-5.905c1.369-3.541-0.539-10.48-4.211-16.881
				c-1.842-3.211-4.115-6.294-6.66-8.734C30.775,1.652,27.961-0.143,25.065-0.805z"/>
			<path fill="#FDF1F3" d="M25.335-1.019c0.834-0.237,1.673-0.401,2.518-0.483c3.539-0.356,7.098,0.817,10.409,3.05
				c3.372,2.271,6.491,5.733,8.961,9.51c4.634,7.089,7.141,15.164,5.581,19.104c-1.283,3.241-5.455,5.598-10.721,7.006
				c-2.586,0.69-5.44,1.181-8.375,1.393c-3.021,0.218-6.088,0.136-8.942-0.216c2.333-0.13,4.633-0.416,6.805-0.851
				c2.173-0.434,4.212-1.019,6.026-1.739c3.621-1.44,6.328-3.437,7.314-5.964c1.389-3.57-0.562-10.601-4.318-17.076
				c-1.883-3.247-4.209-6.36-6.811-8.821C31.173,1.439,28.297-0.365,25.335-1.019z"/>
			<path fill="#FDF1F3" d="M25.606-1.234c0.833-0.218,1.67-0.363,2.512-0.424c3.522-0.269,7.047,0.994,10.316,3.27
				c3.313,2.308,6.364,5.728,8.796,9.445c4.634,7.089,7.141,15.164,5.581,19.104c-1.269,3.2-5.326,5.557-10.5,6.975
				c-2.55,0.708-5.375,1.204-8.29,1.441c-2.98,0.241-6.025,0.206-8.899-0.092c2.376-0.125,4.719-0.406,6.932-0.841
				c2.212-0.432,4.289-1.015,6.135-1.742c3.688-1.441,6.439-3.465,7.439-6.021c1.406-3.603-0.575-10.729-4.426-17.272
				c-1.92-3.284-4.305-6.425-6.966-8.906C31.574,1.228,28.633-0.589,25.606-1.234z"/>
			<path fill="#FDF0F2" d="M25.876-1.448c0.832-0.199,1.667-0.324,2.506-0.366c3.506-0.18,6.999,1.169,10.224,3.49
				c3.254,2.341,6.237,5.721,8.631,9.381c4.634,7.089,7.142,15.164,5.581,19.104c-1.251,3.159-5.199,5.503-10.279,6.942
				c-2.515,0.72-5.311,1.229-8.205,1.491c-2.938,0.268-5.962,0.274-8.855,0.033c2.421-0.119,4.809-0.398,7.061-0.83
				c2.252-0.431,4.365-1.015,6.242-1.746c3.754-1.453,6.549-3.495,7.564-6.077c1.425-3.633-0.602-10.848-4.532-17.469
				c-1.963-3.32-4.399-6.492-7.119-8.993C31.972,1.016,28.969-0.812,25.876-1.448z"/>
			<path fill="#FDF0F2" d="M26.147-1.663c0.832-0.181,1.664-0.285,2.499-0.307c3.49-0.093,6.953,1.338,10.131,3.709
				c3.2,2.37,6.112,5.714,8.469,9.315c4.633,7.089,7.141,15.164,5.58,19.104c-1.234,3.118-5.074,5.449-10.06,6.91
				c-2.479,0.73-5.246,1.248-8.122,1.542c-2.898,0.287-5.899,0.345-8.811,0.158c2.466-0.113,4.896-0.391,7.188-0.82
				c2.291-0.431,4.443-1.016,6.352-1.749c3.816-1.464,6.66-3.524,7.688-6.135c1.442-3.664-0.628-10.967-4.64-17.666
				c-2.006-3.354-4.493-6.557-7.271-9.079C32.371,0.803,29.305-1.036,26.147-1.663z"/>
			<path fill="#FDF0F2" d="M28.91-2.125c-0.832,0.001-1.663,0.086-2.493,0.248c3.224,0.619,6.353,2.468,9.188,5.01
				s5.377,5.776,7.424,9.165c4.094,6.776,6.21,14.167,4.747,17.863c-1.044,2.637-3.933,4.717-7.812,6.189
				c-1.94,0.737-4.129,1.323-6.461,1.753s-4.804,0.701-7.314,0.812c2.931,0.13,5.909,0.032,8.768-0.283
				c2.857-0.315,5.592-0.85,8.037-1.591c4.891-1.483,8.62-3.802,9.84-6.88c1.56-3.939-0.947-12.016-5.582-19.104
				c-2.316-3.544-5.164-6.842-8.303-9.252C35.811-0.606,32.384-2.129,28.91-2.125z"/>
		</g>
		<g>
			<path fill="#551B11" d="M28.048,29.869c-1.398,0-4.623-2.728-3.955-3.955c0.461-0.849,2.894,0,3.859,0
				c1.013,0,3.566-0.891,4.049,0C32.671,27.143,29.447,29.869,28.048,29.869z"/>
			<path fill="#F5A4B8" d="M28.033,28.731c-0.667,0-2.205-1.3-1.886-1.886c0.22-0.403,1.379,0,1.84,0c0.482,0,1.702-0.426,1.931,0
				C30.236,27.432,28.699,28.731,28.033,28.731z"/>
		</g>
		<g>
			<g opacity="0.5">
			</g>
			<g opacity="0.5">
			</g>
		</g>
		<g>
			<path fill="#F9C5C8" d="M40.554,7.82c-3.896,2.575-9.092,2.962-13.594,2.218c-2.313-0.382-4.844-1.146-6.508-2.874
				c-2.01-2.087-0.097-4.407,1.922-5.46c2.216-1.156,5.022-1.271,7.448-0.93c2.168,0.308,7.025,2.294,3.715,4.765
				c-1.955,1.456-5.831,1.432-7.749-0.052c-1.968-1.521,1.853-2.424,2.761-2.428c0.714-0.004,1.396,0.186,2.031,0.504
				c0.069,0.987-0.302,1.456-1.113,1.408c-0.133,0.016-2.166-0.208-1.562-0.762c0.409-0.372-0.198-0.976-0.604-0.604
				c-0.533,0.49-0.701,1.348,0.069,1.764c1.162,0.628,2.568,0.616,3.721-0.027c0.668-0.374,1.037-1.335,0.511-1.972
				c-0.897-1.086-2.518-1.225-3.831-1.137c-1.973,0.134-4.498,1.913-2.586,3.859c1.902,1.936,5.965,1.519,8.182,0.529
				c2.24-0.999,2.846-3.393,0.954-5.03c-2.147-1.859-5.938-2.069-8.605-1.703c-2.576,0.354-5.634,1.383-6.737,3.982
				c-0.961,2.262,0.882,4.231,2.689,5.307c2.926,1.743,6.766,2.123,10.096,2.015c3.192-0.102,6.528-0.854,9.222-2.634
				C41.443,8.256,41.016,7.516,40.554,7.82L40.554,7.82z"/>
		</g>
		<path opacity="0.6" fill="#FFFFFF" enable-background="new    " d="M9.28,30.205C5.67,23.043,18.131,0.427,31.117-1.926
			c-0.729-0.131-1.468-0.2-2.207-0.199c-0.065,0-0.133,0.001-0.197,0.003c-0.08-0.001-0.158-0.003-0.238-0.003
			C14.763-2.108,0.683,22.648,4.492,30.205c3.046,6.044,13.631,8.826,24.122,8.765c0.757,0.001,1.511-0.013,2.263-0.04
			C21.261,38.562,12.082,35.763,9.28,30.205z"/>
		<g>
			<g>
				<ellipse fill="#551B11" cx="39.916" cy="19.653" rx="3.539" ry="4.112"/>
				<g>
					<path fill="#FFFFFF" d="M41.341,17.242c0.222-0.124,0.363-0.142,0.604-0.066c0.479,0.165,0.389,0.49,0.301,0.941
						c-0.113,0.646-0.879,1.831-1.522,1.898c-0.749,0.077-0.904-1.353-0.978-1.905c-0.027-0.32-0.055-0.643,0.131-0.921
						c0.149-0.219,0.322-0.3,0.578-0.255c0.33,0.05,0.307,0.37,0.553,0.491C41.126,17.485,41.154,17.353,41.341,17.242z"/>
				</g>
				<g>
					<path fill="#FFFFFF" d="M39.516,22.46c0.235,0.438,1.002-0.146,0.433-0.329c0.569,0.184,0.569-0.649,0-0.468
						c0.569-0.183-0.195-0.771-0.433-0.33c0.235-0.439-0.843-0.439-0.606,0c-0.236-0.439-1,0.147-0.43,0.33
						c-0.57-0.183-0.57,0.65,0,0.468c-0.57,0.184,0.193,0.769,0.43,0.329C38.673,22.899,39.751,22.899,39.516,22.46z"/>
				</g>
			</g>
		</g>
	</g>
	<g opacity="0.4">
		<rect x="8.854" y="-1.505" fill="none" width="48.719" height="50.54"/>
		<text transform="matrix(1 0 0 1 8.854 32.9592)" fill="#482C56" font-family="'FontAwesome'" font-size="39.1616"></text>
	</g>
</g>
<g id="Layer_2">
	<g>
		<ellipse fill="#551B11" cx="15.271" cy="19.661" rx="3.54" ry="4.113"/>
		<g>
			<path fill="#FFFFFF" d="M13.843,17.249c-0.22-0.123-0.363-0.141-0.602-0.065c-0.477,0.166-0.388,0.489-0.3,0.94
				c0.115,0.647,0.879,1.831,1.522,1.898c0.75,0.077,0.904-1.353,0.978-1.903c0.025-0.321,0.053-0.644-0.131-0.92
				c-0.15-0.22-0.322-0.302-0.578-0.256c-0.332,0.051-0.309,0.37-0.555,0.491C14.06,17.493,14.032,17.36,13.843,17.249z"/>
		</g>
		<g>
			<path fill="#FFFFFF" d="M15.668,22.469c-0.235,0.439-1-0.148-0.43-0.33c-0.57,0.182-0.57-0.648,0-0.468
				c-0.57-0.182,0.193-0.771,0.43-0.332c-0.235-0.439,0.845-0.439,0.608,0c0.236-0.439,1,0.15,0.431,0.332
				c0.569-0.182,0.569,0.648,0,0.468c0.569,0.182-0.193,0.771-0.431,0.33C16.513,22.908,15.433,22.908,15.668,22.469z"/>
		</g>
	</g>
</g>
</svg>
