<?xml version="1.0" encoding="utf-8"?>
<!-- Generator: Adobe Illustrator 16.0.0, SVG Export Plug-In . SVG Version: 6.00 Build 0)  -->
<!DOCTYPE svg PUBLIC "-//W3C//DTD SVG 1.1//EN" "http://www.w3.org/Graphics/SVG/1.1/DTD/svg11.dtd">
<svg version="1.1" id="Layer_1" xmlns="http://www.w3.org/2000/svg" xmlns:xlink="http://www.w3.org/1999/xlink" x="0px" y="0px"
	 width="25.667px" height="25px" viewBox="0 0 25.667 25" enable-background="new 0 0 25.667 25" xml:space="preserve">
<g>
	<path fill="#FFFFFF" d="M6.615,3.734C6.625,4.495,6.361,5.13,5.826,5.64C5.289,6.151,4.583,6.406,3.708,6.406H3.677
		c-0.855,0-1.543-0.255-2.062-0.766C1.093,5.13,0.833,4.495,0.833,3.734c0-0.771,0.268-1.409,0.805-1.914
		C2.173,1.315,2.875,1.062,3.74,1.062c0.863,0,1.557,0.253,2.078,0.758C6.337,2.325,6.603,2.963,6.615,3.734z M6.287,8.515V24H1.13
		V8.515H6.287z M24.833,15.125V24h-5.141v-8.281c0-1.094-0.211-1.95-0.633-2.57c-0.422-0.62-1.082-0.93-1.977-0.93
		c-0.656,0-1.207,0.18-1.648,0.539c-0.443,0.359-0.773,0.805-0.992,1.336c-0.115,0.312-0.172,0.734-0.172,1.266V24H9.13
		c0.02-4.156,0.031-7.526,0.031-10.109S9.156,9.765,9.146,9.265L9.13,8.515h5.141v2.25H14.24c0.207-0.333,0.422-0.625,0.641-0.875
		s0.512-0.521,0.883-0.812c0.369-0.292,0.822-0.518,1.359-0.68c0.535-0.161,1.133-0.242,1.789-0.242
		c1.781,0,3.213,0.591,4.297,1.773C24.291,11.112,24.833,12.843,24.833,15.125z"/>
</g>
</svg>
