<?xml version="1.0" encoding="utf-8"?>
<!-- Generator: Adobe Illustrator 16.0.0, SVG Export Plug-In . SVG Version: 6.00 Build 0)  -->
<!DOCTYPE svg PUBLIC "-//W3C//DTD SVG 1.1//EN" "http://www.w3.org/Graphics/SVG/1.1/DTD/svg11.dtd">
<svg version="1.1" id="Layer_1" xmlns="http://www.w3.org/2000/svg" xmlns:xlink="http://www.w3.org/1999/xlink" x="0px" y="0px"
	 width="45.738px" height="42.844px" viewBox="0 0 45.738 42.844" enable-background="new 0 0 45.738 42.844" xml:space="preserve">
<g>
	<path fill="#FFFFFF" d="M37.646,12.767c1.527,2.615,2.289,5.47,2.289,8.567c0,3.097-0.762,5.951-2.289,8.566
		c-1.523,2.615-3.596,4.686-6.211,6.211c-2.614,1.527-5.469,2.289-8.566,2.289c-3.097,0-5.951-0.763-8.567-2.289
		c-2.616-1.524-4.685-3.596-6.212-6.211c-1.526-2.615-2.288-5.47-2.288-8.566c0-3.097,0.763-5.952,2.288-8.567
		c1.526-2.614,3.596-4.685,6.212-6.211c2.616-1.525,5.471-2.289,8.567-2.289c3.096,0,5.952,0.763,8.566,2.289
		C34.051,8.082,36.123,10.152,37.646,12.767z M21.448,27.734v-12.8c0-0.208-0.066-0.379-0.2-0.512c-0.134-0.133-0.303-0.2-0.511-0.2
		h-5.689c-0.208,0-0.377,0.066-0.511,0.2c-0.134,0.134-0.2,0.304-0.2,0.512v12.8c0,0.207,0.066,0.377,0.2,0.512
		c0.133,0.133,0.303,0.2,0.511,0.2h5.689c0.208,0,0.378-0.067,0.511-0.2C21.381,28.111,21.448,27.941,21.448,27.734z M31.404,27.734
		v-12.8c0-0.208-0.068-0.379-0.199-0.512c-0.135-0.133-0.307-0.2-0.514-0.2h-5.688c-0.209,0-0.379,0.066-0.512,0.2
		c-0.135,0.134-0.201,0.304-0.201,0.512v12.8c0,0.207,0.066,0.377,0.201,0.512c0.133,0.133,0.303,0.2,0.512,0.2h5.688
		c0.207,0,0.379-0.067,0.514-0.2C31.336,28.111,31.404,27.941,31.404,27.734z"/>
</g>
</svg>
