<?xml version="1.0" encoding="utf-8"?>
<!-- Generator: Adobe Illustrator 16.0.0, SVG Export Plug-In . SVG Version: 6.00 Build 0)  -->
<!DOCTYPE svg PUBLIC "-//W3C//DTD SVG 1.1//EN" "http://www.w3.org/Graphics/SVG/1.1/DTD/svg11.dtd">
<svg version="1.1" id="Layer_1" xmlns="http://www.w3.org/2000/svg" xmlns:xlink="http://www.w3.org/1999/xlink" x="0px" y="0px"
	 width="45.738px" height="42.844px" viewBox="0 0 45.738 42.844" enable-background="new 0 0 45.738 42.844" xml:space="preserve">
<g>
	<path fill="#FFFFFF" d="M14.281,6.521c2.621-1.529,5.484-2.294,8.587-2.294s5.965,0.765,8.586,2.294
		c2.622,1.53,4.697,3.605,6.227,6.226c1.529,2.621,2.294,5.484,2.294,8.587s-0.765,5.965-2.294,8.586
		c-1.529,2.622-3.604,4.697-6.227,6.227c-2.621,1.529-5.482,2.294-8.586,2.294s-5.966-0.765-8.587-2.294s-4.697-3.604-6.226-6.227
		c-1.53-2.621-2.294-5.482-2.294-8.586s0.765-5.966,2.294-8.587C9.585,10.126,11.66,8.05,14.281,6.521z M31.423,22.559
		c0.476-0.268,0.712-0.676,0.712-1.225c0-0.55-0.236-0.958-0.712-1.226L19.305,12.98c-0.46-0.282-0.936-0.29-1.426-0.022
		c-0.476,0.282-0.713,0.698-0.713,1.247v14.256c0,0.549,0.237,0.966,0.713,1.248c0.237,0.118,0.475,0.177,0.712,0.177
		c0.253,0,0.49-0.066,0.713-0.2L31.423,22.559z"/>
</g>
</svg>
