<?xml version="1.0" encoding="utf-8"?>
<!-- Generator: Adobe Illustrator 16.0.0, SVG Export Plug-In . SVG Version: 6.00 Build 0)  -->
<!DOCTYPE svg PUBLIC "-//W3C//DTD SVG 1.1//EN" "http://www.w3.org/Graphics/SVG/1.1/DTD/svg11.dtd">
<svg version="1.1" id="Layer_1" xmlns="http://www.w3.org/2000/svg" xmlns:xlink="http://www.w3.org/1999/xlink" x="0px" y="0px"
	 width="45.739px" height="42.844px" viewBox="0 0 45.739 42.844" enable-background="new 0 0 45.739 42.844" xml:space="preserve">
<g>
	<path fill="#FFFFFF" d="M37.592,24.377c0,0.068-0.006,0.115-0.02,0.143c-0.867,3.629-2.682,6.571-5.443,8.827
		c-2.764,2.254-6,3.381-9.71,3.381c-1.977,0-3.89-0.372-5.738-1.117c-1.849-0.744-3.497-1.807-4.946-3.188l-2.62,2.62
		c-0.257,0.258-0.562,0.387-0.914,0.387s-0.657-0.129-0.914-0.387c-0.257-0.257-0.386-0.562-0.386-0.914v-9.1
		c0-0.352,0.128-0.657,0.386-0.914c0.257-0.258,0.562-0.386,0.914-0.386h9.1c0.352,0,0.657,0.128,0.914,0.386
		c0.257,0.257,0.386,0.562,0.386,0.914c0,0.352-0.128,0.657-0.386,0.915l-2.783,2.783c0.961,0.893,2.051,1.584,3.27,2.071
		s2.485,0.731,3.798,0.731c1.814,0,3.508-0.439,5.078-1.32c1.571-0.881,2.83-2.092,3.778-3.637c0.149-0.23,0.508-1.021,1.077-2.376
		c0.107-0.312,0.311-0.467,0.609-0.467h3.899c0.176,0,0.328,0.064,0.457,0.193C37.529,24.049,37.592,24.201,37.592,24.377z
		 M38.1,8.127v9.1c0,0.352-0.129,0.657-0.385,0.914c-0.258,0.257-0.562,0.386-0.914,0.386H27.7c-0.353,0-0.657-0.129-0.914-0.386
		c-0.257-0.257-0.386-0.562-0.386-0.914s0.128-0.657,0.386-0.914l2.804-2.803c-2.004-1.855-4.368-2.783-7.09-2.783
		c-1.814,0-3.507,0.44-5.078,1.32c-1.57,0.88-2.83,2.092-3.778,3.636c-0.149,0.23-0.508,1.022-1.077,2.376
		c-0.108,0.311-0.312,0.467-0.609,0.467H7.916c-0.176,0-0.329-0.064-0.457-0.193c-0.129-0.128-0.193-0.281-0.193-0.457v-0.142
		c0.88-3.629,2.708-6.571,5.484-8.826c2.776-2.255,6.026-3.382,9.75-3.382c1.977,0,3.9,0.375,5.77,1.127
		c1.868,0.752,3.527,1.812,4.977,3.179l2.641-2.621c0.256-0.257,0.561-0.386,0.914-0.386c0.352,0,0.656,0.128,0.914,0.386
		C37.971,7.47,38.1,7.775,38.1,8.127z"/>
</g>
</svg>
