<?xml version="1.0" encoding="utf-8"?>
<!-- Generator: Adobe Illustrator 16.0.0, SVG Export Plug-In . SVG Version: 6.00 Build 0)  -->
<!DOCTYPE svg PUBLIC "-//W3C//DTD SVG 1.1//EN" "http://www.w3.org/Graphics/SVG/1.1/DTD/svg11.dtd">
<svg version="1.1" id="Layer_1" xmlns="http://www.w3.org/2000/svg" xmlns:xlink="http://www.w3.org/1999/xlink" x="0px" y="0px"
	 width="42.667px" height="50.458px" viewBox="3.573 -10.079 42.667 50.458" enable-background="new 3.573 -10.079 42.667 50.458"
	 xml:space="preserve">
<g>
	<path fill="none" d="M44.364,8.182c0.018-0.038,0.034-0.077,0.051-0.116C44.398,8.105,44.381,8.144,44.364,8.182z"/>
	<path fill="none" d="M43.458,9.473c-0.022,0.024-0.044,0.048-0.067,0.072C43.414,9.521,43.436,9.497,43.458,9.473z"/>
	<path fill="none" d="M36.835,12.753c0.022-0.006,0.044-0.014,0.066-0.02C36.879,12.739,36.858,12.746,36.835,12.753
		c-0.801,0.213-1.637,0.395-2.483,0.561c0,0,0,0,0,0C35.198,13.148,36.034,12.967,36.835,12.753z"/>
	<path fill="none" d="M13.948,13.724c-0.246-0.045-0.492-0.092-0.737-0.142C13.456,13.632,13.702,13.679,13.948,13.724z"/>
	<path fill="none" d="M42.732,10.133c0.002-0.002,0.005-0.003,0.007-0.005C42.737,10.13,42.734,10.131,42.732,10.133z"/>
	<path fill="none" d="M29.964-0.833c-0.135,0.051-0.277,0.083-0.419,0.123c0.115,0.017,0.227,0.04,0.339,0.064
		C29.912-0.708,29.933-0.773,29.964-0.833z"/>
	<path fill="none" d="M38.25,12.334c0.029-0.01,0.061-0.019,0.09-0.028C38.311,12.315,38.28,12.324,38.25,12.334z"/>
	<path fill="none" d="M10.226,12.818c-0.148-0.047-0.295-0.094-0.44-0.143C9.932,12.724,10.078,12.771,10.226,12.818z"/>
	<path fill="none" d="M8.585,12.232c0.016,0.006,0.033,0.013,0.049,0.019c-0.016-0.006-0.031-0.013-0.046-0.02
		C8.586,12.232,8.586,12.232,8.585,12.232z"/>
	<path fill="none" d="M9.41,12.546c-0.143-0.051-0.282-0.103-0.421-0.156C9.128,12.443,9.268,12.495,9.41,12.546z"/>
	<path fill="none" d="M17.35,14.483c0.956,0.105,1.782,0.127,2.554,0.114c0,0,0,0-0.001,0C19.131,14.61,18.306,14.587,17.35,14.483z
		"/>
	<path fill="none" d="M21.36-0.371c-0.008,0.028-0.014,0.057-0.023,0.085c0.034,0,0.067-0.002,0.102-0.001
		C21.411-0.313,21.387-0.344,21.36-0.371z"/>
	<path fill="none" d="M12.869,13.508c-0.179-0.039-0.358-0.077-0.537-0.118C12.511,13.431,12.69,13.469,12.869,13.508z"/>
	<path fill="none" d="M11.073,13.068c-0.154-0.043-0.308-0.086-0.459-0.131C10.765,12.982,10.919,13.025,11.073,13.068z"/>
	<path fill="none" d="M11.948,13.296c-0.162-0.04-0.323-0.079-0.483-0.121C11.625,13.217,11.786,13.256,11.948,13.296z"/>
	<path fill="none" d="M43.966,8.865c0.005-0.006,0.01-0.012,0.015-0.018C43.976,8.854,43.971,8.859,43.966,8.865z"/>
	<path fill="none" d="M3.573-10.079v51.435H46.24v-51.435H3.573z M45.235,3.783c-0.12,0.488-0.436,0.917-0.867,1.264
		c0.276,0.533,0.416,1.107,0.372,1.73c-0.015,0.204-0.048,0.402-0.092,0.596c0.001-0.005,0.004-0.01,0.005-0.015
		c-0.396,2.613-2.003,13.288-2.421,16.216c-0.478,3.345-1.377,8.968-1.755,10.325c-0.165,0.597-0.979,1.47-1.97,2.287
		c-1.187,1.445-4.677,4.617-13.84,4.332C13.275,40.164,7.586,33.134,7.41,32.053c-0.174-1.082-0.586-10.981-1.471-14.627
		c-0.557-2.295-1.042-5.399-1.326-7.388C4.234,9.277,4.176,8.475,4.378,7.727C4.55,6.253,5.628,5.014,7.253,3.98
		C6.865,2.958,6.86,1.77,7.404,0.755c0.727-1.356,1.818-2.198,3.111-2.131c-0.191-0.394-0.338-0.845-0.389-1.402
		c-0.087-0.947,0.363-1.861,1.037-2.623c0.118-0.174,0.278-0.328,0.452-0.454c0.704-0.639,1.546-1.125,2.311-1.335
		c0.944-0.258,1.994-0.289,2.84,0.033c0.078-0.319,0.2-0.649,0.41-0.996c1.969-3.249,5.541-1.519,6.495,0.75
		c0.09-0.16,0.176-0.324,0.282-0.472c1.329-1.864,4.688-3.073,6.597-1.426c0.929,0.801,1.537,2.117,1.741,3.484
		c0.063-0.044,0.109-0.094,0.178-0.136c0.035-0.021,0.069-0.037,0.104-0.057c0.023-0.015,0.039-0.033,0.063-0.048
		c0.07-0.042,0.14-0.062,0.209-0.099c0.034-0.017,0.068-0.033,0.104-0.049c0.48-0.235,0.954-0.344,1.412-0.341
		c2.671-0.104,4.848,2.844,4.435,5.125c0.068,0.099,0.12,0.205,0.179,0.309c0.598-0.544,1.472-0.75,2.3-0.678
		c0.777-0.011,1.554,0.181,2.134,0.577C44.858-0.226,45.668,2.027,45.235,3.783z"/>
	<path fill="#202D3F" d="M27.866,12.104c-0.271,0.904-0.87,1.636-1.654,2.17c1.68-0.087,3.499-0.247,5.327-0.496
		c-0.584-0.065-1.157-0.198-1.674-0.38C29.003,13.093,28.349,12.641,27.866,12.104z"/>
	<path fill="#202D3F" d="M24.41,0.94c-0.022-0.001-0.044,0-0.066-0.002c0.013,0.013,0.023,0.027,0.036,0.04
		C24.391,0.966,24.4,0.953,24.41,0.94z"/>
	<path fill="#202D3F" d="M19.903,14.597c-0.679-0.368-1.275-0.893-1.735-1.578c-0.015,0.008-0.027,0.017-0.042,0.024
		c-1.728,0.896-4.677,0.708-6.002-0.786c-0.472-0.533-0.696-1.167-0.727-1.823c-0.687,0.918-1.698,1.619-2.809,1.798
		c0.016,0.006,0.031,0.013,0.046,0.02C8.75,12.299,8.87,12.344,8.99,12.39c0.139,0.053,0.278,0.105,0.421,0.156
		c0.124,0.044,0.25,0.087,0.376,0.129c0.145,0.049,0.292,0.096,0.44,0.143c0.128,0.04,0.257,0.08,0.387,0.118
		c0.152,0.045,0.305,0.088,0.459,0.131c0.13,0.036,0.26,0.072,0.392,0.107c0.16,0.042,0.322,0.082,0.483,0.121
		c0.128,0.032,0.256,0.064,0.385,0.094c0.178,0.042,0.357,0.08,0.537,0.118c0.114,0.024,0.228,0.051,0.342,0.074
		c0.245,0.05,0.491,0.097,0.737,0.142c0.047,0.009,0.094,0.019,0.142,0.027c0.748,0.135,1.621,0.415,2.451,0.595
		c0.276,0.06,0.548,0.109,0.809,0.137C18.306,14.587,19.131,14.61,19.903,14.597z"/>
	<path fill="#202D3F" d="M27.045,8.162c0.009,0.011,0.017,0.024,0.026,0.035c0.003-0.011,0.008-0.023,0.012-0.034
		C27.071,8.163,27.058,8.162,27.045,8.162z"/>
	<path fill="#202D3F" d="M40.521,10.846c-1.302,0.669-3.097,0.604-4.572,0.018c-0.075,0.417-0.193,0.823-0.39,1.202
		c-0.297,0.571-0.72,0.969-1.207,1.248c0.847-0.166,1.683-0.348,2.483-0.562c0.022-0.006,0.044-0.013,0.066-0.019
		c0.461-0.125,0.911-0.257,1.349-0.399c0.029-0.01,0.061-0.019,0.09-0.028c0.358-0.118,0.698-0.247,1.037-0.377
		c0.155-0.06,0.312-0.119,0.464-0.182c0.352-0.146,0.69-0.298,1.014-0.459c0.04-0.02,0.085-0.038,0.125-0.059
		c0.375-0.191,0.727-0.395,1.057-0.607c0.244-0.157,0.479-0.318,0.695-0.488c0.002-0.002,0.005-0.003,0.007-0.005
		c0.236-0.186,0.453-0.381,0.652-0.583c0.023-0.023,0.045-0.048,0.067-0.072c0.188-0.196,0.359-0.397,0.508-0.608
		c0.005-0.006,0.01-0.012,0.015-0.018c0.149-0.213,0.274-0.436,0.383-0.665c0.018-0.038,0.034-0.077,0.051-0.116
		c0.098-0.224,0.179-0.454,0.233-0.693c0.044-0.194,0.077-0.392,0.092-0.596c0.044-0.623-0.096-1.197-0.372-1.73
		c-0.541,0.435-1.265,0.74-2.019,0.87C43.002,7.692,42.238,9.964,40.521,10.846z"/>
	<path fill="#202D3F" d="M5.85,5.605c0.523-0.392,1.152-0.661,1.839-0.777C7.512,4.565,7.367,4.28,7.253,3.98
		C5.628,5.014,4.55,6.253,4.378,7.727c0.008-0.029,0.021-0.057,0.03-0.085C4.586,6.83,5.114,6.095,5.85,5.605z"/>
	<path fill="#0F161E" d="M39.841,11.747c-0.151,0.062-0.309,0.122-0.464,0.182C39.532,11.868,39.69,11.809,39.841,11.747z"/>
	<path fill="#0F161E" d="M44.364,8.182c-0.108,0.229-0.233,0.452-0.383,0.665c-0.005,0.006-0.01,0.012-0.015,0.018
		c-0.148,0.21-0.32,0.412-0.508,0.608c-0.022,0.024-0.044,0.048-0.067,0.072c-0.199,0.202-0.416,0.397-0.652,0.583
		c-0.002,0.002-0.005,0.003-0.007,0.005c-0.216,0.169-0.451,0.331-0.695,0.488c0.016-0.01,0.034-0.019,0.05-0.029
		c0.088,0.17,0.156,0.364,0.169,0.577c0.04,0.661-1.302,2.996-0.938,4.853s-0.379,5.878-1.097,7.603
		c-0.719,1.724-0.99,4.696-0.537,6.329c0.452,1.631-0.343,5.189-0.667,5.557c-0.063,0.071-0.221,0.324-0.51,0.676
		c0.991-0.817,1.805-1.69,1.97-2.287c0.378-1.357,1.277-6.98,1.755-10.325c0.418-2.928,2.025-13.603,2.421-16.216
		c-0.001,0.005-0.004,0.009-0.005,0.015c-0.055,0.239-0.136,0.469-0.233,0.693C44.398,8.105,44.381,8.144,44.364,8.182z"/>
	<path fill="#0F161E" d="M40.855,11.287c0.04-0.02,0.085-0.038,0.125-0.059C40.94,11.249,40.895,11.267,40.855,11.287z"/>
	<path fill="#141D28" d="M39.684,29.954c-0.453-1.633-0.182-4.605,0.537-6.329c0.718-1.725,1.461-5.746,1.097-7.603
		s0.978-4.192,0.938-4.853c-0.013-0.213-0.081-0.407-0.169-0.577c-0.016,0.01-0.034,0.019-0.05,0.029
		c-0.33,0.213-0.682,0.416-1.057,0.607c-0.04,0.021-0.085,0.039-0.125,0.059c-0.323,0.161-0.662,0.313-1.014,0.459
		c-0.151,0.062-0.309,0.122-0.464,0.182c-0.339,0.13-0.679,0.26-1.037,0.377c-0.029,0.01-0.061,0.019-0.09,0.028
		c-0.438,0.142-0.888,0.275-1.349,0.399c-0.022,0.006-0.044,0.014-0.066,0.02c-0.801,0.214-1.637,0.396-2.483,0.561
		c-0.816,0.467-1.826,0.574-2.812,0.464c-1.828,0.249-3.647,0.409-5.327,0.496c-1.727,1.175-4.342,1.389-6.308,0.323
		c-0.772,0.013-1.598-0.009-2.554-0.114c-0.261-0.028-0.532-0.077-0.809-0.137c-0.83-0.18-1.704-0.459-2.451-0.595
		c-0.047-0.008-0.095-0.019-0.142-0.027c-0.246-0.045-0.492-0.092-0.737-0.142c-0.114-0.023-0.228-0.05-0.342-0.074
		c-0.179-0.039-0.358-0.077-0.537-0.118c-0.129-0.03-0.256-0.062-0.385-0.094c-0.162-0.04-0.323-0.079-0.483-0.121
		c-0.131-0.035-0.261-0.071-0.392-0.107c-0.154-0.043-0.308-0.086-0.459-0.131c-0.13-0.039-0.259-0.078-0.387-0.118
		c-0.148-0.047-0.294-0.094-0.44-0.143C9.66,12.633,9.534,12.59,9.41,12.546c-0.143-0.051-0.282-0.103-0.421-0.156
		c-0.12-0.045-0.239-0.091-0.356-0.138c-0.016-0.006-0.033-0.013-0.049-0.019c-0.788,0.126-1.62,0-2.418-0.519
		c-0.76-0.493-1.252-1.071-1.554-1.676c0.284,1.989,0.769,5.093,1.326,7.388c0.885,3.646,1.297,13.545,1.471,14.627
		c0.175,1.081,5.864,8.111,17.257,8.466c9.163,0.285,12.653-2.887,13.84-4.332c0.289-0.352,0.446-0.604,0.51-0.676
		C39.341,35.144,40.136,31.585,39.684,29.954z M22.283,25.661c-0.364,1.333-1.639,2.447-1.773,3.788
		c-0.123,1.208,0.816,2.491,1.176,3.615c0.469,1.468,0.509,2.675-0.175,4.087c-0.631,1.305-1.507,1.019-2.815,0.768
		c-1.534-0.292-2.945-0.546-4.273-1.398c-1.04-0.667-2.539-1.304-3.254-2.286c-0.524-0.72-1.155-1.809-1.523-2.594
		c-0.428-0.911-0.104-2.062-0.197-3.063c-0.112-1.213-0.91-2.225-0.897-3.438c0.015-1.315,0.72-2.526,0.797-3.847
		c0.077-1.305-2.223-5.231-1.225-6.231c0.595-0.595,1.953,0.41,2.517,0.553c1.025,0.262,2.01-0.26,3.068-0.004
		c1.253,0.304,2.35,1.059,3.591,1.407c1.053,0.297,2.325,0.039,3.327,0.472c1.319,0.57,0.532,1.201,0.408,2.297
		c-0.131,1.163,0.71,2.012,1.153,3.007C22.608,23.741,22.555,24.67,22.283,25.661z"/>
	<path fill="#2B3B4C" d="M21.034,19.786c0.124-1.096,0.911-1.727-0.408-2.297c-1.002-0.433-2.274-0.175-3.327-0.472
		c-1.241-0.349-2.337-1.104-3.591-1.407c-1.058-0.256-2.042,0.267-3.068,0.004c-0.564-0.143-1.922-1.148-2.517-0.553
		c-0.998,1,1.302,4.927,1.225,6.231c-0.077,1.32-0.783,2.531-0.797,3.847c-0.013,1.213,0.786,2.225,0.897,3.438
		c0.093,1.001-0.231,2.152,0.197,3.063c0.369,0.785,1,1.874,1.523,2.594c0.715,0.982,2.215,1.619,3.254,2.286
		c1.328,0.853,2.739,1.106,4.273,1.398c1.309,0.251,2.184,0.537,2.815-0.768c0.684-1.412,0.644-2.619,0.175-4.087
		c-0.36-1.124-1.298-2.407-1.176-3.615c0.135-1.341,1.41-2.455,1.773-3.788c0.271-0.991,0.325-1.92-0.097-2.868
		C21.744,21.798,20.903,20.949,21.034,19.786z"/>
	<path fill="#D85903" d="M28.816-2.252c-0.132,0.544-0.411,1.067-0.791,1.528c0.517-0.061,1.03-0.06,1.521,0.013
		c0.142-0.039,0.284-0.071,0.419-0.123c0.254-0.489,0.584-0.934,0.978-1.306c0.077-0.09,0.149-0.185,0.234-0.267
		c-0.136-0.4-0.196-0.808-0.182-1.207c-0.075,0.125-0.14,0.257-0.233,0.368C30.284-2.682,29.583-2.366,28.816-2.252z"/>
	<path fill="#D85903" d="M24.136-6.399c0.12-0.599,0.357-1.18,0.703-1.664c1.057-1.482,3.728-2.443,5.245-1.133
		c1.057,0.912,1.59,2.653,1.394,4.162c0.199-0.284,0.471-0.546,0.812-0.783c-0.204-1.367-0.812-2.683-1.741-3.484
		c-1.909-1.646-5.268-0.438-6.597,1.426c-0.105,0.148-0.191,0.312-0.282,0.472c0.139,0.331,0.222,0.673,0.236,1.013
		C23.982-6.396,24.058-6.399,24.136-6.399z"/>
	<path fill="#FF6800" d="M25.893-6.163c-0.653-0.51-0.583-1.496-0.137-2.121c0.459-0.642,1.613-1.056,2.27-0.49
		c0.662,0.571,0.866,1.899,0.294,2.575c-0.383,0.452-1.095,0.531-1.712,0.369c1.135,0.532,2.084,1.405,2.262,2.505
		c0.058,0.358,0.032,0.719-0.054,1.071c0.768-0.113,1.469-0.429,1.945-0.993c0.094-0.11,0.158-0.243,0.233-0.368
		c0.019-0.5,0.174-0.982,0.482-1.422c0.196-1.509-0.337-3.25-1.394-4.162c-1.517-1.31-4.188-0.349-5.245,1.133
		c-0.345,0.484-0.583,1.065-0.703,1.664c0.605-0.007,1.275,0.11,1.918,0.339C25.999-6.094,25.942-6.125,25.893-6.163z"/>
	<path fill="#FFCDAB" d="M28.32-6.198c0.572-0.676,0.368-2.004-0.294-2.575c-0.656-0.566-1.81-0.152-2.27,0.49
		c-0.446,0.625-0.516,1.61,0.137,2.121c0.049,0.038,0.106,0.069,0.162,0.103c0.188,0.067,0.372,0.146,0.553,0.231
		C27.224-5.667,27.937-5.747,28.32-6.198z"/>
	<path fill="#D85903" d="M17.439-8.4c2.058-3.395,6.338,0.146,5.01,2.375c0.375-0.157,0.772-0.282,1.199-0.343
		c0.083-0.012,0.171-0.017,0.258-0.023c-0.014-0.34-0.097-0.682-0.236-1.013c-0.954-2.269-4.526-3.998-6.495-0.75
		c-0.21,0.347-0.332,0.677-0.41,0.996c0.102,0.039,0.19,0.098,0.285,0.147C17.023-7.432,17.135-7.899,17.439-8.4z"/>
	<path fill="#D85903" d="M20.934-4.942c-0.875,0.233-1.866,0.086-2.631-0.33c0.018,0.094,0.048,0.177,0.059,0.278
		c0.813,0.031,1.564,0.28,2.134,0.793C20.611-4.466,20.751-4.718,20.934-4.942z"/>
	<path fill="#FF6800" d="M20.934-4.942c0.252-0.31,0.573-0.565,0.929-0.784c0.072-0.06,0.152-0.111,0.24-0.153
		c0.109-0.057,0.23-0.098,0.346-0.146c1.329-2.23-2.952-5.771-5.01-2.375c-0.304,0.501-0.417,0.968-0.389,1.39
		c0.625,0.324,1.087,0.885,1.253,1.739C19.068-4.855,20.059-4.708,20.934-4.942z M17.888-8.285c1.164-1.92,3.741,0.537,2.2,1.566
		C19.033-6.015,17.052-6.905,17.888-8.285z"/>
	<path fill="#FFCDAB" d="M17.888-8.285c-0.836,1.38,1.145,2.27,2.2,1.566C21.63-7.748,19.052-10.205,17.888-8.285z"/>
	<path fill="#D85903" d="M32.844-6.158c0.034-0.018,0.068-0.032,0.104-0.049C32.912-6.191,32.878-6.175,32.844-6.158z"/>
	<path fill="#D85903" d="M37.976-2.272c0.314,0.252,0.596,0.532,0.818,0.848c0.413-2.281-1.764-5.228-4.435-5.125
		C36.54-6.537,38.29-4.154,37.976-2.272z"/>
	<path fill="#D85903" d="M31.477-5.035c-0.309,0.44-0.464,0.922-0.482,1.422c-0.015,0.399,0.046,0.807,0.182,1.207
		c0.15-0.145,0.313-0.275,0.486-0.39c-0.494-1.138-0.364-2.394,0.909-3.215c-0.035,0.02-0.069,0.035-0.104,0.057
		c-0.068,0.042-0.114,0.092-0.178,0.136C31.948-5.582,31.676-5.319,31.477-5.035z"/>
	<path fill="#FF6800" d="M31.662-2.796c0.002-0.001,0.004-0.003,0.006-0.005c0.303-0.2,0.626-0.341,0.957-0.453
		c-0.785-0.536-1.221-1.652-0.273-2.232c1.411-0.862,2.802,1.017,2.155,2.017c0.028,0.002,0.058,0.006,0.086,0.01
		c1.265,0.026,2.482,0.464,3.383,1.188c0.314-1.882-1.436-4.265-3.616-4.276c-0.458-0.002-0.932,0.106-1.412,0.341
		c-0.035,0.017-0.069,0.031-0.104,0.049c-0.069,0.037-0.139,0.057-0.209,0.099c-0.024,0.015-0.04,0.033-0.063,0.048
		C31.298-5.189,31.168-3.934,31.662-2.796z"/>
	<path fill="#FFCDAB" d="M34.507-3.469c0.646-1-0.744-2.879-2.155-2.017c-0.947,0.58-0.512,1.696,0.273,2.232
		C33.239-3.462,33.881-3.528,34.507-3.469z"/>
	<path fill="#D85903" d="M13.654-6.92c1.574-0.432,3.514-0.107,3.679,1.87c0.003,0.043-0.005,0.083-0.003,0.125
		c0.349-0.057,0.695-0.081,1.032-0.068c-0.011-0.102-0.041-0.184-0.059-0.278c-0.166-0.854-0.627-1.415-1.253-1.739
		c-0.095-0.049-0.184-0.108-0.285-0.147c-0.846-0.322-1.896-0.291-2.84-0.033c-0.765,0.209-1.607,0.696-2.311,1.335
		c0.154-0.112,0.317-0.199,0.476-0.256C12.592-6.492,13.144-6.781,13.654-6.92z"/>
	<path fill="#D85903" d="M11.888-0.983c0.374,0.193,0.699,0.421,0.991,0.668c-0.023-0.16-0.031-0.317-0.028-0.474
		c-1.186-0.082-2.185-0.821-2.338-2.485c-0.052-0.569,0.138-1.123,0.453-1.627c0.022-0.175,0.091-0.345,0.197-0.5
		c-0.674,0.761-1.124,1.676-1.037,2.623c0.051,0.558,0.198,1.008,0.389,1.402C10.952-1.354,11.411-1.229,11.888-0.983z"/>
	<path fill="#FF6800" d="M15.403-4.269c0.545-0.322,1.15-0.542,1.746-0.625c0.061-0.012,0.121-0.021,0.181-0.031
		c-0.002-0.042,0.006-0.082,0.003-0.125c-0.166-1.977-2.105-2.302-3.679-1.87c-0.509,0.139-1.062,0.428-1.563,0.809
		c0.035-0.013,0.07-0.028,0.104-0.038c0.622-0.169,1.387-0.042,1.452,0.739c0.131,1.582-2.524,2.496-2.69,0.699
		c-0.006-0.064,0.001-0.127,0.009-0.19c-0.315,0.504-0.505,1.058-0.453,1.627c0.153,1.664,1.152,2.403,2.338,2.485
		C12.875-2.249,13.983-3.515,15.403-4.269z"/>
	<path fill="#FFCDAB" d="M10.956-4.711c0.166,1.796,2.821,0.883,2.69-0.699c-0.065-0.781-0.83-0.908-1.452-0.739
		c-0.034,0.009-0.069,0.025-0.104,0.038c-0.159,0.057-0.322,0.144-0.476,0.256c-0.174,0.126-0.334,0.28-0.452,0.454
		c-0.105,0.155-0.174,0.325-0.197,0.5C10.958-4.838,10.95-4.775,10.956-4.711z"/>
	<path fill="#D85903" d="M7.689,4.828C7.002,4.944,6.374,5.213,5.85,5.605c0.56-0.372,1.239-0.59,1.979-0.59
		C7.781,4.954,7.733,4.893,7.689,4.828z"/>
	<path fill="#D85903" d="M6.167,11.714c0.798,0.518,1.63,0.645,2.418,0.519c0.001,0,0.001,0,0.002,0
		c1.111-0.179,2.122-0.88,2.809-1.798c-0.036-0.757,0.187-1.542,0.578-2.235c-0.311-0.184-0.603-0.415-0.873-0.688
		c0.177,2.279-2.69,4.956-5.152,3.357C4.559,9.965,4.166,8.74,4.407,7.642C4.399,7.67,4.385,7.698,4.378,7.727
		c-0.202,0.748-0.144,1.55,0.235,2.311C4.914,10.643,5.406,11.221,6.167,11.714z"/>
	<path fill="#FF6800" d="M10.289,6.35c-1.019-0.043-1.873-0.569-2.46-1.335c-0.739,0-1.418,0.218-1.979,0.59
		C5.114,6.095,4.586,6.83,4.407,7.642C4.166,8.74,4.559,9.965,5.948,10.867c2.462,1.599,5.33-1.078,5.152-3.357
		c-0.049-0.049-0.1-0.095-0.146-0.148C10.655,7.029,10.439,6.689,10.289,6.35z M5.773,8.463c-1.942-1.261-0.12-3.756,1.85-2.806
		C9.62,6.621,7.497,9.583,5.773,8.463z"/>
	<path fill="#FFCDAB" d="M7.623,5.658c-1.97-0.95-3.792,1.544-1.85,2.806C7.497,9.583,9.62,6.621,7.623,5.658z"/>
	<path fill="#D85903" d="M21.552-5.192c0.036-0.215,0.148-0.396,0.312-0.534c-0.356,0.219-0.677,0.475-0.929,0.784
		c-0.183,0.224-0.323,0.476-0.438,0.742c0.115,0.104,0.224,0.219,0.323,0.346C20.914-4.381,21.177-4.831,21.552-5.192z"/>
	<path fill="#D85903" d="M22.499-5.999c0.133-0.019,0.284-0.011,0.438,0.02c0.18-0.052,0.363-0.098,0.554-0.125
		c1.524-0.215,3.903,0.798,4.167,2.429c0.265,1.646-1.568,3.372-3.154,3.419c-1.095,0.032-2.243-0.392-2.974-1.208
		c-0.007,0.382-0.069,0.746-0.17,1.092c0.027,0.027,0.051,0.058,0.079,0.083c0.355,0.011,0.719,0.052,1.096,0.165
		c0.716,0.215,1.322,0.587,1.81,1.06c0.022,0.002,0.044,0.001,0.066,0.002c0.173-0.194,0.358-0.376,0.565-0.526
		c0.364-0.264,0.771-0.467,1.196-0.621c0.59-0.269,1.22-0.442,1.853-0.518c0.38-0.461,0.659-0.984,0.791-1.528
		c0.086-0.353,0.111-0.713,0.054-1.071c-0.178-1.1-1.127-1.973-2.262-2.505c-0.181-0.085-0.365-0.165-0.553-0.231
		c-0.644-0.229-1.313-0.346-1.918-0.339c-0.078,0-0.154,0.004-0.23,0.009c-0.087,0.006-0.175,0.011-0.258,0.023
		c-0.426,0.061-0.824,0.186-1.199,0.343c-0.116,0.048-0.237,0.089-0.346,0.146C22.224-5.937,22.357-5.979,22.499-5.999z"/>
	<path fill="#FF6800" d="M24.504-0.255c1.585-0.047,3.419-1.773,3.154-3.419c-0.263-1.63-2.643-2.644-4.167-2.429
		c-0.191,0.027-0.375,0.072-0.554,0.125c0.47,0.094,0.964,0.404,1.034,0.838c0.094,0.582-0.555,1.192-1.115,1.209
		c-0.548,0.016-1.141-0.284-1.287-0.856c-0.037-0.146-0.038-0.28-0.017-0.405c-0.375,0.362-0.638,0.811-0.732,1.338
		c0.287,0.365,0.507,0.819,0.625,1.385c0.073,0.347,0.092,0.68,0.085,1.006C22.261-0.647,23.409-0.223,24.504-0.255z"/>
	<path fill="#FFCDAB" d="M21.552-5.192c-0.021,0.125-0.02,0.26,0.017,0.405c0.146,0.572,0.739,0.872,1.287,0.856
		c0.56-0.017,1.209-0.627,1.115-1.209c-0.07-0.434-0.564-0.745-1.034-0.838c-0.154-0.031-0.305-0.039-0.438-0.02
		c-0.142,0.02-0.274,0.062-0.396,0.12c-0.088,0.042-0.168,0.093-0.24,0.153C21.699-5.589,21.588-5.407,21.552-5.192z"/>
	<path fill="#D85903" d="M23.555,5.772c-0.192,0.244-0.416,0.471-0.684,0.667c0.369,0.005,0.736,0.039,1.096,0.1
		c-0.103-0.151-0.209-0.295-0.298-0.47C23.62,5.973,23.595,5.87,23.555,5.772z"/>
	<path fill="#D85903" d="M18.419,6.749c0.264,0.199,0.508,0.423,0.722,0.67c0.299-0.19,0.625-0.352,0.969-0.488
		c-0.497-0.161-0.957-0.442-1.355-0.809C18.664,6.342,18.552,6.551,18.419,6.749z"/>
	<path fill="#D85903" d="M21.646-0.167c1.037,0.311,1.789,1.022,2.228,1.884c0.144-0.266,0.312-0.515,0.507-0.739
		c-0.013-0.013-0.023-0.027-0.036-0.04c-0.488-0.473-1.093-0.845-1.81-1.06c-0.376-0.113-0.74-0.154-1.096-0.165
		c-0.035-0.001-0.068,0.001-0.102,0.001c-0.006,0.018-0.009,0.037-0.015,0.055C21.43-0.208,21.536-0.2,21.646-0.167z"/>
	<path fill="#FF6800" d="M23.555,5.772c-0.373-0.914-0.386-1.935-0.105-2.883c0.083-0.41,0.226-0.805,0.423-1.172
		c-0.438-0.861-1.19-1.573-2.228-1.884C21.536-0.2,21.43-0.208,21.322-0.23c-0.281,0.853-0.822,1.575-1.508,2.12
		c0.205-0.058,0.432-0.062,0.671,0.009c1.141,0.342,1.368,1.995,0.245,2.551c-0.992,0.491-2.061-0.718-1.767-1.677
		c0.055-0.177,0.138-0.334,0.242-0.469C18.91,2.474,18.6,2.612,18.28,2.719c0.02,0.03,0.044,0.055,0.063,0.086
		c0.759,1.212,0.806,2.357,0.411,3.317c0.398,0.367,0.859,0.647,1.355,0.809c0.85-0.335,1.809-0.505,2.762-0.492
		C23.14,6.243,23.364,6.016,23.555,5.772z"/>
	<path fill="#FFCDAB" d="M20.729,4.45c1.123-0.556,0.896-2.208-0.245-2.551c-0.239-0.072-0.466-0.067-0.671-0.009
		c-0.193,0.153-0.396,0.291-0.609,0.414c-0.104,0.134-0.188,0.292-0.242,0.469C18.669,3.732,19.738,4.94,20.729,4.45z"/>
	<path fill="#D85903" d="M30.104-0.593c0.168-0.571,0.455-1.102,0.838-1.546c-0.394,0.372-0.724,0.817-0.978,1.306
		c-0.031,0.06-0.052,0.125-0.08,0.187C29.957-0.63,30.031-0.613,30.104-0.593z"/>
	<path fill="#D85903" d="M37.976-2.272c-0.9-0.723-2.118-1.162-3.383-1.188c2.525,0.283,4.659,2.534,2.744,5.225
		c-1.075,1.513-3.073,2.457-4.745,2.169c-0.058,0.233-0.133,0.459-0.228,0.682c0.519,0.145,1.002,0.414,1.442,0.763
		c0.951-1.183,2.683-1.987,4.399-2.011c-0.282-0.89-0.31-1.874-0.077-2.76c0.073-0.453,0.223-0.885,0.455-1.262
		c0.108-0.176,0.241-0.328,0.389-0.462c-0.059-0.104-0.11-0.21-0.179-0.309C38.572-1.74,38.29-2.02,37.976-2.272z"/>
	<path fill="#FF6800" d="M30.942-2.139c-0.383,0.444-0.67,0.975-0.838,1.546c0.433,0.117,0.836,0.29,1.19,0.527
		c-0.031-0.063-0.072-0.109-0.098-0.18c-0.258-0.723,0.06-1.625,0.694-2.044c1.423-0.941,3.747,0.37,2.549,2.054
		c-0.538,0.758-1.585,1.183-2.377,0.894c0.533,0.697,0.803,1.648,0.622,2.886c-0.02,0.133-0.061,0.261-0.093,0.391
		c1.672,0.287,3.67-0.657,4.745-2.169c1.915-2.691-0.219-4.942-2.744-5.225c-0.028-0.003-0.058-0.007-0.086-0.01
		c-0.626-0.059-1.269,0.007-1.882,0.215c-0.331,0.112-0.654,0.253-0.957,0.453c-0.002,0.001-0.004,0.003-0.006,0.005
		c-0.173,0.115-0.336,0.246-0.486,0.39C31.091-2.324,31.019-2.229,30.942-2.139z"/>
	<path fill="#FFCDAB" d="M32.063,0.658c0.792,0.289,1.839-0.136,2.377-0.894c1.198-1.684-1.126-2.995-2.549-2.054
		c-0.635,0.419-0.952,1.321-0.694,2.044c0.025,0.071,0.066,0.117,0.098,0.18C31.59,0.131,31.846,0.375,32.063,0.658z"/>
	<path fill="#D85903" d="M7.829,5.015c0.587,0.766,1.442,1.292,2.46,1.335C10.06,5.83,9.996,5.309,10.063,4.808
		C7.939,4.938,6.606,2.35,7.591,0.512c0.748-1.396,1.995-2.083,3.445-1.336c1.075,0.554,1.702,1.44,1.872,2.35
		c0.217-0.096,0.439-0.181,0.666-0.25c-0.063-0.088-0.134-0.161-0.193-0.256c-0.279-0.453-0.439-0.901-0.502-1.335
		c-0.292-0.247-0.617-0.475-0.991-0.668c-0.477-0.246-0.937-0.371-1.374-0.393C9.222-1.443,8.131-0.602,7.404,0.755
		C6.86,1.77,6.865,2.958,7.253,3.98c0.114,0.3,0.259,0.585,0.436,0.848C7.733,4.893,7.781,4.954,7.829,5.015z"/>
	<path fill="#FF6800" d="M11.41,2.482c0.032-0.028,0.064-0.057,0.097-0.084c0.033-0.026,0.063-0.053,0.096-0.078
		c0.391-0.317,0.833-0.586,1.305-0.795c-0.17-0.91-0.797-1.796-1.872-2.35c-1.45-0.747-2.697-0.059-3.445,1.336
		C6.606,2.35,7.939,4.938,10.063,4.808c0.038-0.283,0.117-0.559,0.231-0.826C10.507,3.418,10.9,2.905,11.41,2.482z M7.86,0.136
		c0.377-0.703,1.006-1.051,1.737-0.673c1.342,0.691,1.324,2.405-0.238,2.803C8.145,2.573,7.325,1.135,7.86,0.136z"/>
	<path fill="#FFCDAB" d="M9.358,2.266c1.562-0.397,1.581-2.111,0.238-2.803c-0.73-0.377-1.359-0.03-1.737,0.673
		C7.325,1.135,8.145,2.573,9.358,2.266z"/>
	<path fill="#D85903" d="M12.123,12.257c1.325,1.495,4.274,1.683,6.002,0.786c0.015-0.008,0.027-0.017,0.042-0.024
		c-0.232-0.346-0.433-0.729-0.585-1.162c-0.019-0.054-0.029-0.105-0.046-0.158c-0.067,0.04-0.118,0.086-0.19,0.124
		c-1.385,0.718-3.75,0.568-4.812-0.632c-0.715-0.806-0.708-1.899-0.305-2.855c-0.086-0.043-0.172-0.088-0.256-0.137
		c-0.391,0.693-0.614,1.478-0.578,2.235C11.427,11.09,11.651,11.725,12.123,12.257z"/>
	<path fill="#D85903" d="M18.419,6.749c-0.109,0.162-0.229,0.318-0.362,0.464c0.189,0.201,0.352,0.42,0.489,0.653
		c0.184-0.162,0.382-0.312,0.596-0.447C18.927,7.172,18.683,6.948,18.419,6.749z"/>
	<path fill="#FF6800" d="M12.23,8.336c-0.403,0.956-0.41,2.049,0.305,2.855c1.062,1.2,3.426,1.35,4.812,0.632
		c0.072-0.038,0.123-0.084,0.19-0.124c-0.515-1.634-0.011-2.934,1.008-3.833c-0.137-0.233-0.3-0.452-0.489-0.653
		C16.712,8.683,14.195,9.321,12.23,8.336z"/>
	<path fill="#D85903" d="M27.083,8.163c-0.004,0.011-0.008,0.023-0.012,0.034c0.034,0.042,0.064,0.086,0.096,0.128
		c0.011-0.053,0.018-0.107,0.031-0.16C27.16,8.167,27.122,8.162,27.083,8.163z"/>
	<path fill="#D85903" d="M34.718,11.37c-0.956,1.84-3.324,1.765-5.005,1.172c-0.729-0.257-1.29-0.634-1.71-1.081
		c-0.026,0.224-0.075,0.437-0.137,0.644c0.483,0.537,1.137,0.989,2,1.293c0.517,0.182,1.09,0.315,1.674,0.38
		c0.986,0.11,1.996,0.002,2.812-0.464c0,0,0,0,0,0c0.487-0.279,0.91-0.676,1.207-1.248c0.196-0.379,0.314-0.786,0.39-1.202
		c-0.322-0.128-0.626-0.278-0.908-0.455C34.973,10.741,34.875,11.066,34.718,11.37z"/>
	<path fill="#D85903" d="M33.523,5.785c0.085-0.139,0.18-0.274,0.284-0.405c-0.44-0.35-0.924-0.619-1.442-0.763
		c-0.046,0.108-0.083,0.218-0.137,0.323C32.699,5.126,33.139,5.412,33.523,5.785z"/>
	<path fill="#FF6800" d="M32.228,4.939c-0.312,0.606-0.759,1.152-1.281,1.623c0.909,0.372,1.509,1.729,1.021,2.669
		c-0.397,0.766-1.383,0.734-2.082,0.486c-0.947-0.334-1.242-1.138-1.022-1.887c-0.547,0.201-1.109,0.316-1.664,0.333
		c-0.013,0.053-0.02,0.107-0.031,0.16c0.235,0.312,0.431,0.66,0.569,1.055c0.264,0.756,0.339,1.452,0.267,2.081
		c0.42,0.447,0.981,0.824,1.71,1.081c1.681,0.593,4.049,0.668,5.005-1.172c0.157-0.304,0.255-0.629,0.322-0.961
		c-0.303-0.19-0.588-0.397-0.824-0.639c-1.371-1.402-1.395-2.832-0.693-3.984C33.139,5.412,32.699,5.126,32.228,4.939z"/>
	<path fill="#FFCDAB" d="M29.885,9.718c0.699,0.248,1.685,0.279,2.082-0.486c0.488-0.94-0.111-2.297-1.021-2.669
		c-0.61,0.55-1.327,0.99-2.084,1.269C28.643,8.58,28.938,9.384,29.885,9.718z"/>
	<path fill="#D85903" d="M27.866,12.104c0.062-0.207,0.111-0.42,0.137-0.644c0.072-0.629-0.002-1.325-0.267-2.081
		c-0.138-0.395-0.334-0.743-0.569-1.055c-0.032-0.042-0.062-0.087-0.096-0.128c-0.009-0.011-0.017-0.024-0.026-0.035
		c-0.196,0-0.39-0.01-0.581-0.038c0.254,0.303,0.458,0.653,0.599,1.055c1.858,5.324-7.013,7.232-8.801,2.146
		c-0.452-1.286-0.177-2.34,0.5-3.122c0.112-0.165,0.26-0.307,0.435-0.426c1.229-1.009,3.223-1.387,4.924-0.997
		c-0.056-0.072-0.101-0.164-0.153-0.242c-0.359-0.061-0.727-0.094-1.096-0.1c-0.953-0.013-1.912,0.157-2.762,0.492
		c-0.344,0.136-0.67,0.298-0.969,0.488c-0.214,0.135-0.412,0.285-0.596,0.447c-1.019,0.899-1.523,2.199-1.008,3.833
		c0.017,0.053,0.027,0.104,0.046,0.158c0.152,0.432,0.353,0.815,0.585,1.162c0.46,0.685,1.057,1.21,1.735,1.578c0,0,0,0,0.001,0
		c1.966,1.066,4.582,0.853,6.308-0.323C26.996,13.741,27.595,13.008,27.866,12.104z"/>
	<path fill="#FF6800" d="M24.12,6.781c-1.701-0.391-3.695-0.013-4.924,0.997c1.043-0.708,2.988-0.573,3.445,0.736
		c0.848,2.428-3.198,3.299-4.014,0.979c-0.182-0.518-0.099-0.949,0.133-1.289c-0.677,0.782-0.952,1.836-0.5,3.122
		c1.788,5.086,10.659,3.178,8.801-2.146c-0.14-0.401-0.345-0.751-0.599-1.055C25.574,7.997,24.748,7.583,24.12,6.781z"/>
	<path fill="#FFCDAB" d="M18.628,9.492c0.815,2.32,4.862,1.449,4.014-0.979c-0.458-1.309-2.402-1.444-3.445-0.736
		c-0.175,0.119-0.323,0.261-0.435,0.426C18.529,8.543,18.446,8.975,18.628,9.492z"/>
	<path fill="#D85903" d="M11.603,2.321c0.605-0.449,1.338-0.761,2.087-0.891c-0.039-0.05-0.078-0.101-0.116-0.154
		c-0.227,0.069-0.449,0.153-0.666,0.25C12.436,1.734,11.994,2.004,11.603,2.321z"/>
	<path fill="#D85903" d="M11.41,2.482c0.033-0.027,0.063-0.058,0.097-0.084C11.474,2.426,11.442,2.454,11.41,2.482z"/>
	<path fill="#D85903" d="M18.056,7.213c0.134-0.146,0.253-0.302,0.362-0.464c0.133-0.198,0.246-0.407,0.335-0.626
		c0.395-0.96,0.348-2.105-0.411-3.317C18.323,2.774,18.3,2.75,18.28,2.719c-0.345,0.115-0.697,0.197-1.055,0.231
		c2.249,3.798-3.63,6.793-6.331,3.781c-0.825-0.92-0.923-1.888-0.599-2.749c-0.115,0.267-0.194,0.542-0.231,0.826
		C9.996,5.309,10.06,5.83,10.289,6.35c0.149,0.339,0.366,0.679,0.665,1.012c0.047,0.053,0.098,0.099,0.146,0.148
		c0.27,0.274,0.562,0.505,0.873,0.688c0.083,0.049,0.169,0.094,0.256,0.137C14.195,9.321,16.712,8.683,18.056,7.213z"/>
	<path fill="#FF6800" d="M13.69,1.43c-0.749,0.13-1.481,0.442-2.087,0.891c-0.033,0.024-0.063,0.052-0.096,0.078
		c-0.034,0.026-0.063,0.057-0.097,0.084c-0.51,0.423-0.903,0.936-1.116,1.5c-0.324,0.861-0.226,1.829,0.599,2.749
		c2.701,3.012,8.58,0.017,6.331-3.781C15.932,3.071,14.623,2.621,13.69,1.43z M14.347,2.588c0.108,0.091,0.208,0.202,0.292,0.338
		c1.033,1.648-1.526,2.966-2.695,1.663C10.721,3.226,13.148,1.593,14.347,2.588z"/>
	<path fill="#FFCDAB" d="M11.945,4.589c1.168,1.304,3.728-0.015,2.695-1.663c-0.085-0.137-0.184-0.247-0.292-0.338
		C13.148,1.593,10.721,3.226,11.945,4.589z"/>
	<path fill="#D85903" d="M13.69,1.43c0.933,1.191,2.242,1.642,3.535,1.521c0.358-0.034,0.71-0.116,1.055-0.231
		c0.32-0.107,0.63-0.245,0.925-0.416c0.213-0.123,0.416-0.261,0.609-0.414c0.687-0.545,1.227-1.268,1.508-2.12
		c0.006-0.018,0.009-0.037,0.015-0.055c0.009-0.028,0.015-0.057,0.023-0.085c0.101-0.347,0.163-0.71,0.17-1.092
		c0.006-0.326-0.013-0.659-0.085-1.006c-0.119-0.566-0.338-1.02-0.625-1.385C20.72-3.98,20.612-4.096,20.496-4.2
		c-0.57-0.514-1.321-0.762-2.134-0.793c-0.337-0.013-0.684,0.011-1.032,0.068c-0.06,0.01-0.121,0.019-0.181,0.031
		c1.39-0.193,2.721,0.353,3.079,2.059c0.818,3.905-4.164,6.551-6.303,3.081c-1.131-1.834-0.077-3.594,1.479-4.515
		c-1.42,0.753-2.528,2.02-2.552,3.479c-0.002,0.156,0.005,0.313,0.028,0.474c0.063,0.435,0.223,0.882,0.502,1.335
		c0.059,0.095,0.13,0.168,0.193,0.256C13.612,1.329,13.651,1.38,13.69,1.43z"/>
	<path fill="#FF6800" d="M13.924,0.246c2.14,3.47,7.122,0.824,6.303-3.081c-0.358-1.706-1.689-2.252-3.079-2.059
		c-0.596,0.083-1.201,0.303-1.746,0.625C13.847-3.348,12.793-1.588,13.924,0.246z M17.373-4.286
		c0.109,0.091,0.208,0.202,0.292,0.338c1.033,1.648-1.526,2.966-2.694,1.663C13.747-3.649,16.173-5.281,17.373-4.286z"/>
	<path fill="#FFCDAB" d="M14.971-2.286c1.168,1.304,3.728-0.014,2.694-1.663c-0.084-0.136-0.183-0.247-0.292-0.338
		C16.173-5.281,13.747-3.649,14.971-2.286z"/>
	<path fill="#D85903" d="M32.063,0.658c-0.217-0.283-0.473-0.527-0.769-0.724c-0.354-0.237-0.758-0.41-1.19-0.527
		c-0.072-0.02-0.146-0.037-0.22-0.053c-0.112-0.024-0.224-0.048-0.339-0.064c-0.49-0.073-1.004-0.074-1.521-0.013
		c-0.633,0.075-1.263,0.249-1.853,0.518c2.446-0.89,5.524,0.07,5.056,3.279c-0.475,3.27-5.707,5.641-7.517,2.105
		c-0.362-0.708-0.416-1.517-0.26-2.29c-0.281,0.949-0.268,1.97,0.105,2.883c0.04,0.098,0.064,0.201,0.113,0.296
		c0.089,0.175,0.196,0.319,0.298,0.47c0.053,0.078,0.098,0.17,0.153,0.242c0.627,0.802,1.454,1.216,2.344,1.343
		c0.191,0.027,0.385,0.037,0.581,0.038c0.013,0,0.025,0.001,0.038,0.001c0.039,0,0.077,0.004,0.116,0.002
		c0.554-0.018,1.117-0.132,1.664-0.333c0.757-0.279,1.474-0.719,2.084-1.269c0.522-0.471,0.97-1.017,1.281-1.623
		c0.054-0.104,0.091-0.215,0.137-0.323c0.095-0.222,0.17-0.449,0.228-0.682c0.032-0.13,0.073-0.258,0.093-0.391
		C32.865,2.306,32.596,1.355,32.063,0.658z"/>
	<path fill="#FF6800" d="M23.874,1.717c-0.198,0.367-0.34,0.762-0.423,1.172c-0.156,0.773-0.102,1.582,0.26,2.29
		c1.811,3.535,7.042,1.165,7.517-2.105c0.468-3.209-2.61-4.169-5.056-3.279c-0.424,0.154-0.832,0.357-1.196,0.621
		c-0.207,0.15-0.392,0.332-0.565,0.526c-0.011,0.012-0.02,0.025-0.03,0.037C24.186,1.202,24.017,1.451,23.874,1.717z M25.197,2.624
		c-0.27-0.529-0.041-1.236,0.417-1.568c0.812-0.588,2.239-0.365,2.061,0.875C27.515,3.008,25.792,3.789,25.197,2.624z"/>
	<path fill="#FFCDAB" d="M25.613,1.056c-0.457,0.332-0.687,1.039-0.417,1.568c0.595,1.165,2.318,0.384,2.477-0.692
		C27.852,0.691,26.426,0.468,25.613,1.056z"/>
	<path fill="#D85903" d="M43.406-1.216c-0.58-0.396-1.356-0.588-2.134-0.577c0.539,0.047,1.059,0.206,1.464,0.483
		c1.241,0.848,1.934,2.775,1.563,4.277c-0.24,0.976-1.392,1.674-2.599,1.843c0.029,0.032,0.06,0.06,0.088,0.093
		c0.257,0.304,0.427,0.652,0.56,1.014c0.754-0.13,1.478-0.435,2.019-0.87c0.432-0.347,0.747-0.776,0.867-1.264
		C45.668,2.027,44.858-0.226,43.406-1.216z"/>
	<path fill="#D85903" d="M38.623,3.378c-0.461-0.812-0.646-1.832-0.494-2.769c-0.232,0.886-0.205,1.87,0.077,2.76
		C38.346,3.367,38.485,3.369,38.623,3.378z"/>
	<path fill="#FF6800" d="M38.584-0.652c-0.232,0.376-0.382,0.809-0.455,1.262c-0.151,0.937,0.033,1.957,0.494,2.769
		c1.145,0.07,2.25,0.51,3.078,1.433c1.207-0.169,2.358-0.868,2.599-1.843c0.37-1.502-0.322-3.429-1.563-4.277
		c-0.405-0.277-0.925-0.436-1.464-0.483c-0.828-0.072-1.702,0.134-2.3,0.678C38.825-0.98,38.693-0.828,38.584-0.652z M42.05-0.52
		c-0.157,1.077-1.881,1.857-2.477,0.693c-0.271-0.529-0.042-1.237,0.417-1.568C40.802-1.983,42.229-1.76,42.05-0.52z"/>
	<path fill="#FFCDAB" d="M39.99-1.395c-0.459,0.332-0.688,1.039-0.417,1.568c0.596,1.165,2.319,0.384,2.477-0.693
		C42.229-1.76,40.802-1.983,39.99-1.395z"/>
	<path fill="#D85903" d="M38.623,3.378c-0.139-0.009-0.277-0.011-0.417-0.009c-1.717,0.023-3.448,0.828-4.399,2.011
		c-0.104,0.131-0.199,0.266-0.284,0.405c-0.701,1.152-0.678,2.582,0.693,3.984c0.236,0.242,0.521,0.449,0.824,0.639
		c0.282,0.177,0.586,0.327,0.908,0.455c1.476,0.587,3.271,0.651,4.572-0.018c1.717-0.882,2.481-3.154,1.828-4.929
		c-0.133-0.362-0.303-0.71-0.56-1.014c-0.028-0.033-0.059-0.061-0.088-0.093C40.873,3.888,39.768,3.448,38.623,3.378z
		 M39.579,10.046c-1.612,0.828-4.128,0.362-5.378-0.918c-3.58-3.665,3.579-7.556,6.458-4.15
		C41.953,6.509,41.341,9.141,39.579,10.046z"/>
	<path fill="#FF6800" d="M40.659,4.978c-2.879-3.406-10.038,0.486-6.458,4.15c1.25,1.28,3.766,1.747,5.378,0.918
		C41.341,9.141,41.953,6.509,40.659,4.978z M35.252,7.012c-0.27-0.53-0.04-1.236,0.418-1.569c0.812-0.588,2.238-0.365,2.059,0.876
		C37.573,7.396,35.849,8.176,35.252,7.012z"/>
	<path fill="#FFCDAB" d="M35.67,5.443c-0.458,0.333-0.688,1.039-0.418,1.569c0.597,1.164,2.32,0.384,2.477-0.693
		C37.908,5.078,36.483,4.855,35.67,5.443z"/>
</g>
</svg>
