<?xml version="1.0" encoding="utf-8"?>
<!-- Generator: Adobe Illustrator 16.0.0, SVG Export Plug-In . SVG Version: 6.00 Build 0)  -->
<!DOCTYPE svg PUBLIC "-//W3C//DTD SVG 1.1//EN" "http://www.w3.org/Graphics/SVG/1.1/DTD/svg11.dtd">
<svg version="1.1" id="Layer_1" xmlns="http://www.w3.org/2000/svg" xmlns:xlink="http://www.w3.org/1999/xlink" x="0px" y="0px"
	 width="57.339px" height="47.723px" viewBox="0 -6.061 57.339 47.723" enable-background="new 0 -6.061 57.339 47.723"
	 xml:space="preserve">
<g>
	<g>
		<path fill="#2B388F" d="M28.861-6.061c16.226-0.019,31.581,28.232,27.938,37.434c-5.15,13.013-48.719,14.389-55.946,0.052
			C-3.596,22.602,12.846-6.041,28.861-6.061z"/>
		<path fill="#2B3990" d="M28.859-6.009c16.198-0.02,31.525,28.182,27.888,37.368C51.604,44.35,8.11,45.727,0.895,31.414
			C-3.545,22.606,12.872-5.989,28.859-6.009z"/>
		<path fill="#2A3A90" d="M28.857-5.958c16.171-0.021,31.471,28.133,27.839,37.303C51.561,44.314,8.14,45.69,0.939,31.403
			C-3.493,22.61,12.897-5.937,28.857-5.958z"/>
		<path fill="#2A3B91" d="M28.856-5.907C44.998-5.929,60.27,22.175,56.644,31.33C51.517,44.278,8.17,45.655,0.982,31.393
			C-3.442,22.615,12.923-5.885,28.856-5.907z"/>
		<path fill="#2A3C92" d="M28.854-5.856c16.115-0.023,31.359,28.033,27.738,37.172C51.473,44.242,8.2,45.619,1.026,31.382
			C-3.39,22.62,12.948-5.833,28.854-5.856z"/>
		<path fill="#2A3D93" d="M28.852-5.805C44.94-5.828,60.156,22.178,56.541,31.303C51.43,44.206,8.231,45.584,1.069,31.371
			C-3.339,22.624,12.974-5.781,28.852-5.805z"/>
		<path fill="#293E93" d="M28.85-5.754C44.91-5.779,60.099,22.179,56.489,31.288C51.386,44.17,8.26,45.549,1.112,31.36
			C-3.287,22.629,12.999-5.729,28.85-5.754z"/>
		<path fill="#293F94" d="M28.849-5.702c16.032-0.026,31.193,27.883,27.589,36.977C51.342,44.135,8.291,45.514,1.156,31.35
			C-3.236,22.633,13.024-5.676,28.849-5.702z"/>
		<path fill="#294095" d="M28.847-5.651c16.005-0.027,31.138,27.833,27.54,36.911C51.299,44.099,8.322,45.479,1.199,31.339
			C-3.184,22.638,13.05-5.624,28.847-5.651z"/>
		<path fill="#294195" d="M28.845-5.6c15.978-0.028,31.082,27.783,27.489,36.845C51.255,44.062,8.351,45.442,1.242,31.328
			C-3.133,22.642,13.075-5.572,28.845-5.6z"/>
		<path fill="#284296" d="M28.843-5.549c15.95-0.029,31.027,27.732,27.44,36.78C51.212,44.026,8.382,45.406,1.286,31.317
			C-3.082,22.646,13.101-5.52,28.843-5.549z"/>
		<path fill="#284397" d="M28.841-5.498c15.924-0.029,30.973,27.684,27.391,36.716c-5.063,12.773-47.819,14.153-54.902,0.09
			C-3.03,22.651,13.126-5.468,28.841-5.498z"/>
		<path fill="#284498" d="M28.839-5.447c15.896-0.03,30.917,27.634,27.341,36.65C51.124,43.954,8.442,45.336,1.373,31.296
			C-2.978,22.655,13.151-5.416,28.839-5.447z"/>
		<path fill="#284598" d="M28.837-5.396c15.868-0.032,30.861,27.583,27.291,36.585C51.08,43.919,8.472,45.3,1.416,31.285
			C-2.927,22.66,13.177-5.364,28.837-5.396z"/>
		<path fill="#274699" d="M28.836-5.345c15.84-0.032,30.806,27.533,27.241,36.52c-5.04,12.708-47.575,14.09-54.618,0.101
			C-2.875,22.664,13.202-5.312,28.836-5.345z"/>
		<path fill="#27479A" d="M28.834-5.293C44.648-5.327,59.585,22.19,56.026,31.161C50.993,43.848,8.533,45.229,1.503,31.264
			C-2.823,22.669,13.228-5.26,28.834-5.293z"/>
		<path fill="#27489B" d="M28.832-5.242c15.786-0.034,30.695,27.434,27.142,36.39C50.95,43.812,8.564,45.193,1.546,31.254
			C-2.772,22.674,13.253-5.207,28.832-5.242z"/>
		<path fill="#27499B" d="M28.83-5.191c15.758-0.035,30.641,27.384,27.092,36.324C50.906,43.775,8.594,45.158,1.59,31.242
			C-2.72,22.678,13.279-5.155,28.83-5.191z"/>
		<path fill="#264A9C" d="M28.828-5.141c15.73-0.036,30.585,27.334,27.042,36.259C50.863,43.739,8.623,45.122,1.633,31.232
			C-2.67,22.683,13.304-5.104,28.828-5.141z"/>
		<path fill="#264B9D" d="M28.826-5.089c15.704-0.038,30.53,27.284,26.993,36.193c-5,12.599-47.165,13.983-54.143,0.116
			C-2.617,22.687,13.329-5.051,28.826-5.089z"/>
		<path fill="#264C9D" d="M28.825-5.038C44.501-5.076,59.299,22.196,55.768,31.09C50.776,43.668,8.685,45.052,1.72,31.211
			C-2.566,22.691,13.355-4.999,28.825-5.038z"/>
		<path fill="#254D9E" d="M28.823-4.986c15.648-0.04,30.419,27.184,26.894,36.062C50.733,43.632,8.715,45.016,1.764,31.2
			C-2.514,22.696,13.38-4.947,28.823-4.986z"/>
		<path fill="#254E9F" d="M28.822-4.936c15.62-0.041,30.363,27.134,26.844,35.998C50.689,43.596,8.744,44.98,1.807,31.188
			C-2.464,22.7,13.405-4.895,28.822-4.936z"/>
		<path fill="#254FA0" d="M28.82-4.884C44.413-4.926,59.128,22.2,55.614,31.048C50.645,43.56,8.776,44.945,1.851,31.179
			C-2.411,22.705,13.431-4.843,28.82-4.884z"/>
		<path fill="#2550A0" d="M28.819-4.833c15.565-0.042,30.252,27.034,26.744,35.867C50.602,43.524,8.806,44.91,1.894,31.168
			C-2.36,22.71,13.457-4.791,28.819-4.833z"/>
		<path fill="#2451A1" d="M28.817-4.782C44.355-4.826,59.014,22.202,55.51,31.02C50.558,43.488,8.836,44.874,1.938,31.157
			C-2.308,22.714,13.482-4.739,28.817-4.782z"/>
		<path fill="#2452A2" d="M28.815-4.731c15.51-0.044,30.142,26.934,26.645,35.736C50.514,43.451,8.865,44.838,1.98,31.146
			C-2.258,22.719,13.507-4.687,28.815-4.731z"/>
		<path fill="#2453A2" d="M28.813-4.68C44.296-4.725,58.9,22.205,55.407,30.991C50.471,43.416,8.897,44.803,2.024,31.136
			C-2.205,22.723,13.532-4.635,28.813-4.68z"/>
		<path fill="#2454A3" d="M28.812-4.628c15.455-0.047,30.03,26.834,26.544,35.605c-4.928,12.403-46.429,13.79-53.288,0.147
			C-2.154,22.728,13.559-4.582,28.812-4.628z"/>
		<path fill="#2355A4" d="M28.81-4.577c15.428-0.048,29.976,26.784,26.495,35.54C50.383,43.345,8.957,44.731,2.111,31.114
			C-2.102,22.732,13.583-4.53,28.81-4.577z"/>
		<path fill="#2356A5" d="M28.807-4.526c15.401-0.049,29.921,26.734,26.445,35.476C50.34,43.309,8.987,44.696,2.154,31.104
			C-2.052,22.736,13.609-4.479,28.807-4.526z"/>
		<path fill="#2357A5" d="M28.806-4.476c15.373-0.049,29.865,26.686,26.396,35.41C50.296,43.272,9.017,44.661,2.198,31.093
			C-2,22.741,13.634-4.426,28.806-4.476z"/>
		<path fill="#2358A6" d="M28.804-4.424C44.15-4.475,58.614,22.211,55.15,30.92C50.252,43.236,9.048,44.625,2.241,31.082
			C-1.948,22.746,13.659-4.374,28.804-4.424z"/>
		<path fill="#2259A7" d="M28.803-4.373C44.12-4.424,58.557,22.212,55.098,30.906C50.209,43.201,9.078,44.59,2.285,31.071
			C-1.896,22.75,13.685-4.322,28.803-4.373z"/>
		<path fill="#225AA8" d="M28.801-4.321c15.29-0.053,29.698,26.534,26.246,35.214C50.165,43.165,9.109,44.555,2.328,31.061
			C-1.844,22.755,13.71-4.27,28.801-4.321z"/>
		<path fill="#225BA8" d="M28.799-4.271c15.263-0.054,29.644,26.485,26.196,35.148C50.121,43.129,9.138,44.52,2.371,31.05
			C-1.794,22.76,13.736-4.218,28.799-4.271z"/>
		<path fill="#225CA9" d="M28.797-4.22c15.235-0.055,29.588,26.436,26.146,35.084C50.078,43.094,9.169,44.483,2.415,31.039
			C-1.742,22.764,13.761-4.166,28.797-4.22z"/>
		<path fill="#215DAA" d="M28.795-4.168C44.003-4.224,58.328,22.217,54.893,30.85c-4.857,12.208-45.694,13.598-52.435,0.18
			C-1.69,22.769,13.787-4.113,28.795-4.168z"/>
		<path fill="#215EAA" d="M28.793-4.117c15.182-0.057,29.478,26.336,26.048,34.953c-4.85,12.186-45.612,13.576-52.339,0.182
			C-1.638,22.772,13.812-4.062,28.793-4.117z"/>
		<path fill="#215FAB" d="M28.791-4.066c15.153-0.058,29.423,26.285,25.998,34.888c-4.842,12.163-45.53,13.555-52.244,0.185
			C-1.588,22.777,13.837-4.01,28.791-4.066z"/>
		<path fill="#2160AC" d="M28.79-4.015c15.125-0.058,29.366,26.236,25.948,34.823C49.904,42.949,9.29,44.342,2.589,30.996
			C-1.536,22.781,13.863-3.957,28.79-4.015z"/>
		<path fill="#2061AD" d="M28.788-3.964C43.886-4.023,58.1,22.222,54.687,30.793C49.86,42.913,9.32,44.306,2.632,30.985
			C-1.484,22.786,13.888-3.905,28.788-3.964z"/>
		<path fill="#2062AD" d="M28.786-3.913c15.071-0.061,29.256,26.135,25.849,34.692C49.817,42.878,9.35,44.271,2.676,30.975
			C-1.432,22.79,13.914-3.853,28.786-3.913z"/>
		<path fill="#2063AE" d="M28.785-3.861c15.043-0.062,29.2,26.086,25.798,34.627C49.774,42.842,9.38,44.234,2.719,30.964
			C-1.382,22.795,13.94-3.801,28.785-3.861z"/>
		<path fill="#1F64AF" d="M28.783-3.81c15.015-0.063,29.145,26.036,25.748,34.561C49.73,42.806,9.411,44.199,2.762,30.953
			C-1.329,22.8,13.964-3.749,28.783-3.81z"/>
		<path fill="#1F65AF" d="M28.781-3.759c14.988-0.063,29.09,25.986,25.699,34.497C49.686,42.77,9.441,44.164,2.806,30.943
			C-1.278,22.804,13.99-3.696,28.781-3.759z"/>
		<path fill="#1F66B0" d="M28.78-3.708C43.74-3.772,57.814,22.228,54.429,30.723c-4.786,12.011-44.958,13.405-51.58,0.209
			C-1.227,22.809,14.015-3.645,28.78-3.708z"/>
		<path fill="#1F67B1" d="M28.778-3.657c14.934-0.066,28.979,25.885,25.6,34.366C49.599,42.697,9.501,44.093,2.893,30.922
			C-1.176,22.812,14.041-3.593,28.778-3.657z"/>
		<path fill="#1E68B2" d="M28.776-3.605c14.905-0.067,28.924,25.836,25.551,34.3C49.555,42.662,9.532,44.057,2.936,30.911
			C-1.123,22.817,14.067-3.541,28.776-3.605z"/>
		<path fill="#1E69B2" d="M28.775-3.555c14.878-0.067,28.868,25.786,25.5,34.234C49.512,42.626,9.562,44.021,2.979,30.9
			C-1.072,22.822,14.092-3.488,28.775-3.555z"/>
		<path fill="#1E6AB3" d="M28.773-3.504c14.851-0.068,28.813,25.736,25.45,34.17c-4.755,11.924-44.631,13.32-51.2,0.224
			C-1.021,22.826,14.117-3.436,28.773-3.504z"/>
		<path fill="#1E6BB4" d="M28.771-3.452c14.823-0.07,28.758,25.687,25.401,34.104c-4.748,11.902-44.55,13.299-51.106,0.227
			C-0.969,22.831,14.142-3.384,28.771-3.452z"/>
		<path fill="#1D6CB5" d="M28.769-3.401c14.796-0.07,28.702,25.637,25.351,34.039c-4.738,11.881-44.466,13.277-51.01,0.23
			C-0.917,22.836,14.168-3.333,28.769-3.401z"/>
		<path fill="#1D6DB5" d="M28.767-3.35c14.769-0.072,28.647,25.586,25.302,33.974C49.337,42.482,9.683,43.88,3.153,30.857
			C-0.866,22.84,14.194-3.28,28.767-3.35z"/>
		<path fill="#1D6EB6" d="M28.766-3.299c14.74-0.072,28.592,25.537,25.251,33.909c-4.724,11.838-44.304,13.235-50.82,0.237
			C-0.815,22.845,14.219-3.228,28.766-3.299z"/>
		<path fill="#1D6FB7" d="M28.764-3.248C43.477-3.321,57.3,22.239,53.965,30.596C49.25,42.411,9.743,43.809,3.24,30.836
			C-0.763,22.85,14.244-3.176,28.764-3.248z"/>
		<path fill="#1C70B7" d="M28.762-3.197c14.686-0.075,28.48,25.437,25.152,33.779C49.206,42.375,9.774,43.773,3.283,30.825
			C-0.711,22.854,14.27-3.124,28.762-3.197z"/>
		<path fill="#1C71B8" d="M28.76-3.146c14.658-0.075,28.426,25.387,25.103,33.713c-4.7,11.771-44.059,13.17-50.536,0.247
			C-0.66,22.858,14.295-3.072,28.76-3.146z"/>
		<path fill="#1C72B9" d="M28.758-3.094c14.631-0.077,28.371,25.336,25.053,33.647C49.119,42.303,9.834,43.702,3.37,30.804
			C-0.609,22.862,14.32-3.02,28.758-3.094z"/>
		<path fill="#1C73BA" d="M28.756-3.043C43.36-3.121,57.072,22.243,53.759,30.539C49.076,42.268,9.865,43.667,3.413,30.793
			C-0.557,22.867,14.346-2.968,28.756-3.043z"/>
		<path fill="#1B74BA" d="M28.755-2.992C43.33-3.071,57.014,22.245,53.708,30.524C49.032,42.231,9.895,43.631,3.457,30.782
			C-0.505,22.871,14.371-2.915,28.755-2.992z"/>
		<path fill="#1B75BB" d="M28.753-2.941c14.548-0.08,28.204,25.187,24.903,33.452C48.989,42.195,9.925,43.596,3.5,30.771
			C-0.454,22.876,14.397-2.863,28.753-2.941z"/>
	</g>
	<g>
		<g>
			<path fill="#FFFFFF" d="M28.208-1.999C35.164-2.007,41.932,4.102,46.572,11.2c4.64,7.097,7.149,15.183,5.589,19.127
				c-2.209,5.578-12.65,8.662-23.315,8.814c-10.665,0.153-21.552-2.625-24.65-8.771C2.288,26.588,4.859,18.5,9.623,11.355
				C14.387,4.21,21.344-1.991,28.208-1.999z"/>
			<path fill="#FFFFFF" d="M9.894,11.14C10.78,9.83,11.74,8.552,12.76,7.342c4.461-5.294,10.073-9.311,15.62-9.277
				c6.894,0.031,13.597,6.095,18.198,13.134c4.64,7.098,7.149,15.184,5.589,19.128c-2.192,5.537-12.524,8.608-23.095,8.782
				c-4.53,0.077-9.105-0.378-13.104-1.398c-5.328-1.366-9.626-3.737-11.417-7.197c-0.169-0.418-0.286-0.894-0.348-1.417
				C4.147,28.62,4.13,28.102,4.157,27.55c0.042-0.85,0.177-1.786,0.361-2.788c0.334-1.835,0.9-3.928,1.694-6.073
				c0.492-1.329,1.085-2.677,1.745-4.017C8.548,13.472,9.192,12.283,9.894,11.14z"/>
			<path fill="#FEFFFF" d="M10.165,10.926c0.884-1.292,1.843-2.549,2.86-3.739c4.444-5.205,10.02-9.129,15.526-9.057
				c6.831,0.071,13.47,6.089,18.034,13.07c4.64,7.097,7.149,15.183,5.589,19.127c-2.177,5.496-12.398,8.556-22.874,8.752
				c-4.496,0.087-9.041-0.352-13.02-1.35c-5.287-1.338-9.563-3.669-11.374-7.072c-0.125-0.414-0.2-0.886-0.221-1.408
				c-0.019-0.476-0.001-0.995,0.063-1.55c0.099-0.862,0.287-1.815,0.486-2.845c0.354-1.865,0.865-4.05,1.586-6.271
				c0.444-1.365,0.994-2.741,1.591-4.103C8.949,13.26,9.529,12.06,10.165,10.926z"/>
			<path fill="#FEFFFF" d="M10.436,10.71c0.883-1.272,1.839-2.51,2.854-3.68c4.428-5.118,9.967-8.938,15.434-8.836
				c6.769,0.125,13.344,6.082,17.869,13.005c4.64,7.098,7.149,15.184,5.589,19.128c-2.161,5.455-12.272,8.501-22.653,8.72
				c-4.461,0.099-8.975-0.323-12.936-1.3c-5.246-1.31-9.5-3.6-11.33-6.947c-0.08-0.408-0.114-0.877-0.093-1.397
				c0.02-0.476,0.072-0.997,0.171-1.553c0.157-0.876,0.4-1.845,0.61-2.902c0.378-1.896,0.829-4.172,1.479-6.467
				c0.396-1.401,0.903-2.807,1.438-4.189C9.351,13.048,9.865,11.836,10.436,10.71z"/>
			<path fill="#FEFEFF" d="M10.707,10.496c0.883-1.253,1.836-2.47,2.848-3.62c4.412-5.029,9.914-8.753,15.341-8.617
				C35.602-1.572,42.113,4.335,46.6,11.2c4.64,7.097,7.15,15.183,5.589,19.127c-2.144,5.414-12.146,8.448-22.433,8.688
				c-4.426,0.11-8.909-0.295-12.851-1.249c-5.205-1.281-9.437-3.53-11.285-6.822c-0.036-0.403-0.027-0.87,0.035-1.388
				c0.058-0.476,0.145-1,0.279-1.557c0.215-0.889,0.51-1.874,0.734-2.959c0.398-1.928,0.796-4.292,1.372-6.664
				c0.349-1.436,0.812-2.872,1.286-4.274C9.754,12.836,10.201,11.612,10.707,10.496z"/>
			<path fill="#FDFEFF" d="M10.978,10.281C11.86,9.047,12.812,7.85,13.82,6.72c4.395-4.941,9.861-8.569,15.248-8.396
				c6.643,0.213,13.09,6.069,17.54,12.876c4.64,7.097,7.149,15.183,5.588,19.127c-2.127,5.374-12.019,8.395-22.211,8.657
				c-4.392,0.12-8.847-0.259-12.768-1.2c-5.166-1.241-9.374-3.461-11.241-6.698c0.01-0.398,0.059-0.861,0.163-1.377
				c0.096-0.476,0.218-1.002,0.388-1.561c0.274-0.901,0.621-1.903,0.859-3.016c0.418-1.957,0.761-4.411,1.264-6.861
				c0.302-1.47,0.719-2.938,1.132-4.36C10.156,12.624,10.538,11.389,10.978,10.281z"/>
			<path fill="#FDFEFF" d="M11.248,10.065c0.881-1.214,1.831-2.392,2.836-3.502c4.378-4.853,9.808-8.384,15.155-8.175
				C35.82-1.354,42.202,4.451,46.615,11.2c4.64,7.097,7.149,15.183,5.589,19.127c-2.112,5.332-11.894,8.342-21.991,8.625
				c-4.357,0.132-8.782-0.229-12.683-1.15c-5.126-1.21-9.311-3.392-11.197-6.573c0.054-0.393,0.146-0.854,0.291-1.367
				c0.135-0.476,0.292-1.004,0.497-1.563c0.334-0.916,0.732-1.934,0.983-3.072c0.438-1.988,0.727-4.53,1.156-7.058
				c0.255-1.504,0.628-3.003,0.98-4.447C10.558,12.412,10.874,11.165,11.248,10.065z"/>
			<path fill="#FDFEFE" d="M11.52,9.851c0.88-1.196,1.827-2.354,2.829-3.443c4.363-4.765,9.755-8.201,15.062-7.956
				c6.518,0.301,12.837,6.057,17.21,12.747c4.64,7.097,7.149,15.183,5.589,19.127c-2.096,5.292-11.767,8.288-21.771,8.593
				c-4.322,0.144-8.716-0.199-12.598-1.1c-5.085-1.18-9.248-3.322-11.153-6.448c0.099-0.388,0.232-0.847,0.418-1.357
				c0.174-0.476,0.368-1.006,0.605-1.567c0.394-0.931,0.843-1.962,1.107-3.129c0.458-2.02,0.696-4.649,1.05-7.255
				c0.209-1.538,0.536-3.069,0.827-4.532C10.961,12.199,11.21,10.942,11.52,9.851z"/>
			<path fill="#FCFEFE" d="M11.79,9.637c0.879-1.177,1.825-2.315,2.824-3.384c4.346-4.677,9.702-8.017,14.97-7.735
				c6.453,0.345,12.709,6.05,17.045,12.683c4.64,7.097,7.149,15.183,5.588,19.127c-2.078,5.251-11.641,8.235-21.549,8.562
				c-4.287,0.153-8.652-0.171-12.514-1.051c-5.045-1.149-9.186-3.253-11.11-6.324c0.144-0.382,0.32-0.839,0.547-1.347
				c0.213-0.477,0.442-1.008,0.714-1.57c0.456-0.944,0.954-1.991,1.232-3.187c0.478-2.05,0.664-4.768,0.942-7.452
				c0.163-1.572,0.444-3.136,0.674-4.619C11.363,11.986,11.547,10.719,11.79,9.637z"/>
			<path fill="#FCFEFE" d="M12.061,9.421c0.878-1.157,1.821-2.275,2.817-3.324c4.33-4.588,9.649-7.834,14.877-7.516
				C36.147-1.03,42.338,4.626,46.636,11.2c4.64,7.097,7.149,15.183,5.588,19.127c-2.062,5.21-11.515,8.181-21.328,8.53
				c-4.253,0.165-8.587-0.142-12.43-1.001c-5.004-1.119-9.122-3.184-11.065-6.199c0.188-0.377,0.407-0.831,0.675-1.337
				c0.252-0.476,0.519-1.01,0.823-1.573c0.518-0.958,1.063-2.021,1.355-3.243c0.498-2.081,0.632-4.886,0.835-7.648
				c0.118-1.606,0.352-3.203,0.521-4.705C11.763,11.772,11.883,10.494,12.061,9.421z"/>
			<path fill="#FCFEFE" d="M12.332,9.206c0.877-1.138,1.818-2.236,2.811-3.265c4.313-4.5,9.596-7.649,14.784-7.295
				C36.255-0.921,42.384,4.684,46.643,11.2c4.64,7.097,7.149,15.183,5.589,19.127c-2.047,5.169-11.389,8.128-21.108,8.498
				c-4.218,0.177-8.521-0.111-12.345-0.95c-4.964-1.089-9.059-3.114-11.021-6.074c0.233-0.372,0.495-0.824,0.802-1.327
				c0.292-0.477,0.594-1.012,0.931-1.577c0.58-0.973,1.175-2.051,1.481-3.3c0.518-2.112,0.601-5.003,0.727-7.846
				c0.073-1.639,0.259-3.269,0.368-4.791C12.165,11.559,12.219,10.271,12.332,9.206z"/>
			<path fill="#FBFDFE" d="M12.603,8.992c0.876-1.119,1.815-2.197,2.805-3.206C19.704,1.374,24.95-1.68,30.1-1.289
				C36.364-0.813,42.429,4.742,46.651,11.2c4.64,7.097,7.149,15.183,5.588,19.127c-2.03,5.128-11.262,8.074-20.887,8.468
				c-4.184,0.188-8.457-0.083-12.262-0.901c-4.923-1.059-8.996-3.046-10.978-5.95c0.278-0.367,0.583-0.816,0.931-1.316
				c0.332-0.477,0.67-1.015,1.039-1.581c0.643-0.985,1.286-2.079,1.605-3.356c0.537-2.143,0.57-5.121,0.619-8.042
				c0.028-1.673,0.167-3.336,0.215-4.876C12.567,11.346,12.556,10.047,12.603,8.992z"/>
			<path fill="#FBFDFE" d="M12.874,8.776c0.875-1.1,1.814-2.156,2.799-3.146c4.289-4.315,9.488-7.282,14.598-6.855
				C36.473-0.707,42.474,4.8,46.657,11.2c4.64,7.097,7.149,15.183,5.588,19.127c-2.015,5.087-11.137,7.999-20.666,8.435
				c-4.149,0.189-8.392-0.053-12.178-0.851c-4.881-1.029-8.933-2.976-10.934-5.824c0.323-0.362,0.671-0.811,1.059-1.308
				c0.372-0.478,0.747-1.016,1.148-1.584c0.707-0.999,1.395-2.109,1.729-3.413c0.556-2.173,0.541-5.238,0.513-8.24
				c-0.016-1.706,0.073-3.403,0.062-4.962C12.967,11.132,12.892,9.824,12.874,8.776z"/>
			<path fill="#FBFDFE" d="M13.144,8.562c0.875-1.08,1.812-2.117,2.793-3.087c4.273-4.227,9.436-7.099,14.505-6.634
				c6.139,0.562,12.076,6.019,16.222,12.36c4.64,7.097,7.149,15.183,5.589,19.127c-1.998,5.046-11.012,7.944-20.446,8.403
				c-4.114,0.2-8.327-0.023-12.093-0.801c-4.84-0.999-8.87-2.907-10.89-5.7c0.367-0.357,0.76-0.802,1.186-1.296
				c0.412-0.478,0.824-1.02,1.257-1.589c0.77-1.012,1.505-2.139,1.853-3.47c0.576-2.205,0.511-5.355,0.405-8.437
				c-0.06-1.739-0.02-3.47-0.091-5.048C13.368,10.918,13.228,9.6,13.144,8.562z"/>
			<path fill="#FAFDFE" d="M13.416,8.347c0.874-1.062,1.809-2.078,2.787-3.028c4.256-4.138,9.382-6.916,14.412-6.415
				C36.69-0.491,42.565,4.917,46.672,11.2c4.639,7.098,7.148,15.183,5.588,19.127c-1.982,5.005-10.885,7.891-20.225,8.372
				c-4.08,0.21-8.262,0.006-12.009-0.751c-4.8-0.969-8.807-2.838-10.846-5.576c0.412-0.352,0.848-0.794,1.314-1.286
				c0.452-0.478,0.9-1.02,1.366-1.591c0.835-1.024,1.615-2.168,1.978-3.528c0.595-2.234,0.482-5.473,0.297-8.632
				c-0.104-1.772-0.113-3.538-0.244-5.135C13.769,10.704,13.565,9.376,13.416,8.347z"/>
			<path fill="#FAFDFE" d="M13.687,8.132c0.873-1.042,1.806-2.039,2.78-2.969c4.242-4.048,9.328-6.732,14.32-6.194
				C36.799-0.383,42.61,4.975,46.679,11.2c4.64,7.097,7.149,15.183,5.589,19.127c-1.966,4.964-10.759,7.836-20.005,8.341
				c-4.045,0.221-8.196,0.035-11.924-0.701c-4.759-0.939-8.744-2.77-10.802-5.451c0.457-0.347,0.936-0.785,1.442-1.276
				c0.492-0.477,0.977-1.021,1.474-1.595c0.898-1.037,1.726-2.196,2.102-3.584c0.614-2.267,0.454-5.59,0.19-8.83
				c-0.147-1.805-0.207-3.604-0.397-5.22C14.169,10.491,13.902,9.153,13.687,8.132z"/>
			<path fill="#F9FDFE" d="M13.958,7.918c0.872-1.023,1.803-2,2.774-2.911c4.225-3.96,9.275-6.549,14.228-5.974
				c5.948,0.69,11.695,6,15.728,12.167c4.639,7.097,7.148,15.183,5.588,19.127c-1.949,4.923-10.633,7.782-19.784,8.31
				c-4.011,0.231-8.131,0.063-11.839-0.651c-4.718-0.909-8.681-2.7-10.757-5.326c0.501-0.342,1.023-0.778,1.569-1.267
				c0.532-0.477,1.053-1.022,1.582-1.599c0.964-1.05,1.837-2.227,2.227-3.641c0.633-2.297,0.426-5.708,0.083-9.026
				c-0.19-1.839-0.301-3.672-0.55-5.307C14.57,10.278,14.238,8.93,13.958,7.918z"/>
			<path fill="#F9FCFE" d="M14.228,7.702c0.871-1.004,1.8-1.96,2.768-2.851c4.209-3.873,9.222-6.366,14.135-5.754
				C37.016-0.169,42.699,5.091,46.694,11.2c4.639,7.097,7.148,15.183,5.588,19.127c-1.934,4.882-10.508,7.727-19.562,8.277
				c-3.977,0.242-8.067,0.093-11.756-0.602c-4.678-0.88-8.618-2.63-10.714-5.201c0.546-0.336,1.112-0.77,1.698-1.257
				c0.572-0.476,1.131-1.023,1.691-1.602c1.028-1.062,1.947-2.256,2.351-3.697c0.652-2.327,0.399-5.826-0.025-9.224
				c-0.233-1.872-0.395-3.74-0.703-5.393C14.969,10.063,14.574,8.706,14.228,7.702z"/>
			<path fill="#F9FCFE" d="M14.498,7.487c0.871-0.984,1.797-1.921,2.762-2.792c4.192-3.784,9.168-6.183,14.042-5.533
				C37.124-0.062,42.744,5.149,46.7,11.199c4.64,7.098,7.149,15.184,5.588,19.128c-1.917,4.841-10.382,7.671-19.343,8.245
				c-3.94,0.253-8,0.122-11.671-0.551c-4.636-0.851-8.555-2.562-10.67-5.078c0.591-0.33,1.201-0.761,1.826-1.246
				c0.612-0.476,1.208-1.023,1.799-1.604c1.093-1.074,2.057-2.285,2.475-3.755c0.672-2.358,0.371-5.941-0.133-9.42
				c-0.276-1.905-0.489-3.806-0.855-5.479C15.368,9.85,14.91,8.482,14.498,7.487z"/>
			<path fill="#F8FCFD" d="M14.77,7.273c0.869-0.966,1.794-1.882,2.756-2.733c4.176-3.695,9.115-6,13.949-5.313
				C37.233,0.044,42.79,5.208,46.707,11.2c4.64,7.097,7.149,15.183,5.588,19.127c-1.9,4.8-10.255,7.617-19.121,8.215
				c-3.906,0.263-7.936,0.149-11.587-0.502c-4.595-0.82-8.491-2.493-10.626-4.953c0.636-0.325,1.29-0.753,1.954-1.235
				c0.653-0.476,1.286-1.025,1.909-1.609c1.157-1.085,2.167-2.314,2.599-3.811c0.69-2.391,0.344-6.061-0.241-9.618
				c-0.318-1.938-0.583-3.873-1.008-5.563C15.769,9.636,15.246,8.259,14.77,7.273z"/>
			<path fill="#F8FCFD" d="M15.041,7.058c0.868-0.946,1.791-1.843,2.749-2.673c4.161-3.605,9.062-5.817,13.856-5.093
				c5.694,0.86,11.189,5.974,15.068,11.909c4.639,7.097,7.149,15.183,5.588,19.128c-1.885,4.759-10.129,7.562-18.9,8.182
				c-3.872,0.273-7.871,0.181-11.503-0.451c-4.554-0.792-8.429-2.424-10.582-4.828c0.681-0.32,1.378-0.744,2.082-1.226
				c0.693-0.474,1.363-1.026,2.017-1.612c1.223-1.096,2.276-2.345,2.723-3.868c0.709-2.421,0.319-6.179-0.347-9.814
				c-0.361-1.972-0.678-3.94-1.162-5.65C16.168,9.422,15.583,8.035,15.041,7.058z"/>
			<path fill="#F8FCFD" d="M15.312,6.843c0.868-0.927,1.788-1.804,2.743-2.614c4.144-3.517,9.007-5.635,13.764-4.873
				C37.449,0.257,42.88,5.324,46.722,11.2c4.64,7.097,7.149,15.183,5.588,19.127c-1.868,4.719-10.003,7.509-18.68,8.151
				c-3.837,0.284-7.806,0.207-11.419-0.402c-4.513-0.762-8.365-2.354-10.538-4.703c0.725-0.315,1.466-0.735,2.209-1.216
				c0.733-0.474,1.44-1.026,2.126-1.616c1.287-1.107,2.386-2.373,2.847-3.924c0.729-2.452,0.292-6.297-0.455-10.012
				c-0.403-2.005-0.773-4.006-1.314-5.736C16.567,9.208,15.92,7.812,15.312,6.843z"/>
			<path fill="#F7FCFD" d="M15.582,6.628c0.866-0.908,1.786-1.765,2.737-2.556C22.448,0.644,27.273-1.38,31.99-0.58
				c5.567,0.944,10.936,5.962,14.738,11.78c4.639,7.097,7.148,15.183,5.588,19.127c-1.852,4.677-9.877,7.455-18.459,8.12
				c-3.803,0.295-7.74,0.236-11.334-0.353c-4.472-0.733-8.302-2.285-10.494-4.579c0.77-0.31,1.555-0.727,2.337-1.205
				c0.774-0.473,1.518-1.027,2.234-1.619c1.354-1.119,2.497-2.403,2.972-3.982c0.747-2.482,0.267-6.414-0.562-10.208
				c-0.445-2.039-0.869-4.074-1.468-5.823C16.966,8.995,16.256,7.588,15.582,6.628z"/>
			<path fill="#F7FCFD" d="M15.853,6.414c0.866-0.889,1.782-1.726,2.731-2.497c4.112-3.339,8.9-5.27,13.578-4.432
				C37.666,0.47,42.971,5.44,46.737,11.2c4.639,7.097,7.148,15.183,5.588,19.127c-1.836,4.637-9.752,7.4-18.238,8.088
				c-3.769,0.306-7.675,0.266-11.25-0.302c-4.431-0.704-8.239-2.217-10.45-4.454c0.814-0.306,1.642-0.719,2.465-1.196
				c0.814-0.472,1.595-1.026,2.343-1.622c1.418-1.129,2.607-2.433,3.096-4.038c0.766-2.515,0.242-6.533-0.669-10.405
				c-0.488-2.073-0.963-4.141-1.62-5.908C17.365,8.782,16.592,7.364,15.853,6.414z"/>
			<path fill="#F7FBFD" d="M16.125,6.199c0.865-0.87,1.779-1.687,2.725-2.437c4.096-3.25,8.846-5.088,13.485-4.212
				c5.44,1.027,10.683,5.95,14.409,11.651c4.64,7.097,7.149,15.183,5.589,19.128c-1.82,4.595-9.626,7.344-18.019,8.056
				c-3.732,0.316-7.609,0.294-11.166-0.253c-4.389-0.674-8.176-2.146-10.405-4.328c0.859-0.301,1.73-0.71,2.593-1.186
				c0.854-0.471,1.672-1.028,2.451-1.627c1.482-1.14,2.717-2.461,3.221-4.095c0.785-2.546,0.215-6.651-0.777-10.602
				c-0.529-2.106-1.058-4.208-1.773-5.995C17.765,8.568,16.929,7.141,16.125,6.199z"/>
			<path fill="#F6FBFD" d="M16.395,5.983c0.864-0.851,1.777-1.647,2.719-2.378c4.079-3.163,8.793-4.906,13.393-3.992
				C37.883,0.682,43.061,5.557,46.75,11.2c4.64,7.098,7.149,15.183,5.588,19.127c-1.803,4.555-9.499,7.29-17.797,8.024
				c-3.699,0.327-7.543,0.322-11.082-0.202c-4.348-0.646-8.113-2.077-10.362-4.204c0.904-0.295,1.819-0.702,2.721-1.176
				c0.895-0.471,1.75-1.027,2.56-1.629c1.549-1.149,2.827-2.492,3.345-4.152c0.804-2.577,0.19-6.77-0.885-10.799
				c-0.571-2.141-1.154-4.274-1.927-6.08C18.162,8.355,17.265,6.917,16.395,5.983z"/>
			<path fill="#F6FBFD" d="M16.666,5.769c0.862-0.832,1.773-1.609,2.712-2.319c4.063-3.074,8.739-4.724,13.3-3.772
				C37.991,0.787,43.107,5.615,46.757,11.2c4.64,7.097,7.149,15.183,5.588,19.127c-1.787,4.514-9.373,7.237-17.575,7.993
				c-3.665,0.338-7.479,0.352-10.998-0.152c-4.307-0.616-8.05-2.009-10.318-4.08c0.949-0.29,1.907-0.692,2.849-1.166
				c0.934-0.469,1.826-1.027,2.668-1.633c1.613-1.16,2.937-2.52,3.47-4.209c0.823-2.607,0.166-6.887-0.992-10.995
				c-0.613-2.175-1.249-4.34-2.079-6.167C18.562,8.142,17.601,6.693,16.666,5.769z"/>
			<path fill="#F6FBFD" d="M16.937,5.554c0.862-0.812,1.771-1.569,2.707-2.26C23.69,0.31,28.328-1.248,32.85-0.257
				c5.249,1.15,10.302,5.93,13.915,11.457c4.64,7.097,7.149,15.183,5.588,19.127c-1.771,4.473-9.247,7.183-17.355,7.962
				c-3.63,0.349-7.414,0.378-10.913-0.104c-4.266-0.588-7.987-1.938-10.274-3.954c0.994-0.285,1.996-0.685,2.976-1.155
				c0.975-0.469,1.904-1.028,2.777-1.637c1.679-1.17,3.047-2.551,3.594-4.266c0.841-2.639,0.141-7.007-1.099-11.192
				c-0.654-2.209-1.344-4.407-2.232-6.253C18.96,7.93,17.938,6.47,16.937,5.554z"/>
			<path fill="#F5FBFD" d="M17.208,5.339c0.862-0.793,1.768-1.53,2.701-2.2c4.03-2.896,8.631-4.361,13.113-3.332
				c5.186,1.19,10.176,5.924,13.75,11.393c4.64,7.097,7.149,15.183,5.588,19.127c-1.755,4.433-9.121,7.129-17.135,7.931
				c-3.595,0.359-7.347,0.408-10.828-0.053c-4.225-0.559-7.924-1.871-10.23-3.831c1.038-0.279,2.084-0.675,3.104-1.145
				c1.015-0.468,1.982-1.029,2.886-1.641c1.744-1.18,3.157-2.58,3.718-4.322c0.859-2.67,0.117-7.126-1.207-11.39
				c-0.696-2.243-1.44-4.473-2.385-6.338C19.359,7.717,18.274,6.247,17.208,5.339z"/>
			<path fill="#F5FBFD" d="M17.479,5.124c0.86-0.773,1.765-1.491,2.694-2.141c4.014-2.808,8.578-4.179,13.021-3.111
				C38.316,1.103,43.242,5.79,46.78,11.2c4.639,7.097,7.148,15.183,5.588,19.127c-1.739,4.392-8.996,7.075-16.914,7.898
				c-3.561,0.37-7.282,0.436-10.745-0.003c-4.184-0.53-7.86-1.801-10.186-3.706c1.083-0.274,2.172-0.666,3.232-1.135
				c1.055-0.466,2.058-1.028,2.994-1.644c1.809-1.189,3.267-2.609,3.842-4.379c0.878-2.701,0.092-7.244-1.314-11.587
				c-0.737-2.276-1.535-4.539-2.538-6.424C19.757,7.503,18.611,6.023,17.479,5.124z"/>
			<path fill="#F5FBFD" d="M17.749,4.909c0.86-0.755,1.762-1.452,2.688-2.082c3.998-2.719,8.523-3.998,12.928-2.891
				c5.059,1.271,9.922,5.912,13.421,11.264c4.639,7.097,7.148,15.183,5.587,19.126c-1.722,4.351-8.869,7.021-16.693,7.867
				c-3.525,0.381-7.216,0.464-10.659,0.047c-4.142-0.502-7.798-1.73-10.143-3.58c1.128-0.27,2.261-0.658,3.36-1.126
				c1.095-0.465,2.137-1.028,3.103-1.646c1.874-1.199,3.376-2.639,3.967-4.437c0.896-2.731,0.067-7.362-1.422-11.783
				c-0.778-2.311-1.631-4.605-2.69-6.51C20.156,7.291,18.947,5.799,17.749,4.909z"/>
			<path fill="#F4FAFC" d="M18.021,4.694c0.858-0.735,1.758-1.413,2.682-2.022c3.982-2.629,8.47-3.817,12.835-2.671
				c4.995,1.312,9.795,5.905,13.256,11.199c4.64,7.097,7.149,15.183,5.588,19.127c-1.706,4.31-8.742,6.967-16.473,7.835
				c-3.491,0.392-7.151,0.493-10.576,0.098c-4.1-0.474-7.734-1.662-10.098-3.457c1.172-0.264,2.349-0.649,3.488-1.115
				c1.135-0.464,2.213-1.028,3.211-1.65c1.938-1.209,3.487-2.668,4.091-4.493c0.915-2.763,0.043-7.481-1.529-11.979
				c-0.82-2.345-1.727-4.671-2.844-6.596C20.554,7.078,19.283,5.576,18.021,4.694z"/>
			<path fill="#F4FAFC" d="M18.291,4.48c0.858-0.717,1.755-1.374,2.676-1.964c3.964-2.542,8.416-3.636,12.742-2.45
				c4.932,1.352,9.668,5.898,13.092,11.135c4.639,7.097,7.148,15.183,5.588,19.127c-1.69,4.269-8.617,6.914-16.252,7.804
				c-3.457,0.402-7.087,0.521-10.492,0.146c-4.059-0.445-7.672-1.593-10.054-3.332c1.217-0.258,2.437-0.64,3.615-1.104
				c1.175-0.463,2.292-1.028,3.32-1.653c2.005-1.218,3.596-2.698,4.215-4.551c0.934-2.794,0.02-7.602-1.636-12.177
				c-0.861-2.379-1.823-4.737-2.998-6.682C20.952,6.866,19.62,5.353,18.291,4.48z"/>
			<path fill="#F4FAFC" d="M18.562,4.265c0.857-0.697,1.753-1.334,2.67-1.904c3.949-2.454,8.362-3.455,12.649-2.23
				c4.868,1.391,9.542,5.893,12.927,11.07c4.64,7.098,7.148,15.183,5.587,19.127c-1.673,4.228-8.491,6.859-16.031,7.772
				c-3.421,0.414-7.02,0.548-10.407,0.196c-4.018-0.417-7.608-1.524-10.01-3.207c1.262-0.254,2.525-0.632,3.744-1.095
				c1.216-0.462,2.369-1.028,3.429-1.657c2.069-1.229,3.706-2.729,4.339-4.606c0.952-2.826-0.003-7.723-1.744-12.375
				c-0.902-2.413-1.917-4.803-3.15-6.768C21.351,6.653,19.956,5.128,18.562,4.265z"/>
			<path fill="#F3FAFC" d="M18.833,4.05c0.855-0.678,1.749-1.295,2.663-1.845c3.932-2.365,8.309-3.275,12.557-2.01
				c4.805,1.43,9.415,5.886,12.762,11.006c4.639,7.097,7.148,15.183,5.588,19.127c-1.658,4.187-8.366,6.807-15.811,7.74
				c-3.387,0.425-6.954,0.577-10.323,0.247c-3.976-0.389-7.545-1.455-9.966-3.083c1.307-0.248,2.613-0.622,3.872-1.085
				c1.255-0.461,2.445-1.027,3.537-1.66c2.134-1.237,3.815-2.756,4.464-4.663c0.971-2.856-0.028-7.842-1.852-12.571
				c-0.943-2.448-2.013-4.87-3.303-6.854C21.75,6.44,20.292,4.905,18.833,4.05z"/>
			<path fill="#F3FAFC" d="M19.104,3.835c0.855-0.659,1.746-1.257,2.657-1.786c3.916-2.276,8.255-3.094,12.464-1.79
				c4.741,1.469,9.288,5.88,12.598,10.941c4.639,7.097,7.148,15.183,5.587,19.127c-1.641,4.146-8.239,6.753-15.589,7.709
				c-3.353,0.437-6.89,0.604-10.239,0.296c-3.935-0.361-7.482-1.385-9.922-2.957c1.351-0.244,2.701-0.613,3.999-1.074
				c1.296-0.46,2.523-1.028,3.646-1.664c2.2-1.246,3.926-2.787,4.589-4.722c0.989-2.887-0.052-7.96-1.959-12.767
				c-0.985-2.482-2.109-4.935-3.456-6.94C22.148,6.229,20.629,4.681,19.104,3.835z"/>
			<path fill="#F3FAFC" d="M19.375,3.621c0.854-0.64,1.743-1.218,2.651-1.727c3.899-2.188,8.202-2.915,12.371-1.57
				c4.678,1.508,9.162,5.874,12.433,10.877c4.639,7.097,7.149,15.183,5.587,19.127c-1.625,4.104-8.112,6.7-15.368,7.678
				c-3.317,0.447-6.824,0.631-10.155,0.346c-3.893-0.333-7.419-1.316-9.878-2.833c1.396-0.238,2.79-0.605,4.128-1.064
				c1.336-0.459,2.6-1.027,3.754-1.667c2.266-1.256,4.035-2.816,4.713-4.778c1.008-2.918-0.075-8.08-2.066-12.964
				c-1.026-2.517-2.205-5.001-3.609-7.026C22.547,6.016,20.965,4.458,19.375,3.621z"/>
			<path fill="#F2FAFC" d="M19.646,3.405c0.854-0.621,1.74-1.179,2.645-1.668c3.881-2.1,8.148-2.734,12.278-1.35
				c4.614,1.547,9.035,5.867,12.268,10.812c4.64,7.097,7.148,15.183,5.588,19.127c-1.609,4.063-7.987,6.646-15.148,7.646
				c-3.284,0.459-6.757,0.659-10.07,0.396c-3.852-0.306-7.356-1.247-9.834-2.709c1.44-0.232,2.878-0.596,4.255-1.054
				c1.376-0.458,2.678-1.027,3.863-1.671c2.33-1.265,4.146-2.847,4.837-4.834c1.026-2.95-0.1-8.201-2.174-13.162
				c-1.067-2.551-2.3-5.066-3.762-7.112C22.945,5.803,21.301,4.234,19.646,3.405z"/>
			<path fill="#F2F9FC" d="M19.916,3.19c0.853-0.602,1.737-1.139,2.639-1.608c3.865-2.011,8.094-2.555,12.185-1.13
				c4.552,1.585,8.908,5.861,12.104,10.748c4.639,7.097,7.148,15.183,5.587,19.127c-1.593,4.022-7.862,6.593-14.928,7.614
				c-3.249,0.47-6.691,0.686-9.985,0.445c-3.811-0.277-7.293-1.178-9.79-2.583c1.485-0.228,2.966-0.587,4.383-1.044
				c1.416-0.456,2.754-1.026,3.972-1.675c2.395-1.274,4.255-2.876,4.961-4.892c1.044-2.98-0.123-8.32-2.281-13.358
				c-1.108-2.586-2.396-5.131-3.915-7.197C23.344,5.591,21.638,4.011,19.916,3.19z"/>
			<path fill="#F2F9FC" d="M20.187,2.976c0.852-0.582,1.734-1.101,2.632-1.549c3.848-1.923,8.041-2.375,12.093-0.91
				c4.488,1.624,8.781,5.854,11.938,10.684c4.639,7.097,7.148,15.183,5.587,19.127c-1.576,3.981-7.735,6.54-14.706,7.583
				c-3.215,0.48-6.627,0.713-9.902,0.495c-3.769-0.25-7.229-1.108-9.746-2.459c1.53-0.223,3.054-0.578,4.511-1.034
				c1.456-0.456,2.832-1.026,4.08-1.678c2.46-1.283,4.365-2.905,5.086-4.948c1.063-3.013-0.146-8.44-2.389-13.555
				c-1.149-2.621-2.492-5.198-4.067-7.284C23.742,5.379,21.974,3.787,20.187,2.976z"/>
			<path fill="#F1F9FC" d="M20.458,2.761c0.851-0.563,1.731-1.062,2.626-1.49c3.832-1.836,7.988-2.196,12-0.689
				c4.425,1.662,8.654,5.848,11.773,10.619c4.639,7.097,7.149,15.183,5.588,19.127c-1.561,3.94-7.609,6.489-14.486,7.552
				c-3.18,0.491-6.561,0.74-9.817,0.545c-3.728-0.224-7.167-1.04-9.702-2.334c1.575-0.218,3.142-0.57,4.639-1.024
				c1.496-0.454,2.908-1.026,4.188-1.682c2.524-1.292,4.475-2.935,5.21-5.005c1.082-3.044-0.17-8.561-2.496-13.752
				c-1.189-2.655-2.587-5.262-4.221-7.37C24.14,5.167,22.31,3.563,20.458,2.761z"/>
			<path fill="#F1F9FC" d="M20.729,2.546c0.85-0.544,1.728-1.022,2.62-1.431c3.815-1.747,7.935-2.018,11.907-0.47
				c4.362,1.7,8.527,5.842,11.608,10.555c4.64,7.097,7.149,15.183,5.588,19.127c-1.544,3.899-7.483,6.435-14.266,7.52
				c-3.145,0.503-6.495,0.767-9.733,0.595c-3.686-0.196-7.104-0.97-9.657-2.209c1.619-0.212,3.23-0.56,4.767-1.014
				c1.535-0.453,2.985-1.026,4.297-1.686c2.589-1.302,4.584-2.964,5.334-5.061c1.1-3.076-0.193-8.682-2.604-13.95
				c-1.23-2.689-2.683-5.328-4.374-7.456C24.539,4.955,22.647,3.34,20.729,2.546z"/>
			<path fill="#F1F9FC" d="M21,2.331c0.849-0.525,1.725-0.983,2.615-1.372C27.411-0.7,31.495-0.878,35.428,0.71
				c4.3,1.737,8.401,5.835,11.444,10.49c4.639,7.097,7.148,15.183,5.587,19.127c-1.527,3.858-7.357,6.383-14.044,7.488
				c-3.11,0.514-6.431,0.795-9.649,0.646c-3.644-0.169-7.041-0.902-9.614-2.086c1.665-0.207,3.318-0.552,4.895-1.004
				c1.576-0.452,3.062-1.025,4.406-1.688c2.654-1.311,4.693-2.993,5.458-5.118c1.118-3.106-0.216-8.801-2.711-14.146
				c-1.271-2.725-2.778-5.394-4.526-7.542C24.937,4.743,22.984,3.116,21,2.331z"/>
			<path fill="#F0F9FB" d="M21.271,2.116c0.848-0.506,1.722-0.944,2.608-1.312c3.781-1.57,7.827-1.659,11.721-0.028
				C39.836,2.55,43.874,6.604,46.879,11.2c4.639,7.097,7.148,15.183,5.588,19.127c-1.512,3.817-7.231,6.328-13.824,7.456
				c-3.075,0.526-6.364,0.822-9.564,0.695c-3.603-0.143-6.978-0.832-9.57-1.96c1.709-0.202,3.406-0.543,5.022-0.994
				c1.615-0.451,3.14-1.024,4.515-1.691c2.72-1.319,4.803-3.023,5.582-5.176c1.136-3.137-0.24-8.922-2.818-14.343
				c-1.312-2.759-2.873-5.458-4.679-7.627C25.336,4.531,23.32,2.893,21.271,2.116z"/>
			<path fill="#F0F9FB" d="M21.542,1.901c0.847-0.487,1.719-0.906,2.602-1.254c3.764-1.483,7.775-1.48,11.628,0.192
				C39.946,2.651,43.92,6.662,46.886,11.2c4.64,7.097,7.149,15.183,5.588,19.127c-1.495,3.776-7.104,6.276-13.603,7.425
				c-3.042,0.538-6.299,0.848-9.481,0.744c-3.561-0.115-6.915-0.762-9.525-1.835c1.753-0.196,3.494-0.533,5.15-0.983
				c1.656-0.449,3.217-1.024,4.623-1.695c2.785-1.328,4.913-3.054,5.707-5.232c1.155-3.169-0.262-9.042-2.925-14.539
				c-1.354-2.795-2.97-5.524-4.833-7.714C25.733,4.319,23.656,2.669,21.542,1.901z"/>
			<path fill="#F0F8FB" d="M21.813,1.687c0.847-0.467,1.715-0.867,2.596-1.195c3.746-1.396,7.723-1.302,11.535,0.413
				c4.111,1.849,8.021,5.816,10.95,10.296c4.639,7.097,7.148,15.183,5.587,19.127c-1.479,3.735-6.979,6.224-13.382,7.394
				c-3.006,0.549-6.233,0.875-9.396,0.795c-3.52-0.089-6.852-0.694-9.482-1.711c1.799-0.192,3.583-0.526,5.279-0.975
				c1.695-0.448,3.293-1.023,4.731-1.698c2.85-1.337,5.022-3.083,5.831-5.289c1.173-3.2-0.285-9.163-3.032-14.736
				c-1.395-2.83-3.066-5.589-4.986-7.8C26.132,4.107,23.992,2.446,21.813,1.687z"/>
			<path fill="#EFF8FB" d="M22.084,1.472c0.845-0.448,1.712-0.828,2.589-1.135c3.73-1.308,7.671-1.125,11.443,0.632
				C40.165,2.854,44.01,6.779,46.901,11.2c4.639,7.097,7.148,15.183,5.587,19.127c-1.462,3.695-6.853,6.171-13.161,7.361
				c-2.972,0.561-6.167,0.901-9.312,0.845c-3.479-0.062-6.789-0.625-9.438-1.586c1.843-0.187,3.67-0.517,5.406-0.964
				c1.735-0.447,3.371-1.023,4.84-1.702c2.914-1.347,5.132-3.112,5.955-5.346c1.191-3.231-0.309-9.283-3.141-14.933
				c-1.436-2.864-3.16-5.655-5.138-7.886C26.531,3.895,24.328,2.222,22.084,1.472z"/>
			<path fill="#EFF8FB" d="M22.354,1.257c0.845-0.43,1.709-0.789,2.583-1.076c3.713-1.22,7.618-0.946,11.35,0.853
				c3.987,1.922,7.768,5.804,10.621,10.167c4.639,7.097,7.148,15.183,5.587,19.127c-1.447,3.654-6.727,6.119-12.94,7.33
				c-2.938,0.572-6.103,0.928-9.229,0.895c-3.436-0.036-6.725-0.556-9.394-1.462c1.887-0.181,3.758-0.507,5.534-0.953
				c1.776-0.445,3.448-1.022,4.949-1.705c2.979-1.354,5.241-3.143,6.08-5.403c1.21-3.263-0.332-9.405-3.248-15.13
				c-1.477-2.899-3.257-5.721-5.291-7.972C26.929,3.683,24.665,1.999,22.354,1.257z"/>
			<path fill="#EEF8FB" d="M22.626,1.042c0.843-0.41,1.706-0.75,2.577-1.017c3.696-1.133,7.566-0.77,11.258,1.072
				C40.385,3.055,44.1,6.895,46.914,11.2c4.64,7.097,7.149,15.183,5.588,19.127c-1.431,3.613-6.6,6.066-12.72,7.298
				c-2.902,0.584-6.037,0.954-9.144,0.945c-3.396-0.01-6.663-0.486-9.351-1.337c1.933-0.177,3.847-0.498,5.663-0.943
				c1.815-0.444,3.525-1.023,5.057-1.71c3.043-1.363,5.352-3.171,6.204-5.459c1.228-3.294-0.355-9.525-3.355-15.327
				c-1.518-2.935-3.353-5.785-5.444-8.058C27.327,3.472,25.002,1.774,22.626,1.042z"/>
			<path fill="#EEF8FB" d="M22.896,0.827c0.843-0.391,1.703-0.711,2.571-0.958c3.68-1.046,7.514-0.591,11.165,1.293
				c3.862,1.993,7.514,5.791,10.29,10.038c4.639,7.097,7.148,15.183,5.587,19.127c-1.414,3.572-6.474,6.016-12.499,7.267
				c-2.868,0.596-5.971,0.979-9.06,0.994c-3.353,0.017-6.599-0.417-9.306-1.212c1.977-0.171,3.935-0.489,5.79-0.933
				C29.29,36,31.036,35.421,32.6,34.73c3.108-1.373,5.462-3.202,6.329-5.517c1.246-3.325-0.378-9.646-3.463-15.523
				c-1.559-2.97-3.447-5.851-5.598-8.145C27.726,3.26,25.338,1.551,22.896,0.827z"/>
			<path fill="#EEF8FB" d="M23.167,0.612c0.842-0.372,1.699-0.672,2.564-0.899c3.662-0.958,7.462-0.414,11.072,1.513
				c3.802,2.029,7.387,5.785,10.126,9.974c4.639,7.097,7.148,15.183,5.587,19.127c-1.398,3.531-6.349,5.964-12.278,7.235
				c-2.833,0.607-5.905,1.005-8.976,1.044c-3.312,0.042-6.537-0.348-9.262-1.087c2.021-0.166,4.022-0.48,5.917-0.924
				c1.895-0.442,3.679-1.021,5.274-1.716c3.173-1.382,5.57-3.23,6.453-5.573c1.265-3.355-0.401-9.768-3.57-15.721
				c-1.6-3.004-3.543-5.916-5.75-8.229C28.124,3.048,25.674,1.328,23.167,0.612z"/>
			<path fill="#EDF7FB" d="M23.438,0.397c0.84-0.353,1.696-0.633,2.558-0.839c3.646-0.871,7.41-0.238,10.979,1.733
				c3.74,2.065,7.261,5.778,9.961,9.909c4.639,7.097,7.148,15.183,5.587,19.127c-1.382,3.49-6.222,5.911-12.058,7.203
				c-2.799,0.619-5.84,1.031-8.891,1.095c-3.271,0.067-6.474-0.279-9.219-0.963c2.067-0.161,4.111-0.472,6.046-0.913
				c1.935-0.441,3.756-1.021,5.383-1.72c3.237-1.39,5.676-3.263,6.577-5.63c1.276-3.39-0.424-9.888-3.678-15.918
				c-1.64-3.039-3.639-5.98-5.903-8.315C28.523,2.836,26.01,1.104,23.438,0.397z"/>
			<path fill="#EDF7FB" d="M23.709,0.183c0.84-0.333,1.693-0.595,2.552-0.781c3.629-0.785,7.359-0.06,10.886,1.954
				c3.68,2.101,7.134,5.772,9.797,9.845c4.639,7.097,7.148,15.183,5.587,19.127c-1.365,3.45-6.094,5.859-11.837,7.172
				c-2.764,0.632-5.774,1.056-8.807,1.144c-3.229,0.094-6.41-0.209-9.174-0.838c2.111-0.155,4.199-0.459,6.174-0.902
				c1.976-0.438,3.833-1.021,5.491-1.723c3.303-1.398,5.785-3.292,6.701-5.688c1.296-3.421-0.447-10.01-3.785-16.115
				c-1.682-3.075-3.734-6.046-6.056-8.402C28.921,2.624,26.347,0.88,23.709,0.183z"/>
			<path fill="#EDF7FB" d="M23.98-0.032c0.839-0.314,1.69-0.556,2.546-0.721c3.612-0.696,7.308,0.115,10.793,2.173
				c3.618,2.136,7.007,5.766,9.631,9.78c4.639,7.097,7.149,15.183,5.588,19.127c-1.35,3.409-5.969,5.809-11.617,7.141
				c-2.728,0.644-5.708,1.081-8.722,1.193c-3.188,0.119-6.347-0.14-9.13-0.713c2.155-0.15,4.287-0.451,6.301-0.894
				c2.016-0.436,3.91-1.02,5.601-1.727c3.367-1.407,5.896-3.321,6.826-5.743c1.313-3.452-0.471-10.13-3.894-16.312
				c-1.722-3.11-3.83-6.111-6.209-8.488C29.32,2.413,26.683,0.657,23.98-0.032z"/>
			<path fill="#ECF7FB" d="M24.251-0.247c0.838-0.295,1.687-0.518,2.54-0.662c3.594-0.61,7.256,0.292,10.701,2.394
				c3.558,2.171,6.88,5.76,9.467,9.716c4.639,7.097,7.148,15.183,5.587,19.127c-1.334,3.368-5.843,5.757-11.396,7.108
				c-2.693,0.655-5.644,1.107-8.638,1.244c-3.147,0.144-6.285-0.071-9.087-0.589c2.201-0.146,4.375-0.442,6.43-0.883
				c2.055-0.436,3.986-1.019,5.709-1.729c3.432-1.416,6.005-3.352,6.949-5.801c1.334-3.483-0.492-10.252-3.999-16.508
				c-1.763-3.146-3.927-6.176-6.362-8.574C29.718,2.201,27.02,0.433,24.251-0.247z"/>
			<path fill="#ECF7FA" d="M24.522-0.462c0.837-0.276,1.684-0.479,2.534-0.603c3.578-0.521,7.207,0.467,10.608,2.613
				c3.497,2.206,6.753,5.754,9.302,9.651c4.639,7.097,7.148,15.183,5.587,19.127c-1.316,3.327-5.715,5.706-11.175,7.077
				c-2.658,0.668-5.578,1.131-8.554,1.293c-3.105,0.169-6.221-0.001-9.042-0.463c2.246-0.141,4.463-0.435,6.558-0.873
				c2.095-0.435,4.063-1.019,5.816-1.733c3.497-1.425,6.116-3.381,7.074-5.857c1.353-3.515-0.516-10.372-4.107-16.705
				c-1.804-3.181-4.021-6.241-6.515-8.66C30.116,1.989,27.356,0.21,24.522-0.462z"/>
			<path fill="#ECF7FA" d="M24.792-0.677c0.837-0.257,1.681-0.44,2.528-0.544c3.56-0.437,7.156,0.644,10.515,2.834
				c3.438,2.241,6.627,5.747,9.137,9.587c4.64,7.097,7.148,15.183,5.587,19.127c-1.301,3.286-5.588,5.655-10.954,7.046
				c-2.623,0.68-5.513,1.157-8.469,1.344c-3.065,0.193-6.158,0.066-8.998-0.34c2.29-0.136,4.551-0.426,6.685-0.863
				c2.135-0.433,4.141-1.019,5.926-1.736c3.562-1.433,6.226-3.41,7.198-5.914c1.371-3.545-0.538-10.494-4.214-16.902
				c-1.845-3.216-4.121-6.301-6.668-8.746C30.511,1.782,27.692-0.014,24.792-0.677z"/>
			<path fill="#EBF7FA" d="M25.063-0.892c0.835-0.237,1.678-0.403,2.521-0.485c3.543-0.356,7.106,0.82,10.422,3.055
				c3.377,2.275,6.5,5.74,8.973,9.522c4.639,7.097,7.148,15.183,5.587,19.127c-1.284,3.245-5.462,5.604-10.733,7.014
				c-2.59,0.692-5.448,1.182-8.386,1.394c-3.023,0.218-6.095,0.137-8.954-0.215c2.335-0.13,4.639-0.417,6.813-0.853
				c2.174-0.433,4.217-1.018,6.034-1.74c3.626-1.442,6.335-3.439,7.323-5.971c1.389-3.577-0.55-10.623-4.322-17.099
				c-1.879-3.255-4.216-6.367-6.821-8.832C30.91,1.57,28.029-0.237,25.063-0.892z"/>
			<path fill="#EBF6FA" d="M25.334-1.106c0.834-0.219,1.674-0.364,2.515-0.425c3.527-0.269,7.057,0.996,10.33,3.274
				c3.318,2.31,6.373,5.735,8.808,9.458c4.639,7.097,7.148,15.183,5.587,19.127c-1.269,3.204-5.333,5.562-10.513,6.982
				c-2.553,0.709-5.382,1.206-8.301,1.443c-2.982,0.243-6.032,0.205-8.91-0.09c2.38-0.125,4.727-0.408,6.94-0.843
				c2.215-0.433,4.296-1.015,6.144-1.743c3.692-1.446,6.445-3.47,7.447-6.028c1.408-3.607-0.575-10.742-4.43-17.296
				c-1.922-3.289-4.311-6.433-6.975-8.917C31.31,1.357,28.365-0.461,25.334-1.106z"/>
			<path fill="#EBF6FA" d="M25.605-1.321c0.834-0.2,1.671-0.325,2.51-0.366c3.51-0.181,7.007,1.171,10.236,3.495
				c3.259,2.345,6.246,5.728,8.644,9.393c4.638,7.097,7.148,15.183,5.586,19.127c-1.252,3.163-5.206,5.51-10.292,6.951
				c-2.518,0.72-5.316,1.229-8.216,1.493c-2.942,0.268-5.969,0.274-8.866,0.034c2.424-0.12,4.814-0.399,7.068-0.832
				c2.254-0.432,4.372-1.016,6.251-1.748c3.758-1.455,6.556-3.498,7.572-6.084c1.427-3.639-0.602-10.862-4.537-17.493
				c-1.964-3.324-4.404-6.5-7.127-9.004C31.709,1.145,28.701-0.685,25.605-1.321z"/>
			<path fill="#EAF6FA" d="M25.876-1.536c0.833-0.18,1.668-0.286,2.503-0.307c3.494-0.092,6.962,1.341,10.144,3.714
				c3.204,2.374,6.12,5.722,8.479,9.329c4.639,7.097,7.148,15.183,5.587,19.127c-1.236,3.122-5.08,5.456-10.072,6.919
				c-2.482,0.731-5.252,1.249-8.131,1.543c-2.902,0.288-5.906,0.345-8.823,0.16c2.469-0.115,4.902-0.392,7.196-0.823
				c2.295-0.43,4.449-1.016,6.36-1.75c3.821-1.466,6.666-3.528,7.696-6.142c1.446-3.67-0.627-10.982-4.645-17.69
				c-2.007-3.358-4.499-6.565-7.279-9.089C32.109,0.932,29.037-0.909,25.876-1.536z"/>
			<path fill="#EAF6FA" d="M28.644-1.999c-0.832,0.001-1.665,0.087-2.497,0.248c3.228,0.619,6.361,2.471,9.2,5.016
				s5.384,5.783,7.433,9.176c4.099,6.785,6.217,14.186,4.752,17.887c-1.045,2.641-3.936,4.722-7.82,6.198
				c-1.943,0.738-4.135,1.324-6.469,1.754s-4.811,0.703-7.324,0.812c2.936,0.129,5.918,0.031,8.778-0.284
				c2.86-0.316,5.6-0.851,8.048-1.593c4.896-1.485,8.631-3.807,9.851-6.888c1.562-3.944-0.948-12.03-5.587-19.127
				c-2.32-3.549-5.172-6.851-8.313-9.264S32.121-2.003,28.644-1.999z"/>
		</g>
		<path opacity="0.6" fill="#FFFFFF" d="M8.99,30.371C5.374,23.2,17.851,0.556,30.855-1.8C30.12-1.931,29.383-2,28.644-1.999
			c-0.066,0.001-0.132,0.002-0.197,0.002c-0.08-0.001-0.159-0.002-0.238-0.002C14.479-1.983,0.382,22.806,4.195,30.371
			c3.05,6.049,13.648,8.836,24.153,8.775c0.757,0.001,1.513-0.013,2.266-0.041C20.985,38.739,11.794,35.936,8.99,30.371z"/>
	</g>
	<g>
		<path fill="#551B11" d="M24.067,27.685c2.75,2.345,5.953,2.3,8.532-0.265c0.445-0.443-0.241-1.13-0.687-0.687
			c-2.189,2.176-4.812,2.264-7.158,0.264C24.28,26.593,23.589,27.277,24.067,27.685L24.067,27.685z"/>
	</g>
	<g>
		<g opacity="0.5">
			
				<image overflow="visible" width="728" height="650" xlink:href="E24BFB27ACE3E0BF.png"  transform="matrix(0.0237 0 0 0.0237 31.7893 18.2583)">
			</image>
		</g>
		<g opacity="0.5">
			
				<image overflow="visible" width="728" height="650" xlink:href="E24BFB27ACE3E0BD.png"  transform="matrix(0.0237 0 0 0.0237 6.4797 18.2583)">
			</image>
		</g>
	</g>
	<g>
		<g>
			<path fill="#551B11" d="M42.479,16.599c-1.551,1.75-3.596,2.956-5.6,4.117c-0.335,0.194-0.301,0.651,0,0.853
				c2.037,1.364,4.244,1.978,6.651,2.34c0.621,0.093,0.889-0.857,0.262-0.952c-2.324-0.349-4.444-0.92-6.414-2.24
				c0,0.284,0,0.569,0,0.853c2.071-1.203,4.193-2.463,5.798-4.273C43.597,16.822,42.902,16.122,42.479,16.599L42.479,16.599z"/>
		</g>
		<g>
			<path fill="#551B11" d="M37.424,21.839c1.457,0.003,2.809-0.118,4.236-0.424c0.622-0.134,0.356-1.085-0.262-0.95
				c-1.344,0.287-2.604,0.39-3.975,0.389C36.788,20.853,36.788,21.839,37.424,21.839L37.424,21.839z"/>
		</g>
	</g>
	<g>
		<ellipse fill="#551B11" cx="14.86" cy="20.551" rx="3.544" ry="4.118"/>
		<g>
			<path fill="#FFFFFF" d="M13.431,18.138c-0.221-0.125-0.364-0.143-0.604-0.066c-0.478,0.165-0.388,0.489-0.3,0.94
				c0.114,0.648,0.88,1.834,1.524,1.901c0.751,0.077,0.906-1.354,0.979-1.906c0.027-0.321,0.053-0.643-0.13-0.921
				c-0.15-0.22-0.322-0.301-0.579-0.256c-0.332,0.049-0.309,0.372-0.555,0.492C13.647,18.38,13.62,18.247,13.431,18.138z"/>
		</g>
		<g>
			<path fill="#FFFFFF" d="M15.259,23.362c-0.236,0.439-1.001-0.149-0.43-0.331c-0.571,0.182-0.571-0.648,0-0.467
				c-0.571-0.182,0.194-0.771,0.43-0.331c-0.236-0.439,0.845-0.439,0.609,0c0.236-0.439,1.001,0.149,0.43,0.331
				c0.571-0.182,0.571,0.648,0,0.467c0.571,0.182-0.193,0.771-0.43,0.331C16.104,23.802,15.022,23.802,15.259,23.362z"/>
		</g>
	</g>
	<g>
		<circle fill="#EC1846" cx="27.376" cy="1.938" r="2.552"/>
		<circle fill="#EC1A47" cx="27.365" cy="1.927" r="2.533"/>
		<circle fill="#EC1C48" cx="27.353" cy="1.918" r="2.514"/>
		<circle fill="#EC1E49" cx="27.341" cy="1.908" r="2.495"/>
		<circle fill="#ED204A" cx="27.329" cy="1.898" r="2.477"/>
		<circle fill="#ED214B" cx="27.318" cy="1.889" r="2.458"/>
		<circle fill="#ED234D" cx="27.305" cy="1.879" r="2.438"/>
		<circle fill="#ED254E" cx="27.294" cy="1.869" r="2.419"/>
		<circle fill="#ED274F" cx="27.282" cy="1.859" r="2.4"/>
		<circle fill="#ED2950" cx="27.27" cy="1.849" r="2.381"/>
		<circle fill="#ED2B51" cx="27.259" cy="1.839" r="2.363"/>
		<circle fill="#ED2D52" cx="27.247" cy="1.83" r="2.344"/>
		<circle fill="#EE2F53" cx="27.235" cy="1.819" r="2.325"/>
		<circle fill="#EE3154" cx="27.224" cy="1.81" r="2.306"/>
		<circle fill="#EE3255" cx="27.212" cy="1.8" r="2.287"/>
		<circle fill="#EE3456" cx="27.201" cy="1.791" r="2.268"/>
		<circle fill="#EE3658" cx="27.189" cy="1.781" r="2.249"/>
		<circle fill="#EE3859" cx="27.177" cy="1.771" r="2.23"/>
		<circle fill="#EE3A5A" cx="27.165" cy="1.761" r="2.211"/>
		<circle fill="#EE3C5B" cx="27.153" cy="1.751" r="2.193"/>
		<circle fill="#EF3E5C" cx="27.141" cy="1.742" r="2.173"/>
		<circle fill="#EF405D" cx="27.13" cy="1.731" r="2.155"/>
		<circle fill="#EF415E" cx="27.118" cy="1.722" r="2.136"/>
		<circle fill="#EF435F" cx="27.106" cy="1.712" r="2.117"/>
		<circle fill="#EF4560" cx="27.095" cy="1.702" r="2.098"/>
		<circle fill="#EF4761" cx="27.083" cy="1.692" r="2.079"/>
		<circle fill="#EF4963" cx="27.071" cy="1.683" r="2.06"/>
		<circle fill="#F04B64" cx="27.059" cy="1.673" r="2.041"/>
		<circle fill="#F04D65" cx="27.048" cy="1.663" r="2.022"/>
		<circle fill="#F04F66" cx="27.036" cy="1.653" r="2.003"/>
		<circle fill="#F05167" cx="27.024" cy="1.644" r="1.984"/>
		<circle fill="#F05268" cx="27.012" cy="1.634" r="1.965"/>
		<circle fill="#F05469" cx="27.001" cy="1.624" r="1.947"/>
		<circle fill="#F0566A" cx="26.989" cy="1.614" r="1.928"/>
		<circle fill="#F0586B" cx="26.977" cy="1.604" r="1.909"/>
		<circle fill="#F15A6C" cx="26.965" cy="1.595" r="1.89"/>
		<circle fill="#F15C6E" cx="26.954" cy="1.585" r="1.871"/>
		<circle fill="#F15E6F" cx="26.942" cy="1.575" r="1.852"/>
		<circle fill="#F16070" cx="26.93" cy="1.565" r="1.833"/>
		<circle fill="#F16271" cx="26.918" cy="1.556" r="1.814"/>
		<circle fill="#F16372" cx="26.906" cy="1.545" r="1.795"/>
		<circle fill="#F16573" cx="26.895" cy="1.536" r="1.777"/>
		<circle fill="#F26774" cx="26.883" cy="1.526" r="1.758"/>
		<circle fill="#F26975" cx="26.872" cy="1.517" r="1.739"/>
		<circle fill="#F26B76" cx="26.86" cy="1.506" r="1.72"/>
		<circle fill="#F26D77" cx="26.848" cy="1.497" r="1.701"/>
		<circle fill="#F26F79" cx="26.836" cy="1.486" r="1.682"/>
		<circle fill="#F2717A" cx="26.824" cy="1.477" r="1.663"/>
		<circle fill="#F2727B" cx="26.812" cy="1.467" r="1.644"/>
		<circle fill="#F2747C" cx="26.801" cy="1.458" r="1.625"/>
		<circle fill="#F3767D" cx="26.789" cy="1.447" r="1.606"/>
		<circle fill="#F3787E" cx="26.778" cy="1.438" r="1.587"/>
		<circle fill="#F37A7F" cx="26.766" cy="1.428" r="1.568"/>
		<circle fill="#F37C80" cx="26.754" cy="1.418" r="1.55"/>
		<circle fill="#F37E81" cx="26.742" cy="1.408" r="1.53"/>
		<circle fill="#F38082" cx="26.731" cy="1.398" r="1.512"/>
		<circle fill="#F38284" cx="26.719" cy="1.389" r="1.492"/>
		<circle fill="#F38385" cx="26.707" cy="1.379" r="1.474"/>
		<circle fill="#F48586" cx="26.695" cy="1.369" r="1.455"/>
		<circle fill="#F48787" cx="26.684" cy="1.359" r="1.436"/>
		<circle fill="#F48988" cx="26.672" cy="1.35" r="1.417"/>
		<circle fill="#F48B89" cx="26.66" cy="1.34" r="1.398"/>
	</g>
	<g>
		<circle fill="#EC1846" cx="21.658" cy="3.853" r="2.552"/>
		<circle fill="#EC1A47" cx="21.647" cy="3.843" r="2.533"/>
		<circle fill="#EC1C48" cx="21.635" cy="3.833" r="2.514"/>
		<circle fill="#EC1E49" cx="21.623" cy="3.823" r="2.495"/>
		<circle fill="#ED204A" cx="21.612" cy="3.813" r="2.477"/>
		<circle fill="#ED214B" cx="21.6" cy="3.804" r="2.458"/>
		<circle fill="#ED234D" cx="21.588" cy="3.794" r="2.439"/>
		<circle fill="#ED254E" cx="21.576" cy="3.784" r="2.42"/>
		<circle fill="#ED274F" cx="21.565" cy="3.774" r="2.401"/>
		<circle fill="#ED2950" cx="21.553" cy="3.764" r="2.382"/>
		<circle fill="#ED2B51" cx="21.541" cy="3.754" r="2.363"/>
		<circle fill="#ED2D52" cx="21.529" cy="3.745" r="2.344"/>
		<circle fill="#EE2F53" cx="21.517" cy="3.735" r="2.325"/>
		<circle fill="#EE3154" cx="21.506" cy="3.726" r="2.306"/>
		<circle fill="#EE3255" cx="21.494" cy="3.716" r="2.287"/>
		<circle fill="#EE3456" cx="21.482" cy="3.706" r="2.269"/>
		<circle fill="#EE3658" cx="21.471" cy="3.696" r="2.249"/>
		<circle fill="#EE3859" cx="21.459" cy="3.686" r="2.23"/>
		<circle fill="#EE3A5A" cx="21.447" cy="3.676" r="2.211"/>
		<circle fill="#EE3C5B" cx="21.435" cy="3.667" r="2.192"/>
		<circle fill="#EF3E5C" cx="21.424" cy="3.657" r="2.174"/>
		<circle fill="#EF405D" cx="21.412" cy="3.647" r="2.155"/>
		<circle fill="#EF415E" cx="21.4" cy="3.637" r="2.136"/>
		<circle fill="#EF435F" cx="21.388" cy="3.627" r="2.117"/>
		<circle fill="#EF4560" cx="21.377" cy="3.618" r="2.098"/>
		<circle fill="#EF4761" cx="21.365" cy="3.608" r="2.079"/>
		<circle fill="#EF4963" cx="21.353" cy="3.598" r="2.06"/>
		<circle fill="#F04B64" cx="21.341" cy="3.589" r="2.041"/>
		<circle fill="#F04D65" cx="21.33" cy="3.579" r="2.022"/>
		<circle fill="#F04F66" cx="21.318" cy="3.569" r="2.003"/>
		<circle fill="#F05167" cx="21.306" cy="3.559" r="1.984"/>
		<circle fill="#F05268" cx="21.294" cy="3.549" r="1.966"/>
		<circle fill="#F05469" cx="21.282" cy="3.54" r="1.947"/>
		<circle fill="#F0566A" cx="21.271" cy="3.53" r="1.928"/>
		<circle fill="#F0586B" cx="21.259" cy="3.52" r="1.909"/>
		<circle fill="#F15A6C" cx="21.247" cy="3.51" r="1.89"/>
		<circle fill="#F15C6E" cx="21.236" cy="3.5" r="1.871"/>
		<circle fill="#F15E6F" cx="21.224" cy="3.491" r="1.852"/>
		<circle fill="#F16070" cx="21.212" cy="3.481" r="1.833"/>
		<circle fill="#F16271" cx="21.2" cy="3.471" r="1.814"/>
		<circle fill="#F16372" cx="21.189" cy="3.461" r="1.795"/>
		<circle fill="#F16573" cx="21.177" cy="3.451" r="1.776"/>
		<circle fill="#F26774" cx="21.165" cy="3.441" r="1.757"/>
		<circle fill="#F26975" cx="21.154" cy="3.432" r="1.738"/>
		<circle fill="#F26B76" cx="21.142" cy="3.422" r="1.719"/>
		<circle fill="#F26D77" cx="21.13" cy="3.413" r="1.701"/>
		<circle fill="#F26F79" cx="21.118" cy="3.402" r="1.681"/>
		<circle fill="#F2717A" cx="21.106" cy="3.393" r="1.663"/>
		<circle fill="#F2727B" cx="21.094" cy="3.383" r="1.644"/>
		<circle fill="#F2747C" cx="21.083" cy="3.373" r="1.625"/>
		<circle fill="#F3767D" cx="21.071" cy="3.363" r="1.606"/>
		<circle fill="#F3787E" cx="21.06" cy="3.354" r="1.587"/>
		<circle fill="#F37A7F" cx="21.048" cy="3.344" r="1.568"/>
		<circle fill="#F37C80" cx="21.036" cy="3.334" r="1.549"/>
		<circle fill="#F37E81" cx="21.024" cy="3.324" r="1.53"/>
		<circle fill="#F38082" cx="21.012" cy="3.314" r="1.511"/>
		<circle fill="#F38284" cx="21.001" cy="3.305" r="1.492"/>
		<circle fill="#F38385" cx="20.989" cy="3.295" r="1.473"/>
		<circle fill="#F48586" cx="20.977" cy="3.285" r="1.454"/>
		<circle fill="#F48787" cx="20.966" cy="3.275" r="1.436"/>
		<circle fill="#F48988" cx="20.953" cy="3.266" r="1.417"/>
		<circle fill="#F48B89" cx="20.942" cy="3.256" r="1.398"/>
	</g>
	<g>
		<circle fill="#EC1846" cx="17.208" cy="7.788" r="2.552"/>
		<circle fill="#EC1A47" cx="17.196" cy="7.778" r="2.533"/>
		<circle fill="#EC1C48" cx="17.185" cy="7.769" r="2.514"/>
		<circle fill="#EC1E49" cx="17.173" cy="7.759" r="2.496"/>
		<circle fill="#ED204A" cx="17.161" cy="7.749" r="2.477"/>
		<circle fill="#ED214B" cx="17.15" cy="7.739" r="2.458"/>
		<circle fill="#ED234D" cx="17.137" cy="7.729" r="2.438"/>
		<circle fill="#ED254E" cx="17.126" cy="7.72" r="2.42"/>
		<circle fill="#ED274F" cx="17.115" cy="7.71" r="2.401"/>
		<circle fill="#ED2950" cx="17.103" cy="7.7" r="2.382"/>
		<circle fill="#ED2B51" cx="17.091" cy="7.69" r="2.363"/>
		<circle fill="#ED2D52" cx="17.079" cy="7.681" r="2.344"/>
		<circle fill="#EE2F53" cx="17.067" cy="7.67" r="2.325"/>
		<circle fill="#EE3154" cx="17.055" cy="7.661" r="2.306"/>
		<circle fill="#EE3255" cx="17.044" cy="7.651" r="2.287"/>
		<circle fill="#EE3456" cx="17.032" cy="7.642" r="2.268"/>
		<circle fill="#EE3658" cx="17.02" cy="7.632" r="2.25"/>
		<circle fill="#EE3859" cx="17.009" cy="7.622" r="2.23"/>
		<circle fill="#EE3A5A" cx="16.997" cy="7.612" r="2.212"/>
		<circle fill="#EE3C5B" cx="16.985" cy="7.603" r="2.193"/>
		<circle fill="#EF3E5C" cx="16.974" cy="7.593" r="2.174"/>
		<circle fill="#EF405D" cx="16.962" cy="7.583" r="2.155"/>
		<circle fill="#EF415E" cx="16.949" cy="7.573" r="2.136"/>
		<circle fill="#EF435F" cx="16.938" cy="7.563" r="2.117"/>
		<circle fill="#EF4560" cx="16.927" cy="7.554" r="2.098"/>
		<circle fill="#EF4761" cx="16.915" cy="7.543" r="2.079"/>
		<circle fill="#EF4963" cx="16.903" cy="7.533" r="2.06"/>
		<circle fill="#F04B64" cx="16.891" cy="7.524" r="2.041"/>
		<circle fill="#F04D65" cx="16.879" cy="7.515" r="2.022"/>
		<circle fill="#F04F66" cx="16.868" cy="7.504" r="2.003"/>
		<circle fill="#F05167" cx="16.856" cy="7.494" r="1.984"/>
		<circle fill="#F05268" cx="16.844" cy="7.485" r="1.966"/>
		<circle fill="#F05469" cx="16.832" cy="7.475" r="1.947"/>
		<circle fill="#F0566A" cx="16.821" cy="7.465" r="1.928"/>
		<circle fill="#F0586B" cx="16.809" cy="7.456" r="1.909"/>
		<circle fill="#F15A6C" cx="16.797" cy="7.446" r="1.89"/>
		<circle fill="#F15C6E" cx="16.785" cy="7.436" r="1.871"/>
		<circle fill="#F15E6F" cx="16.774" cy="7.426" r="1.852"/>
		<circle fill="#F16070" cx="16.762" cy="7.417" r="1.833"/>
		<circle fill="#F16271" cx="16.75" cy="7.407" r="1.814"/>
		<circle fill="#F16372" cx="16.738" cy="7.397" r="1.795"/>
		<circle fill="#F16573" cx="16.727" cy="7.387" r="1.776"/>
		<circle fill="#F26774" cx="16.715" cy="7.377" r="1.758"/>
		<circle fill="#F26975" cx="16.703" cy="7.368" r="1.739"/>
		<circle fill="#F26B76" cx="16.691" cy="7.358" r="1.719"/>
		<circle fill="#F26D77" cx="16.68" cy="7.348" r="1.7"/>
		<circle fill="#F26F79" cx="16.668" cy="7.338" r="1.682"/>
		<circle fill="#F2717A" cx="16.656" cy="7.328" r="1.663"/>
		<circle fill="#F2727B" cx="16.645" cy="7.318" r="1.644"/>
		<circle fill="#F2747C" cx="16.633" cy="7.309" r="1.625"/>
		<circle fill="#F3767D" cx="16.621" cy="7.299" r="1.606"/>
		<circle fill="#F3787E" cx="16.609" cy="7.289" r="1.587"/>
		<circle fill="#F37A7F" cx="16.597" cy="7.279" r="1.568"/>
		<circle fill="#F37C80" cx="16.586" cy="7.27" r="1.549"/>
		<circle fill="#F37E81" cx="16.574" cy="7.26" r="1.53"/>
		<circle fill="#F38082" cx="16.562" cy="7.25" r="1.511"/>
		<circle fill="#F38284" cx="16.551" cy="7.24" r="1.492"/>
		<circle fill="#F38385" cx="16.539" cy="7.23" r="1.474"/>
		<circle fill="#F48586" cx="16.527" cy="7.221" r="1.455"/>
		<circle fill="#F48787" cx="16.515" cy="7.211" r="1.436"/>
		<circle fill="#F48988" cx="16.504" cy="7.201" r="1.417"/>
		<circle fill="#F48B89" cx="16.492" cy="7.191" r="1.398"/>
	</g>
</g>
<g>
	<g>
		<path fill="#27479A" d="M34.91,9.449c0,0.057-0.021,0.107-0.065,0.152l-2.19,2.191l0.951,0.95
			c0.082,0.083,0.124,0.183,0.124,0.297s-0.042,0.213-0.124,0.297c-0.085,0.083-0.184,0.126-0.297,0.126h-2.958
			c-0.115,0-0.214-0.042-0.298-0.126c-0.082-0.084-0.125-0.183-0.125-0.297v-2.957c0-0.115,0.043-0.213,0.125-0.297
			c0.084-0.083,0.183-0.125,0.298-0.125c0.114,0,0.213,0.042,0.297,0.125l0.951,0.951l2.19-2.192
			c0.044-0.044,0.094-0.065,0.151-0.065c0.059,0,0.108,0.021,0.153,0.065l0.751,0.753C34.889,9.341,34.91,9.391,34.91,9.449z
			 M29.151,14.37v2.958c0,0.115-0.04,0.213-0.124,0.296c-0.085,0.084-0.184,0.125-0.297,0.125c-0.115,0-0.214-0.041-0.298-0.125
			l-0.951-0.95l-2.191,2.192c-0.043,0.043-0.094,0.064-0.151,0.064s-0.108-0.021-0.152-0.064l-0.752-0.753
			c-0.044-0.044-0.066-0.095-0.066-0.152c0-0.058,0.022-0.108,0.066-0.152l2.191-2.191l-0.951-0.951
			c-0.083-0.083-0.125-0.182-0.125-0.297s0.042-0.213,0.125-0.297c0.083-0.083,0.183-0.125,0.297-0.125h2.958
			c0.113,0,0.212,0.042,0.297,0.125C29.111,14.157,29.151,14.255,29.151,14.37z"/>
	</g>
</g>
</svg>
