<?xml version="1.0" encoding="utf-8"?>
<!-- Generator: Adobe Illustrator 16.0.0, SVG Export Plug-In . SVG Version: 6.00 Build 0)  -->
<!DOCTYPE svg PUBLIC "-//W3C//DTD SVG 1.1//EN" "http://www.w3.org/Graphics/SVG/1.1/DTD/svg11.dtd">
<svg version="1.1" id="Layer_1" xmlns="http://www.w3.org/2000/svg" xmlns:xlink="http://www.w3.org/1999/xlink" x="0px" y="0px"
	 width="55.145px" height="50.02px" viewBox="0 -6.061 55.145 50.02" enable-background="new 0 -6.061 55.145 50.02"
	 xml:space="preserve">
<g>
	<g>
		<g>
			<g>
				<g>
					<ellipse fill="#F7BED0" cx="27.416" cy="5.142" rx="25.982" ry="11.24"/>
				</g>
				<g>
					<ellipse fill="#F7BED0" cx="27.416" cy="32.757" rx="25.982" ry="11.24"/>
				</g>
				<rect x="1.434" y="5.142" fill="#F7BED0" width="51.929" height="28.211"/>
			</g>
		</g>
		<g>
			<g>
				<g>
					<ellipse fill="#F7BED0" cx="27.416" cy="5.188" rx="25.903" ry="11.206"/>
				</g>
				<g>
					<ellipse fill="#F7BED0" cx="27.416" cy="32.72" rx="25.903" ry="11.206"/>
				</g>
				<rect x="1.513" y="5.188" fill="#F7BED0" width="51.771" height="28.125"/>
			</g>
		</g>
		<g>
			<g>
				<g>
					<ellipse fill="#F7BFD1" cx="27.416" cy="5.235" rx="25.824" ry="11.171"/>
				</g>
				<g>
					<ellipse fill="#F7BFD1" cx="27.416" cy="32.683" rx="25.824" ry="11.172"/>
				</g>
				<rect x="1.592" y="5.235" fill="#F7BFD1" width="51.612" height="28.04"/>
			</g>
		</g>
		<g>
			<g>
				<g>
					<ellipse fill="#F7BFD1" cx="27.416" cy="5.282" rx="25.745" ry="11.137"/>
				</g>
				<g>
					<ellipse fill="#F7BFD1" cx="27.416" cy="32.646" rx="25.745" ry="11.138"/>
				</g>
				<rect x="1.671" y="5.282" fill="#F7BFD1" width="51.454" height="27.954"/>
			</g>
		</g>
		<g>
			<g>
				<g>
					<ellipse fill="#F7BFD1" cx="27.416" cy="5.329" rx="25.666" ry="11.103"/>
				</g>
				<g>
					<ellipse fill="#F7BFD1" cx="27.416" cy="32.608" rx="25.666" ry="11.104"/>
				</g>
				<rect x="1.75" y="5.329" fill="#F7BFD1" width="51.297" height="27.867"/>
			</g>
		</g>
		<g>
			<g>
				<g>
					<ellipse fill="#F7C0D1" cx="27.416" cy="5.376" rx="25.586" ry="11.069"/>
				</g>
				<g>
					<ellipse fill="#F7C0D1" cx="27.416" cy="32.571" rx="25.586" ry="11.069"/>
				</g>
				<rect x="1.829" y="5.376" fill="#F7C0D1" width="51.139" height="27.782"/>
			</g>
		</g>
		<g>
			<g>
				<g>
					<ellipse fill="#F7C0D2" cx="27.416" cy="5.423" rx="25.508" ry="11.035"/>
				</g>
				<g>
					<ellipse fill="#F7C0D2" cx="27.416" cy="32.534" rx="25.508" ry="11.035"/>
				</g>
				<rect x="1.908" y="5.423" fill="#F7C0D2" width="50.981" height="27.696"/>
			</g>
		</g>
		<g>
			<g>
				<g>
					<ellipse fill="#F7C1D2" cx="27.416" cy="5.47" rx="25.429" ry="11"/>
				</g>
				<g>
					<ellipse fill="#F7C1D2" cx="27.416" cy="32.497" rx="25.429" ry="11.001"/>
				</g>
				<rect x="1.987" y="5.47" fill="#F7C1D2" width="50.824" height="27.61"/>
			</g>
		</g>
		<g>
			<g>
				<g>
					<ellipse fill="#F7C1D2" cx="27.416" cy="5.517" rx="25.35" ry="10.966"/>
				</g>
				<g>
					<ellipse fill="#F7C1D2" cx="27.416" cy="32.46" rx="25.35" ry="10.967"/>
				</g>
				<rect x="2.066" y="5.517" fill="#F7C1D2" width="50.666" height="27.524"/>
			</g>
		</g>
		<g>
			<g>
				<g>
					<ellipse fill="#F7C1D3" cx="27.416" cy="5.563" rx="25.271" ry="10.932"/>
				</g>
				<g>
					<ellipse fill="#F7C1D3" cx="27.416" cy="32.423" rx="25.271" ry="10.933"/>
				</g>
				<rect x="2.145" y="5.563" fill="#F7C1D3" width="50.507" height="27.439"/>
			</g>
		</g>
		<g>
			<g>
				<g>
					<ellipse fill="#F7C2D3" cx="27.416" cy="5.61" rx="25.192" ry="10.897"/>
				</g>
				<g>
					<ellipse fill="#F7C2D3" cx="27.416" cy="32.386" rx="25.192" ry="10.898"/>
				</g>
				<rect x="2.224" y="5.61" fill="#F7C2D3" width="50.35" height="27.353"/>
			</g>
		</g>
		<g>
			<g>
				<g>
					<ellipse fill="#F8C2D3" cx="27.416" cy="5.657" rx="25.113" ry="10.863"/>
				</g>
				<g>
					<ellipse fill="#F8C2D3" cx="27.416" cy="32.349" rx="25.113" ry="10.864"/>
				</g>
				<rect x="2.303" y="5.657" fill="#F8C2D3" width="50.191" height="27.268"/>
			</g>
		</g>
		<g>
			<g>
				<g>
					<ellipse fill="#F8C2D3" cx="27.416" cy="5.704" rx="25.034" ry="10.83"/>
				</g>
				<g>
					<ellipse fill="#F8C2D3" cx="27.416" cy="32.311" rx="25.034" ry="10.83"/>
				</g>
				<rect x="2.382" y="5.704" fill="#F8C2D3" width="50.033" height="27.181"/>
			</g>
		</g>
		<g>
			<g>
				<g>
					<ellipse fill="#F8C3D4" cx="27.416" cy="5.75" rx="24.955" ry="10.796"/>
				</g>
				<g>
					<ellipse fill="#F8C3D4" cx="27.416" cy="32.273" rx="24.955" ry="10.797"/>
				</g>
				<rect x="2.461" y="5.75" fill="#F8C3D4" width="49.875" height="27.095"/>
			</g>
		</g>
		<g>
			<g>
				<g>
					<ellipse fill="#F8C3D4" cx="27.416" cy="5.798" rx="24.876" ry="10.761"/>
				</g>
				<g>
					<ellipse fill="#F8C3D4" cx="27.416" cy="32.237" rx="24.876" ry="10.762"/>
				</g>
				<rect x="2.54" y="5.798" fill="#F8C3D4" width="49.718" height="27.01"/>
			</g>
		</g>
		<g>
			<g>
				<g>
					<ellipse fill="#F8C3D4" cx="27.416" cy="5.845" rx="24.797" ry="10.727"/>
				</g>
				<g>
					<ellipse fill="#F8C3D4" cx="27.416" cy="32.2" rx="24.797" ry="10.727"/>
				</g>
				<rect x="2.619" y="5.845" fill="#F8C3D4" width="49.56" height="26.924"/>
			</g>
		</g>
		<g>
			<g>
				<g>
					<ellipse fill="#F8C4D4" cx="27.416" cy="5.892" rx="24.718" ry="10.693"/>
				</g>
				<g>
					<ellipse fill="#F8C4D4" cx="27.416" cy="32.163" rx="24.718" ry="10.692"/>
				</g>
				<rect x="2.698" y="5.892" fill="#F8C4D4" width="49.401" height="26.838"/>
			</g>
		</g>
		<g>
			<g>
				<g>
					<ellipse fill="#F8C4D5" cx="27.416" cy="5.938" rx="24.638" ry="10.658"/>
				</g>
				<g>
					<ellipse fill="#F8C4D5" cx="27.416" cy="32.126" rx="24.638" ry="10.658"/>
				</g>
				<rect x="2.778" y="5.938" fill="#F8C4D5" width="49.243" height="26.752"/>
			</g>
		</g>
		<g>
			<g>
				<g>
					<ellipse fill="#F8C4D5" cx="27.416" cy="5.985" rx="24.56" ry="10.624"/>
				</g>
				<g>
					<ellipse fill="#F8C4D5" cx="27.416" cy="32.088" rx="24.56" ry="10.625"/>
				</g>
				<rect x="2.856" y="5.985" fill="#F8C4D5" width="49.086" height="26.666"/>
			</g>
		</g>
		<g>
			<g>
				<g>
					<ellipse fill="#F8C5D5" cx="27.416" cy="6.032" rx="24.481" ry="10.59"/>
				</g>
				<g>
					<ellipse fill="#F8C5D5" cx="27.416" cy="32.052" rx="24.481" ry="10.59"/>
				</g>
				<rect x="2.935" y="6.032" fill="#F8C5D5" width="48.928" height="26.581"/>
			</g>
		</g>
		<g>
			<g>
				<g>
					<ellipse fill="#F8C5D6" cx="27.416" cy="6.079" rx="24.401" ry="10.557"/>
				</g>
				<g>
					<ellipse fill="#F8C5D6" cx="27.416" cy="32.015" rx="24.401" ry="10.556"/>
				</g>
				<rect x="3.015" y="6.079" fill="#F8C5D6" width="48.77" height="26.495"/>
			</g>
		</g>
		<g>
			<g>
				<g>
					<ellipse fill="#F8C6D6" cx="27.416" cy="6.126" rx="24.323" ry="10.522"/>
				</g>
				<g>
					<ellipse fill="#F8C6D6" cx="27.416" cy="31.977" rx="24.323" ry="10.522"/>
				</g>
				<rect x="3.094" y="6.126" fill="#F8C6D6" width="48.612" height="26.409"/>
			</g>
		</g>
		<g>
			<g>
				<g>
					<ellipse fill="#F8C6D6" cx="27.416" cy="6.173" rx="24.244" ry="10.487"/>
				</g>
				<g>
					<ellipse fill="#F8C6D6" cx="27.416" cy="31.939" rx="24.244" ry="10.488"/>
				</g>
				<rect x="3.172" y="6.173" fill="#F8C6D6" width="48.454" height="26.323"/>
			</g>
		</g>
		<g>
			<g>
				<g>
					<ellipse fill="#F8C6D6" cx="27.416" cy="6.22" rx="24.165" ry="10.453"/>
				</g>
				<g>
					<ellipse fill="#F8C6D6" cx="27.416" cy="31.903" rx="24.165" ry="10.453"/>
				</g>
				<rect x="3.251" y="6.22" fill="#F8C6D6" width="48.297" height="26.237"/>
			</g>
		</g>
		<g>
			<g>
				<g>
					<ellipse fill="#F8C7D7" cx="27.417" cy="6.267" rx="24.085" ry="10.419"/>
				</g>
				<g>
					<ellipse fill="#F8C7D7" cx="27.417" cy="31.866" rx="24.085" ry="10.419"/>
				</g>
				<rect x="3.331" y="6.267" fill="#F8C7D7" width="48.138" height="26.151"/>
			</g>
		</g>
		<g>
			<g>
				<g>
					<ellipse fill="#F8C7D7" cx="27.416" cy="6.313" rx="24.007" ry="10.385"/>
				</g>
				<g>
					<ellipse fill="#F8C7D7" cx="27.416" cy="31.829" rx="24.007" ry="10.385"/>
				</g>
				<rect x="3.409" y="6.313" fill="#F8C7D7" width="47.98" height="26.065"/>
			</g>
		</g>
		<g>
			<g>
				<g>
					<ellipse fill="#F8C7D7" cx="27.416" cy="6.36" rx="23.927" ry="10.351"/>
				</g>
				<g>
					<ellipse fill="#F8C7D7" cx="27.416" cy="31.791" rx="23.927" ry="10.352"/>
				</g>
				<rect x="3.489" y="6.36" fill="#F8C7D7" width="47.822" height="25.979"/>
			</g>
		</g>
		<g>
			<g>
				<g>
					<ellipse fill="#F8C8D8" cx="27.416" cy="6.407" rx="23.849" ry="10.317"/>
				</g>
				<g>
					<ellipse fill="#F8C8D8" cx="27.416" cy="31.754" rx="23.849" ry="10.317"/>
				</g>
				<rect x="3.568" y="6.407" fill="#F8C8D8" width="47.664" height="25.894"/>
			</g>
		</g>
		<g>
			<g>
				<g>
					<ellipse fill="#F8C8D8" cx="27.416" cy="6.454" rx="23.77" ry="10.283"/>
				</g>
				<g>
					<ellipse fill="#F8C8D8" cx="27.416" cy="31.718" rx="23.77" ry="10.282"/>
				</g>
				<rect x="3.647" y="6.454" fill="#F8C8D8" width="47.507" height="25.809"/>
			</g>
		</g>
		<g>
			<g>
				<g>
					<ellipse fill="#F8C8D8" cx="27.416" cy="6.501" rx="23.69" ry="10.248"/>
				</g>
				<g>
					<ellipse fill="#F8C8D8" cx="27.416" cy="31.68" rx="23.69" ry="10.249"/>
				</g>
				<rect x="3.726" y="6.501" fill="#F8C8D8" width="47.348" height="25.723"/>
			</g>
		</g>
		<g>
			<g>
				<g>
					<ellipse fill="#F8C9D8" cx="27.416" cy="6.548" rx="23.611" ry="10.214"/>
				</g>
				<g>
					<ellipse fill="#F8C9D8" cx="27.416" cy="31.643" rx="23.611" ry="10.215"/>
				</g>
				<rect x="3.805" y="6.548" fill="#F8C9D8" width="47.19" height="25.636"/>
			</g>
		</g>
		<g>
			<g>
				<g>
					<ellipse fill="#F9C9D9" cx="27.416" cy="6.595" rx="23.532" ry="10.18"/>
				</g>
				<g>
					<ellipse fill="#F9C9D9" cx="27.416" cy="31.605" rx="23.532" ry="10.181"/>
				</g>
				<rect x="3.884" y="6.595" fill="#F9C9D9" width="47.032" height="25.551"/>
			</g>
		</g>
		<g>
			<g>
				<g>
					<ellipse fill="#F9CAD9" cx="27.416" cy="6.642" rx="23.453" ry="10.146"/>
				</g>
				<g>
					<ellipse fill="#F9CAD9" cx="27.416" cy="31.568" rx="23.453" ry="10.146"/>
				</g>
				<rect x="3.963" y="6.642" fill="#F9CAD9" width="46.875" height="25.465"/>
			</g>
		</g>
		<g>
			<g>
				<g>
					<ellipse fill="#F9CAD9" cx="27.416" cy="6.688" rx="23.374" ry="10.111"/>
				</g>
				<g>
					<ellipse fill="#F9CAD9" cx="27.416" cy="31.532" rx="23.374" ry="10.111"/>
				</g>
				<rect x="4.042" y="6.688" fill="#F9CAD9" width="46.716" height="25.379"/>
			</g>
		</g>
		<g>
			<g>
				<g>
					<ellipse fill="#F9CAD9" cx="27.416" cy="6.735" rx="23.295" ry="10.077"/>
				</g>
				<g>
					<ellipse fill="#F9CAD9" cx="27.416" cy="31.494" rx="23.295" ry="10.078"/>
				</g>
				<rect x="4.121" y="6.735" fill="#F9CAD9" width="46.559" height="25.293"/>
			</g>
		</g>
		<g>
			<g>
				<g>
					<ellipse fill="#F9CBDA" cx="27.416" cy="6.782" rx="23.216" ry="10.043"/>
				</g>
				<g>
					<ellipse fill="#F9CBDA" cx="27.416" cy="31.457" rx="23.216" ry="10.044"/>
				</g>
				<rect x="4.199" y="6.782" fill="#F9CBDA" width="46.401" height="25.208"/>
			</g>
		</g>
		<g>
			<g>
				<g>
					<ellipse fill="#F9CBDA" cx="27.417" cy="6.829" rx="23.137" ry="10.009"/>
				</g>
				<g>
					<ellipse fill="#F9CBDA" cx="27.417" cy="31.42" rx="23.137" ry="10.01"/>
				</g>
				<rect x="4.279" y="6.829" fill="#F9CBDA" width="46.243" height="25.122"/>
			</g>
		</g>
		<g>
			<g>
				<g>
					<ellipse fill="#F9CBDA" cx="27.416" cy="6.876" rx="23.059" ry="9.975"/>
				</g>
				<g>
					<ellipse fill="#F9CBDA" cx="27.416" cy="31.383" rx="23.059" ry="9.976"/>
				</g>
				<rect x="4.358" y="6.876" fill="#F9CBDA" width="46.085" height="25.036"/>
			</g>
		</g>
		<g>
			<g>
				<g>
					<ellipse fill="#F9CCDB" cx="27.416" cy="6.923" rx="22.979" ry="9.94"/>
				</g>
				<g>
					<ellipse fill="#F9CCDB" cx="27.416" cy="31.346" rx="22.979" ry="9.941"/>
				</g>
				<rect x="4.437" y="6.923" fill="#F9CCDB" width="45.928" height="24.95"/>
			</g>
		</g>
		<g>
			<g>
				<g>
					<ellipse fill="#F9CCDB" cx="27.416" cy="6.97" rx="22.9" ry="9.906"/>
				</g>
				<g>
					<ellipse fill="#F9CCDB" cx="27.416" cy="31.309" rx="22.9" ry="9.907"/>
				</g>
				<rect x="4.516" y="6.97" fill="#F9CCDB" width="45.769" height="24.864"/>
			</g>
		</g>
		<g>
			<g>
				<g>
					<ellipse fill="#F9CCDB" cx="27.416" cy="7.017" rx="22.821" ry="9.872"/>
				</g>
				<g>
					<ellipse fill="#F9CCDB" cx="27.416" cy="31.271" rx="22.821" ry="9.873"/>
				</g>
				<rect x="4.595" y="7.017" fill="#F9CCDB" width="45.611" height="24.778"/>
			</g>
		</g>
		<g>
			<g>
				<g>
					<ellipse fill="#F9CDDB" cx="27.416" cy="7.063" rx="22.742" ry="9.838"/>
				</g>
				<g>
					<ellipse fill="#F9CDDB" cx="27.416" cy="31.234" rx="22.742" ry="9.839"/>
				</g>
				<rect x="4.674" y="7.063" fill="#F9CDDB" width="45.453" height="24.692"/>
			</g>
		</g>
		<g>
			<g>
				<g>
					<ellipse fill="#F9CDDC" cx="27.416" cy="7.11" rx="22.663" ry="9.804"/>
				</g>
				<g>
					<ellipse fill="#F9CDDC" cx="27.416" cy="31.197" rx="22.663" ry="9.805"/>
				</g>
				<rect x="4.753" y="7.11" fill="#F9CDDC" width="45.295" height="24.607"/>
			</g>
		</g>
		<g>
			<g>
				<g>
					<ellipse fill="#F9CEDC" cx="27.417" cy="7.157" rx="22.584" ry="9.77"/>
				</g>
				<g>
					<ellipse fill="#F9CEDC" cx="27.417" cy="31.16" rx="22.584" ry="9.771"/>
				</g>
				<rect x="4.832" y="7.157" fill="#F9CEDC" width="45.137" height="24.521"/>
			</g>
		</g>
		<g>
			<g>
				<g>
					<ellipse fill="#F9CEDC" cx="27.416" cy="7.204" rx="22.505" ry="9.736"/>
				</g>
				<g>
					<ellipse fill="#F9CEDC" cx="27.416" cy="31.123" rx="22.505" ry="9.736"/>
				</g>
				<rect x="4.911" y="7.204" fill="#F9CEDC" width="44.98" height="24.435"/>
			</g>
		</g>
		<g>
			<g>
				<g>
					<ellipse fill="#F9CEDD" cx="27.416" cy="7.251" rx="22.426" ry="9.701"/>
				</g>
				<g>
					<ellipse fill="#F9CEDD" cx="27.416" cy="31.086" rx="22.426" ry="9.702"/>
				</g>
				<rect x="4.99" y="7.251" fill="#F9CEDD" width="44.821" height="24.35"/>
			</g>
		</g>
		<g>
			<g>
				<g>
					<ellipse fill="#F9CFDD" cx="27.417" cy="7.298" rx="22.347" ry="9.667"/>
				</g>
				<g>
					<ellipse fill="#F9CFDD" cx="27.417" cy="31.049" rx="22.347" ry="9.668"/>
				</g>
				<rect x="5.069" y="7.298" fill="#F9CFDD" width="44.664" height="24.264"/>
			</g>
		</g>
		<g>
			<g>
				<g>
					<ellipse fill="#F9CFDD" cx="27.417" cy="7.345" rx="22.268" ry="9.633"/>
				</g>
				<g>
					<ellipse fill="#F9CFDD" cx="27.417" cy="31.012" rx="22.268" ry="9.633"/>
				</g>
				<rect x="5.148" y="7.345" fill="#F9CFDD" width="44.505" height="24.178"/>
			</g>
		</g>
		<g>
			<g>
				<g>
					<ellipse fill="#F9CFDD" cx="27.417" cy="7.392" rx="22.189" ry="9.599"/>
				</g>
				<g>
					<ellipse fill="#F9CFDD" cx="27.417" cy="30.975" rx="22.189" ry="9.599"/>
				</g>
				<rect x="5.227" y="7.392" fill="#F9CFDD" width="44.348" height="24.092"/>
			</g>
		</g>
		<g>
			<g>
				<g>
					<ellipse fill="#F9D0DE" cx="27.417" cy="7.438" rx="22.11" ry="9.564"/>
				</g>
				<g>
					<ellipse fill="#F9D0DE" cx="27.417" cy="30.938" rx="22.11" ry="9.564"/>
				</g>
				<rect x="5.306" y="7.438" fill="#F9D0DE" width="44.189" height="24.006"/>
			</g>
		</g>
		<g>
			<g>
				<g>
					<ellipse fill="#F9D0DE" cx="27.416" cy="7.485" rx="22.031" ry="9.53"/>
				</g>
				<g>
					<ellipse fill="#F9D0DE" cx="27.416" cy="30.9" rx="22.031" ry="9.53"/>
				</g>
				<rect x="5.385" y="7.485" fill="#F9D0DE" width="44.032" height="23.921"/>
			</g>
		</g>
		<g>
			<g>
				<g>
					<ellipse fill="#FAD0DE" cx="27.417" cy="7.532" rx="21.952" ry="9.496"/>
				</g>
				<g>
					<ellipse fill="#FAD0DE" cx="27.417" cy="30.863" rx="21.952" ry="9.496"/>
				</g>
				<rect x="5.465" y="7.532" fill="#FAD0DE" width="43.874" height="23.835"/>
			</g>
		</g>
		<g>
			<g>
				<g>
					<ellipse fill="#FAD1DE" cx="27.416" cy="7.579" rx="21.873" ry="9.462"/>
				</g>
				<g>
					<ellipse fill="#FAD1DE" cx="27.416" cy="30.826" rx="21.873" ry="9.462"/>
				</g>
				<rect x="5.543" y="7.579" fill="#FAD1DE" width="43.716" height="23.749"/>
			</g>
		</g>
		<g>
			<g>
				<g>
					<ellipse fill="#FAD1DF" cx="27.416" cy="7.626" rx="21.794" ry="9.428"/>
				</g>
				<g>
					<ellipse fill="#FAD1DF" cx="27.416" cy="30.789" rx="21.794" ry="9.428"/>
				</g>
				<rect x="5.622" y="7.626" fill="#FAD1DF" width="43.559" height="23.663"/>
			</g>
		</g>
		<g>
			<g>
				<g>
					<ellipse fill="#FAD1DF" cx="27.416" cy="7.673" rx="21.715" ry="9.394"/>
				</g>
				<g>
					<ellipse fill="#FAD1DF" cx="27.416" cy="30.752" rx="21.715" ry="9.394"/>
				</g>
				<rect x="5.701" y="7.673" fill="#FAD1DF" width="43.4" height="23.577"/>
			</g>
		</g>
		<g>
			<g>
				<g>
					<ellipse fill="#FAD2DF" cx="27.416" cy="7.72" rx="21.636" ry="9.359"/>
				</g>
				<g>
					<ellipse fill="#FAD2DF" cx="27.416" cy="30.715" rx="21.636" ry="9.359"/>
				</g>
				<rect x="5.781" y="7.72" fill="#FAD2DF" width="43.242" height="23.491"/>
			</g>
		</g>
		<g>
			<g>
				<g>
					<ellipse fill="#FAD2E0" cx="27.417" cy="7.767" rx="21.557" ry="9.325"/>
				</g>
				<g>
					<ellipse fill="#FAD2E0" cx="27.417" cy="30.678" rx="21.557" ry="9.325"/>
				</g>
				<rect x="5.859" y="7.767" fill="#FAD2E0" width="43.084" height="23.405"/>
			</g>
		</g>
		<g>
			<g>
				<g>
					<ellipse fill="#FAD3E0" cx="27.417" cy="7.813" rx="21.478" ry="9.291"/>
				</g>
				<g>
					<ellipse fill="#FAD3E0" cx="27.417" cy="30.641" rx="21.478" ry="9.291"/>
				</g>
				<rect x="5.939" y="7.813" fill="#FAD3E0" width="42.926" height="23.319"/>
			</g>
		</g>
		<g>
			<g>
				<g>
					<ellipse fill="#FAD3E0" cx="27.417" cy="7.86" rx="21.399" ry="9.257"/>
				</g>
				<g>
					<ellipse fill="#FAD3E0" cx="27.417" cy="30.604" rx="21.399" ry="9.257"/>
				</g>
				<rect x="6.017" y="7.86" fill="#FAD3E0" width="42.768" height="23.233"/>
			</g>
		</g>
		<g>
			<g>
				<g>
					<ellipse fill="#FAD3E0" cx="27.417" cy="7.907" rx="21.32" ry="9.223"/>
				</g>
				<g>
					<ellipse fill="#FAD3E0" cx="27.417" cy="30.566" rx="21.32" ry="9.223"/>
				</g>
				<rect x="6.096" y="7.907" fill="#FAD3E0" width="42.61" height="23.148"/>
			</g>
		</g>
		<g>
			<g>
				<g>
					<ellipse fill="#FAD4E1" cx="27.417" cy="7.954" rx="21.241" ry="9.188"/>
				</g>
				<g>
					<ellipse fill="#FAD4E1" cx="27.417" cy="30.529" rx="21.241" ry="9.188"/>
				</g>
				<rect x="6.176" y="7.954" fill="#FAD4E1" width="42.453" height="23.062"/>
			</g>
		</g>
		<g>
			<g>
				<g>
					<ellipse fill="#FAD4E1" cx="27.417" cy="8.001" rx="21.162" ry="9.154"/>
				</g>
				<g>
					<ellipse fill="#FAD4E1" cx="27.417" cy="30.492" rx="21.162" ry="9.154"/>
				</g>
				<rect x="6.255" y="8.001" fill="#FAD4E1" width="42.294" height="22.977"/>
			</g>
		</g>
	</g>
	<g>
		<ellipse fill="#F8C4D4" cx="27.358" cy="3.783" rx="25.924" ry="9.601"/>
		<ellipse fill="#F8C4D4" cx="27.358" cy="3.784" rx="25.815" ry="9.561"/>
		<ellipse fill="#F8C5D5" cx="27.358" cy="3.785" rx="25.708" ry="9.521"/>
		<ellipse fill="#F8C5D5" cx="27.357" cy="3.786" rx="25.599" ry="9.48"/>
		<ellipse fill="#F8C6D5" cx="27.357" cy="3.788" rx="25.49" ry="9.44"/>
		<ellipse fill="#F8C6D5" cx="27.358" cy="3.79" rx="25.382" ry="9.4"/>
		<ellipse fill="#F8C6D6" cx="27.358" cy="3.791" rx="25.274" ry="9.36"/>
		<ellipse fill="#F8C7D6" cx="27.358" cy="3.792" rx="25.166" ry="9.32"/>
		<ellipse fill="#F8C7D6" cx="27.358" cy="3.793" rx="25.057" ry="9.28"/>
		<ellipse fill="#F8C8D7" cx="27.358" cy="3.794" rx="24.949" ry="9.24"/>
		<ellipse fill="#F8C8D7" cx="27.358" cy="3.796" rx="24.841" ry="9.2"/>
		<ellipse fill="#F9C8D7" cx="27.358" cy="3.797" rx="24.733" ry="9.16"/>
		<ellipse fill="#F9C9D8" cx="27.357" cy="3.798" rx="24.624" ry="9.12"/>
		<ellipse fill="#F9C9D8" cx="27.357" cy="3.8" rx="24.516" ry="9.079"/>
		<ellipse fill="#F9CAD8" cx="27.357" cy="3.801" rx="24.407" ry="9.039"/>
		<ellipse fill="#F9CAD8" cx="27.358" cy="3.803" rx="24.299" ry="8.999"/>
		<ellipse fill="#F9CAD9" cx="27.358" cy="3.804" rx="24.191" ry="8.959"/>
		<ellipse fill="#F9CBD9" cx="27.358" cy="3.805" rx="24.083" ry="8.918"/>
		<ellipse fill="#F9CBD9" cx="27.357" cy="3.806" rx="23.974" ry="8.878"/>
		<ellipse fill="#F9CBDA" cx="27.358" cy="3.808" rx="23.866" ry="8.839"/>
		<ellipse fill="#F9CCDA" cx="27.358" cy="3.81" rx="23.758" ry="8.798"/>
		<ellipse fill="#F9CCDA" cx="27.358" cy="3.811" rx="23.649" ry="8.758"/>
		<ellipse fill="#F9CDDA" cx="27.358" cy="3.812" rx="23.542" ry="8.718"/>
		<ellipse fill="#F9CDDB" cx="27.358" cy="3.813" rx="23.433" ry="8.678"/>
		<ellipse fill="#F9CDDB" cx="27.358" cy="3.814" rx="23.325" ry="8.638"/>
		<ellipse fill="#F9CEDB" cx="27.358" cy="3.815" rx="23.217" ry="8.599"/>
		<ellipse fill="#F9CEDC" cx="27.358" cy="3.817" rx="23.108" ry="8.557"/>
		<ellipse fill="#F9CFDC" cx="27.358" cy="3.818" rx="23" ry="8.518"/>
		<ellipse fill="#F9CFDC" cx="27.358" cy="3.82" rx="22.891" ry="8.478"/>
		<ellipse fill="#F9CFDD" cx="27.358" cy="3.821" rx="22.783" ry="8.438"/>
		<ellipse fill="#F9D0DD" cx="27.358" cy="3.822" rx="22.675" ry="8.398"/>
		<ellipse fill="#FAD0DD" cx="27.358" cy="3.823" rx="22.567" ry="8.357"/>
		<ellipse fill="#FAD1DD" cx="27.358" cy="3.825" rx="22.458" ry="8.317"/>
		<ellipse fill="#FAD1DE" cx="27.358" cy="3.826" rx="22.35" ry="8.277"/>
		<ellipse fill="#FAD1DE" cx="27.358" cy="3.828" rx="22.242" ry="8.237"/>
		<ellipse fill="#FAD2DE" cx="27.358" cy="3.829" rx="22.133" ry="8.196"/>
		<ellipse fill="#FAD2DF" cx="27.358" cy="3.83" rx="22.025" ry="8.157"/>
		<ellipse fill="#FAD3DF" cx="27.358" cy="3.832" rx="21.917" ry="8.116"/>
		<ellipse fill="#FAD3DF" cx="27.358" cy="3.833" rx="21.808" ry="8.076"/>
		<ellipse fill="#FAD3E0" cx="27.358" cy="3.834" rx="21.701" ry="8.036"/>
		<ellipse fill="#FAD4E0" cx="27.358" cy="3.836" rx="21.592" ry="7.996"/>
		<ellipse fill="#FAD4E0" cx="27.358" cy="3.837" rx="21.483" ry="7.956"/>
		<ellipse fill="#FAD5E0" cx="27.358" cy="3.838" rx="21.375" ry="7.916"/>
		<ellipse fill="#FAD5E1" cx="27.358" cy="3.839" rx="21.267" ry="7.876"/>
		<ellipse fill="#FAD5E1" cx="27.358" cy="3.841" rx="21.159" ry="7.836"/>
		<ellipse fill="#FAD6E1" cx="27.358" cy="3.842" rx="21.05" ry="7.795"/>
		<ellipse fill="#FAD6E2" cx="27.358" cy="3.843" rx="20.942" ry="7.755"/>
		<ellipse fill="#FAD6E2" cx="27.358" cy="3.845" rx="20.834" ry="7.715"/>
		<ellipse fill="#FAD7E2" cx="27.358" cy="3.846" rx="20.726" ry="7.676"/>
		<ellipse fill="#FAD7E2" cx="27.358" cy="3.848" rx="20.617" ry="7.635"/>
		<ellipse fill="#FAD8E3" cx="27.358" cy="3.849" rx="20.509" ry="7.595"/>
		<ellipse fill="#FBD8E3" cx="27.358" cy="3.85" rx="20.401" ry="7.555"/>
		<ellipse fill="#FBD8E3" cx="27.358" cy="3.852" rx="20.293" ry="7.515"/>
		<ellipse fill="#FBD9E4" cx="27.358" cy="3.853" rx="20.184" ry="7.475"/>
		<ellipse fill="#FBD9E4" cx="27.358" cy="3.854" rx="20.076" ry="7.435"/>
		<ellipse fill="#FBDAE4" cx="27.358" cy="3.855" rx="19.968" ry="7.395"/>
		<ellipse fill="#FBDAE5" cx="27.358" cy="3.856" rx="19.86" ry="7.354"/>
		<ellipse fill="#FBDAE5" cx="27.358" cy="3.858" rx="19.751" ry="7.314"/>
		<ellipse fill="#FBDBE5" cx="27.358" cy="3.859" rx="19.643" ry="7.274"/>
		<ellipse fill="#FBDBE5" cx="27.358" cy="3.861" rx="19.535" ry="7.233"/>
		<ellipse fill="#FBDCE6" cx="27.358" cy="3.862" rx="19.426" ry="7.194"/>
		<ellipse fill="#FBDCE6" cx="27.358" cy="3.863" rx="19.318" ry="7.154"/>
	</g>
	<g>
		<g>
			<path fill="#F9D4E4" d="M53.361,3.325c0,0,0,0.058,0.002,0.17c0.004,0.056,0,0.126-0.002,0.209
				c-0.004,0.042-0.006,0.087-0.008,0.136c-0.006,0.048-0.012,0.099-0.018,0.152c-0.01,0.11-0.038,0.23-0.062,0.362
				c-0.031,0.131-0.066,0.275-0.118,0.427c-0.098,0.304-0.25,0.643-0.46,0.999c-0.419,0.713-1.094,1.479-1.991,2.196
				c-0.896,0.72-2.002,1.406-3.272,2.014c-0.634,0.306-1.307,0.6-2.013,0.873c-0.706,0.276-1.449,0.525-2.219,0.763
				c-1.538,0.472-3.187,0.877-4.909,1.195c-0.862,0.163-1.741,0.3-2.634,0.419c-0.894,0.122-1.8,0.222-2.717,0.3
				c-1.831,0.162-3.696,0.236-5.567,0.24c-1.859-0.003-3.73-0.078-5.561-0.24c-0.916-0.078-1.822-0.177-2.715-0.298
				c-0.894-0.121-1.775-0.257-2.635-0.419c-1.723-0.321-3.373-0.718-4.912-1.192c-0.768-0.238-1.509-0.491-2.216-0.767
				c-0.707-0.274-1.379-0.568-2.012-0.872C6.051,9.383,4.945,8.697,4.048,7.977C3.601,7.615,3.205,7.25,2.872,6.878
				C2.538,6.507,2.268,6.134,2.058,5.78C1.845,5.425,1.696,5.085,1.596,4.781C1.546,4.629,1.512,4.485,1.48,4.354
				C1.456,4.222,1.429,4.102,1.42,3.992C1.413,3.938,1.407,3.888,1.401,3.839C1.399,3.791,1.397,3.746,1.394,3.704
				C1.389,3.621,1.387,3.552,1.391,3.495c0.001-0.112,0.003-0.17,0.003-0.17s0.005,0.058,0.015,0.17
				C1.412,3.551,1.42,3.619,1.434,3.701C1.44,3.741,1.447,3.785,1.453,3.833c0.011,0.047,0.021,0.096,0.034,0.148
				c0.084,0.421,0.308,1.022,0.766,1.673c0.455,0.651,1.16,1.328,2.065,1.966C4.77,7.938,5.277,8.243,5.825,8.537
				C6.374,8.831,6.966,9.115,7.598,9.38c1.262,0.533,2.678,0.997,4.197,1.404c1.52,0.407,3.147,0.744,4.845,1.017
				c0.848,0.136,1.714,0.255,2.594,0.357c0.879,0.099,1.77,0.184,2.671,0.254c1.803,0.132,3.635,0.204,5.476,0.201
				c1.831,0.003,3.67-0.069,5.468-0.201c0.903-0.069,1.794-0.151,2.674-0.252c0.879-0.102,1.744-0.222,2.592-0.355
				c1.698-0.276,3.329-0.606,4.847-1.014c0.762-0.202,1.491-0.427,2.193-0.659c0.702-0.233,1.371-0.483,2.003-0.75
				c0.631-0.265,1.222-0.549,1.772-0.842c0.549-0.293,1.054-0.601,1.509-0.919c0.904-0.639,1.61-1.313,2.063-1.966
				c0.458-0.651,0.682-1.252,0.767-1.673c0.012-0.052,0.021-0.102,0.031-0.148c0.008-0.047,0.014-0.091,0.02-0.132
				c0.015-0.082,0.024-0.15,0.026-0.206C53.355,3.382,53.361,3.325,53.361,3.325z"/>
		</g>
	</g>
	<path fill="#551B11" d="M27.417,33.331c-1.644,0-5.433-3.205-4.648-4.649c0.543-0.996,3.402,0,4.535,0c1.19,0,4.192-1.045,4.762,0
		C32.85,30.126,29.06,33.331,27.417,33.331z"/>
	<path fill="#F5A4B8" d="M27.398,31.992c-0.784,0-2.591-1.526-2.217-2.216c0.259-0.476,1.623,0,2.164,0c0.566,0,1.998-0.499,2.27,0
		C29.99,30.466,28.181,31.992,27.398,31.992z"/>
	<g opacity="0.5">
		
			<image overflow="visible" width="830" height="733" xlink:href="142D83B080CA775B.png"  transform="matrix(0.0224 0 0 0.0224 32.4368 20.0059)">
		</image>
	</g>
	<g opacity="0.5">
		
			<image overflow="visible" width="830" height="733" xlink:href="142D83B080CA7759.png"  transform="matrix(0.0224 0 0 0.0224 2.7268 20.0059)">
		</image>
	</g>
	<g>
		<ellipse fill="#551B11" cx="12.398" cy="21.332" rx="4.16" ry="4.835"/>
		<g>
			<path fill="#FFFFFF" d="M10.721,18.498c-0.26-0.145-0.428-0.166-0.708-0.077c-0.562,0.195-0.455,0.575-0.353,1.106
				c0.134,0.761,1.034,2.151,1.791,2.231c0.881,0.091,1.061-1.589,1.149-2.237c0.032-0.378,0.062-0.755-0.154-1.082
				c-0.177-0.259-0.378-0.354-0.68-0.3c-0.389,0.059-0.362,0.436-0.651,0.578C10.975,18.785,10.943,18.628,10.721,18.498z"/>
		</g>
		<g>
			<path fill="#FFFFFF" d="M12.865,24.633c-0.277,0.516-1.174-0.173-0.504-0.388c-0.67,0.215-0.67-0.764,0-0.551
				c-0.67-0.213,0.227-0.904,0.504-0.389c-0.277-0.516,0.993-0.516,0.715,0c0.278-0.516,1.174,0.176,0.504,0.389
				c0.67-0.213,0.67,0.766,0,0.551c0.67,0.215-0.226,0.903-0.504,0.388C13.859,25.148,12.588,25.148,12.865,24.633z"/>
		</g>
	</g>
	<g opacity="0.5">
		<linearGradient id="SVGID_1_" gradientUnits="userSpaceOnUse" x1="13.9841" y1="-2.1279" x2="15.8381" y2="-2.1279">
			<stop  offset="0" style="stop-color:#EB008B"/>
			<stop  offset="0.1179" style="stop-color:#EB068D"/>
			<stop  offset="0.2681" style="stop-color:#EC1593"/>
			<stop  offset="0.4359" style="stop-color:#EE309E"/>
			<stop  offset="0.6164" style="stop-color:#F054AC"/>
			<stop  offset="0.8072" style="stop-color:#F383BF"/>
			<stop  offset="1" style="stop-color:#F7BAD5"/>
		</linearGradient>
		<polygon fill="url(#SVGID_1_)" points="15.585,-1.49 14.937,-1.201 14.275,-1.454 13.984,-2.102 14.238,-2.765 14.887,-3.055 
			15.55,-2.801 15.838,-2.152 		"/>
		<linearGradient id="SVGID_2_" gradientUnits="userSpaceOnUse" x1="24.5959" y1="3.6802" x2="26.45" y2="3.6802">
			<stop  offset="0" style="stop-color:#EB008B"/>
			<stop  offset="0.1179" style="stop-color:#EB068D"/>
			<stop  offset="0.2681" style="stop-color:#EC1593"/>
			<stop  offset="0.4359" style="stop-color:#EE309E"/>
			<stop  offset="0.6164" style="stop-color:#F054AC"/>
			<stop  offset="0.8072" style="stop-color:#F383BF"/>
			<stop  offset="1" style="stop-color:#F7BAD5"/>
		</linearGradient>
		<polygon fill="url(#SVGID_2_)" points="26.196,4.318 25.547,4.607 24.884,4.353 24.596,3.706 24.85,3.043 25.497,2.753 
			26.16,3.007 26.45,3.655 		"/>
		<linearGradient id="SVGID_3_" gradientUnits="userSpaceOnUse" x1="17.741" y1="4.6074" x2="19.595" y2="4.6074">
			<stop  offset="0" style="stop-color:#EB008B"/>
			<stop  offset="0.1179" style="stop-color:#EB068D"/>
			<stop  offset="0.2681" style="stop-color:#EC1593"/>
			<stop  offset="0.4359" style="stop-color:#EE309E"/>
			<stop  offset="0.6164" style="stop-color:#F054AC"/>
			<stop  offset="0.8072" style="stop-color:#F383BF"/>
			<stop  offset="1" style="stop-color:#F7BAD5"/>
		</linearGradient>
		<polygon fill="url(#SVGID_3_)" points="19.341,5.245 18.692,5.534 18.029,5.28 17.741,4.632 17.994,3.97 18.642,3.681 
			19.305,3.934 19.595,4.582 		"/>
		<linearGradient id="SVGID_4_" gradientUnits="userSpaceOnUse" x1="28.885" y1="-0.8223" x2="30.7395" y2="-0.8223">
			<stop  offset="0" style="stop-color:#EB008B"/>
			<stop  offset="0.1179" style="stop-color:#EB068D"/>
			<stop  offset="0.2681" style="stop-color:#EC1593"/>
			<stop  offset="0.4359" style="stop-color:#EE309E"/>
			<stop  offset="0.6164" style="stop-color:#F054AC"/>
			<stop  offset="0.8072" style="stop-color:#F383BF"/>
			<stop  offset="1" style="stop-color:#F7BAD5"/>
		</linearGradient>
		<polygon fill="url(#SVGID_4_)" points="30.486,-0.185 29.837,0.105 29.176,-0.149 28.885,-0.797 29.138,-1.46 29.787,-1.75 
			30.45,-1.497 30.74,-0.848 		"/>
		<linearGradient id="SVGID_5_" gradientUnits="userSpaceOnUse" x1="32.2151" y1="4.811" x2="34.0676" y2="4.811">
			<stop  offset="0" style="stop-color:#EB008B"/>
			<stop  offset="0.1179" style="stop-color:#EB068D"/>
			<stop  offset="0.2681" style="stop-color:#EC1593"/>
			<stop  offset="0.4359" style="stop-color:#EE309E"/>
			<stop  offset="0.6164" style="stop-color:#F054AC"/>
			<stop  offset="0.8072" style="stop-color:#F383BF"/>
			<stop  offset="1" style="stop-color:#F7BAD5"/>
		</linearGradient>
		<polygon fill="url(#SVGID_5_)" points="33.816,5.449 33.167,5.738 32.504,5.486 32.215,4.836 32.467,4.174 33.117,3.884 
			33.779,4.139 34.068,4.786 		"/>
		<linearGradient id="SVGID_6_" gradientUnits="userSpaceOnUse" x1="41.5793" y1="6.665" x2="43.4329" y2="6.665">
			<stop  offset="0" style="stop-color:#EB008B"/>
			<stop  offset="0.1179" style="stop-color:#EB068D"/>
			<stop  offset="0.2681" style="stop-color:#EC1593"/>
			<stop  offset="0.4359" style="stop-color:#EE309E"/>
			<stop  offset="0.6164" style="stop-color:#F054AC"/>
			<stop  offset="0.8072" style="stop-color:#F383BF"/>
			<stop  offset="1" style="stop-color:#F7BAD5"/>
		</linearGradient>
		<polygon fill="url(#SVGID_6_)" points="43.179,7.304 42.531,7.592 41.869,7.339 41.579,6.691 41.831,6.027 42.481,5.738 
			43.144,5.992 43.433,6.64 		"/>
		<linearGradient id="SVGID_7_" gradientUnits="userSpaceOnUse" x1="20.5647" y1="8.917" x2="22.4197" y2="8.917">
			<stop  offset="0" style="stop-color:#EB008B"/>
			<stop  offset="0.1179" style="stop-color:#EB068D"/>
			<stop  offset="0.2681" style="stop-color:#EC1593"/>
			<stop  offset="0.4359" style="stop-color:#EE309E"/>
			<stop  offset="0.6164" style="stop-color:#F054AC"/>
			<stop  offset="0.8072" style="stop-color:#F383BF"/>
			<stop  offset="1" style="stop-color:#F7BAD5"/>
		</linearGradient>
		<polygon fill="url(#SVGID_7_)" points="22.164,9.556 21.518,9.844 20.854,9.59 20.565,8.943 20.818,8.28 21.467,7.99 
			22.128,8.243 22.42,8.892 		"/>
		<linearGradient id="SVGID_8_" gradientUnits="userSpaceOnUse" x1="9.5417" y1="3.8848" x2="11.3958" y2="3.8848">
			<stop  offset="0" style="stop-color:#EB008B"/>
			<stop  offset="0.1179" style="stop-color:#EB068D"/>
			<stop  offset="0.2681" style="stop-color:#EC1593"/>
			<stop  offset="0.4359" style="stop-color:#EE309E"/>
			<stop  offset="0.6164" style="stop-color:#F054AC"/>
			<stop  offset="0.8072" style="stop-color:#F383BF"/>
			<stop  offset="1" style="stop-color:#F7BAD5"/>
		</linearGradient>
		<polygon fill="url(#SVGID_8_)" points="11.142,4.522 10.494,4.811 9.832,4.558 9.542,3.91 9.796,3.247 10.443,2.958 11.107,3.212 
			11.396,3.859 		"/>
		<linearGradient id="SVGID_9_" gradientUnits="userSpaceOnUse" x1="28.885" y1="9.8438" x2="30.7395" y2="9.8438">
			<stop  offset="0" style="stop-color:#EB008B"/>
			<stop  offset="0.1179" style="stop-color:#EB068D"/>
			<stop  offset="0.2681" style="stop-color:#EC1593"/>
			<stop  offset="0.4359" style="stop-color:#EE309E"/>
			<stop  offset="0.6164" style="stop-color:#F054AC"/>
			<stop  offset="0.8072" style="stop-color:#F383BF"/>
			<stop  offset="1" style="stop-color:#F7BAD5"/>
		</linearGradient>
		<polygon fill="url(#SVGID_9_)" points="30.486,10.482 29.837,10.771 29.176,10.518 28.885,9.87 29.138,9.207 29.787,8.917 
			30.45,9.171 30.74,9.818 		"/>
		<linearGradient id="SVGID_10_" gradientUnits="userSpaceOnUse" x1="37.8704" y1="9.8535" x2="39.7249" y2="9.8535">
			<stop  offset="0" style="stop-color:#EB008B"/>
			<stop  offset="0.1179" style="stop-color:#EB068D"/>
			<stop  offset="0.2681" style="stop-color:#EC1593"/>
			<stop  offset="0.4359" style="stop-color:#EE309E"/>
			<stop  offset="0.6164" style="stop-color:#F054AC"/>
			<stop  offset="0.8072" style="stop-color:#F383BF"/>
			<stop  offset="1" style="stop-color:#F7BAD5"/>
		</linearGradient>
		<polygon fill="url(#SVGID_10_)" points="39.471,10.49 38.823,10.781 38.161,10.527 37.87,9.879 38.124,9.215 38.773,8.926 
			39.436,9.179 39.725,9.828 		"/>
		<linearGradient id="SVGID_11_" gradientUnits="userSpaceOnUse" x1="43.4387" y1="0.1045" x2="45.2913" y2="0.1045">
			<stop  offset="0" style="stop-color:#EB008B"/>
			<stop  offset="0.1179" style="stop-color:#EB068D"/>
			<stop  offset="0.2681" style="stop-color:#EC1593"/>
			<stop  offset="0.4359" style="stop-color:#EE309E"/>
			<stop  offset="0.6164" style="stop-color:#F054AC"/>
			<stop  offset="0.8072" style="stop-color:#F383BF"/>
			<stop  offset="1" style="stop-color:#F7BAD5"/>
		</linearGradient>
		<polygon fill="url(#SVGID_11_)" points="45.038,0.742 44.391,1.032 43.726,0.778 43.439,0.129 43.693,-0.533 44.339,-0.823 
			45.002,-0.569 45.291,0.078 		"/>
		<linearGradient id="SVGID_12_" gradientUnits="userSpaceOnUse" x1="35.1204" y1="-2.1279" x2="36.9709" y2="-2.1279">
			<stop  offset="0" style="stop-color:#EB008B"/>
			<stop  offset="0.1179" style="stop-color:#EB068D"/>
			<stop  offset="0.2681" style="stop-color:#EC1593"/>
			<stop  offset="0.4359" style="stop-color:#EE309E"/>
			<stop  offset="0.6164" style="stop-color:#F054AC"/>
			<stop  offset="0.8072" style="stop-color:#F383BF"/>
			<stop  offset="1" style="stop-color:#F7BAD5"/>
		</linearGradient>
		<polygon fill="url(#SVGID_12_)" points="36.717,-1.49 36.071,-1.201 35.407,-1.454 35.12,-2.102 35.372,-2.765 36.021,-3.055 
			36.684,-2.801 36.971,-2.152 		"/>
		<linearGradient id="SVGID_13_" gradientUnits="userSpaceOnUse" x1="22.6692" y1="-2.1279" x2="24.5242" y2="-2.1279">
			<stop  offset="0" style="stop-color:#EB008B"/>
			<stop  offset="0.1179" style="stop-color:#EB068D"/>
			<stop  offset="0.2681" style="stop-color:#EC1593"/>
			<stop  offset="0.4359" style="stop-color:#EE309E"/>
			<stop  offset="0.6164" style="stop-color:#F054AC"/>
			<stop  offset="0.8072" style="stop-color:#F383BF"/>
			<stop  offset="1" style="stop-color:#F7BAD5"/>
		</linearGradient>
		<polygon fill="url(#SVGID_13_)" points="24.271,-1.49 23.622,-1.201 22.96,-1.454 22.669,-2.102 22.923,-2.765 23.571,-3.055 
			24.235,-2.801 24.524,-2.152 		"/>
	</g>
	<g>
		<g>
			<path fill="#551B11" d="M45.477,16.377c-2.188,2.496-5.116,4.207-7.957,5.853c-0.479,0.278-0.429,0.923,0,1.211
				c2.884,1.944,6.037,2.816,9.45,3.324c0.885,0.131,1.265-1.219,0.373-1.351c-3.299-0.492-6.328-1.306-9.117-3.185
				c0,0.403,0,0.808,0,1.211c2.938-1.703,5.982-3.492,8.242-6.072C47.062,16.691,46.074,15.695,45.477,16.377L45.477,16.377z"/>
		</g>
		<g>
			<path fill="#551B11" d="M38.293,23.825c2.071,0.002,3.989-0.167,6.019-0.603c0.886-0.188,0.51-1.541-0.371-1.352
				c-1.91,0.408-3.7,0.556-5.647,0.554C37.388,22.423,37.388,23.825,38.293,23.825L38.293,23.825z"/>
		</g>
	</g>
</g>
<g>
	<g>
		<path fill="#551B11" d="M31.544-1.087c0.084-0.087,0.157-0.116,0.216-0.089c0.06,0.028,0.089,0.1,0.089,0.217V9.044
			c0,0.118-0.029,0.19-0.089,0.217c-0.059,0.028-0.132-0.001-0.216-0.087l-4.827-4.825c-0.04-0.041-0.07-0.083-0.087-0.129v4.825
			c0,0.118-0.031,0.19-0.088,0.217c-0.059,0.028-0.133-0.001-0.218-0.087L21.5,4.349c-0.086-0.086-0.128-0.187-0.128-0.306
			c0-0.117,0.042-0.219,0.128-0.306l4.824-4.824c0.085-0.087,0.16-0.116,0.218-0.089c0.057,0.028,0.088,0.1,0.088,0.217v4.825
			c0.018-0.044,0.048-0.089,0.087-0.129L31.544-1.087z"/>
	</g>
</g>
</svg>
