<?xml version="1.0" encoding="utf-8"?>
<!-- Generator: Adobe Illustrator 16.0.0, SVG Export Plug-In . SVG Version: 6.00 Build 0)  -->
<!DOCTYPE svg PUBLIC "-//W3C//DTD SVG 1.1//EN" "http://www.w3.org/Graphics/SVG/1.1/DTD/svg11.dtd">
<svg version="1.1" id="Layer_1" xmlns="http://www.w3.org/2000/svg" xmlns:xlink="http://www.w3.org/1999/xlink" x="0px" y="0px"
	 width="55.145px" height="50.02px" viewBox="0 -6.061 55.145 50.02" enable-background="new 0 -6.061 55.145 50.02"
	 xml:space="preserve">
<g>
	<g>
		<g>
			<g>
				<g>
					<ellipse fill="#FFCB35" cx="27.573" cy="4.896" rx="26.017" ry="11.255"/>
				</g>
				<g>
					<ellipse fill="#FFCB35" cx="27.573" cy="32.55" rx="26.017" ry="11.256"/>
				</g>
				<rect x="1.555" y="4.896" fill="#FFCB35" width="51.999" height="28.248"/>
			</g>
		</g>
		<g>
			<g>
				<g>
					<ellipse fill="#FFCB36" cx="27.573" cy="4.943" rx="25.938" ry="11.221"/>
				</g>
				<g>
					<ellipse fill="#FFCB36" cx="27.573" cy="32.513" rx="25.938" ry="11.222"/>
				</g>
				<rect x="1.635" y="4.943" fill="#FFCB36" width="51.84" height="28.162"/>
			</g>
		</g>
		<g>
			<g>
				<g>
					<ellipse fill="#FFCC38" cx="27.573" cy="4.991" rx="25.859" ry="11.187"/>
				</g>
				<g>
					<ellipse fill="#FFCC38" cx="27.573" cy="32.476" rx="25.859" ry="11.188"/>
				</g>
				<rect x="1.714" y="4.991" fill="#FFCC38" width="51.682" height="28.076"/>
			</g>
		</g>
		<g>
			<g>
				<g>
					<ellipse fill="#FFCC39" cx="27.573" cy="5.037" rx="25.78" ry="11.152"/>
				</g>
				<g>
					<ellipse fill="#FFCC39" cx="27.573" cy="32.438" rx="25.78" ry="11.152"/>
				</g>
				<rect x="1.793" y="5.037" fill="#FFCC39" width="51.524" height="27.99"/>
			</g>
		</g>
		<g>
			<g>
				<g>
					<ellipse fill="#FFCC3B" cx="27.573" cy="5.084" rx="25.701" ry="11.119"/>
				</g>
				<g>
					<ellipse fill="#FFCC3B" cx="27.573" cy="32.401" rx="25.701" ry="11.119"/>
				</g>
				<rect x="1.872" y="5.084" fill="#FFCC3B" width="51.367" height="27.904"/>
			</g>
		</g>
		<g>
			<g>
				<g>
					<ellipse fill="#FFCD3C" cx="27.573" cy="5.131" rx="25.622" ry="11.083"/>
				</g>
				<g>
					<ellipse fill="#FFCD3C" cx="27.573" cy="32.364" rx="25.622" ry="11.085"/>
				</g>
				<rect x="1.951" y="5.131" fill="#FFCD3C" width="51.208" height="27.819"/>
			</g>
		</g>
		<g>
			<g>
				<g>
					<ellipse fill="#FFCD3E" cx="27.573" cy="5.178" rx="25.543" ry="11.049"/>
				</g>
				<g>
					<ellipse fill="#FFCD3E" cx="27.573" cy="32.326" rx="25.543" ry="11.051"/>
				</g>
				<rect x="2.03" y="5.178" fill="#FFCD3E" width="51.05" height="27.732"/>
			</g>
		</g>
		<g>
			<g>
				<g>
					<ellipse fill="#FFCD3F" cx="27.573" cy="5.225" rx="25.464" ry="11.016"/>
				</g>
				<g>
					<ellipse fill="#FFCD3F" cx="27.573" cy="32.289" rx="25.464" ry="11.017"/>
				</g>
				<rect x="2.109" y="5.225" fill="#FFCD3F" width="50.892" height="27.647"/>
			</g>
		</g>
		<g>
			<g>
				<g>
					<ellipse fill="#FFCE41" cx="27.573" cy="5.272" rx="25.384" ry="10.981"/>
				</g>
				<g>
					<ellipse fill="#FFCE41" cx="27.573" cy="32.253" rx="25.384" ry="10.981"/>
				</g>
				<rect x="2.189" y="5.272" fill="#FFCE41" width="50.733" height="27.561"/>
			</g>
		</g>
		<g>
			<g>
				<g>
					<ellipse fill="#FFCE42" cx="27.573" cy="5.319" rx="25.305" ry="10.947"/>
				</g>
				<g>
					<ellipse fill="#FFCE42" cx="27.573" cy="32.215" rx="25.305" ry="10.948"/>
				</g>
				<rect x="2.268" y="5.319" fill="#FFCE42" width="50.575" height="27.474"/>
			</g>
		</g>
		<g>
			<g>
				<g>
					<ellipse fill="#FFCE44" cx="27.573" cy="5.366" rx="25.226" ry="10.912"/>
				</g>
				<g>
					<ellipse fill="#FFCE44" cx="27.573" cy="32.178" rx="25.226" ry="10.914"/>
				</g>
				<rect x="2.346" y="5.366" fill="#FFCE44" width="50.417" height="27.389"/>
			</g>
		</g>
		<g>
			<g>
				<g>
					<ellipse fill="#FFCF45" cx="27.573" cy="5.413" rx="25.147" ry="10.879"/>
				</g>
				<g>
					<ellipse fill="#FFCF45" cx="27.573" cy="32.142" rx="25.147" ry="10.879"/>
				</g>
				<rect x="2.426" y="5.413" fill="#FFCF45" width="50.259" height="27.303"/>
			</g>
		</g>
		<g>
			<g>
				<g>
					<ellipse fill="#FFCF47" cx="27.573" cy="5.459" rx="25.068" ry="10.845"/>
				</g>
				<g>
					<ellipse fill="#FFCF47" cx="27.573" cy="32.104" rx="25.068" ry="10.845"/>
				</g>
				<rect x="2.505" y="5.459" fill="#FFCF47" width="50.101" height="27.218"/>
			</g>
		</g>
		<g>
			<g>
				<g>
					<ellipse fill="#FFCF48" cx="27.573" cy="5.506" rx="24.989" ry="10.811"/>
				</g>
				<g>
					<ellipse fill="#FFCF48" cx="27.573" cy="32.066" rx="24.989" ry="10.812"/>
				</g>
				<rect x="2.584" y="5.506" fill="#FFCF48" width="49.942" height="27.131"/>
			</g>
		</g>
		<g>
			<g>
				<g>
					<ellipse fill="#FFD04A" cx="27.573" cy="5.554" rx="24.91" ry="10.775"/>
				</g>
				<g>
					<ellipse fill="#FFD04A" cx="27.573" cy="32.029" rx="24.91" ry="10.776"/>
				</g>
				<rect x="2.663" y="5.554" fill="#FFD04A" width="49.784" height="27.045"/>
			</g>
		</g>
		<g>
			<g>
				<g>
					<ellipse fill="#FFD04B" cx="27.573" cy="5.601" rx="24.831" ry="10.741"/>
				</g>
				<g>
					<ellipse fill="#FFD04B" cx="27.573" cy="31.992" rx="24.831" ry="10.742"/>
				</g>
				<rect x="2.742" y="5.601" fill="#FFD04B" width="49.627" height="26.959"/>
			</g>
		</g>
		<g>
			<g>
				<g>
					<ellipse fill="#FFD04D" cx="27.573" cy="5.647" rx="24.751" ry="10.708"/>
				</g>
				<g>
					<ellipse fill="#FFD04D" cx="27.573" cy="31.955" rx="24.751" ry="10.709"/>
				</g>
				<rect x="2.822" y="5.647" fill="#FFD04D" width="49.469" height="26.874"/>
			</g>
		</g>
		<g>
			<g>
				<g>
					<ellipse fill="#FFD14E" cx="27.573" cy="5.694" rx="24.672" ry="10.673"/>
				</g>
				<g>
					<ellipse fill="#FFD14E" cx="27.573" cy="31.918" rx="24.672" ry="10.674"/>
				</g>
				<rect x="2.901" y="5.694" fill="#FFD14E" width="49.311" height="26.787"/>
			</g>
		</g>
		<g>
			<g>
				<g>
					<ellipse fill="#FFD150" cx="27.573" cy="5.741" rx="24.593" ry="10.639"/>
				</g>
				<g>
					<ellipse fill="#FFD150" cx="27.573" cy="31.881" rx="24.593" ry="10.64"/>
				</g>
				<rect x="2.98" y="5.741" fill="#FFD150" width="49.152" height="26.701"/>
			</g>
		</g>
		<g>
			<g>
				<g>
					<ellipse fill="#FFD151" cx="27.573" cy="5.788" rx="24.514" ry="10.605"/>
				</g>
				<g>
					<ellipse fill="#FFD151" cx="27.573" cy="31.844" rx="24.514" ry="10.605"/>
				</g>
				<rect x="3.059" y="5.788" fill="#FFD151" width="48.994" height="26.616"/>
			</g>
		</g>
		<g>
			<g>
				<g>
					<ellipse fill="#FFD253" cx="27.573" cy="5.835" rx="24.435" ry="10.571"/>
				</g>
				<g>
					<ellipse fill="#FFD253" cx="27.573" cy="31.807" rx="24.435" ry="10.571"/>
				</g>
				<rect x="3.138" y="5.835" fill="#FFD253" width="48.836" height="26.53"/>
			</g>
		</g>
		<g>
			<g>
				<g>
					<ellipse fill="#FFD254" cx="27.573" cy="5.882" rx="24.356" ry="10.537"/>
				</g>
				<g>
					<ellipse fill="#FFD254" cx="27.573" cy="31.77" rx="24.356" ry="10.537"/>
				</g>
				<rect x="3.218" y="5.882" fill="#FFD254" width="48.677" height="26.444"/>
			</g>
		</g>
		<g>
			<g>
				<g>
					<ellipse fill="#FFD255" cx="27.573" cy="5.929" rx="24.277" ry="10.502"/>
				</g>
				<g>
					<ellipse fill="#FFD255" cx="27.573" cy="31.731" rx="24.277" ry="10.503"/>
				</g>
				<rect x="3.296" y="5.929" fill="#FFD255" width="48.52" height="26.358"/>
			</g>
		</g>
		<g>
			<g>
				<g>
					<ellipse fill="#FFD357" cx="27.573" cy="5.976" rx="24.198" ry="10.468"/>
				</g>
				<g>
					<ellipse fill="#FFD357" cx="27.573" cy="31.695" rx="24.198" ry="10.469"/>
				</g>
				<rect x="3.375" y="5.976" fill="#FFD357" width="48.362" height="26.272"/>
			</g>
		</g>
		<g>
			<g>
				<g>
					<ellipse fill="#FFD358" cx="27.573" cy="6.022" rx="24.118" ry="10.434"/>
				</g>
				<g>
					<ellipse fill="#FFD358" cx="27.573" cy="31.658" rx="24.118" ry="10.434"/>
				</g>
				<rect x="3.455" y="6.022" fill="#FFD358" width="48.203" height="26.187"/>
			</g>
		</g>
		<g>
			<g>
				<g>
					<ellipse fill="#FFD35A" cx="27.573" cy="6.069" rx="24.04" ry="10.399"/>
				</g>
				<g>
					<ellipse fill="#FFD35A" cx="27.573" cy="31.62" rx="24.04" ry="10.4"/>
				</g>
				<rect x="3.533" y="6.069" fill="#FFD35A" width="48.046" height="26.101"/>
			</g>
		</g>
		<g>
			<g>
				<g>
					<ellipse fill="#FFD45B" cx="27.573" cy="6.116" rx="23.96" ry="10.365"/>
				</g>
				<g>
					<ellipse fill="#FFD45B" cx="27.573" cy="31.583" rx="23.96" ry="10.366"/>
				</g>
				<rect x="3.613" y="6.116" fill="#FFD45B" width="47.888" height="26.015"/>
			</g>
		</g>
		<g>
			<g>
				<g>
					<ellipse fill="#FFD45D" cx="27.573" cy="6.163" rx="23.881" ry="10.332"/>
				</g>
				<g>
					<ellipse fill="#FFD45D" cx="27.573" cy="31.546" rx="23.881" ry="10.332"/>
				</g>
				<rect x="3.692" y="6.163" fill="#FFD45D" width="47.729" height="25.929"/>
			</g>
		</g>
		<g>
			<g>
				<g>
					<ellipse fill="#FFD45E" cx="27.573" cy="6.21" rx="23.802" ry="10.297"/>
				</g>
				<g>
					<ellipse fill="#FFD45E" cx="27.573" cy="31.509" rx="23.802" ry="10.298"/>
				</g>
				<rect x="3.772" y="6.21" fill="#FFD45E" width="47.571" height="25.842"/>
			</g>
		</g>
		<g>
			<g>
				<g>
					<ellipse fill="#FFD560" cx="27.573" cy="6.257" rx="23.723" ry="10.263"/>
				</g>
				<g>
					<ellipse fill="#FFD560" cx="27.573" cy="31.472" rx="23.723" ry="10.263"/>
				</g>
				<rect x="3.85" y="6.257" fill="#FFD560" width="47.414" height="25.756"/>
			</g>
		</g>
		<g>
			<g>
				<g>
					<ellipse fill="#FFD561" cx="27.573" cy="6.304" rx="23.644" ry="10.229"/>
				</g>
				<g>
					<ellipse fill="#FFD561" cx="27.573" cy="31.435" rx="23.644" ry="10.229"/>
				</g>
				<rect x="3.929" y="6.304" fill="#FFD561" width="47.255" height="25.67"/>
			</g>
		</g>
		<g>
			<g>
				<g>
					<ellipse fill="#FFD563" cx="27.573" cy="6.352" rx="23.565" ry="10.194"/>
				</g>
				<g>
					<ellipse fill="#FFD563" cx="27.573" cy="31.397" rx="23.565" ry="10.194"/>
				</g>
				<rect x="4.009" y="6.352" fill="#FFD563" width="47.097" height="25.584"/>
			</g>
		</g>
		<g>
			<g>
				<g>
					<ellipse fill="#FFD564" cx="27.573" cy="6.398" rx="23.486" ry="10.161"/>
				</g>
				<g>
					<ellipse fill="#FFD564" cx="27.573" cy="31.36" rx="23.486" ry="10.16"/>
				</g>
				<rect x="4.087" y="6.398" fill="#FFD564" width="46.939" height="25.5"/>
			</g>
		</g>
		<g>
			<g>
				<g>
					<ellipse fill="#FFD666" cx="27.573" cy="6.445" rx="23.406" ry="10.126"/>
				</g>
				<g>
					<ellipse fill="#FFD666" cx="27.573" cy="31.323" rx="23.406" ry="10.126"/>
				</g>
				<rect x="4.167" y="6.445" fill="#FFD666" width="46.78" height="25.414"/>
			</g>
		</g>
		<g>
			<g>
				<g>
					<ellipse fill="#FFD667" cx="27.573" cy="6.492" rx="23.327" ry="10.091"/>
				</g>
				<g>
					<ellipse fill="#FFD667" cx="27.573" cy="31.285" rx="23.327" ry="10.093"/>
				</g>
				<rect x="4.246" y="6.492" fill="#FFD667" width="46.623" height="25.326"/>
			</g>
		</g>
		<g>
			<g>
				<g>
					<ellipse fill="#FFD669" cx="27.573" cy="6.539" rx="23.248" ry="10.057"/>
				</g>
				<g>
					<ellipse fill="#FFD669" cx="27.573" cy="31.249" rx="23.248" ry="10.058"/>
				</g>
				<rect x="4.325" y="6.539" fill="#FFD669" width="46.464" height="25.241"/>
			</g>
		</g>
		<g>
			<g>
				<g>
					<ellipse fill="#FFD76A" cx="27.573" cy="6.585" rx="23.169" ry="10.023"/>
				</g>
				<g>
					<ellipse fill="#FFD76A" cx="27.573" cy="31.211" rx="23.169" ry="10.024"/>
				</g>
				<rect x="4.405" y="6.585" fill="#FFD76A" width="46.306" height="25.156"/>
			</g>
		</g>
		<g>
			<g>
				<g>
					<ellipse fill="#FFD76C" cx="27.573" cy="6.633" rx="23.09" ry="9.989"/>
				</g>
				<g>
					<ellipse fill="#FFD76C" cx="27.573" cy="31.174" rx="23.09" ry="9.99"/>
				</g>
				<rect x="4.484" y="6.633" fill="#FFD76C" width="46.147" height="25.069"/>
			</g>
		</g>
		<g>
			<g>
				<g>
					<ellipse fill="#FFD76D" cx="27.573" cy="6.68" rx="23.011" ry="9.955"/>
				</g>
				<g>
					<ellipse fill="#FFD76D" cx="27.573" cy="31.138" rx="23.011" ry="9.954"/>
				</g>
				<rect x="4.562" y="6.68" fill="#FFD76D" width="45.991" height="24.983"/>
			</g>
		</g>
		<g>
			<g>
				<g>
					<ellipse fill="#FFD86F" cx="27.573" cy="6.727" rx="22.932" ry="9.921"/>
				</g>
				<g>
					<ellipse fill="#FFD86F" cx="27.573" cy="31.1" rx="22.932" ry="9.921"/>
				</g>
				<rect x="4.642" y="6.727" fill="#FFD86F" width="45.831" height="24.897"/>
			</g>
		</g>
		<g>
			<g>
				<g>
					<ellipse fill="#FFD870" cx="27.573" cy="6.773" rx="22.853" ry="9.887"/>
				</g>
				<g>
					<ellipse fill="#FFD870" cx="27.573" cy="31.062" rx="22.853" ry="9.887"/>
				</g>
				<rect x="4.721" y="6.773" fill="#FFD870" width="45.674" height="24.812"/>
			</g>
		</g>
		<g>
			<g>
				<g>
					<ellipse fill="#FFD871" cx="27.573" cy="6.82" rx="22.773" ry="9.853"/>
				</g>
				<g>
					<ellipse fill="#FFD871" cx="27.573" cy="31.025" rx="22.773" ry="9.853"/>
				</g>
				<rect x="4.8" y="6.82" fill="#FFD871" width="45.515" height="24.727"/>
			</g>
		</g>
		<g>
			<g>
				<g>
					<ellipse fill="#FFD973" cx="27.573" cy="6.867" rx="22.694" ry="9.818"/>
				</g>
				<g>
					<ellipse fill="#FFD973" cx="27.573" cy="30.988" rx="22.694" ry="9.818"/>
				</g>
				<rect x="4.879" y="6.867" fill="#FFD973" width="45.357" height="24.641"/>
			</g>
		</g>
		<g>
			<g>
				<g>
					<ellipse fill="#FFD974" cx="27.573" cy="6.914" rx="22.615" ry="9.784"/>
				</g>
				<g>
					<ellipse fill="#FFD974" cx="27.573" cy="30.951" rx="22.615" ry="9.784"/>
				</g>
				<rect x="4.958" y="6.914" fill="#FFD974" width="45.199" height="24.555"/>
			</g>
		</g>
		<g>
			<g>
				<g>
					<ellipse fill="#FFD976" cx="27.573" cy="6.961" rx="22.536" ry="9.75"/>
				</g>
				<g>
					<ellipse fill="#FFD976" cx="27.573" cy="30.914" rx="22.536" ry="9.75"/>
				</g>
				<rect x="5.037" y="6.961" fill="#FFD976" width="45.041" height="24.469"/>
			</g>
		</g>
		<g>
			<g>
				<g>
					<ellipse fill="#FFDA77" cx="27.573" cy="7.008" rx="22.457" ry="9.716"/>
				</g>
				<g>
					<ellipse fill="#FFDA77" cx="27.573" cy="30.877" rx="22.457" ry="9.716"/>
				</g>
				<rect x="5.116" y="7.008" fill="#FFDA77" width="44.884" height="24.383"/>
			</g>
		</g>
		<g>
			<g>
				<g>
					<ellipse fill="#FFDA79" cx="27.573" cy="7.055" rx="22.378" ry="9.681"/>
				</g>
				<g>
					<ellipse fill="#FFDA79" cx="27.573" cy="30.84" rx="22.378" ry="9.682"/>
				</g>
				<rect x="5.196" y="7.055" fill="#FFDA79" width="44.725" height="24.296"/>
			</g>
		</g>
		<g>
			<g>
				<g>
					<ellipse fill="#FFDA7A" cx="27.573" cy="7.102" rx="22.299" ry="9.647"/>
				</g>
				<g>
					<ellipse fill="#FFDA7A" cx="27.573" cy="30.803" rx="22.299" ry="9.646"/>
				</g>
				<rect x="5.275" y="7.102" fill="#FFDA7A" width="44.566" height="24.211"/>
			</g>
		</g>
		<g>
			<g>
				<g>
					<ellipse fill="#FFDB7C" cx="27.573" cy="7.149" rx="22.22" ry="9.613"/>
				</g>
				<g>
					<ellipse fill="#FFDB7C" cx="27.573" cy="30.766" rx="22.22" ry="9.613"/>
				</g>
				<rect x="5.354" y="7.149" fill="#FFDB7C" width="44.408" height="24.125"/>
			</g>
		</g>
		<g>
			<g>
				<g>
					<ellipse fill="#FFDB7D" cx="27.573" cy="7.196" rx="22.141" ry="9.579"/>
				</g>
				<g>
					<ellipse fill="#FFDB7D" cx="27.573" cy="30.729" rx="22.141" ry="9.578"/>
				</g>
				<rect x="5.433" y="7.196" fill="#FFDB7D" width="44.251" height="24.039"/>
			</g>
		</g>
		<g>
			<g>
				<g>
					<ellipse fill="#FFDB7F" cx="27.573" cy="7.243" rx="22.062" ry="9.544"/>
				</g>
				<g>
					<ellipse fill="#FFDB7F" cx="27.573" cy="30.691" rx="22.062" ry="9.544"/>
				</g>
				<rect x="5.512" y="7.243" fill="#FFDB7F" width="44.093" height="23.953"/>
			</g>
		</g>
		<g>
			<g>
				<g>
					<ellipse fill="#FFDC80" cx="27.574" cy="7.29" rx="21.982" ry="9.51"/>
				</g>
				<g>
					<ellipse fill="#FFDC80" cx="27.574" cy="30.654" rx="21.982" ry="9.51"/>
				</g>
				<rect x="5.592" y="7.29" fill="#FFDC80" width="43.934" height="23.866"/>
			</g>
		</g>
		<g>
			<g>
				<g>
					<ellipse fill="#FFDC82" cx="27.573" cy="7.336" rx="21.903" ry="9.476"/>
				</g>
				<g>
					<ellipse fill="#FFDC82" cx="27.573" cy="30.617" rx="21.903" ry="9.476"/>
				</g>
				<rect x="5.67" y="7.336" fill="#FFDC82" width="43.776" height="23.781"/>
			</g>
		</g>
		<g>
			<g>
				<g>
					<ellipse fill="#FFDC83" cx="27.573" cy="7.383" rx="21.824" ry="9.442"/>
				</g>
				<g>
					<ellipse fill="#FFDC83" cx="27.573" cy="30.58" rx="21.824" ry="9.441"/>
				</g>
				<rect x="5.749" y="7.383" fill="#FFDC83" width="43.618" height="23.695"/>
			</g>
		</g>
		<g>
			<g>
				<g>
					<ellipse fill="#FFDD85" cx="27.574" cy="7.431" rx="21.745" ry="9.407"/>
				</g>
				<g>
					<ellipse fill="#FFDD85" cx="27.574" cy="30.542" rx="21.745" ry="9.408"/>
				</g>
				<rect x="5.829" y="7.431" fill="#FFDD85" width="43.459" height="23.608"/>
			</g>
		</g>
		<g>
			<g>
				<g>
					<ellipse fill="#FFDD86" cx="27.574" cy="7.478" rx="21.666" ry="9.373"/>
				</g>
				<g>
					<ellipse fill="#FFDD86" cx="27.574" cy="30.506" rx="21.666" ry="9.373"/>
				</g>
				<rect x="5.908" y="7.478" fill="#FFDD86" width="43.301" height="23.522"/>
			</g>
		</g>
		<g>
			<g>
				<g>
					<ellipse fill="#FFDD88" cx="27.573" cy="7.524" rx="21.587" ry="9.339"/>
				</g>
				<g>
					<ellipse fill="#FFDD88" cx="27.573" cy="30.468" rx="21.587" ry="9.339"/>
				</g>
				<rect x="5.987" y="7.524" fill="#FFDD88" width="43.145" height="23.438"/>
			</g>
		</g>
		<g>
			<g>
				<g>
					<ellipse fill="#FFDE89" cx="27.574" cy="7.571" rx="21.508" ry="9.305"/>
				</g>
				<g>
					<ellipse fill="#FFDE89" cx="27.574" cy="30.431" rx="21.508" ry="9.306"/>
				</g>
				<rect x="6.066" y="7.571" fill="#FFDE89" width="42.986" height="23.352"/>
			</g>
		</g>
		<g>
			<g>
				<g>
					<ellipse fill="#FFDE8B" cx="27.574" cy="7.618" rx="21.428" ry="9.271"/>
				</g>
				<g>
					<ellipse fill="#FFDE8B" cx="27.574" cy="30.394" rx="21.428" ry="9.271"/>
				</g>
				<rect x="6.145" y="7.618" fill="#FFDE8B" width="42.828" height="23.266"/>
			</g>
		</g>
		<g>
			<g>
				<g>
					<ellipse fill="#FFDE8C" cx="27.573" cy="7.665" rx="21.35" ry="9.236"/>
				</g>
				<g>
					<ellipse fill="#FFDE8C" cx="27.573" cy="30.356" rx="21.35" ry="9.236"/>
				</g>
				<rect x="6.224" y="7.665" fill="#FFDE8C" width="42.67" height="23.18"/>
			</g>
		</g>
		<g>
			<g>
				<g>
					<ellipse fill="#FFDF8E" cx="27.574" cy="7.712" rx="21.27" ry="9.202"/>
				</g>
				<g>
					<ellipse fill="#FFDF8E" cx="27.574" cy="30.319" rx="21.27" ry="9.202"/>
				</g>
				<rect x="6.303" y="7.712" fill="#FFDF8E" width="42.511" height="23.094"/>
			</g>
		</g>
		<g>
			<g>
				<g>
					<ellipse fill="#FFDF8F" cx="27.574" cy="7.759" rx="21.191" ry="9.168"/>
				</g>
				<g>
					<ellipse fill="#FFDF8F" cx="27.574" cy="30.282" rx="21.191" ry="9.168"/>
				</g>
				<rect x="6.383" y="7.759" fill="#FFDF8F" width="42.353" height="23.008"/>
			</g>
		</g>
	</g>
	<g>
		<ellipse fill="#FFE591" cx="27.573" cy="4.399" rx="24.24" ry="9.885"/>
		<ellipse fill="#FFE592" cx="27.573" cy="4.4" rx="24.138" ry="9.844"/>
		<ellipse fill="#FFE593" cx="27.573" cy="4.402" rx="24.037" ry="9.802"/>
		<ellipse fill="#FFE694" cx="27.573" cy="4.403" rx="23.936" ry="9.761"/>
		<ellipse fill="#FFE695" cx="27.573" cy="4.404" rx="23.834" ry="9.719"/>
		<ellipse fill="#FFE696" cx="27.573" cy="4.406" rx="23.733" ry="9.678"/>
		<ellipse fill="#FFE697" cx="27.573" cy="4.407" rx="23.632" ry="9.637"/>
		<ellipse fill="#FFE699" cx="27.573" cy="4.408" rx="23.531" ry="9.596"/>
		<ellipse fill="#FFE79A" cx="27.573" cy="4.41" rx="23.43" ry="9.554"/>
		<ellipse fill="#FFE79B" cx="27.573" cy="4.411" rx="23.328" ry="9.513"/>
		<ellipse fill="#FFE79C" cx="27.573" cy="4.413" rx="23.227" ry="9.472"/>
		<ellipse fill="#FFE79D" cx="27.573" cy="4.414" rx="23.125" ry="9.43"/>
		<ellipse fill="#FFE79E" cx="27.573" cy="4.415" rx="23.025" ry="9.389"/>
		<ellipse fill="#FFE89F" cx="27.573" cy="4.417" rx="22.923" ry="9.348"/>
		<ellipse fill="#FFE8A0" cx="27.573" cy="4.418" rx="22.822" ry="9.307"/>
		<ellipse fill="#FFE8A1" cx="27.574" cy="4.419" rx="22.72" ry="9.265"/>
		<ellipse fill="#FFE8A2" cx="27.574" cy="4.421" rx="22.62" ry="9.224"/>
		<ellipse fill="#FFE8A3" cx="27.573" cy="4.422" rx="22.518" ry="9.183"/>
		<ellipse fill="#FFE9A4" cx="27.573" cy="4.423" rx="22.417" ry="9.142"/>
		<ellipse fill="#FFE9A6" cx="27.573" cy="4.425" rx="22.315" ry="9.1"/>
		<ellipse fill="#FFE9A7" cx="27.573" cy="4.426" rx="22.214" ry="9.059"/>
		<ellipse fill="#FFE9A8" cx="27.574" cy="4.428" rx="22.113" ry="9.017"/>
		<ellipse fill="#FFE9A9" cx="27.573" cy="4.429" rx="22.011" ry="8.976"/>
		<ellipse fill="#FFEAAA" cx="27.573" cy="4.431" rx="21.91" ry="8.935"/>
		<ellipse fill="#FFEAAB" cx="27.574" cy="4.432" rx="21.809" ry="8.894"/>
		<ellipse fill="#FFEAAC" cx="27.573" cy="4.433" rx="21.708" ry="8.853"/>
		<ellipse fill="#FFEAAD" cx="27.573" cy="4.434" rx="21.606" ry="8.811"/>
		<ellipse fill="#FFEAAE" cx="27.573" cy="4.436" rx="21.505" ry="8.77"/>
		<ellipse fill="#FFEBAF" cx="27.574" cy="4.438" rx="21.404" ry="8.729"/>
		<ellipse fill="#FFEBB0" cx="27.573" cy="4.438" rx="21.303" ry="8.687"/>
		<ellipse fill="#FFEBB1" cx="27.573" cy="4.439" rx="21.201" ry="8.646"/>
		<ellipse fill="#FFEBB3" cx="27.574" cy="4.441" rx="21.1" ry="8.605"/>
		<ellipse fill="#FFEBB4" cx="27.573" cy="4.442" rx="20.999" ry="8.563"/>
		<ellipse fill="#FFEBB5" cx="27.573" cy="4.444" rx="20.898" ry="8.522"/>
		<ellipse fill="#FFECB6" cx="27.573" cy="4.445" rx="20.796" ry="8.48"/>
		<ellipse fill="#FFECB7" cx="27.573" cy="4.446" rx="20.695" ry="8.439"/>
		<ellipse fill="#FFECB8" cx="27.573" cy="4.448" rx="20.594" ry="8.397"/>
		<ellipse fill="#FFECB9" cx="27.574" cy="4.449" rx="20.493" ry="8.356"/>
		<ellipse fill="#FFECBA" cx="27.573" cy="4.45" rx="20.392" ry="8.315"/>
		<ellipse fill="#FFEDBB" cx="27.573" cy="4.452" rx="20.29" ry="8.274"/>
		<ellipse fill="#FFEDBC" cx="27.574" cy="4.453" rx="20.189" ry="8.232"/>
		<ellipse fill="#FFEDBD" cx="27.573" cy="4.455" rx="20.088" ry="8.191"/>
		<ellipse fill="#FFEDBE" cx="27.573" cy="4.456" rx="19.986" ry="8.15"/>
		<ellipse fill="#FFEDC0" cx="27.573" cy="4.457" rx="19.885" ry="8.109"/>
		<ellipse fill="#FFEEC1" cx="27.574" cy="4.458" rx="19.784" ry="8.068"/>
		<ellipse fill="#FFEEC2" cx="27.573" cy="4.46" rx="19.683" ry="8.026"/>
		<ellipse fill="#FFEEC3" cx="27.573" cy="4.461" rx="19.581" ry="7.985"/>
		<ellipse fill="#FFEEC4" cx="27.574" cy="4.463" rx="19.48" ry="7.944"/>
		<ellipse fill="#FFEEC5" cx="27.573" cy="4.464" rx="19.379" ry="7.902"/>
		<ellipse fill="#FFEFC6" cx="27.573" cy="4.466" rx="19.277" ry="7.861"/>
		<ellipse fill="#FFEFC7" cx="27.574" cy="4.467" rx="19.176" ry="7.819"/>
		<ellipse fill="#FFEFC8" cx="27.574" cy="4.469" rx="19.075" ry="7.778"/>
		<ellipse fill="#FFEFC9" cx="27.574" cy="4.47" rx="18.973" ry="7.737"/>
		<ellipse fill="#FFEFCA" cx="27.573" cy="4.471" rx="18.872" ry="7.696"/>
		<ellipse fill="#FFF0CB" cx="27.574" cy="4.473" rx="18.771" ry="7.654"/>
		<ellipse fill="#FFF0CD" cx="27.574" cy="4.474" rx="18.67" ry="7.613"/>
		<ellipse fill="#FFF0CE" cx="27.574" cy="4.475" rx="18.569" ry="7.572"/>
		<ellipse fill="#FFF0CF" cx="27.574" cy="4.477" rx="18.468" ry="7.531"/>
		<ellipse fill="#FFF0D0" cx="27.574" cy="4.478" rx="18.366" ry="7.489"/>
		<ellipse fill="#FFF1D1" cx="27.574" cy="4.479" rx="18.265" ry="7.448"/>
		<ellipse fill="#FFF1D2" cx="27.574" cy="4.481" rx="18.164" ry="7.406"/>
		<ellipse fill="#FFF1D3" cx="27.574" cy="4.482" rx="18.062" ry="7.365"/>
	</g>
	<g>
		<g>
			<path fill="#FFF5EA" d="M51.566,2.984c0,0,0.002,0.054,0.002,0.159c0.003,0.053,0.005,0.118,0,0.196
				c-0.002,0.079-0.005,0.169-0.019,0.271c-0.018,0.204-0.062,0.455-0.141,0.744c-0.079,0.289-0.201,0.615-0.379,0.959
				c-0.354,0.688-0.931,1.456-1.736,2.176c-0.401,0.361-0.852,0.719-1.349,1.062c-0.499,0.344-1.044,0.669-1.626,0.984
				c-1.166,0.626-2.484,1.196-3.919,1.675c-1.431,0.486-2.97,0.905-4.585,1.23c-0.807,0.165-1.632,0.31-2.469,0.433
				c-0.837,0.124-1.688,0.227-2.547,0.308c-1.721,0.166-3.47,0.245-5.229,0.247c-1.747-0.002-3.506-0.081-5.223-0.247
				c-0.86-0.081-1.711-0.183-2.548-0.308c-0.838-0.124-1.663-0.266-2.469-0.433c-0.806-0.166-1.596-0.346-2.361-0.554
				c-0.765-0.207-1.508-0.432-2.224-0.676s-1.406-0.5-2.06-0.782C10.032,10.147,9.41,9.85,8.828,9.537
				C8.245,9.222,7.699,8.896,7.202,8.553C6.705,8.209,6.254,7.852,5.853,7.49C5.048,6.77,4.47,6.002,4.116,5.313
				c-0.179-0.344-0.299-0.67-0.378-0.959C3.659,4.065,3.615,3.814,3.596,3.61C3.584,3.508,3.581,3.417,3.579,3.339
				C3.574,3.262,3.574,3.196,3.577,3.143C3.579,3.038,3.58,2.984,3.58,2.984s0.005,0.054,0.013,0.159
				c0.004,0.052,0.01,0.117,0.023,0.193c0.01,0.077,0.021,0.166,0.044,0.264c0.075,0.396,0.256,0.968,0.649,1.604
				c0.393,0.634,1.005,1.314,1.82,1.958C6.946,7.807,7.96,8.411,9.117,8.961c0.58,0.275,1.199,0.53,1.848,0.772
				c0.649,0.242,1.328,0.472,2.035,0.682c1.413,0.421,2.933,0.766,4.518,1.049c0.793,0.14,1.603,0.266,2.425,0.37
				s1.658,0.192,2.501,0.264c1.689,0.138,3.406,0.212,5.132,0.209c1.714,0.002,3.439-0.071,5.125-0.208
				c0.844-0.071,1.681-0.159,2.502-0.264c0.822-0.104,1.632-0.23,2.426-0.37c1.585-0.283,3.104-0.627,4.519-1.049
				c0.706-0.209,1.385-0.44,2.033-0.681c0.649-0.241,1.267-0.498,1.849-0.771c1.157-0.551,2.172-1.155,2.986-1.8
				c0.815-0.643,1.427-1.324,1.821-1.958c0.392-0.635,0.574-1.207,0.649-1.604c0.021-0.099,0.033-0.188,0.043-0.264
				c0.015-0.077,0.02-0.142,0.023-0.194C51.561,3.038,51.566,2.984,51.566,2.984z"/>
		</g>
	</g>
	<g>
		<g>
			<path fill="#FFF5EA" d="M7.18,2.18C7.168,1.703,7.303,1.226,7.531,0.803c0.227-0.425,0.537-0.8,0.881-1.137
				c0.345-0.336,0.728-0.63,1.126-0.899c0.396-0.27,0.815-0.51,1.24-0.732c0.851-0.444,1.741-0.809,2.647-1.124
				c0.905-0.316,1.826-0.583,2.756-0.815c0.929-0.231,1.869-0.421,2.813-0.585c0.944-0.163,1.893-0.296,2.843-0.404
				c1.904-0.218,3.82-0.317,5.735-0.337c0.956-0.006,1.919,0.006,2.875,0.045c0.958,0.037,1.915,0.105,2.87,0.196
				c1.909,0.184,3.814,0.467,5.693,0.892c0.938,0.214,1.871,0.464,2.79,0.767c0.92,0.305,1.827,0.657,2.705,1.092
				c0.438,0.218,0.87,0.453,1.286,0.724c0.415,0.269,0.817,0.567,1.192,0.914c0.371,0.346,0.717,0.741,0.979,1.208
				c0.265,0.462,0.438,1.011,0.438,1.573h-0.871V1.426h0.871C48.404,1.989,48.231,2.538,47.966,3
				c-0.265,0.467-0.609,0.862-0.981,1.208c-0.373,0.347-0.777,0.645-1.192,0.914c-0.416,0.27-0.847,0.506-1.286,0.725
				c-0.878,0.435-1.785,0.787-2.702,1.091c-0.922,0.302-1.853,0.558-2.793,0.771c-1.879,0.425-3.783,0.708-5.693,0.892
				c-0.955,0.091-1.912,0.158-2.87,0.199c-0.958,0.04-1.915,0.052-2.876,0.044c-0.953-0.01-1.915-0.038-2.87-0.095
				c-0.957-0.055-1.913-0.132-2.864-0.24c-1.904-0.215-3.798-0.532-5.66-0.988c-0.931-0.23-1.852-0.5-2.758-0.814
				c-0.904-0.316-1.796-0.68-2.648-1.123C10.345,5.362,9.927,5.122,9.53,4.853c-0.399-0.269-0.782-0.565-1.128-0.9
				c-0.173-0.17-0.337-0.345-0.487-0.535C7.765,3.227,7.63,3.025,7.515,2.812C7.287,2.388,7.151,1.908,7.163,1.426h0.034L7.18,2.18z
				 M7.18,2.18L7.163,1.426h0.034c0.01,0.475,0.164,0.936,0.404,1.338c0.24,0.404,0.559,0.757,0.908,1.071
				c0.35,0.315,0.735,0.59,1.135,0.838c0.4,0.25,0.818,0.47,1.244,0.673c0.854,0.407,1.741,0.739,2.644,1.022
				c0.902,0.284,1.821,0.519,2.746,0.722c1.851,0.404,3.729,0.672,5.617,0.84c0.944,0.083,1.89,0.147,2.836,0.184
				c0.949,0.039,1.891,0.051,2.843,0.044c0.943-0.01,1.893-0.04,2.838-0.094c0.944-0.049,1.888-0.125,2.829-0.226
				c1.881-0.2,3.75-0.5,5.582-0.935c0.917-0.221,1.825-0.467,2.714-0.764c0.889-0.298,1.761-0.641,2.589-1.055
				c0.827-0.415,1.62-0.9,2.271-1.506c0.322-0.303,0.609-0.638,0.811-1.002c0.206-0.363,0.322-0.756,0.322-1.15h0.871V2.18h-0.871
				c0.003-0.393-0.116-0.786-0.319-1.149c-0.204-0.366-0.489-0.7-0.813-1.004c-0.651-0.607-1.444-1.091-2.27-1.505
				c-0.83-0.416-1.702-0.759-2.591-1.055c-0.889-0.295-1.795-0.548-2.711-0.768c-1.835-0.435-3.704-0.735-5.584-0.936
				c-0.941-0.101-1.886-0.173-2.83-0.228c-0.945-0.055-1.89-0.084-2.84-0.094c-0.947-0.007-1.895,0.005-2.841,0.043
				c-0.474,0.019-0.946,0.044-1.42,0.075c-0.472,0.029-0.945,0.066-1.417,0.107c-1.888,0.167-3.768,0.438-5.619,0.839
				c-0.925,0.201-1.844,0.436-2.747,0.72c-0.903,0.285-1.792,0.617-2.646,1.021C10.031-1.346,9.205-0.868,8.5-0.239
				C8.148,0.073,7.827,0.428,7.588,0.834C7.345,1.239,7.19,1.703,7.18,2.18z"/>
		</g>
	</g>
	<path fill="#551B11" d="M27.574,33.124c-1.646,0-5.442-3.211-4.656-4.655c0.543-0.997,3.407,0,4.542,0c1.193,0,4.199-1.047,4.767,0
		C33.015,29.913,29.219,33.124,27.574,33.124z"/>
	<path fill="#F5A4B8" d="M27.554,31.783c-0.783,0-2.594-1.529-2.219-2.219c0.259-0.475,1.624,0,2.166,0c0.569,0,2-0.499,2.273,0
		C30.149,30.254,28.34,31.783,27.554,31.783z"/>
	<g opacity="0.5">
		
			<image overflow="visible" width="830" height="733" xlink:href="A3B76A7D80A1DF8.png"  transform="matrix(0.0225 0 0 0.0225 32.6008 19.7803)">
		</image>
	</g>
	<g opacity="0.5">
		
			<image overflow="visible" width="830" height="733" xlink:href="A3B76A7D80A1DF9.png"  transform="matrix(0.0225 0 0 0.0225 2.8494 19.7803)">
		</image>
	</g>
	<g>
		<ellipse fill="#551B11" cx="41.54" cy="21.101" rx="4.167" ry="4.84"/>
		<g>
			<path fill="#FFFFFF" d="M43.22,18.263c0.26-0.146,0.427-0.167,0.709-0.079c0.562,0.195,0.456,0.576,0.354,1.108
				c-0.135,0.761-1.034,2.152-1.791,2.233c-0.886,0.092-1.066-1.591-1.152-2.24c-0.031-0.378-0.062-0.757,0.154-1.083
				c0.175-0.259,0.38-0.354,0.681-0.301c0.389,0.059,0.362,0.437,0.651,0.579C42.967,18.549,42.998,18.393,43.22,18.263z"/>
		</g>
		<g>
			<path fill="#FFFFFF" d="M41.071,24.406c0.277,0.516,1.179-0.175,0.507-0.39c0.672,0.215,0.672-0.765,0-0.55
				c0.672-0.215-0.229-0.905-0.507-0.39c0.277-0.516-0.994-0.516-0.715,0c-0.279-0.516-1.178,0.175-0.506,0.39
				c-0.672-0.215-0.672,0.765,0,0.55c-0.672,0.215,0.227,0.905,0.506,0.39C40.076,24.922,41.348,24.922,41.071,24.406z"/>
		</g>
	</g>
	<g>
		<ellipse fill="#551B11" cx="12.534" cy="21.109" rx="4.166" ry="4.839"/>
		<g>
			<path fill="#FFFFFF" d="M10.854,18.271c-0.259-0.145-0.427-0.166-0.708-0.078C9.583,18.388,9.691,18.77,9.793,19.3
				c0.134,0.763,1.034,2.154,1.792,2.235c0.882,0.092,1.063-1.591,1.15-2.241c0.031-0.377,0.062-0.756-0.154-1.083
				c-0.176-0.258-0.379-0.354-0.681-0.301c-0.39,0.06-0.363,0.437-0.651,0.578C11.108,18.559,11.077,18.401,10.854,18.271z"/>
		</g>
		<g>
			<path fill="#FFFFFF" d="M13.004,24.414c-0.278,0.516-1.178-0.176-0.506-0.389c-0.672,0.213-0.672-0.766,0-0.551
				c-0.672-0.215,0.228-0.904,0.506-0.389c-0.278-0.516,0.992-0.516,0.715,0c0.277-0.516,1.178,0.174,0.506,0.389
				c0.672-0.215,0.672,0.764,0,0.551c0.672,0.213-0.229,0.904-0.506,0.389C13.996,24.93,12.725,24.93,13.004,24.414z"/>
		</g>
	</g>
</g>
<g>
	<path fill="#551B11" d="M24.406,8.37c-0.086,0.086-0.159,0.116-0.218,0.088c-0.059-0.027-0.088-0.099-0.088-0.218V-1.775
		c0-0.119,0.029-0.191,0.088-0.219c0.06-0.026,0.132,0.004,0.218,0.09l4.831,4.831c0.041,0.041,0.069,0.084,0.089,0.129v-4.831
		c0-0.119,0.029-0.191,0.088-0.219c0.059-0.026,0.131,0.004,0.219,0.09l4.83,4.831c0.085,0.086,0.129,0.188,0.129,0.306
		c0,0.118-0.044,0.22-0.129,0.306l-4.83,4.832c-0.088,0.086-0.16,0.116-0.219,0.088c-0.059-0.027-0.088-0.099-0.088-0.218V3.41
		c-0.02,0.045-0.048,0.088-0.089,0.129L24.406,8.37z"/>
</g>
</svg>
