<?xml version="1.0" encoding="utf-8"?>
<!-- Generator: Adobe Illustrator 16.0.0, SVG Export Plug-In . SVG Version: 6.00 Build 0)  -->
<!DOCTYPE svg PUBLIC "-//W3C//DTD SVG 1.1//EN" "http://www.w3.org/Graphics/SVG/1.1/DTD/svg11.dtd">
<svg version="1.1" id="Layer_1" xmlns="http://www.w3.org/2000/svg" xmlns:xlink="http://www.w3.org/1999/xlink" x="0px" y="0px"
	 width="56.406px" height="40.379px" viewBox="0 0 56.406 40.379" enable-background="new 0 0 56.406 40.379" xml:space="preserve">
<g>
	<path fill="none" d="M-3.677-0.17v39.289h63.21V16.391c0,0-1.101,0.78-1.455,0.852c-0.258,0.051-1.196-0.612-4.401-0.757
		c1.615,0.806,0.553,3.055,0.553,3.055c2.785,2.599-1.326,4.685-1.326,4.685c0.899,1.801-1.443,2.564-1.443,2.564
		c-0.18,1.419-1.725,1.56-1.725,1.56c-0.251,2.844-3.315,2.695-3.315,2.695c-0.245,2.73-2.769,2.717-2.769,2.717
		c-1.022,2.912-4.144,1.663-4.144,1.663c-0.447,2.394-2.235,0.768-2.235,0.768c-0.776,2.377-2.582,1.163-2.582,1.163
		c-0.954,1.573-3.016,0.686-3.016,0.686c-1.098,2.249-3.123,0.282-3.123,0.282c-3.503,2.038-4.405-0.908-4.405-0.908
		c-1.838,1.664-3.614-0.179-3.614-0.179c-2.265,1.425-4.13-0.86-4.13-0.86c-1.009,0.329-1.752,0.25-2.301-0.025
		c-0.688,0.568-1.119,0.91-1.164,0.91c-0.213,0-0.994-0.959-0.994-0.959s-0.006-0.021-0.019-0.053
		c-0.055-0.147-0.236-0.606-0.565-1.22c0-0.001-0.001-0.002-0.001-0.002c-3.038-3.25-8.59-5.823-11.197-7.339
		c-0.645-0.373-0.78-1.542-0.78-1.542s0.032-0.092,0.097-0.264c0.215-0.575,0.79-2.038,1.732-3.915
		c0.189-0.376,0.394-0.771,0.613-1.179c1.624-3.012,4.067-6.727,7.351-9.571c0,0-0.002,0.001-0.003,0.001
		c0.453-0.392,0.921-0.768,1.406-1.124c0.009-0.006,0.018-0.013,0.026-0.02c0.116-0.083,0.235-0.169,0.354-0.253
		C10.957,9.82,10.958,9.82,10.96,9.82C14.63,7.196,19.899,4.322,26,2.774c-0.005,0-0.012,0.001-0.013,0.001
		c0.096-0.025,0.194-0.048,0.291-0.072c0.093-0.023,0.185-0.047,0.278-0.068c0.357-0.085,0.716-0.166,1.077-0.242
		c0.079-0.016,0.158-0.031,0.237-0.047c0.296-0.059,0.597-0.115,0.895-0.168c0.108-0.019,0.218-0.038,0.324-0.056
		c0.35-0.059,0.698-0.114,1.051-0.162h0.001c5.565-0.766,11.623-0.274,17.666,2.507c0,0,4.253,2.849,7.747,6.431
		c0.002,0.001,0.003,0.002,0.005,0.004c0,0-0.001,0-0.001,0c1.693,1.737,3.21,3.646,3.975,5.488V-0.17H-3.677z"/>
	<path fill="#D9F3F9" d="M49.072,16.604c-0.461,0.038-0.953,0.102-1.462,0.188c-0.147,0.407-0.451,0.829-0.905,1.228
		c-0.656,0.577-1.42,1.033-2.228,1.406c1.988,0.197,1.033,2.22,1.033,2.22c1.865,1.743-0.89,3.141-0.89,3.141
		c0.604,1.207-0.966,1.719-0.966,1.719c-0.122,0.949-1.157,1.045-1.157,1.045c-0.165,1.906-2.222,1.804-2.222,1.804
		c-0.164,1.832-1.855,1.823-1.855,1.823c-0.62,1.768-2.389,1.249-2.718,1.136c-0.025,0.011-0.048,0.023-0.074,0.035
		c-0.317,1.513-1.484,0.459-1.484,0.459c-0.517,1.594-1.729,0.781-1.729,0.781c-0.64,1.055-2.02,0.456-2.02,0.456
		c-0.738,1.508-2.094,0.19-2.094,0.19c-1.09,0.634-1.802,0.545-2.254,0.27c-0.119,0.118-0.248,0.229-0.393,0.325
		c-0.19,0.126-0.408,0.233-0.645,0.273c-0.237,0.045-0.491,0.004-0.695-0.126c-0.001-0.017,0.224,0.122,0.583,0.024
		c0.292-0.067,0.627-0.31,0.929-0.66c-0.352-0.315-0.477-0.717-0.477-0.717c-1.233,1.115-2.423-0.12-2.423-0.12
		c-1.342,0.848-2.473-0.252-2.717-0.519c-0.194,0.152-0.387,0.31-0.585,0.456c-0.874,0.658-1.97,1.4-3.125,1.222
		c-0.083-0.016-0.182-0.039-0.29-0.075c-0.831,0.698-1.555,1.305-2.109,1.763c0.549,0.275,1.292,0.354,2.301,0.025
		c0,0,1.865,2.285,4.13,0.86c0,0,1.776,1.843,3.614,0.179c0,0,0.902,2.946,4.405,0.908c0,0,2.025,1.967,3.123-0.282
		c0,0,2.062,0.888,3.016-0.686c0,0,1.806,1.214,2.582-1.163c0,0,1.788,1.626,2.235-0.768c0,0,3.121,1.249,4.144-1.663
		c0,0,2.523,0.014,2.769-2.717c0,0,3.064,0.148,3.315-2.695c0,0,1.545-0.141,1.725-1.56c0,0,2.343-0.764,1.443-2.564
		c0,0,4.111-2.086,1.326-4.685c0,0,1.062-2.249-0.553-3.055C52.482,16.432,50.977,16.449,49.072,16.604z M39.196,32.333
		c-0.44,0.559-1.512,0.801-2.554,0.393c0,0,0.534,0.039,1.203-0.104c0.333-0.066,0.698-0.181,0.988-0.382
		c0.296-0.19,0.453-0.517,0.476-0.882c0,0,0.035,0.074,0.079,0.242C39.408,31.759,39.419,32.05,39.196,32.333z M48.295,25.536
		c-0.039,0.166-0.155,0.425-0.427,0.643c-0.145,0.117-0.332,0.218-0.545,0.292c0.027,0.131,0.074,0.44-0.122,0.887
		c-0.14,0.288-0.438,0.611-0.877,0.768c-0.435,0.16-0.99,0.132-1.47-0.118c0,0,0.033,0.003,0.09,0.006
		c0.061,0.007,0.144,0.017,0.248,0.014c0.209,0.003,0.501-0.021,0.804-0.129c0.303-0.099,0.604-0.292,0.835-0.554
		c0.208-0.246,0.351-0.551,0.452-0.862c-0.177,0.057-0.364,0.096-0.57,0.101c-0.237,0.013-0.494-0.024-0.751-0.103
		c-0.253-0.081-0.515-0.216-0.708-0.427c0.004-0.007,0.117,0.071,0.33,0.129c0.215,0.06,0.521,0.105,0.866,0.088
		c0.692-0.021,1.551-0.31,1.867-0.995C48.318,25.274,48.323,25.361,48.295,25.536z M48.188,22.629
		c-0.204,0.3-0.574,0.533-0.996,0.591c0,0,0.08-0.062,0.21-0.162c0.067-0.045,0.133-0.116,0.208-0.193
		c0.08-0.068,0.143-0.167,0.214-0.266c0.284-0.397,0.36-1.032,0.556-1.561c0,0,0.024,0.064,0.051,0.189
		c0.032,0.123,0.056,0.309,0.047,0.553C48.45,22.015,48.407,22.331,48.188,22.629z M49.828,24.454
		c0.048-0.088,0.109-0.207,0.164-0.343c0.121-0.27,0.181-0.6,0.331-0.927c0,0,0.028,0.035,0.065,0.109
		c0.039,0.076,0.076,0.189,0.085,0.342c0,0.151-0.026,0.345-0.148,0.528c-0.116,0.187-0.313,0.355-0.574,0.431
		C49.751,24.595,49.781,24.54,49.828,24.454z M50.826,25.47c-0.054,0.288-0.204,0.638-0.507,0.925
		c-0.293,0.29-0.752,0.527-1.251,0.501c0,0,0.025-0.011,0.076-0.03c0.05-0.02,0.12-0.049,0.203-0.095
		c0.169-0.089,0.387-0.239,0.592-0.449c0.426-0.421,0.738-1.08,0.754-1.721C50.676,24.593,50.926,24.872,50.826,25.47z"/>
	<path fill="#FFFFFF" d="M40.5,20.636c-0.007,0.012-0.01,0.022-0.015,0.033c-0.171,0.281-0.472,0.562-0.877,0.764
		c-0.202,0.1-0.434,0.179-0.684,0.223c-0.246,0.038-0.536,0.056-0.782-0.056c0,0,0.127,0.018,0.331-0.033
		c0.202-0.046,0.481-0.151,0.775-0.312c0.258-0.139,0.527-0.318,0.761-0.531c-1.006,0.169-2.014,0.317-2.987,0.625
		c-1.864,0.593-3.579,1.65-5.227,2.685c-1.546,0.974-3.068,2.008-4.555,3.072c-2.494,1.79-4.633,3.988-7.032,5.879
		c0.244,0.267,1.375,1.366,2.717,0.519c0,0,1.19,1.235,2.423,0.12c0,0,0.125,0.401,0.477,0.717c0.07-0.08,0.138-0.165,0.203-0.26
		c0.089-0.12,0.171-0.253,0.248-0.39c0.036-0.072,0.074-0.142,0.106-0.213l0.05-0.109l0.026-0.059
		c0.007-0.021,0.014-0.044,0.04-0.034l0.225-0.006c0.347-0.004,0.689-0.009,1.023-0.061c0.335-0.039,0.641-0.165,0.93-0.319
		c0.133-0.09,0.26-0.192,0.385-0.294c0.107-0.121,0.216-0.241,0.324-0.356c0,0-0.061,0.134-0.201,0.393
		c-0.071,0.126-0.207,0.251-0.352,0.416c-0.091,0.062-0.188,0.132-0.293,0.205c-0.103,0.076-0.234,0.111-0.365,0.175
		c-0.268,0.1-0.584,0.157-0.924,0.181c-0.168,0.006-0.344,0.015-0.522,0.013c-0.031,0-0.034,0-0.03,0l-0.001-0.003
		c-0.005,0.01,0.006-0.017-0.013,0.024c-0.046,0.09-0.094,0.175-0.148,0.26c-0.136,0.209-0.299,0.413-0.491,0.601
		c0.452,0.275,1.164,0.364,2.254-0.27c0,0,1.355,1.317,2.094-0.19c0,0,1.38,0.599,2.02-0.456c0,0,1.213,0.812,1.729-0.781
		c0,0,1.167,1.054,1.484-0.459c-0.159,0.063-0.34,0.108-0.533,0.123c-0.395,0.036-0.829-0.036-1.289-0.179
		c0,0,0.112-0.009,0.302-0.031c0.189-0.019,0.453-0.042,0.743-0.086c0.291-0.041,0.603-0.115,0.883-0.247
		c0.276-0.139,0.516-0.345,0.724-0.583c-0.017-0.015,0.025,0.346-0.411,0.752c-0.091,0.08-0.211,0.153-0.344,0.216
		c0.329,0.113,2.098,0.632,2.718-1.136c0,0,1.691,0.009,1.855-1.823c0,0,2.057,0.103,2.222-1.804c0,0,1.035-0.096,1.157-1.045
		c0,0,1.569-0.512,0.966-1.719c0,0,2.755-1.397,0.89-3.141c0,0,0.955-2.023-1.033-2.22c-1.008,0.463-2.084,0.795-3.122,1.038
		C41.072,20.528,40.785,20.584,40.5,20.636z M27.358,31.203c-0.164,0.224-0.455,0.459-0.851,0.536
		c-0.388,0.085-0.89-0.024-1.205-0.373c0.001-0.005,0.1,0.049,0.272,0.087c0.169,0.041,0.413,0.063,0.673,0.009
		c0.264-0.047,0.535-0.177,0.768-0.359c0.232-0.186,0.416-0.429,0.554-0.698C27.554,30.391,27.682,30.726,27.358,31.203z
		 M34.818,25.927c-0.037,0.095-0.072,0.193-0.133,0.284c-0.055,0.099-0.122,0.193-0.205,0.281c-0.07,0.099-0.177,0.173-0.274,0.26
		c-0.112,0.069-0.229,0.157-0.368,0.203c-0.271,0.115-0.593,0.107-0.889,0.061c-0.303-0.053-0.597-0.149-0.923-0.227
		c0,0,0.161-0.012,0.426-0.008c0.264,0,0.644,0.045,1.014-0.047c0.37-0.077,0.716-0.375,0.963-0.733
		c0.249-0.363,0.349-0.808,0.303-1.231c0,0,0.053,0.084,0.124,0.272C34.906,25.23,34.953,25.549,34.818,25.927z M40.435,24.872
		c-0.098,0.15-0.249,0.287-0.432,0.402c0.009,0.044,0.019,0.097,0.028,0.163c0.042,0.184,0.035,0.464-0.063,0.812
		c-0.063,0.168-0.122,0.369-0.266,0.541c-0.068,0.087-0.122,0.195-0.216,0.271c-0.092,0.081-0.186,0.164-0.285,0.244
		c-0.427,0.295-1.013,0.456-1.625,0.399c0,0,0.139-0.039,0.372-0.109c0.057-0.018,0.122-0.028,0.187-0.054
		c0.066-0.031,0.135-0.061,0.207-0.097c0.073-0.032,0.148-0.067,0.229-0.103c0.07-0.048,0.148-0.1,0.224-0.149
		c0.163-0.089,0.292-0.239,0.44-0.373c0.077-0.066,0.121-0.159,0.187-0.237c0.061-0.078,0.13-0.159,0.169-0.255l0.145-0.275
		c0.033-0.097,0.065-0.195,0.1-0.292c0.043-0.097,0.063-0.197,0.077-0.298c0.012-0.052,0.024-0.104,0.035-0.157
		c-0.133,0.08-0.277,0.146-0.439,0.194c-0.415,0.12-0.906,0.142-1.421,0.048c0,0,0.12-0.026,0.325-0.067
		c0.199-0.048,0.479-0.113,0.78-0.217c0.304-0.103,0.624-0.252,0.884-0.463c0.25-0.214,0.411-0.515,0.477-0.853
		c0,0,0.023,0.075,0.056,0.234C40.615,24.334,40.618,24.598,40.435,24.872z M42.047,25.276c0.589-0.336,0.965-1.089,1.161-1.787
		c0,0,0.017,0.085,0.032,0.253c0.025,0.169,0.004,0.418-0.088,0.733c-0.034,0.076-0.068,0.154-0.108,0.237
		c-0.037,0.085-0.08,0.17-0.147,0.246c-0.063,0.077-0.131,0.16-0.2,0.244c-0.086,0.073-0.178,0.139-0.272,0.209
		c-0.393,0.262-0.942,0.387-1.491,0.278c0,0,0.129-0.031,0.345-0.078c0.106-0.014,0.224-0.069,0.358-0.12
		C41.772,25.451,41.906,25.364,42.047,25.276z"/>
	<path fill="#72BDC1" d="M27.015,31.103c-0.233,0.183-0.504,0.312-0.768,0.359c-0.26,0.055-0.504,0.032-0.673-0.009
		c-0.172-0.038-0.271-0.092-0.272-0.087c0.314,0.349,0.817,0.458,1.205,0.373c0.396-0.077,0.687-0.312,0.851-0.536
		c0.324-0.478,0.196-0.812,0.212-0.799C27.431,30.674,27.247,30.917,27.015,31.103z"/>
	<path fill="#72BDC1" d="M26.686,33.643c0.02-0.041,0.008-0.015,0.013-0.024l0.001,0.003c-0.004,0-0.001,0,0.03,0
		c0.178,0.002,0.354-0.007,0.522-0.013c0.34-0.023,0.656-0.081,0.924-0.181c0.131-0.063,0.263-0.099,0.365-0.175
		c0.105-0.073,0.202-0.143,0.293-0.205c0.145-0.165,0.28-0.29,0.352-0.416c0.141-0.259,0.201-0.393,0.201-0.393
		c-0.108,0.115-0.217,0.235-0.324,0.356c-0.125,0.102-0.252,0.204-0.385,0.294c-0.289,0.154-0.595,0.28-0.93,0.319
		c-0.334,0.052-0.676,0.057-1.023,0.061L26.5,33.275c-0.026-0.01-0.033,0.014-0.04,0.034l-0.026,0.059l-0.05,0.109
		c-0.032,0.071-0.07,0.141-0.106,0.213c-0.077,0.137-0.159,0.27-0.248,0.39c-0.065,0.095-0.133,0.18-0.203,0.26
		c-0.302,0.351-0.637,0.593-0.929,0.66c-0.36,0.098-0.584-0.041-0.583-0.024c0.204,0.13,0.458,0.171,0.695,0.126
		c0.237-0.04,0.455-0.147,0.645-0.273c0.146-0.097,0.274-0.207,0.393-0.325c0.192-0.188,0.355-0.392,0.491-0.601
		C26.592,33.817,26.64,33.732,26.686,33.643z"/>
	<path fill="#72BDC1" d="M34.731,24.77c0.046,0.424-0.054,0.868-0.303,1.231c-0.247,0.358-0.593,0.656-0.963,0.733
		c-0.37,0.092-0.75,0.047-1.014,0.047c-0.265-0.004-0.426,0.008-0.426,0.008c0.326,0.077,0.62,0.174,0.923,0.227
		c0.296,0.047,0.617,0.055,0.889-0.061c0.14-0.046,0.256-0.134,0.368-0.203c0.098-0.087,0.204-0.161,0.274-0.26
		c0.083-0.088,0.15-0.183,0.205-0.281c0.061-0.091,0.096-0.189,0.133-0.284c0.136-0.378,0.089-0.696,0.037-0.885
		C34.783,24.854,34.731,24.77,34.731,24.77z"/>
	<path fill="#72BDC1" d="M38.474,21.566c-0.204,0.051-0.331,0.033-0.331,0.033c0.246,0.111,0.536,0.094,0.782,0.056
		c0.25-0.044,0.481-0.123,0.684-0.223c0.405-0.201,0.706-0.482,0.877-0.764c0.005-0.011,0.008-0.021,0.015-0.033
		c-0.163,0.029-0.328,0.06-0.49,0.088c-0.233,0.213-0.503,0.393-0.761,0.531C38.955,21.415,38.676,21.521,38.474,21.566z"/>
	<path fill="#72BDC1" d="M40.552,23.949c-0.065,0.338-0.227,0.639-0.477,0.853c-0.26,0.211-0.58,0.36-0.884,0.463
		c-0.302,0.104-0.581,0.169-0.78,0.217c-0.205,0.041-0.325,0.067-0.325,0.067c0.515,0.094,1.006,0.072,1.421-0.048
		c0.162-0.048,0.307-0.114,0.439-0.194c0.012-0.048,0.019-0.096,0.033-0.141c0,0,0.008,0.039,0.023,0.108
		c0.183-0.115,0.334-0.252,0.432-0.402c0.184-0.274,0.181-0.538,0.173-0.688C40.575,24.024,40.552,23.949,40.552,23.949z"/>
	<path fill="#72BDC1" d="M39.947,25.307c-0.011,0.053-0.023,0.105-0.035,0.157c-0.014,0.101-0.034,0.201-0.077,0.298
		c-0.034,0.097-0.066,0.195-0.1,0.292l-0.145,0.275c-0.039,0.096-0.108,0.177-0.169,0.255c-0.065,0.078-0.109,0.171-0.187,0.237
		c-0.148,0.134-0.277,0.284-0.44,0.373c-0.075,0.05-0.153,0.102-0.224,0.149c-0.08,0.035-0.155,0.07-0.229,0.103
		c-0.072,0.036-0.141,0.065-0.207,0.097c-0.064,0.025-0.13,0.036-0.187,0.054c-0.233,0.07-0.372,0.109-0.372,0.109
		c0.612,0.057,1.198-0.104,1.625-0.399c0.1-0.08,0.193-0.163,0.285-0.244c0.094-0.076,0.147-0.185,0.216-0.271
		c0.144-0.172,0.202-0.373,0.266-0.541c0.099-0.349,0.105-0.629,0.063-0.812c-0.01-0.066-0.02-0.119-0.028-0.163
		c-0.016-0.069-0.023-0.108-0.023-0.108C39.965,25.211,39.958,25.259,39.947,25.307z"/>
	<path fill="#72BDC1" d="M36.457,31.344c-0.208,0.238-0.447,0.444-0.724,0.583c-0.28,0.132-0.592,0.206-0.883,0.247
		c-0.29,0.044-0.554,0.067-0.743,0.086c-0.189,0.022-0.302,0.031-0.302,0.031c0.46,0.143,0.895,0.215,1.289,0.179
		c0.193-0.015,0.374-0.06,0.533-0.123c0.026-0.012,0.049-0.024,0.074-0.035c0.133-0.062,0.253-0.136,0.344-0.216
		C36.483,31.689,36.441,31.329,36.457,31.344z"/>
	<path fill="#72BDC1" d="M39.309,31.357c-0.022,0.365-0.18,0.691-0.476,0.882c-0.29,0.201-0.655,0.315-0.988,0.382
		c-0.669,0.144-1.203,0.104-1.203,0.104c1.042,0.408,2.113,0.166,2.554-0.393c0.224-0.283,0.213-0.574,0.192-0.733
		C39.344,31.432,39.309,31.357,39.309,31.357z"/>
	<path fill="#72BDC1" d="M46.45,26.27c-0.346,0.018-0.651-0.028-0.866-0.088c-0.213-0.058-0.326-0.136-0.33-0.129
		c0.193,0.211,0.455,0.346,0.708,0.427c0.257,0.078,0.514,0.115,0.751,0.103c0.206-0.005,0.394-0.044,0.57-0.101
		c0.009-0.028,0.019-0.054,0.027-0.081c-0.008-0.002,0.002,0.022,0.013,0.07c0.213-0.074,0.4-0.175,0.545-0.292
		c0.271-0.218,0.388-0.477,0.427-0.643c0.027-0.175,0.022-0.262,0.022-0.262C48.001,25.96,47.143,26.248,46.45,26.27z"/>
	<path fill="#72BDC1" d="M47.283,26.481c-0.102,0.312-0.244,0.616-0.452,0.862c-0.231,0.262-0.532,0.455-0.835,0.554
		c-0.303,0.107-0.595,0.132-0.804,0.129c-0.104,0.003-0.188-0.007-0.248-0.014c-0.057-0.003-0.09-0.006-0.09-0.006
		c0.479,0.25,1.035,0.278,1.47,0.118c0.438-0.156,0.737-0.479,0.877-0.768c0.196-0.446,0.149-0.756,0.122-0.887
		c-0.011-0.048-0.021-0.072-0.013-0.07C47.302,26.428,47.292,26.453,47.283,26.481z"/>
	<path fill="#72BDC1" d="M40.933,25.69c0.549,0.108,1.099-0.017,1.491-0.278c0.095-0.07,0.187-0.136,0.272-0.209
		c0.069-0.084,0.137-0.167,0.2-0.244c0.067-0.076,0.11-0.161,0.147-0.246c0.04-0.083,0.074-0.161,0.108-0.237
		c0.092-0.315,0.113-0.564,0.088-0.733c-0.016-0.168-0.032-0.253-0.032-0.253c-0.196,0.698-0.572,1.451-1.161,1.787
		c-0.141,0.088-0.275,0.175-0.411,0.216c-0.135,0.051-0.252,0.106-0.358,0.12C41.062,25.659,40.933,25.69,40.933,25.69z"/>
	<path fill="#72BDC1" d="M48.379,21.038c-0.195,0.528-0.271,1.163-0.556,1.561c-0.071,0.099-0.134,0.197-0.214,0.266
		c-0.075,0.077-0.141,0.148-0.208,0.193c-0.13,0.101-0.21,0.162-0.21,0.162c0.422-0.058,0.792-0.291,0.996-0.591
		c0.22-0.298,0.263-0.614,0.289-0.849c0.009-0.244-0.015-0.43-0.047-0.553C48.404,21.103,48.379,21.038,48.379,21.038z"/>
	<path fill="#72BDC1" d="M49.94,26.321c-0.205,0.21-0.423,0.36-0.592,0.449c-0.083,0.046-0.153,0.075-0.203,0.095
		c-0.051,0.02-0.076,0.03-0.076,0.03c0.499,0.026,0.958-0.211,1.251-0.501c0.303-0.287,0.453-0.637,0.507-0.925
		c0.1-0.598-0.15-0.877-0.133-0.869C50.678,25.241,50.365,25.9,49.94,26.321z"/>
	<path fill="#72BDC1" d="M50.325,24.164c0.122-0.184,0.148-0.377,0.148-0.528c-0.009-0.152-0.046-0.266-0.085-0.342
		c-0.037-0.074-0.065-0.109-0.065-0.109c-0.15,0.327-0.21,0.657-0.331,0.927c-0.055,0.136-0.116,0.255-0.164,0.343
		c-0.048,0.086-0.077,0.141-0.077,0.141C50.012,24.52,50.209,24.351,50.325,24.164z"/>
	<path fill="#D9F3F9" d="M19.624,33.44c0.199-0.146,0.391-0.304,0.585-0.456c2.399-1.891,4.539-4.089,7.032-5.879
		c1.486-1.064,3.009-2.099,4.555-3.072c1.647-1.034,3.362-2.092,5.227-2.685c0.974-0.308,1.981-0.456,2.987-0.625
		c0.162-0.028,0.327-0.059,0.49-0.088c0.285-0.052,0.571-0.107,0.854-0.174c1.038-0.242,2.114-0.574,3.122-1.038
		c0.808-0.373,1.571-0.829,2.228-1.406c0.454-0.399,0.758-0.821,0.905-1.228c-6.385,1.052-16.323,5.592-21.167,9.354
		c-2.773,2.157-7.207,5.903-10.234,8.441c0.108,0.036,0.206,0.06,0.29,0.075C17.654,34.841,18.75,34.099,19.624,33.44z"/>
	<path fill="#C63532" d="M9.377,32.251c-0.872-0.931-1.987-1.827-3.396-2.447c-2.338-1.025-4.043-1.991-5.144-2.676
		c-0.066-0.042-0.147-0.09-0.208-0.129c0,0,0,0,0,0c-0.703-0.446-1.12-0.753-1.223-0.83c-0.017-0.015-0.026-0.023-0.026-0.023
		s0.136,1.169,0.78,1.542c2.606,1.516,8.159,4.089,11.197,7.339c-0.291-0.547-0.702-1.219-1.242-1.914
		C9.893,32.826,9.646,32.537,9.377,32.251z"/>
	<path fill="#C63532" d="M57.585,15.885c-0.243-0.047-0.51-0.095-0.796-0.14c-0.013-0.002-0.026-0.004-0.039-0.007
		c-0.289-0.044-0.598-0.087-0.929-0.126c-2.093-0.246-5.016-0.327-8.633,0.227c-0.474,0.073-0.963,0.158-1.462,0.254
		c-0.062,0.011-0.126,0.024-0.188,0.037c-0.501,0.098-1.011,0.207-1.532,0.33l0,0c-2.301,0.544-4.814,1.341-7.521,2.484
		c-0.441,0.188-0.876,0.378-1.309,0.573c-0.912,0.412-1.801,0.845-2.668,1.289c-0.459,0.236-0.911,0.475-1.356,0.718
		c-0.08,0.044-0.16,0.088-0.24,0.132c-0.486,0.268-0.967,0.539-1.438,0.813c-0.001,0-0.002,0.001-0.002,0.001
		c-3.315,1.93-6.233,4.013-8.695,5.964c-0.304,0.24-0.603,0.479-0.892,0.715c-0.019,0.016-0.038,0.031-0.057,0.046
		c-0.333,0.273-0.658,0.542-0.974,0.809c0,0-0.001,0-0.002,0c-3.924,3.302-6.348,5.938-6.911,6.297c0,0,0.781,0.959,0.994,0.959
		c0.044,0,0.476-0.342,1.164-0.91c0.554-0.458,1.279-1.064,2.109-1.763c3.027-2.538,7.461-6.284,10.234-8.441
		c4.843-3.763,14.782-8.302,21.167-9.354c0.509-0.086,1.001-0.15,1.462-0.188c1.905-0.154,3.41-0.172,4.604-0.118
		c3.205,0.145,4.144,0.809,4.401,0.757c0.354-0.072,1.455-0.852,1.455-0.852S58.855,16.134,57.585,15.885L57.585,15.885z"/>
	<path fill="#FF6957" d="M6.155,15.982c0.953-1.279,3.493-3.394,6.485-5.482c-1.317,0.253-2.507,0.506-3.467,0.717
		c-3.284,2.845-5.727,6.559-7.351,9.571c1.862-0.366,4.461-1.091,7.036-1.843C6.701,18.136,5.275,17.163,6.155,15.982z"/>
	<path fill="#FF6957" d="M19.885,29.149c-0.019,0.016-0.038,0.031-0.057,0.046C19.847,29.181,19.867,29.165,19.885,29.149z"/>
	<path fill="#FF6957" d="M56.789,15.745c-0.013-0.002-0.026-0.004-0.039-0.007C56.763,15.741,56.777,15.743,56.789,15.745z"/>
	<path fill="#FF6957" d="M45.727,16.093c-0.062,0.011-0.126,0.024-0.188,0.037C45.601,16.118,45.664,16.104,45.727,16.093z"/>
	<path fill="#FF6957" d="M11.36,25.281c-2.396,1.065-7.035,2.153-9.226,2.613c-0.505-0.284-0.929-0.538-1.296-0.767
		c1.1,0.685,2.806,1.65,5.144,2.676c1.41,0.62,2.525,1.517,3.396,2.447c-0.019-0.02-0.032-0.04-0.051-0.06
		c2.044-0.808,9.257-3.11,11.557-3.843c-0.036,0.028-0.07,0.057-0.106,0.086c2.462-1.951,5.38-4.034,8.695-5.964
		c-0.948,0.246-2.016,0.507-3.03,0.712C23.676,23.745,14.356,23.948,11.36,25.281z"/>
	<path fill="#FF6957" d="M31.153,21.524c-0.08,0.044-0.16,0.088-0.24,0.132C30.992,21.612,31.073,21.568,31.153,21.524z"/>
	<path fill="#FF6957" d="M55.554,10.898c-3.494-3.583-7.747-6.431-7.747-6.431c-6.043-2.781-12.101-3.273-17.666-2.507
		C40.628,2.311,49.375,6.74,53.678,9.096C54.308,9.667,54.944,10.271,55.554,10.898z"/>
	<path fill="#FF6957" d="M18.853,30.004c-2.601,0.343-8.722,3.127-8.722,3.127c-0.005-0.007-0.011-0.012-0.016-0.019
		c0.54,0.695,0.951,1.367,1.242,1.914c0,0,0.001,0.001,0.001,0.002c0.329,0.613,0.51,1.072,0.565,1.22
		c0.013,0.032,0.019,0.053,0.019,0.053C12.505,35.941,14.929,33.306,18.853,30.004L18.853,30.004z"/>
	<path fill="#FF6957" d="M45.235,5.957C36.526,2.487,26.384,2.764,26,2.774C19.899,4.322,14.63,7.196,10.96,9.82
		c1.268-0.349,2.701-0.696,4.181-0.988c3.34-2.13,6.845-3.968,9.173-4.489c6.6-1.478,8.157-0.702,10.592-0.468
		c2.434,0.233,6.429,3.738,5.149,5.241c-0.046,0.011-0.097,0.027-0.142,0.038c1.437,0.225,2.76,0.483,3.898,0.778
		c6.03,1.56,13.414,5.19,13.772,5.952c1.27,0.249,1.947,0.506,1.947,0.506V16.39c-0.765-1.842-2.281-3.751-3.975-5.488
		C53.51,9.692,50.133,7.908,45.235,5.957z"/>
	<path fill="#FF6957" d="M0.629,26.999c2.355-0.471,7.098-1.387,9.468-2.24c3.519-1.267,10.15-2.336,13.769-2.614
		c3.178-0.245,7.725-1.188,8.79-1.416c-0.05,0.026-0.098,0.054-0.147,0.078c0.867-0.444,1.756-0.877,2.668-1.289
		c0.433-0.194,0.867-0.385,1.309-0.573c2.707-1.144,5.221-1.94,7.521-2.484c0,0-0.003,0-0.005,0
		c-2.218-0.073-10.341-0.566-15.736-0.566c-0.117,0-0.24,0.006-0.359,0.007c-4.633,3.236-8.703,6.274-9.66,5.743
		c-0.954-0.53-4.815-1.238-7.972-2.217c-3.444,0.954-7.534,2.107-9.066,2.54c-0.942,1.877-1.517,3.34-1.732,3.915
		c-0.065,0.172-0.097,0.264-0.097,0.264s0.009,0.009,0.026,0.023C-0.491,26.246-0.074,26.553,0.629,26.999z"/>
	<path fill="#FF6957" d="M55.814,15.61c0,0-5.118-2.626-11.86-4.613c-1.698-0.501-3.765-0.888-6-1.178
		c-2.559,1.08-5.617,3.036-8.562,5.055c0.513-0.029,0.971-0.045,1.359-0.045c3.123,0,14.135,0.353,16.455,1.006c0,0,0,0,0.002,0
		c-0.006,0.001-0.013,0.002-0.019,0.003c3.617-0.554,6.54-0.473,8.633-0.227c-0.001,0-0.003,0-0.004,0L55.814,15.61z"/>
	<path fill="#FF958D" d="M39.914,9.154c0.045-0.011,0.096-0.027,0.142-0.038c1.279-1.502-2.716-5.007-5.149-5.241
		c-2.436-0.234-3.992-1.01-10.592,0.468c-2.328,0.521-5.833,2.359-9.173,4.489c1.884-0.372,3.844-0.657,5.642-0.746
		C25.423,7.855,33.724,8.187,39.914,9.154z"/>
	<path fill="#FF958D" d="M18.827,9.506c-2.112,0.257-4.282,0.627-6.188,0.994c-2.992,2.088-5.532,4.204-6.485,5.482
		c-0.88,1.181,0.546,2.153,2.703,2.962c2.703-0.788,5.375-1.603,7.131-2.058c3.603-0.932,9.814-1.809,13.402-2.013
		c2.945-2.019,6.004-3.976,8.562-5.055C31.31,8.96,23.182,8.975,18.827,9.506z"/>
	<path fill="#FF958D" d="M10.275,19.427c3.157,0.979,7.018,1.687,7.972,2.217c0.957,0.531,5.026-2.507,9.66-5.743
		c-5.32,0.078-11.59,1.865-15.964,3.065C11.415,19.112,10.855,19.266,10.275,19.427z"/>
	<path fill="#FFBDB8" d="M9.326,32.191c0.019,0.02,0.032,0.04,0.051,0.06c0.269,0.286,0.516,0.575,0.738,0.861
		c0.004,0.007,0.011,0.012,0.016,0.019c0,0,6.122-2.784,8.722-3.127l0,0c0.001,0,0.002,0,0.002,0
		c0.315-0.267,0.64-0.535,0.974-0.809c0.019-0.015,0.038-0.03,0.057-0.046c0.29-0.235,0.588-0.475,0.892-0.715
		c0.036-0.029,0.07-0.058,0.106-0.086C18.584,29.081,11.37,31.384,9.326,32.191z"/>
	<path fill="#FFBDB8" d="M23.866,22.145c-3.619,0.278-10.25,1.348-13.769,2.614c-2.37,0.854-7.113,1.77-9.468,2.24c0,0,0,0,0,0
		c0.062,0.039,0.142,0.087,0.208,0.129c0.368,0.229,0.791,0.482,1.296,0.767c2.191-0.46,6.83-1.548,9.226-2.613
		c2.997-1.333,12.316-1.536,15.083-2.099c1.014-0.205,2.082-0.466,3.03-0.712c0,0,0.001-0.001,0.002-0.001
		c0.471-0.274,0.951-0.546,1.438-0.813c0.08-0.044,0.16-0.088,0.24-0.132c0.445-0.243,0.897-0.481,1.356-0.718
		c0.05-0.024,0.098-0.052,0.147-0.078C31.591,20.957,27.044,21.899,23.866,22.145z"/>
	<path fill="#FFBDB8" d="M11.943,18.966c4.374-1.2,10.644-2.987,15.964-3.065c0.119-0.001,0.242-0.007,0.359-0.007
		c5.396,0,13.519,0.493,15.736,0.566c0.002,0,0.005,0,0.005,0l0,0c0.521-0.124,1.031-0.232,1.532-0.33
		c0.062-0.013,0.125-0.026,0.188-0.037c0.499-0.096,0.988-0.182,1.462-0.254c0.006-0.001,0.013-0.002,0.019-0.003
		c-0.002,0-0.002,0-0.002,0c-2.32-0.653-13.332-1.006-16.455-1.006c-0.389,0-0.847,0.016-1.359,0.045
		c-3.588,0.205-9.8,1.082-13.402,2.013c-1.756,0.455-4.428,1.27-7.131,2.058c-2.575,0.752-5.174,1.477-7.036,1.843
		c-0.219,0.408-0.423,0.803-0.613,1.179c1.532-0.433,5.622-1.586,9.066-2.54C10.855,19.266,11.415,19.112,11.943,18.966z"/>
	<path fill="#FFBDB8" d="M18.827,9.506C23.182,8.975,31.31,8.96,37.953,9.819c2.235,0.29,4.302,0.677,6,1.178
		c6.742,1.987,11.86,4.613,11.86,4.613l0.004,0.001c0.001,0,0.003,0,0.004,0c0.331,0.039,0.64,0.082,0.929,0.126
		c0.013,0.002,0.026,0.004,0.039,0.007c0.286,0.044,0.553,0.092,0.796,0.14l0,0c-0.358-0.762-7.742-4.392-13.772-5.952
		c-1.139-0.295-2.462-0.553-3.898-0.778c-6.19-0.967-14.492-1.299-19.131-1.068c-1.797,0.089-3.758,0.374-5.642,0.746
		c-1.48,0.292-2.914,0.639-4.181,0.988c-0.002,0-0.003,0-0.005,0.001c-0.118,0.084-0.237,0.17-0.354,0.253
		c-0.008,0.007-0.017,0.013-0.026,0.02c-0.485,0.355-0.954,0.732-1.406,1.124c0.001,0,0.002,0,0.003-0.001
		c0.96-0.211,2.15-0.463,3.467-0.717C14.546,10.133,16.715,9.763,18.827,9.506z"/>
	<path fill="#FFBDB8" d="M45.235,5.957c4.898,1.951,8.275,3.735,10.323,4.944c0,0,0.001,0,0.001,0
		c-0.002-0.001-0.003-0.002-0.005-0.004c-0.61-0.627-1.246-1.23-1.876-1.802c-4.303-2.356-13.05-6.786-23.537-7.137H30.14
		c-0.353,0.048-0.701,0.103-1.051,0.162c-0.106,0.018-0.216,0.037-0.324,0.056c-0.298,0.053-0.599,0.109-0.895,0.168
		c-0.079,0.017-0.158,0.031-0.237,0.047c-0.361,0.076-0.72,0.157-1.077,0.242c-0.093,0.021-0.186,0.045-0.278,0.068
		c-0.097,0.023-0.195,0.046-0.291,0.072c0.001,0,0.008-0.001,0.013-0.001C26.384,2.764,36.526,2.487,45.235,5.957z"/>
</g>
</svg>
