<?xml version="1.0" encoding="utf-8"?>
<!-- Generator: Adobe Illustrator 16.0.0, SVG Export Plug-In . SVG Version: 6.00 Build 0)  -->
<!DOCTYPE svg PUBLIC "-//W3C//DTD SVG 1.1//EN" "http://www.w3.org/Graphics/SVG/1.1/DTD/svg11.dtd">
<svg version="1.1" id="Layer_1" xmlns="http://www.w3.org/2000/svg" xmlns:xlink="http://www.w3.org/1999/xlink" x="0px" y="0px"
	 width="55.145px" height="50.02px" viewBox="0 0 55.145 50.02" enable-background="new 0 0 55.145 50.02" xml:space="preserve">
<g>
	<g>
		<g>
			<g>
				<g>
					<ellipse fill="#F6921E" cx="27.333" cy="11.301" rx="26.121" ry="11.3"/>
				</g>
				<g>
					<ellipse fill="#F6921E" cx="27.333" cy="39.064" rx="26.121" ry="11.3"/>
				</g>
				<rect x="1.212" y="11.301" fill="#F6921E" width="52.204" height="28.36"/>
			</g>
		</g>
		<g>
			<g>
				<g>
					<ellipse fill="#F6931F" cx="27.333" cy="11.347" rx="26.041" ry="11.266"/>
				</g>
				<g>
					<ellipse fill="#F6931F" cx="27.333" cy="39.027" rx="26.041" ry="11.266"/>
				</g>
				<rect x="1.292" y="11.347" fill="#F6931F" width="52.045" height="28.274"/>
			</g>
		</g>
		<g>
			<g>
				<g>
					<ellipse fill="#F6931F" cx="27.333" cy="11.395" rx="25.962" ry="11.231"/>
				</g>
				<g>
					<ellipse fill="#F6931F" cx="27.333" cy="38.99" rx="25.962" ry="11.23"/>
				</g>
				<rect x="1.371" y="11.395" fill="#F6931F" width="51.887" height="28.187"/>
			</g>
		</g>
		<g>
			<g>
				<g>
					<ellipse fill="#F69420" cx="27.333" cy="11.442" rx="25.883" ry="11.197"/>
				</g>
				<g>
					<ellipse fill="#F69420" cx="27.333" cy="38.951" rx="25.883" ry="11.196"/>
				</g>
				<rect x="1.45" y="11.442" fill="#F69420" width="51.728" height="28.101"/>
			</g>
		</g>
		<g>
			<g>
				<g>
					<ellipse fill="#F69420" cx="27.332" cy="11.489" rx="25.803" ry="11.163"/>
				</g>
				<g>
					<ellipse fill="#F69420" cx="27.332" cy="38.914" rx="25.803" ry="11.162"/>
				</g>
				<rect x="1.53" y="11.489" fill="#F69420" width="51.569" height="28.015"/>
			</g>
		</g>
		<g>
			<g>
				<g>
					<ellipse fill="#F69521" cx="27.333" cy="11.536" rx="25.723" ry="11.128"/>
				</g>
				<g>
					<ellipse fill="#F69521" cx="27.333" cy="38.877" rx="25.723" ry="11.128"/>
				</g>
				<rect x="1.61" y="11.536" fill="#F69521" width="51.41" height="27.929"/>
			</g>
		</g>
		<g>
			<g>
				<g>
					<ellipse fill="#F69622" cx="27.333" cy="11.583" rx="25.644" ry="11.094"/>
				</g>
				<g>
					<ellipse fill="#F69622" cx="27.333" cy="38.839" rx="25.644" ry="11.094"/>
				</g>
				<rect x="1.689" y="11.583" fill="#F69622" width="51.252" height="27.842"/>
			</g>
		</g>
		<g>
			<g>
				<g>
					<ellipse fill="#F69622" cx="27.333" cy="11.63" rx="25.565" ry="11.06"/>
				</g>
				<g>
					<ellipse fill="#F69622" cx="27.333" cy="38.802" rx="25.565" ry="11.06"/>
				</g>
				<rect x="1.768" y="11.63" fill="#F69622" width="51.093" height="27.756"/>
			</g>
		</g>
		<g>
			<g>
				<g>
					<ellipse fill="#F69723" cx="27.333" cy="11.678" rx="25.485" ry="11.025"/>
				</g>
				<g>
					<ellipse fill="#F69723" cx="27.333" cy="38.766" rx="25.485" ry="11.024"/>
				</g>
				<rect x="1.848" y="11.678" fill="#F69723" width="50.934" height="27.669"/>
			</g>
		</g>
		<g>
			<g>
				<g>
					<ellipse fill="#F69723" cx="27.333" cy="11.724" rx="25.406" ry="10.991"/>
				</g>
				<g>
					<ellipse fill="#F69723" cx="27.333" cy="38.728" rx="25.406" ry="10.99"/>
				</g>
				<rect x="1.927" y="11.724" fill="#F69723" width="50.775" height="27.583"/>
			</g>
		</g>
		<g>
			<g>
				<g>
					<ellipse fill="#F69824" cx="27.333" cy="11.772" rx="25.326" ry="10.957"/>
				</g>
				<g>
					<ellipse fill="#F69824" cx="27.333" cy="38.691" rx="25.326" ry="10.956"/>
				</g>
				<rect x="2.007" y="11.772" fill="#F69824" width="50.617" height="27.497"/>
			</g>
		</g>
		<g>
			<g>
				<g>
					<ellipse fill="#F69924" cx="27.333" cy="11.819" rx="25.247" ry="10.923"/>
				</g>
				<g>
					<ellipse fill="#F69924" cx="27.333" cy="38.654" rx="25.247" ry="10.922"/>
				</g>
				<rect x="2.086" y="11.819" fill="#F69924" width="50.457" height="27.411"/>
			</g>
		</g>
		<g>
			<g>
				<g>
					<ellipse fill="#F69925" cx="27.332" cy="11.865" rx="25.167" ry="10.888"/>
				</g>
				<g>
					<ellipse fill="#F69925" cx="27.332" cy="38.615" rx="25.167" ry="10.888"/>
				</g>
				<rect x="2.165" y="11.865" fill="#F69925" width="50.299" height="27.325"/>
			</g>
		</g>
		<g>
			<g>
				<g>
					<ellipse fill="#F69A26" cx="27.332" cy="11.913" rx="25.088" ry="10.854"/>
				</g>
				<g>
					<ellipse fill="#F69A26" cx="27.332" cy="38.578" rx="25.088" ry="10.854"/>
				</g>
				<rect x="2.244" y="11.913" fill="#F69A26" width="50.141" height="27.239"/>
			</g>
		</g>
		<g>
			<g>
				<g>
					<ellipse fill="#F69A26" cx="27.333" cy="11.96" rx="25.009" ry="10.82"/>
				</g>
				<g>
					<ellipse fill="#F69A26" cx="27.333" cy="38.541" rx="25.009" ry="10.818"/>
				</g>
				<rect x="2.324" y="11.96" fill="#F69A26" width="49.982" height="27.153"/>
			</g>
		</g>
		<g>
			<g>
				<g>
					<ellipse fill="#F69B27" cx="27.333" cy="12.008" rx="24.929" ry="10.785"/>
				</g>
				<g>
					<ellipse fill="#F69B27" cx="27.333" cy="38.504" rx="24.929" ry="10.784"/>
				</g>
				<rect x="2.404" y="12.008" fill="#F69B27" width="49.823" height="27.066"/>
			</g>
		</g>
		<g>
			<g>
				<g>
					<ellipse fill="#F69C27" cx="27.333" cy="12.054" rx="24.85" ry="10.75"/>
				</g>
				<g>
					<ellipse fill="#F69C27" cx="27.333" cy="38.467" rx="24.85" ry="10.75"/>
				</g>
				<rect x="2.484" y="12.054" fill="#F69C27" width="49.664" height="26.98"/>
			</g>
		</g>
		<g>
			<g>
				<g>
					<ellipse fill="#F69C28" cx="27.333" cy="12.101" rx="24.77" ry="10.716"/>
				</g>
				<g>
					<ellipse fill="#F69C28" cx="27.333" cy="38.429" rx="24.77" ry="10.716"/>
				</g>
				<rect x="2.563" y="12.101" fill="#F69C28" width="49.505" height="26.894"/>
			</g>
		</g>
		<g>
			<g>
				<g>
					<ellipse fill="#F69D29" cx="27.333" cy="12.149" rx="24.691" ry="10.682"/>
				</g>
				<g>
					<ellipse fill="#F69D29" cx="27.333" cy="38.392" rx="24.691" ry="10.682"/>
				</g>
				<rect x="2.642" y="12.149" fill="#F69D29" width="49.347" height="26.807"/>
			</g>
		</g>
		<g>
			<g>
				<g>
					<ellipse fill="#F69E29" cx="27.333" cy="12.196" rx="24.611" ry="10.647"/>
				</g>
				<g>
					<ellipse fill="#F69E29" cx="27.333" cy="38.355" rx="24.611" ry="10.646"/>
				</g>
				<rect x="2.721" y="12.196" fill="#F69E29" width="49.187" height="26.722"/>
			</g>
		</g>
		<g>
			<g>
				<g>
					<ellipse fill="#F69E2A" cx="27.333" cy="12.243" rx="24.532" ry="10.613"/>
				</g>
				<g>
					<ellipse fill="#F69E2A" cx="27.333" cy="38.318" rx="24.532" ry="10.612"/>
				</g>
				<rect x="2.801" y="12.243" fill="#F69E2A" width="49.029" height="26.635"/>
			</g>
		</g>
		<g>
			<g>
				<g>
					<ellipse fill="#F69F2A" cx="27.333" cy="12.29" rx="24.453" ry="10.578"/>
				</g>
				<g>
					<ellipse fill="#F69F2A" cx="27.333" cy="38.281" rx="24.453" ry="10.577"/>
				</g>
				<rect x="2.88" y="12.29" fill="#F69F2A" width="48.87" height="26.548"/>
			</g>
		</g>
		<g>
			<g>
				<g>
					<ellipse fill="#F69F2B" cx="27.333" cy="12.337" rx="24.373" ry="10.544"/>
				</g>
				<g>
					<ellipse fill="#F69F2B" cx="27.333" cy="38.242" rx="24.373" ry="10.544"/>
				</g>
				<rect x="2.96" y="12.337" fill="#F69F2B" width="48.71" height="26.462"/>
			</g>
		</g>
		<g>
			<g>
				<g>
					<ellipse fill="#F6A02C" cx="27.333" cy="12.384" rx="24.293" ry="10.51"/>
				</g>
				<g>
					<ellipse fill="#F6A02C" cx="27.333" cy="38.205" rx="24.293" ry="10.51"/>
				</g>
				<rect x="3.039" y="12.384" fill="#F6A02C" width="48.553" height="26.376"/>
			</g>
		</g>
		<g>
			<g>
				<g>
					<ellipse fill="#F6A12C" cx="27.333" cy="12.431" rx="24.214" ry="10.476"/>
				</g>
				<g>
					<ellipse fill="#F6A12C" cx="27.333" cy="38.168" rx="24.214" ry="10.476"/>
				</g>
				<rect x="3.118" y="12.431" fill="#F6A12C" width="48.395" height="26.29"/>
			</g>
		</g>
		<g>
			<g>
				<g>
					<ellipse fill="#F6A12D" cx="27.333" cy="12.478" rx="24.135" ry="10.441"/>
				</g>
				<g>
					<ellipse fill="#F6A12D" cx="27.333" cy="38.131" rx="24.135" ry="10.44"/>
				</g>
				<rect x="3.198" y="12.478" fill="#F6A12D" width="48.235" height="26.204"/>
			</g>
		</g>
		<g>
			<g>
				<g>
					<ellipse fill="#F6A22D" cx="27.333" cy="12.525" rx="24.055" ry="10.407"/>
				</g>
				<g>
					<ellipse fill="#F6A22D" cx="27.333" cy="38.093" rx="24.055" ry="10.406"/>
				</g>
				<rect x="3.278" y="12.525" fill="#F6A22D" width="48.076" height="26.117"/>
			</g>
		</g>
		<g>
			<g>
				<g>
					<ellipse fill="#F6A22E" cx="27.333" cy="12.573" rx="23.976" ry="10.373"/>
				</g>
				<g>
					<ellipse fill="#F6A22E" cx="27.333" cy="38.056" rx="23.976" ry="10.372"/>
				</g>
				<rect x="3.357" y="12.573" fill="#F6A22E" width="47.917" height="26.03"/>
			</g>
		</g>
		<g>
			<g>
				<g>
					<ellipse fill="#F6A32F" cx="27.333" cy="12.62" rx="23.896" ry="10.338"/>
				</g>
				<g>
					<ellipse fill="#F6A32F" cx="27.333" cy="38.019" rx="23.896" ry="10.338"/>
				</g>
				<rect x="3.437" y="12.62" fill="#F6A32F" width="47.759" height="25.945"/>
			</g>
		</g>
		<g>
			<g>
				<g>
					<ellipse fill="#F6A42F" cx="27.333" cy="12.666" rx="23.817" ry="10.305"/>
				</g>
				<g>
					<ellipse fill="#F6A42F" cx="27.333" cy="37.982" rx="23.817" ry="10.303"/>
				</g>
				<rect x="3.516" y="12.666" fill="#F6A42F" width="47.6" height="25.859"/>
			</g>
		</g>
		<g>
			<g>
				<g>
					<ellipse fill="#F6A430" cx="27.333" cy="12.713" rx="23.738" ry="10.271"/>
				</g>
				<g>
					<ellipse fill="#F6A430" cx="27.333" cy="37.945" rx="23.738" ry="10.269"/>
				</g>
				<rect x="3.595" y="12.713" fill="#F6A430" width="47.441" height="25.772"/>
			</g>
		</g>
		<g>
			<g>
				<g>
					<ellipse fill="#F5A530" cx="27.333" cy="12.761" rx="23.658" ry="10.235"/>
				</g>
				<g>
					<ellipse fill="#F5A530" cx="27.333" cy="37.907" rx="23.658" ry="10.233"/>
				</g>
				<rect x="3.675" y="12.761" fill="#F5A530" width="47.283" height="25.686"/>
			</g>
		</g>
		<g>
			<g>
				<g>
					<ellipse fill="#F5A531" cx="27.333" cy="12.808" rx="23.579" ry="10.201"/>
				</g>
				<g>
					<ellipse fill="#F5A531" cx="27.333" cy="37.869" rx="23.579" ry="10.2"/>
				</g>
				<rect x="3.754" y="12.808" fill="#F5A531" width="47.124" height="25.6"/>
			</g>
		</g>
		<g>
			<g>
				<g>
					<ellipse fill="#F5A631" cx="27.333" cy="12.855" rx="23.5" ry="10.167"/>
				</g>
				<g>
					<ellipse fill="#F5A631" cx="27.333" cy="37.832" rx="23.5" ry="10.165"/>
				</g>
				<rect x="3.833" y="12.855" fill="#F5A631" width="46.966" height="25.514"/>
			</g>
		</g>
		<g>
			<g>
				<g>
					<ellipse fill="#F5A732" cx="27.333" cy="12.903" rx="23.419" ry="10.132"/>
				</g>
				<g>
					<ellipse fill="#F5A732" cx="27.333" cy="37.795" rx="23.419" ry="10.131"/>
				</g>
				<rect x="3.913" y="12.903" fill="#F5A732" width="46.806" height="25.427"/>
			</g>
		</g>
		<g>
			<g>
				<g>
					<ellipse fill="#F5A733" cx="27.333" cy="12.949" rx="23.34" ry="10.098"/>
				</g>
				<g>
					<ellipse fill="#F5A733" cx="27.333" cy="37.757" rx="23.34" ry="10.098"/>
				</g>
				<rect x="3.992" y="12.949" fill="#F5A733" width="46.647" height="25.341"/>
			</g>
		</g>
		<g>
			<g>
				<g>
					<ellipse fill="#F5A833" cx="27.333" cy="12.996" rx="23.261" ry="10.063"/>
				</g>
				<g>
					<ellipse fill="#F5A833" cx="27.333" cy="37.72" rx="23.261" ry="10.062"/>
				</g>
				<rect x="4.072" y="12.996" fill="#F5A833" width="46.489" height="25.255"/>
			</g>
		</g>
		<g>
			<g>
				<g>
					<ellipse fill="#F5A834" cx="27.333" cy="13.043" rx="23.181" ry="10.029"/>
				</g>
				<g>
					<ellipse fill="#F5A834" cx="27.333" cy="37.683" rx="23.181" ry="10.028"/>
				</g>
				<rect x="4.152" y="13.043" fill="#F5A834" width="46.329" height="25.169"/>
			</g>
		</g>
		<g>
			<g>
				<g>
					<ellipse fill="#F5A934" cx="27.333" cy="13.091" rx="23.102" ry="9.995"/>
				</g>
				<g>
					<ellipse fill="#F5A934" cx="27.333" cy="37.646" rx="23.102" ry="9.994"/>
				</g>
				<rect x="4.231" y="13.091" fill="#F5A934" width="46.171" height="25.083"/>
			</g>
		</g>
		<g>
			<g>
				<g>
					<ellipse fill="#F5AA35" cx="27.333" cy="13.137" rx="23.022" ry="9.961"/>
				</g>
				<g>
					<ellipse fill="#F5AA35" cx="27.333" cy="37.609" rx="23.022" ry="9.959"/>
				</g>
				<rect x="4.311" y="13.137" fill="#F5AA35" width="46.012" height="24.997"/>
			</g>
		</g>
		<g>
			<g>
				<g>
					<ellipse fill="#F5AA36" cx="27.333" cy="13.185" rx="22.943" ry="9.926"/>
				</g>
				<g>
					<ellipse fill="#F5AA36" cx="27.333" cy="37.572" rx="22.943" ry="9.924"/>
				</g>
				<rect x="4.389" y="13.185" fill="#F5AA36" width="45.854" height="24.91"/>
			</g>
		</g>
		<g>
			<g>
				<g>
					<ellipse fill="#F5AB36" cx="27.333" cy="13.232" rx="22.864" ry="9.891"/>
				</g>
				<g>
					<ellipse fill="#F5AB36" cx="27.333" cy="37.533" rx="22.864" ry="9.891"/>
				</g>
				<rect x="4.469" y="13.232" fill="#F5AB36" width="45.694" height="24.824"/>
			</g>
		</g>
		<g>
			<g>
				<g>
					<ellipse fill="#F5AB37" cx="27.333" cy="13.279" rx="22.784" ry="9.857"/>
				</g>
				<g>
					<ellipse fill="#F5AB37" cx="27.333" cy="37.496" rx="22.784" ry="9.856"/>
				</g>
				<rect x="4.549" y="13.279" fill="#F5AB37" width="45.536" height="24.738"/>
			</g>
		</g>
		<g>
			<g>
				<g>
					<ellipse fill="#F5AC37" cx="27.333" cy="13.326" rx="22.705" ry="9.822"/>
				</g>
				<g>
					<ellipse fill="#F5AC37" cx="27.333" cy="37.459" rx="22.705" ry="9.821"/>
				</g>
				<rect x="4.628" y="13.326" fill="#F5AC37" width="45.377" height="24.651"/>
			</g>
		</g>
		<g>
			<g>
				<g>
					<ellipse fill="#F5AD38" cx="27.332" cy="13.373" rx="22.625" ry="9.789"/>
				</g>
				<g>
					<ellipse fill="#F5AD38" cx="27.332" cy="37.422" rx="22.625" ry="9.787"/>
				</g>
				<rect x="4.707" y="13.373" fill="#F5AD38" width="45.219" height="24.565"/>
			</g>
		</g>
		<g>
			<g>
				<g>
					<ellipse fill="#F5AD39" cx="27.333" cy="13.42" rx="22.546" ry="9.755"/>
				</g>
				<g>
					<ellipse fill="#F5AD39" cx="27.333" cy="37.384" rx="22.546" ry="9.754"/>
				</g>
				<rect x="4.787" y="13.42" fill="#F5AD39" width="45.059" height="24.479"/>
			</g>
		</g>
		<g>
			<g>
				<g>
					<ellipse fill="#F5AE39" cx="27.333" cy="13.468" rx="22.466" ry="9.72"/>
				</g>
				<g>
					<ellipse fill="#F5AE39" cx="27.333" cy="37.347" rx="22.466" ry="9.719"/>
				</g>
				<rect x="4.866" y="13.468" fill="#F5AE39" width="44.901" height="24.392"/>
			</g>
		</g>
		<g>
			<g>
				<g>
					<ellipse fill="#F5AF3A" cx="27.333" cy="13.515" rx="22.387" ry="9.685"/>
				</g>
				<g>
					<ellipse fill="#F5AF3A" cx="27.333" cy="37.31" rx="22.387" ry="9.685"/>
				</g>
				<rect x="4.946" y="13.515" fill="#F5AF3A" width="44.742" height="24.306"/>
			</g>
		</g>
		<g>
			<g>
				<g>
					<ellipse fill="#F5AF3A" cx="27.332" cy="13.562" rx="22.308" ry="9.651"/>
				</g>
				<g>
					<ellipse fill="#F5AF3A" cx="27.332" cy="37.273" rx="22.308" ry="9.649"/>
				</g>
				<rect x="5.025" y="13.562" fill="#F5AF3A" width="44.584" height="24.22"/>
			</g>
		</g>
		<g>
			<g>
				<g>
					<ellipse fill="#F5B03B" cx="27.333" cy="13.609" rx="22.228" ry="9.617"/>
				</g>
				<g>
					<ellipse fill="#F5B03B" cx="27.333" cy="37.235" rx="22.228" ry="9.616"/>
				</g>
				<rect x="5.104" y="13.609" fill="#F5B03B" width="44.425" height="24.134"/>
			</g>
		</g>
		<g>
			<g>
				<g>
					<ellipse fill="#F5B03C" cx="27.333" cy="13.656" rx="22.149" ry="9.583"/>
				</g>
				<g>
					<ellipse fill="#F5B03C" cx="27.333" cy="37.198" rx="22.149" ry="9.581"/>
				</g>
				<rect x="5.184" y="13.656" fill="#F5B03C" width="44.266" height="24.048"/>
			</g>
		</g>
		<g>
			<g>
				<g>
					<ellipse fill="#F5B13C" cx="27.333" cy="13.703" rx="22.07" ry="9.548"/>
				</g>
				<g>
					<ellipse fill="#F5B13C" cx="27.333" cy="37.16" rx="22.07" ry="9.547"/>
				</g>
				<rect x="5.263" y="13.703" fill="#F5B13C" width="44.107" height="23.961"/>
			</g>
		</g>
		<g>
			<g>
				<g>
					<ellipse fill="#F5B23D" cx="27.333" cy="13.75" rx="21.99" ry="9.514"/>
				</g>
				<g>
					<ellipse fill="#F5B23D" cx="27.333" cy="37.123" rx="21.99" ry="9.513"/>
				</g>
				<rect x="5.343" y="13.75" fill="#F5B23D" width="43.948" height="23.875"/>
			</g>
		</g>
		<g>
			<g>
				<g>
					<ellipse fill="#F5B23D" cx="27.332" cy="13.797" rx="21.91" ry="9.479"/>
				</g>
				<g>
					<ellipse fill="#F5B23D" cx="27.332" cy="37.086" rx="21.91" ry="9.478"/>
				</g>
				<rect x="5.422" y="13.797" fill="#F5B23D" width="43.79" height="23.789"/>
			</g>
		</g>
		<g>
			<g>
				<g>
					<ellipse fill="#F5B33E" cx="27.333" cy="13.844" rx="21.831" ry="9.445"/>
				</g>
				<g>
					<ellipse fill="#F5B33E" cx="27.333" cy="37.048" rx="21.831" ry="9.444"/>
				</g>
				<rect x="5.502" y="13.844" fill="#F5B33E" width="43.631" height="23.702"/>
			</g>
		</g>
		<g>
			<g>
				<g>
					<ellipse fill="#F5B33E" cx="27.333" cy="13.891" rx="21.751" ry="9.411"/>
				</g>
				<g>
					<ellipse fill="#F5B33E" cx="27.333" cy="37.011" rx="21.751" ry="9.41"/>
				</g>
				<rect x="5.581" y="13.891" fill="#F5B33E" width="43.472" height="23.616"/>
			</g>
		</g>
		<g>
			<g>
				<g>
					<ellipse fill="#F5B43F" cx="27.333" cy="13.939" rx="21.672" ry="9.376"/>
				</g>
				<g>
					<ellipse fill="#F5B43F" cx="27.333" cy="36.974" rx="21.672" ry="9.375"/>
				</g>
				<rect x="5.661" y="13.939" fill="#F5B43F" width="43.313" height="23.53"/>
			</g>
		</g>
		<g>
			<g>
				<g>
					<ellipse fill="#F5B540" cx="27.333" cy="13.986" rx="21.593" ry="9.342"/>
				</g>
				<g>
					<ellipse fill="#F5B540" cx="27.333" cy="36.937" rx="21.593" ry="9.341"/>
				</g>
				<rect x="5.74" y="13.986" fill="#F5B540" width="43.155" height="23.443"/>
			</g>
		</g>
		<g>
			<g>
				<g>
					<ellipse fill="#F5B540" cx="27.333" cy="14.033" rx="21.513" ry="9.307"/>
				</g>
				<g>
					<ellipse fill="#F5B540" cx="27.333" cy="36.9" rx="21.513" ry="9.306"/>
				</g>
				<rect x="5.82" y="14.033" fill="#F5B540" width="42.996" height="23.357"/>
			</g>
		</g>
		<g>
			<g>
				<g>
					<ellipse fill="#F5B641" cx="27.333" cy="14.08" rx="21.434" ry="9.273"/>
				</g>
				<g>
					<ellipse fill="#F5B641" cx="27.333" cy="36.862" rx="21.434" ry="9.272"/>
				</g>
				<rect x="5.899" y="14.08" fill="#F5B641" width="42.837" height="23.271"/>
			</g>
		</g>
		<g>
			<g>
				<g>
					<ellipse fill="#F5B641" cx="27.333" cy="14.127" rx="21.355" ry="9.239"/>
				</g>
				<g>
					<ellipse fill="#F5B641" cx="27.333" cy="36.824" rx="21.355" ry="9.238"/>
				</g>
				<rect x="5.978" y="14.127" fill="#F5B641" width="42.678" height="23.185"/>
			</g>
		</g>
		<g>
			<g>
				<g>
					<ellipse fill="#F5B742" cx="27.333" cy="14.174" rx="21.275" ry="9.205"/>
				</g>
				<g>
					<ellipse fill="#F5B742" cx="27.333" cy="36.787" rx="21.275" ry="9.203"/>
				</g>
				<rect x="6.058" y="14.174" fill="#F5B742" width="42.52" height="23.099"/>
			</g>
		</g>
	</g>
	<g>
		<ellipse fill="#FFFBDE" cx="27.333" cy="10.719" rx="24.335" ry="9.924"/>
		<ellipse fill="#FFFBDF" cx="27.333" cy="10.72" rx="24.234" ry="9.882"/>
		<ellipse fill="#FFFBDF" cx="27.333" cy="10.721" rx="24.132" ry="9.841"/>
		<ellipse fill="#FFFBE0" cx="27.333" cy="10.722" rx="24.03" ry="9.799"/>
		<ellipse fill="#FFFBE0" cx="27.332" cy="10.724" rx="23.929" ry="9.758"/>
		<ellipse fill="#FFFBE1" cx="27.333" cy="10.725" rx="23.827" ry="9.716"/>
		<ellipse fill="#FFFBE1" cx="27.333" cy="10.726" rx="23.725" ry="9.675"/>
		<ellipse fill="#FFFBE2" cx="27.333" cy="10.728" rx="23.624" ry="9.634"/>
		<ellipse fill="#FFFCE2" cx="27.333" cy="10.73" rx="23.522" ry="9.592"/>
		<ellipse fill="#FFFCE3" cx="27.333" cy="10.731" rx="23.42" ry="9.551"/>
		<ellipse fill="#FFFCE3" cx="27.333" cy="10.732" rx="23.319" ry="9.509"/>
		<ellipse fill="#FFFCE4" cx="27.333" cy="10.733" rx="23.217" ry="9.468"/>
		<ellipse fill="#FFFCE4" cx="27.332" cy="10.735" rx="23.115" ry="9.426"/>
		<ellipse fill="#FFFCE5" cx="27.332" cy="10.736" rx="23.014" ry="9.385"/>
		<ellipse fill="#FFFCE6" cx="27.333" cy="10.738" rx="22.912" ry="9.343"/>
		<ellipse fill="#FFFCE6" cx="27.333" cy="10.739" rx="22.81" ry="9.302"/>
		<ellipse fill="#FFFCE7" cx="27.333" cy="10.74" rx="22.708" ry="9.261"/>
		<ellipse fill="#FFFCE7" cx="27.333" cy="10.741" rx="22.607" ry="9.219"/>
		<ellipse fill="#FFFCE8" cx="27.333" cy="10.742" rx="22.505" ry="9.178"/>
		<ellipse fill="#FFFCE8" cx="27.333" cy="10.744" rx="22.404" ry="9.136"/>
		<ellipse fill="#FFFCE9" cx="27.333" cy="10.746" rx="22.302" ry="9.094"/>
		<ellipse fill="#FFFCE9" cx="27.333" cy="10.747" rx="22.201" ry="9.053"/>
		<ellipse fill="#FFFCEA" cx="27.333" cy="10.748" rx="22.099" ry="9.012"/>
		<ellipse fill="#FFFDEA" cx="27.333" cy="10.75" rx="21.997" ry="8.97"/>
		<ellipse fill="#FFFDEB" cx="27.333" cy="10.751" rx="21.895" ry="8.929"/>
		<ellipse fill="#FFFDEC" cx="27.333" cy="10.752" rx="21.793" ry="8.888"/>
		<ellipse fill="#FFFDEC" cx="27.333" cy="10.753" rx="21.692" ry="8.846"/>
		<ellipse fill="#FFFDED" cx="27.333" cy="10.755" rx="21.59" ry="8.805"/>
		<ellipse fill="#FFFDED" cx="27.333" cy="10.757" rx="21.489" ry="8.763"/>
		<ellipse fill="#FFFDEE" cx="27.332" cy="10.758" rx="21.387" ry="8.721"/>
		<ellipse fill="#FFFDEE" cx="27.332" cy="10.759" rx="21.285" ry="8.68"/>
		<ellipse fill="#FFFDEF" cx="27.333" cy="10.76" rx="21.183" ry="8.639"/>
		<ellipse fill="#FFFDEF" cx="27.333" cy="10.762" rx="21.082" ry="8.597"/>
		<ellipse fill="#FFFDF0" cx="27.333" cy="10.763" rx="20.98" ry="8.556"/>
		<ellipse fill="#FFFDF0" cx="27.333" cy="10.764" rx="20.878" ry="8.515"/>
		<ellipse fill="#FFFDF1" cx="27.333" cy="10.766" rx="20.777" ry="8.473"/>
		<ellipse fill="#FFFDF1" cx="27.333" cy="10.767" rx="20.675" ry="8.432"/>
		<ellipse fill="#FFFDF2" cx="27.333" cy="10.769" rx="20.574" ry="8.39"/>
		<ellipse fill="#FFFDF3" cx="27.333" cy="10.77" rx="20.472" ry="8.349"/>
		<ellipse fill="#FFFEF3" cx="27.333" cy="10.772" rx="20.37" ry="8.307"/>
		<ellipse fill="#FFFEF4" cx="27.333" cy="10.773" rx="20.269" ry="8.266"/>
		<ellipse fill="#FFFEF4" cx="27.333" cy="10.774" rx="20.167" ry="8.224"/>
		<ellipse fill="#FFFEF5" cx="27.333" cy="10.776" rx="20.065" ry="8.182"/>
		<ellipse fill="#FFFEF5" cx="27.333" cy="10.777" rx="19.963" ry="8.141"/>
		<ellipse fill="#FFFEF6" cx="27.333" cy="10.778" rx="19.862" ry="8.101"/>
		<ellipse fill="#FFFEF6" cx="27.333" cy="10.78" rx="19.76" ry="8.058"/>
		<ellipse fill="#FFFEF7" cx="27.333" cy="10.781" rx="19.658" ry="8.017"/>
		<ellipse fill="#FFFEF7" cx="27.333" cy="10.782" rx="19.556" ry="7.975"/>
		<ellipse fill="#FFFEF8" cx="27.333" cy="10.783" rx="19.455" ry="7.934"/>
		<ellipse fill="#FFFEF9" cx="27.333" cy="10.785" rx="19.353" ry="7.893"/>
		<ellipse fill="#FFFEF9" cx="27.333" cy="10.786" rx="19.251" ry="7.851"/>
		<ellipse fill="#FFFEFA" cx="27.333" cy="10.787" rx="19.15" ry="7.81"/>
		<ellipse fill="#FFFEFA" cx="27.333" cy="10.789" rx="19.048" ry="7.768"/>
		<ellipse fill="#FFFEFB" cx="27.333" cy="10.79" rx="18.947" ry="7.727"/>
		<ellipse fill="#FFFFFB" cx="27.333" cy="10.792" rx="18.845" ry="7.685"/>
		<ellipse fill="#FFFFFC" cx="27.333" cy="10.793" rx="18.743" ry="7.644"/>
		<ellipse fill="#FFFFFC" cx="27.333" cy="10.794" rx="18.642" ry="7.603"/>
		<ellipse fill="#FFFFFD" cx="27.333" cy="10.796" rx="18.54" ry="7.561"/>
		<ellipse fill="#FFFFFD" cx="27.333" cy="10.797" rx="18.438" ry="7.52"/>
		<ellipse fill="#FFFFFE" cx="27.333" cy="10.798" rx="18.337" ry="7.479"/>
		<ellipse fill="#FFFFFE" cx="27.333" cy="10.8" rx="18.235" ry="7.437"/>
		<ellipse fill="#FFFFFF" cx="27.333" cy="10.801" rx="18.133" ry="7.395"/>
	</g>
	<g>
		<path fill="#551B11" d="M21.262,35.037c1.745,1.513,3.707,2.538,6.053,2.575c2.366,0.037,4.486-1.334,6.088-2.952
			c0.628-0.633-0.351-1.612-0.979-0.978c-3.066,3.1-6.889,3.233-10.184,0.377C21.57,33.478,20.587,34.451,21.262,35.037
			L21.262,35.037z"/>
	</g>
	<g opacity="0.5">
		
			<image overflow="visible" width="830" height="733" xlink:href="FE0631DE54C30971.png"  transform="matrix(0.0226 0 0 0.0226 32.3938 27.5149)">
		</image>
	</g>
	<g opacity="0.5">
		
			<image overflow="visible" width="830" height="733" xlink:href="FE0631DE54C30973.png"  transform="matrix(0.0226 0 0 0.0226 2.5256 27.5149)">
		</image>
	</g>
	<g>
		<g>
			<path fill="#551B11" d="M45.281,23.413c-2.085,2.377-4.873,4.006-7.582,5.575c-0.454,0.266-0.407,0.88,0,1.153
				c2.749,1.852,5.753,2.683,9.005,3.167c0.842,0.126,1.205-1.16,0.356-1.287c-3.144-0.469-6.028-1.242-8.688-3.033
				c0,0.385,0,0.77,0,1.153c2.8-1.622,5.696-3.327,7.853-5.784C46.792,23.713,45.851,22.765,45.281,23.413L45.281,23.413z"/>
		</g>
		<g>
			<path fill="#551B11" d="M38.438,30.509c1.974,0.003,3.801-0.159,5.735-0.574c0.842-0.181,0.485-1.467-0.354-1.288
				c-1.819,0.391-3.526,0.529-5.381,0.526C37.575,29.173,37.575,30.508,38.438,30.509L38.438,30.509z"/>
		</g>
	</g>
	<g>
		<ellipse fill="#551B11" cx="12.234" cy="27.577" rx="4.183" ry="4.859"/>
		<g>
			<path fill="#FFFFFF" d="M10.549,24.729c-0.261-0.147-0.43-0.167-0.712-0.078c-0.565,0.195-0.458,0.577-0.354,1.11
				c0.134,0.766,1.038,2.163,1.798,2.244c0.887,0.091,1.068-1.598,1.156-2.249c0.032-0.38,0.062-0.76-0.155-1.089
				c-0.177-0.259-0.38-0.355-0.683-0.3c-0.392,0.059-0.364,0.437-0.655,0.58C10.803,25.016,10.771,24.859,10.549,24.729z"/>
		</g>
		<g>
			<path fill="#FFFFFF" d="M12.705,30.895c-0.279,0.52-1.182-0.176-0.508-0.391c-0.674,0.215-0.674-0.768,0-0.553
				c-0.674-0.215,0.229-0.909,0.508-0.39c-0.279-0.52,0.998-0.52,0.718,0c0.279-0.52,1.181,0.175,0.507,0.39
				c0.674-0.215,0.674,0.768,0,0.553c0.674,0.215-0.228,0.91-0.507,0.391C13.703,31.414,12.426,31.414,12.705,30.895z"/>
		</g>
	</g>
	<g>
		<g>
			<path fill="#A1D7CA" d="M21.478,9.087c0,2.841,0.543,5.144-2.057,5.144c-2.602,0-4.71-2.303-4.71-5.144s2.108-5.144,4.71-5.144
				C22.021,3.944,21.478,6.246,21.478,9.087z"/>
			<path fill="#A2D7CA" d="M21.466,9.098c0,2.83,0.541,5.125-2.05,5.125c-2.592,0-4.692-2.294-4.692-5.125
				c0-2.831,2.101-5.125,4.692-5.125C22.007,3.973,21.466,6.267,21.466,9.098z"/>
			<path fill="#A2D8CB" d="M21.454,9.109c0,2.82,0.539,5.106-2.042,5.106c-2.583,0-4.676-2.286-4.676-5.106s2.093-5.106,4.676-5.106
				C21.993,4.003,21.454,6.289,21.454,9.109z"/>
			<path fill="#A3D8CB" d="M21.442,9.12c0,2.81,0.537,5.088-2.035,5.088c-2.573,0-4.658-2.278-4.658-5.088s2.085-5.088,4.658-5.088
				C21.978,4.032,21.442,6.31,21.442,9.12z"/>
			<path fill="#A4D8CB" d="M21.43,9.131c0,2.799,0.535,5.069-2.027,5.069c-2.564,0-4.642-2.27-4.642-5.069
				c0-2.8,2.078-5.069,4.642-5.069C21.965,4.062,21.43,6.331,21.43,9.131z"/>
			<path fill="#A5D8CB" d="M21.418,9.142c0,2.79,0.533,5.051-2.02,5.051c-2.555,0-4.625-2.261-4.625-5.051s2.07-5.05,4.625-5.05
				C21.951,4.092,21.418,6.352,21.418,9.142z"/>
			<path fill="#A5D9CC" d="M21.405,9.153c0,2.779,0.531,5.032-2.012,5.032c-2.545,0-4.607-2.253-4.607-5.032
				c0-2.779,2.062-5.032,4.607-5.032C21.936,4.121,21.405,6.373,21.405,9.153z"/>
			<path fill="#A6D9CC" d="M21.393,9.163c0,2.77,0.529,5.014-2.005,5.014c-2.535,0-4.59-2.244-4.59-5.014
				c0-2.769,2.055-5.013,4.59-5.013C21.923,4.15,21.393,6.395,21.393,9.163z"/>
			<path fill="#A7D9CC" d="M21.381,9.175c0,2.758,0.527,4.994-1.997,4.994c-2.527,0-4.574-2.236-4.574-4.994
				c0-2.759,2.047-4.995,4.574-4.995C21.908,4.18,21.381,6.416,21.381,9.175z"/>
			<path fill="#A7DACD" d="M21.369,9.186c0,2.748,0.525,4.976-1.991,4.976c-2.517,0-4.556-2.228-4.556-4.976
				c0-2.749,2.04-4.977,4.556-4.977C21.894,4.209,21.369,6.437,21.369,9.186z"/>
			<path fill="#A8DACD" d="M21.357,9.196c0,2.738,0.523,4.958-1.982,4.958c-2.508,0-4.54-2.22-4.54-4.958s2.032-4.958,4.54-4.958
				C21.88,4.239,21.357,6.458,21.357,9.196z"/>
			<path fill="#A9DACD" d="M21.344,9.207c0,2.728,0.522,4.939-1.975,4.939c-2.498,0-4.522-2.211-4.522-4.939
				c0-2.728,2.024-4.939,4.522-4.939C21.866,4.268,21.344,6.48,21.344,9.207z"/>
			<path fill="#AADACE" d="M21.332,9.218c0,2.718,0.52,4.92-1.968,4.92c-2.488,0-4.506-2.203-4.506-4.92
				c0-2.717,2.018-4.919,4.506-4.919C21.852,4.298,21.332,6.5,21.332,9.218z"/>
			<path fill="#AADBCE" d="M21.32,9.229c0,2.707,0.518,4.902-1.96,4.902c-2.479,0-4.488-2.195-4.488-4.902s2.009-4.901,4.488-4.901
				C21.838,4.327,21.32,6.522,21.32,9.229z"/>
			<path fill="#ABDBCE" d="M21.308,9.24c0,2.697,0.515,4.883-1.954,4.883c-2.469,0-4.471-2.187-4.471-4.883s2.002-4.883,4.471-4.883
				C21.823,4.357,21.308,6.543,21.308,9.24z"/>
			<path fill="#ACDBCE" d="M21.296,9.251c0,2.687,0.513,4.865-1.946,4.865c-2.46,0-4.454-2.178-4.454-4.865
				c0-2.686,1.994-4.864,4.454-4.864C21.809,4.387,21.296,6.565,21.296,9.251z"/>
			<path fill="#ADDBCF" d="M21.283,9.262c0,2.677,0.513,4.846-1.938,4.846c-2.451,0-4.438-2.169-4.438-4.846
				c0-2.676,1.987-4.846,4.438-4.846C21.796,4.416,21.283,6.586,21.283,9.262z"/>
			<path fill="#ADDCCF" d="M21.272,9.273c0,2.666,0.51,4.827-1.931,4.827c-2.441,0-4.42-2.161-4.42-4.827s1.979-4.827,4.42-4.827
				C21.781,4.446,21.272,6.607,21.272,9.273z"/>
			<path fill="#AEDCCF" d="M21.259,9.283c0,2.655,0.508,4.809-1.923,4.809c-2.432,0-4.403-2.153-4.403-4.809
				c0-2.656,1.971-4.809,4.403-4.809C21.767,4.475,21.259,6.628,21.259,9.283z"/>
			<path fill="#AFDCD0" d="M21.247,9.295c0,2.646,0.506,4.79-1.916,4.79c-2.422,0-4.386-2.145-4.386-4.79s1.963-4.79,4.386-4.79
				C21.753,4.505,21.247,6.649,21.247,9.295z"/>
			<path fill="#AFDDD0" d="M21.236,9.305c0,2.635,0.503,4.772-1.909,4.772c-2.413,0-4.369-2.137-4.369-4.772
				s1.956-4.771,4.369-4.771C21.739,4.534,21.236,6.67,21.236,9.305z"/>
			<path fill="#B0DDD0" d="M21.223,9.317c0,2.625,0.502,4.753-1.901,4.753c-2.404,0-4.352-2.128-4.352-4.753
				c0-2.625,1.948-4.753,4.352-4.753C21.725,4.564,21.223,6.692,21.223,9.317z"/>
			<path fill="#B1DDD0" d="M21.21,9.327c0,2.614,0.5,4.734-1.894,4.734c-2.394,0-4.334-2.12-4.334-4.734
				c0-2.615,1.941-4.734,4.334-4.734C21.711,4.593,21.21,6.712,21.21,9.327z"/>
			<path fill="#B2DDD1" d="M21.198,9.338c0,2.604,0.498,4.716-1.886,4.716c-2.385,0-4.318-2.111-4.318-4.716
				s1.933-4.715,4.318-4.715C21.697,4.623,21.198,6.734,21.198,9.338z"/>
			<path fill="#B2DED1" d="M21.186,9.349c0,2.594,0.497,4.697-1.878,4.697s-4.301-2.103-4.301-4.697s1.926-4.697,4.301-4.697
				S21.186,6.755,21.186,9.349z"/>
			<path fill="#B3DED1" d="M21.174,9.361c0,2.583,0.494,4.678-1.871,4.678c-2.366,0-4.283-2.095-4.283-4.678
				c0-2.584,1.917-4.679,4.283-4.679C21.668,4.682,21.174,6.776,21.174,9.361z"/>
			<path fill="#B4DED2" d="M21.161,9.37c0,2.574,0.493,4.66-1.863,4.66c-2.356,0-4.267-2.086-4.267-4.66
				c0-2.573,1.91-4.659,4.267-4.659C21.654,4.711,21.161,6.797,21.161,9.37z"/>
			<path fill="#B4DFD2" d="M21.15,9.382c0,2.563,0.49,4.641-1.856,4.641s-4.249-2.078-4.249-4.641s1.902-4.642,4.249-4.642
				S21.15,6.819,21.15,9.382z"/>
			<path fill="#B5DFD2" d="M21.138,9.393c0,2.553,0.488,4.623-1.849,4.623c-2.337,0-4.232-2.07-4.232-4.623
				c0-2.553,1.895-4.622,4.232-4.622C21.626,4.771,21.138,6.84,21.138,9.393z"/>
			<path fill="#B6DFD3" d="M21.125,9.404c0,2.543,0.487,4.604-1.841,4.604s-4.215-2.062-4.215-4.604
				c0-2.542,1.887-4.604,4.215-4.604S21.125,6.861,21.125,9.404z"/>
			<path fill="#B7DFD3" d="M21.113,9.414c0,2.532,0.485,4.586-1.833,4.586c-2.319,0-4.199-2.054-4.199-4.586
				s1.879-4.585,4.199-4.585C21.598,4.829,21.113,6.882,21.113,9.414z"/>
			<path fill="#B7E0D3" d="M21.101,9.426c0,2.521,0.483,4.566-1.826,4.566s-4.182-2.045-4.182-4.566
				c0-2.522,1.873-4.567,4.182-4.567S21.101,6.904,21.101,9.426z"/>
			<path fill="#B8E0D3" d="M21.089,9.437c0,2.512,0.48,4.548-1.819,4.548s-4.164-2.036-4.164-4.548c0-2.512,1.864-4.548,4.164-4.548
				S21.089,6.925,21.089,9.437z"/>
			<path fill="#B9E0D4" d="M21.077,9.448c0,2.501,0.479,4.53-1.812,4.53s-4.147-2.028-4.147-4.53s1.856-4.529,4.147-4.529
				S21.077,6.946,21.077,9.448z"/>
			<path fill="#BAE0D4" d="M21.065,9.458c0,2.491,0.477,4.511-1.804,4.511c-2.281,0-4.131-2.02-4.131-4.511s1.85-4.511,4.131-4.511
				C21.541,4.948,21.065,6.967,21.065,9.458z"/>
			<path fill="#BAE1D4" d="M21.052,9.469c0,2.481,0.475,4.492-1.797,4.492c-2.271,0-4.113-2.011-4.113-4.492
				c0-2.481,1.841-4.492,4.113-4.492C21.528,4.977,21.052,6.988,21.052,9.469z"/>
			<path fill="#BBE1D5" d="M21.04,9.481c0,2.47,0.473,4.474-1.789,4.474s-4.096-2.003-4.096-4.474c0-2.471,1.833-4.474,4.096-4.474
				S21.04,7.01,21.04,9.481z"/>
			<path fill="#BCE1D5" d="M21.028,9.491c0,2.46,0.472,4.456-1.781,4.456s-4.079-1.995-4.079-4.456s1.826-4.455,4.079-4.455
				S21.028,7.031,21.028,9.491z"/>
			<path fill="#BCE2D5" d="M21.016,9.502c0,2.45,0.469,4.437-1.774,4.437c-2.243,0-4.062-1.986-4.062-4.437s1.818-4.437,4.062-4.437
				C21.485,5.066,21.016,7.052,21.016,9.502z"/>
			<path fill="#BDE2D6" d="M21.004,9.513c0,2.439,0.467,4.418-1.767,4.418s-4.045-1.979-4.045-4.418c0-2.44,1.811-4.418,4.045-4.418
				S21.004,7.073,21.004,9.513z"/>
			<path fill="#BEE2D6" d="M20.991,9.524c0,2.43,0.465,4.399-1.759,4.399c-2.225,0-4.028-1.97-4.028-4.399s1.803-4.398,4.028-4.398
				C21.456,5.125,20.991,7.094,20.991,9.524z"/>
			<path fill="#BFE2D6" d="M20.979,9.534c0,2.419,0.463,4.381-1.751,4.381c-2.215,0-4.011-1.961-4.011-4.381
				c0-2.419,1.796-4.38,4.011-4.38C21.443,5.155,20.979,7.115,20.979,9.534z"/>
			<path fill="#BFE3D6" d="M20.967,9.546c0,2.409,0.461,4.363-1.744,4.363c-2.206,0-3.994-1.954-3.994-4.363
				c0-2.409,1.788-4.362,3.994-4.362C21.428,5.184,20.967,7.136,20.967,9.546z"/>
			<path fill="#C0E3D7" d="M20.955,9.557c0,2.398,0.459,4.343-1.737,4.343s-3.977-1.945-3.977-4.343c0-2.399,1.78-4.344,3.977-4.344
				S20.955,7.158,20.955,9.557z"/>
			<path fill="#C1E3D7" d="M20.943,9.568c0,2.388,0.458,4.325-1.729,4.325c-2.187,0-3.959-1.937-3.959-4.325
				c0-2.389,1.773-4.325,3.959-4.325C21.4,5.242,20.943,7.179,20.943,9.568z"/>
			<path fill="#C1E4D7" d="M20.931,9.578c0,2.378,0.455,4.307-1.723,4.307c-2.177,0-3.942-1.929-3.942-4.307
				c0-2.378,1.766-4.306,3.942-4.306C21.386,5.272,20.931,7.2,20.931,9.578z"/>
			<path fill="#C2E4D8" d="M20.919,9.59c0,2.367,0.454,4.288-1.715,4.288c-2.168,0-3.926-1.92-3.926-4.288
				c0-2.368,1.758-4.288,3.926-4.288C21.372,5.302,20.919,7.221,20.919,9.59z"/>
			<path fill="#C3E4D8" d="M20.906,9.6c0,2.357,0.452,4.269-1.707,4.269s-3.909-1.912-3.909-4.269c0-2.358,1.75-4.269,3.909-4.269
				S20.906,7.242,20.906,9.6z"/>
			<path fill="#C4E4D8" d="M20.894,9.611c0,2.347,0.45,4.251-1.7,4.251s-3.892-1.904-3.892-4.251s1.743-4.25,3.892-4.25
				S20.894,7.264,20.894,9.611z"/>
			<path fill="#C4E5D8" d="M20.882,9.622c0,2.336,0.448,4.232-1.692,4.232c-2.14,0-3.875-1.896-3.875-4.232
				c0-2.337,1.735-4.232,3.875-4.232C21.33,5.39,20.882,7.285,20.882,9.622z"/>
			<path fill="#C5E5D9" d="M20.87,9.633c0,2.326,0.446,4.213-1.685,4.213c-2.13,0-3.857-1.887-3.857-4.213
				c0-2.327,1.728-4.213,3.857-4.213C21.316,5.42,20.87,7.306,20.87,9.633z"/>
			<path fill="#C6E5D9" d="M20.858,9.644c0,2.316,0.444,4.195-1.678,4.195c-2.12,0-3.84-1.879-3.84-4.195
				c0-2.317,1.72-4.195,3.84-4.195C21.302,5.449,20.858,7.327,20.858,9.644z"/>
			<path fill="#C7E5D9" d="M20.846,9.655c0,2.307,0.441,4.177-1.67,4.177c-2.111,0-3.823-1.87-3.823-4.177
				c0-2.306,1.712-4.175,3.823-4.175C21.287,5.479,20.846,7.348,20.846,9.655z"/>
			<path fill="#C7E6DA" d="M20.833,9.666c0,2.296,0.44,4.158-1.663,4.158c-2.102,0-3.806-1.862-3.806-4.158s1.704-4.157,3.806-4.157
				C21.274,5.509,20.833,7.37,20.833,9.666z"/>
			<path fill="#C8E6DA" d="M20.821,9.677c0,2.285,0.438,4.139-1.655,4.139s-3.79-1.854-3.79-4.139c0-2.286,1.697-4.139,3.79-4.139
				S20.821,7.391,20.821,9.677z"/>
			<path fill="#C9E6DA" d="M20.809,9.688c0,2.275,0.436,4.12-1.648,4.12c-2.083,0-3.772-1.845-3.772-4.12s1.689-4.12,3.772-4.12
				C21.245,5.568,20.809,7.412,20.809,9.688z"/>
			<path fill="#C9E7DB" d="M20.797,9.698c0,2.265,0.434,4.102-1.64,4.102s-3.755-1.836-3.755-4.102s1.682-4.102,3.755-4.102
				S20.797,7.433,20.797,9.698z"/>
			<path fill="#CAE7DB" d="M20.784,9.709c0,2.255,0.432,4.083-1.632,4.083c-2.064,0-3.738-1.829-3.738-4.083
				s1.674-4.083,3.738-4.083C21.217,5.627,20.784,7.454,20.784,9.709z"/>
			<path fill="#CBE7DB" d="M20.773,9.72c0,2.244,0.43,4.064-1.625,4.064c-2.055,0-3.721-1.82-3.721-4.064
				c0-2.245,1.667-4.064,3.721-4.064C21.202,5.656,20.773,7.476,20.773,9.72z"/>
			<path fill="#CCE7DB" d="M20.76,9.732c0,2.233,0.428,4.045-1.618,4.045c-2.045,0-3.704-1.812-3.704-4.045
				c0-2.235,1.658-4.046,3.704-4.046C21.189,5.686,20.76,7.497,20.76,9.732z"/>
			<path fill="#CCE8DC" d="M20.748,9.742c0,2.224,0.426,4.028-1.61,4.028c-2.036,0-3.688-1.804-3.688-4.028
				c0-2.224,1.651-4.026,3.688-4.026C21.175,5.716,20.748,7.518,20.748,9.742z"/>
			<path fill="#CDE8DC" d="M20.736,9.753c0,2.213,0.424,4.009-1.603,4.009c-2.026,0-3.67-1.795-3.67-4.009
				c0-2.214,1.644-4.008,3.67-4.008C21.16,5.745,20.736,7.539,20.736,9.753z"/>
		</g>
		<g>
			<path fill="#00A551" d="M33.181,9.221c0-2.84-0.544-5.143,2.059-5.143c2.599,0,4.707,2.303,4.707,5.143
				c0,2.841-2.108,5.144-4.707,5.144C32.637,14.365,33.181,12.063,33.181,9.221z"/>
			<path fill="#02A651" d="M33.193,9.21c0-2.83-0.541-5.124,2.052-5.124c2.589,0,4.689,2.294,4.689,5.124
				c0,2.832-2.101,5.125-4.689,5.125C32.652,14.336,33.193,12.042,33.193,9.21z"/>
			<path fill="#05A650" d="M33.205,9.199c0-2.819-0.54-5.105,2.044-5.105c2.579,0,4.673,2.287,4.673,5.105
				c0,2.821-2.094,5.107-4.673,5.107C32.665,14.306,33.205,12.02,33.205,9.199z"/>
			<path fill="#07A750" d="M33.217,9.188c0-2.809-0.538-5.087,2.036-5.087c2.57,0,4.656,2.278,4.656,5.087
				c0,2.811-2.086,5.088-4.656,5.088C32.679,14.277,33.217,11.999,33.217,9.188z"/>
			<path fill="#09A750" d="M33.23,9.177c0-2.798-0.536-5.068,2.028-5.068c2.562,0,4.639,2.27,4.639,5.068
				c0,2.8-2.077,5.07-4.639,5.07C32.694,14.247,33.23,11.978,33.23,9.177z"/>
			<path fill="#0BA850" d="M33.241,9.167c0-2.789-0.533-5.05,2.021-5.05c2.552,0,4.622,2.261,4.622,5.05
				c0,2.79-2.07,5.051-4.622,5.051C32.708,14.218,33.241,11.957,33.241,9.167z"/>
			<path fill="#0EA84F" d="M33.254,9.156c0-2.778-0.532-5.032,2.014-5.032c2.542,0,4.604,2.253,4.604,5.032
				c0,2.779-2.062,5.032-4.604,5.032C32.722,14.188,33.254,11.935,33.254,9.156z"/>
			<path fill="#10A94F" d="M33.266,9.145c0-2.768-0.53-5.013,2.007-5.013c2.533,0,4.588,2.245,4.588,5.013
				c0,2.769-2.055,5.014-4.588,5.014C32.736,14.159,33.266,11.914,33.266,9.145z"/>
			<path fill="#12A94F" d="M33.279,9.135c0-2.758-0.528-4.995,1.999-4.995c2.523,0,4.57,2.237,4.57,4.995
				c0,2.759-2.047,4.995-4.57,4.995C32.75,14.129,33.279,11.893,33.279,9.135z"/>
			<path fill="#15AA4E" d="M33.29,9.123c0-2.748-0.526-4.976,1.991-4.976c2.515,0,4.554,2.228,4.554,4.976
				c0,2.749-2.039,4.977-4.554,4.977C32.764,14.1,33.29,11.872,33.29,9.123z"/>
			<path fill="#17AA4E" d="M33.303,9.113c0-2.737-0.524-4.957,1.983-4.957c2.505,0,4.537,2.22,4.537,4.957
				c0,2.738-2.032,4.958-4.537,4.958C32.779,14.07,33.303,11.851,33.303,9.113z"/>
			<path fill="#19AB4E" d="M33.315,9.101c0-2.727-0.522-4.938,1.977-4.938c2.495,0,4.521,2.211,4.521,4.938
				c0,2.728-2.025,4.939-4.521,4.939C32.792,14.041,33.315,11.829,33.315,9.101z"/>
			<path fill="#1BAB4D" d="M33.326,9.09c0-2.716-0.521-4.92,1.97-4.92c2.485,0,4.502,2.204,4.502,4.92
				c0,2.718-2.017,4.921-4.502,4.921C32.806,14.011,33.326,11.808,33.326,9.09z"/>
			<path fill="#1EAC4D" d="M33.339,9.08c0-2.707-0.519-4.902,1.961-4.902c2.478,0,4.486,2.195,4.486,4.902
				c0,2.707-2.009,4.901-4.486,4.901C32.821,13.981,33.339,11.787,33.339,9.08z"/>
			<path fill="#20AC4D" d="M33.352,9.069c0-2.696-0.517-4.883,1.953-4.883c2.468,0,4.47,2.187,4.47,4.883
				c0,2.697-2.002,4.883-4.47,4.883C32.835,13.952,33.352,11.766,33.352,9.069z"/>
			<path fill="#22AD4D" d="M33.364,9.058c0-2.686-0.515-4.864,1.946-4.864c2.458,0,4.452,2.178,4.452,4.864
				c0,2.687-1.994,4.865-4.452,4.865C32.849,13.923,33.364,11.745,33.364,9.058z"/>
			<path fill="#24AD4C" d="M33.376,9.047c0-2.676-0.513-4.845,1.938-4.845c2.449,0,4.435,2.169,4.435,4.845
				c0,2.677-1.985,4.846-4.435,4.846C32.864,13.893,33.376,11.724,33.376,9.047z"/>
			<path fill="#27AE4C" d="M33.388,9.036c0-2.666-0.511-4.827,1.931-4.827c2.439,0,4.419,2.161,4.419,4.827
				c0,2.667-1.979,4.828-4.419,4.828C32.877,13.864,33.388,11.702,33.388,9.036z"/>
			<path fill="#29AE4C" d="M33.401,9.025c0-2.655-0.51-4.808,1.923-4.808c2.431,0,4.401,2.153,4.401,4.808
				c0,2.656-1.971,4.809-4.401,4.809C32.891,13.833,33.401,11.681,33.401,9.025z"/>
			<path fill="#2BAF4B" d="M33.412,9.014c0-2.645-0.507-4.789,1.916-4.789c2.421,0,4.385,2.145,4.385,4.789
				c0,2.646-1.964,4.791-4.385,4.791C32.906,13.804,33.412,11.66,33.412,9.014z"/>
			<path fill="#2EAF4B" d="M33.425,9.003c0-2.635-0.505-4.771,1.909-4.771c2.411,0,4.366,2.136,4.366,4.771
				c0,2.636-1.955,4.771-4.366,4.771C32.92,13.775,33.425,11.639,33.425,9.003z"/>
			<path fill="#30B04B" d="M33.437,8.992c0-2.624-0.503-4.752,1.901-4.752c2.402,0,4.35,2.128,4.35,4.752
				c0,2.625-1.947,4.753-4.35,4.753C32.934,13.745,33.437,11.617,33.437,8.992z"/>
			<path fill="#32B14B" d="M33.448,8.982c0-2.615-0.501-4.734,1.894-4.734c2.393,0,4.334,2.12,4.334,4.734
				c0,2.614-1.941,4.733-4.334,4.733C32.948,13.715,33.448,11.596,33.448,8.982z"/>
			<path fill="#34B14A" d="M33.461,8.971c0-2.604-0.499-4.716,1.887-4.716c2.383,0,4.315,2.112,4.315,4.716
				c0,2.604-1.933,4.715-4.315,4.715C32.962,13.686,33.461,11.575,33.461,8.971z"/>
			<path fill="#37B24A" d="M33.474,8.96c0-2.594-0.497-4.697,1.878-4.697c2.374,0,4.299,2.104,4.299,4.697s-1.925,4.697-4.299,4.697
				C32.977,13.657,33.474,11.554,33.474,8.96z"/>
			<path fill="#39B24A" d="M33.486,8.948c0-2.583-0.495-4.678,1.871-4.678c2.364,0,4.282,2.095,4.282,4.678
				c0,2.584-1.918,4.679-4.282,4.679C32.99,13.627,33.486,11.532,33.486,8.948z"/>
			<path fill="#3BB349" d="M33.497,8.938c0-2.573-0.493-4.66,1.864-4.66c2.354,0,4.265,2.087,4.265,4.66s-1.91,4.66-4.265,4.66
				C33.004,13.597,33.497,11.511,33.497,8.938z"/>
			<path fill="#3EB349" d="M33.51,8.927c0-2.563-0.491-4.641,1.855-4.641s4.248,2.078,4.248,4.641c0,2.563-1.901,4.641-4.248,4.641
				S33.51,11.49,33.51,8.927z"/>
			<path fill="#40B449" d="M33.523,8.916c0-2.553-0.489-4.622,1.849-4.622c2.336,0,4.23,2.069,4.23,4.622s-1.895,4.622-4.23,4.622
				C33.033,13.538,33.523,11.469,33.523,8.916z"/>
			<path fill="#42B448" d="M33.534,8.905c0-2.542-0.487-4.603,1.841-4.603c2.327,0,4.215,2.061,4.215,4.603
				c0,2.543-1.888,4.604-4.215,4.604C33.047,13.509,33.534,11.448,33.534,8.905z"/>
			<path fill="#44B548" d="M33.546,8.894c0-2.532-0.485-4.585,1.834-4.585c2.317,0,4.196,2.053,4.196,4.585
				c0,2.533-1.879,4.585-4.196,4.585C33.061,13.479,33.546,11.427,33.546,8.894z"/>
			<path fill="#47B548" d="M33.559,8.883c0-2.521-0.483-4.566,1.826-4.566c2.309,0,4.18,2.045,4.18,4.566
				c0,2.522-1.871,4.566-4.18,4.566C33.075,13.449,33.559,11.406,33.559,8.883z"/>
			<path fill="#49B648" d="M33.571,8.872c0-2.512-0.481-4.548,1.818-4.548c2.299,0,4.164,2.036,4.164,4.548
				s-1.865,4.548-4.164,4.548C33.089,13.42,33.571,11.384,33.571,8.872z"/>
			<path fill="#4BB647" d="M33.582,8.862c0-2.501-0.479-4.529,1.812-4.529c2.289,0,4.146,2.028,4.146,4.529
				s-1.856,4.529-4.146,4.529C33.104,13.391,33.582,11.363,33.582,8.862z"/>
			<path fill="#4DB747" d="M33.595,8.85c0-2.491-0.478-4.51,1.804-4.51c2.28,0,4.129,2.02,4.129,4.51
				c0,2.492-1.849,4.511-4.129,4.511C33.117,13.361,33.595,11.342,33.595,8.85z"/>
			<path fill="#50B747" d="M33.608,8.84c0-2.481-0.476-4.492,1.796-4.492c2.271,0,4.112,2.011,4.112,4.492s-1.842,4.492-4.112,4.492
				C33.132,13.331,33.608,11.321,33.608,8.84z"/>
			<path fill="#52B846" d="M33.619,8.828c0-2.47-0.474-4.473,1.789-4.473c2.262,0,4.095,2.003,4.095,4.473
				c0,2.471-1.833,4.474-4.095,4.474C33.146,13.302,33.619,11.3,33.619,8.828z"/>
			<path fill="#54B846" d="M33.631,8.818c0-2.46-0.471-4.455,1.781-4.455c2.253,0,4.078,1.995,4.078,4.455
				c0,2.461-1.825,4.455-4.078,4.455C33.16,13.273,33.631,11.279,33.631,8.818z"/>
			<path fill="#57B946" d="M33.644,8.807c0-2.45-0.47-4.436,1.774-4.436c2.242,0,4.061,1.986,4.061,4.436s-1.818,4.437-4.061,4.437
				C33.174,13.243,33.644,11.257,33.644,8.807z"/>
			<path fill="#59B945" d="M33.656,8.796c0-2.44-0.468-4.418,1.766-4.418c2.234,0,4.044,1.978,4.044,4.418
				c0,2.439-1.81,4.417-4.044,4.417C33.189,13.214,33.656,11.236,33.656,8.796z"/>
			<path fill="#5BBA45" d="M33.668,8.785c0-2.43-0.466-4.399,1.759-4.399c2.224,0,4.027,1.97,4.027,4.399
				c0,2.429-1.804,4.398-4.027,4.398C33.202,13.184,33.668,11.215,33.668,8.785z"/>
			<path fill="#5DBB45" d="M33.68,8.774c0-2.418-0.463-4.38,1.752-4.38s4.01,1.961,4.01,4.38c0,2.42-1.795,4.381-4.01,4.381
				S33.68,11.194,33.68,8.774z"/>
			<path fill="#60BB45" d="M33.693,8.763c0-2.409-0.462-4.362,1.744-4.362c2.205,0,3.993,1.953,3.993,4.362
				s-1.788,4.361-3.993,4.361C33.231,13.125,33.693,11.172,33.693,8.763z"/>
			<path fill="#62BC44" d="M33.705,8.752c0-2.398-0.461-4.343,1.736-4.343c2.195,0,3.976,1.944,3.976,4.343
				c0,2.399-1.78,4.343-3.976,4.343C33.244,13.095,33.705,11.151,33.705,8.752z"/>
			<path fill="#64BC44" d="M33.717,8.741c0-2.389-0.458-4.324,1.729-4.324c2.188,0,3.959,1.936,3.959,4.324
				c0,2.388-1.771,4.324-3.959,4.324C33.259,13.066,33.717,11.129,33.717,8.741z"/>
			<path fill="#67BD44" d="M33.729,8.73c0-2.377-0.455-4.305,1.722-4.305s3.942,1.928,3.942,4.305c0,2.378-1.766,4.306-3.942,4.306
				S33.729,11.109,33.729,8.73z"/>
			<path fill="#69BD43" d="M33.741,8.719c0-2.368-0.454-4.288,1.714-4.288s3.925,1.92,3.925,4.288s-1.757,4.288-3.925,4.288
				S33.741,11.087,33.741,8.719z"/>
			<path fill="#6BBE43" d="M33.754,8.708c0-2.357-0.453-4.269,1.706-4.269c2.158,0,3.908,1.911,3.908,4.269
				c0,2.358-1.75,4.269-3.908,4.269C33.301,12.977,33.754,11.066,33.754,8.708z"/>
			<path fill="#6DBE43" d="M33.766,8.698c0-2.347-0.45-4.25,1.699-4.25c2.148,0,3.891,1.903,3.891,4.25
				c0,2.348-1.742,4.25-3.891,4.25C33.316,12.948,33.766,11.045,33.766,8.698z"/>
			<path fill="#70BF43" d="M33.778,8.687c0-2.337-0.447-4.232,1.691-4.232c2.14,0,3.874,1.895,3.874,4.232
				c0,2.336-1.734,4.231-3.874,4.231C33.33,12.918,33.778,11.024,33.778,8.687z"/>
			<path fill="#72BF42" d="M33.79,8.676c0-2.327-0.446-4.213,1.684-4.213c2.131,0,3.857,1.887,3.857,4.213s-1.727,4.213-3.857,4.213
				C33.344,12.889,33.79,11.003,33.79,8.676z"/>
			<path fill="#74C042" d="M33.802,8.665c0-2.316-0.444-4.195,1.677-4.195s3.84,1.878,3.84,4.195c0,2.316-1.719,4.194-3.84,4.194
				S33.802,10.981,33.802,8.665z"/>
			<path fill="#76C042" d="M33.815,8.654c0-2.306-0.442-4.176,1.669-4.176s3.823,1.87,3.823,4.176s-1.712,4.175-3.823,4.175
				S33.815,10.96,33.815,8.654z"/>
			<path fill="#79C141" d="M33.826,8.643c0-2.296-0.44-4.157,1.662-4.157c2.102,0,3.806,1.861,3.806,4.157
				c0,2.295-1.704,4.157-3.806,4.157C33.386,12.8,33.826,10.939,33.826,8.643z"/>
			<path fill="#7BC141" d="M33.839,8.632c0-2.285-0.438-4.139,1.653-4.139c2.094,0,3.789,1.854,3.789,4.139
				c0,2.286-1.695,4.138-3.789,4.138C33.401,12.77,33.839,10.918,33.839,8.632z"/>
			<path fill="#7DC241" d="M33.851,8.621c0-2.275-0.437-4.12,1.646-4.12c2.084,0,3.771,1.845,3.771,4.12s-1.688,4.119-3.771,4.119
				C33.414,12.74,33.851,10.897,33.851,8.621z"/>
			<path fill="#80C240" d="M33.864,8.61c0-2.265-0.435-4.101,1.639-4.101c2.074,0,3.755,1.836,3.755,4.101
				c0,2.265-1.681,4.102-3.755,4.102C33.429,12.712,33.864,10.875,33.864,8.61z"/>
			<path fill="#82C340" d="M33.875,8.6c0-2.255-0.433-4.083,1.632-4.083s3.737,1.828,3.737,4.083c0,2.254-1.673,4.082-3.737,4.082
				S33.875,10.854,33.875,8.6z"/>
			<path fill="#84C340" d="M33.888,8.589c0-2.245-0.432-4.064,1.623-4.064c2.056,0,3.722,1.819,3.722,4.064
				c0,2.244-1.666,4.064-3.722,4.064C33.456,12.653,33.888,10.833,33.888,8.589z"/>
			<path fill="#86C440" d="M33.9,8.578c0-2.234-0.429-4.046,1.617-4.046c2.045,0,3.703,1.812,3.703,4.046
				c0,2.234-1.658,4.045-3.703,4.045C33.471,12.623,33.9,10.812,33.9,8.578z"/>
			<path fill="#89C43F" d="M33.912,8.567c0-2.224-0.427-4.027,1.608-4.027c2.037,0,3.688,1.803,3.688,4.027s-1.65,4.027-3.688,4.027
				C33.486,12.594,33.912,10.79,33.912,8.567z"/>
			<path fill="#8BC53F" d="M33.924,8.556c0-2.214-0.425-4.008,1.602-4.008c2.027,0,3.67,1.794,3.67,4.008
				c0,2.213-1.643,4.008-3.67,4.008C33.499,12.564,33.924,10.769,33.924,8.556z"/>
		</g>
		<g>
			<path fill="#FFE76F" d="M27.125,8.552c-2.901,0-5.253,0.414-5.253-1.565c0-1.978,2.352-3.582,5.253-3.582
				c2.902,0,5.253,1.604,5.253,3.582C32.378,8.966,30.027,8.552,27.125,8.552z"/>
			<path fill="#FFE770" d="M27.114,8.543c-2.891,0-5.234,0.412-5.234-1.56c0-1.97,2.343-3.568,5.234-3.568
				c2.892,0,5.234,1.598,5.234,3.568C32.348,8.955,30.005,8.543,27.114,8.543z"/>
			<path fill="#FFE771" d="M27.103,8.534c-2.881,0-5.215,0.411-5.215-1.554c0-1.963,2.334-3.555,5.215-3.555
				s5.215,1.592,5.215,3.555C32.318,8.945,29.984,8.534,27.103,8.534z"/>
			<path fill="#FEE872" d="M27.091,8.525c-2.87,0-5.196,0.409-5.196-1.548c0-1.956,2.326-3.542,5.196-3.542
				c2.87,0,5.196,1.586,5.196,3.542C32.287,8.934,29.961,8.525,27.091,8.525z"/>
			<path fill="#FEE874" d="M27.08,8.515c-2.859,0-5.176,0.408-5.176-1.542c0-1.949,2.317-3.53,5.176-3.53
				c2.86,0,5.178,1.581,5.178,3.53C32.258,8.923,29.94,8.515,27.08,8.515z"/>
			<path fill="#FEE875" d="M27.069,8.507c-2.849,0-5.158,0.406-5.158-1.537s2.309-3.517,5.158-3.517s5.159,1.574,5.159,3.517
				S29.918,8.507,27.069,8.507z"/>
			<path fill="#FEE876" d="M27.058,8.497c-2.839,0-5.139,0.405-5.139-1.531s2.3-3.504,5.139-3.504s5.14,1.568,5.14,3.504
				S29.897,8.497,27.058,8.497z"/>
			<path fill="#FEE877" d="M27.047,8.488c-2.828,0-5.12,0.403-5.12-1.525c0-1.928,2.292-3.491,5.12-3.491
				c2.829,0,5.121,1.563,5.121,3.491C32.167,8.891,29.875,8.488,27.047,8.488z"/>
			<path fill="#FEE878" d="M27.036,8.479c-2.817,0-5.101,0.402-5.101-1.52c0-1.921,2.284-3.478,5.101-3.478
				c2.818,0,5.101,1.557,5.101,3.478C32.137,8.881,29.854,8.479,27.036,8.479z"/>
			<path fill="#FDE979" d="M27.024,8.469c-2.807,0-5.082,0.4-5.082-1.514c0-1.914,2.274-3.465,5.082-3.465
				c2.808,0,5.083,1.551,5.083,3.465C32.107,8.869,29.832,8.469,27.024,8.469z"/>
			<path fill="#FDE97A" d="M27.013,8.46c-2.796,0-5.062,0.398-5.062-1.509c0-1.906,2.266-3.451,5.062-3.451
				c2.797,0,5.063,1.545,5.063,3.451C32.076,8.859,29.81,8.46,27.013,8.46z"/>
			<path fill="#FDE97C" d="M27.002,8.45c-2.786,0-5.044,0.398-5.044-1.502c0-1.899,2.258-3.439,5.044-3.439
				c2.786,0,5.045,1.54,5.045,3.439C32.047,8.848,29.788,8.45,27.002,8.45z"/>
			<path fill="#FDE97D" d="M26.99,8.441c-2.775,0-5.025,0.396-5.025-1.497c0-1.892,2.25-3.426,5.025-3.426
				c2.776,0,5.025,1.534,5.025,3.426C32.016,8.837,29.767,8.441,26.99,8.441z"/>
			<path fill="#FDE97E" d="M26.98,8.432c-2.765,0-5.006,0.395-5.006-1.491s2.241-3.413,5.006-3.413c2.765,0,5.007,1.528,5.007,3.413
				S29.744,8.432,26.98,8.432z"/>
			<path fill="#FCEA7F" d="M26.968,8.423c-2.754,0-4.986,0.393-4.986-1.485c0-1.878,2.232-3.4,4.986-3.4
				c2.756,0,4.987,1.522,4.987,3.4C31.955,8.816,29.724,8.423,26.968,8.423z"/>
			<path fill="#FCEA80" d="M26.957,8.414c-2.744,0-4.968,0.391-4.968-1.48c0-1.871,2.224-3.387,4.968-3.387
				c2.744,0,4.969,1.517,4.969,3.387C31.926,8.805,29.701,8.414,26.957,8.414z"/>
			<path fill="#FCEA81" d="M26.947,8.405c-2.733,0-4.949,0.39-4.949-1.474s2.216-3.374,4.949-3.374s4.949,1.51,4.949,3.374
				S29.68,8.405,26.947,8.405z"/>
			<path fill="#FCEA83" d="M26.935,8.395c-2.723,0-4.93,0.388-4.93-1.469c0-1.856,2.207-3.361,4.93-3.361
				c2.724,0,4.931,1.505,4.931,3.361C31.865,8.783,29.658,8.395,26.935,8.395z"/>
			<path fill="#FCEA84" d="M26.924,8.385c-2.713,0-4.911,0.387-4.911-1.463c0-1.849,2.198-3.348,4.911-3.348
				s4.911,1.499,4.911,3.348C31.835,8.772,29.637,8.385,26.924,8.385z"/>
			<path fill="#FCEA85" d="M26.913,8.377c-2.702,0-4.892,0.385-4.892-1.458c0-1.842,2.19-3.335,4.892-3.335
				c2.702,0,4.892,1.493,4.892,3.335C31.805,8.762,29.615,8.377,26.913,8.377z"/>
			<path fill="#FBEB86" d="M26.902,8.367c-2.691,0-4.873,0.384-4.873-1.451s2.182-3.322,4.873-3.322
				c2.692,0,4.874,1.487,4.874,3.322S29.594,8.367,26.902,8.367z"/>
			<path fill="#FBEB87" d="M26.89,8.358c-2.681,0-4.854,0.382-4.854-1.446s2.173-3.309,4.854-3.309c2.681,0,4.854,1.481,4.854,3.309
				S29.572,8.358,26.89,8.358z"/>
			<path fill="#FBEB88" d="M26.879,8.349c-2.67,0-4.835,0.381-4.835-1.44c0-1.82,2.165-3.296,4.835-3.296
				c2.671,0,4.836,1.476,4.836,3.296C31.715,8.73,29.55,8.349,26.879,8.349z"/>
			<path fill="#FBEB89" d="M26.868,8.34c-2.66,0-4.816,0.379-4.816-1.434c0-1.814,2.156-3.284,4.816-3.284s4.815,1.47,4.815,3.284
				C31.684,8.719,29.529,8.34,26.868,8.34z"/>
			<path fill="#FBEB8B" d="M26.858,8.331c-2.649,0-4.798,0.378-4.798-1.429c0-1.806,2.148-3.27,4.798-3.27s4.797,1.464,4.797,3.27
				C31.655,8.709,29.507,8.331,26.858,8.331z"/>
			<path fill="#FAEC8C" d="M26.845,8.321c-2.638,0-4.777,0.376-4.777-1.423c0-1.799,2.139-3.257,4.777-3.257
				c2.639,0,4.779,1.458,4.779,3.257C31.624,8.698,29.485,8.321,26.845,8.321z"/>
			<path fill="#FAEC8D" d="M26.834,8.312c-2.628,0-4.759,0.375-4.759-1.418c0-1.792,2.131-3.244,4.759-3.244
				c2.629,0,4.76,1.453,4.76,3.244C31.594,8.687,29.463,8.312,26.834,8.312z"/>
			<path fill="#FAEC8E" d="M26.823,8.303c-2.618,0-4.74,0.373-4.74-1.412s2.122-3.231,4.74-3.231s4.74,1.446,4.74,3.231
				S29.442,8.303,26.823,8.303z"/>
			<path fill="#FAEC8F" d="M26.813,8.294c-2.607,0-4.721,0.372-4.721-1.407c0-1.777,2.113-3.218,4.721-3.218s4.721,1.44,4.721,3.218
				C31.533,8.665,29.42,8.294,26.813,8.294z"/>
			<path fill="#FAEC90" d="M26.801,8.284c-2.597,0-4.702,0.37-4.702-1.401c0-1.77,2.105-3.205,4.702-3.205
				c2.598,0,4.703,1.435,4.703,3.205C31.504,8.655,29.399,8.284,26.801,8.284z"/>
			<path fill="#FAEC91" d="M26.79,8.275c-2.587,0-4.684,0.369-4.684-1.396c0-1.763,2.097-3.192,4.684-3.192s4.683,1.429,4.683,3.192
				C31.473,8.644,29.377,8.275,26.79,8.275z"/>
			<path fill="#F9ED93" d="M26.779,8.266c-2.576,0-4.664,0.367-4.664-1.39c0-1.756,2.088-3.18,4.664-3.18
				c2.577,0,4.664,1.424,4.664,3.18C31.443,8.633,29.356,8.266,26.779,8.266z"/>
			<path fill="#F9ED94" d="M26.767,8.256c-2.565,0-4.645,0.366-4.645-1.384c0-1.749,2.08-3.166,4.645-3.166
				c2.566,0,4.645,1.417,4.645,3.166C31.412,8.622,29.333,8.256,26.767,8.256z"/>
			<path fill="#F9ED95" d="M26.757,8.247c-2.555,0-4.626,0.364-4.626-1.378s2.071-3.154,4.626-3.154s4.626,1.412,4.626,3.154
				S29.312,8.247,26.757,8.247z"/>
			<path fill="#F9ED96" d="M26.745,8.238c-2.544,0-4.607,0.363-4.607-1.372c0-1.734,2.062-3.141,4.607-3.141
				c2.545,0,4.607,1.406,4.607,3.141C31.353,8.601,29.29,8.238,26.745,8.238z"/>
			<path fill="#F9ED97" d="M26.734,8.229c-2.533,0-4.587,0.361-4.587-1.367c0-1.727,2.054-3.127,4.587-3.127
				c2.535,0,4.589,1.4,4.589,3.127C31.323,8.59,29.269,8.229,26.734,8.229z"/>
			<path fill="#F9ED98" d="M26.723,8.219c-2.523,0-4.568,0.36-4.568-1.361c0-1.72,2.045-3.114,4.568-3.114s4.569,1.394,4.569,3.114
				C31.292,8.579,29.246,8.219,26.723,8.219z"/>
			<path fill="#F8EE99" d="M26.712,8.21c-2.513,0-4.55,0.358-4.55-1.355c0-1.713,2.037-3.102,4.55-3.102s4.55,1.389,4.55,3.102
				C31.262,8.569,29.225,8.21,26.712,8.21z"/>
			<path fill="#F8EE9B" d="M26.7,8.201c-2.502,0-4.53,0.357-4.53-1.349c0-1.707,2.028-3.09,4.53-3.09
				c2.503,0,4.532,1.383,4.532,3.09C31.233,8.558,29.203,8.201,26.7,8.201z"/>
			<path fill="#F8EE9C" d="M26.69,8.192c-2.492,0-4.512,0.355-4.512-1.344s2.02-3.076,4.512-3.076c2.492,0,4.513,1.377,4.513,3.076
				S29.182,8.192,26.69,8.192z"/>
			<path fill="#F8EE9D" d="M26.678,8.182c-2.481,0-4.493,0.354-4.493-1.338c0-1.692,2.012-3.062,4.493-3.062
				c2.482,0,4.493,1.371,4.493,3.062C31.171,8.536,29.16,8.182,26.678,8.182z"/>
			<path fill="#F8EE9E" d="M26.667,8.173c-2.471,0-4.474,0.353-4.474-1.333c0-1.685,2.003-3.049,4.474-3.049
				c2.472,0,4.474,1.365,4.474,3.049C31.141,8.526,29.139,8.173,26.667,8.173z"/>
			<path fill="#F7EF9F" d="M26.656,8.164c-2.461,0-4.455,0.351-4.455-1.327S24.196,3.8,26.656,3.8c2.46,0,4.455,1.359,4.455,3.037
				S29.116,8.164,26.656,8.164z"/>
			<path fill="#F7EFA0" d="M26.645,8.155c-2.45,0-4.436,0.35-4.436-1.321c0-1.67,1.986-3.023,4.436-3.023
				c2.451,0,4.437,1.354,4.437,3.023C31.081,8.504,29.096,8.155,26.645,8.155z"/>
			<path fill="#F7EFA1" d="M26.634,8.146c-2.439,0-4.417,0.348-4.417-1.316c0-1.663,1.978-3.011,4.417-3.011
				c2.44,0,4.417,1.348,4.417,3.011C31.051,8.493,29.073,8.146,26.634,8.146z"/>
			<path fill="#F7EFA3" d="M26.623,8.136c-2.429,0-4.398,0.347-4.398-1.31c0-1.656,1.969-2.998,4.398-2.998s4.398,1.342,4.398,2.998
				C31.021,8.483,29.052,8.136,26.623,8.136z"/>
			<path fill="#F7EFA4" d="M26.612,8.127c-2.418,0-4.379,0.345-4.379-1.305c0-1.649,1.961-2.985,4.379-2.985
				s4.379,1.336,4.379,2.985C30.99,8.472,29.03,8.127,26.612,8.127z"/>
			<path fill="#F7EFA5" d="M26.6,8.117c-2.407,0-4.359,0.344-4.359-1.299c0-1.641,1.952-2.972,4.359-2.972
				c2.409,0,4.36,1.331,4.36,2.972C30.96,8.461,29.009,8.117,26.6,8.117z"/>
			<path fill="#F6F0A6" d="M26.589,8.109c-2.397,0-4.341,0.342-4.341-1.293s1.943-2.959,4.341-2.959s4.342,1.325,4.342,2.959
				S28.987,8.109,26.589,8.109z"/>
			<path fill="#F6F0A7" d="M26.578,8.099c-2.387,0-4.322,0.341-4.322-1.287c0-1.627,1.935-2.946,4.322-2.946
				c2.387,0,4.323,1.319,4.323,2.946C30.901,8.44,28.965,8.099,26.578,8.099z"/>
			<path fill="#F6F0A8" d="M26.567,8.09c-2.376,0-4.303,0.339-4.303-1.282s1.927-2.933,4.303-2.933c2.377,0,4.304,1.312,4.304,2.933
				S28.944,8.09,26.567,8.09z"/>
			<path fill="#F6F0AA" d="M26.556,8.08c-2.366,0-4.284,0.338-4.284-1.275s1.918-2.921,4.284-2.921c2.366,0,4.284,1.308,4.284,2.921
				S28.922,8.08,26.556,8.08z"/>
			<path fill="#F6F0AB" d="M26.544,8.072c-2.355,0-4.265,0.336-4.265-1.271c0-1.606,1.91-2.907,4.265-2.907
				c2.356,0,4.266,1.301,4.266,2.907C30.81,8.407,28.901,8.072,26.544,8.072z"/>
			<path fill="#F5F1AC" d="M26.533,8.062c-2.345,0-4.246,0.335-4.246-1.264c0-1.599,1.901-2.895,4.246-2.895
				s4.246,1.296,4.246,2.895C30.78,8.397,28.878,8.062,26.533,8.062z"/>
			<path fill="#F5F1AD" d="M26.522,8.053c-2.334,0-4.227,0.333-4.227-1.259c0-1.592,1.892-2.881,4.227-2.881s4.227,1.29,4.227,2.881
				C30.749,8.386,28.857,8.053,26.522,8.053z"/>
			<path fill="#F5F1AE" d="M26.511,8.043c-2.324,0-4.208,0.332-4.208-1.253c0-1.584,1.884-2.868,4.208-2.868
				c2.324,0,4.208,1.284,4.208,2.868C30.719,8.375,28.835,8.043,26.511,8.043z"/>
			<path fill="#F5F1AF" d="M26.5,8.034c-2.313,0-4.188,0.33-4.188-1.248c0-1.577,1.875-2.855,4.188-2.855
				c2.314,0,4.189,1.278,4.189,2.855C30.689,8.365,28.814,8.034,26.5,8.034z"/>
			<path fill="#F5F1B0" d="M26.489,8.025c-2.303,0-4.17,0.329-4.17-1.242s1.867-2.843,4.17-2.843s4.17,1.272,4.17,2.843
				S28.792,8.025,26.489,8.025z"/>
			<path fill="#F5F1B2" d="M26.478,8.016c-2.292,0-4.151,0.327-4.151-1.236c0-1.563,1.859-2.83,4.151-2.83
				c2.292,0,4.151,1.267,4.151,2.83C30.629,8.343,28.77,8.016,26.478,8.016z"/>
			<path fill="#F4F2B3" d="M26.466,8.007c-2.281,0-4.131,0.326-4.131-1.23s1.85-2.817,4.131-2.817c2.283,0,4.133,1.261,4.133,2.817
				S28.749,8.007,26.466,8.007z"/>
			<path fill="#F4F2B4" d="M26.455,7.997c-2.271,0-4.113,0.324-4.113-1.225c0-1.549,1.842-2.803,4.113-2.803
				c2.271,0,4.113,1.254,4.113,2.803C30.569,8.322,28.727,7.997,26.455,7.997z"/>
			<path fill="#F4F2B5" d="M26.444,7.988c-2.261,0-4.094,0.323-4.094-1.219c0-1.542,1.833-2.791,4.094-2.791
				c2.261,0,4.094,1.249,4.094,2.791C30.538,8.311,28.705,7.988,26.444,7.988z"/>
		</g>
		<g>
			<path fill="#EE4036" d="M27.125,9.224c-2.901,0-5.253-0.401-5.253,1.518c0,1.918,2.352,3.474,5.253,3.474
				c2.902,0,5.253-1.555,5.253-3.474C32.378,8.823,30.027,9.224,27.125,9.224z"/>
			<path fill="#EE4237" d="M27.114,9.233c-2.891,0-5.234-0.399-5.234,1.512s2.343,3.461,5.234,3.461
				c2.892,0,5.234-1.549,5.234-3.461S30.005,9.233,27.114,9.233z"/>
			<path fill="#EE4338" d="M27.103,9.242c-2.881,0-5.215-0.398-5.215,1.506s2.334,3.449,5.215,3.449s5.215-1.544,5.215-3.449
				S29.984,9.242,27.103,9.242z"/>
			<path fill="#EE4539" d="M27.091,9.251c-2.87,0-5.196-0.397-5.196,1.501c0,1.897,2.326,3.436,5.196,3.436
				c2.87,0,5.196-1.538,5.196-3.436C32.287,8.854,29.961,9.251,27.091,9.251z"/>
			<path fill="#EF463B" d="M27.08,9.26c-2.859,0-5.176-0.396-5.176,1.496s2.317,3.424,5.176,3.424c2.86,0,5.178-1.533,5.178-3.424
				S29.94,9.26,27.08,9.26z"/>
			<path fill="#EF483C" d="M27.069,9.269c-2.849,0-5.158-0.394-5.158,1.49c0,1.883,2.309,3.411,5.158,3.411s5.159-1.527,5.159-3.411
				C32.228,8.875,29.918,9.269,27.069,9.269z"/>
			<path fill="#EF4A3D" d="M27.058,9.278c-2.839,0-5.139-0.393-5.139,1.484s2.3,3.399,5.139,3.399s5.14-1.522,5.14-3.399
				S29.897,9.278,27.058,9.278z"/>
			<path fill="#EF4B3E" d="M27.047,9.287c-2.828,0-5.12-0.392-5.12,1.479c0,1.871,2.292,3.386,5.12,3.386
				c2.829,0,5.121-1.516,5.121-3.386C32.167,8.896,29.875,9.287,27.047,9.287z"/>
			<path fill="#EF4D3F" d="M27.036,9.296c-2.817,0-5.101-0.39-5.101,1.474c0,1.862,2.284,3.373,5.101,3.373
				c2.818,0,5.101-1.511,5.101-3.373C32.137,8.906,29.854,9.296,27.036,9.296z"/>
			<path fill="#EF4E40" d="M27.024,9.305c-2.807,0-5.082-0.389-5.082,1.468c0,1.856,2.274,3.36,5.082,3.36
				c2.808,0,5.083-1.504,5.083-3.36C32.107,8.916,29.832,9.305,27.024,9.305z"/>
			<path fill="#EF5042" d="M27.013,9.314c-2.796,0-5.062-0.387-5.062,1.463c0,1.849,2.266,3.348,5.062,3.348
				c2.797,0,5.063-1.499,5.063-3.348C32.076,8.927,29.81,9.314,27.013,9.314z"/>
			<path fill="#F05143" d="M27.002,9.323c-2.786,0-5.044-0.385-5.044,1.458c0,1.842,2.258,3.335,5.044,3.335
				c2.786,0,5.045-1.494,5.045-3.335C32.047,8.938,29.788,9.323,27.002,9.323z"/>
			<path fill="#F05344" d="M26.99,9.331c-2.775,0-5.025-0.384-5.025,1.452c0,1.835,2.25,3.323,5.025,3.323
				c2.776,0,5.025-1.488,5.025-3.323C32.016,8.948,29.767,9.331,26.99,9.331z"/>
			<path fill="#F05545" d="M26.98,9.341c-2.765,0-5.006-0.382-5.006,1.447c0,1.828,2.241,3.31,5.006,3.31
				c2.765,0,5.007-1.482,5.007-3.31C31.987,8.958,29.744,9.341,26.98,9.341z"/>
			<path fill="#F05646" d="M26.968,9.35c-2.754,0-4.986-0.381-4.986,1.441c0,1.821,2.232,3.297,4.986,3.297
				c2.756,0,4.987-1.477,4.987-3.297C31.955,8.969,29.724,9.35,26.968,9.35z"/>
			<path fill="#F05847" d="M26.957,9.359c-2.744,0-4.968-0.379-4.968,1.436c0,1.814,2.224,3.285,4.968,3.285
				c2.744,0,4.969-1.471,4.969-3.285C31.926,8.979,29.701,9.359,26.957,9.359z"/>
			<path fill="#F05949" d="M26.947,9.368c-2.733,0-4.949-0.378-4.949,1.43c0,1.807,2.216,3.272,4.949,3.272s4.949-1.465,4.949-3.272
				C31.896,8.99,29.68,9.368,26.947,9.368z"/>
			<path fill="#F15B4A" d="M26.935,9.377c-2.723,0-4.93-0.377-4.93,1.424c0,1.8,2.207,3.26,4.93,3.26c2.724,0,4.931-1.46,4.931-3.26
				C31.865,9,29.658,9.377,26.935,9.377z"/>
			<path fill="#F15D4B" d="M26.924,9.385c-2.713,0-4.911-0.375-4.911,1.419s2.198,3.248,4.911,3.248s4.911-1.454,4.911-3.248
				S29.637,9.385,26.924,9.385z"/>
			<path fill="#F15E4C" d="M26.913,9.395c-2.702,0-4.892-0.374-4.892,1.413c0,1.786,2.19,3.235,4.892,3.235
				c2.702,0,4.892-1.449,4.892-3.235C31.805,9.021,29.615,9.395,26.913,9.395z"/>
			<path fill="#F1604D" d="M26.902,9.404c-2.691,0-4.873-0.372-4.873,1.408c0,1.779,2.182,3.223,4.873,3.223
				c2.692,0,4.874-1.443,4.874-3.223C31.776,9.031,29.594,9.404,26.902,9.404z"/>
			<path fill="#F1614E" d="M26.89,9.412c-2.681,0-4.854-0.371-4.854,1.402c0,1.773,2.173,3.21,4.854,3.21
				c2.681,0,4.854-1.437,4.854-3.21C31.744,9.041,29.572,9.412,26.89,9.412z"/>
			<path fill="#F16350" d="M26.879,9.421c-2.67,0-4.835-0.369-4.835,1.396s2.165,3.198,4.835,3.198c2.671,0,4.836-1.433,4.836-3.198
				S29.55,9.421,26.879,9.421z"/>
			<path fill="#F16551" d="M26.868,9.43c-2.66,0-4.816-0.368-4.816,1.392c0,1.758,2.156,3.185,4.816,3.185s4.815-1.426,4.815-3.185
				C31.684,9.062,29.529,9.43,26.868,9.43z"/>
			<path fill="#F26652" d="M26.858,9.44c-2.649,0-4.798-0.366-4.798,1.386s2.148,3.173,4.798,3.173s4.797-1.421,4.797-3.173
				S29.507,9.44,26.858,9.44z"/>
			<path fill="#F26853" d="M26.845,9.448c-2.638,0-4.777-0.365-4.777,1.38c0,1.745,2.139,3.16,4.777,3.16
				c2.639,0,4.779-1.415,4.779-3.16C31.624,9.083,29.485,9.448,26.845,9.448z"/>
			<path fill="#F26954" d="M26.834,9.457c-2.628,0-4.759-0.364-4.759,1.375c0,1.737,2.131,3.147,4.759,3.147
				c2.629,0,4.76-1.41,4.76-3.147C31.594,9.094,29.463,9.457,26.834,9.457z"/>
			<path fill="#F26B55" d="M26.823,9.466c-2.618,0-4.74-0.362-4.74,1.37c0,1.73,2.122,3.134,4.74,3.134s4.74-1.403,4.74-3.134
				C31.564,9.104,29.442,9.466,26.823,9.466z"/>
			<path fill="#F26D57" d="M26.813,9.475c-2.607,0-4.721-0.36-4.721,1.364c0,1.724,2.113,3.122,4.721,3.122s4.721-1.398,4.721-3.122
				C31.533,9.115,29.42,9.475,26.813,9.475z"/>
			<path fill="#F26E58" d="M26.801,9.484c-2.597,0-4.702-0.359-4.702,1.359c0,1.717,2.105,3.109,4.702,3.109
				c2.598,0,4.703-1.393,4.703-3.109C31.504,9.125,29.399,9.484,26.801,9.484z"/>
			<path fill="#F27059" d="M26.79,9.493c-2.587,0-4.684-0.358-4.684,1.353c0,1.71,2.097,3.097,4.684,3.097s4.683-1.387,4.683-3.097
				C31.473,9.135,29.377,9.493,26.79,9.493z"/>
			<path fill="#F3715A" d="M26.779,9.502c-2.576,0-4.664-0.356-4.664,1.348c0,1.703,2.088,3.084,4.664,3.084
				c2.577,0,4.664-1.381,4.664-3.084C31.443,9.146,29.356,9.502,26.779,9.502z"/>
			<path fill="#F3735B" d="M26.767,9.511c-2.565,0-4.645-0.354-4.645,1.342c0,1.696,2.08,3.071,4.645,3.071
				c2.566,0,4.645-1.375,4.645-3.071C31.412,9.156,29.333,9.511,26.767,9.511z"/>
			<path fill="#F3745C" d="M26.757,9.52c-2.555,0-4.626-0.353-4.626,1.337c0,1.689,2.071,3.059,4.626,3.059s4.626-1.369,4.626-3.059
				C31.383,9.167,29.312,9.52,26.757,9.52z"/>
			<path fill="#F3765E" d="M26.745,9.53c-2.544,0-4.607-0.353-4.607,1.331c0,1.682,2.062,3.046,4.607,3.046
				c2.545,0,4.607-1.364,4.607-3.046C31.353,9.177,29.29,9.53,26.745,9.53z"/>
			<path fill="#F3785F" d="M26.734,9.538c-2.533,0-4.587-0.351-4.587,1.325c0,1.675,2.054,3.034,4.587,3.034
				c2.535,0,4.589-1.359,4.589-3.034C31.323,9.187,29.269,9.538,26.734,9.538z"/>
			<path fill="#F37960" d="M26.723,9.547c-2.523,0-4.568-0.35-4.568,1.32c0,1.668,2.045,3.021,4.568,3.021s4.569-1.353,4.569-3.021
				C31.292,9.198,29.246,9.547,26.723,9.547z"/>
			<path fill="#F37B61" d="M26.712,9.556c-2.513,0-4.55-0.348-4.55,1.314c0,1.661,2.037,3.009,4.55,3.009s4.55-1.348,4.55-3.009
				C31.262,9.208,29.225,9.556,26.712,9.556z"/>
			<path fill="#F47C62" d="M26.7,9.565c-2.502,0-4.53-0.346-4.53,1.31c0,1.654,2.028,2.996,4.53,2.996
				c2.503,0,4.532-1.342,4.532-2.996C31.233,9.219,29.203,9.565,26.7,9.565z"/>
			<path fill="#F47E63" d="M26.69,9.573c-2.492,0-4.512-0.344-4.512,1.304c0,1.647,2.02,2.984,4.512,2.984
				c2.492,0,4.513-1.337,4.513-2.984C31.202,9.229,29.182,9.573,26.69,9.573z"/>
			<path fill="#F48065" d="M26.678,9.583c-2.481,0-4.493-0.344-4.493,1.298c0,1.64,2.012,2.971,4.493,2.971
				c2.482,0,4.493-1.331,4.493-2.971C31.171,9.24,29.16,9.583,26.678,9.583z"/>
			<path fill="#F48166" d="M26.667,9.592c-2.471,0-4.474-0.342-4.474,1.292c0,1.634,2.003,2.959,4.474,2.959
				c2.472,0,4.474-1.325,4.474-2.959C31.141,9.25,29.139,9.592,26.667,9.592z"/>
			<path fill="#F48367" d="M26.656,9.601c-2.461,0-4.455-0.341-4.455,1.287c0,1.627,1.994,2.946,4.455,2.946
				c2.46,0,4.455-1.319,4.455-2.946C31.112,9.26,29.116,9.601,26.656,9.601z"/>
			<path fill="#F48468" d="M26.645,9.61c-2.45,0-4.436-0.339-4.436,1.282c0,1.62,1.986,2.934,4.436,2.934
				c2.451,0,4.437-1.314,4.437-2.934C31.081,9.271,29.096,9.61,26.645,9.61z"/>
			<path fill="#F48669" d="M26.634,9.618c-2.439,0-4.417-0.337-4.417,1.276c0,1.613,1.978,2.921,4.417,2.921
				c2.44,0,4.417-1.308,4.417-2.921C31.051,9.281,29.073,9.618,26.634,9.618z"/>
			<path fill="#F5886A" d="M26.623,9.627c-2.429,0-4.398-0.335-4.398,1.271c0,1.606,1.969,2.909,4.398,2.909
				s4.398-1.303,4.398-2.909C31.021,9.292,29.052,9.627,26.623,9.627z"/>
			<path fill="#F5896C" d="M26.612,9.637c-2.418,0-4.379-0.335-4.379,1.265c0,1.599,1.961,2.896,4.379,2.896
				s4.379-1.297,4.379-2.896C30.99,9.302,29.03,9.637,26.612,9.637z"/>
			<path fill="#F58B6D" d="M26.6,9.646c-2.407,0-4.359-0.333-4.359,1.259c0,1.592,1.952,2.884,4.359,2.884
				c2.409,0,4.36-1.292,4.36-2.884C30.96,9.312,29.009,9.646,26.6,9.646z"/>
			<path fill="#F58C6E" d="M26.589,9.655c-2.397,0-4.341-0.333-4.341,1.253c0,1.585,1.943,2.871,4.341,2.871
				s4.342-1.286,4.342-2.871C30.931,9.323,28.987,9.655,26.589,9.655z"/>
			<path fill="#F58E6F" d="M26.578,9.664c-2.387,0-4.322-0.331-4.322,1.248c0,1.578,1.935,2.859,4.322,2.859
				c2.387,0,4.323-1.281,4.323-2.859C30.901,9.333,28.965,9.664,26.578,9.664z"/>
			<path fill="#F59070" d="M26.567,9.673c-2.376,0-4.303-0.329-4.303,1.243s1.927,2.846,4.303,2.846
				c2.377,0,4.304-1.275,4.304-2.846S28.944,9.673,26.567,9.673z"/>
			<path fill="#F69171" d="M26.556,9.682c-2.366,0-4.284-0.328-4.284,1.237c0,1.564,1.918,2.833,4.284,2.833
				c2.366,0,4.284-1.269,4.284-2.833C30.84,9.354,28.922,9.682,26.556,9.682z"/>
			<path fill="#F69373" d="M26.544,9.691c-2.355,0-4.265-0.326-4.265,1.232c0,1.557,1.91,2.82,4.265,2.82
				c2.356,0,4.266-1.263,4.266-2.82C30.81,9.365,28.901,9.691,26.544,9.691z"/>
			<path fill="#F69474" d="M26.533,9.699c-2.345,0-4.246-0.325-4.246,1.227c0,1.55,1.901,2.808,4.246,2.808s4.246-1.257,4.246-2.808
				C30.78,9.375,28.878,9.699,26.533,9.699z"/>
			<path fill="#F69675" d="M26.522,9.709c-2.334,0-4.227-0.324-4.227,1.221c0,1.542,1.892,2.795,4.227,2.795
				s4.227-1.252,4.227-2.795C30.749,9.385,28.857,9.709,26.522,9.709z"/>
			<path fill="#F69776" d="M26.511,9.718c-2.324,0-4.208-0.322-4.208,1.216c0,1.536,1.884,2.782,4.208,2.782
				c2.324,0,4.208-1.246,4.208-2.782C30.719,9.396,28.835,9.718,26.511,9.718z"/>
			<path fill="#F69977" d="M26.5,9.726c-2.313,0-4.188-0.32-4.188,1.21c0,1.529,1.875,2.77,4.188,2.77
				c2.314,0,4.189-1.241,4.189-2.77C30.689,9.406,28.814,9.726,26.5,9.726z"/>
			<path fill="#F69B78" d="M26.489,9.736c-2.303,0-4.17-0.319-4.17,1.205c0,1.522,1.867,2.757,4.17,2.757s4.17-1.235,4.17-2.757
				C30.659,9.417,28.792,9.736,26.489,9.736z"/>
			<path fill="#F79C7A" d="M26.478,9.744c-2.292,0-4.151-0.317-4.151,1.199c0,1.515,1.859,2.745,4.151,2.745
				c2.292,0,4.151-1.23,4.151-2.745C30.629,9.427,28.77,9.744,26.478,9.744z"/>
			<path fill="#F79E7B" d="M26.466,9.753c-2.281,0-4.131-0.316-4.131,1.194c0,1.509,1.85,2.732,4.131,2.732
				c2.283,0,4.133-1.224,4.133-2.732C30.599,9.437,28.749,9.753,26.466,9.753z"/>
			<path fill="#F79F7C" d="M26.455,9.762c-2.271,0-4.113-0.315-4.113,1.188c0,1.501,1.842,2.72,4.113,2.72
				c2.271,0,4.113-1.219,4.113-2.72C30.569,9.448,28.727,9.762,26.455,9.762z"/>
			<path fill="#F7A17D" d="M26.444,9.771c-2.261,0-4.094-0.313-4.094,1.183c0,1.495,1.833,2.708,4.094,2.708
				c2.261,0,4.094-1.213,4.094-2.708C30.538,9.458,28.705,9.771,26.444,9.771z"/>
		</g>
	</g>
</g>
</svg>
