<?xml version="1.0" encoding="utf-8"?>
<!-- Generator: Adobe Illustrator 16.0.0, SVG Export Plug-In . SVG Version: 6.00 Build 0)  -->
<!DOCTYPE svg PUBLIC "-//W3C//DTD SVG 1.1//EN" "http://www.w3.org/Graphics/SVG/1.1/DTD/svg11.dtd">
<svg version="1.1" id="Layer_1" xmlns="http://www.w3.org/2000/svg" xmlns:xlink="http://www.w3.org/1999/xlink" x="0px" y="0px"
	 width="55.145px" height="40.379px" viewBox="0 0 55.145 40.379" enable-background="new 0 0 55.145 40.379" xml:space="preserve">
<g>
	<path fill="none" d="M6.968,15.431c0.195-0.116,0.423-0.216,0.697-0.29c0,0-0.046-0.098-0.09-0.25
		c-0.167,0.167-0.34,0.332-0.524,0.492C7.012,15.416,6.995,15.414,6.968,15.431z"/>
	<path fill="none" d="M28.92,0.372c0.166,0.007,0.341,0.02,0.511,0.03c0.806-0.57,1.888-0.478,1.656,0.13
		c0.255,0.026,0.514,0.057,0.773,0.089c-0.175-0.327,0.201-0.678,1.19-0.517c1.048,0.17,1.589,0.65,1.192,0.884
		c3.448,0.641,7.041,1.783,9.905,3.533c4.215,2.575,7.853,10.469,8.639,15.573c0.049,0.319,0.083,0.657,0.104,1.01
		c0.313,5.299-2.352,14.068-2.676,14.497c-0.174,0.229-0.894,0.344-1.692,0.343c-0.185,0.313-0.446,0.591-0.846,0.736
		c0,0-0.992,2.354-2.603,1.302c0,0-1.053,1.225-2.232,0.271c0,0-2.169,1.616-2.853,0.362c0,0-2.293,1.527-3.409,0.477
		c0,0-0.846,0.268-1.632,0.181c-0.509,0.341-1.368,0.656-2.599,0.187c0,0-1.481,1.219-2.468,0.238c0,0-1.853,1.058-3.15-0.484
		c0,0-1.913,1.357-3.332-0.309c0,0-1.914,1.049-2.776-0.309c0,0-1.915,1.234-3.025-0.617c0,0-2.036,1.296-2.838-0.309
		c0,0-2.346,1.234-3.086-0.494c0,0-2.098,1.234-2.53-0.494c0,0-2.587,1.015-2.833-0.96c0,0-0.87,0.837-1.857-0.213
		c-0.987-1.049-0.679-2.037-0.432-2.591c0,0-1.545-1.358-0.248-3.024c0,0-1.946-2.016,0.15-3.32c0.032-0.08,0.073-0.16,0.124-0.239
		c-0.351-0.396-1.467-1.87,0.282-2.984c0,0-1.141-2.096,0.447-2.715c0,0-0.509-2.158,1.281-2.529c0,0-0.514-1.779,0.863-2.646
		c-0.393,0.152,0.525-1.867,2.034-4.178c1.376-2.108,3.231-4.441,5.022-5.555c0.682-0.425,1.456-0.821,2.292-1.185
		c-0.016,0.006-0.045,0.017-0.045,0.017s0.676-0.543,1.764-1.234c1.22-0.775,2.963-1.731,4.883-2.33
		c0.165-0.28,0.708-0.493,1.39-0.362c0.004,0.001,0.006,0.002,0.01,0.003c0.189-0.038,0.377-0.077,0.568-0.105
		c0.578-0.085,1.236-0.14,1.952-0.166C26.583,0.218,26.498,0.096,26.511,0H0v40.379h55.145V0H28.411
		C28.726,0.108,28.883,0.242,28.92,0.372z"/>
	<path fill="none" d="M14.144,9.031c0,0,0.052-0.158,0.166-0.367c-0.204,0.103-0.4,0.207-0.588,0.312
		C13.857,8.987,13.996,9.003,14.144,9.031z"/>
	<path fill="#C7E9EF" d="M44.769,33.229c-0.368-0.063-0.733-0.148-1.078-0.244c-0.335-0.094-0.616-0.23-0.866-0.384l0,0
		c-0.208-0.128-0.398-0.266-0.553-0.419c-0.444-0.443-0.67-0.967-0.728-1.408c-0.016-0.121-0.021-0.237-0.013-0.343
		c0.021-0.245,0.089-1.177,0.086-2.507c-0.004-1.834-0.146-4.425-0.726-7.021c-0.094,0.202-0.218,0.418-0.395,0.656
		c0,0,1.419,1.421,0.062,2.715c0,0,1.543,1.482-0.185,3.087c0,0,1.111,2.284-0.433,3.456c0,0,1.233,1.729-0.37,2.964
		c0,0,1.357,1.913-0.74,3.146c0,0-0.371,2.593-3.333,1.852c0,0-0.189,0.252-0.549,0.492c0.786,0.087,1.632-0.181,1.632-0.181
		c1.116,1.051,3.409-0.477,3.409-0.477c0.684,1.254,2.853-0.362,2.853-0.362c1.18,0.954,2.232-0.271,2.232-0.271
		c1.61,1.052,2.603-1.302,2.603-1.302c0.399-0.146,0.661-0.423,0.846-0.736c-0.792-0.001-1.661-0.114-2.15-0.343
		C45.616,35.248,45.041,34.03,44.769,33.229z"/>
	<path fill="#C7E9EF" d="M23.406,6.028c0.14,0.067,0.282,0.145,0.428,0.24c0,0,2.345-1.187,3.395,0.604c0,0,2.838-0.432,3.271,1.296
		c0,0,1.04-0.256,1.956,0.187c-2.189-1.578-4.604-2.589-7.02-2.63C24.721,5.819,24.052,5.921,23.406,6.028z"/>
	<path fill="#C7E9EF" d="M39.141,16.313c0,0,0.073,0.035,0.179,0.102c-0.054-0.102-0.113-0.202-0.168-0.303
		C39.144,16.182,39.154,16.239,39.141,16.313z"/>
	<path fill="#C7E9EF" d="M37.595,13.659c0,0,0.025,0.007,0.036,0.01c-0.012-0.017-0.023-0.035-0.035-0.052
		C37.595,13.632,37.596,13.644,37.595,13.659z"/>
	<path fill="#C7E9EF" d="M39.942,18.782c0,0,0.195,0.057,0.424,0.193c-0.072-0.225-0.146-0.447-0.227-0.668
		C40.095,18.458,40.034,18.614,39.942,18.782z"/>
	<path fill="#C7E9EF" d="M33.647,9.833c0,0,0.366,0.009,0.777,0.148c-0.415-0.387-0.843-0.752-1.28-1.099
		C33.351,9.124,33.528,9.432,33.647,9.833z"/>
	<path fill="#C7E9EF" d="M35.561,11.685c0,0,0.212-0.035,0.498-0.015c-0.178-0.203-0.36-0.399-0.545-0.595
		C35.558,11.252,35.576,11.454,35.561,11.685z"/>
	<path fill="#F7F711" d="M18.631,6.292c1.249-0.364,2.542-0.673,3.86-0.921c6.936-1.309,11.581,2.093,15.769,6.739
		s4.184,14.79,4.057,17.078c-0.083,1.513,0.188,2.625,0.508,3.413c0.25,0.153,0.531,0.29,0.866,0.384
		c0.345,0.096,0.71,0.181,1.078,0.244c-0.08-0.237-0.138-0.442-0.161-0.572c-0.104-0.569,0.653-5.693,0.784-7.787
		c0.132-2.094-1.372-10.011-2.683-12.498c-1.309-2.485-6.413-7.524-12.673-9.094c-0.527-0.132-1.064-0.223-1.604-0.297
		c-0.063,0.099-0.198,0.214-0.421,0.346c3.805,0.564,9.507,3.479,12.348,6.911c2.934,3.546,2.518,6.198,1.112,4.728
		c-1.406-1.469-6.558-8.719-10.97-9.786c-4.414-1.068-7.313-1.21-10.483-0.356c-2.425,0.655-5.649,1.832-3.706,0.771
		c2.172-1.188,6.038-2.312,9.474-2.384c0.172-0.129,0.418-0.262,0.751-0.391c-0.869-0.027-1.73,0.001-2.566,0.069
		c-0.384,0.489-1.874,0.728-2.13,0.255c-3.029,0.479-5.313,1.303-5.57,1.397c-0.836,0.364-1.609,0.76-2.292,1.185
		c-1.791,1.114-3.646,3.447-5.022,5.555c2.237-2.061,5.459-3.685,9.113-4.814C18.24,6.383,18.427,6.322,18.631,6.292z"/>
	<path fill="#F7F711" d="M42.272,32.182c-0.444-0.443-0.67-0.967-0.728-1.408C41.602,31.215,41.827,31.738,42.272,32.182z"/>
	<path fill="#F7F711" d="M41.617,27.924c0.003,1.33-0.065,2.262-0.086,2.507C41.552,30.186,41.62,29.254,41.617,27.924z"/>
	<path fill="#CCB405" d="M7.05,15.382c0.185-0.16,0.357-0.324,0.524-0.492c-0.148-0.511-0.278-1.667,1.386-2.095
		c0,0-0.062-1.913,1.975-2.037c0,0,0.497-1.978,2.787-1.783c0.188-0.105,0.384-0.208,0.588-0.312
		c0.288-0.531,1.017-1.424,2.611-1.114c0,0,0.41-0.726,1.149-1.084c-3.654,1.129-6.876,2.753-9.113,4.814
		c-1.509,2.312-2.427,4.331-2.034,4.178c0.015-0.009,0.03-0.018,0.044-0.026C6.995,15.414,7.012,15.416,7.05,15.382z"/>
	<path fill="#CCB405" d="M42.317,29.188c0.127-2.288,0.131-12.432-4.057-17.078s-8.833-8.048-15.769-6.739
		c-1.318,0.249-2.611,0.557-3.86,0.921c0.414-0.061,0.894,0.009,1.437,0.331c0,0,1.396-1.529,3.337-0.595
		c0.647-0.106,1.316-0.209,2.03-0.304c2.416,0.041,4.831,1.052,7.02,2.63c0.247,0.12,0.483,0.289,0.688,0.529
		c0.438,0.346,0.865,0.712,1.28,1.099c0.44,0.15,0.932,0.451,1.09,1.093c0.185,0.196,0.367,0.393,0.545,0.595
		c0.637,0.044,1.645,0.364,1.537,1.948c0.012,0.017,0.023,0.035,0.035,0.052c0.185,0.048,1.721,0.527,1.521,2.442
		c0.055,0.101,0.114,0.201,0.168,0.303c0.362,0.229,1.123,0.853,0.819,1.893c0.08,0.221,0.154,0.443,0.227,0.668
		c0.45,0.268,1.025,0.848,0.526,1.927c0.58,2.597,0.722,5.188,0.726,7.021c0.003,1.33-0.065,2.262-0.086,2.507
		c-0.009,0.105-0.003,0.222,0.013,0.343c0.058,0.441,0.283,0.965,0.728,1.408c0.154,0.153,0.345,0.291,0.553,0.419l0,0
		C42.505,31.812,42.234,30.7,42.317,29.188z"/>
	<path fill="#FFFB69" d="M25.786,3.208c-3.437,0.072-7.302,1.197-9.474,2.384c-1.943,1.062,1.28-0.115,3.706-0.771
		c3.17-0.854,6.07-0.712,10.483,0.356c4.412,1.067,9.563,8.317,10.97,9.786c1.405,1.47,1.821-1.182-1.112-4.728
		c-2.841-3.432-8.543-6.346-12.348-6.911c-0.201,0.119-0.466,0.249-0.824,0.392C25.781,4.28,25.006,3.793,25.786,3.208z"/>
	<path fill="#F7F711" d="M30.639,1.081c0.192,0.018,0.386,0.037,0.581,0.058c0.258-0.209,0.796-0.28,1.504-0.021
		c0.23,0.084,0.41,0.182,0.562,0.284c3.217,0.48,6.551,1.313,8.654,2.565c4.827,2.876,8.529,11.086,9.038,12.858
		c0.51,1.771-3.611,3.815-4.691,0c-0.875-3.084-2.013-4.909-3.174-7.156c-1.042-2.016-6.074-5.828-10.062-7.214
		c-0.246,0.008-0.538-0.02-0.909-0.131c-0.28-0.084-0.495-0.186-0.663-0.293c-0.004,0-0.008-0.002-0.012-0.002
		c-0.718-0.126-1.449-0.209-2.161-0.267c-0.087,0.005-0.164,0-0.23-0.019c-0.504-0.037-0.994-0.062-1.461-0.079
		c0.081,0.367-0.52,0.542-1.354,0.108c-0.091-0.047-0.159-0.098-0.234-0.147c-0.513-0.009-0.953-0.018-1.291-0.037
		c-0.243,0.166-0.654,0.249-1.183,0.123c-0.674-0.161-0.83-0.466-0.682-0.718c-1.92,0.599-3.663,1.555-4.883,2.33
		c1.186-0.379,2.64-0.683,4.406-0.86c0.494-0.227,1.164-0.332,1.485-0.117c1.18-0.064,2.48-0.076,3.912-0.021
		c7.521,0.286,14.917,7.365,15.855,9.132c0.937,1.767,2.53,8.701,2.726,11.934c0.196,3.23-0.783,7.303-0.981,8.35
		c-0.195,1.048,0.523,2.812,0.981,3.86c0.489,0.229,1.358,0.342,2.15,0.343c0.799,0.001,1.519-0.113,1.692-0.343
		c0.324-0.429,2.989-9.198,2.676-14.497c-0.021-0.353-0.056-0.69-0.104-1.01c-0.786-5.104-4.424-12.998-8.639-15.573
		c-2.864-1.75-6.457-2.893-9.905-3.533c-0.208,0.122-0.668,0.178-1.457,0.085c-0.508-0.06-0.819-0.251-0.926-0.452
		c-0.26-0.032-0.519-0.062-0.773-0.089C31.03,0.683,30.886,0.867,30.639,1.081z"/>
	<path fill="#F7F711" d="M27.187,0.59c-0.164-0.081-0.292-0.156-0.395-0.227c-0.715,0.026-1.374,0.081-1.952,0.166
		c-0.19,0.028-0.379,0.067-0.568,0.105c0.361,0.071,0.562,0.216,0.649,0.378c0.164-0.026,0.354-0.047,0.562-0.065
		c0.008-0.263,0.394-0.365,1.149-0.052c0.667-0.009,1.438,0.009,2.279,0.056c0.068-0.118,0.159-0.239,0.286-0.36
		c0.073-0.07,0.152-0.132,0.232-0.189c-0.17-0.01-0.345-0.023-0.511-0.03C29.026,0.741,28.156,1.066,27.187,0.59z"/>
	<path fill="#CCB405" d="M24.032,2.514c0.058,0.134,0.028,0.26-0.061,0.373c0.835-0.068,1.697-0.096,2.566-0.069
		c0.005-0.002,0.009-0.004,0.014-0.006c1.003-0.385,2.172-0.283,1.881,0.168c0.54,0.074,1.077,0.165,1.604,0.297
		c6.26,1.57,11.364,6.608,12.673,9.094c1.311,2.487,2.814,10.404,2.683,12.498c-0.131,2.094-0.888,7.218-0.784,7.787
		c0.023,0.13,0.081,0.335,0.161,0.572c0.272,0.802,0.848,2.02,1.604,2.371c-0.458-1.048-1.177-2.812-0.981-3.86
		c0.198-1.047,1.178-5.119,0.981-8.35c-0.195-3.232-1.789-10.167-2.726-11.934c-0.938-1.767-8.334-8.847-15.855-9.132
		c-1.432-0.054-2.731-0.042-3.912,0.021C23.946,2.389,24.001,2.442,24.032,2.514z"/>
	<path fill="#CCB405" d="M21.841,3.142C21.841,3.142,21.841,3.142,21.841,3.142c-0.127-0.235,0.155-0.496,0.555-0.68
		c-1.766,0.177-3.221,0.481-4.406,0.86c-1.087,0.69-1.764,1.234-1.764,1.234s0.029-0.011,0.045-0.017
		C16.528,4.445,18.812,3.621,21.841,3.142z"/>
	<path fill="#FFFB69" d="M27.615,1.664c0.467,0.017,0.957,0.042,1.461,0.079c-0.307-0.089-0.389-0.409-0.164-0.792
		c-0.84-0.047-1.612-0.065-2.279-0.056c0.051,0.021,0.091,0.03,0.146,0.055C27.325,1.202,27.571,1.461,27.615,1.664z"/>
	<path fill="#FFFB69" d="M24.737,1.587c0.337,0.019,0.777,0.027,1.291,0.037c-0.37-0.243-0.549-0.494-0.543-0.677
		c-0.208,0.018-0.398,0.039-0.562,0.065C25.03,1.21,24.963,1.434,24.737,1.587z"/>
	<path fill="#FFFB69" d="M31.48,2.031c-0.484-0.309-0.527-0.675-0.26-0.893c-0.195-0.021-0.389-0.04-0.581-0.058
		c-0.039,0.034-0.071,0.065-0.115,0.1c-0.512,0.405-0.918,0.562-1.217,0.581c0.712,0.058,1.443,0.141,2.161,0.267
		C31.472,2.029,31.476,2.03,31.48,2.031z"/>
	<path fill="#FFFB69" d="M33.052,2.455c3.987,1.386,9.02,5.198,10.062,7.214c1.161,2.247,2.299,4.071,3.174,7.156
		c1.08,3.815,5.201,1.771,4.691,0c-0.509-1.772-4.211-9.982-9.038-12.858c-2.104-1.252-5.438-2.085-8.654-2.565
		C33.98,1.867,33.863,2.429,33.052,2.455z M36.227,2.324c1.774-0.217,2.148,0.806,0.407,0.947
		C34.892,3.412,35.076,2.464,36.227,2.324z"/>
	<path fill="#141A23" d="M31.48,2.031c0.168,0.107,0.383,0.208,0.663,0.293c0.371,0.112,0.663,0.14,0.909,0.131
		c0.811-0.026,0.928-0.588,0.234-1.054c-0.152-0.102-0.332-0.2-0.562-0.284c-0.708-0.259-1.246-0.188-1.504,0.021
		C30.952,1.355,30.995,1.722,31.48,2.031z"/>
	<path fill="#141A23" d="M21.841,3.142C21.841,3.142,21.841,3.142,21.841,3.142c0.257,0.473,1.747,0.234,2.13-0.255
		c0.088-0.113,0.118-0.239,0.061-0.373c-0.031-0.072-0.086-0.125-0.151-0.169c-0.321-0.215-0.991-0.11-1.485,0.117
		C21.996,2.646,21.714,2.907,21.841,3.142z"/>
	<path fill="#141A23" d="M23.554,1.71c0.529,0.126,0.939,0.043,1.183-0.123c0.226-0.154,0.292-0.377,0.185-0.576
		c-0.088-0.162-0.289-0.307-0.649-0.378c-0.004-0.001-0.006-0.002-0.01-0.003c-0.682-0.131-1.225,0.082-1.39,0.362
		C22.724,1.244,22.88,1.549,23.554,1.71z"/>
	<path fill="#141A23" d="M26.792,0.363c0.103,0.071,0.23,0.146,0.395,0.227c0.97,0.476,1.839,0.151,1.733-0.219
		C28.883,0.242,28.726,0.108,28.411,0h-1.9C26.498,0.096,26.583,0.218,26.792,0.363z"/>
	<path fill="#141A23" d="M26.028,1.624c0.075,0.049,0.143,0.1,0.234,0.147c0.834,0.434,1.435,0.259,1.354-0.108
		c-0.045-0.203-0.29-0.462-0.836-0.714c-0.054-0.025-0.094-0.034-0.146-0.055c-0.755-0.312-1.141-0.211-1.149,0.052
		C25.479,1.13,25.658,1.381,26.028,1.624z"/>
	<path fill="#141A23" d="M28.912,0.951c-0.225,0.383-0.143,0.703,0.164,0.792c0.066,0.019,0.144,0.024,0.23,0.019
		c0.299-0.018,0.705-0.175,1.217-0.581c0.044-0.035,0.076-0.066,0.115-0.1c0.247-0.214,0.391-0.397,0.448-0.549
		c0.231-0.607-0.851-0.7-1.656-0.13c-0.08,0.057-0.159,0.119-0.232,0.189C29.072,0.712,28.981,0.833,28.912,0.951z"/>
	<path fill="#141A23" d="M26.551,2.812c-0.005,0.002-0.009,0.004-0.014,0.006c-0.333,0.128-0.579,0.262-0.751,0.391
		c-0.78,0.585-0.005,1.071,1.4,0.509c0.358-0.143,0.623-0.273,0.824-0.392c0.223-0.131,0.357-0.247,0.421-0.346
		C28.723,2.529,27.554,2.427,26.551,2.812z"/>
	<path fill="#141A23" d="M36.634,3.271c1.741-0.141,1.367-1.164-0.407-0.947C35.076,2.464,34.892,3.412,36.634,3.271z"/>
	<path fill="#141A23" d="M32.786,1.072c0.789,0.093,1.249,0.037,1.457-0.085c0.396-0.234-0.145-0.713-1.192-0.884
		c-0.989-0.161-1.365,0.19-1.19,0.517C31.967,0.82,32.279,1.012,32.786,1.072z"/>
	<path fill="#D9F3F9" d="M31.256,38.192c0.258,0.006,0.54-0.101,0.795-0.254c0.077-0.05,0.145-0.112,0.215-0.172
		c-0.385,0.044-0.837,0.008-1.368-0.195c0,0-0.174,0.139-0.431,0.278c0.031,0.032,0.081,0.082,0.176,0.149
		C30.778,38.103,30.998,38.198,31.256,38.192z"/>
	<path fill="#D9F3F9" d="M19.967,37.086c0.111-0.017,0.219-0.055,0.326-0.102c-0.064-0.067-0.134-0.12-0.19-0.208
		c0,0-0.329,0.211-0.785,0.314c0.014,0.003,0.02,0.003,0.035,0.006C19.508,37.121,19.731,37.13,19.967,37.086z"/>
	<path fill="#D9F3F9" d="M35.498,38.778c2.962,0.741,3.333-1.852,3.333-1.852c2.098-1.233,0.74-3.146,0.74-3.146
		c1.604-1.234,0.37-2.964,0.37-2.964c1.544-1.172,0.433-3.456,0.433-3.456c1.728-1.604,0.185-3.087,0.185-3.087
		c1.357-1.294-0.062-2.715-0.062-2.715c0.177-0.238,0.301-0.454,0.395-0.656c0.499-1.079-0.076-1.659-0.526-1.927
		c-0.229-0.136-0.424-0.193-0.424-0.193c0.093-0.168,0.153-0.324,0.197-0.475c0.304-1.04-0.457-1.665-0.819-1.893
		c-0.105-0.067-0.179-0.102-0.179-0.102c0.013-0.074,0.003-0.131,0.011-0.201c0.2-1.915-1.336-2.394-1.521-2.442
		c-0.011-0.003-0.036-0.01-0.036-0.01c0.001-0.015,0-0.027,0.001-0.042c0.107-1.584-0.9-1.903-1.537-1.948
		c-0.286-0.02-0.498,0.015-0.498,0.015c0.016-0.231-0.003-0.433-0.047-0.61c-0.158-0.642-0.649-0.943-1.09-1.093
		c-0.411-0.14-0.777-0.148-0.777-0.148c-0.119-0.401-0.296-0.709-0.503-0.95c-0.205-0.24-0.441-0.409-0.688-0.529
		c-0.916-0.443-1.956-0.187-1.956-0.187c-0.433-1.728-3.271-1.296-3.271-1.296c-1.05-1.791-3.395-0.604-3.395-0.604
		c-0.146-0.095-0.288-0.172-0.428-0.24c-1.941-0.934-3.337,0.595-3.337,0.595c-0.543-0.322-1.023-0.392-1.437-0.331
		c-0.204,0.03-0.391,0.091-0.561,0.173c-0.739,0.359-1.149,1.084-1.149,1.084c-1.595-0.31-2.323,0.583-2.611,1.114
		c-0.113,0.209-0.166,0.367-0.166,0.367c-0.148-0.027-0.287-0.044-0.422-0.055c-2.29-0.195-2.787,1.783-2.787,1.783
		c-2.037,0.124-1.975,2.037-1.975,2.037c-1.664,0.428-1.534,1.584-1.386,2.095c0.044,0.153,0.09,0.25,0.09,0.25
		c-0.273,0.074-0.502,0.174-0.697,0.29c-0.015,0.009-0.03,0.018-0.044,0.026c-1.377,0.867-0.863,2.646-0.863,2.646
		c-1.791,0.371-1.281,2.529-1.281,2.529c-1.588,0.619-0.447,2.715-0.447,2.715c-1.749,1.114-0.633,2.589-0.282,2.984
		c0.17-0.266,0.449-0.521,0.882-0.749c0,0-0.144-0.142-0.301-0.366c-0.029,0.029-0.058,0.057-0.086,0.094
		c0.004,0.002,0.001-0.066,0.034-0.172c-0.373-0.572-0.747-1.589,0.524-2.397c0,0-1.05-1.934,0.412-2.501
		c0,0-0.469-1.988,1.178-2.329c0,0-0.625-2.161,1.478-2.729c0,0-0.795-1.647,1.193-2.158c0,0-0.057-1.762,1.818-1.876
		c0,0,0.511-2.044,2.955-1.59c0,0,0.512-1.762,2.557-1.364c0,0,1.08-1.931,2.899-0.853c0,0,1.477-1.622,3.465-0.327
		c0,0,2.161-1.093,3.125,0.555c0,0,2.613-0.398,3.012,1.193c0,0,2.272-0.568,2.896,1.535c0,0,1.876,0,1.762,1.705
		c0,0,2.047-0.341,1.876,1.818c0,0,0.396,0.097,0.775,0.408c0.116-0.094,0.225-0.198,0.323-0.308
		c-0.008-0.011-0.007,0.182-0.187,0.438c0.364,0.364,0.667,0.95,0.508,1.905c0,0,0.178,0.084,0.382,0.25
		c0.059-0.051,0.119-0.1,0.173-0.154c0,0-0.012,0.061-0.053,0.175c-0.007,0.016-0.02,0.041-0.027,0.06
		c0.388,0.355,0.791,0.998,0.265,1.943c0,0,1.811,0.523,0.677,2.308c0.036,0.012,0.069,0.029,0.106,0.035
		c0.414,0.112,0.86,0.087,1.229-0.088c0,0-0.017,0.019-0.051,0.05c-0.035,0.031-0.083,0.092-0.167,0.138
		c-0.158,0.106-0.44,0.214-0.818,0.206c-0.141,0.001-0.293-0.03-0.45-0.076c0.14,0.148,1.214,1.366,0.042,2.483
		c0,0,1.421,1.364-0.17,2.842c0,0,1.023,2.103-0.397,3.183c0,0,0.524,0.737,0.396,1.565c0.203-0.079,0.402-0.183,0.583-0.321
		c0.312-0.242,0.553-0.57,0.712-0.919c0,0,0,0.091-0.025,0.266c-0.038,0.17-0.116,0.434-0.341,0.703
		c-0.211,0.255-0.562,0.515-1.026,0.618c-0.015,0.037-0.028,0.074-0.046,0.111c0.042,0.029,0.089,0.054,0.145,0.081
		c0.067,0.044,0.153,0.058,0.239,0.08c0.361,0.093,0.773-0.058,1.121-0.305c0,0-0.01,0.049-0.051,0.143
		c-0.033,0.1-0.123,0.221-0.285,0.344c-0.166,0.097-0.424,0.202-0.711,0.121c-0.196-0.044-0.388-0.172-0.521-0.351
		c-0.118,0.203-0.285,0.403-0.529,0.591c0,0,1.251,1.761-0.683,2.897c0,0-0.341,2.387-3.066,1.704c0,0-0.41,0.562-1.216,0.767
		c-0.051,0.102-0.118,0.214-0.232,0.337c-0.185,0.19-0.487,0.391-0.888,0.418c-0.198,0.018-0.42-0.029-0.61-0.144
		c-0.177-0.105-0.312-0.276-0.396-0.467c-0.477,0.257-1.244,0.514-1.829-0.066c0,0-1.705,0.975-2.897-0.447
		c0,0-1.762,1.252-3.069-0.284c0,0-1.243,0.669-2.112,0.142c-0.036,0.019-0.068,0.037-0.106,0.055
		c-0.072,0.04-0.162,0.049-0.247,0.071c-0.316,0.062-0.687-0.011-1.001-0.212c-0.06,0.01-0.122,0.018-0.185,0.023
		c-0.019,0.015-0.028,0.032-0.049,0.046c-0.062,0.036-0.131,0.07-0.201,0.104c-0.071,0.032-0.155,0.038-0.237,0.053
		c-0.333,0.043-0.709-0.086-0.987-0.347c0,0,0.087,0.021,0.232,0.056c0.069,0.025,0.158,0.03,0.252,0.039
		c0.095,0.02,0.2,0.006,0.307-0.004c0.013-0.001,0.024-0.008,0.037-0.01c-0.369-0.108-0.739-0.36-1.043-0.868
		c0,0-1.875,1.193-2.614-0.283c0,0-0.421,0.221-0.951,0.331c-0.214,0.178-0.432,0.413-0.577,0.76
		c0.005,0.001-0.01-0.111,0.038-0.291c0.028-0.118,0.097-0.267,0.188-0.419c-0.589,0.05-1.223-0.099-1.539-0.837
		c0,0-1.933,1.137-2.33-0.453c0,0-2.382,0.933-2.609-0.885c0,0-0.8,0.771-1.709-0.196c-0.909-0.966-0.625-1.875-0.397-2.386
		c0,0-1.423-1.25-0.229-2.785c0,0-1.093-1.126-0.664-2.191c-2.097,1.305-0.15,3.32-0.15,3.32c-1.297,1.666,0.248,3.024,0.248,3.024
		c-0.247,0.554-0.556,1.542,0.432,2.591c0.987,1.05,1.857,0.213,1.857,0.213c0.247,1.975,2.833,0.96,2.833,0.96
		c0.433,1.729,2.53,0.494,2.53,0.494c0.741,1.729,3.086,0.494,3.086,0.494c0.802,1.604,2.838,0.309,2.838,0.309
		c1.111,1.852,3.025,0.617,3.025,0.617c0.862,1.357,2.776,0.309,2.776,0.309c1.418,1.666,3.332,0.309,3.332,0.309
		c1.297,1.542,3.15,0.484,3.15,0.484c0.986,0.98,2.468-0.238,2.468-0.238c1.23,0.47,2.09,0.154,2.599-0.187
		C35.309,39.03,35.498,38.778,35.498,38.778z M39.405,21.717c-0.146-0.113-0.275-0.308-0.275-0.54c0,0,0.038,0.035,0.102,0.089
		c0.062,0.05,0.151,0.114,0.257,0.172c0.105,0.055,0.22,0.11,0.34,0.145c0.121,0.046,0.241,0.056,0.392,0.083
		c0,0-0.019,0.03-0.07,0.078c-0.05,0.057-0.146,0.103-0.285,0.121C39.731,21.871,39.551,21.842,39.405,21.717z M8.463,35.769
		c-0.185,0.113-0.458,0.208-0.775,0.161c-0.31-0.032-0.677-0.256-0.78-0.615c0.004-0.006,0.058,0.066,0.171,0.142
		c0.111,0.078,0.283,0.152,0.489,0.178c0.417,0.053,0.922-0.099,1.296-0.384C8.859,35.235,8.844,35.521,8.463,35.769z"/>
	<path fill="#FFFFFF" d="M38.016,31.555c0.024,0.019,0.048,0.036,0.085,0.063c0.009,0.009,0.028,0.014,0.039,0.021
		c0.018-0.037,0.031-0.074,0.046-0.111c-0.017,0.004-0.03,0.012-0.048,0.015C38.1,31.551,38.056,31.549,38.016,31.555z"/>
	<path fill="#FFFFFF" d="M4.589,28.763c-1.194,1.535,0.229,2.785,0.229,2.785c-0.228,0.511-0.512,1.42,0.397,2.386
		c0.91,0.967,1.709,0.196,1.709,0.196c0.227,1.817,2.609,0.885,2.609,0.885c0.397,1.59,2.33,0.453,2.33,0.453
		c0.316,0.738,0.95,0.887,1.539,0.837c0.047-0.079,0.091-0.158,0.159-0.236c0.197-0.229,0.502-0.444,0.874-0.478
		c0.376-0.039,0.732,0.202,0.853,0.471c0,0-0.069-0.035-0.179-0.096c-0.121-0.05-0.288-0.123-0.5-0.107
		c-0.208,0.016-0.46,0.098-0.717,0.285c-0.045,0.033-0.092,0.072-0.139,0.111c0.529-0.11,0.951-0.331,0.951-0.331
		c0.739,1.477,2.614,0.283,2.614,0.283c0.304,0.508,0.674,0.76,1.043,0.868c0.43-0.045,0.801-0.409,1.072-0.818
		c0,0,0.002,0.061-0.014,0.176c-0.009,0.056-0.017,0.132-0.043,0.214c-0.035,0.077-0.079,0.168-0.136,0.27
		c-0.062,0.069-0.142,0.15-0.232,0.222c0.063-0.006,0.125-0.014,0.185-0.023c-0.032-0.021-0.067-0.036-0.098-0.06
		c0,0,0.088,0.014,0.223,0.036c0.456-0.104,0.785-0.314,0.785-0.314c0.056,0.088,0.125,0.141,0.19,0.208
		c0.36-0.159,0.691-0.466,0.957-0.791c0,0-0.008,0.062-0.039,0.185c-0.019,0.06-0.034,0.14-0.076,0.222
		c-0.045,0.079-0.101,0.172-0.17,0.273c-0.087,0.085-0.181,0.19-0.31,0.273c-0.033,0.018-0.07,0.036-0.106,0.054
		c0.87,0.527,2.112-0.142,2.112-0.142c1.307,1.536,3.069,0.284,3.069,0.284c1.193,1.422,2.897,0.447,2.897,0.447
		c0.585,0.58,1.353,0.323,1.829,0.066c-0.006-0.014-0.018-0.025-0.023-0.04c0.001-0.002,0.021,0.019,0.035,0.033
		c0.257-0.14,0.431-0.278,0.431-0.278c0.531,0.203,0.983,0.239,1.368,0.195c0.161-0.133,0.31-0.279,0.431-0.446
		c-0.007-0.008,0.002,0.156-0.114,0.392c0.806-0.205,1.216-0.767,1.216-0.767c2.726,0.683,3.066-1.704,3.066-1.704
		c1.934-1.137,0.683-2.897,0.683-2.897c0.244-0.188,0.411-0.388,0.529-0.591c-0.044-0.059-0.079-0.124-0.107-0.194
		c-0.45,0.049-0.979-0.072-1.352-0.444c0.005-0.006,0.123,0.074,0.339,0.139c0.216,0.068,0.531,0.115,0.879,0.06
		c0.148-0.021,0.299-0.071,0.448-0.131c0.129-0.828-0.396-1.565-0.396-1.565c1.421-1.08,0.397-3.183,0.397-3.183
		c1.591-1.478,0.17-2.842,0.17-2.842c1.172-1.117,0.098-2.335-0.042-2.483c-0.055-0.017-0.108-0.028-0.165-0.049
		c-0.11-0.055-0.115-0.057-0.113-0.056c-0.064,0.071-0.166,0.169-0.264,0.25c-0.201,0.164-0.445,0.336-0.754,0.39
		c-0.306,0.063-0.632-0.031-0.877-0.228c0,0,0.036,0.011,0.101,0.031c0.067,0.016,0.155,0.069,0.278,0.066
		c0.236,0.039,0.564-0.055,0.858-0.299c0.075-0.062,0.151-0.122,0.224-0.199c0.078-0.073,0.138-0.139,0.226-0.236l0.114-0.124
		l0.029-0.031l0.037,0.021l0.075,0.038l0.189,0.098c0.062,0.021,0.128,0.042,0.192,0.063c1.134-1.785-0.677-2.308-0.677-2.308
		c0.526-0.945,0.123-1.588-0.265-1.943c-0.018,0.047-0.032,0.095-0.066,0.149c-0.055,0.073-0.12,0.156-0.201,0.248
		c-0.184,0.146-0.463,0.324-0.821,0.298c-0.013,0-0.026-0.005-0.039-0.005c-0.021,0.141-0.079,0.354-0.283,0.617
		c-0.182,0.21-0.509,0.435-0.93,0.432c-0.423,0.013-0.865-0.258-1.101-0.664c0,0,0.023,0.016,0.064,0.046
		c0.044,0.028,0.099,0.078,0.18,0.119c0.154,0.095,0.388,0.199,0.657,0.213c0.271,0.022,0.566-0.064,0.817-0.236
		c0.196-0.142,0.358-0.335,0.501-0.54c-0.308-0.043-0.624-0.206-0.847-0.481c0,0,0.087,0.036,0.232,0.096
		c0.067,0.039,0.161,0.052,0.259,0.079c0.096,0.034,0.208,0.033,0.323,0.042c0.407,0.031,0.818-0.192,1.161-0.492
		c-0.204-0.167-0.382-0.25-0.382-0.25c0.159-0.956-0.144-1.542-0.508-1.905c-0.059,0.083-0.134,0.171-0.236,0.263
		c-0.209,0.174-0.532,0.333-0.925,0.344c-0.386,0.019-0.835-0.119-1.179-0.429c0,0,0.026,0.007,0.073,0.025
		c0.047,0.017,0.114,0.041,0.202,0.061c0.173,0.045,0.418,0.086,0.693,0.072c0.273-0.01,0.573-0.081,0.845-0.214
		c0.139-0.068,0.269-0.154,0.39-0.251c-0.38-0.312-0.775-0.408-0.775-0.408c0.171-2.159-1.876-1.818-1.876-1.818
		c0.114-1.705-1.762-1.705-1.762-1.705c-0.624-2.103-2.896-1.535-2.896-1.535c-0.399-1.591-3.012-1.193-3.012-1.193
		c-0.964-1.648-3.125-0.555-3.125-0.555c-1.989-1.294-3.465,0.327-3.465,0.327c-1.819-1.079-2.899,0.853-2.899,0.853
		c-2.045-0.397-2.557,1.364-2.557,1.364c-2.443-0.454-2.955,1.59-2.955,1.59c-1.875,0.115-1.818,1.876-1.818,1.876
		c-1.988,0.511-1.193,2.158-1.193,2.158c-2.102,0.568-1.478,2.729-1.478,2.729c-1.647,0.34-1.178,2.329-1.178,2.329
		c-1.462,0.567-0.412,2.501-0.412,2.501c-1.271,0.809-0.897,1.825-0.524,2.397c0.002-0.006,0.001-0.009,0.003-0.015
		c0.035-0.115,0.132-0.277,0.31-0.389c0.173-0.115,0.409-0.159,0.628-0.137c0.22,0.025,0.426,0.119,0.563,0.258
		c0,0-0.05,0.006-0.135,0.007c-0.082,0.003-0.2,0.01-0.348,0.016c-0.143,0.01-0.308,0.021-0.488,0.062
		c-0.15,0.038-0.321,0.107-0.482,0.275c0.157,0.225,0.301,0.366,0.301,0.366c-0.433,0.228-0.711,0.483-0.882,0.749
		c-0.051,0.079-0.092,0.159-0.124,0.239C3.496,27.637,4.589,28.763,4.589,28.763z M6.965,28.112c0,0,0.085,0.037,0.225,0.096
		c0.138,0.056,0.34,0.099,0.564,0.089c0.46-0.007,0.94-0.31,1.295-0.676c0,0-0.009,0.059-0.048,0.172
		c-0.022,0.055-0.038,0.134-0.09,0.204C8.86,28.068,8.8,28.154,8.719,28.241c-0.175,0.146-0.437,0.323-0.784,0.325
		C7.599,28.585,7.199,28.435,6.965,28.112z M11.436,34.12c-0.186,0.129-0.48,0.207-0.792,0.154
		c-0.258-0.044-0.519-0.196-0.733-0.414c-0.225,0.094-0.478,0.165-0.774,0.16c-0.433-0.004-0.951-0.125-1.362-0.468
		c0,0,0.029,0.01,0.084,0.029c0.053,0.021,0.132,0.046,0.233,0.07c0.2,0.05,0.486,0.092,0.811,0.088
		c0.649,0.004,1.452-0.216,1.834-0.8c0,0-0.008,0.08-0.06,0.235c-0.061,0.145-0.193,0.364-0.458,0.542
		c-0.066,0.045-0.16,0.074-0.241,0.111c0.005,0.002,0.007,0.004,0.013,0.006c0.132,0.053,0.322,0.11,0.537,0.139
		c0.215,0.03,0.453,0.017,0.672-0.048c0.218-0.07,0.421-0.2,0.603-0.364C11.792,33.548,11.813,33.838,11.436,34.12z M25.89,35.461
		c-0.037,0.098-0.117,0.226-0.248,0.376c-0.143,0.132-0.344,0.297-0.634,0.35c-0.283,0.062-0.632,0.004-0.911-0.196
		c0,0,0.079,0.004,0.211,0.012c0.128,0.004,0.308-0.005,0.495-0.054c0.383-0.087,0.763-0.39,1.141-0.638
		C25.946,35.311,25.931,35.364,25.89,35.461z M26.499,31.15c-1.51-0.871-2.295,1.529-2.295,1.529
		c-1.336-0.929-2.59,0.582-2.59,0.582c-0.965-1.452-2.229,0-2.229,0c-0.872-1.626-2.382-0.757-2.382-0.757
		c-0.407-0.812-1.858-0.289-1.858-0.289c-0.64-1.509-2.032-0.58-2.032-0.58c0.29-1.045-0.697-1.336-0.697-1.336
		c0.581-1.277-1.452-2.381-1.452-2.381c0.698-0.813-0.697-1.511-0.697-1.511c1.277-0.87,0-1.974,0-1.974
		c1.51-0.639,0.523-1.917,0.523-1.917c1.044-0.812,0-1.684,0-1.684c1.741-0.29,1.335-2.324,1.335-2.324
		c1.625,0.059,1.509-1.799,1.509-1.799c1.568,0.407,1.975-1.568,1.975-1.568c1.51,1.104,2.323-1.162,2.323-1.162
		c1.162,1.162,2.091-0.465,2.091-0.465c0.754,0.988,2.35,0,2.35,0c0.666,1.104,2.295,0,2.295,0c0.174,1.104,2.265,0.814,2.265,0.814
		c-0.173,1.161,1.627,1.51,1.627,1.51c-0.115,1.22,1.549,1.741,1.549,1.741c-0.347,1.335,1.543,2.382,1.543,2.382
		c-0.504,1.459,0.232,1.899,0.438,1.991c0.03,0.013,0.052,0.021,0.052,0.021s-0.021-0.007-0.052-0.021
		c-0.343-0.138-2.434-0.899-2.255,1.1c-2.551-0.361-1.863,2.355-1.863,2.355c-2.308,1.079-0.394,3.093-0.394,3.093
		C25.762,28.354,26.499,31.15,26.499,31.15z M33.073,13.485c-0.015-0.013,0.065,0.279-0.267,0.633
		c-0.163,0.166-0.444,0.305-0.768,0.31c-0.325,0.012-0.688-0.098-0.994-0.333c0,0,0.089,0.021,0.237,0.041
		c0.146,0.021,0.351,0.039,0.576,0.022c0.225-0.015,0.469-0.07,0.679-0.183C32.747,13.864,32.923,13.689,33.073,13.485z
		 M30.798,9.996c-0.071,0.13-0.175,0.324-0.371,0.535c-0.191,0.204-0.491,0.449-0.923,0.518c-0.184,0.034-0.376,0.009-0.564-0.047
		c-0.007,0.024-0.02,0.07-0.053,0.155c-0.047,0.113-0.133,0.278-0.296,0.453c-0.163,0.17-0.407,0.361-0.757,0.438
		c-0.172,0.037-0.373,0.033-0.56-0.033c-0.188-0.063-0.356-0.192-0.477-0.356c0.002-0.003,0.084,0.053,0.228,0.105
		c0.146,0.052,0.355,0.087,0.583,0.043c0.228-0.039,0.466-0.166,0.695-0.315c0.218-0.149,0.422-0.326,0.618-0.495
		c-0.248-0.077-0.488-0.214-0.687-0.403c0,0,0.025,0.01,0.076,0.03c0.051,0.017,0.121,0.053,0.215,0.078
		c0.182,0.062,0.445,0.127,0.73,0.096c0.285-0.023,0.583-0.162,0.854-0.357c0.273-0.198,0.528-0.441,0.776-0.652
		C30.886,9.788,30.861,9.86,30.798,9.996z M20.839,9.776c0,0-0.062,0.02-0.171,0.047c-0.109,0.025-0.267,0.063-0.467,0.109
		c-0.197,0.047-0.435,0.098-0.682,0.196c-0.241,0.096-0.507,0.271-0.587,0.678c0.007,0-0.031-0.09-0.02-0.254
		c0.002-0.163,0.104-0.411,0.323-0.579C19.677,9.632,20.364,9.596,20.839,9.776z M9.591,14.386c0.203-0.147,0.468-0.199,0.717-0.21
		c0.251-0.008,0.493,0.033,0.707,0.104c0,0-0.051,0.026-0.147,0.057c-0.097,0.033-0.239,0.07-0.416,0.103
		c-0.175,0.037-0.388,0.066-0.607,0.131c-0.215,0.06-0.441,0.196-0.546,0.55c0.004,0-0.023-0.079-0.011-0.225
		C9.29,14.753,9.381,14.527,9.591,14.386z M28.815,26.904c0,0,0.1,0.005,0.263,0.016c0.161,0.002,0.383-0.029,0.615-0.111
		c0.476-0.171,0.941-0.596,1.346-0.973c0,0-0.014,0.065-0.058,0.184c-0.042,0.123-0.134,0.287-0.286,0.48
		c-0.115,0.123-0.279,0.255-0.475,0.367c0.013,0.006,0.02,0.01,0.033,0.016c0.093,0.038,0.227,0.069,0.372,0.079
		c0.299,0.005,0.603-0.134,0.906-0.341c0,0-0.005,0.044-0.03,0.124c-0.013,0.041-0.031,0.095-0.06,0.148
		c-0.037,0.051-0.084,0.106-0.144,0.168c-0.062,0.055-0.148,0.1-0.241,0.146c-0.102,0.022-0.214,0.06-0.338,0.038
		c-0.209-0.016-0.434-0.142-0.562-0.345c-0.067,0.035-0.121,0.079-0.199,0.104C29.629,27.126,29.177,27.134,28.815,26.904z
		 M29.862,27.896c-0.008-0.006,0.027,0.19-0.169,0.436c-0.104,0.111-0.271,0.24-0.497,0.263c-0.225,0.024-0.479-0.048-0.676-0.219
		c0,0,0.062,0,0.16,0c0.047,0.005,0.104-0.002,0.168-0.01c0.062-0.001,0.129-0.015,0.197-0.032
		C29.326,28.285,29.576,28.093,29.862,27.896z M29.661,32.405c-0.306,0.204-0.765,0.371-1.298,0.331
		c-0.525-0.035-1.126-0.305-1.5-0.82c0,0,0.03,0.022,0.087,0.062c0.054,0.041,0.134,0.099,0.244,0.157
		c0.214,0.121,0.536,0.252,0.918,0.295c0.382,0.05,0.816-0.006,1.217-0.161c0.338-0.137,0.63-0.361,0.883-0.613
		c-0.091,0.004-0.183,0-0.276-0.019c-0.35-0.057-0.699-0.239-1.02-0.511c0,0,0.096,0.026,0.253,0.074
		c0.16,0.042,0.382,0.103,0.628,0.133c0.25,0.036,0.523,0.033,0.76-0.061c0.23-0.098,0.426-0.296,0.577-0.524
		c0,0,0,0.063-0.019,0.191c-0.033,0.118-0.088,0.317-0.291,0.491c-0.125,0.11-0.313,0.186-0.521,0.212
		C30.241,31.801,30.09,32.101,29.661,32.405z M32.143,34.88c0,0-2.602,0.834-1.815,2.504c0,0-1.18-1.915,1.178-2.7
		c0,0-0.736-1.668,0.638-2.308c0,0-0.589-2.256,0.834-3.039c0,0-0.834-1.474,0.295-2.308c0,0-1.521-1.57-0.491-2.75
		c0,0-0.588-0.624-0.343-1.587c0,0,0.195,1.146,1.029,1.54c0,0-1.521,1.471,0.688,2.6c0,0-1.374,1.178-0.588,2.505
		c0,0-1.815,1.567-0.737,2.845C32.829,32.182,31.259,33.604,32.143,34.88z M35.413,26.634c0.068,0.014,0.149,0.009,0.239,0.01
		c0.089,0.007,0.186-0.006,0.287-0.019c0.421-0.036,0.8-0.318,1.084-0.687c0,0,0.002,0.056-0.015,0.163
		c-0.01,0.11-0.069,0.262-0.2,0.435c-0.143,0.153-0.377,0.33-0.687,0.349c-0.299,0.029-0.643-0.062-0.928-0.274
		C35.195,26.61,35.279,26.618,35.413,26.634z M34.353,35.835c0.238-0.041,0.457-0.136,0.663-0.273
		c-0.006-0.018-0.034,0.28-0.454,0.495c-0.051,0.024-0.117,0.034-0.176,0.051c0.125,0.09,0.312,0.187,0.54,0.23
		c0.231,0.049,0.495,0.038,0.727-0.058c0.229-0.095,0.416-0.285,0.548-0.521c0,0,0.006,0.062-0.005,0.189
		c-0.024,0.118-0.075,0.318-0.276,0.49c-0.192,0.166-0.523,0.282-0.874,0.208c-0.283-0.05-0.576-0.236-0.753-0.513
		c-0.16,0.035-0.333,0.053-0.521,0.032c-0.305-0.031-0.618-0.135-0.985-0.24c0,0,0.09-0.02,0.239-0.031
		c0.151-0.014,0.366-0.016,0.598-0.017C33.859,35.879,34.115,35.876,34.353,35.835z M8.119,16.849
		c0.008-0.052,0.014-0.13,0.043-0.224c0.049-0.188,0.161-0.457,0.403-0.685c0.234-0.233,0.6-0.387,0.965-0.409
		c0.367-0.017,0.726,0.083,0.992,0.252c0,0-0.079,0.003-0.216-0.006c-0.14,0.002-0.339-0.009-0.585,0.017
		c-0.242,0.03-0.533,0.086-0.825,0.247c-0.296,0.155-0.58,0.449-0.787,0.89C8.109,16.93,8.113,16.901,8.119,16.849z M7.787,21.24
		c0.165,0.043,0.397,0.098,0.655,0.113c0.259,0.018,0.537-0.02,0.763-0.159c0.179-0.114,0.317-0.298,0.438-0.493
		c-0.019,0-0.033,0.01-0.051,0.009c-0.281,0.006-0.585-0.077-0.888-0.236c0,0,0.08-0.002,0.213-0.004
		c0.132-0.005,0.316-0.009,0.515-0.028c0.414-0.025,0.807-0.192,1.119-0.515c0,0-0.004,0.052-0.031,0.152
		c-0.017,0.047-0.027,0.116-0.07,0.181c-0.043,0.061-0.097,0.139-0.17,0.21c-0.13,0.103-0.327,0.187-0.546,0.216
		c-0.001,0.023,0,0.04-0.003,0.072c-0.02,0.126-0.054,0.334-0.229,0.542c-0.166,0.214-0.517,0.38-0.888,0.344
		c-0.373-0.021-0.755-0.201-1.091-0.479C7.523,21.164,7.623,21.197,7.787,21.24z M5.762,27.729c0.149,0.057,0.369,0.103,0.615,0.078
		c0.501-0.037,1.05-0.353,1.358-0.809c-0.011-0.016,0.048,0.307-0.317,0.688c-0.179,0.179-0.466,0.352-0.833,0.384
		c-0.355,0.04-0.816-0.097-1.058-0.458C5.531,27.607,5.61,27.673,5.762,27.729z"/>
	<path fill="#729AA0" d="M33.567,29.337c-0.786-1.327,0.588-2.505,0.588-2.505c-2.208-1.129-0.688-2.6-0.688-2.6
		c-0.834-0.394-1.029-1.54-1.029-1.54c-0.245,0.963,0.343,1.587,0.343,1.587c-1.029,1.18,0.491,2.75,0.491,2.75
		c-1.129,0.834-0.295,2.308-0.295,2.308c-1.423,0.783-0.834,3.039-0.834,3.039c-1.374,0.64-0.638,2.308-0.638,2.308
		c-2.357,0.785-1.178,2.7-1.178,2.7c-0.786-1.67,1.815-2.504,1.815-2.504c-0.884-1.275,0.687-2.698,0.687-2.698
		C31.751,30.904,33.567,29.337,33.567,29.337z"/>
	<path fill="#85C2CC" d="M33.026,35.896c-0.149,0.012-0.239,0.031-0.239,0.031c0.367,0.105,0.681,0.209,0.985,0.24
		c0.188,0.021,0.36,0.003,0.521-0.032c-0.04-0.062-0.081-0.124-0.107-0.195c0.004-0.004,0.064,0.072,0.191,0.163
		c0.003,0.002,0.007,0.004,0.01,0.005c0.059-0.017,0.125-0.026,0.176-0.051c0.42-0.215,0.448-0.513,0.454-0.495
		c-0.206,0.138-0.425,0.232-0.663,0.273s-0.494,0.044-0.729,0.044C33.392,35.88,33.177,35.882,33.026,35.896z"/>
	<path fill="#85C2CC" d="M34.185,35.939c0.026,0.071,0.067,0.134,0.107,0.195c0.177,0.276,0.47,0.463,0.753,0.513
		c0.351,0.074,0.682-0.042,0.874-0.208c0.201-0.172,0.252-0.372,0.276-0.49c0.011-0.127,0.005-0.189,0.005-0.189
		c-0.132,0.235-0.318,0.426-0.548,0.521c-0.231,0.096-0.495,0.106-0.727,0.058c-0.228-0.044-0.415-0.141-0.54-0.23
		c-0.003-0.001-0.007-0.003-0.01-0.005C34.249,36.012,34.189,35.936,34.185,35.939z"/>
	<path fill="#85C2CC" d="M32.266,37.767c-0.07,0.06-0.138,0.122-0.215,0.172c-0.255,0.153-0.537,0.26-0.795,0.254
		c-0.258,0.006-0.479-0.09-0.613-0.193c-0.095-0.067-0.145-0.117-0.176-0.149c-0.015-0.015-0.034-0.035-0.035-0.033
		c0.006,0.015,0.018,0.026,0.023,0.04c0.084,0.19,0.22,0.361,0.396,0.467c0.19,0.114,0.412,0.161,0.61,0.144
		c0.4-0.027,0.703-0.228,0.888-0.418c0.114-0.123,0.182-0.235,0.232-0.337c0.116-0.235,0.107-0.399,0.114-0.392
		C32.575,37.487,32.427,37.634,32.266,37.767z"/>
	<path fill="#85C2CC" d="M36.956,31.253c-0.216-0.064-0.334-0.145-0.339-0.139c0.372,0.372,0.901,0.493,1.352,0.444
		c-0.009-0.021-0.023-0.04-0.03-0.062c0,0,0.032,0.024,0.077,0.059c0.04-0.006,0.084-0.004,0.122-0.012
		c0.018-0.003,0.031-0.011,0.048-0.015c0.465-0.104,0.815-0.363,1.026-0.618c0.225-0.27,0.303-0.533,0.341-0.703
		c0.025-0.175,0.025-0.266,0.025-0.266c-0.159,0.349-0.4,0.677-0.712,0.919c-0.181,0.139-0.38,0.242-0.583,0.321
		c-0.149,0.06-0.3,0.11-0.448,0.131C37.488,31.368,37.172,31.321,36.956,31.253z"/>
	<path fill="#85C2CC" d="M38.016,31.555c-0.045-0.034-0.077-0.059-0.077-0.059c0.007,0.022,0.021,0.041,0.03,0.062
		c0.028,0.07,0.063,0.136,0.107,0.194c0.134,0.179,0.325,0.307,0.521,0.351c0.287,0.081,0.545-0.024,0.711-0.121
		c0.162-0.123,0.252-0.244,0.285-0.344c0.041-0.094,0.051-0.143,0.051-0.143c-0.348,0.247-0.76,0.397-1.121,0.305
		c-0.086-0.022-0.172-0.036-0.239-0.08c-0.056-0.027-0.103-0.052-0.145-0.081c-0.011-0.008-0.03-0.013-0.039-0.021
		C38.064,31.591,38.04,31.573,38.016,31.555z"/>
	<path fill="#85C2CC" d="M19.376,36.646c0.027-0.082,0.034-0.158,0.043-0.214c0.016-0.115,0.014-0.176,0.014-0.176
		c-0.271,0.409-0.642,0.773-1.072,0.818c-0.013,0.002-0.024,0.009-0.037,0.01c-0.107,0.01-0.212,0.023-0.307,0.004
		c-0.094-0.009-0.183-0.014-0.252-0.039c-0.145-0.034-0.232-0.056-0.232-0.056c0.278,0.261,0.654,0.39,0.987,0.347
		c0.083-0.015,0.167-0.021,0.237-0.053c0.07-0.034,0.14-0.068,0.201-0.104c0.021-0.014,0.03-0.031,0.049-0.046
		c0.09-0.071,0.17-0.152,0.232-0.222C19.297,36.814,19.342,36.724,19.376,36.646z"/>
	<path fill="#85C2CC" d="M20.964,36.873c0.069-0.102,0.125-0.194,0.17-0.273c0.042-0.082,0.057-0.162,0.076-0.222
		c0.031-0.122,0.039-0.185,0.039-0.185c-0.266,0.325-0.596,0.632-0.957,0.791c-0.107,0.047-0.215,0.085-0.326,0.102
		c-0.235,0.044-0.458,0.035-0.614,0.011c-0.015-0.003-0.021-0.003-0.035-0.006c-0.135-0.022-0.223-0.036-0.223-0.036
		c0.031,0.023,0.066,0.039,0.098,0.06c0.314,0.201,0.685,0.273,1.001,0.212c0.085-0.022,0.175-0.031,0.247-0.071
		c0.038-0.018,0.071-0.036,0.106-0.055c0.036-0.018,0.073-0.036,0.106-0.054C20.782,37.063,20.877,36.958,20.964,36.873z"/>
	<path fill="#85C2CC" d="M24.309,36.002c-0.132-0.008-0.211-0.012-0.211-0.012c0.279,0.2,0.627,0.258,0.911,0.196
		c0.29-0.053,0.491-0.218,0.634-0.35c0.131-0.15,0.21-0.278,0.248-0.376c0.041-0.097,0.055-0.15,0.055-0.15
		c-0.378,0.248-0.758,0.551-1.141,0.638C24.617,35.997,24.438,36.006,24.309,36.002z"/>
	<path fill="#85C2CC" d="M14.61,35.858c0.212-0.016,0.379,0.058,0.5,0.107c0.11,0.061,0.179,0.096,0.179,0.096
		c-0.121-0.269-0.477-0.51-0.853-0.471c-0.371,0.033-0.677,0.249-0.874,0.478c-0.068,0.078-0.112,0.157-0.159,0.236
		c-0.091,0.152-0.16,0.301-0.188,0.419c-0.048,0.18-0.032,0.292-0.038,0.291c0.145-0.347,0.363-0.582,0.577-0.76
		c0.047-0.039,0.094-0.078,0.139-0.111C14.15,35.956,14.401,35.874,14.61,35.858z"/>
	<path fill="#85C2CC" d="M9.837,33.769c0.032,0.018,0.083,0.039,0.142,0.061c0.081-0.037,0.174-0.066,0.241-0.111
		c0.266-0.178,0.398-0.397,0.458-0.542c0.052-0.155,0.06-0.235,0.06-0.235c-0.383,0.584-1.185,0.804-1.834,0.8
		c-0.325,0.004-0.611-0.038-0.811-0.088c-0.102-0.024-0.181-0.049-0.233-0.07c-0.055-0.02-0.084-0.029-0.084-0.029
		c0.411,0.343,0.929,0.464,1.362,0.468c0.297,0.005,0.55-0.066,0.774-0.16c-0.042-0.043-0.095-0.068-0.132-0.118
		C9.78,33.742,9.801,33.751,9.837,33.769z"/>
	<path fill="#85C2CC" d="M10.528,33.974c-0.215-0.028-0.405-0.086-0.537-0.139c-0.005-0.002-0.007-0.004-0.013-0.006
		c-0.06-0.021-0.11-0.043-0.142-0.061c-0.036-0.018-0.057-0.026-0.057-0.026c0.037,0.05,0.09,0.075,0.132,0.118
		c0.214,0.218,0.475,0.37,0.733,0.414c0.312,0.053,0.606-0.025,0.792-0.154c0.377-0.282,0.355-0.572,0.367-0.559
		c-0.181,0.164-0.384,0.294-0.603,0.364C10.981,33.99,10.743,34.004,10.528,33.974z"/>
	<path fill="#85C2CC" d="M7.569,35.634c-0.206-0.025-0.378-0.1-0.489-0.178c-0.114-0.075-0.167-0.147-0.171-0.142
		c0.103,0.359,0.47,0.583,0.78,0.615c0.316,0.047,0.59-0.048,0.775-0.161c0.381-0.248,0.396-0.533,0.402-0.519
		C8.491,35.535,7.986,35.687,7.569,35.634z"/>
	<path fill="#85C2CC" d="M8.719,28.241c0.081-0.087,0.141-0.173,0.193-0.244c0.052-0.07,0.067-0.149,0.09-0.204
		C9.04,27.68,9.05,27.621,9.05,27.621c-0.355,0.366-0.835,0.669-1.295,0.676c-0.225,0.01-0.426-0.033-0.564-0.089
		c-0.14-0.059-0.225-0.096-0.225-0.096c0.234,0.322,0.634,0.473,0.971,0.454C8.282,28.564,8.544,28.387,8.719,28.241z"/>
	<path fill="#85C2CC" d="M6.585,28.07c0.366-0.032,0.653-0.205,0.833-0.384c0.365-0.381,0.306-0.703,0.317-0.688
		c-0.308,0.456-0.856,0.771-1.358,0.809c-0.246,0.024-0.466-0.021-0.615-0.078c-0.152-0.057-0.231-0.122-0.234-0.117
		C5.769,27.974,6.23,28.11,6.585,28.07z"/>
	<path fill="#85C2CC" d="M9.502,21.3c0.176-0.208,0.21-0.416,0.229-0.542c0.002-0.032,0.002-0.049,0.003-0.072
		c-0.031,0.004-0.059,0.015-0.091,0.016c-0.121,0.195-0.259,0.379-0.438,0.493c-0.226,0.14-0.504,0.177-0.763,0.159
		c-0.258-0.016-0.491-0.07-0.655-0.113c-0.164-0.043-0.265-0.076-0.265-0.076c0.336,0.278,0.718,0.459,1.091,0.479
		C8.985,21.68,9.336,21.514,9.502,21.3z"/>
	<path fill="#85C2CC" d="M10.281,20.47c0.073-0.071,0.126-0.149,0.17-0.21c0.043-0.064,0.053-0.134,0.07-0.181
		c0.027-0.101,0.031-0.152,0.031-0.152c-0.312,0.322-0.705,0.489-1.119,0.515c-0.199,0.02-0.383,0.023-0.515,0.028
		c-0.133,0.002-0.213,0.004-0.213,0.004c0.302,0.159,0.606,0.242,0.888,0.236c0.019,0.001,0.033-0.009,0.051-0.009
		c0.032-0.001,0.06-0.012,0.091-0.016C9.954,20.656,10.15,20.572,10.281,20.47z"/>
	<path fill="#85C2CC" d="M8.896,16.041c0.292-0.161,0.583-0.217,0.825-0.247c0.247-0.026,0.446-0.015,0.585-0.017
		c0.138,0.009,0.216,0.006,0.216,0.006c-0.266-0.168-0.625-0.269-0.992-0.252c-0.366,0.022-0.731,0.175-0.965,0.409
		c-0.242,0.229-0.354,0.498-0.403,0.685c-0.029,0.094-0.035,0.172-0.043,0.224c-0.006,0.052-0.01,0.082-0.01,0.082
		C8.317,16.49,8.6,16.195,8.896,16.041z"/>
	<path fill="#85C2CC" d="M9.844,14.571c0.219-0.065,0.432-0.095,0.607-0.131c0.177-0.033,0.319-0.07,0.416-0.103
		c0.097-0.031,0.147-0.057,0.147-0.057c-0.214-0.07-0.455-0.111-0.707-0.104c-0.249,0.011-0.514,0.063-0.717,0.21
		c-0.21,0.141-0.301,0.367-0.304,0.51c-0.012,0.146,0.016,0.225,0.011,0.225C9.403,14.767,9.629,14.63,9.844,14.571z"/>
	<path fill="#85C2CC" d="M5.112,24.941c0.18-0.041,0.345-0.053,0.488-0.062c0.148-0.006,0.266-0.013,0.348-0.016
		c0.084-0.001,0.135-0.007,0.135-0.007c-0.138-0.139-0.344-0.232-0.563-0.258c-0.22-0.022-0.455,0.021-0.628,0.137
		c-0.178,0.111-0.274,0.273-0.31,0.389c-0.002,0.006-0.001,0.009-0.003,0.015c-0.033,0.105-0.03,0.174-0.034,0.172
		c0.028-0.037,0.057-0.064,0.086-0.094C4.791,25.049,4.962,24.979,5.112,24.941z"/>
	<path fill="#85C2CC" d="M18.932,10.806c0.08-0.407,0.347-0.582,0.587-0.678c0.247-0.098,0.485-0.148,0.682-0.196
		c0.2-0.046,0.358-0.084,0.467-0.109c0.109-0.027,0.171-0.047,0.171-0.047c-0.476-0.18-1.162-0.144-1.604,0.197
		c-0.219,0.168-0.32,0.416-0.323,0.579C18.901,10.715,18.939,10.806,18.932,10.806z"/>
	<path fill="#85C2CC" d="M28.303,11.492c-0.229,0.149-0.467,0.276-0.695,0.315c-0.228,0.044-0.437,0.009-0.583-0.043
		c-0.144-0.053-0.226-0.109-0.228-0.105c0.12,0.164,0.289,0.292,0.477,0.356c0.187,0.065,0.388,0.07,0.56,0.033
		c0.35-0.077,0.594-0.268,0.757-0.438c0.163-0.175,0.249-0.34,0.296-0.453c0.033-0.085,0.046-0.131,0.053-0.155
		c-0.007-0.001-0.013-0.002-0.019-0.004C28.725,11.166,28.521,11.343,28.303,11.492z"/>
	<path fill="#85C2CC" d="M29.256,10.797c-0.285,0.031-0.549-0.033-0.73-0.096c-0.094-0.025-0.164-0.061-0.215-0.078
		c-0.051-0.02-0.076-0.03-0.076-0.03c0.198,0.189,0.438,0.326,0.687,0.403c0.006,0.001,0.012,0.002,0.019,0.004
		c0.188,0.056,0.381,0.081,0.564,0.047c0.432-0.068,0.731-0.313,0.923-0.518c0.196-0.21,0.3-0.404,0.371-0.535
		c0.062-0.135,0.088-0.208,0.088-0.208c-0.248,0.211-0.503,0.454-0.776,0.652C29.839,10.636,29.541,10.774,29.256,10.797z"/>
	<path fill="#85C2CC" d="M31.858,14.157c-0.226,0.017-0.43-0.001-0.576-0.022c-0.148-0.02-0.237-0.041-0.237-0.041
		c0.306,0.234,0.669,0.345,0.994,0.333c0.323-0.004,0.604-0.144,0.768-0.31c0.332-0.354,0.252-0.646,0.267-0.633
		c-0.149,0.204-0.325,0.379-0.536,0.49C32.326,14.087,32.082,14.143,31.858,14.157z"/>
	<path fill="#85C2CC" d="M35.27,14.692c-0.275,0.014-0.521-0.027-0.693-0.072c-0.088-0.02-0.155-0.044-0.202-0.061
		c-0.047-0.018-0.073-0.025-0.073-0.025c0.344,0.31,0.793,0.448,1.179,0.429c0.393-0.01,0.716-0.17,0.925-0.344
		c0.103-0.091,0.178-0.18,0.236-0.263c0.18-0.256,0.179-0.449,0.187-0.438c-0.099,0.11-0.207,0.214-0.323,0.308
		c-0.121,0.097-0.251,0.183-0.39,0.251C35.843,14.611,35.543,14.682,35.27,14.692z"/>
	<path fill="#85C2CC" d="M36.369,17.005c-0.115-0.009-0.228-0.008-0.323-0.042c-0.098-0.026-0.191-0.04-0.259-0.079
		c-0.146-0.06-0.232-0.096-0.232-0.096c0.223,0.275,0.539,0.438,0.847,0.481c0.036-0.053,0.079-0.101,0.112-0.155
		c-0.008-0.005-0.003,0.064-0.019,0.168c0.013,0,0.026,0.005,0.039,0.005c0.358,0.025,0.638-0.153,0.821-0.298
		c0.081-0.091,0.146-0.175,0.201-0.248c0.034-0.054,0.049-0.102,0.066-0.149c0.008-0.019,0.021-0.043,0.027-0.06
		c0.041-0.114,0.053-0.175,0.053-0.175c-0.054,0.055-0.114,0.103-0.173,0.154C37.188,16.812,36.777,17.036,36.369,17.005z"/>
	<path fill="#85C2CC" d="M36.514,17.114c-0.033,0.054-0.076,0.103-0.112,0.155c-0.143,0.204-0.305,0.397-0.501,0.54
		c-0.251,0.172-0.546,0.259-0.817,0.236c-0.27-0.014-0.503-0.118-0.657-0.213c-0.081-0.041-0.136-0.09-0.18-0.119
		c-0.041-0.03-0.064-0.046-0.064-0.046c0.235,0.406,0.678,0.677,1.101,0.664c0.421,0.003,0.748-0.222,0.93-0.432
		c0.204-0.263,0.263-0.476,0.283-0.617C36.511,17.178,36.506,17.109,36.514,17.114z"/>
	<path fill="#85C2CC" d="M38.183,20.683l-0.075-0.038l-0.037-0.021l-0.029,0.031l-0.114,0.124c-0.088,0.098-0.147,0.163-0.226,0.236
		c-0.072,0.077-0.148,0.137-0.224,0.199c-0.294,0.244-0.622,0.338-0.858,0.299c-0.123,0.003-0.211-0.051-0.278-0.066
		c-0.064-0.021-0.101-0.031-0.101-0.031c0.245,0.196,0.571,0.291,0.877,0.228c0.309-0.054,0.553-0.226,0.754-0.39
		c0.098-0.081,0.199-0.179,0.264-0.25c-0.002-0.001,0.003,0.001,0.113,0.056c0.057,0.021,0.11,0.032,0.165,0.049
		c0.157,0.046,0.31,0.077,0.45,0.076c0.378,0.008,0.66-0.1,0.818-0.206c0.084-0.046,0.132-0.106,0.167-0.138
		c0.034-0.031,0.051-0.05,0.051-0.05c-0.368,0.175-0.814,0.2-1.229,0.088c-0.037-0.006-0.07-0.023-0.106-0.035
		c-0.064-0.021-0.13-0.042-0.192-0.063L38.183,20.683z"/>
	<path fill="#85C2CC" d="M40.149,21.743c0.052-0.048,0.07-0.078,0.07-0.078c-0.15-0.027-0.271-0.037-0.392-0.083
		c-0.12-0.034-0.234-0.09-0.34-0.145c-0.105-0.058-0.194-0.122-0.257-0.172c-0.063-0.054-0.102-0.089-0.102-0.089
		c0,0.232,0.13,0.427,0.275,0.54c0.146,0.125,0.326,0.154,0.459,0.147C40.003,21.846,40.099,21.8,40.149,21.743z"/>
	<path fill="#85C2CC" d="M28.848,28.366c-0.063,0.008-0.121,0.015-0.168,0.01c-0.098,0-0.16,0-0.16,0
		c0.197,0.171,0.451,0.243,0.676,0.219c0.227-0.022,0.393-0.151,0.497-0.263c0.196-0.245,0.161-0.441,0.169-0.436
		c-0.285,0.196-0.535,0.389-0.816,0.438C28.977,28.352,28.909,28.365,28.848,28.366z"/>
	<path fill="#85C2CC" d="M30.157,26.9c-0.019-0.029-0.042-0.055-0.056-0.088c0,0,0.048,0.022,0.118,0.055
		c0.195-0.112,0.359-0.244,0.475-0.367c0.152-0.193,0.244-0.357,0.286-0.48c0.044-0.118,0.058-0.184,0.058-0.184
		c-0.404,0.377-0.87,0.802-1.346,0.973c-0.232,0.082-0.454,0.113-0.615,0.111c-0.163-0.011-0.263-0.016-0.263-0.016
		c0.362,0.229,0.814,0.222,1.144,0.101C30.036,26.979,30.09,26.936,30.157,26.9z"/>
	<path fill="#85C2CC" d="M30.157,26.9c0.128,0.203,0.353,0.329,0.562,0.345c0.124,0.021,0.236-0.016,0.338-0.038
		c0.093-0.046,0.18-0.091,0.241-0.146c0.06-0.062,0.106-0.117,0.144-0.168c0.028-0.054,0.047-0.107,0.06-0.148
		c0.025-0.08,0.03-0.124,0.03-0.124c-0.304,0.207-0.607,0.346-0.906,0.341c-0.146-0.01-0.279-0.041-0.372-0.079
		c-0.014-0.006-0.021-0.01-0.033-0.016c-0.07-0.032-0.118-0.055-0.118-0.055C30.115,26.846,30.139,26.871,30.157,26.9z"/>
	<path fill="#85C2CC" d="M30.212,31.656c-0.253,0.252-0.545,0.477-0.883,0.613c-0.4,0.155-0.835,0.211-1.217,0.161
		c-0.382-0.043-0.704-0.174-0.918-0.295c-0.11-0.059-0.19-0.116-0.244-0.157c-0.058-0.04-0.087-0.062-0.087-0.062
		c0.374,0.516,0.975,0.785,1.5,0.82c0.533,0.04,0.992-0.127,1.298-0.331c0.429-0.305,0.58-0.604,0.642-0.762
		C30.273,31.647,30.243,31.654,30.212,31.656z"/>
	<path fill="#85C2CC" d="M30.824,31.432c0.203-0.174,0.258-0.373,0.291-0.491c0.019-0.128,0.019-0.191,0.019-0.191
		c-0.151,0.229-0.347,0.427-0.577,0.524c-0.236,0.094-0.51,0.097-0.76,0.061c-0.246-0.03-0.468-0.091-0.628-0.133
		c-0.157-0.048-0.253-0.074-0.253-0.074c0.32,0.271,0.67,0.454,1.02,0.511c0.094,0.019,0.186,0.022,0.276,0.019
		c0.031-0.002,0.061-0.009,0.091-0.013C30.511,31.617,30.699,31.542,30.824,31.432z"/>
	<path fill="#85C2CC" d="M36.809,26.536c0.131-0.173,0.19-0.324,0.2-0.435c0.017-0.107,0.015-0.163,0.015-0.163
		c-0.284,0.368-0.663,0.65-1.084,0.687c-0.102,0.013-0.198,0.025-0.287,0.019c-0.09-0.001-0.171,0.004-0.239-0.01
		c-0.135-0.016-0.219-0.023-0.219-0.023c0.285,0.213,0.629,0.304,0.928,0.274C36.432,26.866,36.666,26.689,36.809,26.536z"/>
	<path fill="#1E2B2D" d="M27.579,28.502c0,0-1.914-2.014,0.394-3.093c0,0-0.688-2.717,1.863-2.355
		c-0.179-1.999,1.912-1.237,2.255-1.1c-0.206-0.092-0.942-0.532-0.438-1.991c0,0-1.89-1.047-1.543-2.382
		c0,0-1.664-0.521-1.549-1.741c0,0-1.8-0.349-1.627-1.51c0,0-2.091,0.29-2.265-0.814c0,0-1.629,1.104-2.295,0
		c0,0-1.595,0.988-2.35,0c0,0-0.929,1.627-2.091,0.465c0,0-0.813,2.266-2.323,1.162c0,0-0.407,1.975-1.975,1.568
		c0,0,0.116,1.858-1.509,1.799c0,0,0.406,2.034-1.335,2.324c0,0,1.044,0.871,0,1.684c0,0,0.987,1.278-0.523,1.917
		c0,0,1.277,1.104,0,1.974c0,0,1.395,0.697,0.697,1.511c0,0,2.033,1.104,1.452,2.381c0,0,0.987,0.291,0.697,1.336
		c0,0,1.393-0.929,2.032,0.58c0,0,1.452-0.523,1.858,0.289c0,0,1.51-0.869,2.382,0.757c0,0,1.264-1.452,2.229,0
		c0,0,1.254-1.511,2.59-0.582c0,0,0.785-2.4,2.295-1.529C26.499,31.15,25.762,28.354,27.579,28.502z M15.654,30.039
		c-1.276,0.131-5.349-2.569-2.601-9.586c0.137-0.349,6.037,2.797,6.674,3.975C20.365,25.605,16.93,29.906,15.654,30.039z
		 M21.788,32.229c-4.22,0.393-4.368-1.472-4.368-1.472c0.589-1.421,3.289-5.79,4.024-6.035c0.736-0.246,4.318-0.49,4.711,0.245
		C26.547,25.703,26.009,31.838,21.788,32.229z M22.068,23.74c-2.117-0.086-6.885-3.052-7.898-4.164
		c-0.145-0.159-0.212-0.28-0.185-0.35c0.25-0.634,0.776-1.198,1.458-1.696c0-0.002,0.001-0.005,0.001-0.007
		c0.083-0.061,0.169-0.118,0.257-0.177c0.081-0.053,0.162-0.105,0.246-0.157c0.028-0.018,0.054-0.036,0.083-0.053
		c0,0.002-0.001,0.004-0.001,0.006c0.439-0.264,0.922-0.504,1.434-0.719c0-0.001,0-0.003,0-0.004c0.148-0.062,0.3-0.12,0.452-0.178
		c0.057-0.021,0.111-0.045,0.168-0.066c0,0,0,0,0.001,0l0,0c0.698-0.257,1.429-0.466,2.15-0.635c0-0.001,0-0.002,0-0.003
		c0.087-0.021,0.174-0.04,0.261-0.059c0.957-0.209,1.879-0.335,2.68-0.378c-0.001-0.001-0.001-0.003-0.002-0.005
		c0.123-0.007,0.236-0.007,0.352-0.01c0.051-0.001,0.104-0.004,0.154-0.004c0.001,0,0.003,0,0.005,0l0,0
		c0.42-0.003,0.794,0.021,1.097,0.074c2.503,0.441,5.152,4.515,5.252,5.3c0.011,0.088-0.016,0.193-0.058,0.304
		c-0.095,0.251-0.306,0.548-0.577,0.854c-0.676,0.761-1.693,1.565-2.066,1.778c-0.074,0.042-0.173,0.08-0.296,0.115
		C26.178,23.749,24.185,23.826,22.068,23.74z"/>
	<path fill="#1E2B2D" d="M32.091,21.954c0.031,0.015,0.052,0.021,0.052,0.021S32.121,21.967,32.091,21.954z"/>
	<path fill="#FF9C0D" d="M18.084,16.294c0.713-0.256,1.463-0.455,2.186-0.595c-0.012-0.053-0.023-0.106-0.035-0.16
		c-0.722,0.168-1.452,0.378-2.15,0.635C18.085,16.215,18.084,16.251,18.084,16.294z"/>
	<path fill="#FF9C0D" d="M17.468,16.536c-0.001-0.036-0.002-0.077-0.004-0.113c-0.512,0.215-0.995,0.455-1.434,0.719
		c-0.009,0.061-0.018,0.123-0.027,0.187C16.43,17.031,16.927,16.766,17.468,16.536z"/>
	<path fill="#FF9C0D" d="M27.391,19.46c0.726,0.483,1.578,0.929,2.585,1.297c0.042-0.11,0.068-0.216,0.058-0.304
		c-0.1-0.785-2.749-4.859-5.252-5.3c-0.303-0.054-0.677-0.077-1.097-0.074c0.07,0.176,0.17,0.401,0.304,0.662
		C25.553,16.478,27.033,18.607,27.391,19.46z"/>
	<path fill="#FF9C0D" d="M27.037,23.505c0.123-0.035,0.222-0.073,0.296-0.115c0.373-0.213,1.39-1.018,2.066-1.778
		c-0.532-0.21-1.34-0.587-2.231-1.215c-0.507,0.665-1.499,1.46-1.834,1.65c-0.242,0.139-0.841,0.229-1.626,0.273
		c0.396,0.552,0.831,1.038,1.301,1.424c-0.281,0.013-0.576,0.021-0.885,0.024c-0.292-0.353-0.657-0.829-1.053-1.424
		c-0.589,0.015-1.241,0.009-1.914-0.019c-0.633-0.025-1.567-0.379-2.526-0.853c0.117,0.454,0.255,0.888,0.425,1.276
		c-0.295-0.143-0.591-0.297-0.887-0.455c-0.088-0.314-0.177-0.709-0.263-1.2c-0.793-0.435-1.558-0.917-2.136-1.337
		c-0.013,0.387-0.008,0.758,0.018,1.1c-0.245-0.166-0.465-0.324-0.671-0.479c0.026-0.304,0.059-0.666,0.1-1.055
		c-0.321-0.273-0.507-0.486-0.471-0.579c0.131-0.333,0.361-0.64,0.654-0.925c0.014-0.098,0.029-0.194,0.044-0.29
		c-0.682,0.498-1.208,1.062-1.458,1.696c-0.027,0.069,0.041,0.19,0.185,0.35c1.013,1.112,5.781,4.078,7.898,4.164
		S26.178,23.749,27.037,23.505z"/>
	<path fill="#FF9C0D" d="M17.916,16.24c0.056-0.021,0.111-0.045,0.168-0.066C18.027,16.195,17.972,16.219,17.916,16.24z"/>
	<path fill="#FF9C0D" d="M23.526,15.083c0.051-0.001,0.104-0.004,0.154-0.004C23.63,15.08,23.576,15.082,23.526,15.083z"/>
	<path fill="#FF9C0D" d="M20.774,15.609c1.022-0.163,1.943-0.2,2.536-0.095c0.006,0.001,0.013,0.004,0.02,0.005
		c-0.055-0.136-0.104-0.28-0.154-0.421c-0.8,0.043-1.723,0.169-2.68,0.378c0.077-0.017,0.152-0.031,0.228-0.047
		C20.739,15.484,20.758,15.55,20.774,15.609z"/>
	<path fill="#FF9C0D" d="M15.701,17.347c0.081-0.053,0.162-0.105,0.246-0.157C15.864,17.241,15.782,17.293,15.701,17.347z"/>
	<path fill="#FFB24D" d="M16.002,17.329c-0.101,0.706-0.204,1.591-0.233,2.429c0.579,0.42,1.343,0.902,2.136,1.337
		c-0.18-1.028-0.341-2.485-0.438-4.559C16.927,16.766,16.43,17.031,16.002,17.329z"/>
	<path fill="#FFB24D" d="M18.084,16.294c0.003,1.302,0.092,3.413,0.546,5.179c0.959,0.474,1.893,0.827,2.526,0.853
		c0.672,0.027,1.325,0.033,1.914,0.019c-0.997-1.496-2.167-3.741-2.8-6.646C19.548,15.84,18.798,16.038,18.084,16.294z"/>
	<path fill="#FFB24D" d="M23.989,15.741c0.506,0.985,1.523,2.469,3.402,3.719C27.033,18.607,25.553,16.478,23.989,15.741z"/>
	<path fill="#FFB24D" d="M14.745,18.746c-0.037,0.093,0.149,0.306,0.471,0.579c0.05-0.485,0.112-1.008,0.184-1.504
		C15.106,18.106,14.876,18.413,14.745,18.746z"/>
	<path fill="#FFB24D" d="M23.329,15.52c-0.006-0.001-0.013-0.004-0.02-0.005c-0.593-0.105-1.514-0.068-2.536,0.095
		c0.422,1.524,1.398,4.573,2.933,6.711c0.785-0.045,1.385-0.135,1.626-0.273c0.336-0.19,1.328-0.985,1.834-1.65
		C25.81,19.439,24.286,17.901,23.329,15.52z"/>
	<path fill="#FFDAAE" d="M27.168,20.396c0.891,0.628,1.699,1.005,2.231,1.215c0.271-0.307,0.482-0.604,0.577-0.854
		c-1.007-0.368-1.859-0.813-2.585-1.297c-1.879-1.25-2.896-2.734-3.402-3.719c-0.134-0.261-0.234-0.486-0.304-0.662l0,0
		c-0.001,0-0.003,0-0.005,0c-0.049,0-0.103,0.003-0.154,0.004c-0.116,0.003-0.229,0.003-0.352,0.01c0,0.001,0.001,0.003,0.002,0.005
		c0.05,0.141,0.099,0.285,0.154,0.421C24.286,17.901,25.81,19.439,27.168,20.396z"/>
	<path fill="#FFDAAE" d="M23.07,22.345c0.396,0.595,0.761,1.071,1.053,1.424c0.31-0.004,0.604-0.012,0.885-0.024
		c-0.471-0.386-0.905-0.872-1.301-1.424c-1.535-2.139-2.51-5.187-2.933-6.711c-0.017-0.059-0.036-0.125-0.05-0.179
		c-0.076,0.016-0.151,0.03-0.228,0.047c-0.087,0.019-0.174,0.039-0.261,0.059c0,0.001,0,0.002,0,0.003
		c0.011,0.054,0.023,0.107,0.035,0.16C20.903,18.604,22.073,20.849,23.07,22.345z"/>
	<path fill="#FFDAAE" d="M17.906,21.095c0.085,0.491,0.174,0.886,0.263,1.2c0.296,0.158,0.592,0.312,0.887,0.455
		c-0.17-0.389-0.309-0.822-0.425-1.276c-0.454-1.767-0.542-3.877-0.546-5.179c0-0.043,0-0.079,0-0.121l0,0c0,0,0,0-0.001,0
		c-0.057,0.021-0.112,0.044-0.168,0.066c-0.152,0.058-0.304,0.116-0.452,0.178c0,0.001,0,0.003,0,0.004
		c0.002,0.036,0.003,0.077,0.004,0.113C17.565,18.609,17.726,20.066,17.906,21.095z"/>
	<path fill="#FFDAAE" d="M15.216,19.324c-0.041,0.389-0.074,0.751-0.1,1.055c0.206,0.154,0.426,0.312,0.671,0.479
		c-0.026-0.342-0.031-0.713-0.018-1.1c0.029-0.837,0.132-1.723,0.233-2.429c0.009-0.064,0.018-0.126,0.027-0.187
		c0-0.002,0-0.004,0.001-0.006c-0.029,0.017-0.055,0.036-0.083,0.053c-0.084,0.052-0.166,0.104-0.246,0.157
		c-0.087,0.059-0.174,0.116-0.257,0.177c0,0.002-0.001,0.005-0.001,0.007c-0.015,0.096-0.03,0.191-0.044,0.29
		C15.327,18.316,15.266,18.839,15.216,19.324z"/>
	<path fill="#E2C342" d="M19.727,24.428c-0.637-1.178-6.537-4.323-6.674-3.975c-2.748,7.017,1.325,9.717,2.601,9.586
		C16.93,29.906,20.365,25.605,19.727,24.428z M16.322,28.588c-0.966,0.101-4.049-1.943-1.969-7.256
		c0.103-0.264,4.569,2.117,5.052,3.01C19.888,25.233,17.287,28.488,16.322,28.588z"/>
	<path fill="#F9DF6E" d="M14.353,21.332c-2.081,5.312,1.003,7.356,1.969,7.256c0.966-0.1,3.567-3.354,3.083-4.246
		C18.922,23.449,14.456,21.068,14.353,21.332z"/>
	<path fill="#AD895E" d="M21.445,24.723c-0.736,0.245-3.435,4.614-4.024,6.035c0,0,0.147,1.864,4.368,1.472
		c4.221-0.392,4.759-6.526,4.368-7.262C25.762,24.232,22.181,24.477,21.445,24.723z M21.799,31.384
		c-3.292,0.306-3.405-1.149-3.405-1.149c0.458-1.108,2.563-4.517,3.138-4.707c0.574-0.193,3.369-0.383,3.675,0.19
		C25.513,26.292,25.092,31.077,21.799,31.384z"/>
	<path fill="#FCDBAC" d="M21.531,25.527c-0.574,0.19-2.679,3.599-3.138,4.707c0,0,0.114,1.455,3.405,1.149
		c3.293-0.307,3.714-5.092,3.408-5.666C24.9,25.145,22.105,25.334,21.531,25.527z M21.016,30.451
		c-0.158-0.021-0.363-0.062-0.571-0.188c-0.204-0.126-0.433-0.321-0.55-0.642c-0.118-0.333-0.03-0.722,0.131-1.062
		c0.084-0.17,0.182-0.344,0.292-0.509c0.12-0.162,0.249-0.343,0.406-0.495c0.157-0.155,0.324-0.305,0.506-0.444
		c0.182-0.143,0.357-0.281,0.559-0.429c0.197-0.144,0.443-0.283,0.717-0.274c0.271,0.013,0.505,0.158,0.712,0.32
		c0,0-0.057-0.029-0.159-0.081c-0.104-0.051-0.263-0.118-0.462-0.127c-0.416-0.042-0.821,0.459-1.335,0.906
		c-0.13,0.111-0.24,0.243-0.365,0.366c-0.112,0.135-0.216,0.274-0.321,0.423c-0.198,0.312-0.391,0.644-0.443,0.986
		c-0.072,0.336,0.125,0.657,0.391,0.885c0.276,0.217,0.628,0.339,0.971,0.315C21.492,30.391,21.34,30.476,21.016,30.451z
		 M23.155,28.974c-0.12,0.189-0.265,0.379-0.462,0.52c-0.1,0.065-0.214,0.12-0.334,0.131c-0.121,0.012-0.24-0.024-0.339-0.086
		c0.001-0.005,0.053,0.024,0.152,0.037c0.098,0.013,0.247-0.005,0.389-0.118c0.144-0.109,0.278-0.294,0.395-0.52
		c0.058-0.112,0.112-0.236,0.159-0.367c0.044-0.121,0.087-0.285,0.044-0.329c-0.058-0.097-0.533-0.109-0.796-0.087
		c-0.279,0.029-0.491,0.295-0.77,0.543c-0.071,0.061-0.144,0.122-0.228,0.174c-0.041,0.027-0.083,0.052-0.13,0.071
		c-0.042,0.021-0.105,0.049-0.098,0.041c-0.007,0.001-0.022,0.001-0.026,0.007c0,0.006-0.002,0.014,0.001,0.021
		c0.002,0.005,0,0.006,0.008,0.017l0.035,0.04c0.02,0.03,0.051,0.054,0.078,0.079c0.11,0.094,0.266,0.175,0.375,0.146
		c0.108-0.022,0.161-0.251,0.335-0.318c0.003,0.003-0.04,0.022-0.082,0.088c-0.051,0.062-0.056,0.172-0.158,0.294
		c-0.132,0.114-0.365,0.079-0.554-0.035c-0.046-0.034-0.1-0.061-0.145-0.107c-0.022-0.025-0.046-0.039-0.07-0.077
		c-0.022-0.039-0.044-0.082-0.068-0.122c-0.02-0.045-0.027-0.095-0.043-0.144c-0.02-0.032,0.017-0.033,0.037-0.044l0.068-0.028
		c0.042-0.02,0.107-0.044,0.133-0.06l0.077-0.043c0.208-0.123,0.381-0.356,0.646-0.592c0.132-0.116,0.323-0.228,0.536-0.254
		c0.211-0.027,0.392,0.001,0.591,0.02c0.103,0.014,0.215,0.025,0.335,0.097c0.031,0.021,0.063,0.038,0.089,0.064
		c0.025,0.033,0.048,0.068,0.067,0.104c0.023,0.069,0.038,0.156,0.021,0.212C23.379,28.598,23.27,28.776,23.155,28.974z"/>
	<path fill="#AD895E" d="M20.131,29.202c0.053-0.343,0.246-0.674,0.443-0.986c0.105-0.148,0.209-0.288,0.321-0.423
		c0.125-0.123,0.235-0.255,0.365-0.366c0.514-0.447,0.92-0.948,1.335-0.906c0.199,0.009,0.357,0.076,0.462,0.127
		c0.102,0.052,0.159,0.081,0.159,0.081c-0.207-0.162-0.44-0.308-0.712-0.32c-0.274-0.009-0.52,0.131-0.717,0.274
		c-0.201,0.147-0.376,0.286-0.559,0.429c-0.182,0.14-0.349,0.289-0.506,0.444c-0.157,0.152-0.286,0.333-0.406,0.495
		c-0.11,0.165-0.208,0.339-0.292,0.509c-0.161,0.34-0.249,0.729-0.131,1.062c0.118,0.32,0.347,0.516,0.55,0.642
		c0.208,0.127,0.413,0.168,0.571,0.188c0.323,0.024,0.476-0.061,0.476-0.049c-0.342,0.023-0.694-0.099-0.971-0.315
		C20.255,29.859,20.058,29.538,20.131,29.202z"/>
	<path fill="#AD895E" d="M23.336,28.032c-0.025-0.026-0.058-0.044-0.089-0.064c-0.12-0.071-0.232-0.083-0.335-0.097
		c-0.199-0.019-0.379-0.047-0.591-0.02c-0.212,0.026-0.403,0.138-0.536,0.254c-0.266,0.235-0.438,0.469-0.646,0.592l-0.077,0.043
		c-0.026,0.016-0.091,0.04-0.133,0.06l-0.068,0.028c-0.02,0.011-0.056,0.012-0.037,0.044c0.016,0.049,0.023,0.099,0.043,0.144
		c0.024,0.04,0.046,0.083,0.068,0.122c0.024,0.038,0.048,0.052,0.07,0.077c0.044,0.047,0.099,0.073,0.145,0.107
		c0.189,0.114,0.421,0.149,0.554,0.035c0.102-0.122,0.107-0.232,0.158-0.294c0.042-0.065,0.085-0.085,0.082-0.088
		c-0.174,0.067-0.227,0.296-0.335,0.318c-0.109,0.028-0.265-0.053-0.375-0.146c-0.027-0.025-0.058-0.049-0.078-0.079l-0.035-0.04
		c-0.008-0.011-0.006-0.012-0.008-0.017c-0.003-0.008-0.001-0.016-0.001-0.021c0.003-0.006,0.019-0.006,0.026-0.007
		c-0.008,0.008,0.055-0.021,0.098-0.041c0.046-0.02,0.089-0.044,0.13-0.071c0.083-0.052,0.156-0.113,0.228-0.174
		c0.279-0.248,0.491-0.514,0.77-0.543c0.263-0.022,0.738-0.01,0.796,0.087c0.043,0.044,0,0.208-0.044,0.329
		c-0.046,0.131-0.101,0.255-0.159,0.367c-0.117,0.226-0.25,0.41-0.395,0.52c-0.142,0.113-0.292,0.131-0.389,0.118
		c-0.1-0.013-0.151-0.042-0.152-0.037c0.099,0.062,0.218,0.098,0.339,0.086c0.121-0.011,0.235-0.065,0.334-0.131
		c0.197-0.141,0.342-0.33,0.462-0.52c0.115-0.197,0.224-0.376,0.271-0.625c0.017-0.056,0.001-0.143-0.021-0.212
		C23.385,28.101,23.362,28.065,23.336,28.032z"/>
</g>
</svg>
