<?xml version="1.0" encoding="utf-8"?>
<!-- Generator: Adobe Illustrator 16.0.0, SVG Export Plug-In . SVG Version: 6.00 Build 0)  -->
<!DOCTYPE svg PUBLIC "-//W3C//DTD SVG 1.1//EN" "http://www.w3.org/Graphics/SVG/1.1/DTD/svg11.dtd">
<svg version="1.1" id="Layer_1" xmlns="http://www.w3.org/2000/svg" xmlns:xlink="http://www.w3.org/1999/xlink" x="0px" y="0px"
	 width="55.145px" height="40.379px" viewBox="0 0 55.145 40.379" enable-background="new 0 0 55.145 40.379" xml:space="preserve">
<g>
	<path fill="none" d="M-3.856,45.025h61.441V-6.292H-3.856V45.025z M52.656,14.789c2.709,6.704,2.632,14.6,1.652,16.546l0,0
		c-0.021,0.041-0.041,0.083-0.062,0.12c-0.123,0.204-0.268,0.404-0.429,0.6l0,0c-0.304,0.366-0.669,0.705-1.072,1
		c-0.091,0.711-0.612,1.619-1.136,1.553c-0.018,0.22-0.053,0.494-0.13,0.781l0,0c0.333,0.662-0.723,1.865-1.516,2.035
		c-0.234,0.383-0.621,0.879-1.132,1.114c-0.587,0.688-1.844,1.041-2.124,0.315v-0.002c-0.408,0.223-0.98,0.364-1.604,0.002
		c-0.236,0.097-0.482,0.143-0.707,0.109c-0.734,0.444-2.183,1.139-2.738,0.113c0,0-2.559,1.701-3.804,0.531
		c0,0-1.147,0.371-2.09,0.164c-0.572,0.213-1.35,0.287-2.336-0.09c0,0-1.659,1.364-2.768,0.269c0,0-2.074,1.185-3.525-0.544
		c0,0-2.145,1.521-3.734-0.346c0,0-2.146,1.174-3.111-0.348c0,0-2.144,1.385-3.389-0.689c0,0-2.282,1.451-3.181-0.348
		c0,0-2.629,1.385-3.458-0.553c0,0-2.353,1.383-2.835-0.553c0,0-2.899,1.137-3.176-1.076c0,0-0.974,0.938-2.08-0.237
		c-1.106-1.177-0.761-2.282-0.483-2.905c0,0-1.731-1.521-0.278-3.389c0,0-2.35-2.42,0.416-3.872c0,0-2.074-2.006,0.208-3.458
		c0,0-1.278-2.352,0.501-3.043c0,0-0.571-2.42,1.436-2.835c0,0-0.762-2.628,1.797-3.319c0,0-0.969-2.005,1.453-2.628
		c0,0-0.042-1.385,1.127-2C9,6.856,10.066,5.639,11.716,4.621c0.022-0.015,0.048-0.028,0.069-0.042
		c0.074-0.045,0.149-0.09,0.229-0.136c0.043-0.024,0.089-0.05,0.133-0.076c0.063-0.035,0.128-0.071,0.194-0.108
		c0.051-0.027,0.104-0.056,0.156-0.084c0.064-0.036,0.131-0.069,0.197-0.105c0.057-0.028,0.114-0.059,0.173-0.088
		c0.068-0.035,0.138-0.07,0.209-0.105c0.062-0.03,0.121-0.059,0.183-0.089c0.074-0.036,0.15-0.072,0.229-0.109
		c0.062-0.028,0.123-0.058,0.187-0.088c0.083-0.037,0.168-0.076,0.255-0.113c0.062-0.027,0.121-0.056,0.186-0.084
		c0.104-0.046,0.213-0.091,0.321-0.138c0.047-0.021,0.092-0.04,0.141-0.061c0.119-0.05,0.241-0.099,0.364-0.148
		c0.036-0.016,0.07-0.03,0.106-0.044c0.063-0.025,0.129-0.052,0.194-0.076c0.104-0.041,0.204-0.081,0.312-0.121
		c0.074-0.029,0.152-0.058,0.229-0.087c0.003-0.001,0.005-0.002,0.008-0.003c0.094-0.035,0.189-0.07,0.285-0.105
		c0.084-0.03,0.168-0.06,0.252-0.09c0.098-0.034,0.196-0.069,0.296-0.104c0.087-0.03,0.174-0.06,0.263-0.09
		c0.103-0.034,0.203-0.067,0.307-0.101c0.089-0.03,0.178-0.06,0.269-0.088c0.108-0.035,0.219-0.068,0.327-0.103
		c0.089-0.027,0.176-0.055,0.266-0.081c0.068-0.021,0.141-0.043,0.21-0.063c0.003,0,0.006-0.001,0.008-0.001
		c1.342-0.397,2.81-0.754,4.366-1.033l0,0c0.002,0,0.003-0.001,0.004-0.001c0.104-0.019,0.205-0.037,0.309-0.055
		c0.15-0.025,0.302-0.05,0.452-0.074c0.088-0.014,0.175-0.028,0.263-0.042c0.236-0.036,0.476-0.07,0.714-0.104
		c0.063-0.008,0.128-0.016,0.19-0.022c0.183-0.024,0.363-0.048,0.548-0.068c0.094-0.011,0.19-0.021,0.286-0.03
		c0.154-0.017,0.308-0.033,0.463-0.049c0.104-0.01,0.207-0.018,0.312-0.026c0.149-0.014,0.301-0.026,0.451-0.038
		c0.105-0.007,0.211-0.015,0.316-0.022c0.152-0.01,0.306-0.019,0.46-0.027c0.104-0.005,0.208-0.011,0.312-0.016
		c0.161-0.007,0.323-0.012,0.485-0.018c0.097-0.003,0.193-0.007,0.291-0.01c0.187-0.004,0.372-0.006,0.56-0.007
		c0.073-0.001,0.146-0.003,0.223-0.004c0.019,0,0.038,0,0.057,0c0.155,0,0.312,0.004,0.468,0.006c0.102,0.001,0.2,0.001,0.302,0.004
		c0.189,0.004,0.382,0.012,0.571,0.019c0.641,0.025,1.283,0.067,1.931,0.132C41.661,1.304,49.89,7.943,52.656,14.789z"/>
	<path fill="#BFE3E8" d="M42.56,19.629c0,0,0.042,0.044,0.103,0.116c-0.009-0.074-0.019-0.148-0.026-0.222
		C42.609,19.559,42.587,19.594,42.56,19.629z"/>
	<path fill="#BFE3E8" d="M51.003,33.922c-0.15,0.042-0.302,0.074-0.454,0.102c-0.177,0.692-0.671,1.34-1.178,1.218
		c-0.408-0.099-0.469-0.687-0.34-1.286c-0.083-0.023-0.166-0.048-0.248-0.079c-0.021-0.008-0.043-0.022-0.064-0.03
		c-0.369,0.834-2.008,1.795-2.354,1.551c-0.588-0.407-0.029-2.09,0.967-2.494c-0.142-0.127-0.282-0.262-0.424-0.402
		c-0.366,0.689-1.009,1.359-1.441,1.343c-0.65-0.026-0.341-1.745,0.435-2.478c-0.204-0.252-0.4-0.51-0.589-0.768
		c0.031,1.021-0.264,2.073-0.951,2c-1.109-0.119-0.832-3.033-0.155-3.695c-0.226-0.392-0.41-0.748-0.537-1.043
		c-0.188-0.439-0.328-1.479-0.465-2.819c-0.134,0.349-0.376,0.717-0.779,1.092c0,0,1.244,2.56-0.482,3.872
		c0,0,1.382,1.938-0.416,3.319c0,0,1.521,2.144-0.83,3.526c0,0-0.415,2.903-3.734,2.074c0,0-0.397,0.559-1.189,0.852
		c0.941,0.207,2.09-0.164,2.09-0.164c1.245,1.17,3.804-0.532,3.804-0.532c0.558,1.024,2.004,0.331,2.738-0.113
		c-0.155-0.021-0.301-0.075-0.426-0.179c-0.476-0.389,1.007-2.312,1.975-1.624c0.647,0.461-0.038,1.368-0.842,1.692
		c0.622,0.362,1.195,0.221,1.604-0.002c-0.408-1.07,2.009-2.08,2.33-1.451c0.205,0.402,0.074,0.809-0.206,1.138
		c0.512-0.235,0.896-0.731,1.133-1.114c-0.276,0.061-0.521-0.005-0.664-0.263c-0.554-1.001,1.783-2.556,2.179-1.772
		c0.077-0.287,0.113-0.562,0.13-0.781c-0.023-0.002-0.045,0-0.066-0.006C51.163,34.491,51.012,34.23,51.003,33.922z M41.212,37.014
		c-0.035-0.871,1.75-1.437,2.127-0.812C43.912,37.145,41.245,37.886,41.212,37.014z M41.626,38.977
		c-0.646-0.506,1.229-2.278,1.984-1.814C44.367,37.626,42.49,39.654,41.626,38.977z M42.768,35.258
		c-0.562-0.611,1.104-2.998,2.111-1.867C45.533,34.123,43.339,35.88,42.768,35.258z M44.323,36.917
		c-0.972-0.09,0.312-2.642,1.072-2.522C46.156,34.51,45.81,37.057,44.323,36.917z M46.328,36.923
		c-0.362-0.583,2.345-2.245,2.711-1.489C49.405,36.191,46.847,37.758,46.328,36.923z"/>
	<path fill="#BFE3E8" d="M41.038,13.751c0,0,0.192,0.09,0.424,0.271c-0.115-0.293-0.24-0.557-0.375-0.79
		C41.081,13.395,41.069,13.567,41.038,13.751z"/>
	<path fill="#BFE3E8" d="M41.938,16.518c0,0,0.098,0.028,0.237,0.092c-0.027-0.14-0.058-0.277-0.087-0.413
		C42.049,16.301,41.999,16.406,41.938,16.518z"/>
	<path fill="#BFE3E8" d="M42.938,22.309c-0.086,0.121-0.185,0.242-0.311,0.363c0,0,0.205,0.197,0.396,0.529
		C42.996,22.909,42.968,22.611,42.938,22.309z"/>
	<path fill="#BFE3E8" d="M27.692,3.171c0,0,0.025-0.003,0.063-0.008c-0.025-0.006-0.054-0.009-0.08-0.014
		C27.683,3.157,27.688,3.163,27.692,3.171z"/>
	<path fill="#BFE3E8" d="M37.028,8.565c0,0,0.331-0.054,0.739,0.004c-0.274-0.312-0.563-0.618-0.87-0.918
		C36.998,7.9,37.052,8.198,37.028,8.565z"/>
	<path fill="#BFE3E8" d="M34.884,6.49c0,0,0.425,0.001,0.896,0.167c-0.382-0.31-0.785-0.609-1.218-0.895
		C34.688,5.972,34.8,6.208,34.884,6.49z"/>
	<path fill="#BFE3E8" d="M31.074,4.027c0.126,0.169,0.225,0.364,0.282,0.597c0,0,0.428-0.104,0.992-0.079
		c-0.367-0.166-0.746-0.327-1.146-0.474C31.16,4.054,31.116,4.043,31.074,4.027z"/>
	<path fill="#BFE3E8" d="M39.31,10.778c0,0,0.093,0.022,0.231,0.076c-0.075-0.108-0.149-0.217-0.228-0.326
		C39.313,10.612,39.316,10.689,39.31,10.778z"/>
	<path fill="#846538" d="M46.363,35.396c0.348,0.242,1.985-0.719,2.354-1.552c-0.445-0.188-0.916-0.521-1.389-0.944
		C46.334,33.305,45.775,34.988,46.363,35.396z"/>
	<path fill="#846538" d="M45.396,34.395c-0.762-0.117-2.044,2.434-1.072,2.522C45.81,37.057,46.156,34.51,45.396,34.395z"/>
	<path fill="#1D1D1B" d="M45.465,33.841c0.434,0.017,1.075-0.653,1.441-1.343c-0.346-0.348-0.684-0.732-1.008-1.135
		C45.124,32.096,44.813,33.814,45.465,33.841z"/>
	<path fill="#846538" d="M44.358,32.596c0.688,0.074,0.982-0.979,0.951-2c-0.426-0.585-0.806-1.171-1.106-1.693
		C43.526,29.564,43.249,32.477,44.358,32.596z"/>
	<path fill="#1D1D1B" d="M44.88,33.391c-1.008-1.131-2.675,1.256-2.111,1.867C43.339,35.88,45.533,34.123,44.88,33.391z"/>
	<path fill="#1D1D1B" d="M46.328,36.923c0.52,0.835,3.077-0.731,2.711-1.489C48.673,34.678,45.966,36.34,46.328,36.923z"/>
	<path fill="#846538" d="M45.948,37.161c-0.968-0.688-2.449,1.235-1.975,1.624c0.125,0.104,0.271,0.156,0.426,0.179
		c0.225,0.032,0.471-0.014,0.707-0.108C45.91,38.53,46.596,37.622,45.948,37.161z"/>
	<path fill="#1D1D1B" d="M43.61,37.161c-0.757-0.464-2.632,1.31-1.984,1.815C42.49,39.654,44.367,37.626,43.61,37.161z"/>
	<path fill="#846538" d="M49.04,37.402c-0.322-0.629-2.739,0.38-2.33,1.451v0.002c0.28,0.725,1.537,0.371,2.124-0.316
		C49.114,38.209,49.245,37.805,49.04,37.402z"/>
	<path fill="#1D1D1B" d="M49.371,35.24c0.507,0.121,1.001-0.524,1.178-1.219c-0.515,0.088-1.028,0.074-1.518-0.067
		C48.902,34.555,48.963,35.143,49.371,35.24z"/>
	<path fill="#1D1D1B" d="M49.302,37.161c0.145,0.258,0.389,0.321,0.664,0.263c0.793-0.17,1.849-1.373,1.516-2.035l0,0
		C51.086,34.607,48.749,36.16,49.302,37.161z"/>
	<path fill="#846538" d="M43.339,36.2c-0.377-0.623-2.162-0.058-2.127,0.813C41.245,37.886,43.912,37.145,43.339,36.2z"/>
	<path fill="#846538" d="M51.003,33.922c0.01,0.309,0.16,0.569,0.541,0.68c0.021,0.006,0.043,0.004,0.066,0.006
		c0.522,0.066,1.045-0.842,1.136-1.553C52.215,33.443,51.617,33.748,51.003,33.922z"/>
	<path fill="#FF9C0D" d="M32.602,0.406c-0.646-0.064-1.29-0.106-1.931-0.132c0.066,0.004,0.134,0.005,0.2,0.008
		c-0.063,0.003-0.723,0.04-1.657,0.114c3.289,0.115,7.861,1.083,11.351,2.835c0.599,0.101,1.178,0.227,1.717,0.363
		c0.971,0.558,1.901,1.172,2.783,1.83c-0.883-0.495-1.771-0.86-2.639-1.125c4.414,2.812,7.605,6.909,8.707,10.282
		c0.263,0.798,0.22,1.455-0.02,1.972c0.918,1.373,2.259,3.062,3.246,4.225c0.137,0.746,0.246,1.482,0.332,2.199
		c-0.969-0.869-2.354-2.653-4.305-5.569c-1.341,0.947-3.751,0.681-4.603-0.834c-0.608-1.082-1.527-2.717-2.615-4.473
		c-0.362-0.04-0.604-0.048-0.681-0.077c-0.093-0.037-0.259-0.004-0.452,0.063c1.646,2.865,2.567,6.02,2.526,9.271
		c-0.002,0.158-0.004,0.312-0.008,0.465l0,0c2.204,0.949,4.779,4.93,6.576,7.143c1.067,1.312,2.325,2.014,3.176,2.37
		c0.979-1.946,1.057-9.842-1.652-16.546C49.89,7.943,41.661,1.304,32.602,0.406z"/>
	<path fill="#FF9C0D" d="M15.554,2.807c0.074-0.029,0.152-0.058,0.229-0.087C15.707,2.749,15.629,2.778,15.554,2.807z"/>
	<path fill="#FF9C0D" d="M17.193,2.228c0.089-0.03,0.178-0.06,0.269-0.088C17.371,2.168,17.282,2.198,17.193,2.228z"/>
	<path fill="#FF9C0D" d="M16.077,2.612c0.084-0.03,0.168-0.06,0.252-0.09C16.245,2.552,16.161,2.581,16.077,2.612z"/>
	<path fill="#FF9C0D" d="M15.049,3.004c0.063-0.025,0.13-0.052,0.194-0.076C15.178,2.952,15.112,2.979,15.049,3.004z"/>
	<path fill="#FF9C0D" d="M16.625,2.418c0.087-0.03,0.174-0.06,0.263-0.09C16.799,2.359,16.712,2.388,16.625,2.418z"/>
	<path fill="#FF9C0D" d="M14.437,3.257c0.047-0.021,0.092-0.04,0.141-0.061C14.528,3.217,14.483,3.237,14.437,3.257z"/>
	<path fill="#FF9C0D" d="M13.078,3.878c0.062-0.03,0.121-0.059,0.184-0.089C13.199,3.82,13.139,3.848,13.078,3.878z"/>
	<path fill="#FF9C0D" d="M12.696,4.072c0.057-0.028,0.114-0.059,0.173-0.088C12.811,4.013,12.753,4.043,12.696,4.072z"/>
	<path fill="#FF9C0D" d="M13.93,3.479c0.062-0.027,0.121-0.056,0.186-0.084C14.052,3.423,13.991,3.451,13.93,3.479z"/>
	<path fill="#FF9C0D" d="M13.489,3.68c0.062-0.028,0.123-0.058,0.187-0.088C13.612,3.622,13.551,3.652,13.489,3.68z"/>
	<path fill="#FF9C0D" d="M22.642,0.858c0.104-0.019,0.205-0.037,0.309-0.055C22.847,0.821,22.745,0.839,22.642,0.858z"/>
	<path fill="#FF9C0D" d="M26.629,0.349c0.105-0.007,0.211-0.015,0.316-0.022C26.84,0.334,26.734,0.342,26.629,0.349z"/>
	<path fill="#FF9C0D" d="M28.202,0.266c0.097-0.003,0.193-0.007,0.291-0.01C28.396,0.259,28.299,0.263,28.202,0.266z"/>
	<path fill="#FF9C0D" d="M17.789,2.037c0.089-0.027,0.176-0.055,0.266-0.081C17.965,1.983,17.878,2.01,17.789,2.037z"/>
	<path fill="#FF9C0D" d="M29.799,0.251c0.102,0.001,0.2,0.001,0.302,0.004C29.999,0.252,29.899,0.252,29.799,0.251z"/>
	<path fill="#FF9C0D" d="M29.052,0.249c0.074-0.001,0.147-0.003,0.224-0.004C29.199,0.246,29.126,0.248,29.052,0.249z"/>
	<path fill="#FF9C0D" d="M27.405,0.299c0.104-0.005,0.208-0.011,0.312-0.016C27.613,0.288,27.509,0.294,27.405,0.299z"/>
	<path fill="#FF9C0D" d="M23.402,0.729c0.088-0.014,0.175-0.028,0.263-0.042C23.577,0.7,23.49,0.715,23.402,0.729z"/>
	<path fill="#FF9C0D" d="M25.866,0.413c0.104-0.01,0.207-0.018,0.311-0.026C26.073,0.396,25.97,0.404,25.866,0.413z"/>
	<path fill="#FF9C0D" d="M12.343,4.261c0.051-0.027,0.104-0.056,0.156-0.084C12.446,4.205,12.393,4.234,12.343,4.261z"/>
	<path fill="#FF9C0D" d="M24.379,0.583c0.063-0.008,0.128-0.016,0.19-0.022C24.507,0.568,24.442,0.575,24.379,0.583z"/>
	<path fill="#FF9C0D" d="M25.117,0.492c0.094-0.011,0.19-0.021,0.286-0.03C25.308,0.472,25.211,0.482,25.117,0.492z"/>
	<path fill="#FF9C0D" d="M11.718,4.623c0.022-0.015,0.048-0.028,0.069-0.042C11.765,4.595,11.74,4.609,11.718,4.623
		C10.068,5.641,9.002,6.858,8.35,7.81l0,0C9.002,6.858,10.068,5.641,11.718,4.623z"/>
	<path fill="#FF9C0D" d="M12.015,4.446c0.043-0.024,0.089-0.05,0.133-0.076C12.104,4.396,12.058,4.421,12.015,4.446z"/>
	<path fill="#FF9C0D" d="M34.042,4.039L34.042,4.039c0.369-0.294,0.805-0.514,1.282-0.676C31.578,1.852,24.695,1.183,25.8,0.75
		c-1.172,0.16-2.28,0.362-2.985,0.614c0,0-0.003,0.003-0.005,0.004C26.659,1.393,30.621,2.177,34.042,4.039z"/>
	<path fill="#FF9C0D" d="M31.073,4.027C31.074,4.027,31.074,4.027,31.073,4.027c0.043,0.017,0.087,0.027,0.13,0.044
		c0.399,0.146,0.778,0.308,1.146,0.474c0.001,0,0.001,0,0.002,0c-0.369-0.166-0.748-0.327-1.147-0.474
		C31.159,4.054,31.116,4.043,31.073,4.027z"/>
	<path fill="#FF9C0D" d="M27.677,3.15c0.026,0.005,0.055,0.008,0.08,0.014l0,0C27.73,3.157,27.704,3.155,27.677,3.15L27.677,3.15z"
		/>
	<path fill="#FF9C0D" d="M49.613,28.135c-0.761-1.867-4.148-4.771-5.087-5.326l0,0c-0.146,3.621-0.558,5.566,0.604,7.536
		c-0.658-0.936-1.189-1.854-1.464-2.485c-0.188-0.44-0.327-1.479-0.465-2.82l0,0c0.137,1.341,0.275,2.38,0.465,2.82
		c0.127,0.293,0.312,0.65,0.537,1.043c0.302,0.522,0.682,1.108,1.106,1.693c0.188,0.258,0.385,0.516,0.589,0.769
		c0.324,0.401,0.662,0.788,1.008,1.135c0.142,0.142,0.282,0.274,0.424,0.401c0.474,0.425,0.942,0.757,1.389,0.944
		c0.021,0.009,0.044,0.022,0.064,0.03c0.082,0.031,0.165,0.055,0.248,0.079c0.488,0.142,1.003,0.155,1.518,0.067
		c0.152-0.025,0.304-0.059,0.454-0.101c0.614-0.174,1.212-0.479,1.743-0.868c0.403-0.294,0.77-0.633,1.072-1
		C52.013,31.625,50.302,29.825,49.613,28.135z M46.229,31.761c0.199,0.208,0.351,0.378,0.468,0.52
		C46.539,32.113,46.383,31.939,46.229,31.761z"/>
	<path fill="#FF9C0D" d="M41.626,11.396l0.003-0.001c0.354-0.059,0.698-0.088,1.036-0.1c-1.926-3.021-4.271-6.202-6.359-7.458
		c-0.962,0.151-1.59,0.381-1.704,0.52C34.6,4.359,34.599,4.36,34.598,4.362c1.057,0.624,2.061,1.349,2.982,2.198
		C39.169,8.022,40.532,9.651,41.626,11.396z"/>
	<path fill="#FF9C0D" d="M21.468,1.386L21.468,1.386c0.148-0.102,0.57-0.302,1.171-0.527c-1.558,0.279-3.024,0.636-4.366,1.033
		C19.357,1.614,20.44,1.426,21.468,1.386z"/>
	<path fill="#FF9C0D" d="M34.562,5.763c0.433,0.285,0.836,0.585,1.218,0.895h0.001C35.398,6.348,34.994,6.048,34.562,5.763
		L34.562,5.763z"/>
	<path fill="#FF9C0D" d="M42.635,19.524c0.01,0.073,0.02,0.147,0.027,0.222c0.001,0,0.001,0,0.001,0
		C42.653,19.671,42.645,19.597,42.635,19.524L42.635,19.524z"/>
	<path fill="#FF9C0D" d="M42.09,16.197c0.029,0.136,0.06,0.272,0.087,0.413v0.001C42.148,16.47,42.119,16.332,42.09,16.197
		L42.09,16.197z"/>
	<path fill="#FF9C0D" d="M39.314,10.528c0.077,0.109,0.151,0.218,0.228,0.326v0.001C39.467,10.745,39.392,10.636,39.314,10.528
		L39.314,10.528z"/>
	<path fill="#FF9C0D" d="M43.023,23.201C43.024,23.201,43.024,23.201,43.023,23.201c-0.021-0.225-0.042-0.456-0.064-0.688
		c-0.007-0.068-0.014-0.138-0.021-0.205l0,0C42.968,22.611,42.996,22.909,43.023,23.201z"/>
	<path fill="#FF9C0D" d="M36.897,7.651c0.307,0.3,0.596,0.606,0.87,0.918c0.001,0,0.001,0,0.001,0
		C37.493,8.257,37.204,7.949,36.897,7.651C36.897,7.65,36.897,7.65,36.897,7.651z"/>
	<path fill="#FF9C0D" d="M41.087,13.232c0.135,0.233,0.26,0.497,0.375,0.79c0,0,0,0,0,0.001
		C41.346,13.729,41.221,13.465,41.087,13.232L41.087,13.232z"/>
	<path fill="#FFB24D" d="M36.305,3.837c2.088,1.256,4.435,4.437,6.359,7.458c4.114-0.134,6.99,3.039,8.332,5.084
		c0.037,0.057,0.078,0.116,0.117,0.174c0.238-0.517,0.281-1.174,0.02-1.972c-1.102-3.373-4.293-7.47-8.707-10.282
		C40.012,3.56,37.768,3.607,36.305,3.837z"/>
	<path fill="#FFB24D" d="M43.171,12.1c1.088,1.756,2.008,3.391,2.615,4.473c0.852,1.515,3.262,1.781,4.603,0.834
		c-0.206-0.308-0.417-0.625-0.637-0.958C47.37,12.822,44.48,12.245,43.171,12.1z"/>
	<path fill="#FFB24D" d="M25.8,0.75c-1.104,0.433,5.778,1.102,9.524,2.613c1.506-0.512,3.454-0.434,5.24-0.133
		c-3.488-1.752-8.062-2.72-11.351-2.835C28.249,0.473,26.992,0.589,25.8,0.75z"/>
	<path fill="#DD820A" d="M8.35,7.81c0.284-0.149,0.638-0.255,1.085-0.282c0,0,0.622-2.489,3.596-1.936c0,0,0.41-1.408,1.891-1.685
		c-0.029-0.255-0.025-0.544,0.021-0.859c-0.123,0.05-0.245,0.099-0.364,0.148c-0.049,0.021-0.094,0.04-0.141,0.061
		c-0.108,0.047-0.217,0.092-0.321,0.138c-0.062,0.028-0.124,0.057-0.186,0.084c-0.087,0.037-0.172,0.076-0.255,0.113
		c-0.062,0.03-0.125,0.06-0.187,0.088c-0.078,0.037-0.154,0.073-0.229,0.109c-0.062,0.03-0.121,0.059-0.183,0.089
		c-0.071,0.035-0.141,0.07-0.209,0.105c-0.059,0.029-0.116,0.06-0.173,0.088c-0.066,0.036-0.133,0.069-0.197,0.105
		c-0.053,0.028-0.105,0.057-0.156,0.084c-0.066,0.037-0.131,0.073-0.194,0.108c-0.044,0.026-0.09,0.052-0.133,0.076
		c-0.078,0.046-0.153,0.091-0.229,0.136c-0.021,0.014-0.047,0.027-0.069,0.042C10.068,5.641,9.002,6.858,8.35,7.81z"/>
	<path fill="#DD820A" d="M15.768,3.88c0.121,0.011,0.244,0.026,0.376,0.051c0,0,1.312-2.351,3.526-1.036
		c0,0,0.551-0.602,1.448-0.876c0.021-0.237,0.108-0.468,0.349-0.633c-1.026,0.04-2.109,0.229-3.195,0.506
		c-0.002,0-0.005,0.001-0.008,0.001c-0.069,0.021-0.142,0.042-0.21,0.063c-0.09,0.026-0.177,0.054-0.266,0.081
		C17.68,2.072,17.57,2.105,17.462,2.14c-0.091,0.028-0.18,0.058-0.269,0.088c-0.104,0.033-0.204,0.066-0.307,0.101
		c-0.089,0.03-0.176,0.06-0.263,0.09c-0.1,0.034-0.198,0.069-0.296,0.104c-0.084,0.03-0.168,0.06-0.252,0.09
		c-0.096,0.035-0.191,0.07-0.285,0.105C15.783,2.94,15.769,3.402,15.768,3.88z"/>
	<path fill="#DD820A" d="M22.809,1.368c-0.029,0.022-0.303,0.235-0.544,0.531c0.494,0.045,1.04,0.216,1.624,0.596
		c0,0,2.604-1.316,3.787,0.654c0.027,0.005,0.055,0.008,0.08,0.014c0.38-0.048,2.48-0.253,3.316,0.863
		c0.043,0.017,0.086,0.027,0.13,0.044c0.399,0.146,0.778,0.308,1.147,0.474c0.42,0.02,0.916,0.11,1.37,0.375
		c0.152-0.51,0.319-0.88,0.32-0.88C30.621,2.177,26.659,1.393,22.809,1.368z"/>
	<path fill="#DD820A" d="M37.581,6.56c-0.923-0.85-1.927-1.574-2.982-2.198c-0.227,0.273-0.391,0.635-0.479,0.859
		c0.162,0.147,0.312,0.326,0.442,0.542c0.433,0.285,0.837,0.585,1.219,0.895c0.428,0.151,0.893,0.442,1.117,0.992
		c0.307,0.3,0.596,0.607,0.871,0.919c0.678,0.094,1.562,0.501,1.546,1.959c0.077,0.108,0.151,0.218,0.228,0.327
		c0.322,0.123,0.904,0.426,1.257,1.068c0.427-0.363,0.816-0.522,0.827-0.527C40.532,9.651,39.169,8.022,37.581,6.56z"/>
	<path fill="#DD820A" d="M43.201,25.038c0.138,1.341,0.275,2.38,0.465,2.819c0.273,0.634,0.806,1.552,1.464,2.486
		c-1.159-1.97-0.75-3.914-0.604-7.535c-0.555-0.328-1.162-0.341-1.567-0.295c0.022,0.23,0.044,0.463,0.065,0.688
		C43.271,23.632,43.489,24.289,43.201,25.038z"/>
	<path fill="#DD820A" d="M41.087,13.231c0.135,0.234,0.26,0.498,0.375,0.792c0.459,0.358,1.066,1.078,0.628,2.174
		c0.029,0.136,0.06,0.272,0.087,0.414c0.553,0.25,1.771,1.055,0.458,2.913c0.011,0.073,0.02,0.147,0.028,0.222
		c0.285,0.341,1.029,1.404,0.325,2.49c0.692-0.367,1.566-0.413,1.568-0.413c0.004-0.152,0.006-0.306,0.008-0.464
		c0.041-3.253-0.88-6.407-2.526-9.272c-0.332,0.115-0.74,0.33-1.004,0.477C41.075,12.763,41.093,12.987,41.087,13.231z"/>
	<path fill="#DD820A" d="M46.697,32.28c-0.117-0.142-0.269-0.312-0.468-0.52C46.383,31.939,46.539,32.113,46.697,32.28z"/>
	<path fill="#FFDFB8" d="M51.134,28.965c-1.797-2.213-4.371-6.191-6.576-7.143l0,0c-0.002,0-0.876,0.046-1.568,0.412
		c-0.017,0.025-0.032,0.05-0.05,0.074c0.007,0.067,0.014,0.137,0.021,0.205c0.405-0.046,1.014-0.033,1.567,0.295l0,0
		c0.938,0.555,4.326,3.459,5.087,5.325c0.688,1.69,2.399,3.49,4.205,3.919l0,0c0.161-0.193,0.306-0.395,0.429-0.599
		c0.021-0.037,0.042-0.079,0.062-0.12l0,0C53.459,30.979,52.201,30.277,51.134,28.965z"/>
	<path fill="#FFDFB8" d="M42.665,11.295c-0.338,0.012-0.682,0.041-1.036,0.1l-0.003,0.001c-0.011,0.005-0.4,0.164-0.827,0.527
		c0.103,0.185,0.186,0.396,0.235,0.64c0.264-0.146,0.672-0.361,1.004-0.477c0.193-0.067,0.359-0.101,0.452-0.063
		c0.075,0.029,0.317,0.037,0.681,0.077c1.311,0.146,4.199,0.722,6.581,4.349c0.22,0.333,0.431,0.65,0.637,0.958
		c1.95,2.916,3.336,4.7,4.305,5.569c-0.086-0.717-0.195-1.453-0.332-2.199c-0.987-1.162-2.328-2.852-3.246-4.225
		c-0.039-0.058-0.08-0.117-0.117-0.174C49.655,14.334,46.779,11.161,42.665,11.295z"/>
	<path fill="#FFDFB8" d="M35.324,3.364c-0.479,0.162-0.913,0.382-1.282,0.676l0,0c-0.001,0-0.168,0.37-0.32,0.88
		c0.139,0.08,0.27,0.184,0.397,0.301c0.089-0.225,0.253-0.586,0.479-0.859c0.001-0.002,0.002-0.003,0.003-0.005
		c0.114-0.139,0.742-0.368,1.704-0.52c1.463-0.23,3.707-0.277,6.121,0.462c0.866,0.265,1.756,0.63,2.639,1.125
		c-0.882-0.658-1.812-1.272-2.783-1.83c-0.539-0.137-1.118-0.263-1.717-0.363C38.778,2.93,36.83,2.852,35.324,3.364z"/>
	<path fill="#FFDFB8" d="M21.468,1.386L21.468,1.386c-0.239,0.165-0.326,0.396-0.349,0.633c0.337-0.102,0.722-0.158,1.146-0.119
		c0.241-0.296,0.515-0.509,0.544-0.531c0.002-0.001,0.005-0.004,0.005-0.004C23.519,1.113,24.628,0.91,25.8,0.75
		c1.192-0.161,2.449-0.277,3.415-0.354c0.936-0.074,1.594-0.111,1.657-0.114c-0.066-0.003-0.134-0.004-0.2-0.008
		C30.482,0.267,30.29,0.259,30.1,0.255c-0.102-0.003-0.2-0.003-0.302-0.004c-0.154-0.002-0.312-0.006-0.468-0.006
		c-0.019,0-0.038,0-0.057,0c-0.075,0.001-0.148,0.003-0.224,0.004c-0.187,0.001-0.372,0.003-0.559,0.007
		c-0.098,0.003-0.194,0.007-0.291,0.01c-0.162,0.006-0.324,0.011-0.485,0.018c-0.104,0.005-0.208,0.011-0.312,0.016
		c-0.154,0.009-0.308,0.018-0.46,0.027c-0.105,0.008-0.211,0.016-0.316,0.022c-0.15,0.012-0.302,0.024-0.452,0.038
		c-0.104,0.009-0.207,0.017-0.311,0.026c-0.155,0.016-0.309,0.032-0.463,0.049c-0.096,0.01-0.192,0.02-0.286,0.03
		c-0.185,0.021-0.365,0.044-0.548,0.068c-0.062,0.007-0.127,0.015-0.19,0.022c-0.238,0.033-0.478,0.067-0.714,0.104
		C23.577,0.7,23.49,0.715,23.402,0.729c-0.15,0.024-0.302,0.049-0.452,0.074c-0.104,0.018-0.205,0.036-0.309,0.055
		c-0.001,0-0.002,0.001-0.004,0.001l0,0C22.038,1.084,21.616,1.284,21.468,1.386z"/>
	<path fill="#FFDFB8" d="M14.922,3.907c0.249-0.047,0.532-0.058,0.847-0.027c0.001-0.479,0.016-0.94,0.023-1.163
		c-0.003,0.001-0.005,0.002-0.008,0.003c-0.077,0.029-0.155,0.058-0.229,0.087c-0.106,0.04-0.208,0.08-0.312,0.121
		c-0.064,0.024-0.131,0.051-0.194,0.076c-0.036,0.014-0.07,0.028-0.106,0.044C14.896,3.364,14.892,3.653,14.922,3.907z"/>
	<path fill="#D9F3F9" d="M5.504,34.279c-0.016-0.068-0.035-0.131-0.044-0.207c0,0-0.079,0.072-0.213,0.152
		c0.075,0.023,0.155,0.043,0.243,0.053C5.494,34.277,5.499,34.277,5.504,34.279z"/>
	<path fill="#D9F3F9" d="M36.958,38.923c3.319,0.829,3.734-2.073,3.734-2.073c2.352-1.385,0.83-3.527,0.83-3.527
		c1.798-1.383,0.416-3.319,0.416-3.319c1.728-1.313,0.482-3.872,0.482-3.872c0.403-0.375,0.646-0.744,0.779-1.092l0,0
		c0.288-0.749,0.069-1.406-0.177-1.837c0,0,0,0-0.001,0c-0.189-0.332-0.396-0.529-0.396-0.529c0.126-0.121,0.225-0.241,0.311-0.362
		l0,0c0.018-0.024,0.033-0.049,0.05-0.074c0.704-1.084-0.04-2.148-0.325-2.489c0,0,0,0-0.001,0
		c-0.061-0.072-0.103-0.116-0.103-0.116c0.026-0.035,0.05-0.07,0.074-0.105l0,0c1.312-1.858,0.095-2.663-0.458-2.913V16.61
		c-0.141-0.063-0.237-0.092-0.237-0.092c0.061-0.111,0.109-0.217,0.15-0.321l0,0c0.438-1.096-0.169-1.815-0.628-2.174
		c0-0.001,0-0.001,0-0.001c-0.23-0.181-0.424-0.271-0.424-0.271c0.031-0.185,0.043-0.356,0.049-0.52c0,0,0,0,0-0.001
		c0.006-0.244-0.012-0.468-0.053-0.668c-0.051-0.244-0.134-0.455-0.235-0.64c-0.353-0.643-0.935-0.945-1.257-1.068v-0.001
		c-0.14-0.054-0.231-0.076-0.231-0.076c0.007-0.089,0.004-0.166,0.005-0.25l0,0c0.018-1.458-0.868-1.865-1.546-1.959
		c0,0,0,0-0.001,0c-0.408-0.058-0.739-0.004-0.739-0.004c0.022-0.366-0.03-0.665-0.131-0.914c0-0.001,0-0.001,0-0.001
		c-0.226-0.55-0.689-0.841-1.117-0.992h-0.001c-0.472-0.166-0.896-0.167-0.896-0.167c-0.084-0.282-0.194-0.519-0.321-0.728l0,0
		c-0.131-0.216-0.28-0.395-0.442-0.542C33.991,5.104,33.86,5,33.721,4.919c-0.454-0.265-0.95-0.355-1.37-0.375
		c-0.001,0-0.001,0-0.002,0c-0.564-0.025-0.992,0.079-0.992,0.079c-0.059-0.232-0.156-0.428-0.282-0.597c0,0,0,0-0.001,0
		c-0.836-1.116-2.938-0.911-3.316-0.863l0,0c-0.037,0.005-0.063,0.008-0.063,0.008c-0.005-0.008-0.01-0.014-0.016-0.021l0,0
		c-1.184-1.971-3.788-0.654-3.788-0.654c-0.584-0.38-1.129-0.551-1.624-0.596c-0.425-0.039-0.81,0.018-1.146,0.119
		c-0.897,0.274-1.448,0.876-1.448,0.876c-2.214-1.314-3.526,1.036-3.526,1.036c-0.132-0.024-0.255-0.04-0.376-0.051
		c-0.313-0.03-0.598-0.02-0.847,0.027c-1.479,0.276-1.891,1.685-1.891,1.685c-2.974-0.554-3.596,1.936-3.596,1.936
		C8.988,7.555,8.635,7.66,8.35,7.81l0,0c-1.169,0.615-1.127,2-1.127,2c-2.42,0.623-1.453,2.628-1.453,2.628
		c-2.559,0.691-1.797,3.319-1.797,3.319c-2.007,0.415-1.436,2.835-1.436,2.835c-1.78,0.691-0.501,3.043-0.501,3.043
		c-2.282,1.452-0.208,3.458-0.208,3.458c-2.766,1.452-0.416,3.872-0.416,3.872c-1.454,1.867,0.278,3.389,0.278,3.389
		c-0.276,0.623-0.623,1.729,0.483,2.905c1.106,1.175,2.08,0.237,2.08,0.237c0.276,2.213,3.176,1.076,3.176,1.076
		c0.483,1.936,2.835,0.553,2.835,0.553c0.83,1.938,3.458,0.553,3.458,0.553c0.897,1.799,3.181,0.348,3.181,0.348
		c1.245,2.074,3.389,0.689,3.389,0.689c0.967,1.521,3.111,0.348,3.111,0.348c1.591,1.865,3.734,0.346,3.734,0.346
		c1.451,1.729,3.525,0.544,3.525,0.544c1.107,1.097,2.768-0.269,2.768-0.269c0.986,0.377,1.764,0.303,2.336,0.09
		C36.56,39.48,36.958,38.923,36.958,38.923z M32.646,37.975c0,0-1.546,1.271-2.578,0.248c0,0-1.932,1.104-3.286-0.507
		c0,0-1.646,1.161-3.059,0.073c-0.128,0.113-0.23,0.246-0.284,0.408c0,0,0.014-0.229,0.159-0.504
		c-0.101-0.088-0.198-0.188-0.295-0.299c0,0-1.998,1.095-2.899-0.322c0,0-1.998,1.289-3.158-0.646c0,0-2.126,1.354-2.964-0.32
		c0,0-2.448,1.289-3.222-0.517c0,0-2.19,1.288-2.643-0.516c0,0-2.162,0.842-2.799-0.462c-0.205-0.021-0.43-0.121-0.604-0.281
		c-0.363,0.128-0.908,0.143-1.495-0.48c-1.03-1.097-0.708-2.127-0.451-2.707c0,0-1.614-1.416-0.258-3.156
		c0,0-2.189-2.256,0.387-3.608c0,0-0.832-0.805-0.804-1.739c-0.084,0.057-0.169,0.127-0.251,0.231c0,0,0.012-0.072,0.045-0.206
		c0.031-0.105,0.118-0.247,0.257-0.365c0.104-0.388,0.381-0.783,0.945-1.143c0,0-1.19-2.191,0.469-2.835
		c0,0-0.533-2.255,1.336-2.643c0,0-0.595-2.075,1.174-2.906c0.062-0.09,0.128-0.178,0.218-0.264
		c0.059-0.058,0.126-0.109,0.197-0.158c-0.157-0.519-0.326-1.759,1.439-2.213c0,0-0.064-1.998,2.061-2.127
		c0,0,0.581-2.319,3.351-1.804c0,0,0.581-1.997,2.9-1.546c0,0,1.225-2.19,3.286-0.967c0,0,1.675-1.839,3.931-0.372
		c0,0,2.448-1.239,3.543,0.629c0,0,2.965-0.45,3.416,1.354c0,0,2.577-0.645,3.285,1.739c0,0,2.128,0,1.998,1.933
		c0,0,2.319-0.387,2.127,2.062c0,0,1.997,0.451,1.61,2.771c0,0,1.805,0.838,0.838,2.577c0,0,1.934,0.555,0.885,2.431
		c0.04,0.007,0.078,0.014,0.124,0.021c0,0-0.021,0.036-0.079,0.09c-0.034,0.038-0.096,0.069-0.17,0.096
		c-0.055,0.085-0.113,0.172-0.18,0.262c0,0,1.481,1.481,0.063,2.836c0,0,1.609,1.546-0.192,3.222c0,0,1.159,2.383-0.451,3.608
		c0,0,0.219,0.312,0.357,0.764c0.006-0.003,0.011-0.006,0.015-0.009c0,0-0.002,0.011-0.008,0.027
		c0.193,0.643,0.222,1.562-0.751,2.311c0,0,1.418,1.997-0.773,3.285c0,0-0.387,2.708-3.479,1.934
		C35.932,37.266,34.836,38.812,32.646,37.975z"/>
	<path fill="#FFFFFF" d="M39.276,18.115C39.278,18.115,39.279,18.116,39.276,18.115C39.277,18.115,39.276,18.115,39.276,18.115z"/>
	<path fill="#FFFFFF" d="M39.411,35.331c2.191-1.288,0.773-3.285,0.773-3.285c0.973-0.748,0.944-1.668,0.751-2.31
		c-0.007,0.024-0.021,0.066-0.046,0.13c-0.036,0.11-0.138,0.245-0.315,0.383c-0.186,0.106-0.471,0.224-0.787,0.134
		c-0.284-0.064-0.561-0.287-0.688-0.592c-0.499,0.053-1.09-0.091-1.499-0.506c0.004-0.01,0.135,0.081,0.375,0.152
		c0.237,0.076,0.587,0.125,0.971,0.062c0.386-0.055,0.792-0.234,1.138-0.497c0.344-0.269,0.611-0.63,0.788-1.015
		c0,0,0,0.1-0.025,0.295c-0.042,0.188-0.129,0.479-0.374,0.777c-0.243,0.293-0.647,0.595-1.189,0.699
		c-0.04,0.01-0.081,0.014-0.122,0.021c0.022,0.017,0.049,0.036,0.08,0.06c0.046,0.049,0.126,0.074,0.203,0.113
		c0.074,0.047,0.171,0.062,0.266,0.088c0.394,0.1,0.839-0.061,1.224-0.325c-0.141-0.452-0.358-0.764-0.358-0.764
		c1.61-1.226,0.451-3.608,0.451-3.608c1.803-1.676,0.192-3.222,0.192-3.222c1.418-1.354-0.063-2.836-0.063-2.836
		c0.066-0.09,0.125-0.177,0.18-0.262c-0.044,0.016-0.088,0.031-0.146,0.039c-0.147,0.008-0.348-0.025-0.508-0.162
		c-0.162-0.128-0.305-0.346-0.304-0.602c0,0,0.043,0.038,0.111,0.098c0.071,0.056,0.171,0.125,0.286,0.188
		c0.116,0.061,0.244,0.121,0.375,0.158c0.098,0.039,0.198,0.056,0.309,0.073c1.049-1.876-0.885-2.431-0.885-2.431
		c0.967-1.739-0.838-2.577-0.838-2.577c0.387-2.319-1.61-2.771-1.61-2.771c0.192-2.449-2.127-2.062-2.127-2.062
		C36.128,7.042,34,7.042,34,7.042c-0.708-2.384-3.285-1.739-3.285-1.739c-0.45-1.805-3.416-1.354-3.416-1.354
		c-1.095-1.868-3.543-0.629-3.543-0.629c-2.256-1.467-3.931,0.372-3.931,0.372c-2.062-1.224-3.286,0.967-3.286,0.967
		c-2.318-0.451-2.899,1.546-2.899,1.546c-2.771-0.516-3.352,1.804-3.352,1.804c-2.125,0.129-2.061,2.127-2.061,2.127
		C6.461,10.59,6.63,11.83,6.788,12.349c0.246-0.168,0.559-0.276,0.872-0.294c0.406-0.02,0.804,0.094,1.097,0.282
		c0,0-0.087,0.003-0.238-0.006c-0.155,0.002-0.375-0.009-0.646,0.021c-0.269,0.033-0.588,0.095-0.912,0.272
		c-0.327,0.171-0.641,0.493-0.872,0.979c0,0,0.004-0.032,0.012-0.09c0.009-0.058,0.015-0.145,0.048-0.247
		c0.034-0.139,0.105-0.317,0.226-0.497c-1.77,0.831-1.174,2.906-1.174,2.906c-1.869,0.388-1.336,2.643-1.336,2.643
		c-1.659,0.644-0.469,2.834-0.469,2.834c-0.564,0.359-0.841,0.756-0.945,1.144c0.026-0.022,0.051-0.045,0.082-0.065
		c0.392-0.262,1.018-0.179,1.318,0.135c0,0-0.059,0.009-0.151,0.014c-0.093-0.001-0.228,0.016-0.383,0.016
		c-0.155,0.021-0.339,0.021-0.535,0.074c-0.118,0.029-0.25,0.077-0.382,0.167c-0.028,0.937,0.804,1.74,0.804,1.74
		c-2.577,1.353-0.387,3.608-0.387,3.608c-1.355,1.74,0.258,3.156,0.258,3.156c-0.258,0.579-0.58,1.61,0.451,2.707
		c0.586,0.622,1.132,0.608,1.495,0.48c-0.117-0.108-0.21-0.243-0.255-0.403c0-0.003,0.06,0.075,0.186,0.159
		c0.075,0.052,0.178,0.102,0.296,0.141c0.135-0.08,0.213-0.152,0.213-0.152c0.009,0.076,0.029,0.139,0.044,0.207
		c0.458,0.053,1.006-0.112,1.417-0.422c-0.006-0.017-0.02,0.302-0.441,0.576c-0.205,0.127-0.507,0.229-0.858,0.18H5.619
		c0.637,1.304,2.799,0.462,2.799,0.462c0.451,1.804,2.643,0.516,2.643,0.516c0.772,1.806,3.222,0.517,3.222,0.517
		c0.838,1.675,2.964,0.32,2.964,0.32c1.16,1.936,3.158,0.646,3.158,0.646c0.901,1.417,2.899,0.322,2.899,0.322
		c0.097,0.111,0.194,0.211,0.295,0.299c0.22-0.416,0.738-0.941,1.983-0.983c0,0,0.416-1.521,2.456-1.278
		c0,0,0.622-1.557,2.385-1.313c0,0,0.242-2.267,2.075-2.032c0,0-0.034-1.961,1.938-1.884c0,0,0.022-1.34,1.238-1.651
		c0,0-0.79-1.313,0.316-1.865c0,0-1.521-1.662-0.068-3.527c0,0-0.796,2.527,0.863,3.494c0,0-1.158,1.104-0.527,2.176
		c0,0-1.306,0.52-1.27,1.625c0,0-2.11,0.416-1.902,2.248c0,0-2.281,0-2.108,2.005c0,0-2.109-0.449-2.662,1.245
		c0,0-1.938-0.346-2.455,1.244c0,0-1.467,0.003-2.137,0.596c1.411,1.088,3.059-0.073,3.059-0.073
		c1.354,1.61,3.286,0.507,3.286,0.507c1.032,1.021,2.578-0.248,2.578-0.248c2.189,0.838,3.286-0.709,3.286-0.709
		C39.024,38.039,39.411,35.331,39.411,35.331z M39.869,17.969c0.456,0.122,0.947,0.097,1.357-0.093c0,0-0.02,0.019-0.057,0.056
		c-0.041,0.032-0.093,0.1-0.185,0.151c-0.176,0.118-0.487,0.238-0.905,0.23c-0.21,0.002-0.438-0.05-0.683-0.138
		c-0.097-0.049-0.118-0.06-0.122-0.061c-0.067,0.075-0.185,0.187-0.292,0.273c-0.222,0.182-0.491,0.372-0.833,0.431
		c-0.338,0.069-0.701-0.038-0.97-0.255c0,0,0.04,0.014,0.111,0.035c0.073,0.016,0.171,0.076,0.307,0.071
		c0.262,0.044,0.623-0.059,0.946-0.331c0.083-0.067,0.168-0.135,0.247-0.219c0.087-0.081,0.151-0.151,0.251-0.265l0.127-0.136
		l0.031-0.034l0.042,0.021l0.082,0.043l0.211,0.109C39.647,17.898,39.752,17.948,39.869,17.969z M36.106,11.129
		c0.304-0.01,0.634-0.089,0.935-0.235s0.563-0.368,0.789-0.614c-0.013-0.016-0.002,0.362-0.467,0.776
		c-0.23,0.193-0.589,0.37-1.021,0.381c-0.428,0.021-0.927-0.134-1.304-0.479c0,0,0.028,0.01,0.081,0.027
		c0.052,0.019,0.126,0.045,0.224,0.066C35.533,11.102,35.805,11.145,36.106,11.129z M33.389,10.501
		c-0.185,0.183-0.493,0.339-0.854,0.343c-0.356,0.014-0.76-0.11-1.097-0.372c0,0,0.099,0.023,0.263,0.044
		c0.161,0.022,0.389,0.042,0.637,0.022c0.249-0.017,0.516-0.078,0.748-0.199c0.232-0.123,0.429-0.315,0.595-0.54
		C33.663,9.785,33.755,10.108,33.389,10.501z M31.263,5.711c0,0-0.027,0.082-0.099,0.231c-0.076,0.144-0.189,0.359-0.407,0.593
		c-0.211,0.227-0.544,0.496-1.021,0.573c-0.204,0.037-0.418,0.017-0.628-0.046c-0.008,0.033-0.024,0.086-0.054,0.163
		C29,7.35,28.907,7.534,28.729,7.728c-0.18,0.189-0.451,0.401-0.838,0.485C27.7,8.255,27.478,8.248,27.27,8.177
		c-0.208-0.072-0.396-0.215-0.525-0.396c0.002-0.005,0.092,0.058,0.253,0.113c0.16,0.06,0.393,0.097,0.643,0.047
		c0.498-0.089,1.009-0.507,1.445-0.886c-0.272-0.086-0.536-0.243-0.754-0.453c0,0,0.031,0.012,0.086,0.033
		c0.059,0.021,0.136,0.06,0.237,0.087c0.2,0.067,0.491,0.139,0.807,0.104c0.315-0.026,0.643-0.178,0.942-0.396
		C30.704,6.211,30.987,5.945,31.263,5.711z M20.157,5.698c0,0-0.067,0.023-0.189,0.054c-0.12,0.028-0.295,0.069-0.516,0.123
		c-0.217,0.053-0.479,0.107-0.752,0.217c-0.266,0.106-0.561,0.294-0.651,0.746c0.007,0-0.034-0.1-0.021-0.282
		c0.002-0.18,0.112-0.455,0.355-0.643C18.872,5.536,19.633,5.495,20.157,5.698z M8.675,10.857c-0.193,0.041-0.428,0.073-0.67,0.145
		c-0.235,0.067-0.486,0.214-0.605,0.606c0.005,0-0.026-0.089-0.013-0.25c0.003-0.156,0.104-0.408,0.336-0.565
		c0.226-0.163,0.519-0.221,0.795-0.233c0.277-0.009,0.544,0.039,0.779,0.119c0,0-0.055,0.028-0.163,0.064
		C9.028,10.778,8.87,10.819,8.675,10.857z M5.732,18.37c0.181,0.047,0.438,0.107,0.723,0.122c0.286,0.02,0.593-0.021,0.84-0.175
		c0.195-0.125,0.354-0.319,0.488-0.532c-0.02,0-0.038,0.005-0.058,0.005c-0.312,0.004-0.648-0.088-0.982-0.267
		c0,0,0.089-0.002,0.236-0.007c0.146-0.006,0.349-0.009,0.568-0.032c0.458-0.029,0.89-0.211,1.236-0.566
		c0,0-0.003,0.058-0.032,0.169c-0.018,0.053-0.029,0.131-0.076,0.202c-0.049,0.067-0.107,0.153-0.188,0.234
		c-0.146,0.114-0.357,0.224-0.604,0.254c-0.001,0.02-0.002,0.037-0.003,0.061c-0.021,0.142-0.056,0.37-0.251,0.603
		c-0.185,0.235-0.571,0.42-0.982,0.381c-0.415-0.025-0.835-0.225-1.206-0.534C5.439,18.287,5.549,18.323,5.732,18.37z M4.403,25.924
		c-0.396,0.045-0.905-0.107-1.17-0.509c0.003-0.006,0.092,0.065,0.26,0.127c0.165,0.063,0.408,0.11,0.679,0.085
		c0.554-0.042,1.158-0.388,1.501-0.893C5.66,24.72,5.728,25.077,5.324,25.5C5.126,25.697,4.808,25.889,4.403,25.924z M4.822,25.967
		c0,0,0.093,0.039,0.248,0.105c0.152,0.059,0.377,0.107,0.624,0.097c0.507-0.011,1.035-0.343,1.432-0.745
		c0,0-0.01,0.065-0.052,0.191c-0.025,0.061-0.042,0.148-0.1,0.227c-0.057,0.079-0.123,0.176-0.211,0.27
		c-0.195,0.164-0.484,0.361-0.869,0.361C5.521,26.494,5.078,26.326,4.822,25.967z M9.766,32.609
		c-0.206,0.146-0.531,0.231-0.877,0.173c-0.285-0.05-0.582-0.199-0.816-0.438c-0.244,0.098-0.53,0.164-0.849,0.158
		c-0.479-0.006-1.053-0.139-1.507-0.521c0,0,0.033,0.013,0.095,0.033c0.058,0.023,0.146,0.051,0.257,0.076
		c0.221,0.055,0.537,0.102,0.896,0.098c0.719,0,1.603-0.239,2.027-0.883c0,0-0.008,0.09-0.065,0.26
		c-0.064,0.162-0.213,0.404-0.506,0.604C8.351,32.215,8.271,32.26,8.186,32.3c0.146,0.056,0.347,0.115,0.575,0.146
		c0.236,0.031,0.498,0.018,0.741-0.055c0.24-0.076,0.465-0.219,0.667-0.397C10.155,31.975,10.183,32.297,9.766,32.609z
		 M13.271,34.532c-0.229,0.018-0.506,0.106-0.79,0.315c-0.28,0.207-0.595,0.491-0.795,0.959c0.008,0.002-0.013-0.123,0.041-0.322
		c0.048-0.198,0.162-0.473,0.385-0.727c0.216-0.253,0.555-0.49,0.966-0.527c0.418-0.043,0.812,0.225,0.944,0.522
		C14.021,34.779,13.742,34.52,13.271,34.532z M20.567,35.104c-0.021,0.066-0.037,0.155-0.083,0.246
		c-0.05,0.088-0.11,0.191-0.188,0.305c-0.096,0.095-0.199,0.213-0.342,0.302c-0.074,0.041-0.152,0.083-0.235,0.123
		c-0.08,0.043-0.18,0.051-0.273,0.076c-0.381,0.073-0.837-0.021-1.2-0.294c-0.048,0.05-0.101,0.097-0.163,0.137
		c-0.069,0.039-0.145,0.078-0.224,0.116c-0.079,0.034-0.172,0.042-0.263,0.06c-0.37,0.049-0.786-0.099-1.093-0.39
		c0,0,0.098,0.024,0.257,0.062c0.076,0.027,0.175,0.031,0.279,0.041c0.104,0.021,0.219,0.006,0.338-0.004
		c0.492-0.031,0.914-0.449,1.226-0.912c0,0,0.004,0.066-0.014,0.194c-0.011,0.062-0.019,0.146-0.048,0.235
		c-0.037,0.086-0.086,0.188-0.148,0.299c-0.043,0.049-0.089,0.103-0.142,0.156c0.039,0.006,0.131,0.021,0.263,0.041
		c0.174,0.024,0.419,0.035,0.68-0.014c0.536-0.083,1.033-0.521,1.417-0.984C20.61,34.898,20.603,34.97,20.567,35.104z M25.742,34.09
		c-0.041,0.108-0.129,0.251-0.273,0.417c-0.156,0.146-0.38,0.331-0.701,0.388c-0.314,0.068-0.699,0.004-1.008-0.22
		c0,0,0.09,0.005,0.233,0.013c0.144,0.004,0.341-0.008,0.547-0.062c0.422-0.099,0.84-0.433,1.26-0.702
		C25.8,33.924,25.786,33.984,25.742,34.09z M35.092,26.061c-1.384-0.068-1.729,1.938-1.729,1.938
		c-2.489-0.83-2.903,2.074-2.903,2.074c-1.729-0.83-2.905,1.451-2.905,1.451c-1.798-1.037-2.559,0.969-2.559,0.969
		c-1.591-1.106-3.084,0.691-3.084,0.691c-1.148-1.729-2.656,0-2.656,0c-1.037-1.937-2.835-0.898-2.835-0.898
		c-0.483-0.969-2.213-0.346-2.213-0.346c-0.761-1.799-2.42-0.691-2.42-0.691c0.346-1.245-0.831-1.591-0.831-1.591
		c0.691-1.521-1.729-2.835-1.729-2.835c0.83-0.969-0.83-1.799-0.83-1.799c1.521-1.037,0-2.352,0-2.352
		c1.798-0.761,0.623-2.281,0.623-2.281c1.245-0.969,0-2.006,0-2.006c2.075-0.346,1.59-2.767,1.59-2.767
		c1.936,0.069,1.798-2.144,1.798-2.144c1.867,0.484,2.353-1.867,2.353-1.867c1.798,1.314,2.767-1.384,2.767-1.384
		c1.382,1.384,2.488-0.552,2.488-0.552c0.898,1.175,2.798,0,2.798,0c0.794,1.313,2.733,0,2.733,0
		c0.208,1.313,2.697,0.968,2.697,0.968c-0.208,1.384,1.383,1.451,1.383,1.451c-0.138,1.453,2.421,1.66,2.421,1.66
		c-0.416,1.591,1.591,2.144,1.591,2.144c-0.69,2.005,1.798,3.39,1.798,3.39c-1.451,0.897,0.276,3.457,0.276,3.457
		C33.846,23.502,35.092,26.061,35.092,26.061z M36.12,15.159c-0.467,0.015-0.955-0.288-1.213-0.738c0,0,0.024,0.019,0.071,0.052
		c0.047,0.031,0.108,0.085,0.197,0.131c0.171,0.104,0.43,0.22,0.729,0.233c0.298,0.022,0.622-0.072,0.897-0.262
		c0.218-0.156,0.404-0.365,0.562-0.589c-0.343-0.049-0.695-0.229-0.94-0.537c0,0,0.098,0.04,0.258,0.106
		c0.074,0.042,0.179,0.056,0.286,0.085c0.105,0.038,0.229,0.036,0.356,0.046c0.524,0.039,1.062-0.297,1.475-0.711
		c0,0-0.014,0.066-0.06,0.195c-0.024,0.061-0.049,0.147-0.104,0.229c-0.058,0.081-0.13,0.173-0.219,0.274
		c-0.204,0.161-0.514,0.36-0.91,0.331c-0.014,0-0.026-0.005-0.042-0.006c-0.022,0.156-0.093,0.396-0.313,0.681
		C36.952,14.914,36.589,15.164,36.12,15.159z M32.883,36.954c-0.206,0.211-0.537,0.433-0.982,0.463
		c-0.218,0.019-0.464-0.034-0.674-0.16c-0.213-0.127-0.375-0.331-0.465-0.563c0.005-0.006,0.078,0.093,0.233,0.201
		c0.15,0.113,0.394,0.22,0.677,0.213c0.283,0.004,0.597-0.11,0.876-0.282c0.278-0.177,0.521-0.415,0.717-0.681
		C33.252,36.131,33.299,36.502,32.883,36.954z M34.453,34.873c-0.337-0.033-0.684-0.148-1.091-0.27c0,0,0.1-0.021,0.267-0.035
		s0.402-0.021,0.661-0.021s0.539-0.003,0.804-0.049c0.263-0.044,0.506-0.146,0.733-0.299c-0.008-0.02-0.035,0.312-0.502,0.552
		c-0.053,0.024-0.111,0.047-0.172,0.065c0.138,0.094,0.337,0.191,0.575,0.238c0.255,0.055,0.547,0.041,0.802-0.062
		c0.253-0.104,0.459-0.314,0.604-0.572c0,0,0.007,0.068-0.003,0.209c-0.026,0.131-0.083,0.354-0.305,0.544
		c-0.213,0.185-0.581,0.313-0.969,0.229c-0.312-0.053-0.637-0.254-0.832-0.558C34.853,34.884,34.657,34.896,34.453,34.873z"/>
	<path fill="#729AA0" d="M25.859,37.193c0.519-1.59,2.455-1.243,2.455-1.243c0.553-1.694,2.662-1.245,2.662-1.245
		C30.803,32.7,33.085,32.7,33.085,32.7c-0.208-1.832,1.902-2.248,1.902-2.248c-0.036-1.106,1.27-1.625,1.27-1.625
		c-0.631-1.071,0.527-2.175,0.527-2.175c-1.659-0.967-0.863-3.495-0.863-3.495c-1.453,1.866,0.068,3.526,0.068,3.526
		c-1.106,0.553-0.316,1.866-0.316,1.866c-1.216,0.312-1.238,1.651-1.238,1.651c-1.972-0.077-1.938,1.884-1.938,1.884
		c-1.833-0.233-2.075,2.032-2.075,2.032c-1.763-0.242-2.385,1.314-2.385,1.314c-2.04-0.244-2.456,1.277-2.456,1.277
		c-1.245,0.042-1.765,0.568-1.983,0.982c-0.146,0.276-0.159,0.504-0.159,0.504c0.054-0.161,0.155-0.295,0.284-0.407
		C24.393,37.197,25.859,37.193,25.859,37.193z"/>
	<path fill="#85C2CC" d="M34.909,34.617c0.006-0.004,0.072,0.082,0.214,0.18c0.009,0.008,0.021,0.014,0.03,0.021
		c0.061-0.02,0.119-0.041,0.172-0.065c0.467-0.239,0.494-0.569,0.502-0.552c-0.229,0.15-0.472,0.255-0.733,0.299
		c-0.265,0.046-0.545,0.048-0.804,0.049s-0.494,0.006-0.661,0.021c-0.167,0.015-0.267,0.035-0.267,0.035
		c0.407,0.121,0.754,0.235,1.091,0.27c0.204,0.023,0.399,0.011,0.574-0.025C34.979,34.775,34.939,34.7,34.909,34.617z"/>
	<path fill="#85C2CC" d="M34.909,34.617c0.03,0.083,0.07,0.158,0.118,0.229c0.195,0.305,0.521,0.506,0.832,0.559
		c0.388,0.082,0.756-0.047,0.969-0.23c0.222-0.189,0.277-0.413,0.305-0.544c0.01-0.141,0.004-0.209,0.004-0.209
		c-0.146,0.259-0.354,0.468-0.605,0.572c-0.255,0.104-0.547,0.116-0.802,0.063c-0.238-0.048-0.438-0.146-0.575-0.24
		c-0.01-0.006-0.021-0.014-0.03-0.021C34.981,34.699,34.915,34.614,34.909,34.617z"/>
	<path fill="#85C2CC" d="M32.548,36.824c-0.279,0.172-0.593,0.287-0.876,0.283c-0.283,0.006-0.525-0.101-0.677-0.213
		c-0.155-0.109-0.229-0.207-0.233-0.201c0.09,0.231,0.252,0.437,0.465,0.562c0.21,0.126,0.456,0.18,0.674,0.16
		c0.445-0.03,0.776-0.252,0.982-0.463c0.416-0.452,0.369-0.823,0.382-0.811C33.068,36.409,32.826,36.648,32.548,36.824z"/>
	<path fill="#85C2CC" d="M39.158,29.781c0.041-0.006,0.082-0.012,0.122-0.021c0.542-0.104,0.946-0.407,1.188-0.698
		c0.246-0.299,0.332-0.592,0.374-0.778c0.026-0.195,0.026-0.295,0.026-0.295c-0.177,0.385-0.444,0.745-0.788,1.015
		c-0.346,0.264-0.752,0.443-1.138,0.497c-0.384,0.062-0.732,0.013-0.971-0.063c-0.24-0.07-0.371-0.16-0.375-0.151
		c0.409,0.415,1,0.559,1.499,0.506c-0.013-0.028-0.03-0.054-0.039-0.083C39.059,29.708,39.095,29.734,39.158,29.781z"/>
	<path fill="#85C2CC" d="M39.707,30.042c-0.095-0.026-0.19-0.041-0.266-0.088c-0.077-0.039-0.157-0.065-0.203-0.113
		c-0.031-0.022-0.058-0.043-0.08-0.06c-0.062-0.047-0.1-0.073-0.1-0.073c0.009,0.028,0.026,0.054,0.039,0.083
		c0.129,0.305,0.404,0.525,0.688,0.592c0.316,0.09,0.603-0.025,0.787-0.134c0.179-0.138,0.279-0.272,0.315-0.383
		c0.024-0.062,0.038-0.104,0.046-0.13c0.006-0.019,0.008-0.028,0.008-0.028c-0.004,0.003-0.009,0.006-0.014,0.009
		C40.546,29.982,40.1,30.141,39.707,30.042z"/>
	<path fill="#85C2CC" d="M18.252,35.855c0.053-0.054,0.099-0.106,0.142-0.155c0.062-0.111,0.111-0.212,0.148-0.3
		c0.029-0.09,0.037-0.172,0.048-0.234c0.018-0.128,0.014-0.193,0.014-0.193c-0.312,0.461-0.732,0.879-1.226,0.911
		c-0.119,0.011-0.232,0.025-0.338,0.005c-0.104-0.011-0.203-0.015-0.278-0.041c-0.16-0.039-0.258-0.062-0.258-0.062
		c0.307,0.291,0.723,0.438,1.093,0.39c0.091-0.018,0.184-0.024,0.263-0.06c0.079-0.038,0.153-0.077,0.224-0.116
		c0.062-0.04,0.115-0.087,0.163-0.138c-0.005-0.002-0.01-0.004-0.015-0.01C18.23,35.852,18.239,35.854,18.252,35.855z"/>
	<path fill="#85C2CC" d="M19.193,35.884c-0.261,0.05-0.506,0.038-0.68,0.015c-0.132-0.021-0.224-0.037-0.263-0.043
		c-0.013-0.002-0.021-0.004-0.021-0.004c0.005,0.004,0.01,0.006,0.015,0.01c0.363,0.271,0.819,0.367,1.2,0.293
		c0.095-0.024,0.193-0.032,0.273-0.075c0.083-0.04,0.161-0.082,0.235-0.123c0.143-0.089,0.246-0.207,0.342-0.302
		c0.077-0.112,0.139-0.217,0.188-0.305c0.046-0.091,0.062-0.18,0.083-0.246c0.035-0.134,0.043-0.205,0.043-0.205
		C20.227,35.363,19.729,35.801,19.193,35.884z"/>
	<path fill="#85C2CC" d="M24.54,34.626c-0.206,0.054-0.403,0.063-0.547,0.062c-0.145-0.008-0.233-0.013-0.233-0.013
		c0.309,0.224,0.692,0.288,1.008,0.22c0.321-0.057,0.545-0.24,0.701-0.388c0.146-0.166,0.232-0.309,0.273-0.417
		c0.044-0.105,0.058-0.166,0.058-0.166C25.38,34.195,24.962,34.529,24.54,34.626z"/>
	<path fill="#85C2CC" d="M13.078,34.23c-0.411,0.037-0.75,0.275-0.966,0.528c-0.223,0.255-0.337,0.527-0.385,0.728
		c-0.054,0.197-0.033,0.322-0.041,0.322c0.2-0.469,0.515-0.754,0.795-0.961c0.284-0.207,0.561-0.298,0.79-0.314
		c0.471-0.014,0.749,0.246,0.751,0.222C13.89,34.455,13.496,34.188,13.078,34.23z"/>
	<path fill="#85C2CC" d="M7.996,32.22c0.04,0.02,0.098,0.046,0.171,0.072c0.006,0.003,0.014,0.005,0.02,0.007
		c0.085-0.04,0.165-0.085,0.234-0.132c0.293-0.198,0.44-0.44,0.506-0.604c0.058-0.17,0.065-0.26,0.065-0.26
		c-0.426,0.645-1.31,0.885-2.027,0.883c-0.358,0.006-0.675-0.041-0.896-0.097c-0.112-0.026-0.2-0.053-0.257-0.077
		c-0.062-0.021-0.095-0.031-0.095-0.031c0.454,0.381,1.026,0.515,1.507,0.521c0.318,0.006,0.604-0.062,0.849-0.158
		c-0.048-0.049-0.097-0.096-0.138-0.151C7.934,32.191,7.956,32.2,7.996,32.22z"/>
	<path fill="#85C2CC" d="M8.761,32.443c-0.229-0.028-0.431-0.09-0.575-0.145c-0.006-0.002-0.014-0.004-0.02-0.007
		c-0.074-0.026-0.131-0.054-0.171-0.072c-0.04-0.02-0.062-0.028-0.062-0.028c0.042,0.057,0.09,0.104,0.138,0.151
		c0.234,0.239,0.532,0.39,0.816,0.438c0.346,0.06,0.671-0.027,0.877-0.172c0.417-0.312,0.39-0.635,0.403-0.618
		c-0.202,0.18-0.427,0.321-0.667,0.397C9.26,32.461,8.998,32.477,8.761,32.443z"/>
	<path fill="#85C2CC" d="M6.479,34.434c0.422-0.274,0.436-0.593,0.441-0.576c-0.411,0.31-0.958,0.475-1.417,0.422
		c-0.005-0.002-0.01-0.002-0.015-0.002c-0.088-0.01-0.168-0.028-0.243-0.053c-0.119-0.039-0.221-0.089-0.296-0.141
		C4.824,34,4.764,33.922,4.76,33.928c0.046,0.16,0.14,0.295,0.256,0.403c0.174,0.16,0.398,0.26,0.604,0.28H5.62
		C5.971,34.662,6.274,34.561,6.479,34.434z"/>
	<path fill="#85C2CC" d="M6.763,26.111c0.088-0.094,0.154-0.189,0.211-0.27c0.057-0.078,0.074-0.166,0.1-0.227
		c0.042-0.126,0.052-0.191,0.052-0.191c-0.396,0.402-0.925,0.734-1.432,0.745c-0.247,0.011-0.471-0.038-0.624-0.097
		c-0.155-0.066-0.248-0.105-0.248-0.105c0.255,0.359,0.699,0.527,1.072,0.506C6.279,26.473,6.568,26.275,6.763,26.111z"/>
	<path fill="#85C2CC" d="M5.672,24.736c-0.343,0.504-0.947,0.85-1.501,0.892c-0.271,0.026-0.514-0.021-0.679-0.085
		c-0.167-0.062-0.257-0.133-0.26-0.127c0.266,0.4,0.774,0.554,1.17,0.509c0.405-0.034,0.723-0.228,0.92-0.424
		C5.728,25.077,5.66,24.72,5.672,24.736z"/>
	<path fill="#85C2CC" d="M7.628,18.441c0.195-0.232,0.231-0.461,0.251-0.603c0.001-0.023,0.002-0.041,0.003-0.061
		c-0.031,0.004-0.065,0.007-0.1,0.008c-0.134,0.213-0.293,0.407-0.488,0.532c-0.248,0.153-0.555,0.194-0.84,0.175
		c-0.285-0.015-0.542-0.075-0.723-0.122c-0.184-0.048-0.293-0.083-0.293-0.083c0.371,0.31,0.791,0.509,1.206,0.534
		C7.056,18.861,7.444,18.676,7.628,18.441z"/>
	<path fill="#85C2CC" d="M8.487,17.524c0.081-0.081,0.14-0.167,0.188-0.234c0.047-0.071,0.059-0.149,0.076-0.202
		c0.029-0.111,0.032-0.169,0.032-0.169c-0.347,0.355-0.778,0.537-1.236,0.566c-0.22,0.023-0.422,0.026-0.568,0.032
		c-0.146,0.005-0.236,0.007-0.236,0.007c0.333,0.179,0.67,0.271,0.982,0.267c0.02,0,0.038-0.005,0.058-0.005
		c0.033-0.001,0.067-0.004,0.1-0.008C8.13,17.747,8.342,17.638,8.487,17.524z"/>
	<path fill="#85C2CC" d="M6.097,13.517c-0.008,0.058-0.012,0.09-0.012,0.09c0.231-0.486,0.545-0.809,0.872-0.979
		c0.323-0.178,0.644-0.239,0.912-0.272c0.271-0.03,0.491-0.02,0.646-0.021c0.151,0.009,0.238,0.006,0.238,0.006
		c-0.293-0.188-0.689-0.302-1.097-0.282c-0.314,0.018-0.626,0.126-0.872,0.294c-0.071,0.049-0.139,0.101-0.197,0.158
		c-0.089,0.086-0.156,0.174-0.218,0.264c-0.119,0.18-0.191,0.358-0.226,0.497C6.112,13.372,6.106,13.459,6.097,13.517z"/>
	<path fill="#85C2CC" d="M9.297,10.678c-0.235-0.08-0.502-0.128-0.779-0.119c-0.276,0.013-0.569,0.07-0.795,0.233
		c-0.232,0.157-0.333,0.409-0.336,0.565c-0.014,0.161,0.018,0.25,0.013,0.25c0.119-0.393,0.37-0.539,0.605-0.606
		c0.242-0.071,0.477-0.104,0.67-0.145c0.195-0.038,0.354-0.079,0.459-0.114C9.242,10.706,9.297,10.678,9.297,10.678z"/>
	<path fill="#85C2CC" d="M3.312,22.396c0.155,0,0.291-0.017,0.383-0.016c0.094-0.005,0.151-0.014,0.151-0.014
		c-0.301-0.312-0.928-0.396-1.318-0.135c-0.031,0.021-0.056,0.043-0.082,0.065c-0.14,0.118-0.228,0.261-0.257,0.365
		c-0.033,0.134-0.045,0.206-0.045,0.206c0.082-0.104,0.167-0.176,0.251-0.232c0.132-0.09,0.264-0.138,0.382-0.167
		C2.973,22.416,3.157,22.418,3.312,22.396z"/>
	<path fill="#85C2CC" d="M18.026,6.556c-0.013,0.183,0.028,0.282,0.021,0.282c0.092-0.452,0.387-0.64,0.651-0.746
		c0.272-0.109,0.535-0.164,0.752-0.217c0.221-0.054,0.396-0.095,0.516-0.123c0.122-0.03,0.189-0.054,0.189-0.054
		c-0.524-0.203-1.285-0.162-1.774,0.215C18.139,6.101,18.028,6.376,18.026,6.556z"/>
	<path fill="#85C2CC" d="M27.639,7.941c-0.25,0.05-0.481,0.013-0.643-0.047c-0.161-0.056-0.251-0.118-0.253-0.113
		c0.131,0.182,0.317,0.324,0.525,0.396c0.208,0.071,0.43,0.078,0.621,0.036c0.387-0.084,0.658-0.296,0.838-0.485
		C28.907,7.534,29,7.35,29.055,7.226c0.028-0.077,0.046-0.13,0.054-0.163c-0.008-0.003-0.017-0.005-0.023-0.008
		C28.647,7.434,28.137,7.852,27.639,7.941z"/>
	<path fill="#85C2CC" d="M29.461,6.825c-0.314,0.035-0.605-0.036-0.807-0.104c-0.104-0.027-0.18-0.067-0.237-0.087
		c-0.055-0.021-0.086-0.033-0.086-0.033c0.218,0.21,0.48,0.367,0.754,0.453c0.008,0.003,0.017,0.005,0.023,0.008
		c0.21,0.062,0.424,0.083,0.628,0.046c0.478-0.077,0.811-0.347,1.021-0.573c0.218-0.233,0.331-0.449,0.407-0.593
		c0.07-0.149,0.099-0.231,0.099-0.231c-0.275,0.233-0.56,0.5-0.859,0.719C30.103,6.648,29.776,6.799,29.461,6.825z"/>
	<path fill="#85C2CC" d="M33.085,10.339c-0.232,0.121-0.499,0.183-0.748,0.199c-0.248,0.02-0.476,0-0.637-0.022
		c-0.164-0.021-0.263-0.044-0.263-0.044c0.337,0.262,0.738,0.386,1.097,0.372c0.361-0.004,0.671-0.16,0.854-0.343
		c0.365-0.394,0.273-0.716,0.29-0.702C33.513,10.024,33.317,10.216,33.085,10.339z"/>
	<path fill="#85C2CC" d="M35.343,11.052c-0.098-0.021-0.172-0.048-0.224-0.066c-0.053-0.018-0.081-0.027-0.081-0.027
		c0.377,0.345,0.876,0.499,1.304,0.479c0.434-0.011,0.791-0.188,1.021-0.381c0.465-0.414,0.454-0.792,0.467-0.776
		c-0.226,0.246-0.488,0.468-0.789,0.614s-0.631,0.226-0.935,0.235C35.805,11.145,35.533,11.102,35.343,11.052z"/>
	<path fill="#85C2CC" d="M37.465,14c0.016,0.001,0.028,0.006,0.042,0.006c0.396,0.029,0.706-0.17,0.91-0.331
		c0.089-0.102,0.161-0.193,0.22-0.274c0.055-0.082,0.078-0.169,0.104-0.229c0.046-0.129,0.06-0.195,0.06-0.195
		c-0.411,0.414-0.949,0.75-1.475,0.711c-0.127-0.01-0.251-0.008-0.355-0.046c-0.108-0.029-0.213-0.043-0.287-0.085
		c-0.16-0.066-0.258-0.106-0.258-0.106c0.245,0.309,0.599,0.488,0.94,0.537c0.041-0.059,0.081-0.116,0.117-0.176
		C37.474,13.805,37.483,13.878,37.465,14z"/>
	<path fill="#85C2CC" d="M37.15,14.681c0.222-0.285,0.291-0.524,0.313-0.681c0.02-0.122,0.01-0.195,0.018-0.189
		c-0.036,0.06-0.076,0.117-0.117,0.176c-0.157,0.224-0.345,0.433-0.562,0.589c-0.275,0.189-0.601,0.284-0.897,0.262
		c-0.299-0.014-0.558-0.129-0.729-0.233c-0.089-0.046-0.15-0.1-0.197-0.131c-0.047-0.033-0.071-0.052-0.071-0.052
		c0.258,0.45,0.746,0.753,1.213,0.738C36.589,15.164,36.952,14.914,37.15,14.681z"/>
	<path fill="#85C2CC" d="M39.327,17.751l-0.082-0.043l-0.042-0.021l-0.031,0.034l-0.127,0.136c-0.1,0.113-0.164,0.184-0.251,0.265
		c-0.079,0.084-0.164,0.151-0.247,0.219c-0.323,0.272-0.686,0.375-0.946,0.331c-0.136,0.005-0.232-0.056-0.307-0.071
		c-0.071-0.021-0.111-0.035-0.111-0.035c0.269,0.217,0.632,0.324,0.97,0.255c0.342-0.059,0.611-0.249,0.833-0.431
		c0.107-0.087,0.225-0.198,0.292-0.273c0.004,0.001,0.026,0.012,0.122,0.061c0.243,0.088,0.473,0.14,0.683,0.138
		c0.418,0.008,0.729-0.112,0.905-0.23c0.092-0.052,0.144-0.119,0.185-0.151c0.037-0.037,0.057-0.056,0.057-0.056
		c-0.41,0.189-0.901,0.215-1.357,0.093c-0.117-0.021-0.222-0.071-0.331-0.108L39.327,17.751z M39.276,18.115
		C39.276,18.115,39.277,18.115,39.276,18.115C39.279,18.116,39.278,18.115,39.276,18.115z"/>
	<path fill="#85C2CC" d="M40.772,18.587c-0.115-0.063-0.215-0.133-0.286-0.188c-0.068-0.06-0.111-0.098-0.111-0.098
		c-0.001,0.256,0.142,0.474,0.304,0.602c0.16,0.137,0.359,0.17,0.508,0.162c0.058-0.008,0.102-0.023,0.146-0.039
		c0.074-0.026,0.136-0.058,0.17-0.096c0.06-0.054,0.079-0.09,0.079-0.09c-0.046-0.008-0.084-0.015-0.124-0.021
		c-0.109-0.018-0.211-0.034-0.309-0.073C41.017,18.708,40.889,18.648,40.772,18.587z"/>
	<path fill="#1E2B2D" d="M35.437,19.284c0,0-2.488-1.385-1.798-3.39c0,0-2.007-0.553-1.591-2.144c0,0-2.559-0.207-2.421-1.66
		c0,0-1.591-0.067-1.383-1.451c0,0-2.489,0.346-2.697-0.968c0,0-1.939,1.313-2.733,0c0,0-1.898,1.175-2.798,0
		c0,0-1.106,1.936-2.488,0.552c0,0-0.969,2.698-2.767,1.384c0,0-0.484,2.352-2.353,1.867c0,0,0.138,2.213-1.798,2.144
		c0,0,0.484,2.421-1.59,2.767c0,0,1.245,1.037,0,2.006c0,0,1.175,1.521-0.623,2.281c0,0,1.521,1.314,0,2.352
		c0,0,1.66,0.83,0.83,1.799c0,0,2.42,1.312,1.729,2.835c0,0,1.176,0.346,0.831,1.591c0,0,1.659-1.105,2.42,0.691
		c0,0,1.729-0.623,2.213,0.346c0,0,1.798-1.037,2.835,0.898c0,0,1.508-1.729,2.656,0c0,0,1.493-1.799,3.084-0.691
		c0,0,0.761-2.006,2.559-0.969c0,0,1.177-2.281,2.905-1.451c0,0,0.414-2.904,2.903-2.074c0,0,0.346-2.006,1.729-1.938
		c0,0-1.245-2.559,0.622-3.318C35.714,22.741,33.985,20.184,35.437,19.284z M11.303,17.04c0.208-1.345,4.633-4.465,5.323-4.396
		c0.692,0.069,5.603,6.984,5.43,7.713c-0.142,0.592-2.312,2.215-3.789,2.771c-0.341,0.127-0.646,0.2-0.879,0.188
		C16.419,23.273,11.095,18.385,11.303,17.04z M13.234,29.645c-1.591,0-5.12-5.773-2.831-8.513c1.313-1.571,3.457,0,4.947,2.089
		C16.542,24.893,15.351,29.645,13.234,29.645z M30.458,27.943c-1.288,0.838-2.689,1.656-4.15,2.279
		c-0.031,0.014-0.062,0.028-0.094,0.041c-0.043,0.019-0.09,0.034-0.134,0.053c-0.045,0.019-0.092,0.035-0.137,0.053l0,0
		c-0.726,0.291-1.462,0.527-2.205,0.691l0,0c-0.089,0.021-0.176,0.047-0.266,0.063c-0.28,0.056-0.565,0.112-0.854,0.168l0,0
		c-1.699,0.332-3.479,0.623-5.182,0.319c-0.133-0.023-0.266-0.053-0.396-0.082c-1-0.237-1.154-0.56-1.131-1.568
		c0.006-0.256,0.019-0.514,0.038-0.771c0.058-0.777,0.182-1.56,0.399-2.299c0.217-0.732,0.624-1.392,1.059-2.008
		c0.19-0.27,0.38-0.457,0.579-0.609c0.332-0.256,0.694-0.414,1.147-0.7c0.179-0.113,0.359-0.22,0.541-0.323
		c0.052-0.029,0.103-0.057,0.154-0.085c1.747-0.963,3.646-1.465,5.524-1.088c-0.002-0.002-0.003-0.003-0.004-0.005
		c0.1,0.021,0.199,0.041,0.3,0.064c0.013,0.004,0.025,0.008,0.039,0.012c0.142,0.037,0.283,0.08,0.423,0.125
		c0.049,0.017,0.096,0.033,0.144,0.051c0.112,0.041,0.224,0.084,0.335,0.131c0.048,0.02,0.096,0.04,0.144,0.061
		c0.146,0.066,0.296,0.139,0.442,0.217c0.006,0.002,0.011,0.004,0.016,0.007c1.453,0.784,2.544,1.378,3.611,2.702
		c0.285,0.354,0.841,0.942,0.765,1.451C31.491,27.404,30.861,27.68,30.458,27.943z M31.909,23.229
		c-0.565-0.179-0.975-0.613-1.516-0.814c-0.643-0.239-1.135,0.138-1.718-0.243c-0.44-0.288-0.671-0.749-1.175-0.968
		c-0.559-0.241-1.166-0.163-1.762-0.273c-0.718-0.134-1.001-0.748-1.644-1.076c-0.555-0.282-1.131-0.468-1.606-0.896
		c-0.817-0.733-1.589-1.957-2.217-2.854c-0.667-0.952-2.21-2.814-2.071-4.005c0.133-1.139,1.366-1.419,2.295-1.316
		c1.162,0.129,2.351,0.15,3.531,0.271c1.226,0.126,2.622,0.083,3.664,0.899c1.023,0.803,2.171,1.903,2.889,2.975
		c0.753,1.125,1.353,2.251,2.16,3.319c0.695,0.918,1.388,2.165,1.384,3.317C34.121,22.794,33.07,23.596,31.909,23.229z"/>
	<path fill="#FF6957" d="M25.65,22.137c0.013,0.004,0.025,0.008,0.039,0.012C25.677,22.145,25.663,22.141,25.65,22.137z"/>
	<path fill="#FF6957" d="M25.52,29.09c-0.84,0.391-1.706,0.704-2.583,0.896c0.269,0.326,0.536,0.682,0.802,1.072
		c0.743-0.164,1.479-0.399,2.205-0.69C25.844,29.916,25.7,29.49,25.52,29.09z"/>
	<path fill="#FF6957" d="M31.567,26.891c0.076-0.508-0.479-1.098-0.764-1.451c-1.068-1.323-2.159-1.918-3.612-2.701
		c-0.005-0.004-0.01-0.004-0.016-0.008c0.006,0.004,0.011,0.004,0.015,0.008c0.101,0.054,0.192,0.104,0.29,0.158
		c0.552,0.759,1.005,1.643,1.349,2.521c0.244,0.295,0.634,0.74,0.575,1.129c-0.016,0.1-0.057,0.189-0.114,0.27
		c0.165,0.621,0.271,1.199,0.302,1.674c-0.155,0.097-0.316,0.191-0.477,0.285c-0.005-0.524-0.106-1.057-0.271-1.576
		c-0.124,0.076-0.248,0.146-0.354,0.216c-0.752,0.489-1.554,0.968-2.384,1.39c0.287,0.812,0.298,1.355,0.299,1.375
		c-0.033,0.014-0.065,0.029-0.099,0.043c1.461-0.623,2.862-1.44,4.15-2.277C30.861,27.68,31.491,27.404,31.567,26.891z"/>
	<path fill="#FF6957" d="M17.438,30.368c-0.823-0.194-0.952-0.459-0.933-1.29c0.01-0.35,0.035-0.704,0.075-1.057
		c-0.172,0.076-0.348,0.162-0.529,0.26c0.069-0.473,0.164-0.939,0.299-1.391c0.02-0.064,0.047-0.125,0.068-0.189
		c0.125-0.01,0.265-0.018,0.413-0.018c0.014-0.045,0.021-0.093,0.034-0.138c0.179-0.604,0.514-1.146,0.873-1.653
		c0.418-0.593,0.826-0.701,1.423-1.078c0.012-0.01,0.024-0.017,0.037-0.023c-0.085-0.039-0.166-0.076-0.241-0.111
		c0.059-0.035,0.116-0.068,0.177-0.106c0.18-0.113,0.359-0.22,0.541-0.323c-0.182,0.104-0.362,0.21-0.541,0.323
		c-0.453,0.286-0.815,0.444-1.147,0.7c-0.199,0.152-0.389,0.341-0.579,0.609c-0.435,0.616-0.842,1.274-1.059,2.008
		c-0.219,0.739-0.343,1.521-0.399,2.299c-0.021,0.259-0.032,0.517-0.038,0.771c-0.023,1.01,0.131,1.331,1.131,1.568
		c0.132,0.029,0.265,0.059,0.396,0.082c1.702,0.304,3.481,0.013,5.182-0.319c-0.111-0.294-0.267-0.7-0.479-1.14
		C20.599,30.455,18.973,30.732,17.438,30.368z"/>
	<path fill="#FF6957" d="M20.169,23.25c1.797-0.876,3.758-1.133,5.629-0.124c0.386,0.206,0.733,0.397,1.064,0.599
		c-0.641-0.805-1.237-1.398-1.508-1.647c-1.88-0.377-3.777,0.125-5.524,1.088c0.019-0.013,0.038-0.021,0.059-0.03
		C19.982,23.172,20.076,23.212,20.169,23.25z"/>
	<path fill="#FF6957" d="M26.112,22.273c0.049,0.017,0.096,0.033,0.144,0.051C26.208,22.307,26.161,22.289,26.112,22.273z"/>
	<path fill="#FF6957" d="M26.214,30.264c-0.043,0.019-0.09,0.034-0.134,0.053C26.124,30.298,26.171,30.281,26.214,30.264z"/>
	<path fill="#FF6957" d="M26.591,22.454c0.048,0.021,0.096,0.04,0.144,0.062C26.686,22.494,26.638,22.475,26.591,22.454z"/>
	<path fill="#FF9A92" d="M17.739,24.895c-0.359,0.508-0.694,1.049-0.873,1.652c-0.013,0.045-0.021,0.092-0.034,0.139
		c1.4-0.011,3.785,0.479,6.104,3.301c0.877-0.191,1.743-0.506,2.583-0.896c-1.337-2.959-4.658-4.524-6.32-5.299
		c-0.013,0.008-0.025,0.015-0.037,0.022C18.565,24.191,18.157,24.301,17.739,24.895z"/>
	<path fill="#FF9A92" d="M17.438,30.368c1.535,0.364,3.161,0.087,4.702-0.216c-0.775-1.584-2.341-3.57-5.56-2.131
		c-0.04,0.353-0.065,0.707-0.075,1.057C16.485,29.909,16.614,30.174,17.438,30.368z"/>
	<path fill="#FF9A92" d="M25.798,23.126c-1.871-1.009-3.832-0.752-5.629,0.124c3.972,1.714,5.415,4.077,5.938,5.555
		c0.83-0.423,1.632-0.9,2.384-1.391c0.105-0.068,0.229-0.141,0.354-0.216c-0.411-1.296-1.228-2.529-1.981-3.476
		C26.531,23.523,26.183,23.332,25.798,23.126z"/>
	<path fill="#FF9A92" d="M29.404,26.547c0.059-0.389-0.331-0.834-0.575-1.129c0.188,0.477,0.34,0.948,0.461,1.398
		C29.348,26.736,29.389,26.646,29.404,26.547z"/>
	<path fill="#FFCDCC" d="M16.832,26.686c-0.148,0-0.288,0.006-0.413,0.017c-0.021,0.063-0.05,0.125-0.068,0.188
		c-0.135,0.451-0.229,0.92-0.299,1.392c0.183-0.099,0.357-0.185,0.529-0.261c3.219-1.438,4.783,0.547,5.56,2.133
		c0.214,0.438,0.368,0.845,0.479,1.139l0,0c0.287-0.057,0.572-0.113,0.854-0.168c0.09-0.018,0.177-0.044,0.266-0.062
		c0,0,0,0,0-0.002c-0.266-0.392-0.533-0.746-0.802-1.072C20.617,27.164,18.232,26.675,16.832,26.686z"/>
	<path fill="#FFCDCC" d="M26.106,28.805c-0.522-1.478-1.967-3.841-5.938-5.555c-0.093-0.038-0.187-0.078-0.28-0.116
		c-0.021,0.011-0.04,0.019-0.059,0.03c-0.053,0.027-0.104,0.056-0.154,0.085c-0.182,0.104-0.361,0.21-0.541,0.323
		c-0.061,0.037-0.118,0.072-0.177,0.107c0.075,0.034,0.156,0.071,0.241,0.11c1.662,0.774,4.983,2.34,6.32,5.299
		c0.181,0.4,0.323,0.826,0.424,1.278l0,0c0.045-0.018,0.092-0.034,0.137-0.053c0.044-0.019,0.091-0.034,0.134-0.053
		c0.031-0.013,0.062-0.027,0.094-0.042c0.032-0.014,0.064-0.028,0.099-0.043C26.404,30.159,26.394,29.616,26.106,28.805z"/>
	<path fill="#FFCDCC" d="M26.862,23.725c0.755,0.944,1.57,2.178,1.98,3.475c0.165,0.521,0.268,1.052,0.271,1.576
		c0.159-0.094,0.32-0.188,0.477-0.285c-0.031-0.475-0.137-1.053-0.302-1.674c-0.121-0.449-0.273-0.922-0.461-1.397
		c-0.344-0.88-0.797-1.764-1.349-2.522c-0.098-0.053-0.189-0.104-0.29-0.157c-0.004-0.003-0.009-0.005-0.015-0.007
		c-0.146-0.078-0.296-0.149-0.442-0.217c-0.048-0.021-0.097-0.041-0.144-0.061c-0.111-0.047-0.223-0.09-0.335-0.131
		c-0.048-0.018-0.095-0.034-0.144-0.051c-0.14-0.045-0.281-0.088-0.423-0.125c-0.014-0.004-0.026-0.008-0.039-0.012
		c-0.101-0.023-0.2-0.044-0.3-0.064c0.001,0.002,0.002,0.003,0.004,0.005C25.625,22.325,26.222,22.92,26.862,23.725z"/>
	<path fill="#E5DA15" d="M17.388,23.318c0.233,0.013,0.538-0.062,0.879-0.188c1.478-0.558,3.647-2.181,3.789-2.771
		c0.173-0.729-4.736-7.645-5.43-7.713c-0.69-0.069-5.115,3.051-5.323,4.396C11.095,18.385,16.419,23.273,17.388,23.318z
		 M11.789,16.649c0.155-1.01,3.479-3.352,3.996-3.299c0.521,0.052,4.203,5.241,4.073,5.788c-0.104,0.444-1.733,1.662-2.843,2.08
		c-0.257,0.097-0.484,0.15-0.659,0.142C15.63,21.326,11.633,17.656,11.789,16.649z"/>
	<path fill="#FFF13E" d="M17.016,21.218c1.108-0.418,2.737-1.636,2.843-2.08c0.13-0.547-3.554-5.736-4.073-5.788
		c-0.519-0.053-3.841,2.289-3.996,3.299c-0.156,1.008,3.841,4.678,4.567,4.71C16.531,21.368,16.76,21.314,17.016,21.218z"/>
	<path fill="#B7B17D" d="M15.351,23.221c-1.49-2.089-3.634-3.66-4.947-2.089c-2.29,2.738,1.24,8.513,2.831,8.513
		C15.351,29.645,16.542,24.893,15.351,23.221z M12.688,28.173c-1.234,0-3.973-4.479-2.196-6.604c1.02-1.219,2.682,0,3.837,1.621
		C15.254,24.486,14.329,28.173,12.688,28.173z"/>
	<path fill="#F7F2BA" d="M10.492,21.568c-1.776,2.125,0.961,6.604,2.196,6.604c1.642,0,2.565-3.688,1.642-4.983
		C13.174,21.568,11.511,20.35,10.492,21.568z"/>
	<path fill="#A0D179" d="M30.581,14.927c-0.718-1.071-1.864-2.172-2.889-2.975c-1.042-0.816-2.438-0.773-3.664-0.899
		c-1.182-0.121-2.369-0.143-3.531-0.271c-0.929-0.103-2.162,0.178-2.295,1.316c-0.139,1.19,1.404,3.053,2.071,4.005
		c0.628,0.896,1.398,2.12,2.217,2.854c0.477,0.429,1.053,0.614,1.606,0.896c0.643,0.329,0.926,0.942,1.644,1.075
		c0.596,0.111,1.203,0.033,1.762,0.274c0.504,0.219,0.733,0.68,1.175,0.968c0.583,0.381,1.075,0.004,1.718,0.243
		c0.541,0.201,0.949,0.637,1.516,0.815c1.161,0.367,2.212-0.436,2.216-1.664c0.004-1.153-0.688-2.4-1.384-3.318
		C31.933,17.178,31.334,16.052,30.581,14.927z M30.307,21.422c-0.444-0.141-0.767-0.48-1.188-0.64
		c-0.503-0.188-0.889,0.108-1.345-0.188c-0.348-0.228-0.526-0.588-0.921-0.76c-0.438-0.188-0.913-0.128-1.381-0.215
		c-0.562-0.105-0.784-0.586-1.288-0.843c-0.434-0.221-0.885-0.367-1.259-0.702c-0.641-0.575-1.244-1.534-1.735-2.235
		c-0.522-0.746-1.732-2.206-1.624-3.139c0.104-0.892,1.07-1.111,1.799-1.031c0.91,0.101,1.841,0.118,2.767,0.213
		c0.96,0.1,2.057,0.065,2.871,0.704c0.804,0.629,1.701,1.492,2.264,2.331c0.591,0.882,1.06,1.765,1.692,2.602
		c0.545,0.719,1.087,1.695,1.083,2.599C32.038,21.081,31.215,21.709,30.307,21.422z"/>
	<path fill="#C6EAA7" d="M29.265,14.917c-0.562-0.839-1.46-1.702-2.264-2.331c-0.814-0.639-1.911-0.604-2.871-0.704
		c-0.926-0.095-1.855-0.112-2.767-0.213c-0.729-0.08-1.694,0.14-1.799,1.031c-0.108,0.933,1.102,2.393,1.624,3.139
		c0.491,0.701,1.096,1.66,1.735,2.235c0.374,0.335,0.825,0.481,1.259,0.702c0.504,0.257,0.727,0.737,1.288,0.843
		c0.468,0.087,0.942,0.026,1.381,0.215c0.395,0.172,0.573,0.532,0.921,0.76c0.456,0.297,0.842,0.001,1.345,0.188
		c0.423,0.157,0.744,0.499,1.188,0.64c0.907,0.287,1.73-0.341,1.733-1.305c0.004-0.903-0.538-1.88-1.083-2.599
		C30.324,16.682,29.855,15.799,29.265,14.917z M22.793,16.008c-0.339-0.299-0.841-0.743-1.383-1.423
		c-0.262-0.347-0.568-0.732-0.716-1.299c-0.028-0.145-0.042-0.308,0.006-0.48c0.05-0.176,0.19-0.324,0.341-0.408
		c0.31-0.161,0.635-0.172,0.944-0.156c0.631,0.014,1.277,0.168,1.941,0.341c0.67,0.169,1.37,0.36,2.146,0.37
		c0,0-0.093,0.005-0.262,0.015c-0.086,0.004-0.191,0.015-0.313,0.015c-0.123-0.006-0.262-0.012-0.418-0.021
		c-0.311-0.023-0.681-0.074-1.093-0.146c-0.412-0.068-0.864-0.161-1.346-0.21c-0.241-0.033-0.488-0.037-0.741-0.04
		c-0.246,0.001-0.504,0.029-0.689,0.132c-0.088,0.054-0.152,0.115-0.179,0.207c-0.025,0.09-0.023,0.202-0.001,0.318
		c0.054,0.237,0.174,0.48,0.31,0.711c0.564,0.928,1.325,1.761,1.987,2.508C23.329,16.442,23.136,16.303,22.793,16.008z
		 M30.318,20.372c-0.079,0.097-0.208,0.155-0.317,0.167c-0.112,0.02-0.216,0.007-0.314-0.009c-0.199-0.036-0.379-0.103-0.558-0.175
		c-0.176-0.072-0.348-0.158-0.516-0.238c-0.172-0.075-0.346-0.152-0.521-0.229c-1.396-0.628-2.9-1.337-4.158-2.497
		c0,0,0.162,0.126,0.46,0.354c0.148,0.113,0.346,0.234,0.566,0.385c0.23,0.138,0.491,0.301,0.794,0.458
		c0.601,0.326,1.35,0.661,2.206,1.009c0.215,0.086,0.436,0.175,0.661,0.266c0.235,0.096,0.453,0.203,0.688,0.288
		c0.227,0.078,0.487,0.156,0.68,0.107c0.171-0.033,0.214-0.26,0.16-0.509c-0.271-1.012-0.913-2.019-1.775-2.816
		c-0.424-0.411-0.916-0.761-1.421-1.094l-0.39-0.234c-0.131-0.078-0.276-0.167-0.402-0.25l-0.778-0.506
		c-0.262-0.164-0.524-0.319-0.794-0.46c-0.268-0.135-0.55-0.266-0.816-0.305c-0.277-0.05-0.434,0.089-0.356,0.348
		c0.073,0.253,0.257,0.504,0.44,0.729c0.189,0.226,0.389,0.451,0.622,0.625l0.336,0.277c0.12,0.08,0.247,0.146,0.37,0.222
		c0.494,0.299,1.05,0.449,1.587,0.581c0,0-0.13-0.022-0.381-0.065c-0.257-0.033-0.625-0.135-1.095-0.321
		c-0.112-0.058-0.232-0.117-0.358-0.181c-0.062-0.033-0.129-0.063-0.193-0.101c-0.061-0.044-0.121-0.09-0.185-0.136
		c-0.126-0.094-0.261-0.191-0.396-0.295c-0.129-0.112-0.258-0.237-0.386-0.373c-0.128-0.135-0.255-0.282-0.373-0.449
		c-0.113-0.169-0.235-0.354-0.263-0.609c-0.013-0.062,0.005-0.135,0.017-0.202c0.032-0.065,0.062-0.139,0.118-0.184
		c0.099-0.109,0.259-0.147,0.386-0.153c0.264-0.003,0.495,0.081,0.727,0.168c0.917,0.37,1.758,1.026,2.767,1.593
		c0.986,0.631,2.004,1.479,2.707,2.689c0.099,0.144,0.156,0.312,0.236,0.47c0.08,0.161,0.149,0.318,0.21,0.489
		c0.062,0.17,0.116,0.348,0.146,0.541C30.473,19.934,30.487,20.171,30.318,20.372z"/>
	<path fill="#6D9947" d="M21.032,13.223c-0.022-0.116-0.024-0.229,0.001-0.318c0.025-0.092,0.091-0.153,0.179-0.207
		c0.187-0.104,0.443-0.131,0.689-0.132c0.253,0.003,0.5,0.007,0.741,0.04c0.48,0.049,0.934,0.142,1.346,0.21
		c0.412,0.071,0.782,0.122,1.093,0.146c0.156,0.009,0.295,0.015,0.418,0.021c0.122,0,0.229-0.011,0.313-0.015
		c0.169-0.01,0.262-0.015,0.262-0.015c-0.776-0.01-1.478-0.201-2.146-0.37c-0.665-0.173-1.312-0.327-1.942-0.341
		c-0.311-0.016-0.636-0.005-0.944,0.156c-0.149,0.084-0.291,0.232-0.341,0.408c-0.048,0.173-0.034,0.336-0.006,0.48
		c0.146,0.566,0.454,0.952,0.716,1.299c0.542,0.68,1.044,1.124,1.383,1.423c0.344,0.295,0.536,0.434,0.536,0.434
		c-0.662-0.747-1.423-1.58-1.987-2.508C21.206,13.703,21.086,13.46,21.032,13.223z"/>
	<path fill="#6D9947" d="M30.306,19.205c-0.061-0.171-0.131-0.328-0.21-0.489c-0.08-0.157-0.139-0.326-0.236-0.47
		c-0.703-1.211-1.721-2.059-2.707-2.689c-1.009-0.566-1.85-1.223-2.767-1.593c-0.23-0.087-0.463-0.171-0.727-0.168
		c-0.127,0.006-0.287,0.044-0.386,0.153c-0.058,0.045-0.086,0.118-0.118,0.184c-0.012,0.067-0.028,0.141-0.017,0.202
		c0.026,0.256,0.148,0.44,0.263,0.609c0.118,0.167,0.245,0.314,0.373,0.449c0.128,0.136,0.257,0.261,0.386,0.373
		c0.137,0.104,0.271,0.201,0.396,0.295c0.062,0.046,0.124,0.092,0.185,0.136c0.064,0.037,0.131,0.067,0.193,0.101
		c0.126,0.063,0.246,0.123,0.358,0.181c0.47,0.187,0.838,0.288,1.095,0.321c0.251,0.043,0.381,0.065,0.381,0.065
		c-0.537-0.132-1.094-0.282-1.587-0.581c-0.123-0.075-0.25-0.142-0.37-0.222l-0.336-0.277c-0.233-0.174-0.433-0.399-0.622-0.625
		c-0.185-0.225-0.367-0.476-0.44-0.729c-0.076-0.259,0.079-0.397,0.356-0.348c0.268,0.039,0.55,0.17,0.816,0.305
		c0.27,0.141,0.532,0.296,0.794,0.46l0.778,0.506c0.126,0.083,0.271,0.172,0.402,0.25l0.39,0.234
		c0.505,0.333,0.997,0.683,1.421,1.094c0.862,0.798,1.505,1.805,1.775,2.816c0.054,0.249,0.011,0.477-0.16,0.509
		c-0.191,0.048-0.453-0.03-0.68-0.108c-0.234-0.083-0.452-0.19-0.688-0.287c-0.227-0.091-0.446-0.18-0.661-0.266
		c-0.856-0.348-1.605-0.683-2.206-1.009c-0.303-0.157-0.562-0.32-0.794-0.458c-0.222-0.15-0.418-0.271-0.566-0.385
		c-0.299-0.229-0.46-0.354-0.46-0.354c1.258,1.16,2.764,1.869,4.158,2.497c0.177,0.077,0.351,0.154,0.521,0.229
		c0.168,0.079,0.34,0.166,0.516,0.237c0.179,0.073,0.357,0.14,0.558,0.176c0.1,0.016,0.202,0.027,0.314,0.009
		c0.109-0.011,0.238-0.07,0.317-0.167c0.169-0.201,0.154-0.438,0.133-0.626C30.423,19.553,30.368,19.375,30.306,19.205z"/>
</g>
</svg>
