<?xml version="1.0" encoding="utf-8"?>
<!-- Generator: Adobe Illustrator 16.0.0, SVG Export Plug-In . SVG Version: 6.00 Build 0)  -->
<!DOCTYPE svg PUBLIC "-//W3C//DTD SVG 1.1//EN" "http://www.w3.org/Graphics/SVG/1.1/DTD/svg11.dtd">
<svg version="1.1" id="Layer_1" xmlns="http://www.w3.org/2000/svg" xmlns:xlink="http://www.w3.org/1999/xlink" x="0px" y="0px"
	 width="56.406px" height="40.379px" viewBox="0 0 56.406 40.379" enable-background="new 0 0 56.406 40.379" xml:space="preserve">
<g>
	<path fill="none" d="M0,0v39.182h58.629V0H0z M58.563,23.474c-0.229-0.018-1.257-0.166-2.995-1.349
		c-0.225-0.152-0.607-0.319-1.102-0.491c-0.184-0.064-0.379-0.129-0.595-0.194c0-0.001,0-0.001,0-0.001
		c-0.01-0.002-0.02-0.005-0.029-0.008c0.103,1.619-2.045,2.825-2.045,2.825c0.893,1.685-1.268,2.483-1.268,2.483
		c-0.123,1.354-1.56,1.539-1.56,1.539c-0.145,2.712-3.007,2.665-3.007,2.665c-0.146,2.606-2.499,2.673-2.499,2.673
		c-0.863,2.804-3.813,1.711-3.813,1.711c-0.343,2.291-2.057,0.802-2.057,0.802c-0.651,2.286-2.373,1.188-2.373,1.188
		c-0.842,1.525-2.79,0.743-2.79,0.743c-0.954,2.177-2.901,0.368-2.901,0.368c-3.204,2.047-4.135-0.728-4.135-0.728
		c-1.662,1.643-3.375-0.056-3.375-0.056c-2.069,1.429-3.877-0.689-3.877-0.689c-1.889,0.698-2.809-0.221-3.251-1.119
		c-1.283,0.935-1.721,1.043-3.68,1.147c-0.224,0.013-0.527-0.099-0.885-0.29c-1.55-0.833-4.122-3.188-5.735-3.626
		c-0.547-0.149-1.081-0.288-1.575-0.428c-0.086-0.024-0.169-0.05-0.253-0.074c-0.117-0.034-0.234-0.069-0.344-0.104
		c-0.098-0.031-0.188-0.063-0.28-0.095c-0.089-0.03-0.182-0.061-0.265-0.093c-0.125-0.047-0.237-0.096-0.347-0.146
		c-0.039-0.018-0.085-0.034-0.123-0.052c0-0.001-0.001-0.001-0.001-0.001h0c-0.446-0.218-0.735-0.463-0.785-0.765
		c-0.132-0.812,1.722-1.894,2.913-4.594c0.217-0.491,0.642-1.415,1.271-2.619c0.346-0.666,0.754-1.415,1.228-2.231
		c1.348-2.324,3.212-5.161,5.587-7.954c0.416-0.489,0.847-0.976,1.295-1.459c0.62-0.668,1.265-1.329,1.945-1.974
		c0.92-0.871,1.895-1.712,2.926-2.505c0.688-0.529,1.399-1.035,2.136-1.514c0.764-0.497,1.556-0.962,2.374-1.392
		c1.153-0.607,2.357-1.145,3.616-1.589c0.202-0.071,0.41-0.122,0.616-0.186c0.007,0,0.015,0.001,0.022,0.001
		c4.719-1.454,10.052-0.813,15.004,1.117c-0.002-0.003-0.003-0.006-0.005-0.009c0.221,0.086,0.438,0.178,0.656,0.269
		c0.136,0.056,0.272,0.111,0.408,0.169c0.337,0.145,0.671,0.298,1.003,0.454c0.085,0.041,0.172,0.078,0.258,0.119
		c0.031,0.016,0.064,0.03,0.098,0.046c0,0.001,0.001,0.003,0.002,0.005c8.362,4.056,15.033,11.55,14.642,18.01
		C58.613,23.477,58.596,23.477,58.563,23.474z"/>
	<path fill="#D9F3F9" d="M49.229,20.378C49.228,20.377,49.228,20.377,49.229,20.378c-1.044-0.19-2.147-0.364-3.266-0.514
		c0.089,0.09,0.155,0.192,0.205,0.299c0.033,0.02,0.068,0.035,0.102,0.056c1.256,0.808,1.23,1.148-0.071,1.32
		c-0.052,0.191-0.104,0.319-0.104,0.319c0.405,0.361,0.614,0.715,0.695,1.05c0.014-0.022,0.029-0.037,0.041-0.059
		c0.243-0.379,0.284-0.971,0.435-1.468c0,0,0.023,0.059,0.054,0.173c0.033,0.113,0.06,0.283,0.063,0.507
		c-0.014,0.221-0.037,0.513-0.222,0.797c-0.08,0.132-0.195,0.25-0.328,0.349c0.025,1.224-1.585,2.128-1.585,2.128
		c0.204,0.384,0.199,0.707,0.096,0.974c0.126,0.008,0.263,0.008,0.409-0.007c0.625-0.051,1.391-0.359,1.645-1.007
		c0,0,0.01,0.08-0.01,0.241c-0.027,0.156-0.122,0.399-0.357,0.614c-0.126,0.112-0.29,0.214-0.479,0.291
		c0.031,0.117,0.088,0.401-0.072,0.825c-0.114,0.272-0.369,0.583-0.759,0.746c-0.383,0.169-0.889,0.171-1.333-0.04
		c0,0,0.028,0.001,0.083,0.004c0.053,0.003,0.128,0.008,0.224,0.001c0.188-0.008,0.452-0.043,0.721-0.152
		c0.272-0.105,0.535-0.299,0.732-0.552c0.177-0.238,0.29-0.526,0.366-0.819c-0.153,0.06-0.322,0.104-0.508,0.118
		c-0.216,0.021-0.448,0-0.684-0.061c-0.022-0.006-0.043-0.018-0.064-0.024c-0.315,0.517-0.988,0.768-0.988,0.768
		c-0.096,1.048-1.204,1.189-1.204,1.189c-0.113,2.096-2.326,2.06-2.326,2.06c-0.08,1.467-1.064,1.892-1.595,2.016
		c-0.115,0.078-0.246,0.145-0.391,0.195c-0.726,1.974-2.892,1.179-2.892,1.179c-0.266,1.77-3.426,1.537-3.426,1.537
		c-0.651,1.18-2.155,0.575-2.155,0.575c-0.739,1.682-2.245,0.284-2.245,0.284c-2.477,1.582-3.196-0.562-3.196-0.562
		c-1.285,1.271-2.607-0.043-2.607-0.043c-1.6,1.104-2.998-0.533-2.998-0.533c-0.229,0.085-0.432,0.13-0.626,0.158
		c-0.327,0.379-0.644,0.771-0.952,1.177c0.014,0.024,0.027,0.053,0.04,0.077h-0.104c0.021-0.025,0.042-0.051,0.063-0.077
		c-0.087-0.151-0.174-0.305-0.245-0.466c-0.166-0.378-0.258-0.773-0.302-1.175c-0.133-0.138-0.242-0.291-0.33-0.45
		c-0.208,0.173-0.39,0.318-0.535,0.427c-0.558,0.42-0.986,0.748-1.352,1.014c0.442,0.898,1.362,1.817,3.251,1.119
		c0,0,1.808,2.118,3.877,0.689c0,0,1.712,1.698,3.375,0.056c0,0,0.931,2.774,4.135,0.728c0,0,1.947,1.809,2.901-0.368
		c0,0,1.948,0.782,2.79-0.743c0,0,1.722,1.098,2.373-1.188c0,0,1.714,1.489,2.057-0.802c0,0,2.95,1.093,3.813-1.711
		c0,0,2.354-0.066,2.499-2.673c0,0,2.862,0.047,3.007-2.665c0,0,1.437-0.185,1.56-1.539c0,0,2.16-0.799,1.268-2.483
		c0,0,2.147-1.206,2.045-2.825c-0.83-0.251-1.881-0.508-3.059-0.752C50.286,20.576,49.766,20.474,49.229,20.378z M48.729,24.469
		c0.039-0.08,0.089-0.194,0.134-0.322c0.098-0.255,0.138-0.563,0.255-0.871c0,0,0.028,0.033,0.063,0.1
		c0.038,0.066,0.075,0.17,0.09,0.31c0.006,0.138-0.009,0.319-0.108,0.494c-0.096,0.177-0.269,0.342-0.499,0.425
		C48.663,24.604,48.688,24.553,48.729,24.469z M49.673,25.361c-0.038,0.266-0.159,0.595-0.419,0.875
		c-0.251,0.28-0.653,0.521-1.107,0.521c0,0,0.023-0.012,0.068-0.032c0.045-0.02,0.107-0.051,0.18-0.097
		c0.149-0.089,0.34-0.236,0.519-0.44c0.364-0.408,0.619-1.03,0.604-1.624C49.5,24.56,49.737,24.805,49.673,25.361z"/>
	<path fill="#FFFFFF" d="M46.168,20.163c-0.05-0.107-0.116-0.209-0.205-0.299c-0.202-0.027-0.404-0.053-0.606-0.079
		C45.644,19.889,45.917,20.013,46.168,20.163z"/>
	<path fill="#FFFFFF" d="M16.779,34.396c0.088,0.159,0.197,0.312,0.33,0.45c-0.024-0.233-0.03-0.47-0.022-0.707
		C16.978,34.23,16.875,34.317,16.779,34.396z"/>
	<path fill="#FFFFFF" d="M39.91,21.676c-0.144,0.171-0.33,0.335-0.562,0.465c-0.179,0.104-0.383,0.187-0.608,0.237
		c-0.22,0.048-0.48,0.078-0.709-0.011c0,0,0.114,0.009,0.297-0.046c0.182-0.052,0.431-0.161,0.69-0.322
		c0.149-0.091,0.302-0.201,0.448-0.323c-0.882-0.001-1.763,0.012-2.643,0.083c-4.479,0.367-7.069,3.566-10.312,6.344
		c-2.752,2.358-5.551,4.479-7.904,7.208c0.195-0.028,0.397-0.073,0.626-0.158c0,0,1.398,1.638,2.998,0.533
		c0,0,1.323,1.313,2.607,0.043c0,0,0.719,2.144,3.196,0.562c0,0,1.505,1.397,2.245-0.284c0,0,1.504,0.604,2.155-0.575
		c0,0,3.16,0.232,3.426-1.537c0,0,2.166,0.795,2.892-1.179c-0.448,0.158-1.015,0.181-1.584-0.014c0,0,0.483,0.013,1.083-0.15
		c0.298-0.076,0.625-0.198,0.878-0.395c0.26-0.191,0.387-0.5,0.39-0.839c0,0,0.034,0.068,0.083,0.221
		c0.023,0.145,0.045,0.414-0.143,0.683c-0.08,0.113-0.189,0.211-0.316,0.299c0.53-0.124,1.515-0.549,1.595-2.016
		c0,0,2.213,0.036,2.326-2.06c0,0,1.108-0.142,1.204-1.189c0,0,0.673-0.251,0.988-0.768c-0.213-0.063-0.429-0.166-0.597-0.334
		c0.004-0.007,0.11,0.061,0.307,0.104c0.104,0.026,0.233,0.043,0.377,0.052c0.104-0.267,0.108-0.59-0.096-0.974
		c0,0,1.61-0.904,1.585-2.128c-0.157,0.115-0.341,0.203-0.544,0.242c0,0,0.068-0.059,0.181-0.158
		c0.062-0.042,0.116-0.113,0.181-0.187c0.054-0.052,0.097-0.125,0.14-0.196c-0.081-0.335-0.29-0.688-0.695-1.05
		c0,0,0.053-0.128,0.104-0.319c-0.477,0.063-1.121,0.104-1.942,0.136C42.808,21.731,41.36,21.688,39.91,21.676z M27.1,32.029
		c0.156,0.032,0.377,0.041,0.611-0.02c0.235-0.057,0.477-0.187,0.678-0.367c0.202-0.184,0.356-0.418,0.471-0.674
		c-0.017-0.01,0.113,0.293-0.16,0.747c-0.137,0.214-0.39,0.443-0.744,0.532c-0.346,0.096-0.804,0.019-1.106-0.285
		C26.853,31.957,26.943,32.003,27.1,32.029z M30.419,32.952c-0.059,0.121-0.176,0.241-0.3,0.399c-0.078,0.062-0.164,0.129-0.255,0.2
		c-0.09,0.076-0.207,0.115-0.322,0.178c-0.239,0.105-0.521,0.172-0.827,0.209c-0.151,0.015-0.312,0.028-0.472,0.035l-0.029,0.002
		l-0.001-0.001h-0.001c-0.001,0.003,0.002-0.006-0.011,0.023c-0.037,0.083-0.076,0.166-0.123,0.247
		c-0.182,0.321-0.424,0.641-0.756,0.895c-0.166,0.124-0.358,0.233-0.571,0.281c-0.212,0.052-0.444,0.024-0.632-0.084
		c-0.002-0.016,0.206,0.103,0.528-0.003c0.321-0.092,0.693-0.43,0.984-0.899c0.074-0.116,0.143-0.242,0.208-0.373
		c0.028-0.066,0.06-0.133,0.085-0.201l0.041-0.102l0.022-0.055c0.005-0.019,0.01-0.04,0.035-0.034l0.201-0.014
		c0.312-0.021,0.62-0.04,0.92-0.104c0.305-0.051,0.576-0.181,0.827-0.338c0.117-0.088,0.228-0.19,0.338-0.29
		c0.09-0.115,0.183-0.229,0.275-0.344C30.584,32.581,30.536,32.708,30.419,32.952z M33.573,27.596
		c-0.275-0.032-0.546-0.107-0.846-0.162c0,0,0.146-0.021,0.386-0.026c0.239-0.012,0.583,0.013,0.915-0.088
		c0.33-0.089,0.634-0.379,0.84-0.724c0.209-0.344,0.278-0.76,0.217-1.15c0,0,0.052,0.076,0.124,0.247
		c0.056,0.172,0.11,0.461,0.005,0.816c-0.03,0.085-0.058,0.181-0.108,0.268c-0.023,0.046-0.05,0.09-0.074,0.138
		c-0.032,0.044-0.063,0.087-0.097,0.132c-0.062,0.093-0.153,0.168-0.238,0.252c-0.1,0.07-0.2,0.154-0.322,0.2
		C34.133,27.619,33.844,27.629,33.573,27.596z M36.603,32.146c-0.189,0.183-0.491,0.342-0.845,0.385
		c-0.354,0.053-0.752,0.008-1.176-0.1c0,0,0.102-0.017,0.271-0.043c0.173-0.026,0.41-0.058,0.67-0.112
		c0.261-0.051,0.541-0.133,0.786-0.27c0.247-0.139,0.454-0.342,0.629-0.57C36.924,31.422,36.977,31.752,36.603,32.146z
		 M40.246,25.28c-0.081,0.143-0.212,0.276-0.371,0.391c0.01,0.04,0.021,0.084,0.035,0.151c0.042,0.167,0.05,0.426-0.023,0.752
		c-0.051,0.157-0.096,0.344-0.216,0.511c-0.061,0.083-0.103,0.185-0.184,0.26c-0.079,0.079-0.161,0.158-0.247,0.238
		c-0.374,0.29-0.895,0.468-1.451,0.444c0,0,0.125-0.043,0.334-0.116c0.051-0.019,0.109-0.032,0.166-0.06
		c0.058-0.03,0.118-0.063,0.183-0.098c0.064-0.033,0.131-0.068,0.202-0.104c0.062-0.048,0.127-0.097,0.195-0.149
		c0.145-0.09,0.256-0.233,0.383-0.363c0.066-0.063,0.103-0.152,0.158-0.227c0.053-0.078,0.11-0.152,0.142-0.245l0.119-0.259
		c0.025-0.092,0.05-0.185,0.075-0.276c0.034-0.091,0.048-0.185,0.057-0.278c0.008-0.05,0.017-0.1,0.025-0.149
		c-0.117,0.077-0.247,0.147-0.392,0.2c-0.369,0.128-0.811,0.173-1.283,0.112c0,0,0.109-0.03,0.292-0.077
		c0.179-0.053,0.43-0.127,0.699-0.235c0.268-0.109,0.554-0.261,0.776-0.467c0.217-0.21,0.351-0.497,0.392-0.812
		c0,0,0.027,0.068,0.06,0.213C40.387,24.776,40.401,25.02,40.246,25.28z M42.688,24.791c-0.027,0.071-0.055,0.146-0.087,0.223
		c-0.029,0.081-0.066,0.162-0.123,0.234c-0.054,0.077-0.112,0.154-0.171,0.234c-0.073,0.07-0.155,0.137-0.235,0.205
		c-0.343,0.259-0.834,0.4-1.336,0.327c0,0,0.116-0.033,0.308-0.087c0.098-0.017,0.201-0.074,0.318-0.129
		c0.124-0.042,0.239-0.128,0.363-0.214c0.52-0.338,0.827-1.053,0.973-1.704c0,0,0.019,0.076,0.038,0.229
		C42.767,24.266,42.756,24.496,42.688,24.791z"/>
	<path fill="#72BDC1" d="M27.956,32.248c0.354-0.089,0.607-0.318,0.744-0.532c0.273-0.454,0.144-0.757,0.16-0.747
		c-0.114,0.256-0.269,0.49-0.471,0.674c-0.201,0.181-0.443,0.311-0.678,0.367c-0.234,0.061-0.456,0.052-0.611,0.02
		c-0.157-0.026-0.248-0.072-0.25-0.066C27.152,32.267,27.61,32.344,27.956,32.248z"/>
	<path fill="#72BDC1" d="M29.971,33.215c-0.251,0.157-0.522,0.287-0.827,0.338c-0.3,0.063-0.607,0.083-0.92,0.104l-0.201,0.014
		c-0.025-0.006-0.03,0.016-0.035,0.034l-0.022,0.055l-0.041,0.102c-0.025,0.068-0.057,0.135-0.085,0.201
		c-0.065,0.131-0.134,0.257-0.208,0.373c-0.291,0.47-0.663,0.808-0.984,0.899c-0.322,0.105-0.53-0.013-0.528,0.003
		c0.188,0.108,0.419,0.136,0.632,0.084c0.212-0.048,0.405-0.157,0.571-0.281c0.333-0.254,0.574-0.573,0.756-0.895
		c0.047-0.081,0.086-0.164,0.123-0.247c0.013-0.029,0.01-0.021,0.011-0.023h0.001l0.001,0.001l0.029-0.002
		c0.16-0.007,0.32-0.021,0.472-0.035c0.307-0.037,0.588-0.104,0.827-0.209c0.115-0.062,0.232-0.102,0.322-0.178
		c0.091-0.071,0.177-0.138,0.255-0.2c0.124-0.158,0.241-0.278,0.3-0.399c0.117-0.244,0.165-0.371,0.165-0.371
		c-0.093,0.114-0.186,0.229-0.275,0.344C30.198,33.024,30.088,33.127,29.971,33.215z"/>
	<path fill="#72BDC1" d="M34.935,27.046c0.033-0.045,0.064-0.088,0.097-0.132c0.024-0.048,0.051-0.092,0.074-0.138
		c0.051-0.087,0.078-0.183,0.108-0.268c0.105-0.355,0.051-0.645-0.005-0.816c-0.072-0.171-0.124-0.247-0.124-0.247
		c0.062,0.391-0.008,0.807-0.217,1.15c-0.206,0.345-0.51,0.635-0.84,0.724c-0.332,0.101-0.676,0.076-0.915,0.088
		c-0.24,0.006-0.386,0.026-0.386,0.026c0.3,0.055,0.57,0.13,0.846,0.162c0.271,0.033,0.56,0.023,0.801-0.098
		c0.122-0.046,0.223-0.13,0.322-0.2C34.781,27.214,34.873,27.139,34.935,27.046z"/>
	<path fill="#72BDC1" d="M38.327,22.321c-0.183,0.055-0.297,0.046-0.297,0.046c0.229,0.089,0.489,0.059,0.709,0.011
		c0.226-0.051,0.43-0.134,0.608-0.237c0.232-0.13,0.419-0.294,0.562-0.465c-0.148,0-0.297,0-0.444,0
		c-0.146,0.122-0.299,0.232-0.448,0.323C38.758,22.16,38.509,22.27,38.327,22.321z"/>
	<path fill="#72BDC1" d="M40.313,24.424c-0.041,0.314-0.175,0.602-0.392,0.812c-0.223,0.206-0.509,0.357-0.776,0.467
		c-0.27,0.108-0.521,0.183-0.699,0.235c-0.183,0.047-0.292,0.077-0.292,0.077c0.473,0.061,0.914,0.016,1.283-0.112
		c0.145-0.053,0.274-0.123,0.392-0.2c0.006-0.044,0.014-0.086,0.021-0.13c0,0,0.012,0.039,0.026,0.099
		c0.159-0.114,0.29-0.248,0.371-0.391c0.154-0.261,0.141-0.504,0.126-0.644C40.34,24.492,40.313,24.424,40.313,24.424z"/>
	<path fill="#72BDC1" d="M39.828,25.702c-0.009,0.05-0.018,0.1-0.025,0.149c-0.009,0.094-0.022,0.188-0.057,0.278
		c-0.025,0.092-0.05,0.185-0.075,0.276l-0.119,0.259c-0.031,0.093-0.089,0.167-0.142,0.245c-0.056,0.074-0.092,0.163-0.158,0.227
		c-0.127,0.13-0.238,0.273-0.383,0.363c-0.068,0.053-0.133,0.102-0.195,0.149c-0.071,0.036-0.138,0.071-0.202,0.104
		c-0.064,0.034-0.125,0.067-0.183,0.098c-0.057,0.027-0.115,0.041-0.166,0.06c-0.209,0.073-0.334,0.116-0.334,0.116
		c0.557,0.023,1.077-0.154,1.451-0.444c0.086-0.08,0.168-0.159,0.247-0.238c0.081-0.075,0.123-0.177,0.184-0.26
		c0.12-0.167,0.165-0.354,0.216-0.511c0.073-0.326,0.065-0.585,0.023-0.752c-0.015-0.067-0.025-0.111-0.035-0.151
		c-0.015-0.06-0.026-0.099-0.026-0.099C39.842,25.616,39.834,25.658,39.828,25.702z"/>
	<path fill="#72BDC1" d="M36.31,32.006c-0.245,0.137-0.525,0.219-0.786,0.27c-0.26,0.055-0.497,0.086-0.67,0.112
		c-0.17,0.026-0.271,0.043-0.271,0.043c0.424,0.107,0.821,0.152,1.176,0.1c0.354-0.043,0.655-0.202,0.845-0.385
		c0.374-0.394,0.321-0.724,0.336-0.71C36.764,31.664,36.557,31.867,36.31,32.006z"/>
	<path fill="#72BDC1" d="M39.602,31.538c-0.049-0.152-0.083-0.221-0.083-0.221c-0.003,0.339-0.13,0.647-0.39,0.839
		c-0.253,0.196-0.58,0.318-0.878,0.395c-0.6,0.163-1.083,0.15-1.083,0.15c0.569,0.194,1.136,0.172,1.584,0.014
		c0.145-0.051,0.275-0.117,0.391-0.195c0.127-0.088,0.236-0.186,0.316-0.299C39.647,31.952,39.625,31.683,39.602,31.538z"/>
	<path fill="#72BDC1" d="M44.659,26.153c0.168,0.168,0.384,0.271,0.597,0.334c0.021,0.007,0.042,0.019,0.064,0.024
		c0.235,0.061,0.468,0.082,0.684,0.061c0.186-0.014,0.354-0.059,0.508-0.118c0.007-0.024,0.019-0.049,0.023-0.073
		c-0.005-0.002,0.003,0.02,0.015,0.061c0.189-0.077,0.354-0.179,0.479-0.291c0.235-0.215,0.33-0.458,0.357-0.614
		c0.02-0.161,0.01-0.241,0.01-0.241c-0.254,0.647-1.02,0.956-1.645,1.007c-0.146,0.015-0.283,0.015-0.409,0.007
		c-0.144-0.009-0.273-0.025-0.377-0.052C44.77,26.214,44.663,26.146,44.659,26.153z"/>
	<path fill="#72BDC1" d="M46.512,26.454c-0.076,0.293-0.189,0.581-0.366,0.819c-0.197,0.253-0.46,0.446-0.732,0.552
		c-0.269,0.109-0.532,0.145-0.721,0.152c-0.096,0.007-0.171,0.002-0.224-0.001c-0.055-0.003-0.083-0.004-0.083-0.004
		c0.444,0.211,0.95,0.209,1.333,0.04c0.39-0.163,0.645-0.474,0.759-0.746c0.16-0.424,0.104-0.708,0.072-0.825
		c-0.012-0.041-0.02-0.062-0.015-0.061C46.531,26.405,46.519,26.43,46.512,26.454z"/>
	<path fill="#72BDC1" d="M42.698,23.881c-0.146,0.651-0.453,1.366-0.973,1.704c-0.124,0.086-0.239,0.172-0.363,0.214
		c-0.117,0.055-0.221,0.112-0.318,0.129c-0.191,0.054-0.308,0.087-0.308,0.087c0.502,0.073,0.993-0.068,1.336-0.327
		c0.08-0.068,0.162-0.135,0.235-0.205c0.059-0.08,0.117-0.157,0.171-0.234c0.057-0.072,0.094-0.153,0.123-0.234
		c0.032-0.076,0.06-0.151,0.087-0.223c0.068-0.295,0.079-0.525,0.048-0.681C42.716,23.957,42.698,23.881,42.698,23.881z"/>
	<path fill="#72BDC1" d="M46.469,23.291c-0.112,0.1-0.181,0.158-0.181,0.158c0.203-0.039,0.387-0.127,0.544-0.242
		c0.133-0.099,0.248-0.217,0.328-0.349c0.185-0.284,0.208-0.576,0.222-0.797c-0.004-0.224-0.03-0.394-0.063-0.507
		c-0.03-0.114-0.054-0.173-0.054-0.173c-0.15,0.497-0.191,1.089-0.435,1.468c-0.012,0.021-0.027,0.036-0.041,0.059
		c-0.043,0.071-0.086,0.145-0.14,0.196C46.585,23.178,46.531,23.249,46.469,23.291z"/>
	<path fill="#72BDC1" d="M48.913,26.188c-0.179,0.204-0.369,0.352-0.519,0.44c-0.072,0.046-0.135,0.077-0.18,0.097
		c-0.045,0.021-0.068,0.032-0.068,0.032c0.454,0,0.856-0.241,1.107-0.521c0.26-0.28,0.381-0.609,0.419-0.875
		c0.063-0.557-0.173-0.802-0.156-0.797C49.532,25.158,49.278,25.78,48.913,26.188z"/>
	<path fill="#72BDC1" d="M49.162,24.179c0.1-0.175,0.114-0.356,0.108-0.494c-0.015-0.14-0.052-0.243-0.09-0.31
		c-0.035-0.066-0.063-0.1-0.063-0.1c-0.117,0.308-0.157,0.616-0.255,0.871c-0.045,0.128-0.095,0.242-0.134,0.322
		c-0.041,0.084-0.065,0.135-0.065,0.135C48.894,24.521,49.067,24.355,49.162,24.179z"/>
	<path fill="#D9F3F9" d="M17.695,36.564c-0.013-0.024-0.026-0.053-0.04-0.077c-0.021,0.026-0.042,0.052-0.063,0.077H17.695z"/>
	<path fill="#D9F3F9" d="M36.689,19.511c-0.136,0.02-0.274,0.038-0.401,0.062c-0.254,0.047-0.499,0.098-0.712,0.162
		c-0.866,0.26-2.051,0.938-3.409,1.867c-1.366,0.934-2.909,2.124-4.491,3.411c-1.588,1.292-3.211,2.679-4.729,3.998v0.001
		c-0.81,0.706-1.588,1.39-2.317,2.03c-1.381,1.217-2.576,2.277-3.431,3.003c-0.041,0.034-0.075,0.062-0.113,0.095
		c-0.007,0.237-0.002,0.474,0.022,0.707c0.044,0.401,0.136,0.797,0.302,1.175c0.07,0.161,0.157,0.314,0.245,0.466
		c0.309-0.405,0.625-0.798,0.952-1.177c2.353-2.729,5.152-4.85,7.904-7.208c3.243-2.777,5.834-5.977,10.312-6.344
		c0.88-0.071,1.761-0.084,2.643-0.083c0.147,0,0.296,0,0.444,0c1.449,0.012,2.897,0.056,4.346-0.001
		c0.821-0.032,1.466-0.072,1.942-0.136c1.302-0.172,1.327-0.512,0.071-1.32c-0.033-0.021-0.068-0.036-0.102-0.056
		c-0.251-0.15-0.524-0.274-0.812-0.378C42.111,19.38,38.839,19.205,36.689,19.511z"/>
	<path fill="#FF9C0D" d="M22.903,5.643c0.468-0.164,0.954-0.326,1.455-0.485c-1.24-0.114-2.03-0.089-2.064-0.087
		c-0.817,0.43-1.61,0.895-2.374,1.392c-0.737,0.479-1.448,0.985-2.136,1.514c-1.031,0.792-2.006,1.634-2.926,2.505
		c-0.68,0.645-1.325,1.306-1.945,1.974c0.51-0.122,1-0.222,1.479-0.308C17.272,9.035,20.314,6.553,22.903,5.643z"/>
	<path fill="#FF9C0D" d="M42.338,5.664c-0.293-0.462-0.558-0.886-0.787-1.25c-4.952-1.93-10.285-2.571-15.004-1.117
		c1.188,0.046,2.3,0.25,3.333,0.566C33.791,3.307,38.124,3.532,42.338,5.664z"/>
	<path fill="#FF9C0D" d="M43.971,5.467c0.327,0.708,0.775,1.378,1.311,2.029c2.229,1.667,3.477,3.013,4.024,4.073
		c1.427,1.407,2.817,2.943,3.782,4.815c1.188,2.301,1.372,4.284,1.378,5.25c0.494,0.172,0.877,0.339,1.102,0.491
		c1.738,1.183,2.767,1.331,2.995,1.349c0.033,0.003,0.05,0.003,0.05,0.003C59.004,17.017,52.333,9.523,43.971,5.467z"/>
	<path fill="#FF9C0D" d="M12.921,13.807c-0.5,0.029-0.936,0.067-1.303,0.107c-2.375,2.793-4.24,5.63-5.587,7.954
		c0.399-0.072,0.814-0.129,1.243-0.171C8.826,19.071,10.797,16.306,12.921,13.807z"/>
	<path fill="#FF9C0D" d="M2.764,32.566c-0.117-0.034-0.233-0.069-0.344-0.104C2.53,32.497,2.647,32.532,2.764,32.566z"/>
	<path fill="#FF9C0D" d="M2.139,32.368c-0.09-0.03-0.182-0.062-0.265-0.093C1.957,32.308,2.05,32.338,2.139,32.368z"/>
	<path fill="#FF9C0D" d="M1.528,32.13c-0.039-0.018-0.085-0.034-0.123-0.052C1.442,32.096,1.489,32.112,1.528,32.13z"/>
	<path fill="#FF9C0D" d="M10.749,32.077c3.708-0.497,8.375-3.406,12.198-3.066c1.518-1.319,3.14-2.706,4.729-3.998
		c-2.897,0.494-6.008,0.2-8.894-0.3c-6.967,3.996-16.217,6.719-13.375,0.52c0.262-0.572,0.559-1.166,0.88-1.772
		c-0.599,0.197-1.095,0.427-1.484,0.64c-0.629,1.204-1.054,2.128-1.271,2.619c-1.191,2.7-3.045,3.782-2.913,4.594
		c0.049,0.302,0.339,0.547,0.785,0.765C1.414,32.078,7.044,32.572,10.749,32.077z"/>
	<path fill="#FF9C0D" d="M16.779,34.396c0.096-0.079,0.2-0.166,0.308-0.257c0.038-0.032,0.072-0.061,0.113-0.095
		c0.855-0.726,2.05-1.786,3.431-3.003c-2.6,0.406-7.167,1.756-9.352,1.891c-1.611,0.101-5.379-0.167-7.751-0.151
		c-0.175-0.047-0.344-0.094-0.51-0.141c0.494,0.14,1.027,0.278,1.575,0.428c1.614,0.438,4.186,2.793,5.735,3.626
		c0.357,0.191,0.661,0.303,0.885,0.29c1.959-0.104,2.397-0.213,3.68-1.147c0.366-0.266,0.794-0.594,1.352-1.014
		C16.389,34.715,16.571,34.569,16.779,34.396z"/>
	<path fill="#FF9C0D" d="M36.287,19.573c-0.024,0.004-0.054,0.007-0.078,0.012c-1.494-0.217-3.95-0.757-7.227-2.074
		c-1.764,0.861-3.381,1.923-4.673,3.216c-0.668,0.67-1.526,1.37-2.507,2.068c3.811-0.037,7.991-0.719,10.364-1.193
		c1.358-0.93,2.543-1.607,3.409-1.867C35.788,19.67,36.033,19.62,36.287,19.573z"/>
	<path fill="#FF9C0D" d="M30.211,16.956c1.799,0.937,5.168,2.016,6.778,2.508c-0.107,0.012-0.199,0.032-0.301,0.047
		c2.15-0.306,5.422-0.131,8.668,0.274c0.202,0.026,0.404,0.052,0.606,0.079c1.118,0.15,2.222,0.324,3.265,0.513
		c-2.426-1.249-5.248-3.333-8.213-5.873C37.859,14.68,33.824,15.43,30.211,16.956z"/>
	<path fill="#FF9C0D" d="M49.246,13.792c-0.799,0.859-2.675,1.091-4.587,0.805c-0.526-0.079-1.152-0.125-1.852-0.138
		c2.668,2.318,5.652,4.674,6.669,5.274c0.691,0.407,1.083,0.717,1.307,0.944c1.178,0.245,2.229,0.501,3.059,0.752
		c0.01,0.003,0.02,0.006,0.029,0.008C53.718,18.678,51.105,15.587,49.246,13.792z"/>
	<path fill="#FFB24D" d="M49.306,11.568c-0.548-1.06-1.796-2.406-4.024-4.073C46.399,8.856,47.866,10.147,49.306,11.568z"/>
	<path fill="#FFB24D" d="M29.88,3.864c4.367,1.331,7.314,4.617,8.408,6.169c0.657,0.932,2.497,2.668,4.52,4.426
		c0.699,0.012,1.325,0.059,1.852,0.138c1.912,0.286,3.788,0.054,4.587-0.805c-0.582-0.562-1.093-1.003-1.425-1.259
		c-1.979-1.526-4.065-4.639-5.483-6.87C38.124,3.532,33.791,3.307,29.88,3.864z"/>
	<path fill="#FFB24D" d="M36.105,10.034c-3.791-3.634-8.926-4.616-11.748-4.875c-0.5,0.159-0.986,0.321-1.455,0.485
		c-2.588,0.91-5.631,3.392-8.511,6.504c8.591-1.54,12.294,2.554,15.23,4.473c0.167,0.109,0.371,0.222,0.59,0.335
		c3.613-1.526,7.647-2.276,10.804-2.451C39.405,13.125,37.755,11.616,36.105,10.034z"/>
	<path fill="#FFB24D" d="M6.287,23.46c-0.321,0.606-0.619,1.2-0.88,1.772c-2.842,6.199,6.408,3.477,13.375-0.52
		c-3.67-0.636-6.97-1.604-8.959-1.71C8.421,22.929,7.231,23.151,6.287,23.46z"/>
	<path fill="#FFB24D" d="M28.983,17.511c-0.938-0.378-1.937-0.813-3.007-1.33c-4.923-2.379-10.068-2.544-13.054-2.374
		c-2.124,2.499-4.095,5.264-5.647,7.89c3.034-0.289,6.762,0.171,10.56,0.833c1.195,0.209,2.558,0.278,3.969,0.265
		c0.981-0.698,1.839-1.398,2.507-2.068C25.601,19.434,27.219,18.372,28.983,17.511z"/>
	<path fill="#FFDCB3" d="M11.278,32.933c2.185-0.135,6.752-1.484,9.352-1.891c0.729-0.641,1.507-1.324,2.317-2.03v-0.001
		c-3.823-0.34-8.49,2.569-12.198,3.066c-3.705,0.495-9.335,0.001-9.345,0h0c0,0,0.001,0,0.001,0.001
		c0.037,0.018,0.083,0.034,0.123,0.052c0.11,0.05,0.222,0.099,0.347,0.146c0.083,0.031,0.175,0.062,0.265,0.093
		c0.092,0.031,0.182,0.063,0.28,0.095c0.111,0.034,0.227,0.069,0.344,0.104c0.083,0.024,0.167,0.05,0.253,0.074
		c0.166,0.047,0.335,0.094,0.51,0.141C5.899,32.766,9.667,33.033,11.278,32.933z"/>
	<path fill="#FFDCB3" d="M9.823,23.003c1.989,0.106,5.289,1.074,8.959,1.71c2.885,0.5,5.997,0.794,8.894,0.3
		c1.582-1.287,3.125-2.478,4.491-3.411c-2.373,0.475-6.554,1.156-10.364,1.193c-1.411,0.014-2.773-0.056-3.969-0.265
		c-3.797-0.662-7.526-1.122-10.56-0.833c-0.429,0.042-0.844,0.099-1.243,0.171c-0.474,0.816-0.882,1.565-1.228,2.231
		c0.389-0.213,0.886-0.442,1.484-0.64C7.231,23.151,8.421,22.929,9.823,23.003z"/>
	<path fill="#FFDCB3" d="M25.975,16.181c1.07,0.517,2.069,0.952,3.007,1.33c3.276,1.317,5.732,1.857,7.227,2.074
		c0.024-0.005,0.054-0.008,0.078-0.012c0.127-0.024,0.266-0.042,0.401-0.062c0.102-0.015,0.193-0.035,0.301-0.047
		c-1.61-0.492-4.979-1.572-6.778-2.508c-0.219-0.114-0.423-0.227-0.59-0.335c-2.936-1.919-6.639-6.012-15.23-4.473
		c-0.479,0.086-0.969,0.186-1.479,0.308c-0.448,0.483-0.879,0.97-1.295,1.459c0.368-0.04,0.804-0.078,1.303-0.107
		C15.907,13.636,21.052,13.802,25.975,16.181z"/>
	<path fill="#FFDCB3" d="M24.357,5.158c2.822,0.259,7.957,1.241,11.748,4.875c1.65,1.582,3.3,3.092,4.91,4.471
		c2.965,2.54,5.787,4.624,8.213,5.873c0,0,0,0,0.001,0.001c0.537,0.096,1.058,0.198,1.555,0.3c-0.224-0.227-0.615-0.537-1.307-0.944
		c-1.017-0.6-4.001-2.956-6.669-5.274c-2.022-1.758-3.862-3.495-4.52-4.426c-1.094-1.553-4.041-4.838-8.408-6.169
		c-1.033-0.316-2.146-0.52-3.333-0.566c-0.007,0-0.015-0.001-0.022-0.001c-0.206,0.063-0.414,0.114-0.616,0.186
		c-1.259,0.444-2.462,0.982-3.616,1.589C22.327,5.069,23.117,5.044,24.357,5.158z"/>
	<path fill="#FFDCB3" d="M49.306,11.568c-1.439-1.421-2.907-2.712-4.024-4.073c-0.535-0.651-0.983-1.321-1.311-2.029
		c-0.001-0.002-0.002-0.004-0.002-0.005c-0.033-0.016-0.066-0.03-0.098-0.046c-0.086-0.041-0.173-0.079-0.258-0.119
		c-0.332-0.155-0.666-0.309-1.003-0.454c-0.136-0.058-0.272-0.113-0.408-0.169c-0.218-0.091-0.436-0.183-0.656-0.269
		c0.002,0.003,0.003,0.006,0.005,0.009c0.229,0.364,0.494,0.787,0.787,1.25c1.418,2.23,3.504,5.344,5.483,6.87
		c0.332,0.256,0.843,0.697,1.425,1.259c1.858,1.794,4.472,4.885,4.625,7.646c0,0,0,0,0,0.001c0.216,0.065,0.411,0.13,0.595,0.194
		c-0.006-0.966-0.189-2.949-1.378-5.25C52.123,14.512,50.733,12.975,49.306,11.568z"/>
</g>
</svg>
