<?xml version="1.0" encoding="utf-8"?>
<!-- Generator: Adobe Illustrator 16.0.0, SVG Export Plug-In . SVG Version: 6.00 Build 0)  -->
<!DOCTYPE svg PUBLIC "-//W3C//DTD SVG 1.1//EN" "http://www.w3.org/Graphics/SVG/1.1/DTD/svg11.dtd">
<svg version="1.1" id="Layer_1" xmlns="http://www.w3.org/2000/svg" xmlns:xlink="http://www.w3.org/1999/xlink" x="0px" y="0px"
	 width="56.406px" height="40.379px" viewBox="0 0 56.406 40.379" enable-background="new 0 0 56.406 40.379" xml:space="preserve">
<g>
	<path fill="none" d="M49.959,20.348c0.01-0.22,0.027-0.442,0.049-0.667c-0.117,0.175-0.241,0.334-0.368,0.453
		C49.763,20.202,49.864,20.275,49.959,20.348z"/>
	<path fill="none" d="M50.536,16.766c0.014-0.052,0.026-0.109,0.039-0.161c-0.028-0.009-0.058-0.01-0.085-0.019
		C50.51,16.644,50.521,16.707,50.536,16.766z"/>
	<path fill="#D9F3F9" d="M25.634,29.722c0.215-0.301,0.438-0.616,0.667-0.94"/>
	<path fill="#D9F3F9" d="M49.959,20.348c-0.095-0.073-0.196-0.146-0.319-0.213c0.125-0.12,0.251-0.277,0.368-0.453
		c0.494-0.735,0.831-1.893,0.528-2.916c-0.016-0.06-0.026-0.122-0.047-0.179c-0.477-0.128-0.953-0.314-1.409-0.537
		c-0.434-0.213-0.847-0.456-1.231-0.701c-0.248,0.714-1.075,1.235-1.896,1.556c0.406,1.106-1.33,2.484-1.33,2.484
		c0.292,1.562,0.045,2.644-1.486,2.799c-0.133,2.294-2.074,1.896-2.074,1.896c-0.091,0.405-0.23,0.726-0.395,0.985
		c0.184-0.034,0.426-0.113,0.669-0.251c0.507-0.292,0.974-0.896,1.469-1.329c0,0-0.02,0.08-0.073,0.217
		c-0.048,0.141-0.143,0.337-0.295,0.574c-0.163,0.226-0.384,0.511-0.756,0.711c-0.295,0.172-0.689,0.251-1.085,0.19
		c-0.938,1.312-2.658,0.77-2.658,0.77c-0.845,1.716-2.394,0.951-2.394,0.951c-0.696,0.962-1.386,1.256-1.967,1.262
		c-2.204,3.37-4.278,5.718-5.621,6.736c0.645,0.264,1.464,0.187,2.47-0.71c0,0,1.918,1.789,3.889-0.93c0,0,2,2.126,4.05-0.704
		c0,0,1.797,0.887,2.778-1.104c0,0,2.932,0.931,3.623-2.165c0,0,2.249,0.461,2.404-2.201c1.779-0.18,2.063-1.437,1.725-3.248
		c0,0,0.798-0.636,1.271-1.425C50.574,21.74,50.734,20.952,49.959,20.348z M39.867,28.119c-0.128,0.132-0.352,0.339-0.722,0.429
		c-0.217,0.058-0.479,0.057-0.756,0.007c-0.015,0.038-0.04,0.1-0.093,0.208c-0.087,0.157-0.228,0.394-0.511,0.612
		c-0.273,0.219-0.71,0.422-1.233,0.375c-0.515-0.042-1.072-0.368-1.359-0.9c0,0,0.028,0.022,0.079,0.062
		c0.049,0.044,0.12,0.102,0.221,0.165c0.194,0.127,0.487,0.27,0.835,0.322c0.352,0.042,0.749-0.007,1.105-0.185
		c0.344-0.16,0.652-0.409,0.929-0.666c-0.176-0.037-0.355-0.09-0.534-0.186c-0.233-0.121-0.457-0.295-0.646-0.519
		c-0.188-0.224-0.341-0.51-0.379-0.815c0,0,0.019,0.032,0.055,0.091c0.028,0.061,0.081,0.141,0.156,0.233
		c0.146,0.188,0.394,0.415,0.724,0.597c0.329,0.185,0.738,0.299,1.146,0.31c0.408,0,0.811-0.138,1.141-0.376
		C40.024,27.884,39.979,27.967,39.867,28.119z M41.892,27.859c0.101-0.062,0.232-0.154,0.371-0.267
		c0.279-0.222,0.556-0.546,0.887-0.798c0,0,0.001,0.054-0.014,0.147c-0.011,0.095-0.051,0.23-0.135,0.385
		c-0.09,0.15-0.227,0.329-0.448,0.458c-0.216,0.132-0.51,0.218-0.823,0.177C41.729,27.962,41.791,27.922,41.892,27.859z
		 M42.176,29.403c-0.211,0.257-0.542,0.522-0.991,0.687c-0.44,0.15-1.043,0.203-1.541-0.099c0.001-0.008,0.133,0.03,0.353,0.033
		c0.218,0.003,0.521-0.042,0.844-0.158c0.321-0.116,0.66-0.309,0.964-0.549c0.296-0.244,0.558-0.532,0.765-0.843
		c0,0-0.006,0.088-0.043,0.257C42.479,28.895,42.386,29.143,42.176,29.403z"/>
	<path fill="#FFFFFF" d="M35.546,26.902c0,0,1.549,0.765,2.394-0.95c0,0,1.721,0.542,2.658-0.771
		c-0.084-0.016-0.169-0.027-0.254-0.057c0,0,0.115-0.018,0.307-0.05c0.004,0.001,0.013-0.004,0.019-0.005
		c0.166-0.261,0.304-0.577,0.396-0.986c0,0,1.938,0.397,2.073-1.897c1.532-0.155,1.779-1.236,1.486-2.798
		c0,0,1.735-1.378,1.329-2.484c-0.236,0.092-0.472,0.167-0.692,0.227c-2.04,0.533-4.049,0.373-6.057,0.139
		c-0.023,0.059-0.041,0.116-0.063,0.176c-0.881,2.188-1.843,4.223-2.832,6.088c0.113-0.101,0.226-0.2,0.331-0.305
		c0,0-0.029,0.091-0.111,0.265c-0.091,0.164-0.227,0.415-0.497,0.665c-0.031,0.032-0.071,0.063-0.11,0.098
		c-0.776,1.417-1.562,2.725-2.339,3.91C34.162,28.158,34.85,27.863,35.546,26.902z"/>
	<path fill="#85C2CC" d="M28.927,24.558c0.044,0.033,0.097,0.055,0.144,0.082c0.007-0.011,0.015-0.021,0.021-0.031
		c-0.017-0.005-0.038-0.013-0.053-0.018C28.966,24.57,28.927,24.558,28.927,24.558z"/>
	<path fill="#85C2CC" d="M25.634,29.722"/>
	<path fill="#85C2CC" d="M38.882,28.259c-0.408-0.01-0.817-0.126-1.145-0.31c-0.33-0.181-0.578-0.407-0.726-0.596
		c-0.073-0.093-0.126-0.173-0.156-0.234c-0.034-0.058-0.055-0.092-0.055-0.092c0.04,0.31,0.192,0.594,0.381,0.817
		c0.188,0.224,0.411,0.396,0.645,0.519c0.179,0.094,0.36,0.148,0.534,0.186c0.016-0.015,0.031-0.025,0.048-0.04
		c0,0-0.01,0.022-0.019,0.046c0.276,0.05,0.539,0.051,0.756-0.007c0.37-0.09,0.594-0.297,0.722-0.429
		c0.112-0.152,0.157-0.235,0.157-0.235C39.694,28.119,39.292,28.26,38.882,28.259z"/>
	<path fill="#85C2CC" d="M38.36,28.549c-0.274,0.256-0.583,0.504-0.927,0.666c-0.358,0.178-0.754,0.227-1.107,0.183
		c-0.348-0.052-0.639-0.193-0.833-0.32c-0.101-0.063-0.174-0.121-0.223-0.165c-0.049-0.042-0.079-0.062-0.079-0.062
		c0.287,0.531,0.845,0.858,1.359,0.899c0.525,0.047,0.962-0.155,1.235-0.374c0.281-0.219,0.424-0.458,0.511-0.612
		c0.053-0.108,0.076-0.171,0.093-0.209c0.006-0.021,0.019-0.045,0.019-0.045C38.392,28.523,38.376,28.534,38.36,28.549z"/>
	<path fill="#85C2CC" d="M36.527,23.493c0.08-0.173,0.109-0.265,0.109-0.265c-0.105,0.103-0.218,0.204-0.331,0.305
		c-0.13,0.243-0.259,0.484-0.388,0.723c0.039-0.034,0.079-0.065,0.112-0.097C36.297,23.908,36.437,23.658,36.527,23.493z"/>
	<path fill="#85C2CC" d="M40.344,25.125c0.085,0.029,0.17,0.041,0.254,0.057c0.396,0.062,0.793-0.02,1.087-0.19
		c0.37-0.201,0.591-0.484,0.754-0.71c0.152-0.237,0.247-0.434,0.295-0.575c0.054-0.138,0.075-0.217,0.075-0.217
		c-0.497,0.433-0.963,1.037-1.471,1.33c-0.243,0.136-0.483,0.216-0.669,0.251c-0.006,0.001-0.015,0.006-0.019,0.005
		C40.459,25.107,40.344,25.125,40.344,25.125z"/>
	<path fill="#85C2CC" d="M42.568,28.475c-0.209,0.31-0.469,0.599-0.765,0.843c-0.304,0.24-0.643,0.433-0.964,0.549
		c-0.321,0.118-0.626,0.161-0.844,0.158c-0.22-0.003-0.352-0.041-0.353-0.033c0.498,0.302,1.101,0.249,1.541,0.099
		c0.449-0.164,0.779-0.428,0.991-0.687c0.21-0.261,0.303-0.509,0.35-0.672C42.562,28.562,42.568,28.475,42.568,28.475z"/>
	<path fill="#85C2CC" d="M42.553,27.785c0.224-0.128,0.358-0.308,0.448-0.458c0.084-0.154,0.124-0.29,0.135-0.385
		c0.017-0.094,0.014-0.147,0.014-0.147c-0.333,0.252-0.607,0.576-0.887,0.798c-0.139,0.112-0.271,0.204-0.371,0.267
		s-0.164,0.101-0.164,0.101C42.043,28.003,42.337,27.917,42.553,27.785z"/>
	<path fill="#D9F3F9" d="M45.952,16.904c0.821-0.32,1.646-0.842,1.897-1.557c-0.676-0.43-1.244-0.869-1.624-1.18
		c-0.01-0.008-0.019-0.016-0.029-0.024c-0.115-0.097-0.22-0.184-0.293-0.248c-0.114-0.099-0.173-0.155-0.173-0.155
		c-1.769,1.814-3.947,1.788-5.776,1.24c-0.195,0.736-0.443,1.499-0.753,2.288c2.008,0.234,4.017,0.394,6.059-0.137
		C45.48,17.072,45.716,16.995,45.952,16.904z"/>
	<path fill="none" d="M56.078,27.13c0.041,0.003,0.071-0.001,0.108-0.001"/>
	<path fill="none" d="M57.244,23.697c0.113,0.187,0.229,0.379,0.352,0.573"/>
	<path fill="#FCCF4F" d="M56.57,22.543c0.002,0.003,0.002,0.003,0.001,0.005c0.096,0.169,0.199,0.346,0.304,0.527
		C56.769,22.892,56.666,22.713,56.57,22.543z"/>
	<path fill="none" d="M56.905,23.127c0.105,0.178,0.212,0.36,0.325,0.546"/>
	<path fill="#FCCF4F" d="M58.493,16.162c0.39,0.294,0.572,0.579,0.432,0.802C59.067,16.739,58.883,16.456,58.493,16.162z"/>
	<path fill="none" d="M57.238,24.181c0.028,0.083,0.055,0.166,0.079,0.249"/>
	<path fill="none" d="M57.194,24.049c-0.029-0.085-0.062-0.171-0.094-0.258"/>
	<path fill="none" d="M56.867,23.205c-0.031-0.071-0.062-0.146-0.095-0.218"/>
	<path fill="none" d="M57.353,24.546c0.012,0.048,0.024,0.096,0.038,0.146"/>
	<path fill="none" d="M56.926,23.34c0.045,0.114,0.094,0.229,0.137,0.344"/>
	<path fill="none" d="M56.618,22.647c0.028,0.062,0.056,0.121,0.084,0.184"/>
	<path fill="#FCCF4F" d="M46.226,14.168c-0.01-0.008-0.019-0.016-0.029-0.024C46.207,14.152,46.216,14.16,46.226,14.168z"/>
</g>
<g>
	<path fill="none" d="M55.572,18.172c-0.01-0.004-0.023-0.006-0.033-0.009C55.549,18.167,55.562,18.168,55.572,18.172z
		 M54.812,17.913c-0.07-0.021-0.143-0.045-0.213-0.068C54.67,17.868,54.742,17.891,54.812,17.913z M54.043,17.667
		c-0.09-0.029-0.182-0.056-0.271-0.083C53.861,17.612,53.953,17.638,54.043,17.667z M29.969-0.524c0,0,0,0,0.002,0
		c0.006,0.005,0.014,0.011,0.018,0.016c-0.059-0.001-0.119-0.003-0.182-0.004C29.861-0.517,29.916-0.52,29.969-0.524z M23.411,0.347
		"/>
	<path fill="none" d="M45.342,20.509c0.025-0.155,0.029-0.279,0.029-0.39c-0.051-0.018-0.102-0.035-0.152-0.053
		c-0.012-0.004-0.021-0.007-0.033-0.01"/>
	<path fill="#D9F3F9" d="M29.645,33.195c0.279-0.66,0.57-1.381,0.857-2.152c0.188-0.5,0.373-1.027,0.555-1.57
		c-0.164,0.041-0.342,0.064-0.531,0.053c-0.088-0.002-0.176-0.014-0.264-0.027c-0.654,0.441-1.432-0.469-1.432-0.469
		c-0.919,1.938-2.324,0.709-2.324,0.709c-0.983,1.232-2.638,0.252-2.638,0.252c-0.874,1.33-1.929,0.633-2.415,0.186
		c-0.205,0.189-0.437,0.367-0.71,0.502c-0.208,0.102-0.439,0.18-0.685,0.189c-0.244,0.012-0.495-0.066-0.68-0.221
		c0-0.018,0.208,0.15,0.582,0.096c0.368-0.039,0.838-0.33,1.249-0.779c0.006-0.004,0.011-0.016,0.018-0.02
		c-0.028-0.031-0.045-0.053-0.045-0.053c-2.052,0.865-2.969,0.107-3.365-0.549c-1.673,0.971-3.265,1.83-4.491,2.314
		c-0.442,0.176-0.827,0.295-1.16,0.363c0.704,0.557,1.781,1.031,3.123,0.41c0,0,1.545,2.08,3.606,0.643c0,0,0.526,3.074,4.305,1.48
		c0,0,1.779,2.236,3.172,0.115c0,0,1.393,0.822,2.524,0.201c0.195-0.414,0.396-0.855,0.607-1.342
		C29.549,33.418,29.598,33.309,29.645,33.195z"/>
	<path fill="#D9F3F9" d="M30.564,29.17c0.213-0.016,0.428-0.055,0.633-0.119c0.027-0.08,0.053-0.154,0.078-0.234
		c-0.281-0.1-0.463-0.197-0.463-0.197C30.738,28.848,30.654,29.027,30.564,29.17z"/>
	<path fill="#FFFFFF" d="M29.625,23.541c0.377-0.031,0.762-0.281,1.053-0.609c0.156-0.174,0.271-0.375,0.352-0.592
		c-0.908,0.357-1.812,0.723-2.716,1.09c0.075,0.006,0.168,0.018,0.289,0.035C28.869,23.496,29.244,23.586,29.625,23.541z"/>
	<path fill="#FFFFFF" d="M21.182,29.891c0,0,0.017,0.021,0.045,0.053c0.097-0.105,0.191-0.221,0.279-0.34
		c0.047-0.066,0.091-0.129,0.135-0.203l0.065-0.105l0.034-0.055c0.01-0.018,0.02-0.041,0.045-0.029l0.232,0.025
		c0.348,0.039,0.69,0.078,1.031,0.068c0.343,0.006,0.665-0.08,0.972-0.197c0.148-0.072,0.287-0.158,0.427-0.242
		c0.123-0.107,0.247-0.211,0.371-0.312c0,0-0.074,0.125-0.249,0.369c-0.086,0.121-0.239,0.229-0.406,0.375
		c-0.099,0.053-0.204,0.109-0.318,0.17c-0.114,0.064-0.25,0.084-0.392,0.129c-0.283,0.07-0.608,0.084-0.952,0.064
		c-0.171-0.014-0.349-0.029-0.527-0.053c-0.052,0-0.005-0.021-0.038,0.012c-0.057,0.082-0.116,0.166-0.184,0.244
		c-0.09,0.105-0.193,0.209-0.3,0.312c0.486,0.447,1.541,1.145,2.415-0.186c0,0,1.654,0.98,2.638-0.252c0,0,1.405,1.229,2.324-0.709
		c0,0,0.777,0.91,1.432,0.469c-0.324-0.049-0.66-0.162-1.012-0.324c0,0,0.117,0,0.311,0.004c0.191,0.004,0.461,0.014,0.756,0.004
		c0.082-0.002,0.166-0.006,0.248-0.012c0.09-0.143,0.174-0.322,0.248-0.551c0,0,0.182,0.098,0.463,0.197
		c0.014-0.039,0.027-0.076,0.039-0.117c0.1-0.312,0.197-0.635,0.291-0.959c0.1-0.338,0.197-0.682,0.293-1.031
		c0.053-0.193,0.107-0.387,0.158-0.582c0.039-0.158,0.082-0.318,0.123-0.477c0.199-0.785,0.391-1.578,0.566-2.359
		c0.135-0.594,0.256-1.17,0.375-1.74c-0.623,0.232-1.248,0.461-1.867,0.703c0,0.184-0.033,0.412-0.158,0.664
		c-0.049,0.088-0.098,0.184-0.172,0.27c-0.066,0.092-0.146,0.178-0.238,0.258c-0.09,0.088-0.203,0.152-0.316,0.227
		c-0.123,0.055-0.25,0.127-0.396,0.154c-0.289,0.082-0.611,0.035-0.902-0.057c-0.27-0.082-0.53-0.203-0.813-0.316
		c-0.311,0.125-0.617,0.25-0.925,0.377c-0.218,0.09-0.43,0.189-0.646,0.283c-0.277,0.145-0.562,0.293-0.818,0.432
		c-0.613,0.328-1.35,0.76-2.162,1.25c-0.771,0.461-1.613,0.977-2.482,1.506c0.153,0.043,0.336,0.074,0.547,0.059
		c0.268-0.014,0.556-0.109,0.812-0.26c0.254-0.156,0.471-0.373,0.649-0.625c-0.015-0.014,0.078,0.338-0.31,0.783
		c-0.191,0.205-0.517,0.406-0.927,0.43c-0.305,0.027-0.66-0.07-0.931-0.289c-0.643,0.391-1.297,0.789-1.953,1.182
		c-0.435,0.26-0.867,0.512-1.296,0.762C18.212,29.998,19.129,30.756,21.182,29.891z"/>
	<path fill="#85C2CC" d="M21.996,27.688c0.41-0.023,0.736-0.225,0.927-0.43c0.388-0.445,0.295-0.797,0.31-0.783
		c-0.178,0.252-0.395,0.469-0.649,0.625c-0.257,0.15-0.545,0.246-0.812,0.26c-0.211,0.016-0.394-0.016-0.547-0.059
		c-0.053,0.033-0.106,0.064-0.159,0.098C21.336,27.617,21.691,27.715,21.996,27.688z"/>
	<path fill="#85C2CC" d="M21.937,29.619c0.033-0.033-0.014-0.012,0.038-0.012c0.179,0.023,0.356,0.039,0.527,0.053
		c0.344,0.02,0.669,0.006,0.952-0.064c0.141-0.045,0.278-0.064,0.392-0.129c0.114-0.061,0.219-0.117,0.318-0.17
		c0.167-0.146,0.32-0.254,0.406-0.375c0.175-0.244,0.249-0.369,0.249-0.369c-0.124,0.102-0.248,0.205-0.371,0.312
		c-0.14,0.084-0.279,0.17-0.427,0.242c-0.307,0.117-0.628,0.203-0.972,0.197c-0.341,0.01-0.683-0.029-1.031-0.068l-0.232-0.025
		c-0.026-0.012-0.035,0.012-0.045,0.029l-0.034,0.055L21.641,29.4c-0.044,0.074-0.088,0.137-0.135,0.203
		c-0.088,0.119-0.183,0.234-0.279,0.34c-0.006,0.004-0.012,0.016-0.018,0.02c-0.411,0.449-0.881,0.74-1.249,0.779
		c-0.374,0.055-0.582-0.113-0.582-0.096c0.185,0.154,0.436,0.232,0.68,0.221c0.246-0.01,0.478-0.088,0.685-0.189
		c0.274-0.135,0.506-0.312,0.71-0.502c0.107-0.104,0.21-0.207,0.3-0.312C21.821,29.785,21.88,29.701,21.937,29.619z"/>
	<path fill="#85C2CC" d="M30.678,22.932c-0.291,0.328-0.676,0.578-1.053,0.609c-0.381,0.045-0.756-0.045-1.023-0.076
		c-0.121-0.018-0.214-0.029-0.289-0.035c-0.019,0.008-0.037,0.014-0.056,0.023c0.283,0.113,0.543,0.234,0.813,0.316
		c0.291,0.092,0.613,0.139,0.902,0.057c0.146-0.027,0.273-0.1,0.396-0.154c0.113-0.074,0.227-0.139,0.316-0.227
		c0.092-0.08,0.172-0.166,0.238-0.258c0.074-0.086,0.123-0.182,0.172-0.27c0.125-0.252,0.158-0.48,0.158-0.664
		c-0.074,0.027-0.15,0.057-0.225,0.086C30.949,22.557,30.834,22.758,30.678,22.932z"/>
	<path fill="#85C2CC" d="M30.316,29.182c-0.295,0.01-0.564,0-0.756-0.004c-0.193-0.004-0.311-0.004-0.311-0.004
		c0.352,0.162,0.688,0.275,1.012,0.324c0.088,0.014,0.176,0.025,0.264,0.027c0.189,0.012,0.367-0.012,0.531-0.053
		c0.047-0.139,0.094-0.279,0.141-0.422c-0.205,0.064-0.42,0.104-0.633,0.119C30.482,29.176,30.398,29.18,30.316,29.182z"/>
	<path fill="#85C2CC" d="M45.186,20.057c-0.062-0.021-0.127-0.042-0.189-0.062c-0.043-0.015-0.086-0.026-0.129-0.04"/>
	<path fill="#85C2CC" d="M45.342,20.509c0.035-0.146,0.059-0.265,0.074-0.373c-0.014-0.005-0.029-0.011-0.045-0.017
		C45.371,20.23,45.367,20.354,45.342,20.509z"/>
	<path fill="#D9F3F9" d="M28.257,23.453c0.019-0.01,0.037-0.016,0.056-0.023c0.904-0.367,1.808-0.732,2.716-1.09
		c0.074-0.029,0.15-0.059,0.225-0.086c0.619-0.242,1.244-0.471,1.867-0.703c0.027-0.135,0.061-0.277,0.088-0.41
		c-1.674,0.621-3.25,1.332-4.66,2.021c-0.667,0.326-1.28,0.643-1.863,0.951c0.216-0.094,0.429-0.193,0.646-0.283
		C27.64,23.703,27.947,23.578,28.257,23.453z"/>
	<path fill="none" stroke="#FFEB33" stroke-width="0" stroke-linecap="round" stroke-linejoin="round" d="M23.411,0.347"/>
	<path fill="#FFEB33" d="M36.305,3.785c0.518,0.155,1.039,0.317,1.555,0.485C37.344,4.102,36.824,3.94,36.305,3.785z"/>
	<path fill="#FFEB33" d="M34.486,3.275c0.51,0.132,1.035,0.28,1.562,0.435C35.52,3.555,34.996,3.407,34.486,3.275z"/>
	<path fill="#FFEB33" d="M39.789,4.928c0.492,0.176,0.971,0.353,1.426,0.527C40.76,5.281,40.281,5.104,39.789,4.928z"/>
	<path fill="#FFEB33" d="M40.598,14.823c2.205,0.009,4.09,0.201,5.18,0.623c2.918,1.132,7.238,3.547,9.955,5.055
		c0.006,0.022,0.018,0.049,0.021,0.066C55.508,19.299,45.996,8.154,45.34,7.396c-0.293-0.339-1.904-1.088-4.018-1.9
		c-0.561,1.265-1.652,2.291-2.602,1.995c-0.613-0.19-0.936-1.028-1.572-1.309c-0.713-0.314-1.445-0.174-2.033-0.906
		c-0.549-0.686-0.736-1.378-0.674-2.013c-0.613-0.159-1.209-0.3-1.768-0.414c-1.305-0.267-2.926-0.211-4.675,0.037
		c0.003,0.005,0.01,0.011,0.014,0.016c0.534-0.001,0.876,0.018,0.876,0.018C31.705,4.137,40.162,11.6,40.598,14.823z M53.268,17.434
		c-0.098-0.026-0.199-0.054-0.297-0.08C53.068,17.38,53.17,17.408,53.268,17.434z M52.49,17.225
		c-0.105-0.029-0.209-0.055-0.312-0.08C52.281,17.17,52.385,17.196,52.49,17.225z M51.711,17.034
		c-0.107-0.023-0.215-0.048-0.32-0.07C51.496,16.986,51.604,17.01,51.711,17.034z M50.932,16.868
		c-0.107-0.021-0.215-0.04-0.32-0.061C50.717,16.828,50.824,16.847,50.932,16.868z M50.154,16.731
		c-0.104-0.018-0.209-0.035-0.312-0.051C49.945,16.696,50.051,16.713,50.154,16.731z M49.381,16.621
		c-0.1-0.011-0.201-0.024-0.299-0.034C49.18,16.596,49.281,16.61,49.381,16.621z M48.607,16.544
		c-0.092-0.006-0.186-0.015-0.275-0.021C48.422,16.53,48.516,16.539,48.607,16.544z"/>
	<path fill="#FFEB33" d="M38.115,4.354c0.525,0.173,1.045,0.35,1.549,0.529C39.16,4.704,38.641,4.528,38.115,4.354z"/>
	<path fill="none" stroke="#FFEB33" stroke-width="0" stroke-linecap="round" stroke-linejoin="round" d="M52.49,17.225
		c-0.105-0.029-0.209-0.055-0.312-0.08"/>
	<path fill="none" stroke="#FFEB33" stroke-width="0" stroke-linecap="round" stroke-linejoin="round" d="M52.971,17.354
		c0.098,0.026,0.199,0.054,0.297,0.08"/>
	<path fill="none" stroke="#FFEB33" stroke-width="0" stroke-linecap="round" stroke-linejoin="round" d="M53.771,17.584
		c0.09,0.027,0.182,0.054,0.271,0.083"/>
	<path fill="none" stroke="#FFEB33" stroke-width="0" stroke-linecap="round" stroke-linejoin="round" d="M54.6,17.844
		c0.07,0.023,0.143,0.047,0.213,0.068"/>
	<path fill="none" stroke="#FFEB33" stroke-width="0" stroke-linecap="round" stroke-linejoin="round" d="M55.539,18.164
		c0.01,0.003,0.023,0.005,0.033,0.009"/>
	<path fill="none" stroke="#FFEB33" stroke-width="0" stroke-linecap="round" stroke-linejoin="round" d="M56.346,18.455
		c0.021,0.009,0.045,0.017,0.066,0.025"/>
	<path fill="#FFEB33" d="M11.109,25.863c1.28,0.383,11.323-6.176,14.366-8.373c1.394-1.008,4.968-1.829,8.802-2.283
		c0.021-0.144,0.033-0.222,0.033-0.222c-0.793-1.985-3.447-4.621-6.001-6.832c-0.239,0.163-0.472,0.319-0.679,0.479
		c-0.164,0.127-0.32,0.248-0.473,0.364c0.504,0.889,0.749,1.735,0.89,2.179c0.332,1.033-6.83,2.272-9.751,4.719
		c-2.922,2.447-4.22,6.623-10.347,3.037c-3.755-2.198-5.583-5.233-0.033-8.129c2.772-1.445,5.753-2.846,8.479-3.777
		c0.303-0.472,0.656-0.943,1.024-1.403c-0.99,0.318-1.875,0.606-2.596,0.828c-4.043,1.233-7.317,3.643-8.837,5.128
		c-1.221,1.193-4.607,2.824-5.992,4.206v1.82C3.255,21.625,10.036,25.545,11.109,25.863z"/>
	<path fill="none" stroke="#FFEB33" stroke-width="0" stroke-linecap="round" stroke-linejoin="round" d="M48.607,16.544
		c-0.092-0.006-0.186-0.015-0.275-0.021"/>
	<path fill="none" stroke="#FFEB33" stroke-width="0" stroke-linecap="round" stroke-linejoin="round" d="M51.711,17.034
		c-0.107-0.023-0.215-0.048-0.32-0.07"/>
	<path fill="none" stroke="#FFEB33" stroke-width="0" stroke-linecap="round" stroke-linejoin="round" d="M49.381,16.621
		c-0.1-0.011-0.201-0.024-0.299-0.034"/>
	<path fill="none" stroke="#FFEB33" stroke-width="0" stroke-linecap="round" stroke-linejoin="round" d="M50.154,16.731
		c-0.104-0.018-0.209-0.035-0.312-0.051"/>
	<path fill="none" stroke="#FFEB33" stroke-width="0" stroke-linecap="round" stroke-linejoin="round" d="M50.932,16.868
		c-0.107-0.021-0.215-0.04-0.32-0.061"/>
	<path fill="#EACB15" d="M1.906,24.93c2.492,2.381,6.222,5.719,8.63,6.787c0.039,0.018,0.077,0.037,0.115,0.051
		c0.422,0.18,0.803,0.285,1.123,0.295c-0.369-1.266-0.755-3.488,0.392-4.293c0.326-0.229,0.712,0.096,1.066-0.127
		c0.39-0.244,0.623-0.961,1.011-1.289c0.661-0.555,1.391-0.756,1.848-0.1c0.678,0.973,0.146,1.715,1.463,1.973
		c0.55,0.107,1.261-0.164,1.558,0.354c0.656-0.393,1.31-0.791,1.953-1.182c0.053-0.033,0.106-0.064,0.159-0.098
		c0.869-0.529,1.711-1.045,2.482-1.506c0.812-0.49,1.549-0.922,2.162-1.25c0.255-0.139,0.541-0.287,0.818-0.432
		c0.583-0.309,1.196-0.625,1.863-0.951c1.41-0.689,2.986-1.4,4.66-2.021c0.582-2.849,0.959-5.217,1.068-5.933
		c-3.834,0.454-7.409,1.275-8.802,2.283c-3.043,2.196-13.086,8.755-14.366,8.373c-1.073-0.318-7.854-4.238-11.114-8.259v5.455
		C0.452,23.518,1.115,24.174,1.906,24.93z"/>
	<path fill="#EACB15" d="M45.777,15.446c-1.09-0.422-2.975-0.614-5.18-0.623c0.004,0.043,0.016,0.091,0.018,0.133
		c0.088,1.238-0.145,2.768-0.578,4.434c0.113-0.015,0.227-0.031,0.338-0.043c0.182-0.019,0.363-0.031,0.547-0.038
		c0.055-0.001,0.111,0.001,0.166-0.001c0.131,0,0.262-0.001,0.395,0.003c0.068,0.003,0.141,0.009,0.209,0.012
		c0.121,0.009,0.238,0.016,0.361,0.027c0.074,0.007,0.15,0.017,0.227,0.024c0.117,0.014,0.232,0.029,0.352,0.047
		c0.078,0.011,0.156,0.025,0.234,0.039c0.117,0.02,0.232,0.04,0.348,0.062c0.08,0.018,0.16,0.033,0.242,0.051
		c0.115,0.025,0.232,0.053,0.348,0.081c0.08,0.021,0.16,0.04,0.24,0.062c0.066,0.018,0.135,0.036,0.203,0.057
		c0.049,0.012,0.102,0.026,0.152,0.039c0.076,0.022,0.154,0.044,0.234,0.07c0.078,0.021,0.156,0.049,0.234,0.074
		c0.043,0.014,0.086,0.025,0.129,0.04c0.062,0.02,0.127,0.04,0.189,0.062c0.012,0.003,0.021,0.006,0.033,0.01
		c0.051,0.018,0.102,0.035,0.152,0.053c0.016,0.006,0.031,0.012,0.045,0.017c0.062,0.021,0.123,0.042,0.184,0.063
		c0.066,0.025,0.137,0.049,0.203,0.074c0.141,0.052,0.281,0.105,0.418,0.16c0.055,0.021,0.109,0.042,0.162,0.062
		c0.184,0.074,0.365,0.148,0.547,0.226c0.008,0.004,0.018,0.004,0.025,0.008c0.193,0.086,0.389,0.172,0.58,0.258
		c0.018,0.008,0.033,0.016,0.049,0.023c0.172,0.076,0.342,0.156,0.506,0.236c0.051,0.023,0.098,0.045,0.145,0.07
		c0.135,0.064,0.268,0.129,0.4,0.195c0.057,0.027,0.115,0.055,0.17,0.082c0.123,0.062,0.244,0.125,0.363,0.188
		c0.057,0.029,0.113,0.057,0.17,0.088c0.117,0.062,0.232,0.121,0.348,0.184c0.021,0.01,0.043,0.023,0.062,0.031
		c0.043,0.023,0.084,0.045,0.127,0.068c0.084,0.045,0.168,0.09,0.252,0.137c0.062,0.031,0.121,0.066,0.182,0.102
		c0.086,0.043,0.17,0.09,0.254,0.137c0.053,0.031,0.105,0.059,0.156,0.09c0.07,0.037,0.141,0.076,0.209,0.115
		c0.016,0.01,0.033,0.018,0.049,0.027c0.037,0.021,0.072,0.041,0.109,0.062c0.631,0.359,1.188,0.686,1.643,0.947
		c0.027,0.016,0.053,0.031,0.08,0.045c0.066,0.037,0.131,0.076,0.193,0.109c0.031,0.02,0.061,0.035,0.092,0.051
		c0.055,0.031,0.105,0.061,0.156,0.086c0.029,0.018,0.061,0.033,0.088,0.049c0.045,0.025,0.088,0.049,0.131,0.068
		c0.029,0.014,0.053,0.029,0.078,0.039c0.039,0.02,0.076,0.039,0.111,0.055c0.021,0.01,0.043,0.021,0.064,0.029
		c0.033,0.016,0.062,0.025,0.092,0.037c0.016,0.006,0.035,0.014,0.049,0.02c0.029,0.008,0.053,0.014,0.074,0.02
		c0.01,0.002,0.023,0.006,0.033,0.008c0.025,0.002,0.049,0.002,0.064-0.006h0.002c0.223-0.096,0.594-0.545,0.938-1.127
		c0.387-0.658,0.736-1.482,0.797-2.17c0.018-0.184,0.012-0.359-0.018-0.517c-0.004-0.018-0.016-0.044-0.021-0.066
		C53.016,18.993,48.695,16.578,45.777,15.446z"/>
	<path fill="#FFEF7B" d="M22.633,10.142c-1.65-0.551-3.25,0.321-4.88,0.583c-1.986,0.321-3.18-0.258-1.794-2.951
		c0.128-0.248,0.276-0.499,0.438-0.749c-2.726,0.932-5.707,2.332-8.479,3.777c-5.55,2.896-3.723,5.931,0.033,8.129
		c6.127,3.585,7.425-0.59,10.347-3.037c2.921-2.447,10.083-3.686,9.751-4.719c-0.141-0.443-0.386-1.29-0.89-2.179
		C25.579,10.19,24.478,10.756,22.633,10.142z"/>
	<path fill="#EACB15" d="M15.958,7.775c-1.385,2.693-0.192,3.271,1.794,2.951c1.629-0.263,3.23-1.134,4.88-0.583
		c1.845,0.614,2.946,0.048,4.525-1.145c0.152-0.116,0.309-0.236,0.473-0.364c0.207-0.161,0.439-0.317,0.679-0.479
		C25.9,6.07,23.585,4.366,23.003,3.945c-0.012,0.002-0.022,0.006-0.034,0.009c-0.105,0.029-0.212,0.057-0.317,0.086
		c-0.098,0.027-0.197,0.053-0.295,0.08c-0.106,0.029-0.212,0.059-0.318,0.088c-0.097,0.028-0.195,0.057-0.291,0.083
		c-0.106,0.03-0.212,0.062-0.316,0.092c-0.095,0.026-0.189,0.054-0.282,0.082c-0.106,0.031-0.211,0.062-0.317,0.093
		c-0.094,0.028-0.187,0.056-0.28,0.083c-0.104,0.031-0.206,0.062-0.309,0.092c-0.092,0.029-0.182,0.057-0.273,0.085
		c-0.104,0.031-0.207,0.063-0.308,0.094c-0.09,0.028-0.177,0.055-0.266,0.083c-0.101,0.031-0.202,0.063-0.302,0.094
		c-0.083,0.026-0.164,0.052-0.246,0.078c-0.106,0.033-0.213,0.067-0.318,0.101c-0.073,0.022-0.145,0.045-0.217,0.068
		c-0.11,0.036-0.22,0.07-0.329,0.106c-0.053,0.017-0.104,0.033-0.156,0.05c-0.129,0.042-0.259,0.083-0.385,0.124
		c-0.004,0.001-0.008,0.003-0.012,0.004c-0.005,0.001-0.008,0.003-0.013,0.004c0,0,0,0,0,0c-0.369,0.46-0.721,0.932-1.024,1.403
		C16.235,7.276,16.086,7.527,15.958,7.775z"/>
	<path fill="#EACB15" d="M29.971-0.524c-0.002,0-0.002,0-0.002,0c-0.053,0.004-0.107,0.007-0.162,0.012
		c0.062,0.001,0.123,0.003,0.182,0.004C29.984-0.513,29.977-0.519,29.971-0.524z"/>
	<path fill="#EACB15" d="M37.148,6.182c0.637,0.281,0.959,1.118,1.572,1.309c0.949,0.296,2.041-0.73,2.602-1.995
		c0,0,0-0.001,0-0.001c-0.033-0.013-0.072-0.026-0.107-0.04c-0.455-0.174-0.934-0.351-1.426-0.527
		c-0.043-0.015-0.082-0.03-0.125-0.045c-0.504-0.179-1.023-0.356-1.549-0.529c-0.086-0.028-0.17-0.056-0.256-0.084
		c-0.516-0.168-1.037-0.331-1.555-0.485c-0.086-0.026-0.17-0.05-0.256-0.075c-0.527-0.155-1.053-0.303-1.562-0.435
		c-0.016-0.004-0.031-0.009-0.045-0.013c0,0,0,0.001,0,0.001c-0.062,0.634,0.125,1.327,0.674,2.013
		C35.703,6.008,36.436,5.868,37.148,6.182z"/>
	<path fill="#CEAE0F" d="M17.816,29.342c0.429-0.25,0.861-0.502,1.296-0.762c-0.296-0.518-1.007-0.246-1.558-0.354
		c-1.317-0.258-0.785-1-1.463-1.973c-0.458-0.656-1.187-0.455-1.848,0.1c-0.389,0.328-0.622,1.045-1.011,1.289
		c-0.354,0.223-0.741-0.102-1.066,0.127c-1.147,0.805-0.761,3.027-0.392,4.293c0.099,0.006,0.193,0,0.281-0.016
		c0.033-0.006,0.076-0.021,0.11-0.027c0.333-0.068,0.718-0.188,1.16-0.363C14.551,31.172,16.143,30.312,17.816,29.342z"/>
	<path fill="#0F161E" d="M34.311,14.986c0,0-0.012,0.078-0.033,0.222c-0.109,0.716-0.486,3.084-1.068,5.933
		c-0.027,0.133-0.061,0.275-0.088,0.41c-0.119,0.57-0.24,1.146-0.375,1.74c-0.176,0.781-0.367,1.574-0.566,2.359
		c-0.041,0.158-0.084,0.318-0.123,0.477c-0.051,0.195-0.105,0.389-0.158,0.582c-0.096,0.35-0.193,0.693-0.293,1.031
		c-0.094,0.324-0.191,0.646-0.291,0.959c-0.012,0.041-0.025,0.078-0.039,0.117c-0.025,0.08-0.051,0.154-0.078,0.234
		c-0.047,0.143-0.094,0.283-0.141,0.422c-0.182,0.543-0.367,1.07-0.555,1.57c-0.287,0.771-0.578,1.492-0.857,2.152
		c-0.047,0.113-0.096,0.223-0.141,0.332c-0.211,0.486-0.412,0.928-0.607,1.342c-0.849,1.82-1.49,2.947-1.534,3.205
		c-0.007,0.025-0.007,0.049,0.002,0.055c0.478,0.445,4.284-0.482,5.079-1.609c0,0,1.75-3.025,3.631-6.959
		c0.039-0.082,0.078-0.168,0.119-0.252c0.209-0.439,0.418-0.887,0.627-1.344c0.045-0.098,0.088-0.195,0.135-0.293
		c0.451-1.004,0.898-2.039,1.314-3.076c0.061-0.15,0.119-0.297,0.178-0.445c0.41-1.045,0.787-2.092,1.109-3.105
		c0.178-0.563,0.342-1.117,0.48-1.656c0.434-1.666,0.666-3.195,0.578-4.434c-0.002-0.042-0.014-0.09-0.018-0.133
		C40.162,11.6,31.705,4.137,28.889,2.92c0,0-0.342-0.019-0.876-0.018c-0.045,0-0.091,0-0.139,0.001
		c-1.314,0.011-3.601,0.155-5.014,0.938c0,0,0.053,0.038,0.143,0.104c0.582,0.421,2.897,2.125,5.306,4.209
		C30.863,10.365,33.518,13,34.311,14.986z"/>
</g>
</svg>
