<?xml version="1.0" encoding="utf-8"?>
<!-- Generator: Adobe Illustrator 16.0.0, SVG Export Plug-In . SVG Version: 6.00 Build 0)  -->
<!DOCTYPE svg PUBLIC "-//W3C//DTD SVG 1.1//EN" "http://www.w3.org/Graphics/SVG/1.1/DTD/svg11.dtd">
<svg version="1.1" id="Layer_1" xmlns="http://www.w3.org/2000/svg" xmlns:xlink="http://www.w3.org/1999/xlink" x="0px" y="0px"
	 width="56.406px" height="40.379px" viewBox="0 0 56.406 40.379" enable-background="new 0 0 56.406 40.379" xml:space="preserve">
<g>
	<defs>
		<polyline id="SVGID_1_" points="-530,-345 270,-345 270,455 -530,455 		"/>
	</defs>
	<clipPath id="SVGID_2_">
		<use xlink:href="#SVGID_1_"  overflow="visible"/>
	</clipPath>
</g>
<g>
	<defs>
		<polyline id="SVGID_3_" points="-530,-345 270,-345 270,455 -530,455 		"/>
	</defs>
	<clipPath id="SVGID_4_">
		<use xlink:href="#SVGID_3_"  overflow="visible"/>
	</clipPath>
</g>
<g>
	<defs>
		<polyline id="SVGID_5_" points="-530,-345 270,-345 270,455 -530,455 		"/>
	</defs>
	<clipPath id="SVGID_6_">
		<use xlink:href="#SVGID_5_"  overflow="visible"/>
	</clipPath>
</g>
<g>
	<defs>
		<polyline id="SVGID_7_" points="-530,-345 270,-345 270,455 -530,455 		"/>
	</defs>
	<clipPath id="SVGID_8_">
		<use xlink:href="#SVGID_7_"  overflow="visible"/>
	</clipPath>
</g>
<g>
	<defs>
		<polyline id="SVGID_9_" points="-530,-345 270,-345 270,455 -530,455 		"/>
	</defs>
	<clipPath id="SVGID_10_">
		<use xlink:href="#SVGID_9_"  overflow="visible"/>
	</clipPath>
</g>
<g>
	<path fill="none" d="M58.02,17.067c0.036-0.015,0.062-0.033,0.096-0.048v-2.72c-0.033-0.038-0.064-0.076-0.098-0.113
		c0.033,0.037,0.064,0.076,0.098,0.113v-0.467c-0.194-0.12-0.385-0.24-0.57-0.358c0.186,0.118,0.376,0.238,0.57,0.358V0H0.036
		v24.141c0.027-0.561,0.076-1.099,0.142-1.611C1.176,14.825,6.31,12.344,6.31,12.344c0.016-0.033,0.033-0.061,0.048-0.093
		c0.001-0.002,0.001-0.004,0.002-0.006c0.097-0.198,0.195-0.391,0.297-0.577c0,0,0.003,0,0.003,0c2.258-4.118,5.753-5.18,7.78-5.433
		c0.097-0.012,0.191-0.022,0.281-0.031c0.18-0.017,0.345-0.028,0.493-0.035c0.52-0.022,0.83,0.008,0.83,0.008
		c0.132-0.182,0.266-0.357,0.399-0.524c0.83-1.034,1.699-1.778,2.561-2.311c-0.156-0.019-0.302-0.049-0.461-0.064
		c0,0,2.729-2.371,8.33-1.567c4.896-3.038,9.37,0.897,9.37,0.897c0.218-0.125,0.436-0.236,0.653-0.335
		c0.046-0.021,0.091-0.037,0.137-0.056c0.179-0.077,0.357-0.148,0.536-0.209c0.029-0.01,0.059-0.018,0.088-0.027
		c0.199-0.065,0.397-0.121,0.596-0.166c0.008-0.002,0.017-0.003,0.025-0.005c4.888-1.104,9.431,3.471,10.784,4.997
		c1.23-0.051,2.854,0.297,3.62,0.728c0.322,0.182,0.49,0.378,0.407,0.562c-0.249,0.553-1.39,0.552-1.945,0.518
		c-0.185-0.012-0.305-0.027-0.305-0.027c2.923,1.148,8.691,6.809,6.809,8.283c-0.074,0.059-0.157,0.099-0.242,0.132
		c-0.022,0.008-0.045,0.015-0.069,0.021c-0.073,0.022-0.151,0.037-0.231,0.041c-0.015,0-0.027,0.003-0.041,0.004
		c-0.095,0.002-0.193-0.011-0.294-0.031c-0.025-0.005-0.05-0.012-0.075-0.019c-0.085-0.02-0.172-0.049-0.26-0.083
		c-0.023-0.009-0.045-0.016-0.067-0.025c-0.109-0.046-0.219-0.1-0.334-0.164c-0.02-0.012-0.041-0.025-0.062-0.037
		c-0.097-0.057-0.195-0.119-0.295-0.187c-0.026-0.018-0.055-0.037-0.082-0.056c-0.118-0.083-0.236-0.171-0.356-0.267
		c-0.009-0.007-0.019-0.015-0.027-0.022c-0.113-0.09-0.225-0.187-0.34-0.287c-0.027-0.025-0.059-0.052-0.088-0.079
		c-0.116-0.104-0.231-0.212-0.348-0.324c-0.005-0.004-0.01-0.008-0.016-0.014c-0.123-0.119-0.244-0.243-0.366-0.367
		c-0.026-0.028-0.054-0.057-0.083-0.086c-0.103-0.107-0.206-0.218-0.308-0.329c-0.018-0.02-0.037-0.04-0.055-0.059
		c-0.118-0.13-0.235-0.261-0.35-0.393c-0.021-0.024-0.042-0.049-0.064-0.074c-0.099-0.114-0.195-0.228-0.29-0.34
		c-0.02-0.023-0.039-0.046-0.058-0.068c-0.112-0.134-0.222-0.267-0.327-0.397c-0.004-0.005-0.008-0.012-0.014-0.018
		c-0.104-0.129-0.204-0.255-0.302-0.378c-0.009-0.012-0.019-0.024-0.028-0.036c-0.099-0.127-0.194-0.251-0.285-0.371
		c0.001,0.001,0.001,0.002,0.002,0.003c0.016,0.023,0.031,0.048,0.046,0.071c0.027,0.042,0.056,0.085,0.083,0.13
		c0.021,0.036,0.046,0.073,0.069,0.111c0.031,0.051,0.062,0.103,0.094,0.155c0.02,0.032,0.038,0.062,0.057,0.094
		c0.049,0.082,0.095,0.165,0.141,0.247c0.014,0.026,0.027,0.051,0.04,0.077c0.034,0.062,0.067,0.124,0.098,0.185
		c0.017,0.032,0.032,0.063,0.047,0.095c0.029,0.06,0.06,0.121,0.085,0.18c0.014,0.028,0.026,0.056,0.038,0.083
		c0.038,0.085,0.073,0.171,0.105,0.256c0.005,0.011,0.008,0.021,0.011,0.032c0.028,0.074,0.053,0.146,0.074,0.217
		c0.009,0.027,0.015,0.053,0.022,0.081c0.017,0.056,0.031,0.113,0.043,0.167c0.005,0.026,0.012,0.053,0.015,0.079
		c0.013,0.064,0.022,0.128,0.026,0.188c0.002,0.014,0.005,0.026,0.004,0.039c0.006,0.073,0.006,0.142,0,0.209
		c0,0.02-0.005,0.038-0.007,0.057c-0.007,0.047-0.017,0.093-0.027,0.137c-0.005,0.021-0.012,0.041-0.019,0.061
		c-0.016,0.043-0.035,0.084-0.058,0.124c-0.008,0.015-0.017,0.03-0.024,0.044c-0.033,0.05-0.073,0.097-0.121,0.139
		c-0.01,0.01-0.022,0.016-0.033,0.025c-0.039,0.032-0.083,0.062-0.134,0.088c-0.02,0.01-0.042,0.021-0.063,0.03
		c-0.049,0.021-0.102,0.039-0.157,0.055c-0.024,0.007-0.048,0.015-0.073,0.02c-0.086,0.018-0.175,0.034-0.276,0.041
		c-0.26,0.018-0.503-0.033-0.733-0.141c-0.226-0.106-0.434-0.277-0.632-0.48c-0.076,0.918-0.511,1.842-0.511,1.842
		c1.107,1.475,1.406,2.728-0.108,3.675c1.039,2.455-1.182,3.037-1.182,3.037c0.749,3.083-2.292,3.545-2.292,3.545
		c0,2.219-2.004,2.219-2.004,2.219c-0.584,3.447-3.319,2.423-3.319,2.423c-0.565,3.312-3.077,2.557-3.077,2.557
		c-0.503,1.247-1.205,1.679-1.899,1.728c-0.053,0.106-0.106,0.224-0.159,0.313c0,0-3.045,1.785-5.104,0.895
		c0,0,0.002-0.01,0.003-0.014c-1.075,1.998-2.549,0.597-2.549,0.597c-1.173,1.829-3.207,0.54-3.207,0.54
		c-1.398,2.644-3.986-0.394-3.986-0.394c-2.812,2.271-3.613-0.602-3.613-0.602c-2.099,1.854-3.868-1.069-3.868-1.069
		c-2.515,1.521-4.186-1.454-4.186-1.454c-3.801,1.062-3.045-3.655-3.045-3.655c-3.073-1.161-1.97-4.115-1.381-5.291
		c-3.545-0.062-5.11-2.204-5.11-2.204v15.75h58.08V17.019C58.082,17.035,58.056,17.053,58.02,17.067z M57.521,13.457
		c-0.182-0.117-0.36-0.232-0.531-0.346C57.16,13.224,57.339,13.339,57.521,13.457z M55.332,6.162
		c0.478,0.092,0.769,0.266,0.741,0.529C56.1,6.428,55.81,6.254,55.332,6.162z M56.43,12.736c0.162,0.11,0.333,0.225,0.51,0.342
		c-0.175-0.116-0.346-0.23-0.506-0.339C56.433,12.738,56.431,12.737,56.43,12.736z M56.52,12.809
		c0.053,0.042,0.104,0.083,0.157,0.127C56.624,12.892,56.573,12.851,56.52,12.809z M56.81,13.045
		c0.061,0.05,0.121,0.103,0.181,0.154C56.931,13.148,56.87,13.096,56.81,13.045z M57.101,13.293
		c0.093,0.082,0.186,0.165,0.276,0.249C57.286,13.458,57.194,13.375,57.101,13.293z M57.459,13.62
		c0.067,0.063,0.134,0.126,0.198,0.19C57.593,13.747,57.527,13.683,57.459,13.62z M57.755,13.908
		c0.062,0.063,0.122,0.126,0.181,0.189C57.877,14.034,57.817,13.971,57.755,13.908z"/>
	<path fill="none" d="M49.531,13.693c-0.089-0.202-0.172-0.409-0.251-0.62c-0.028,0.209-0.069,0.407-0.132,0.569
		C49.29,13.649,49.413,13.669,49.531,13.693z"/>
	<path fill="none" d="M48.464,10.225c-0.012-0.053-0.025-0.11-0.036-0.162c-0.029,0.006-0.057,0.017-0.086,0.022
		C48.387,10.128,48.422,10.179,48.464,10.225z"/>
	<path fill="#EF7C1D" d="M50.259,7.729c0.302,0.312,0.45,0.813-0.136,1.587c-0.321,0.268-0.709,0.458-1.13,0.599
		c-0.182,0.061-0.372,0.107-0.565,0.148c0.011,0.051,0.024,0.109,0.036,0.162c0.724,0.784,0.935,1.971,0.816,2.849
		c0.079,0.211,0.162,0.418,0.251,0.62c0.963,0.198,1.167,0.976,1.103,1.761c0.198,0.203,0.406,0.374,0.632,0.48
		c0.23,0.108,0.474,0.159,0.733,0.141c0.102-0.007,0.19-0.022,0.276-0.041c0.025-0.005,0.049-0.013,0.073-0.02
		c0.056-0.017,0.108-0.035,0.157-0.055c0.021-0.009,0.044-0.02,0.063-0.03c0.051-0.026,0.095-0.056,0.134-0.088
		c0.011-0.009,0.023-0.015,0.033-0.025c0.048-0.042,0.088-0.088,0.121-0.139c0.008-0.014,0.017-0.029,0.024-0.044
		c0.022-0.039,0.042-0.08,0.058-0.124c0.007-0.02,0.014-0.04,0.019-0.061c0.011-0.044,0.021-0.09,0.027-0.137
		c0.002-0.019,0.007-0.037,0.007-0.057c0.006-0.067,0.006-0.136,0-0.209c0.001-0.012-0.002-0.025-0.004-0.039
		c-0.004-0.061-0.014-0.124-0.026-0.188c-0.003-0.026-0.01-0.052-0.015-0.079c-0.012-0.055-0.026-0.111-0.043-0.167
		c-0.008-0.027-0.014-0.053-0.022-0.081c-0.021-0.071-0.046-0.144-0.074-0.217c-0.003-0.011-0.006-0.021-0.011-0.032
		c-0.032-0.084-0.067-0.17-0.105-0.256c-0.012-0.028-0.024-0.056-0.038-0.083c-0.025-0.059-0.056-0.12-0.085-0.18
		c-0.015-0.032-0.03-0.063-0.047-0.095c-0.03-0.062-0.063-0.124-0.098-0.185c-0.013-0.026-0.026-0.051-0.04-0.077
		c-0.046-0.083-0.092-0.165-0.141-0.247c-0.019-0.031-0.037-0.062-0.057-0.094c-0.031-0.052-0.062-0.104-0.094-0.155
		c-0.023-0.038-0.048-0.075-0.069-0.111c-0.027-0.044-0.056-0.087-0.083-0.13c-0.015-0.023-0.03-0.048-0.046-0.071
		c-0.001-0.001-0.001-0.002-0.002-0.003c0.091,0.119,0.187,0.244,0.285,0.371c0.01,0.012,0.02,0.024,0.028,0.036
		c0.098,0.124,0.198,0.25,0.302,0.378c0.006,0.006,0.01,0.013,0.014,0.018c0.105,0.13,0.215,0.264,0.327,0.397
		c0.019,0.022,0.038,0.045,0.058,0.068c0.095,0.113,0.191,0.227,0.29,0.34c0.022,0.024,0.043,0.049,0.064,0.074
		c0.114,0.132,0.231,0.262,0.35,0.393c0.018,0.02,0.037,0.04,0.055,0.059c0.102,0.111,0.205,0.221,0.308,0.329
		c0.029,0.029,0.057,0.058,0.083,0.086c0.122,0.125,0.243,0.249,0.366,0.367c0.006,0.006,0.011,0.01,0.016,0.014
		c0.116,0.112,0.231,0.22,0.348,0.324c0.029,0.026,0.061,0.053,0.088,0.079c0.115,0.1,0.227,0.196,0.34,0.287
		c0.009,0.007,0.019,0.016,0.027,0.022c0.12,0.096,0.238,0.184,0.356,0.267c0.027,0.019,0.056,0.038,0.082,0.056
		c0.1,0.067,0.198,0.129,0.295,0.187c0.021,0.012,0.042,0.025,0.062,0.037c0.115,0.063,0.225,0.118,0.334,0.164
		c0.022,0.01,0.044,0.016,0.067,0.025c0.088,0.034,0.175,0.063,0.26,0.083c0.025,0.007,0.05,0.014,0.075,0.019
		c0.101,0.02,0.199,0.033,0.294,0.031c0.014,0,0.026-0.003,0.041-0.004c0.08-0.004,0.158-0.019,0.231-0.041
		c0.024-0.006,0.047-0.014,0.069-0.021c0.085-0.033,0.168-0.073,0.242-0.132c1.883-1.474-3.886-7.135-6.809-8.283
		c0,0,0.12,0.015,0.305,0.027c0.556,0.035,1.696,0.035,1.945-0.518c0.083-0.184-0.085-0.38-0.407-0.562
		c-0.766-0.431-2.39-0.779-3.62-0.728c0.264,0.297,0.41,0.482,0.41,0.482S49.948,7.406,50.259,7.729z"/>
	<path fill="#D9F3F9" d="M30.99,32.813c0,0,0.143,0.03,0.379,0.049c0.136,0.008,0.309,0.01,0.495,0
		c0.06-0.366,0.12-0.746,0.182-1.139c-0.425-0.045-0.827-0.225-1.144-0.414c-0.003,0.009-0.004,0.015-0.008,0.026
		c-0.057,0.143-0.152,0.367-0.387,0.575c-0.227,0.214-0.605,0.375-1.035,0.393c-0.022,0-0.047-0.004-0.069-0.004
		c-0.654,0.428-1.356-0.034-1.356-0.034c-0.929,2.437-2.424,1.008-2.424,1.008c-1.01,1.575-2.764,0.467-2.764,0.467
		c-0.872,1.646-2.277,0.735-2.99,0.104c-0.145,0.144-0.297,0.286-0.476,0.41c-0.207,0.139-0.442,0.265-0.707,0.306
		c-0.263,0.047-0.547-0.024-0.743-0.198c0-0.024,0.224,0.186,0.626,0.092c0.342-0.069,0.734-0.377,1.089-0.805
		c-0.148-0.146-0.237-0.25-0.237-0.25c-2.424,1.958-3.114-0.52-3.114-0.52c-1.809,1.601-3.334-0.919-3.334-0.919
		c-2.167,1.31-3.608-1.253-3.608-1.253c-2.253,0.629-2.649-1.097-2.677-2.237c-0.521,0.049-0.914,0.128-1.729-0.155
		c0.195-0.389-0.233-1.083-0.034-1.467c0.087-0.167,0.179-0.334,0.268-0.503c-0.016,0-0.032,0.002-0.048,0
		c-0.589,1.176-1.692,4.13,1.381,5.291c0,0-0.756,4.717,3.045,3.655c0,0,1.671,2.975,4.186,1.454c0,0,1.77,2.924,3.868,1.069
		c0,0,0.801,2.873,3.613,0.602c0,0,2.588,3.037,3.986,0.394c0,0,2.034,1.289,3.207-0.54c0,0,1.474,1.401,2.549-0.597
		c0.02-0.094,0.407-1.94,0.843-4.576C31.546,33.052,31.261,32.96,30.99,32.813z"/>
	<path fill="#D9F3F9" d="M49.531,13.693c-0.118-0.024-0.241-0.044-0.383-0.05c0.062-0.163,0.104-0.36,0.132-0.569
		c0.118-0.878-0.093-2.065-0.816-2.849c-0.042-0.045-0.077-0.097-0.122-0.139c-0.482,0.095-0.992,0.14-1.501,0.142
		c-0.484,0.001-0.962-0.034-1.415-0.084c0.093,0.751-0.417,1.584-1.012,2.235c0.854,0.812-0.094,2.816-0.094,2.816
		c0.954,1.271,1.211,2.351-0.094,3.167c0.896,2.117-1.02,2.618-1.02,2.618c0.098,0.406,0.114,0.753,0.081,1.059
		c0.151-0.112,0.331-0.291,0.489-0.521c0.325-0.486,0.477-1.234,0.729-1.841c0,0,0.018,0.079,0.031,0.226
		c0.019,0.148,0.021,0.365-0.011,0.646c-0.046,0.274-0.119,0.627-0.363,0.971c-0.187,0.284-0.508,0.532-0.889,0.65
		c-0.259,1.592-2.043,1.868-2.043,1.868c0,1.911-1.727,1.911-1.727,1.911c-0.198,1.17-0.686,1.738-1.203,2.003
		c-0.485,3.995-1.308,7.021-2.061,8.528c0.694-0.049,1.396-0.48,1.899-1.728c0,0,2.512,0.756,3.077-2.557
		c0,0,2.735,1.024,3.319-2.423c0,0,2.004,0,2.004-2.219c0,0,3.041-0.462,2.292-3.545c0,0,2.221-0.582,1.182-3.037
		c1.515-0.947,1.216-2.2,0.108-3.675c0,0,0.435-0.923,0.511-1.842C50.698,14.669,50.494,13.892,49.531,13.693z M43.918,25.127
		c-0.057,0.175-0.164,0.46-0.455,0.704c-0.171,0.146-0.406,0.264-0.677,0.339c0.004,0.041,0.009,0.107,0.01,0.228
		c-0.008,0.178-0.031,0.453-0.188,0.776c-0.146,0.316-0.45,0.691-0.94,0.881c-0.481,0.191-1.125,0.145-1.617-0.206
		c0,0,0.035,0.008,0.099,0.022c0.062,0.018,0.153,0.038,0.271,0.049c0.229,0.03,0.555,0.028,0.891-0.08
		c0.333-0.117,0.668-0.336,0.909-0.655c0.238-0.296,0.405-0.656,0.539-1.007c-0.175,0.045-0.36,0.077-0.562,0.071
		c-0.263-0.006-0.541-0.063-0.809-0.181c-0.267-0.117-0.529-0.306-0.7-0.564c0,0,0.032,0.021,0.088,0.059
		c0.053,0.041,0.136,0.09,0.244,0.141c0.216,0.102,0.538,0.197,0.914,0.212c0.375,0.021,0.793-0.057,1.164-0.229
		c0.367-0.181,0.666-0.482,0.858-0.841C43.956,24.846,43.952,24.939,43.918,25.127z M45.62,23.998
		c0.062-0.102,0.139-0.242,0.214-0.403c0.153-0.324,0.257-0.735,0.443-1.108c0,0,0.025,0.047,0.053,0.139
		c0.032,0.09,0.056,0.228,0.05,0.403c-0.015,0.175-0.058,0.396-0.2,0.609c-0.135,0.214-0.361,0.421-0.661,0.523
		C45.519,24.161,45.557,24.098,45.62,23.998z M46.556,25.257c-0.073,0.324-0.253,0.709-0.583,1.054
		c-0.328,0.33-0.847,0.644-1.426,0.593c-0.002-0.007,0.133-0.03,0.33-0.126c0.196-0.095,0.45-0.268,0.688-0.516
		c0.237-0.247,0.455-0.568,0.62-0.917c0.159-0.351,0.265-0.726,0.314-1.095c0,0,0.034,0.08,0.075,0.249
		C46.603,24.666,46.631,24.929,46.556,25.257z"/>
	<path fill="#D9F3F9" d="M30.809,31.249c-0.335-0.214-0.553-0.416-0.553-0.416c-0.118,0.459-0.269,0.797-0.436,1.043
		c0.12-0.036,0.241-0.069,0.353-0.126C30.409,31.626,30.617,31.446,30.809,31.249z"/>
	<path fill="#FFFFFF" d="M39.505,25.947c0,0,1.727,0,1.727-1.911c0,0,1.784-0.276,2.043-1.868c-0.083,0.024-0.165,0.052-0.253,0.063
		c0,0,0.096-0.067,0.253-0.18c0.004-0.002,0.009-0.01,0.014-0.014c0.033-0.306,0.017-0.652-0.081-1.059c0,0,1.915-0.501,1.02-2.618
		c1.305-0.817,1.048-1.896,0.094-3.167c0,0,0.947-2.004,0.094-2.816c-0.172,0.187-0.35,0.36-0.521,0.51
		c-1.594,1.38-3.466,2.126-5.37,2.805c0.005,0.063,0.014,0.122,0.02,0.186c0.18,2.352,0.217,4.602,0.155,6.711
		c0.057-0.141,0.114-0.281,0.163-0.42c0,0,0.013,0.095,0.017,0.286c-0.009,0.188-0.021,0.473-0.151,0.816
		c-0.015,0.043-0.038,0.09-0.058,0.137c-0.068,1.615-0.195,3.136-0.366,4.541C38.82,27.686,39.307,27.117,39.505,25.947z"/>
	<path fill="#FFFFFF" d="M25.045,23.026c-0.411,2.296-1.791,4.19-3.571,5.663c-1.518,1.255-3.087,1.476-4.995,1.559
		c-1.708,0.073-3.643,0.312-5.259-0.385c-1.186-0.514-2.099-1.208-3.422-1.379c-0.479-0.062-0.815-0.043-1.11-0.015
		c0.027,1.141,0.424,2.866,2.677,2.237c0,0,1.441,2.562,3.608,1.253c0,0,1.525,2.52,3.334,0.919c0,0,0.69,2.478,3.114,0.52
		c0,0,0.089,0.104,0.237,0.25c0.057-0.067,0.114-0.13,0.167-0.203c0.101-0.133,0.195-0.277,0.285-0.428
		c0.046-0.074,0.086-0.153,0.128-0.232l0.096-0.194l0.031-0.062c0.016-0.011,0.045,0,0.067,0l0.14,0.01
		c0.415,0.031,0.765,0.065,1.139,0.03c0.367-0.03,0.717-0.145,1.023-0.332c0.305-0.193,0.561-0.454,0.781-0.725
		c0,0-0.018,0.038-0.052,0.111c-0.035,0.072-0.086,0.184-0.178,0.314c-0.171,0.259-0.502,0.66-1.116,0.865
		c-0.302,0.099-0.658,0.144-1.033,0.129c-0.181-0.002-0.397-0.022-0.558-0.035l-0.001-0.002c0,0,0-0.002-0.002,0.004l-0.038,0.07
		c-0.054,0.093-0.108,0.187-0.172,0.276c-0.14,0.206-0.309,0.407-0.498,0.599c0.712,0.632,2.118,1.543,2.99-0.104
		c0,0,1.754,1.108,2.764-0.467c0,0,1.495,1.429,2.424-1.008c0,0,0.702,0.462,1.356,0.034c-0.413,0.004-0.852-0.107-1.31-0.291
		c0,0,0.124,0,0.33,0c0.205,0.002,0.491,0.008,0.805-0.017c0.195-0.016,0.396-0.057,0.593-0.116
		c0.167-0.246,0.317-0.584,0.436-1.043c0,0,0.218,0.202,0.553,0.416c0.047-0.049,0.1-0.092,0.145-0.143c0,0-0.014,0.073-0.052,0.203
		c0.316,0.189,0.719,0.369,1.144,0.414c0.234-1.521,0.467-3.213,0.651-4.94c-0.055-0.004-0.11,0-0.166-0.009
		c0,0,0.042-0.008,0.116-0.02c0.016-0.003,0.037-0.005,0.055-0.009c0.325-3.054,0.493-6.194,0.246-8.631
		c-0.948,0.622-1.817,1.364-2.756,2C28.558,21.223,26.798,22.124,25.045,23.026z M21.585,29.961
		c-0.169,0.251-0.485,0.516-0.926,0.605c-0.22,0.04-0.466,0.03-0.698-0.056c-0.232-0.087-0.441-0.25-0.582-0.46
		c0.004-0.008,0.099,0.073,0.279,0.145c0.177,0.075,0.44,0.131,0.728,0.088c0.286-0.045,0.589-0.188,0.839-0.405
		c0.251-0.216,0.456-0.497,0.618-0.789C21.826,29.077,21.929,29.441,21.585,29.961z M29.928,24.203
		c-0.143,0.408-0.458,0.891-1.04,1.187c-0.298,0.139-0.668,0.161-1.001,0.073c-0.338-0.082-0.65-0.23-1.009-0.349
		c0,0,0.045,0.004,0.127,0.01c0.083,0.007,0.203,0.019,0.35,0.041c0.292,0.035,0.71,0.137,1.117,0.037
		c0.396-0.124,0.786-0.473,1.047-0.895c0.259-0.428,0.399-0.927,0.397-1.406c0,0,0.041,0.103,0.1,0.322
		C30.041,23.438,30.078,23.786,29.928,24.203z"/>
	<path fill="#85C2CC" d="M21.225,29.878c-0.25,0.218-0.553,0.36-0.839,0.405c-0.287,0.043-0.551-0.013-0.728-0.088
		c-0.18-0.071-0.275-0.152-0.279-0.145c0.141,0.21,0.35,0.373,0.582,0.46c0.231,0.086,0.478,0.096,0.698,0.056
		c0.441-0.09,0.757-0.354,0.926-0.605c0.344-0.52,0.241-0.884,0.258-0.872C21.68,29.381,21.476,29.662,21.225,29.878z"/>
	<path fill="#85C2CC" d="M20.538,32.969l0.038-0.07c0.002-0.006,0.002-0.004,0.002-0.004l0.001,0.002
		c0.161,0.013,0.377,0.033,0.558,0.035c0.375,0.015,0.731-0.03,1.033-0.129c0.614-0.205,0.945-0.606,1.116-0.865
		c0.092-0.131,0.143-0.242,0.178-0.314c0.034-0.073,0.052-0.111,0.052-0.111c-0.22,0.271-0.476,0.531-0.781,0.725
		c-0.307,0.188-0.657,0.302-1.023,0.332c-0.374,0.035-0.724,0.001-1.139-0.03l-0.14-0.01c-0.022,0-0.051-0.011-0.067,0l-0.031,0.062
		l-0.096,0.194c-0.042,0.079-0.083,0.158-0.128,0.232c-0.09,0.15-0.184,0.295-0.285,0.428c-0.053,0.073-0.111,0.136-0.167,0.203
		c-0.355,0.428-0.748,0.735-1.089,0.805c-0.402,0.094-0.626-0.116-0.626-0.092c0.196,0.174,0.48,0.245,0.743,0.198
		c0.264-0.041,0.5-0.167,0.707-0.306c0.179-0.124,0.332-0.267,0.476-0.41c0.189-0.191,0.357-0.393,0.498-0.599
		C20.429,33.155,20.484,33.062,20.538,32.969z"/>
	<path fill="#85C2CC" d="M29.916,22.901c0.002,0.479-0.139,0.979-0.397,1.406c-0.261,0.422-0.651,0.771-1.047,0.895
		c-0.407,0.1-0.825-0.002-1.117-0.037c-0.146-0.022-0.267-0.034-0.35-0.041c-0.082-0.006-0.127-0.01-0.127-0.01
		c0.358,0.118,0.671,0.267,1.009,0.349c0.333,0.088,0.703,0.065,1.001-0.073c0.582-0.296,0.897-0.778,1.04-1.187
		c0.15-0.417,0.113-0.766,0.088-0.979C29.957,23.004,29.916,22.901,29.916,22.901z"/>
	<path fill="#85C2CC" d="M32.531,26.774c0.056,0.009,0.111,0.005,0.166,0.009c0.001-0.011,0.003-0.024,0.005-0.037
		c-0.018,0.004-0.039,0.006-0.055,0.009C32.573,26.767,32.531,26.774,32.531,26.774z"/>
	<path fill="#85C2CC" d="M30.809,31.249c-0.191,0.197-0.399,0.377-0.636,0.501c-0.111,0.057-0.232,0.09-0.353,0.126
		c-0.197,0.06-0.397,0.101-0.593,0.116c-0.313,0.024-0.6,0.019-0.805,0.017c-0.206,0-0.33,0-0.33,0
		c0.458,0.184,0.896,0.295,1.31,0.291c0.022,0,0.047,0.004,0.069,0.004c0.43-0.018,0.809-0.179,1.035-0.393
		c0.234-0.208,0.33-0.433,0.387-0.575c0.004-0.012,0.005-0.018,0.008-0.026c0.038-0.13,0.052-0.203,0.052-0.203
		C30.908,31.157,30.856,31.2,30.809,31.249z"/>
	<path fill="#85C2CC" d="M30.99,32.813c0.271,0.146,0.557,0.238,0.835,0.283c0.014-0.079,0.025-0.153,0.039-0.234
		c-0.187,0.01-0.359,0.008-0.495,0C31.132,32.844,30.99,32.813,30.99,32.813z"/>
	<path fill="#85C2CC" d="M43.098,25.687c-0.371,0.172-0.789,0.249-1.164,0.229c-0.376-0.015-0.698-0.11-0.914-0.212
		c-0.108-0.051-0.191-0.1-0.244-0.141c-0.056-0.037-0.088-0.059-0.088-0.059c0.171,0.259,0.434,0.447,0.7,0.564
		c0.268,0.117,0.546,0.175,0.809,0.181c0.202,0.006,0.388-0.026,0.562-0.071c0.007-0.019,0.017-0.037,0.024-0.057
		c0,0,0.002,0.026,0.003,0.049c0.271-0.075,0.506-0.193,0.677-0.339c0.291-0.244,0.398-0.529,0.455-0.704
		c0.034-0.188,0.038-0.281,0.038-0.281C43.764,25.204,43.465,25.506,43.098,25.687z"/>
	<path fill="#85C2CC" d="M42.759,26.178c-0.134,0.351-0.301,0.711-0.539,1.007c-0.241,0.319-0.576,0.538-0.909,0.655
		c-0.336,0.108-0.661,0.11-0.891,0.08c-0.117-0.011-0.209-0.031-0.271-0.049c-0.063-0.015-0.099-0.022-0.099-0.022
		c0.492,0.351,1.136,0.397,1.617,0.206c0.49-0.189,0.794-0.564,0.94-0.881c0.156-0.323,0.18-0.599,0.188-0.776
		c-0.001-0.12-0.006-0.187-0.01-0.228c-0.001-0.022-0.003-0.049-0.003-0.049C42.776,26.141,42.766,26.159,42.759,26.178z"/>
	<path fill="#85C2CC" d="M38.877,22.456c-0.004-0.191-0.017-0.286-0.017-0.286c-0.049,0.139-0.106,0.279-0.163,0.42
		c-0.009,0.275-0.019,0.548-0.029,0.819c0.02-0.047,0.043-0.094,0.058-0.137C38.856,22.929,38.868,22.644,38.877,22.456z"/>
	<path fill="#85C2CC" d="M43.022,22.231c0.088-0.012,0.17-0.039,0.253-0.063c0.381-0.118,0.702-0.366,0.889-0.65
		c0.244-0.344,0.317-0.696,0.363-0.971c0.032-0.28,0.029-0.497,0.011-0.646c-0.014-0.147-0.031-0.226-0.031-0.226
		c-0.252,0.607-0.403,1.355-0.729,1.841c-0.158,0.23-0.338,0.409-0.489,0.521c-0.005,0.004-0.01,0.012-0.014,0.014
		C43.117,22.164,43.022,22.231,43.022,22.231z"/>
	<path fill="#85C2CC" d="M46.499,24.25c-0.05,0.369-0.155,0.744-0.314,1.095c-0.165,0.349-0.383,0.67-0.62,0.917
		c-0.237,0.248-0.491,0.421-0.688,0.516c-0.197,0.096-0.332,0.119-0.33,0.126c0.579,0.051,1.098-0.263,1.426-0.593
		c0.33-0.345,0.51-0.729,0.583-1.054c0.075-0.328,0.047-0.591,0.019-0.758C46.533,24.33,46.499,24.25,46.499,24.25z"/>
	<path fill="#85C2CC" d="M46.18,23.638c0.143-0.214,0.186-0.435,0.2-0.609c0.006-0.176-0.018-0.313-0.05-0.403
		c-0.027-0.092-0.053-0.139-0.053-0.139c-0.187,0.373-0.29,0.784-0.443,1.108c-0.075,0.161-0.152,0.302-0.214,0.403
		c-0.063,0.1-0.102,0.163-0.102,0.163C45.819,24.059,46.045,23.852,46.18,23.638z"/>
	<path fill="#D9F3F9" d="M4.959,28.314c0.814,0.283,1.207,0.204,1.729,0.155c0.295-0.028,0.63-0.047,1.11,0.015
		c1.323,0.171,2.237,0.865,3.422,1.379c1.616,0.697,3.55,0.458,5.259,0.385c1.908-0.083,3.477-0.304,4.995-1.559
		c1.78-1.473,3.16-3.367,3.571-5.663c1.753-0.902,3.513-1.804,5.146-2.912c0.938-0.635,1.808-1.378,2.756-2
		c-0.037-0.364-0.081-0.717-0.137-1.047c-0.071-0.416-0.16-0.833-0.261-1.25c-3.295,5.212-6.851,4.929-7.339,4.861
		c-0.037-0.005-0.057-0.009-0.057-0.009c-0.278,1.877-1.651,4.051-3.416,5.813c-1.239,1.239-2.671,2.277-4.06,2.856
		c-0.481,0.203-0.956,0.349-1.416,0.432c-0.23,0.041-0.465,0.063-0.704,0.067c-2.325,0.043-4.986-1.557-6.564-2.681
		c-0.364-0.26-0.671-0.494-0.902-0.677c-0.309-0.244-0.484-0.397-0.484-0.397c-0.892,0.2-1.691,0.27-2.415,0.261
		c-0.089,0.169-0.181,0.336-0.268,0.503C4.726,27.231,5.155,27.926,4.959,28.314z"/>
	<path fill="#D9F3F9" d="M44.414,12.378c0.595-0.65,1.104-1.484,1.012-2.235c-0.797-0.088-1.5-0.229-1.977-0.34
		c-0.014-0.003-0.025-0.006-0.038-0.009c-0.146-0.035-0.278-0.067-0.373-0.092c-0.145-0.038-0.224-0.062-0.224-0.062
		c-0.782,2.409-2.748,3.35-4.63,3.668c0.15,0.747,0.266,1.54,0.338,2.385c1.904-0.679,3.776-1.425,5.37-2.805
		C44.065,12.738,44.242,12.564,44.414,12.378z"/>
	<path fill="none" stroke="#FCCF4F" stroke-width="0" stroke-linecap="round" stroke-linejoin="round" d="M58.02,17.067
		c0.036-0.015,0.062-0.033,0.096-0.048"/>
	<path fill="none" stroke="#FCCF4F" stroke-width="0" stroke-linecap="round" stroke-linejoin="round" d="M57.545,13.473
		c0.186,0.118,0.376,0.238,0.57,0.358"/>
	<path fill="#FCCF4F" d="M3.029,22.173c0.865,0.053,1.837-0.236,2.505,0.089c0.551,0.268,1.556,1.361,1.893,1.74
		c-0.115-1.551,0.011-5.34,3.725-6.665c-0.006-0.354,0.098-0.552,0.098-0.552s-3.345-0.359-4.593-1.823
		c-0.811-0.95-0.568-2.053-0.299-2.711c-0.016,0.032-0.033,0.061-0.048,0.093c0,0-5.134,2.48-6.133,10.185
		c0.126-0.974,0.323-1.858,0.562-2.672C1.439,20.827,2.484,22.142,3.029,22.173z"/>
	<path fill="#FCCF4F" d="M12.26,14.962c0,0,0.037-0.01,0.092-0.022c0.281-1.437,1.44-4.774,6.193-4.704c0,0-3.893,0.605-5.957,4.659
		c0.85-0.136,3.222-0.254,5.336,2.064c2.63,2.886,2.341,4.815,1.909,4.932s-5.998-0.831-7.573-2.435
		c-0.868-0.884-1.084-1.604-1.105-2.073c-0.52,0.48-3.182,3.111-3.598,6.755c0.07-0.013,4.931-0.938,6.506-0.238
		c1.587,0.705,1.31,2.11,4.481,2.225c0.407,0.016,0.78,0.038,1.12,0.065c0.819-0.928,1.247-2.284,0.65-4.269
		c0,0,4.118,1.459,4.725-5.045c0,0,3.219,0.803,6.895-3.079c-1.12-3.078-3.101-5.984-6.061-7.976
		c-1.288,0.337-2.769,0.93-4.123,1.963c3.17,0.583,4.426,7.417,3.539,7.805c-0.917,0.401-4.303-2.02-5.175-2.678
		c-0.872-0.658-1.571-3.38-1.571-3.38c-3.524-0.865-2.499-3.354-2.499-3.354c2.56-1.479,5.387,1.57,5.387,1.57
		c0.001,0,0.002,0,0.003,0c0.703-0.791,1.942-1.87,3.735-2.371c-1.738-1.031-3.787-1.751-6.166-2.036
		c-0.862,0.533-1.731,1.277-2.561,2.311c-0.133,0.167-0.267,0.342-0.399,0.524c0,0-0.311-0.031-0.83-0.008
		c-0.148,0.007-0.313,0.018-0.493,0.035c-0.09,0.008-0.184,0.019-0.281,0.031c-2.027,0.253-5.522,1.315-7.78,5.433
		C6.707,11.668,12.116,11.751,12.26,14.962z"/>
	<path fill="#FCCF4F" d="M56.43,12.736c0.001,0.001,0.003,0.002,0.004,0.003c0.16,0.109,0.331,0.223,0.506,0.339
		C56.763,12.961,56.592,12.846,56.43,12.736z"/>
	<path fill="none" stroke="#FCCF4F" stroke-width="0" stroke-linecap="round" stroke-linejoin="round" d="M56.99,13.111
		c0.171,0.113,0.35,0.229,0.531,0.346"/>
	<path fill="#FCCF4F" d="M37.034,2.217c0.179-0.077,0.357-0.149,0.536-0.209C37.392,2.069,37.213,2.14,37.034,2.217z"/>
	<path fill="#FCCF4F" d="M36.244,2.608c0.218-0.125,0.436-0.236,0.653-0.335C36.68,2.373,36.462,2.483,36.244,2.608z"/>
	<path fill="#FCCF4F" d="M37.658,1.981c0.199-0.064,0.397-0.121,0.596-0.166C38.056,1.86,37.858,1.916,37.658,1.981z"/>
	<path fill="#FCCF4F" d="M40.665,4.063c0.012,0.002,0.021,0.006,0.031,0.008c3.528-0.569,5.845,2.619,5.845,2.619
		c-1.448-1.641-3.492-2.166-5.002-2.312c1.03,0.591,1.12,1.69,1.275,2.312c0.028,0.115,0.026,0.275,0.007,0.453
		c1.381,1.073,5.081,3.479,7.438,0.585c-0.311-0.322-0.785-0.44-0.785-0.44s-0.146-0.185-0.41-0.482
		C47.71,5.28,43.167,0.706,38.28,1.81c0.218-0.048,0.434-0.086,0.649-0.114C40.244,2.343,40.665,4.063,40.665,4.063z"/>
	<path fill="#FCCF4F" d="M37.821,4.065c-0.55-0.726-1.576-1.457-1.576-1.457s-4.475-3.935-9.37-0.897
		c0.003,0,2.938,0.369,5.87,2.566C34.651,3.282,36.745,3.719,37.821,4.065z"/>
	<path fill="#FCCF4F" d="M55.332,6.162c0.478,0.092,0.768,0.266,0.741,0.529C56.101,6.427,55.81,6.254,55.332,6.162z"/>
	<path fill="none" stroke="#FCCF4F" stroke-width="0" stroke-linecap="round" stroke-linejoin="round" d="M57.755,13.908
		c0.062,0.063,0.122,0.126,0.181,0.189"/>
	<path fill="none" stroke="#FCCF4F" stroke-width="0" stroke-linecap="round" stroke-linejoin="round" d="M57.657,13.811
		c-0.064-0.064-0.131-0.127-0.198-0.19"/>
	<path fill="none" stroke="#FCCF4F" stroke-width="0" stroke-linecap="round" stroke-linejoin="round" d="M56.99,13.199
		c-0.06-0.051-0.12-0.104-0.181-0.154"/>
	<path fill="none" stroke="#FCCF4F" stroke-width="0" stroke-linecap="round" stroke-linejoin="round" d="M58.018,14.186
		c0.033,0.037,0.064,0.076,0.098,0.113"/>
	<path fill="none" stroke="#FCCF4F" stroke-width="0" stroke-linecap="round" stroke-linejoin="round" d="M57.101,13.293
		c0.093,0.082,0.186,0.165,0.276,0.249"/>
	<path fill="none" stroke="#FCCF4F" stroke-width="0" stroke-linecap="round" stroke-linejoin="round" d="M56.52,12.809
		c0.053,0.042,0.104,0.083,0.157,0.127"/>
	<path fill="#FCCF4F" d="M43.449,9.803c-0.013-0.003-0.025-0.006-0.038-0.009C43.424,9.797,43.436,9.8,43.449,9.803z"/>
	<path fill="#FCCF4F" d="M41.59,8.523c-0.059-0.112-0.113-0.247-0.164-0.434c-0.537-1.985-3.389-3.808-3.484-3.868
		c-1.36-0.174-3.304,0.154-4.685,0.459c1.785,1.475,3.507,3.66,4.497,6.897C39.51,11.053,40.84,9.771,41.59,8.523z"/>
	<path fill="#FCCF4F" d="M8.995,27.158c1.578,1.124,4.239,2.724,6.564,2.681C13.235,29.882,10.573,28.282,8.995,27.158z"/>
	<path fill="#E2B137" d="M25.211,20.679c0.488,0.067,4.044,0.351,7.339-4.861c-0.164-0.676-0.372-1.351-0.615-2.02
		c-3.676,3.882-6.895,3.079-6.895,3.079c-0.607,6.504-4.725,5.045-4.725,5.045c0.597,1.984,0.168,3.341-0.65,4.269
		c0.912,0.073,1.586,0.187,2.074,0.293c1.765-1.763,3.138-3.937,3.416-5.813C25.155,20.67,25.174,20.674,25.211,20.679z"/>
	<path fill="#E2B137" d="M42.815,9.641c0,0,0.079,0.023,0.224,0.062c0.095,0.025,0.227,0.057,0.373,0.092
		c0.013,0.003,0.025,0.006,0.038,0.009c0.477,0.112,1.18,0.252,1.977,0.34c0.453,0.05,0.931,0.085,1.415,0.084
		c0.509-0.001,1.019-0.047,1.501-0.142c0.029-0.006,0.057-0.016,0.086-0.022c0.193-0.042,0.384-0.087,0.565-0.148
		c0.421-0.14,0.809-0.331,1.13-0.599c0.586-0.774,0.438-1.275,0.136-1.587c-2.356,2.894-6.057,0.488-7.438-0.585
		c-0.104,0.896-0.76,2.296-1.231,1.38c-0.75,1.248-2.08,2.53-3.836,3.054c0.167,0.545,0.308,1.125,0.431,1.731
		C40.067,12.991,42.032,12.05,42.815,9.641z"/>
	<path fill="#FFFEFD" d="M5.146,26.345c0.016,0.002,0.032,0,0.048,0c0.724,0.009,1.523-0.061,2.415-0.261
		c0,0,0.175,0.153,0.484,0.397c0.231,0.183,0.538,0.417,0.902,0.677c1.578,1.124,4.24,2.724,6.564,2.681
		c0.239-0.004,0.474-0.026,0.704-0.067c0.46-0.083,0.935-0.229,1.416-0.432c1.388-0.579,2.82-1.617,4.06-2.856
		c-0.487-0.106-1.162-0.22-2.074-0.293c-0.34-0.027-0.713-0.05-1.12-0.065c-3.172-0.114-2.895-1.52-4.481-2.225
		c-1.575-0.699-6.436,0.226-6.506,0.238c-0.02,0.181-0.043,0.358-0.052,0.542c0,0-0.047-0.265-0.078-0.679
		c-0.337-0.379-1.342-1.473-1.893-1.74c-0.668-0.325-1.641-0.036-2.505-0.089c-0.545-0.031-1.59-1.346-2.29-2.315
		c-0.239,0.813-0.436,1.698-0.562,2.672c-0.066,0.513-0.114,1.051-0.142,1.611C0.036,24.141,1.6,26.282,5.146,26.345z"/>
	<path fill="#FFF6DE" d="M6.657,14.962c1.248,1.464,4.593,1.823,4.593,1.823s-0.104,0.199-0.098,0.552
		c0.035-0.013,0.063-0.03,0.098-0.042c0,0-0.04,0.035-0.096,0.087c0.021,0.469,0.237,1.189,1.105,2.073
		c1.575,1.604,7.14,2.551,7.573,2.435s0.721-2.046-1.909-4.932c-2.114-2.319-4.487-2.2-5.336-2.064
		c-0.114,0.223-0.226,0.451-0.328,0.695c0,0,0.015-0.259,0.092-0.65c-0.055,0.012-0.092,0.022-0.092,0.022
		c-0.144-3.211-5.553-3.293-5.598-3.294c0,0-0.003,0-0.003,0c-0.102,0.186-0.201,0.378-0.297,0.577
		c-0.001,0.002-0.001,0.004-0.002,0.006C6.089,12.909,5.846,14.012,6.657,14.962z"/>
	<path fill="#FFF6DE" d="M21.436,7.749c-0.001,0-0.002,0-0.003,0c0,0-2.827-3.048-5.387-1.57c0,0-1.025,2.488,2.499,3.354
		c0,0,0.699,2.722,1.571,3.38c0.872,0.659,4.258,3.079,5.175,2.678c0.887-0.389-0.369-7.222-3.539-7.805
		c-0.349,0.267-0.691,0.553-1.017,0.882C20.734,8.667,20.971,8.271,21.436,7.749z"/>
	<path fill="#FFF6DE" d="M37.821,4.065c0.448,0.146,0.722,0.274,0.722,0.274c-0.181-0.055-0.387-0.09-0.601-0.118
		c0.096,0.061,2.947,1.883,3.484,3.868c0.051,0.187,0.105,0.322,0.164,0.434c0.472,0.916,1.127-0.483,1.231-1.38
		c0.02-0.178,0.021-0.338-0.007-0.453C42.659,6.07,42.57,4.97,41.539,4.379c-1.169-0.113-2.018,0.001-2.018,0.001
		c0.405-0.157,0.795-0.248,1.175-0.309c-0.011-0.002-0.02-0.006-0.031-0.008c0,0-0.421-1.72-1.736-2.368
		c-0.216,0.027-0.432,0.065-0.649,0.114c-0.009,0.002-0.018,0.003-0.025,0.005c-0.198,0.045-0.396,0.102-0.596,0.166
		C37.629,1.99,37.6,1.998,37.571,2.008c-0.179,0.06-0.357,0.133-0.536,0.209c-0.046,0.02-0.091,0.035-0.137,0.056
		c-0.218,0.099-0.436,0.209-0.653,0.335C36.244,2.608,37.271,3.339,37.821,4.065z"/>
	<path fill="#BA8C1A" d="M11.155,17.383c0.056-0.052,0.096-0.087,0.096-0.087c-0.035,0.012-0.063,0.029-0.098,0.042
		c-3.714,1.325-3.84,5.114-3.725,6.665c0.031,0.414,0.078,0.679,0.078,0.679c0.009-0.184,0.032-0.361,0.052-0.542
		C7.973,20.494,10.635,17.864,11.155,17.383z"/>
	<path fill="#BA8C1A" d="M18.545,10.236c-4.752-0.071-5.912,3.267-6.193,4.704c-0.077,0.392-0.092,0.65-0.092,0.65
		c0.102-0.244,0.213-0.472,0.328-0.695C14.652,10.842,18.545,10.236,18.545,10.236z"/>
	<path fill="#BA8C1A" d="M21.436,7.749c-0.465,0.522-0.702,0.918-0.702,0.918c0.326-0.329,0.668-0.615,1.017-0.882
		c1.354-1.033,2.835-1.626,4.123-1.963c-0.228-0.153-0.462-0.302-0.703-0.444C23.379,5.879,22.139,6.958,21.436,7.749z"/>
	<path fill="#BA8C1A" d="M37.942,4.221c0.214,0.028,0.42,0.063,0.601,0.118c0,0-0.273-0.129-0.722-0.274
		c-1.075-0.346-3.17-0.783-5.076,0.212c0.171,0.127,0.342,0.263,0.513,0.403C34.638,4.375,36.581,4.047,37.942,4.221z"/>
	<path fill="#BA8C1A" d="M40.697,4.072c-0.38,0.061-0.77,0.152-1.175,0.309c0,0,0.849-0.115,2.018-0.001
		c1.51,0.146,3.554,0.671,5.002,2.312C46.541,6.691,44.225,3.503,40.697,4.072z"/>
	<path fill="#0F161E" d="M25.874,5.822c2.96,1.992,4.94,4.897,6.061,7.976c0.243,0.668,0.451,1.343,0.615,2.02
		c0.101,0.417,0.189,0.835,0.261,1.25c0.056,0.33,0.1,0.683,0.137,1.047c0.247,2.437,0.079,5.578-0.246,8.631
		c-0.002,0.013-0.004,0.026-0.005,0.037c-0.185,1.728-0.417,3.42-0.651,4.94c-0.062,0.393-0.122,0.772-0.182,1.139
		c-0.014,0.081-0.025,0.155-0.039,0.234c-0.436,2.636-0.823,4.482-0.843,4.576c-0.001,0.004-0.003,0.014-0.003,0.014
		c2.059,0.891,5.104-0.895,5.104-0.895c0.053-0.09,0.106-0.207,0.159-0.313c0.753-1.508,1.575-4.533,2.061-8.528
		c0.171-1.405,0.298-2.926,0.366-4.541c0.011-0.271,0.021-0.544,0.029-0.819c0.062-2.109,0.024-4.359-0.155-6.711
		c-0.006-0.063-0.015-0.123-0.02-0.186c-0.072-0.845-0.188-1.638-0.338-2.385c-0.123-0.605-0.264-1.186-0.431-1.731
		c-0.99-3.237-2.712-5.422-4.497-6.897c-0.171-0.141-0.342-0.276-0.513-0.403c-2.933-2.197-5.867-2.566-5.87-2.566
		c-5.6-0.804-8.33,1.567-8.33,1.567c0.159,0.015,0.305,0.045,0.461,0.064c2.378,0.285,4.427,1.005,6.166,2.036
		C25.412,5.521,25.647,5.669,25.874,5.822z"/>
</g>
</svg>
