<?xml version="1.0" encoding="utf-8"?>
<!-- Generator: Adobe Illustrator 16.0.0, SVG Export Plug-In . SVG Version: 6.00 Build 0)  -->
<!DOCTYPE svg PUBLIC "-//W3C//DTD SVG 1.1//EN" "http://www.w3.org/Graphics/SVG/1.1/DTD/svg11.dtd">
<svg version="1.1" id="Layer_1" xmlns="http://www.w3.org/2000/svg" xmlns:xlink="http://www.w3.org/1999/xlink" x="0px" y="0px"
	 width="45.734px" height="40.379px" viewBox="3.073 0 45.734 40.379" enable-background="new 3.073 0 45.734 40.379"
	 xml:space="preserve">
<g>
	<path fill="none" d="M3.073-0.021v40.793h45.734V-0.021H3.073z M45.362,6.831c-0.256,2.596-1.3,13.184-1.564,16.089
		c-0.302,3.318-0.905,8.899-1.205,10.257c-0.133,0.596-0.89,1.494-1.824,2.351c-1.099,1.483-4.379,4.781-13.411,4.964
		c-11.236,0.226-17.194-6.41-17.42-7.467C9.711,31.97,8.806,22.24,7.751,18.697c-0.849-2.849-1.65-7.009-1.932-8.534
		c-0.05-0.173-0.083-0.352-0.097-0.536c-0.007-0.035-0.01-0.055-0.01-0.055h0.006C5.712,9.484,5.71,9.396,5.714,9.307
		c0.227-5.429,12.941-8.329,20.022-9.162c5.506-0.648,19.796,0.453,19.683,6.108C45.415,6.45,45.395,6.642,45.362,6.831z"/>
	<path fill="#0F161E" d="M42.999,10.144c0.093,0.163,0.173,0.351,0.195,0.559c0.071,0.649-1.132,3.017-0.679,4.827
		c0.452,1.81-0.076,5.807-0.696,7.541s-0.736,4.676-0.209,6.26c0.528,1.583-0.075,5.128-0.378,5.505
		c-0.059,0.073-0.198,0.329-0.465,0.692c0.935-0.856,1.691-1.755,1.824-2.351c0.3-1.357,0.903-6.938,1.205-10.257
		c0.265-2.905,1.309-13.493,1.564-16.089C45.141,8.116,44.28,9.211,42.999,10.144z"/>
	<path fill="#141D28" d="M5.711,9.572c0,0,0.003,0.021,0.01,0.055C5.72,9.609,5.718,9.59,5.717,9.572H5.711z"/>
	<path fill="#141D28" d="M41.611,29.33c-0.527-1.584-0.411-4.525,0.209-6.26s1.148-5.731,0.696-7.541
		c-0.453-1.81,0.75-4.177,0.679-4.827c-0.022-0.208-0.103-0.396-0.195-0.559c-1.322,0.964-3.089,1.755-5.063,2.393
		c-3.897,1.258-8.591,1.928-12.199,2.201c-2.358,0.179-4.057,0.651-6.898,0.486c-1.032-0.06-2.256-0.43-3.248-0.556
		c-4.449-0.566-9.025-1.96-9.772-4.504c0.282,1.525,1.083,5.686,1.932,8.534c1.055,3.543,1.96,13.273,2.187,14.328
		c0.226,1.057,6.184,7.692,17.42,7.467c9.032-0.183,12.312-3.48,13.411-4.964c0.267-0.363,0.406-0.619,0.465-0.692
		C41.535,34.458,42.139,30.913,41.611,29.33z M24.021,25.422c-0.345,1.259-1.548,2.311-1.676,3.577
		c-0.115,1.142,0.771,2.354,1.111,3.416c0.444,1.386,0.481,2.526-0.165,3.861c-0.595,1.234-1.423,0.962-2.661,0.726
		c-1.449-0.277-2.781-0.516-4.037-1.321c-0.981-0.63-2.398-1.232-3.075-2.161c-0.494-0.678-1.09-1.708-1.438-2.449
		c-0.404-0.861-0.099-1.95-0.186-2.896c-0.106-1.146-0.86-2.102-0.847-3.247c0.013-1.243,0.68-2.387,0.753-3.634
		c0.072-1.232-2.101-4.942-1.157-5.886c0.562-0.563,1.845,0.386,2.377,0.521c0.969,0.248,1.9-0.247,2.899-0.004
		c1.184,0.287,2.22,1,3.392,1.329c0.996,0.28,2.197,0.036,3.144,0.445c1.247,0.54,0.503,1.136,0.386,2.17
		c-0.124,1.1,0.67,1.901,1.089,2.842C24.328,23.607,24.278,24.486,24.021,25.422z"/>
	<path fill="#2B3B4C" d="M22.841,19.87c0.117-1.034,0.86-1.63-0.386-2.17c-0.947-0.409-2.148-0.165-3.144-0.445
		c-1.172-0.33-2.208-1.042-3.392-1.329c-0.999-0.243-1.93,0.251-2.899,0.004c-0.533-0.136-1.816-1.085-2.377-0.521
		c-0.943,0.944,1.229,4.653,1.157,5.886c-0.073,1.247-0.74,2.391-0.753,3.634c-0.013,1.146,0.741,2.101,0.847,3.247
		c0.087,0.945-0.218,2.034,0.186,2.896c0.349,0.741,0.944,1.771,1.438,2.449c0.677,0.929,2.093,1.531,3.075,2.161
		c1.255,0.806,2.588,1.044,4.037,1.321c1.238,0.236,2.065,0.509,2.661-0.726c0.646-1.335,0.609-2.476,0.165-3.861
		c-0.339-1.062-1.226-2.274-1.111-3.416c0.128-1.267,1.332-2.318,1.676-3.577c0.257-0.936,0.307-1.814-0.091-2.71
		C23.511,21.771,22.717,20.97,22.841,19.87z"/>
	<path fill="#202D3F" d="M25.737,0.145C18.656,0.978,5.941,3.878,5.714,9.307C5.71,9.396,5.712,9.484,5.717,9.572
		C5.718,9.59,5.72,9.609,5.721,9.627c0.014,0.184,0.047,0.362,0.097,0.536c0.747,2.544,5.323,3.938,9.772,4.504
		c0.991,0.126,2.215,0.496,3.248,0.556c2.841,0.165,4.541-0.307,6.898-0.486c3.608-0.273,8.302-0.943,12.199-2.201
		c1.975-0.638,3.741-1.429,5.063-2.393c1.28-0.932,2.142-2.028,2.362-3.312c0.033-0.189,0.054-0.381,0.058-0.578
		C45.532,0.598,31.242-0.503,25.737,0.145z M44.06,7.553c0,0,0.054,3.088-3.285,2.234c0,0-0.545,2.796-3.729,1.32
		c0,0-0.544,2.641-3.34,1.476c0,0-0.776,1.708-2.873,0.389c0,0-0.776,2.174-2.796,0.311c0,0-1.476,2.175-4.193,0.466
		c0,0-3.418,2.13-4.738,0.094c0,0-2.796,0.76-4.038-0.56c0,0-2.718,1.708-3.496-0.466c0,0-2.407,1.009-2.796-0.854
		c0,0-2.882,0.277-2.115-1.591c0,0-1.311-1.382,0.22-2.082c0,0-0.435-1.608,1.508-2.074c0,0,0.31-1.398,2.718-1.01
		c0,0,0.154-1.708,2.251-1.476c0,0,1.43-1.946,3.99-0.977c0.117-0.098,0.254-0.196,0.412-0.284c0.492-0.499,1.6-1.307,3.105-0.61
		c0.163-0.084,0.342-0.159,0.533-0.216c0.647-0.499,2.092-1.342,3.435-0.283c0.239-0.087,0.499-0.153,0.774-0.182
		c0.773-0.522,2.299-1.263,3.829-0.33c0,0,1.941-1.312,4.038,0.473c0,0,3.34-1.398,4.349,0.699c0,0,3.107-1.009,3.651,1.321
		c0,0,2.874-0.155,2.562,2.02C44.035,5.36,46.179,6.718,44.06,7.553z"/>
	<path fill="#D9F3F9" d="M19.978,2.492c0,0,0.354-0.358,0.885-0.633c-1.505-0.696-2.613,0.112-3.105,0.61
		C18.295,2.168,19.055,1.997,19.978,2.492z"/>
	<path fill="#D9F3F9" d="M23.469,2.179c0,0,0.556-0.522,1.362-0.819c-1.343-1.06-2.788-0.216-3.435,0.283
		C22.021,1.458,22.77,1.49,23.469,2.179z"/>
	<path fill="#D9F3F9" d="M41.473,3.341c-0.544-2.33-3.651-1.321-3.651-1.321c-1.009-2.097-4.349-0.699-4.349-0.699
		c-2.097-1.786-4.038-0.473-4.038-0.473c-1.53-0.933-3.056-0.192-3.829,0.33c0.509-0.052,1.065,0.027,1.624,0.368
		c0,0,1.677-1.135,3.49,0.409c0,0,2.888-1.208,3.76,0.604c0,0,2.685-0.873,3.155,1.141c0,0,2.484-0.134,2.216,1.746
		c0,0,1.853,1.173,0.019,1.896c0,0,0.049,2.669-2.838,1.931c0,0-0.471,2.417-3.223,1.141c0,0-0.47,2.282-2.888,1.276
		c0,0-0.67,1.477-2.483,0.335c0,0-0.671,1.88-2.417,0.269c0,0-1.276,1.879-3.625,0.402c0,0-2.955,1.842-4.095,0.082
		c0,0-2.417,0.657-3.492-0.484c0,0-2.35,1.477-3.021-0.403c0,0-2.082,0.873-2.417-0.738c0,0-2.492,0.239-1.829-1.376
		c0,0-1.422-0.907-0.099-1.511c0,0-0.086-1.678,1.592-2.082c0,0,0.269-1.208,2.35-0.872c0,0,0.134-1.477,1.946-1.275
		c0,0,1.276-1.746,3.559-0.806c0,0,0.163-0.231,0.457-0.478c-2.56-0.969-3.99,0.977-3.99,0.977
		c-2.097-0.232-2.251,1.476-2.251,1.476c-2.408-0.388-2.718,1.01-2.718,1.01C6.445,6.681,6.88,8.289,6.88,8.289
		c-1.531,0.699-0.22,2.082-0.22,2.082c-0.767,1.868,2.115,1.591,2.115,1.591c0.389,1.864,2.796,0.854,2.796,0.854
		c0.777,2.174,3.496,0.466,3.496,0.466c1.242,1.32,4.038,0.56,4.038,0.56c1.32,2.036,4.738-0.094,4.738-0.094
		c2.717,1.709,4.193-0.466,4.193-0.466c2.02,1.863,2.796-0.311,2.796-0.311c2.097,1.32,2.873-0.389,2.873-0.389
		c2.796,1.165,3.34-1.476,3.34-1.476c3.185,1.476,3.729-1.32,3.729-1.32c3.339,0.854,3.285-2.234,3.285-2.234
		c2.119-0.835-0.024-2.193-0.024-2.193C44.347,3.186,41.473,3.341,41.473,3.341z"/>
	<path fill="#FFFFFF" d="M16.89,3.23c-2.283-0.939-3.559,0.806-3.559,0.806c-1.812-0.202-1.946,1.275-1.946,1.275
		c-2.081-0.335-2.35,0.872-2.35,0.872C7.357,6.587,7.443,8.266,7.443,8.266C6.12,8.87,7.542,9.776,7.542,9.776
		c-0.663,1.615,1.829,1.376,1.829,1.376c0.335,1.611,2.417,0.738,2.417,0.738c0.671,1.88,3.021,0.403,3.021,0.403
		c1.074,1.141,3.492,0.484,3.492,0.484c1.14,1.76,4.095-0.082,4.095-0.082c2.349,1.478,3.625-0.402,3.625-0.402
		c1.746,1.611,2.417-0.269,2.417-0.269c1.813,1.142,2.483-0.335,2.483-0.335c2.418,1.006,2.888-1.276,2.888-1.276
		c2.752,1.276,3.223-1.141,3.223-1.141c2.887,0.738,2.838-1.931,2.838-1.931c1.834-0.723-0.019-1.896-0.019-1.896
		c0.269-1.88-2.216-1.746-2.216-1.746c-0.471-2.014-3.155-1.141-3.155-1.141c-0.872-1.813-3.76-0.604-3.76-0.604
		c-1.813-1.544-3.49-0.409-3.49-0.409c-0.559-0.341-1.115-0.419-1.624-0.368c-0.275,0.028-0.535,0.094-0.774,0.182
		c-0.806,0.296-1.362,0.819-1.362,0.819c-0.7-0.689-1.448-0.72-2.073-0.536c-0.191,0.057-0.37,0.132-0.533,0.216
		c-0.531,0.275-0.885,0.633-0.885,0.633c-0.923-0.495-1.684-0.324-2.22-0.023c-0.157,0.088-0.294,0.186-0.412,0.284
		C17.052,2.999,16.89,3.23,16.89,3.23z M14.592,6.257c0.084-0.01,0.181-0.046,0.287-0.077c0.109-0.024,0.219-0.076,0.333-0.127
		c0.488-0.192,0.791-0.685,0.958-1.245c0,0,0.025,0.063,0.051,0.195c0.01,0.065,0.033,0.15,0.03,0.249
		c-0.011,0.098-0.028,0.213-0.058,0.346c-0.101,0.238-0.3,0.56-0.667,0.695c-0.349,0.148-0.783,0.159-1.203,0.021
		C14.322,6.313,14.424,6.292,14.592,6.257z M13.498,8.243c-0.041,0.138-0.128,0.275-0.243,0.378c-0.122,0.106-0.293,0.134-0.417,0.1
		c-0.002-0.003,0.064-0.035,0.137-0.104c0.078-0.069,0.127-0.194,0.161-0.357c0.033-0.165,0.056-0.377,0.065-0.634
		c0.007-0.129,0.007-0.268,0.003-0.42c-0.013-0.15-0.012-0.314-0.119-0.487c0,0,0.02,0.013,0.057,0.035
		c0.042,0.021,0.084,0.066,0.14,0.125c0.099,0.123,0.198,0.322,0.25,0.562C13.584,7.68,13.595,7.965,13.498,8.243z M13.645,9.395
		c0,0,0.056-0.004,0.159,0.003c0.098,0.015,0.236,0.053,0.374,0.135c0.134,0.084,0.275,0.21,0.357,0.384
		c0.094,0.161,0.09,0.401-0.009,0.542c-0.007-0.004-0.103-0.164-0.248-0.308c-0.077-0.077-0.154-0.172-0.255-0.292
		C13.923,9.741,13.832,9.576,13.645,9.395z M31.296,10.227c-0.144-0.034-0.344-0.021-0.555,0.066c-0.405,0.17-0.839,0.53-1.16,0.912
		c0.146,0.09,0.276,0.201,0.388,0.305c0,0-0.082-0.006-0.218-0.031c-0.066-0.015-0.146-0.032-0.241-0.051
		c-0.098-0.006-0.204-0.015-0.32-0.032c-0.115,0-0.241,0.005-0.373,0.017c-0.065,0.017-0.134,0.033-0.203,0.044
		c-0.074,0.01-0.137,0.057-0.212,0.082c-0.29,0.129-0.605,0.372-0.934,0.727c0.018,0.015,0.087-0.469,0.58-0.913
		c0.056-0.061,0.132-0.101,0.208-0.144c0.081-0.038,0.155-0.095,0.245-0.115c0.091-0.021,0.183-0.042,0.276-0.059
		c0.094-0.015,0.188,0.004,0.282,0.009c0.171-0.001,0.319,0.077,0.465,0.137c0-0.029,0-0.064,0.007-0.11
		c0.016-0.127,0.079-0.311,0.221-0.509c0.143-0.194,0.367-0.41,0.705-0.533c0.164-0.061,0.365-0.09,0.568-0.054
		c0.203,0.034,0.398,0.158,0.502,0.334C31.523,10.317,31.442,10.255,31.296,10.227z M22.622,3.534
		c0.208-0.031,0.419-0.061,0.63-0.09c0.959-0.132,1.936-0.235,2.88-0.302c0.35-0.024,0.814-0.092,1.326-0.176
		c0.049-0.008,0.097-0.016,0.147-0.024c0.085-0.015,0.172-0.029,0.26-0.044c0.046-0.007,0.092-0.015,0.138-0.024
		c0.074-0.012,0.15-0.026,0.228-0.039c0.117-0.021,0.235-0.042,0.353-0.062c1.38-0.241,2.778-0.479,3.148-0.31
		c0.026,0.012,0.059,0.036,0.094,0.065v0c0.094,0.078,0.216,0.215,0.358,0.393c0.007,0.008,0.012,0.014,0.019,0.022
		c0,0,0,0-0.001,0.001c0.04,0.05,0.079,0.098,0.121,0.154c0.334-0.167,0.796-0.336,1.224-0.275c0.522,0.075,1.108,0.478,1.339,0.906
		c0.354-0.194,0.67-0.341,0.807-0.336c0.351,0.011,2.398,2.226,2.876,2.748c0.102-0.21,0.296-0.45,0.587-0.507
		c-0.044-0.015-0.432,0.832-0.306,1.447c0.323-0.265,0.824-0.344,1.254-0.186c0.013,0.017-0.512-0.005-0.938,0.365
		c-0.212,0.176-0.367,0.444-0.433,0.745c-0.058,0.303-0.034,0.632,0.033,0.95c0.023-0.004-0.307-0.184-0.386-0.797
		c-0.025-0.293,0.064-0.709,0.393-1.012c-0.014-0.005-0.021-0.006-0.035-0.014c-0.085-0.045-0.19-0.161-0.24-0.339
		c-0.026-0.092-0.035-0.199-0.025-0.311c-0.819,0.838-2.622,1.511-2.95,1.581c-0.182,0.126-0.703,0.281-1.457,0.45
		c0.167,0.017,0.327,0.051,0.474,0.104c0.264-0.206,0.631-0.336,1.004-0.33c0.39,0.004,0.77,0.176,0.987,0.428
		c0,0-0.084-0.014-0.222-0.045c-0.144-0.021-0.344-0.05-0.592-0.039c-0.244,0.015-0.54,0.057-0.853,0.194
		c-0.313,0.136-0.653,0.37-0.896,0.824c0.006,0.002-0.003-0.124,0.06-0.32c0.046-0.156,0.148-0.359,0.322-0.544
		c-0.098,0.016-0.208,0.033-0.334,0.047c-0.454,0.081-1.039,0.12-1.81,0.573c0,0,0.059-0.085,0.167-0.228
		c0.102-0.126,0.273-0.289,0.505-0.421C32.49,8.83,32.065,8.905,31.623,8.98l-0.001,0c-0.035,0.006-0.072,0.012-0.107,0.018
		c-0.131,0.022-0.265,0.044-0.399,0.066c-0.104,0.017-0.202,0.034-0.307,0.051c0,0,0.001-0.001,0.001-0.001
		c-1.263,0.204-2.656,0.405-4.037,0.585c0,0,0,0-0.001,0.001c-0.286,0.038-0.57,0.074-0.853,0.109
		c0.238,0.083,0.434,0.213,0.617,0.327c0,0-0.07,0.014-0.206,0.013c-0.135,0-0.333-0.026-0.558-0.045
		c-0.234-0.026-0.447,0.004-0.764,0.111c-0.153,0.056-0.323,0.108-0.497,0.184c-0.146,0.067-0.31,0.128-0.452,0.257
		c0.173-0.005,0.348,0.008,0.519,0.06c0.437,0.137,0.782,0.46,0.949,0.8c0,0-0.085-0.044-0.224-0.135
		c-0.149-0.076-0.354-0.201-0.629-0.277c-0.276-0.073-0.616-0.113-1.014-0.028c-0.4,0.076-0.849,0.277-1.323,0.611
		c0,0,0.02-0.029,0.056-0.08c0.037-0.052,0.09-0.128,0.17-0.213c0.153-0.174,0.4-0.405,0.755-0.568
		c0.199-0.097,0.441-0.156,0.693-0.169c0-0.002,0.001-0.003,0.002-0.005c0.015-0.053,0.052-0.121,0.111-0.195
		c0.113-0.151,0.311-0.33,0.567-0.479c0.018-0.009,0.039-0.019,0.056-0.029c-1.025,0.119-1.992,0.217-2.833,0.288
		c-0.704,0.059-1.315,0.097-1.798,0.11c-0.598,0.016-0.999-0.005-1.113-0.079c-0.073-0.047-0.153-0.131-0.238-0.243
		c0.05,0.153,0.077,0.27,0.069,0.328c-0.052,0.394-2.486,0.909-3.155,0.891c0.112,0.027,0.224,0.062,0.333,0.111
		c0.161,0.069,0.311,0.183,0.426,0.322c0.118,0.142,0.162,0.332,0.141,0.485c-0.004,0.002-0.04-0.074-0.123-0.168
		c-0.081-0.099-0.233-0.188-0.438-0.263c-0.207-0.074-0.473-0.14-0.796-0.193c-0.325-0.038-0.697-0.142-1.151-0.028
		c0,0,0.079-0.087,0.252-0.169c0.172-0.08,0.429-0.147,0.727-0.161c0.145-0.006,0.301,0,0.46,0.025
		c-0.457-0.333-1.936-3.761-1.936-3.761c0.566-0.457,3.404-1.511,3.519-1.192c0,0,0,0,0,0c-0.247-0.688-0.409-1.188-0.409-1.188
		C17.774,4.484,20.089,3.916,22.622,3.534z"/>
	<path fill="#514A2D" d="M34.885,3.73c-0.23-0.428-0.816-0.831-1.339-0.906c-0.428-0.061-0.89,0.108-1.224,0.275
		c0.307,0.402,0.684,0.955,1.069,1.545C33.393,4.644,34.212,4.101,34.885,3.73z"/>
	<path fill="#F99410" d="M34.212,6.184c-0.343,0.442-0.756,0.949-1.214,1.453c0.053,0.088,0.083,0.139,0.083,0.139
		c-0.064,0.046-0.188,0.096-0.35,0.148c-0.354,0.371-0.726,0.732-1.108,1.057c0.441-0.076,0.866-0.151,1.255-0.225
		c0.019-0.01,0.034-0.022,0.053-0.032c0.319-0.184,0.74-0.25,1.134-0.211c0.754-0.169,1.275-0.324,1.457-0.45
		C35.328,8.104,34.727,7.11,34.212,6.184z"/>
	<path fill="#F99410" d="M27.562,8.896c-0.257,0.276-0.522,0.55-0.789,0.805c1.38-0.18,2.774-0.381,4.037-0.585
		c0.233-0.261,0.499-0.568,0.779-0.905C30.554,8.43,29.105,8.672,27.562,8.896z"/>
	<path fill="#F99410" d="M17.095,6.253c0.059,0.164,0.528,1.124,0.965,2.078c0.145-0.1,0.285-0.199,0.421-0.297
		c-0.528-1.239-1.018-2.744-1.018-2.744c0.899-0.482,2.815-0.952,4.911-1.269c0.103-0.182,0.184-0.345,0.247-0.487
		c-2.533,0.382-4.848,0.95-5.935,1.532C16.687,5.066,16.849,5.565,17.095,6.253z"/>
	<path fill="#F99410" d="M23.093,3.921c0.736-0.097,1.482-0.175,2.203-0.226c0.442-0.031,1.106-0.144,1.797-0.265
		c0.096-0.161,0.183-0.31,0.26-0.447c0.035-0.005,0.071-0.011,0.105-0.017c-0.512,0.084-0.977,0.152-1.326,0.176
		c-0.944,0.066-1.921,0.17-2.88,0.302c-0.031,0.115-0.067,0.239-0.117,0.377C23.122,3.854,23.106,3.888,23.093,3.921z"/>
	<path fill="#F99410" d="M29.939,3.133c0.143,0.065,0.444,0.446,0.808,0.964c0.419-0.599,0.803-1.164,1.079-1.568
		C31.79,2.5,31.758,2.476,31.732,2.464c-0.37-0.169-1.769,0.068-3.148,0.31c-0.053,0.142-0.114,0.287-0.188,0.438
		C29.121,3.1,29.729,3.037,29.939,3.133z"/>
	<path fill="#F99410" d="M32.581,6.95c0.405-0.547,0.797-1.123,1.128-1.696c-0.191-0.36-0.317-0.61-0.317-0.61
		c-0.386-0.59-0.763-1.143-1.069-1.545c-0.042-0.056-0.081-0.104-0.121-0.154c-0.293,0.483-0.675,1.083-1.087,1.692
		C31.628,5.407,32.19,6.311,32.581,6.95z"/>
	<path fill="#F99410" d="M32.184,2.923c-0.143-0.178-0.265-0.315-0.358-0.393C31.918,2.608,32.04,2.744,32.184,2.923z"/>
	<path fill="#F99410" d="M19.387,9.605c-0.188-0.121-0.427-0.527-0.671-1.045c-0.158,0.119-0.298,0.22-0.419,0.297
		c0.205,0.462,0.379,0.884,0.47,1.168c0.085,0.112,0.165,0.196,0.238,0.243c0.114,0.073,0.515,0.094,1.113,0.079c0,0,0,0,0,0
		s0,0,0,0c0.417-0.23,0.817-0.475,1.199-0.731C20.267,9.692,19.534,9.7,19.387,9.605z"/>
	<path fill="#F99410" d="M25.663,9.743c0.015,0.002,0.026,0.008,0.04,0.01c0.218-0.214,0.457-0.45,0.706-0.696
		c-1.238,0.167-2.479,0.316-3.571,0.425c-0.323,0.276-0.633,0.53-0.921,0.755c0.84-0.071,1.808-0.169,2.833-0.288
		c0.115-0.061,0.236-0.121,0.376-0.165C25.286,9.729,25.487,9.716,25.663,9.743z"/>
	<path fill="#FFB65F" d="M22.375,4.021c-2.096,0.316-4.012,0.786-4.911,1.269c0,0,0.489,1.504,1.018,2.744
		C20.746,6.393,21.847,4.961,22.375,4.021z"/>
	<path fill="#FFB65F" d="M32.581,6.95c-0.392-0.64-0.953-1.543-1.467-2.312c-0.698,1.037-1.47,2.088-1.984,2.577
		c-0.438,0.414-0.982,1.051-1.568,1.681c1.543-0.224,2.992-0.466,4.027-0.685C31.911,7.824,32.249,7.399,32.581,6.95z"/>
	<path fill="#FFB65F" d="M28.705,6.763c0.496-0.51,1.315-1.632,2.041-2.666c-0.363-0.519-0.665-0.899-0.808-0.964
		c-0.21-0.096-0.817-0.033-1.543,0.078c-0.946,1.914-3.521,4.534-5.559,6.271c1.092-0.109,2.333-0.258,3.571-0.425
		C27.265,8.21,28.223,7.259,28.705,6.763z"/>
	<path fill="#FFB65F" d="M33.081,7.775c0,0-0.03-0.051-0.083-0.139c-0.089,0.096-0.177,0.192-0.267,0.287
		C32.894,7.872,33.017,7.821,33.081,7.775z"/>
	<path fill="#FFB65F" d="M19.387,9.605c0.147,0.095,0.88,0.087,1.93,0.011c2.944-1.977,4.828-4.608,5.775-6.186
		c-0.691,0.121-1.355,0.234-1.797,0.265c-0.721,0.051-1.467,0.128-2.203,0.226c-0.564,1.401-2.543,3.212-4.255,4.548
		c-0.044,0.034-0.081,0.06-0.122,0.091C18.96,9.078,19.198,9.484,19.387,9.605z"/>
	<path fill="#FFE1BD" d="M18.481,8.034c-0.136,0.098-0.276,0.198-0.421,0.297c0.082,0.178,0.161,0.354,0.237,0.526
		c0.121-0.078,0.261-0.179,0.419-0.297c0.041-0.032,0.078-0.057,0.122-0.091c1.711-1.335,3.691-3.146,4.255-4.548
		c0.014-0.033,0.03-0.067,0.042-0.1c0.05-0.138,0.086-0.262,0.117-0.377c-0.211,0.029-0.421,0.059-0.63,0.09
		c-0.063,0.143-0.144,0.306-0.247,0.487C21.847,4.961,20.746,6.393,18.481,8.034z"/>
	<path fill="#FFE1BD" d="M27.093,3.431c-0.947,1.577-2.832,4.209-5.775,6.186c-0.381,0.256-0.782,0.501-1.199,0.731
		c0.483-0.014,1.094-0.052,1.798-0.11c0.288-0.225,0.598-0.479,0.921-0.755c2.038-1.738,4.613-4.357,5.559-6.271
		c0.073-0.151,0.135-0.296,0.188-0.438c-0.117,0.021-0.235,0.041-0.353,0.062c-0.077,0.012-0.153,0.026-0.228,0.039
		c-0.046,0.009-0.092,0.017-0.138,0.024c-0.088,0.015-0.175,0.03-0.26,0.044c-0.05,0.008-0.098,0.016-0.147,0.024
		c-0.034,0.006-0.07,0.012-0.105,0.017C27.276,3.121,27.189,3.27,27.093,3.431z"/>
	
		<line fill="none" stroke="#FFE1BD" stroke-width="0" stroke-linecap="round" stroke-linejoin="round" x1="20.118" y1="10.348" x2="20.118" y2="10.348"/>
	<path fill="#FFE1BD" d="M28.705,6.763c-0.482,0.496-1.44,1.447-2.297,2.294c-0.249,0.246-0.488,0.482-0.706,0.696
		c0.077,0.016,0.15,0.033,0.217,0.057c0.283-0.035,0.567-0.071,0.853-0.109c0,0,0-0.001,0.001-0.001
		c0.267-0.255,0.532-0.528,0.789-0.805c0.586-0.63,1.131-1.267,1.568-1.681c0.515-0.489,1.286-1.54,1.984-2.577
		c0.412-0.609,0.794-1.209,1.087-1.692c0.001,0,0.001,0,0.001-0.001c-0.007-0.008-0.012-0.014-0.019-0.022
		c-0.144-0.179-0.266-0.315-0.358-0.393v0c-0.276,0.404-0.66,0.969-1.079,1.568C30.021,5.131,29.201,6.252,28.705,6.763z"/>
	<path fill="#FFE1BD" d="M32.998,7.637c0.458-0.504,0.871-1.011,1.214-1.453c-0.188-0.337-0.364-0.664-0.503-0.929
		c-0.331,0.573-0.723,1.149-1.128,1.696c-0.332,0.449-0.67,0.874-0.992,1.26c-0.28,0.337-0.546,0.644-0.779,0.905
		c0,0-0.001,0.001-0.001,0.001c0.104-0.017,0.203-0.034,0.307-0.051c0.135-0.022,0.269-0.044,0.399-0.066
		c0.035-0.006,0.072-0.012,0.107-0.018l0.001,0c0.383-0.324,0.755-0.686,1.108-1.057C32.822,7.829,32.909,7.733,32.998,7.637z"/>
	<path fill="#E2C342" d="M18.06,8.331c-0.437-0.954-0.906-1.914-0.965-2.078c0,0,0,0,0,0c-0.115-0.319-2.953,0.735-3.519,1.192
		c0,0,1.479,3.429,1.936,3.761c0.056,0.009,0.112,0.023,0.169,0.038c0.669,0.018,3.103-0.497,3.155-0.891
		c0.008-0.058-0.019-0.175-0.069-0.328c-0.091-0.285-0.266-0.707-0.47-1.168C18.221,8.686,18.142,8.509,18.06,8.331z M15.254,10.607
		c-0.312-0.089-1.566-2.995-1.566-2.995c0.448-0.361,2.694-1.195,2.785-0.943c0.09,0.252,1.422,2.908,1.377,3.243
		C17.804,10.249,15.567,10.697,15.254,10.607z"/>
	<path fill="#F9E385" d="M13.687,7.612c0,0,1.254,2.905,1.566,2.995c0.313,0.09,2.551-0.358,2.596-0.694
		c0.045-0.335-1.287-2.991-1.377-3.243C16.381,6.417,14.135,7.251,13.687,7.612z"/>
	<path fill="#D6CD9D" d="M33.709,5.254c0.139,0.266,0.314,0.592,0.503,0.929c0.515,0.927,1.116,1.92,1.31,1.88
		c0.328-0.07,2.131-0.743,2.95-1.581c0.009-0.103,0.035-0.211,0.084-0.319c0.004-0.007,0.008-0.015,0.012-0.021
		c-0.478-0.522-2.525-2.737-2.876-2.748c-0.137-0.004-0.453,0.142-0.807,0.336c-0.673,0.37-1.492,0.914-1.493,0.914
		C33.392,4.645,33.518,4.894,33.709,5.254z M35.766,3.812c0.311,0.01,2.323,2.231,2.323,2.231c-0.53,0.735-2.176,1.353-2.455,1.412
		c-0.28,0.059-1.662-2.667-1.662-2.667S35.455,3.802,35.766,3.812z"/>
	<path fill="#FFF4C7" d="M35.634,7.455c0.279-0.059,1.925-0.677,2.455-1.412c0,0-2.013-2.221-2.323-2.231
		c-0.311-0.01-1.794,0.976-1.794,0.976S35.354,7.513,35.634,7.455z"/>
	<path fill="#85C2CC" d="M32.878,8.756c-0.231,0.132-0.403,0.295-0.505,0.421c-0.108,0.143-0.167,0.228-0.167,0.228
		c0.771-0.454,1.355-0.493,1.81-0.573c0.126-0.015,0.236-0.032,0.334-0.047c0.047-0.049,0.096-0.097,0.151-0.143
		c0.012-0.009,0.025-0.017,0.037-0.025c-0.146-0.053-0.307-0.087-0.474-0.104c-0.394-0.039-0.814,0.027-1.134,0.211
		C32.912,8.734,32.897,8.746,32.878,8.756z"/>
	<path fill="#85C2CC" d="M25.663,9.743c-0.176-0.027-0.377-0.015-0.538,0.042c-0.141,0.044-0.261,0.104-0.376,0.165
		c-0.018,0.01-0.038,0.02-0.056,0.029c-0.256,0.149-0.454,0.327-0.567,0.479c-0.059,0.075-0.096,0.143-0.111,0.195
		c-0.001,0.002-0.001,0.003-0.002,0.005c0.016-0.001,0.032,0,0.048,0c0.143-0.129,0.307-0.19,0.452-0.257
		c0.173-0.076,0.343-0.128,0.497-0.184c0.316-0.107,0.53-0.137,0.764-0.111c0.225,0.019,0.422,0.046,0.558,0.045
		c0.135,0.001,0.206-0.013,0.206-0.013c-0.183-0.113-0.379-0.243-0.617-0.327c-0.067-0.024-0.14-0.042-0.217-0.057
		C25.689,9.751,25.677,9.745,25.663,9.743z"/>
	<path fill="#85C2CC" d="M38.472,6.482c-0.01,0.112-0.001,0.219,0.025,0.311c0.05,0.178,0.155,0.294,0.24,0.339
		c0.015,0.008,0.021,0.008,0.035,0.014c0.002-0.001,0.003-0.003,0.004-0.004c0.021-0.021,0.048-0.04,0.072-0.061
		c-0.126-0.615,0.262-1.461,0.306-1.447c-0.291,0.058-0.485,0.297-0.587,0.507c-0.004,0.007-0.008,0.014-0.012,0.021
		C38.507,6.271,38.481,6.38,38.472,6.482z"/>
	<path fill="#85C2CC" d="M34.35,8.785c-0.174,0.186-0.276,0.389-0.322,0.544c-0.062,0.197-0.054,0.322-0.06,0.32
		c0.242-0.455,0.582-0.688,0.896-0.824c0.312-0.138,0.608-0.18,0.853-0.194c0.248-0.012,0.448,0.018,0.592,0.039
		c0.138,0.031,0.222,0.045,0.222,0.045c-0.218-0.252-0.598-0.424-0.987-0.428c-0.373-0.006-0.74,0.124-1.004,0.33
		c-0.012,0.009-0.025,0.016-0.037,0.025C34.446,8.688,34.397,8.735,34.35,8.785z"/>
	<path fill="#85C2CC" d="M15.052,11.181c-0.298,0.014-0.555,0.081-0.727,0.161c-0.173,0.082-0.252,0.169-0.252,0.169
		c0.455-0.114,0.826-0.01,1.151,0.028c0.323,0.053,0.59,0.12,0.796,0.193c0.205,0.075,0.356,0.164,0.438,0.263
		c0.083,0.094,0.119,0.17,0.123,0.168c0.021-0.153-0.023-0.344-0.141-0.485c-0.115-0.139-0.265-0.252-0.426-0.322
		c-0.109-0.05-0.221-0.084-0.333-0.111c-0.057-0.014-0.113-0.029-0.169-0.038C15.352,11.182,15.197,11.175,15.052,11.181z"/>
	<path fill="#85C2CC" d="M13.283,6.878c-0.056-0.059-0.097-0.104-0.14-0.125c-0.038-0.022-0.057-0.035-0.057-0.035
		c0.106,0.173,0.105,0.336,0.119,0.487c0.004,0.152,0.003,0.291-0.003,0.42c-0.01,0.257-0.032,0.469-0.065,0.634
		c-0.034,0.163-0.083,0.288-0.161,0.357c-0.072,0.07-0.139,0.102-0.137,0.104c0.124,0.035,0.294,0.007,0.417-0.1
		c0.114-0.103,0.202-0.241,0.243-0.378c0.097-0.278,0.085-0.563,0.035-0.803C13.481,7.2,13.383,7.001,13.283,6.878z"/>
	<path fill="#85C2CC" d="M14.527,10.46c0.099-0.142,0.103-0.381,0.009-0.542c-0.082-0.174-0.223-0.299-0.357-0.384
		c-0.138-0.083-0.276-0.121-0.374-0.135c-0.104-0.007-0.159-0.003-0.159-0.003c0.187,0.181,0.277,0.346,0.379,0.465
		c0.101,0.119,0.178,0.215,0.255,0.292C14.424,10.296,14.52,10.456,14.527,10.46z"/>
	<path fill="#85C2CC" d="M15.525,6.292c0.367-0.135,0.566-0.457,0.667-0.695c0.03-0.132,0.047-0.248,0.058-0.346
		c0.003-0.099-0.02-0.184-0.03-0.249c-0.026-0.132-0.051-0.195-0.051-0.195c-0.167,0.56-0.47,1.053-0.958,1.245
		c-0.115,0.051-0.224,0.103-0.333,0.127c-0.106,0.031-0.203,0.067-0.287,0.077c-0.167,0.035-0.27,0.056-0.27,0.056
		C14.742,6.451,15.176,6.44,15.525,6.292z"/>
	<path fill="#85C2CC" d="M23.32,10.826c-0.355,0.164-0.602,0.395-0.755,0.568c-0.08,0.085-0.133,0.162-0.17,0.213
		c-0.036,0.051-0.056,0.08-0.056,0.08c0.474-0.334,0.923-0.536,1.323-0.611c0.397-0.084,0.738-0.045,1.014,0.028
		c0.276,0.076,0.48,0.201,0.629,0.277c0.138,0.09,0.224,0.135,0.224,0.135c-0.167-0.34-0.512-0.663-0.949-0.8
		c-0.171-0.051-0.346-0.064-0.519-0.06c-0.016,0-0.032,0-0.048,0C23.761,10.67,23.518,10.729,23.32,10.826z"/>
	<path fill="#85C2CC" d="M29.524,11.181c-0.146-0.06-0.294-0.138-0.465-0.137c-0.094-0.005-0.188-0.024-0.282-0.009
		c-0.094,0.017-0.186,0.037-0.276,0.059c-0.09,0.02-0.164,0.077-0.245,0.115c-0.076,0.042-0.152,0.083-0.208,0.144
		c-0.493,0.443-0.562,0.927-0.58,0.913c0.329-0.354,0.644-0.597,0.934-0.727c0.075-0.024,0.138-0.071,0.212-0.082
		c0.069-0.012,0.138-0.027,0.203-0.044c0.132-0.012,0.258-0.017,0.373-0.017c0.116,0.017,0.223,0.026,0.32,0.032
		c0.095,0.02,0.175,0.036,0.241,0.051c0.136,0.024,0.218,0.031,0.218,0.031c-0.111-0.104-0.241-0.215-0.388-0.305
		c-0.018,0.02-0.037,0.039-0.053,0.058C29.529,11.263,29.522,11.233,29.524,11.181z"/>
	<path fill="#85C2CC" d="M38.773,7.146c-0.328,0.303-0.418,0.718-0.393,1.012c0.079,0.614,0.409,0.793,0.386,0.797
		c-0.067-0.317-0.091-0.647-0.033-0.95c0.065-0.301,0.221-0.569,0.433-0.745c0.426-0.37,0.95-0.348,0.938-0.365
		c-0.43-0.158-0.931-0.079-1.254,0.186c-0.024,0.021-0.051,0.039-0.072,0.061C38.776,7.144,38.775,7.146,38.773,7.146z"/>
	<path fill="#85C2CC" d="M31.025,9.975c-0.203-0.036-0.404-0.007-0.568,0.054c-0.338,0.123-0.562,0.339-0.705,0.533
		c-0.142,0.198-0.205,0.382-0.221,0.509c-0.007,0.046-0.007,0.081-0.007,0.11c-0.002,0.052,0.005,0.082,0.005,0.082
		c0.016-0.019,0.035-0.038,0.053-0.058c0.321-0.382,0.755-0.742,1.16-0.912c0.211-0.087,0.411-0.101,0.555-0.066
		c0.146,0.028,0.227,0.09,0.23,0.083C31.423,10.133,31.228,10.009,31.025,9.975z"/>
</g>
</svg>
